<svg width="1781" height="803" viewBox="0 0 1781 803" fill="none" xmlns="http://www.w3.org/2000/svg">
<path d="M1742.76 277.649C1734.97 273.598 1759.01 266.123 1769.08 255.55C1779.12 244.635 1701.82 259.437 1691.02 250.874C1680.18 241.954 1744.4 240.957 1762.08 236.668C1779.79 232.394 1743.28 206.379 1725.02 193.364C1706.41 180.394 1725.72 173.737 1731.32 155.123C1735.55 141.423 1706.41 149.762 1691.45 155.629C1704.77 148.08 1726.25 133.099 1711.97 130.776C1692.11 127.887 1734.85 111.238 1746.02 100.576C1757.19 89.8992 1732.78 89.6609 1742.11 71.4191C1751.44 53.1921 1672.78 80.6666 1696.61 71.0021C1720.44 61.3228 1748.17 19.1804 1734.22 27.9067C1720.28 36.6181 1699.92 28.6066 1711.09 17.9444C1722.22 6.90992 1693.63 -9.90236 1665.74 7.53536C1637.85 24.9731 1024.68 155.064 1011.53 148.958C998.745 142.793 1041.61 104.374 990.348 109.288C939.074 114.217 503.379 225.782 503.379 225.782L483.961 227.659L7.86448 480.022C-23.4249 496.67 50.2946 487.006 27.5359 503.952C4.7773 520.898 28.9528 545.514 52.3229 531.099C75.7079 516.684 22.7486 580.806 46.6705 575.922C70.9503 571.008 11.6228 645.717 25.1199 659.179C38.617 672.641 83.9105 628.801 66.4165 704.285C48.9225 779.769 93.0378 827.198 121.628 790.133C150.203 753.069 270.737 726.741 311.422 715.453C352.092 704.166 460.785 681.561 363.382 690.912C265.98 700.264 134.871 774.11 284.89 693.28C434.909 612.45 911.185 699.564 912.334 684.688C913.497 669.826 1156.13 656.484 1201.78 646.938C1247.42 637.393 1313.04 624.08 1290.12 616.322C1267.2 608.549 1395.99 591.394 1415.11 582.548C1433.84 573.733 1464.57 532.037 1441.05 544.992C1417.54 557.948 1178.28 629.262 1059.52 601.192C1003.16 587.775 1150.4 566.257 1321.5 546.884C1274.49 557.665 1094.51 584.544 1119.4 585.839C1143.54 587.209 1299.14 564.158 1315.46 557.054C1324.33 553.257 1340.35 546.913 1344.17 544.337C1392.43 538.961 1442.2 533.809 1489.43 529.282C1514.87 528.687 1548.04 527.704 1547.22 534.435C1545.44 546.779 1589.25 541.091 1589.32 530.384C1589.34 526.691 1576.87 523.832 1559.37 522.566C1658.61 513.036 1733.79 506.93 1738.18 506.498C1752.82 505.099 1763.5 489.314 1759.91 474.899C1755.92 460.514 1768.47 437.165 1764.6 420.203C1760.4 403.257 1694.27 407.397 1730.39 398.76C1766.56 390.495 1753.06 377.019 1767.21 370.496C1781.37 363.974 1757.33 344.511 1771.02 333.238C1784.71 321.95 1754.95 320.015 1775.76 309.531C1796.25 299.807 1750.57 282.057 1742.76 277.649Z" fill="#E65725"/>
</svg>
