<svg width="20" height="20" viewBox="0 0 20 20" fill="none" xmlns="http://www.w3.org/2000/svg">
<path d="M3.95898 4.79232C3.95898 4.33208 4.33208 3.95898 4.79232 3.95898H7.70898C8.16922 3.95898 8.54232 4.33208 8.54232 4.79232V7.70898C8.54232 8.16922 8.16922 8.54232 7.70898 8.54232H4.79232C4.33208 8.54232 3.95898 8.16922 3.95898 7.70898V4.79232Z" stroke="black" stroke-width="1.5" stroke-linecap="round" stroke-linejoin="round"/>
<path d="M3.95898 12.2923C3.95898 11.8321 4.33208 11.459 4.79232 11.459H7.70898C8.16922 11.459 8.54232 11.8321 8.54232 12.2923V15.209C8.54232 15.6692 8.16922 16.0423 7.70898 16.0423H4.79232C4.33208 16.0423 3.95898 15.6692 3.95898 15.209V12.2923Z" stroke="black" stroke-width="1.5" stroke-linecap="round" stroke-linejoin="round"/>
<path d="M11.459 4.79232C11.459 4.33208 11.8321 3.95898 12.2923 3.95898H15.209C15.6692 3.95898 16.0423 4.33208 16.0423 4.79232V7.70898C16.0423 8.16922 15.6692 8.54232 15.209 8.54232H12.2923C11.8321 8.54232 11.459 8.16922 11.459 7.70898V4.79232Z" stroke="black" stroke-width="1.5" stroke-linecap="round" stroke-linejoin="round"/>
<path d="M11.459 12.2923C11.459 11.8321 11.8321 11.459 12.2923 11.459H15.209C15.6692 11.459 16.0423 11.8321 16.0423 12.2923V15.209C16.0423 15.6692 15.6692 16.0423 15.209 16.0423H12.2923C11.8321 16.0423 11.459 15.6692 11.459 15.209V12.2923Z" stroke="black" stroke-width="1.5" stroke-linecap="round" stroke-linejoin="round"/>
</svg>
