<svg width="16" height="17" viewBox="0 0 16 17" fill="none" xmlns="http://www.w3.org/2000/svg">
<g clip-path="url(#clip0_242_14546)">
<g clip-path="url(#clip1_242_14546)">
<path d="M12.417 5.92616C12.2714 5.85887 12.1016 5.87031 11.967 5.95547C11.832 6.04153 11.75 6.19075 11.75 6.35097V7.13281C11.75 7.39144 11.5399 7.60156 11.2813 7.60156C11.0497 7.60156 10.8537 7.43494 10.8158 7.20834C10.4344 4.84444 8.69762 0.976562 8 0.976562C7.30238 0.976562 5.56563 4.84444 5.18475 7.20559C5.14631 7.43494 4.95038 7.60156 4.71875 7.60156C4.46012 7.60156 4.25 7.39144 4.25 7.13281V6.35094C4.25 6.19072 4.16806 6.0415 4.03303 5.95544C3.898 5.87028 3.72906 5.85884 3.58306 5.92613C1.98728 6.67047 0.96875 9.91419 0.96875 11.8203C0.96875 14.8562 3.86 16.9766 8 16.9766C12.14 16.9766 15.0312 14.8562 15.0312 11.8203C15.0312 9.91419 14.0127 6.67047 12.417 5.92616Z" fill="url(#paint0_linear_242_14546)"/>
<path d="M10.2739 10.6364C10.1883 10.4982 10.0376 10.4139 9.87513 10.4139H8.8351L8.45469 8.89415C8.4071 8.70372 8.24641 8.56319 8.05141 8.54169C7.85229 8.52109 7.66873 8.62315 7.58082 8.79803L5.70582 12.548C5.63304 12.6932 5.64082 12.8657 5.72641 13.004C5.81201 13.1422 5.96263 13.2264 6.12513 13.2264H7.16516L7.54557 14.7462C7.59316 14.9367 7.75385 15.0772 7.94885 15.0987C8.14944 15.1198 8.33345 15.0138 8.41945 14.8423L10.2944 11.0923C10.3672 10.9472 10.3594 10.7747 10.2739 10.6364Z" fill="url(#paint1_linear_242_14546)"/>
</g>
</g>
<defs>
<linearGradient id="paint0_linear_242_14546" x1="8" y1="16.9766" x2="8" y2="0.976562" gradientUnits="userSpaceOnUse">
<stop stop-color="#FD5900"/>
<stop offset="1" stop-color="#FFDE00"/>
</linearGradient>
<linearGradient id="paint1_linear_242_14546" x1="8.00013" y1="15.1014" x2="8.00013" y2="8.53906" gradientUnits="userSpaceOnUse">
<stop stop-color="#FFE59A"/>
<stop offset="1" stop-color="#FFFFD5"/>
</linearGradient>
<clipPath id="clip0_242_14546">
<rect width="16" height="16" fill="white" transform="translate(0 0.976562)"/>
</clipPath>
<clipPath id="clip1_242_14546">
<rect width="16" height="16" fill="white" transform="translate(0 0.976562)"/>
</clipPath>
</defs>
</svg>
