<svg width="48" height="49" viewBox="0 0 48 49" fill="none" xmlns="http://www.w3.org/2000/svg">
<g clip-path="url(#clip0_252_3809)">
<path d="M48 24.4082C48 36.3876 39.2231 46.3166 27.75 48.1166V31.3457H33.3422L34.4062 24.4082H27.75V19.9063C27.75 18.0079 28.68 16.1582 31.6613 16.1582H34.6875V10.252C34.6875 10.252 31.9406 9.7832 29.3147 9.7832C23.8331 9.7832 20.25 13.1057 20.25 19.1207V24.4082H14.1562V31.3457H20.25V48.1166C8.77688 46.3166 0 36.3876 0 24.4082C0 11.1538 10.7456 0.408203 24 0.408203C37.2544 0.408203 48 11.1538 48 24.4082Z" fill="#1877F2"/>
<path d="M33.3422 31.3457L34.4062 24.4082H27.75V19.9062C27.75 18.0083 28.6798 16.1582 31.6612 16.1582H34.6875V10.252C34.6875 10.252 31.941 9.7832 29.3152 9.7832C23.833 9.7832 20.25 13.1057 20.25 19.1207V24.4082H14.1562V31.3457H20.25V48.1165C21.4719 48.3083 22.7242 48.4082 24 48.4082C25.2758 48.4082 26.5281 48.3083 27.75 48.1165V31.3457H33.3422Z" fill="white"/>
</g>
<defs>
<clipPath id="clip0_252_3809">
<rect width="48" height="48" fill="white" transform="translate(0 0.408203)"/>
</clipPath>
</defs>
</svg>
