<svg width="48" height="49" viewBox="0 0 48 49" fill="none" xmlns="http://www.w3.org/2000/svg">
<g clip-path="url(#clip0_252_3813)">
<path d="M0.103516 48.4082L3.47852 36.0801C1.39727 32.4801 0.309766 28.3832 0.309766 24.1926C0.309766 11.077 10.9879 0.408203 24.1035 0.408203C30.4691 0.408203 36.441 2.89258 40.9316 7.3832C45.4223 11.8832 47.8973 17.8551 47.8973 24.2113C47.8879 37.327 37.2191 47.9957 24.1035 47.9957H24.0941C20.1098 47.9957 16.2004 46.9926 12.7223 45.0988L0.103516 48.4082ZM13.3035 40.7957L14.0254 41.227C17.0629 43.027 20.541 43.9832 24.0941 43.9832H24.1035C35.0066 43.9832 43.8754 35.1145 43.8754 24.2113C43.8754 18.9332 41.8223 13.9645 38.091 10.2238C34.3598 6.4832 29.391 4.43008 24.1129 4.43008C13.2004 4.43008 4.33164 13.2988 4.33164 24.202C4.33164 27.9332 5.37227 31.5707 7.35039 34.7207L7.81914 35.4707L5.82227 42.7645L13.3035 40.7957Z" fill="white"/>
<path d="M0.9375 47.5739L4.2 35.6771C2.18438 32.1989 1.125 28.2427 1.125 24.2021C1.13438 11.5364 11.4375 1.24268 24.0938 1.24268C30.2344 1.24268 36.0094 3.6333 40.3406 7.97393C44.6813 12.3146 47.0719 18.0802 47.0625 24.2208C47.0531 36.8771 36.75 47.1802 24.0938 47.1802H24.0844C20.2406 47.1802 16.4625 46.2146 13.1063 44.3864L0.9375 47.5739Z" fill="url(#paint0_linear_252_3813)"/>
<path d="M0.103516 48.4082L3.47852 36.0801C1.39727 32.4801 0.309766 28.3832 0.309766 24.1926C0.309766 11.077 10.9879 0.408203 24.1035 0.408203C30.4691 0.408203 36.441 2.89258 40.9316 7.3832C45.4223 11.8832 47.8973 17.8551 47.8973 24.2113C47.8879 37.327 37.2191 47.9957 24.1035 47.9957H24.0941C20.1098 47.9957 16.2004 46.9926 12.7223 45.0988L0.103516 48.4082ZM13.3035 40.7957L14.0254 41.227C17.0629 43.027 20.541 43.9832 24.0941 43.9832H24.1035C35.0066 43.9832 43.8754 35.1145 43.8754 24.2113C43.8754 18.9332 41.8223 13.9645 38.091 10.2238C34.3598 6.4832 29.391 4.43008 24.1129 4.43008C13.2004 4.43008 4.33164 13.2988 4.33164 24.202C4.33164 27.9332 5.37227 31.5707 7.35039 34.7207L7.81914 35.4707L5.82227 42.7645L13.3035 40.7957Z" fill="url(#paint1_linear_252_3813)"/>
<path fill-rule="evenodd" clip-rule="evenodd" d="M18.15 14.2456C17.7 13.2519 17.2313 13.2331 16.8094 13.2144C16.4625 13.1956 16.0688 13.205 15.6656 13.205C15.2719 13.205 14.625 13.355 14.0812 13.9456C13.5375 14.5362 12 15.98 12 18.905C12 21.83 14.1281 24.6612 14.4281 25.055C14.7281 25.4487 18.5438 31.6456 24.5813 34.0269C29.6063 36.005 30.6281 35.6112 31.7156 35.5175C32.8031 35.4237 35.2313 34.0831 35.7281 32.6956C36.225 31.3081 36.225 30.1175 36.075 29.8737C35.925 29.63 35.5312 29.48 34.9313 29.18C34.3406 28.88 31.4156 27.4456 30.8719 27.2487C30.3281 27.0519 29.9344 26.9487 29.5312 27.5487C29.1375 28.1394 27.9937 29.48 27.6469 29.8737C27.3 30.2675 26.9531 30.3237 26.3625 30.0237C25.7719 29.7237 23.85 29.0956 21.5812 27.0706C19.8094 25.4956 18.6187 23.5456 18.2719 22.955C17.925 22.3644 18.2344 22.0362 18.5344 21.7456C18.7969 21.4831 19.125 21.0519 19.425 20.705C19.725 20.3581 19.8187 20.1144 20.0156 19.7112C20.2125 19.3175 20.1187 18.9706 19.9688 18.6706C19.8375 18.3612 18.6844 15.4269 18.15 14.2456Z" fill="white"/>
</g>
<defs>
<linearGradient id="paint0_linear_252_3813" x1="23.9998" y1="47.5778" x2="23.9998" y2="1.23949" gradientUnits="userSpaceOnUse">
<stop stop-color="#20B038"/>
<stop offset="1" stop-color="#60D66A"/>
</linearGradient>
<linearGradient id="paint1_linear_252_3813" x1="24.0004" y1="48.4082" x2="24.0004" y2="0.408203" gradientUnits="userSpaceOnUse">
<stop stop-color="#F9F9F9"/>
<stop offset="1" stop-color="white"/>
</linearGradient>
<clipPath id="clip0_252_3813">
<rect width="48" height="48" fill="white" transform="translate(0 0.408203)"/>
</clipPath>
</defs>
</svg>
