<svg width="32" height="33" viewBox="0 0 32 33" fill="none" xmlns="http://www.w3.org/2000/svg">
<path d="M31.9997 17.1768C31.9997 17.4306 31.9164 17.6803 31.7597 17.8848C31.5576 18.1483 31.2514 18.3122 30.9177 18.3349L30.9096 18.3357C30.331 18.3744 29.8081 17.9728 29.6942 17.4014C29.0064 13.936 27.3585 10.7494 24.9292 8.18508C24.8144 8.0638 24.6965 7.94264 24.5793 7.82471C21.9609 5.20302 18.6595 3.43152 15.0317 2.70262C14.7957 2.6549 14.584 2.53775 14.4183 2.36241C14.1952 2.1272 14.0804 1.80794 14.1022 1.48791C14.1249 1.15417 14.2905 0.847067 14.5564 0.644185C14.7585 0.489793 15.0033 0.408203 15.2522 0.408203C15.3265 0.408203 15.4009 0.415441 15.4744 0.430053C19.5565 1.24792 23.2716 3.23924 26.2174 6.1882C29.18 9.15411 31.1715 12.8758 31.9772 16.9505C31.9923 17.0256 31.9997 17.1016 31.9997 17.1768Z" fill="white"/>
<path d="M26.6467 18.1967C26.4438 18.4731 26.131 18.6453 25.7892 18.6687C25.2268 18.7067 24.7177 18.334 24.5827 17.7822C24.0194 15.4919 22.8629 13.3736 21.2377 11.6578C21.1544 11.5698 21.0688 11.4825 20.9823 11.3952C19.2165 9.62693 17.0118 8.37913 14.6075 7.78677C14.3957 7.73427 14.2042 7.62346 14.0539 7.46506C13.8324 7.23153 13.7185 6.91072 13.7411 6.58655C13.7645 6.24388 13.9368 5.93109 14.2148 5.72911C14.4144 5.58287 14.6527 5.50684 14.8944 5.50684C14.9866 5.50684 15.0787 5.51809 15.1699 5.53994C17.9807 6.23341 20.5571 7.69289 22.6205 9.75934C24.6926 11.8339 26.1505 14.4216 26.8375 17.2422C26.9173 17.5728 26.8479 17.9212 26.6467 18.1967Z" fill="white"/>
<path d="M21.4865 18.4872C21.2861 18.7903 20.9629 18.9778 20.6 19.002C20.0796 19.0368 19.5987 18.72 19.4298 18.2301C19.0048 16.9953 18.3162 15.8954 17.3827 14.9619C16.455 14.0325 15.3616 13.3448 14.1347 12.9172C13.9658 12.859 13.8106 12.7588 13.6869 12.6279C13.4646 12.3927 13.3499 12.0727 13.3718 11.7487C13.3969 11.3858 13.5859 11.0616 13.8898 10.8621C14.083 10.7345 14.3036 10.6689 14.5266 10.6689C14.6559 10.6689 14.786 10.6908 14.9129 10.7351C16.4638 11.2782 17.8464 12.1495 19.0216 13.3262C19.6116 13.9162 20.1256 14.5595 20.5588 15.2513C20.9927 15.9431 21.346 16.6826 21.6166 17.4657C21.7356 17.8108 21.6887 18.1833 21.4865 18.4872Z" fill="white"/>
<path d="M26.1378 27.0279C26.0668 26.7065 25.8638 26.4259 25.5806 26.258C24.9472 25.8825 24.0025 25.2569 23.0889 24.6518C22.2487 24.0953 21.455 23.5696 20.942 23.2637C20.5299 23.0177 20.0193 22.9447 19.6091 23.073C19.3015 23.1692 19.0708 23.3696 18.9423 23.6524L18.0007 26.0025C17.915 26.1662 17.8012 26.2698 17.6623 26.3103C17.4958 26.3589 17.2855 26.3156 17.0698 26.1881C12.5239 23.5109 8.87812 19.8651 6.23574 15.3558C6.10113 15.1179 6.05794 14.8709 6.12027 14.6949C6.16371 14.5723 6.25681 14.4845 6.40629 14.4256L8.75877 13.4835C9.04557 13.3663 9.25013 13.1458 9.35048 12.8457C9.48625 12.4396 9.4106 11.9032 9.15781 11.4793C8.85174 10.9664 8.32598 10.1724 7.76932 9.33206C7.16429 8.41864 6.53883 7.47419 6.16333 6.84085C5.99549 6.55766 5.71489 6.35465 5.39356 6.28366C5.07237 6.2128 4.73255 6.27888 4.46126 6.46495C4.06998 6.73352 3.73055 6.96058 3.43095 7.16101C2.68046 7.6631 2.08758 8.05969 1.27838 8.70777C-0.701817 10.2937 -0.00795952 12.7949 0.87236 15.2208C2.17836 18.8189 4.32911 22.1319 7.26502 25.0676L7.35359 25.1563C10.2898 28.0924 13.6026 30.2431 17.2004 31.5489C18.4732 32.0108 19.7665 32.4213 20.9376 32.4213C21.9987 32.4213 22.9596 32.0842 23.7135 31.1428C24.3618 30.3334 24.7585 29.7404 25.2607 28.9895C25.461 28.6902 25.688 28.3509 25.9563 27.96C26.1426 27.6889 26.2087 27.3491 26.1378 27.0279Z" fill="white"/>
</svg>
