<svg width="48" height="34" viewBox="0 0 48 34" fill="none" xmlns="http://www.w3.org/2000/svg">
<path d="M46.9407 5.22215C46.6654 4.21277 46.1283 3.29255 45.3829 2.55314C44.6376 1.81372 43.71 1.28092 42.6925 1.00778C38.9676 0 23.9757 0 23.9757 0C23.9757 0 8.98382 0.0305388 5.25894 1.03832C4.24145 1.31146 3.31384 1.84426 2.56849 2.58368C1.82314 3.32309 1.28605 4.24331 1.01072 5.25269C-0.115977 11.8186 -0.553112 21.8231 1.04151 28.1263C1.31684 29.1357 1.85392 30.0559 2.59927 30.7953C3.34462 31.5348 4.27223 32.0676 5.28972 32.3407C9.01461 33.3485 24.0065 33.3485 24.0065 33.3485C24.0065 33.3485 38.9984 33.3485 42.7233 32.3407C43.7408 32.0676 44.6684 31.5348 45.4137 30.7953C46.1591 30.0559 46.6962 29.1357 46.9715 28.1263C48.1598 21.5513 48.5261 11.5529 46.9407 5.22215Z" fill="#FF0000"/>
<path d="M19.2041 23.8215L31.6409 16.6754L19.2041 9.5293V23.8215Z" fill="white"/>
</svg>
