<svg width="16" height="17" viewBox="0 0 16 17" fill="none" xmlns="http://www.w3.org/2000/svg">
<g clip-path="url(#clip0_242_14538)">
<path d="M15.2643 8.97712L15.9663 7.14625C16.0433 6.94426 15.9833 6.71528 15.8143 6.57829L14.2924 5.34437L13.9844 3.4075C13.9504 3.19352 13.7824 3.02653 13.5684 2.99253L11.6316 2.68455L10.3987 1.16166C10.2627 0.992669 10.0287 0.932673 9.8317 1.00967L7.99982 1.71262L6.16895 1.01067C5.96596 0.932673 5.73898 0.994669 5.60199 1.16266L4.36807 2.68555L2.4312 2.99353C2.21822 3.02753 2.05023 3.19552 2.01623 3.4085L1.70825 5.34537L0.185355 6.57929C0.0173667 6.71528 -0.0436291 6.94426 0.0333656 7.14625L0.735318 8.97712L0.0333656 10.808C-0.0446291 11.01 0.0173667 11.239 0.185355 11.375L1.70825 12.6079L2.01623 14.5447C2.05023 14.7587 2.21722 14.9267 2.4312 14.9607L4.36807 15.2687L5.60199 16.7906C5.73898 16.9606 5.96796 17.0206 6.16995 16.9426L7.99982 16.2416L9.8307 16.9436C9.88869 16.9656 9.94869 16.9766 10.0097 16.9766C10.1567 16.9766 10.3017 16.9116 10.3987 16.7906L11.6316 15.2687L13.5684 14.9607C13.7824 14.9267 13.9504 14.7587 13.9844 14.5447L14.2924 12.6079L15.8143 11.375C15.9833 11.238 16.0433 11.01 15.9663 10.808L15.2643 8.97712Z" fill="#F44336"/>
<path d="M6.4999 7.97733C5.67295 7.97733 5 7.30438 5 6.47744C5 5.65049 5.67295 4.97754 6.4999 4.97754C7.32684 4.97754 7.9998 5.65049 7.9998 6.47744C7.9998 7.30438 7.32684 7.97733 6.4999 7.97733ZM6.4999 5.97747C6.22392 5.97747 5.99993 6.20146 5.99993 6.47744C5.99993 6.75342 6.22392 6.9774 6.4999 6.9774C6.77588 6.9774 6.99986 6.75342 6.99986 6.47744C6.99986 6.20146 6.77588 5.97747 6.4999 5.97747Z" fill="#FAFAFA"/>
<path d="M9.4999 12.9764C8.67295 12.9764 8 12.3034 8 11.4765C8 10.6495 8.67295 9.97656 9.4999 9.97656C10.3268 9.97656 10.9998 10.6495 10.9998 11.4765C10.9998 12.3034 10.3268 12.9764 9.4999 12.9764ZM9.4999 10.9765C9.22492 10.9765 8.99993 11.2015 8.99993 11.4765C8.99993 11.7514 9.22492 11.9764 9.4999 11.9764C9.77488 11.9764 9.99986 11.7514 9.99986 11.4765C9.99986 11.2015 9.77488 10.9765 9.4999 10.9765Z" fill="#FAFAFA"/>
<path d="M5.49952 12.9766C5.39853 12.9766 5.29753 12.9466 5.20954 12.8836C4.98456 12.7226 4.93256 12.4106 5.09355 12.1856L10.0932 5.1861C10.2542 4.96112 10.5662 4.90912 10.7912 5.07011C11.0161 5.2301 11.0671 5.54308 10.9072 5.76706L5.90749 12.7666C5.8085 12.9036 5.65551 12.9766 5.49952 12.9766Z" fill="#FAFAFA"/>
</g>
<defs>
<clipPath id="clip0_242_14538">
<rect width="16" height="16" fill="white" transform="translate(0 0.976562)"/>
</clipPath>
</defs>
</svg>
