<svg width="236" height="79" viewBox="0 0 236 79" fill="none" xmlns="http://www.w3.org/2000/svg">
<path d="M228.193 46.8458C227.352 46.0728 230.604 45.849 232.209 44.783C233.821 43.6713 223.667 43.1845 222.597 41.7278C221.532 40.2229 229.598 42.1035 231.951 42.0971C234.305 42.0931 230.589 37.5511 228.731 35.2792C226.827 33.0018 229.461 32.737 230.769 30.4803C231.747 28.8231 227.829 29 225.765 29.2981C227.678 28.7288 230.855 27.4442 229.145 26.6938C226.755 25.6943 232.646 24.8577 234.392 23.8146C236.139 22.7695 233.093 21.9738 234.857 19.883C236.619 17.7936 225.881 18.92 229.179 18.4036C232.476 17.8854 237.323 13.2479 235.293 13.9513C233.264 14.6527 230.979 12.9686 232.725 11.9254C234.478 10.8322 231.451 7.74055 227.392 9.14537C223.333 10.5502 142.373 8.34495 140.927 7.1354C139.53 5.92975 146.148 2.25266 139.575 1.28953C133 0.327887 74.8472 1.25995 74.8472 1.25995L72.3568 0.89703L4.54564 18.9583C0.0869927 20.1535 9.62512 21.1994 6.2239 22.7007C2.82268 24.2019 5.04196 28.1748 8.43689 27.0234C11.8337 25.8725 3.11169 32.5913 6.26397 32.7023C9.46201 32.8206 -0.402877 40.7232 0.845332 42.9045C2.09354 45.0859 9.1933 40.7767 4.53633 50.0905C-0.120635 59.4042 3.84701 66.982 8.63563 63.035C13.4224 59.0875 29.3618 59.4223 34.8205 59.2217C40.2774 59.0206 54.6137 59.4709 42.1231 57.6426C29.6325 55.8143 10.8163 61.3563 32.2266 55.4941C53.6369 49.6318 110.369 75.9268 110.999 74.0193C111.63 72.1141 142.419 77.9688 148.442 78.1513C154.464 78.3333 163.108 78.649 160.494 76.9176C157.881 75.1842 174.554 76.9762 177.235 76.4193C179.866 75.8542 185.073 71.3689 181.707 72.325C178.343 73.2815 146.08 75.106 132.142 67.72C125.53 64.2023 144.654 66.0019 166.69 68.8285C160.457 68.765 137.063 66.6406 140.134 67.5893C143.11 68.5244 163.329 70.3852 165.602 69.9681C166.836 69.7499 169.048 69.4227 169.609 69.2057C175.823 70.0146 182.217 70.8999 188.274 71.7875C191.476 72.5064 195.657 73.4167 195.335 74.2703C194.709 75.8275 200.374 76.456 200.734 75.0595C200.856 74.5775 199.39 73.8136 197.243 73.1004C209.969 74.9628 219.574 76.5194 220.136 76.6003C222.014 76.876 223.866 75.1482 223.888 73.1524C223.86 71.1484 226.193 68.4907 226.264 66.1539C226.292 63.8082 217.885 62.2783 222.686 62.2811C227.48 62.3339 226.233 60.1506 228.216 59.7416C230.2 59.3327 227.829 56.0372 229.911 54.9932C231.992 53.9472 228.334 52.7626 231.279 52.0445C234.161 51.4158 229.027 47.6663 228.193 46.8458Z" fill="#E65725"/>
</svg>
