<svg width="20" height="20" viewBox="0 0 20 20" fill="none" xmlns="http://www.w3.org/2000/svg">
<g clip-path="url(#clip0_186_10143)">
<path d="M16.8936 8.43159C16.6882 8.2937 16.5027 8.1283 16.3423 7.93996C16.3542 7.67774 16.4069 7.41898 16.4985 7.17304C16.6707 6.59004 16.8852 5.86448 16.4719 5.29674C16.0555 4.72448 15.295 4.70527 14.6839 4.68965C14.4269 4.69991 14.1698 4.67228 13.9208 4.60761C13.7839 4.39286 13.6793 4.15915 13.6106 3.91394C13.4067 3.3333 13.1527 2.61063 12.4725 2.38959C11.8125 2.17509 11.2202 2.58263 10.6979 2.94101C10.4881 3.10859 10.2524 3.24105 10.0002 3.33328C9.74781 3.24116 9.51204 3.10867 9.30213 2.94101C8.77984 2.58231 8.18737 2.17606 7.52753 2.38959C6.84754 2.61063 6.59364 3.33294 6.38952 3.9137C6.32087 4.15768 6.21748 4.39053 6.08256 4.60509C5.83278 4.67172 5.57436 4.70015 5.31608 4.68941C4.70508 4.705 3.94451 4.72424 3.52818 5.29647C3.11483 5.86453 3.32929 6.59009 3.50151 7.17314C3.59206 7.4178 3.64523 7.67469 3.65922 7.93521C3.49954 8.1262 3.31336 8.29338 3.10633 8.43162C2.61333 8.80758 2 9.27565 2 9.99995C2 10.7242 2.61333 11.1923 3.10644 11.5683C3.31181 11.7062 3.49731 11.8716 3.6577 12.0599C3.64578 12.3222 3.59308 12.5809 3.50146 12.8269C3.32926 13.4099 3.11478 14.1355 3.52812 14.7032C3.94446 15.2754 4.70503 15.2946 5.31605 15.3103C5.5731 15.3 5.83023 15.3276 6.07922 15.3923C6.21612 15.6071 6.32066 15.8408 6.38945 16.086C6.59356 16.6667 6.84746 17.3893 7.52761 17.6104C7.64811 17.6499 7.77414 17.67 7.90096 17.67C8.41285 17.67 8.88028 17.3487 9.30218 17.059C9.51207 16.8914 9.7477 16.7589 9.99997 16.6666C10.2524 16.7587 10.4881 16.8912 10.6981 17.0589C11.2203 17.4176 11.8127 17.8235 12.4727 17.6103C13.1526 17.3893 13.4065 16.667 13.6107 16.0862C13.6793 15.8422 13.7827 15.6094 13.9176 15.3948C14.1674 15.3282 14.4258 15.2997 14.6841 15.3105C15.2951 15.2949 16.0557 15.2757 16.472 14.7034C16.8853 14.1354 16.6709 13.4098 16.4987 12.8268C16.4081 12.5821 16.355 12.3252 16.341 12.0647C16.5006 11.8737 16.6868 11.7065 16.8939 11.5683C17.3866 11.1923 18 10.7242 18 9.99995C18 9.27565 17.3867 8.80758 16.8936 8.43159ZM12.9714 8.80465L9.63802 12.138C9.37777 12.3983 8.95577 12.3984 8.69544 12.1381C8.69538 12.1381 8.69533 12.138 8.69528 12.138L7.0286 10.4713C6.76497 10.2143 6.75961 9.79219 7.01664 9.52855C7.27366 9.26491 7.69574 9.25956 7.95938 9.51658C7.96342 9.52052 7.96741 9.52451 7.97135 9.52855L9.16665 10.7239L12.0286 7.86188C12.2857 7.59824 12.7077 7.59291 12.9714 7.84994C13.235 8.10696 13.2403 8.52904 12.9833 8.79268C12.9794 8.79675 12.9754 8.80071 12.9714 8.80465Z" fill="#3B82F6"/>
</g>
<defs>
<clipPath id="clip0_186_10143">
<rect width="16" height="16" fill="white" transform="translate(2 2)"/>
</clipPath>
</defs>
</svg>
