<svg width="123" height="39" viewBox="0 0 123 39" fill="none" xmlns="http://www.w3.org/2000/svg">
<path d="M122.867 34.7935C122.658 34.6818 122.432 34.3989 122.205 34.5805C122.031 34.7021 121.834 34.7853 121.625 34.8244C121.417 34.8636 121.203 34.8578 120.997 34.8075C119.551 34.6329 118.126 34.8075 116.694 34.9367C114.489 35.1392 112.284 35.3732 110.076 35.3837C106.394 35.3837 102.708 35.3488 99.0258 35.3278H96.9984C97.0243 35.2858 97.0583 35.2494 97.0983 35.2206C97.1384 35.1918 97.1838 35.1713 97.2318 35.1602C98.4859 34.8494 99.7365 34.5211 100.97 34.1405C104.53 33.03 108.097 31.9334 111.372 30.086C113.897 28.6612 116.228 26.9919 117.833 24.4985C118.416 23.6388 118.814 22.6672 119.002 21.6453C119.19 20.6233 119.165 19.5733 118.927 18.5618C118.44 16.5153 117.071 15.0172 115.454 13.8333C113.124 12.1256 110.511 10.8929 107.839 9.81029C103.941 8.29164 99.947 7.03173 95.8836 6.03871C91.9228 5.0085 87.9272 4.12148 83.9176 3.29383C78.9745 2.2776 73.9826 1.54773 68.9697 0.957548C65.0194 0.500069 61.0481 0.28006 57.0769 0.140372C51.3674 -0.0621762 45.6578 -0.0307463 39.9483 0.140372C33.8207 0.349904 27.6827 0.426732 21.576 1.04834C16.8802 1.53725 12.2436 2.35792 7.78465 3.96434C5.25559 4.88977 2.88678 6.07712 1.07185 8.1899C-0.0986258 9.55536 -0.262353 11.0116 0.347269 12.6145C0.95689 14.2174 2.02634 15.5096 3.22817 16.6899C4.93907 18.2838 6.82128 19.6823 8.84016 20.8596C14.1639 24.1325 19.8809 26.7142 25.8538 28.5425C29.515 29.667 33.2215 30.6203 36.9454 31.5039C40.314 32.3036 43.6931 33.0684 47.107 33.6481C51.9352 34.4687 56.7738 35.244 61.6403 35.8097C61.8912 35.8377 62.1385 35.8901 62.3858 35.932C62.2692 36.0079 62.1306 36.0423 61.9922 36.0298C54.6512 36.0437 47.3183 35.8109 39.9936 35.3313C35.0016 35.01 30.0132 34.6329 25.0143 34.2837C21.1824 34.0252 17.3505 33.7668 13.4907 33.9344C12.2958 33.9868 11.101 34.0497 9.80859 34.109C9.93979 34.246 10.1177 34.3283 10.3067 34.3395C11.937 34.6468 13.5673 34.9611 15.1837 35.2405C18.1935 35.7609 21.2172 36.1694 24.2409 36.4872C27.8603 36.8609 31.4763 37.28 35.1061 37.5349C38.412 37.7724 41.7249 38.0657 45.0203 38.2787C48.3158 38.4918 51.6704 38.6559 54.9937 38.8096C59.4353 39.0191 63.8803 39.075 68.3253 38.8794C72.7076 38.6873 77.0829 38.4114 81.4478 37.9714C82.6705 37.8492 83.8863 37.5908 85.123 37.6222C87.6137 37.6746 90.1079 37.7479 92.5987 37.7689C94.6365 37.7689 96.6744 37.7689 98.7123 37.727C100.87 37.7464 103.026 37.6379 105.171 37.4022C109.288 36.8504 113.434 36.5815 117.565 36.1904C118.534 36.1521 119.496 36.02 120.439 35.7958C121.102 35.5577 121.789 35.3914 122.488 35.2999C122.679 35.2999 122.878 35.251 122.961 35.0415C123.052 34.9227 122.968 34.8389 122.867 34.7935ZM90.6723 33.4595C87.8018 34.0043 84.9174 34.4618 82.0156 34.783C80.8591 34.9088 79.6991 34.7481 78.5321 34.7097C73.7979 34.4722 69.0812 34.0113 64.3784 33.456C59.3795 32.8728 54.398 32.1744 49.427 31.3921C45.3373 30.7461 41.2825 29.9428 37.2346 29.0663C33.6639 28.2875 30.0933 27.4494 26.5749 26.4018C21.6213 24.928 16.7687 23.168 12.1913 20.7164C10.1803 19.6751 8.30771 18.3845 6.61766 16.875C5.22424 15.5934 4.10254 14.0813 3.69496 12.1501C3.53692 11.5322 3.57213 10.8805 3.79582 10.2834C4.01952 9.6862 4.42088 9.17239 4.94556 8.81151C6.33898 7.73592 7.93793 7.06541 9.57519 6.50317C13.4031 5.21588 17.3632 4.36425 21.3809 3.96434C26.3694 3.3986 31.3822 3.26589 36.3951 3.14367C40.1747 3.05636 43.9578 2.94112 47.741 2.86778C50.7612 2.80842 53.778 2.86778 56.7982 2.9481C59.8184 3.02842 62.9258 3.15414 65.9843 3.3986C69.3146 3.66051 72.6379 4.0237 75.9473 4.52658C79.0058 4.99104 82.0714 5.42408 85.116 5.98632C88.3487 6.58 91.5606 7.26796 94.7585 8.02228C97.1133 8.57754 99.4578 9.18169 101.778 9.86616C105.355 10.9138 108.905 12.0662 112.169 13.9171C114.075 14.9997 115.405 16.6306 115.81 18.8307C116.242 21.1914 115.392 23.175 113.653 24.7674C111.605 26.6532 109.187 27.9348 106.627 28.958C101.475 31.0813 96.117 32.4258 90.6723 33.4595Z" fill="#E65725"/>
</svg>
