<svg width="1728" height="35" viewBox="0 0 1728 35" fill="none" xmlns="http://www.w3.org/2000/svg">
<g clip-path="url(#clip0_287_14960)">
<path d="M1746.53 -23.5233C1744.55 -24.3409 1742.41 -24.6778 1740.27 -24.506C1738.14 -24.3343 1736.08 -23.6589 1734.26 -22.5357C1727.06 -20.3706 1721.26 -17.7117 1713.76 -18.7373C1706.94 -16.99 1700 -10.9125 1693.03 -17.066C1682.62 -25.2326 1672.49 -22.5357 1662.16 -23.6752C1648.41 -28.5752 1634.57 -25.9543 1620.82 -23.6752C1613.2 -23.6752 1608.97 -21.3202 1602.07 -20.3706C1599.17 -17.3698 1597.46 -14.7489 1594.45 -19.345C1585.87 -17.9396 1575.97 -10.9125 1567.77 -19.345C1563.96 -18.6613 1560.84 -28.6132 1556.99 -23.4473C1553.48 -19.6489 1549.75 -23.4473 1546.17 -23.8272C1540.53 -16.8001 1539.19 -23.8272 1534.05 -27.1698C1530.24 -35.9822 1526.43 -25.1566 1522.43 -28.2334C1510.46 -25.0047 1498.46 -30.0566 1486.46 -28.2334C1479.03 -25.3466 1470.99 -40.1605 1463.59 -28.4613C1455.21 -33.3992 1448.16 -22.9156 1440.12 -20.0287C1436.31 -12.4319 1433.03 -27.8155 1429.34 -16.2303C1417.9 -8.02568 1406.97 -17.4078 1395.04 -13.0016C1388.83 -12.2419 1382.85 -6.35437 1376.98 -15.0528C1372.94 -5.7846 1369.74 -24.9667 1365.89 -21.776C1359.11 -34.9566 1351.94 -31.538 1344.55 -25.9543C1336.32 -27.4737 1328.28 -24.8907 1320.28 -23.8272C1312.24 -22.1179 1304.2 -26.6 1295.89 -21.5481C1288.92 -22.5357 1283.85 -24.6628 1277.79 -19.497C1269.03 -20.0287 1260.3 -14.7489 1251.8 -19.0411C1244.6 -13.6854 1236.22 -34.007 1228.94 -19.497C1219.41 -13.7613 1209.89 -25.4225 1200.32 -19.497C1190.76 -32.3737 1181.27 -2.17609 1171.67 -19.497C1161.72 -15.9644 1151.77 -26.0683 1141.83 -19.497C1133.45 -31.9938 1128.11 -27.0938 1120.18 -25.6884C1113.99 -28.271 1107.06 -28.5007 1100.71 -26.3341C1096.9 -27.3977 1094.31 -21.9659 1090.92 -30.4365C1086.88 -42.7434 1083.83 -38.0333 1079.75 -32.8675C1075.26 -43.8069 1072.32 -36.6659 1067.48 -36.9318C1058.68 -32.8295 1046.91 -25.0047 1038.45 -36.9318C1034.45 -39.6287 1031.67 -38.9829 1027.44 -42.8573C1022.44 -46.6558 1018.82 -42.0977 1014.21 -40.8442C1007.62 -38.869 1001.37 -30.5504 994.207 -34.2729C990.054 -25.6504 986.395 -37.6535 982.356 -36.1341C978.165 -45.7442 972.068 -43.731 967.838 -36.1341C965.361 -36.5519 963.532 -33.0194 960.674 -32.6775C955.644 -33.5892 950.119 -27.3217 945.051 -32.2597C939.525 -38.907 934.267 -28.1574 929.123 -33.7031C922.835 -39.7046 915.786 -44.6046 908.507 -41.3C901.229 -35.2605 893.722 -49.1627 886.559 -42.3256C877.947 -41.0341 869.335 -37.7674 860.647 -36.5899C851.691 -36.8646 842.735 -36.0611 833.973 -34.1969C826.352 -30.1706 818.73 -35.3364 811.109 -36.2481C806.448 -38.7702 801.562 -40.8556 796.515 -42.4775C788.894 -38.6791 781.806 -43.2372 774.985 -39.5527C770.45 -34.083 766.03 -34.4628 761.115 -32.3357C757.571 -32.3357 753.493 -32.1078 749.683 -32.3357C739.661 -34.9946 726.819 -29.6388 718.017 -30.1706C711.577 -23.9791 705.252 -28.3853 697.973 -27.9675C692.258 -29.7148 689.476 -21.738 684.789 -29.5628C683.569 -29.221 682.617 -34.7287 681.245 -31.8799C678.387 -37.5395 673.624 -33.7411 670.88 -32.4116C666.269 -33.4752 667.756 -31.1202 664.059 -29.069C658.267 -22.6876 651.713 -30.2845 644.664 -25.6884C636.699 -21.89 629.078 -28.1954 621.495 -25.4605C613.874 -24.7008 606.482 -18.2815 598.632 -21.89C590.174 -16.8084 580.117 -15.0607 570.434 -16.99C563.346 -15.6605 554.353 -18.3194 547.57 -17.2179C545.513 -18.0915 544.255 -13.4195 542.235 -14.9009C538.321 -12.7019 533.978 -11.3672 529.501 -10.9871C525.024 -10.607 520.517 -11.1904 516.286 -12.6978C509.743 -14.6161 502.784 -14.6161 496.242 -12.6978C492.133 -14.9135 487.521 -16.0389 482.85 -15.9657C478.179 -15.8926 473.605 -14.6233 469.568 -12.2799C461.947 -1.9102 456.46 0.482817 448.191 -6.08848C438.397 -5.17685 426.051 -7.75979 416.372 -6.08848C412.295 -5.21484 412.562 -5.86057 409.17 -10.1528C407.113 -6.96212 403.15 -14.7489 400.94 -12.166C395.414 -14.8249 390.46 -8.06367 385.354 -18.5853C382.534 -21.738 380.096 -17.3698 377.009 -23.1055C372.436 -21.6621 367.254 -15.1667 362.567 -23.5233C354.717 -29.2589 348.049 -21.738 340.39 -21.2822C328.615 -16.7241 317.183 -22.0039 305.599 -22.9535C299.54 -30.9303 298.245 -28.7651 292.948 -27.8915C289.137 -35.8682 289.137 -28.4233 285.555 -29.7527C279.916 -28.8031 274.124 -41.4139 268.522 -36.9698C257.7 -41.9837 243.563 -50.986 231.903 -38.5651C226.034 -39.2488 214.946 -38.907 210.03 -38.907C208.468 -41.186 207.706 -43.4271 206.219 -43.3891C204.695 -51.6697 202.066 -48.8589 200.199 -46.7317C192.921 -55.1263 185.719 -48.0992 177.907 -49.2767C172.229 -47.9472 168.342 -42.5155 162.969 -50.948C155.348 -53.493 147.46 -50.948 139.877 -51.4418C137.477 -54.1387 134.847 -52.8852 132.561 -51.062C129.97 -52.2775 129.208 -48.8589 126.236 -46.9597C122.425 -43.4271 116.9 -47.7193 112.784 -46.9597C104.553 -49.5806 96.3226 -52.1635 88.0918 -46.9597C78.8796 -45.605 69.8281 -43.3271 61.0748 -40.1605C51.7389 -38.907 43.2032 -34.6907 33.0671 -36.362C27.8085 -35.2985 19.5777 -39.7426 14.5097 -36.5899C11.1182 -28.2713 10.4704 -30.0186 7.57441 -31.3481C5.66913 -32.5636 3.76384 -28.1574 1.70614 -29.4109C-8.08703 -31.1961 -16.4322 -21.814 -27.0256 -25.6124C-27.2161 -24.5869 -38 5.6107 -38 4.47117C-34.1894 9.67503 -32.2079 7.20605 -28.8165 8.26961C-27.2459 7.58281 -25.5364 7.26988 -23.8234 7.35559C-22.1104 7.4413 -20.4409 7.92328 -18.9472 8.76341C-13.5361 3.74947 -7.05817 12.8657 -1.72338 8.76341C4.1068 8.76341 8.67948 16.8921 14.4715 14.9169C21.5592 16.5882 28.7231 12.258 35.0486 12.2959C43.5081 8.95332 50.8625 12.5141 60.0079 6.20869C61.9131 8.48776 66.1048 2.67615 67.8957 6.20869C73.8783 5.29707 81.8424 -2.86957 87.4439 7.1583C92.512 7.1583 96.9323 5.14513 102.686 9.66527C106.916 1.19476 104.515 4.57537 110.041 3.92964C114.423 7.08234 119.872 -5.60444 124.445 1.53662C131.799 0.245149 134.162 -3.36336 140.258 9.77923C149.48 10.9567 166.513 8.82962 176.04 10.5009C184.728 11.9443 194.711 -0.894381 203.514 10.5009C209.839 9.24744 216.737 17.1102 222.567 14.9451C229.698 15.5317 236.635 17.5608 242.953 20.9086C253.852 19.5032 266.807 1.66033 277.934 8.91534C285.213 10.2828 292.643 8.30759 299.921 8.91534C307.542 2.57195 312.42 16.7781 320.117 15.6006C327.167 16.5502 335.779 19.399 342.638 15.3347C344.886 19.513 346.448 19.1331 348.811 17.6897C352.303 16.9481 355.912 16.9481 359.404 17.6897C361.462 13.6254 364.244 16.5122 366.225 17.3859C368.931 17.3859 370.036 15.7905 372.475 11.5743C375.866 11.9541 383.258 16.3223 386.65 11.1944C392.366 10.6246 398.082 14.1572 403.302 13.2835C410.923 18.7153 416.334 22.02 425.708 22.0959C432.605 14.1192 439.693 19.9308 446.628 22.0959C452.59 23.645 458.899 23.1911 464.576 20.8045C466.405 20.3866 467.891 16.2083 469.835 17.7277C473.645 20.0448 478.18 17.7277 482.333 15.5626C488.926 13.8913 495.594 19.551 502.224 15.5626C506.721 17.9936 515.638 23.5773 519.715 15.1828C522.573 3.78745 523.526 7.58589 526.422 7.58589C532.861 3.14172 544.56 9.21922 552.029 4.96497C555.839 7.47194 555.344 3.82544 559.65 6.21845C565.556 2.42002 570.053 23.0835 576.226 15.9804C583.275 14.3851 590.363 22.2479 597.679 17.8417C606.063 18.7913 614.522 21.6401 622.905 17.8417C625.077 18.9432 627.935 20.9944 630.031 17.5758C636.509 21.3742 638.033 23.9572 643.635 26.1982C648.512 33.7951 654.228 28.7812 659.258 26.1982C666.269 17.2719 672.557 29.237 679.759 28.4773C686.961 23.1595 694.163 28.2494 701.365 28.4773C706.226 27.13 711.365 27.13 716.226 28.4773C720.037 24.8688 723.847 36.6819 727.658 30.8323C738.023 33.2633 749.187 29.8827 758.638 26.0083C764.315 25.5905 768.85 19.399 774.718 17.9556C777.805 20.1587 779.71 9.29519 782.606 14.4611C786.722 11.1944 790.989 16.1324 795.486 13.5115C802.154 22.2099 809.242 10.3967 815.834 13.5115C825.475 17.044 832.334 10.0169 840.908 1.31847C846.128 0.938627 853.711 4.85102 859.427 0.292895C866.705 4.96497 872.574 0.292891 879.509 4.31923C881.757 2.26808 883.967 15.4107 886.177 5.15489C888.35 5.64869 890.56 11.6502 892.77 8.64946C904.811 4.43319 917.538 23.8432 930.304 15.5626C938.459 13.3975 946.689 18.2215 954.882 15.3347C963.037 10.4727 971.191 12.6378 979.117 17.1959C985.938 22.9696 992.721 27.5277 999.161 15.0308C1005.79 4.20529 1009.07 9.5231 1016.38 11.2324C1029.3 9.979 1042.3 9.979 1055.21 11.2324C1062.64 13.8913 1070.11 12.296 1077.54 11.2324C1084.97 10.1688 1089.81 8.23163 1096.6 13.3975C1110.28 16.8161 1123.27 9.25721 1135.39 17.6138C1140.61 21.4122 1146.25 31.63 1151.55 23.9951C1160.12 23.9951 1168.31 30.1486 1177.84 32.4656C1188.74 36.2641 1196.89 25.7044 1207.29 28.6672C1221.13 32.1998 1234.65 19.1331 1248.87 26.1602C1257.52 22.3618 1269.64 29.9587 1277.83 25.8564C1284.38 25.1727 1287.32 22.0579 1294.82 17.4998C1301.38 11.9921 1308.66 26.6161 1315.13 17.4998C1322.14 19.1711 1328.39 19.1711 1335.41 22.2479C1340.17 31.2122 1345.35 17.8797 1350.15 22.02C1358.27 22.6277 1366.35 15.7145 1374.46 22.02C1382.54 22.02 1390.62 21.3742 1398.74 22.02C1407.46 10.6246 1416.38 26.654 1424.76 24.6409C1432.38 33.3013 1437.15 32.4277 1445.61 32.8835C1455.25 38.923 1461.57 30.3765 1470.57 27.8316C1478.52 28.0192 1486.46 27.357 1494.27 25.8564C1502.79 25.9843 1511.21 23.9172 1518.69 19.8548C1527.46 18.6393 1533.94 8.11767 1544 15.5626C1556.88 20.2347 1569.79 22.0959 1582.67 15.5626C1590.29 19.9308 1595.36 14.3471 1602.79 13.3975C1612.85 7.96574 1622.19 17.5378 1632.1 15.0688C1642.08 16.5122 1652.75 21.868 1662.85 17.6518C1670.1 17.785 1677.08 20.4004 1682.62 25.0587C1690.82 31.0222 1701.3 20.6145 1710.14 26.3122C1717.57 30.1106 1722.71 22.5137 1729.57 22.0579C1736.05 22.3238 1751.6 23.1595 1755.18 13.3975C1755.18 5.49675 1766 -33.5512 1766 -27.5117C1762.27 -17.9016 1751.6 -24.207 1746.53 -23.5233Z" fill="white"/>
</g>
<defs>
<clipPath id="clip0_287_14960">
<rect width="1728" height="35" fill="white"/>
</clipPath>
</defs>
</svg>
