<svg width="16" height="17" viewBox="0 0 16 17" fill="none" xmlns="http://www.w3.org/2000/svg">
<path d="M12.9623 8.18041C12.9244 8.27178 12.8604 8.34988 12.7782 8.40484C12.6959 8.4598 12.5993 8.48914 12.5004 8.48916H8.50039V14.4892C8.50039 14.6218 8.44772 14.7489 8.35395 14.8427C8.26018 14.9365 8.133 14.9892 8.00039 14.9892C7.86779 14.9892 7.74061 14.9365 7.64684 14.8427C7.55307 14.7489 7.50039 14.6218 7.50039 14.4892V8.48916H3.50039C3.40145 8.48924 3.3047 8.45996 3.2224 8.40502C3.14011 8.35009 3.07596 8.27197 3.03808 8.18056C3.00021 8.08915 2.9903 7.98855 3.00963 7.89151C3.02895 7.79447 3.07664 7.70534 3.14664 7.63541L7.64664 3.13541C7.69308 3.08892 7.74822 3.05205 7.80892 3.02688C7.86962 3.00172 7.93469 2.98877 8.00039 2.98877C8.0661 2.98877 8.13117 3.00172 8.19186 3.02688C8.25256 3.05205 8.30771 3.08892 8.35414 3.13541L12.8541 7.63541C12.924 7.70538 12.9716 7.7945 12.9909 7.89151C13.0101 7.98852 13.0002 8.08906 12.9623 8.18041Z" fill="white"/>
</svg>
