<svg width="20" height="20" viewBox="0 0 20 20" fill="none" xmlns="http://www.w3.org/2000/svg">
<path d="M10.0008 13.3341C9.89113 13.3348 9.78241 13.3138 9.68088 13.2723C9.57935 13.2308 9.48701 13.1697 9.40914 13.0925L4.40914 8.09247C4.25222 7.93555 4.16406 7.72272 4.16406 7.50081C4.16406 7.27889 4.25222 7.06606 4.40914 6.90914C4.56606 6.75222 4.77889 6.66406 5.00081 6.66406C5.22272 6.66406 5.43555 6.75222 5.59247 6.90914L10.0008 11.3258L14.4091 6.91747C14.5686 6.78095 14.7736 6.70961 14.9833 6.71771C15.1931 6.72581 15.392 6.81276 15.5404 6.96117C15.6889 7.10958 15.7758 7.30853 15.7839 7.51826C15.792 7.72799 15.7207 7.93305 15.5841 8.09247L10.5841 13.0925C10.4289 13.2464 10.2194 13.3332 10.0008 13.3341Z" fill="#022345"/>
</svg>
