<svg width="48" height="48" viewBox="0 0 48 48" fill="none" xmlns="http://www.w3.org/2000/svg">
<g clip-path="url(#clip0_276_7924)">
<path d="M11.2057 25.0501H9.18891C7.90228 25.0501 6.85547 24.0099 6.85547 22.7314C6.85547 22.343 6.54075 22.0283 6.15234 22.0283C5.76394 22.0283 5.44922 22.343 5.44922 22.7314C5.44922 24.7853 7.12687 26.4563 9.189 26.4563H11.2057C11.5942 26.4563 11.9089 26.1416 11.9089 25.7532C11.9089 25.3648 11.5942 25.0501 11.2057 25.0501Z" fill="#D70C19"/>
<path d="M17.8138 30.2539H11.807C9.82308 30.2539 8.20898 31.8614 8.20898 33.8376C8.20898 34.226 8.5237 34.5407 8.91211 34.5407C9.30052 34.5407 9.61523 34.2259 9.61523 33.8376C9.61523 32.6369 10.5984 31.6602 11.807 31.6602H17.8138C18.2022 31.6602 18.5169 31.3454 18.5169 30.957C18.5169 30.5686 18.2022 30.2539 17.8138 30.2539Z" fill="#D70C19"/>
<path d="M23.5434 30.2539H20.627C20.2385 30.2539 19.9238 30.5686 19.9238 30.957C19.9238 31.3454 20.2385 31.6602 20.627 31.6602H23.5434C23.9318 31.6602 24.2465 31.3454 24.2465 30.957C24.2465 30.5686 23.9317 30.2539 23.5434 30.2539Z" fill="#D70C19"/>
<path d="M18.5993 16.5918C18.2109 16.5918 17.8962 16.9066 17.8962 17.2949C17.8962 19.3055 16.2509 20.9411 14.2285 20.9411C13.8401 20.9411 13.5254 21.2559 13.5254 21.6443C13.5254 22.0327 13.8401 22.3474 14.2285 22.3474C17.0263 22.3474 19.3025 20.0809 19.3025 17.2949C19.3025 16.9066 18.9877 16.5918 18.5993 16.5918Z" fill="#D70C19"/>
<path d="M17.303 5.96194C15.6234 5.85413 14.1671 7.12753 14.0582 8.80153C14.0329 9.18909 14.3266 9.52359 14.7141 9.54891C14.7297 9.54994 14.7452 9.55041 14.7605 9.55041C15.128 9.55041 15.4372 9.26484 15.4615 8.89294C15.52 7.99219 16.3056 7.30809 17.2127 7.36528C17.6005 7.39125 17.9345 7.09641 17.9595 6.70884C17.9845 6.32128 17.6906 5.98697 17.303 5.96194Z" fill="#D70C19"/>
<path d="M14.9395 33.3848C14.551 33.3848 14.2363 33.6995 14.2363 34.0879C14.2363 34.4763 14.551 34.791 14.9395 34.791C16.1005 34.791 17.0452 35.7294 17.0452 36.8827C17.0452 38.0363 16.1005 38.9746 14.9395 38.9746C14.551 38.9746 14.2363 39.2893 14.2363 39.6777C14.2363 40.0661 14.551 40.3809 14.9395 40.3809C16.876 40.3809 18.4514 38.8117 18.4514 36.8827C18.4514 34.954 16.876 33.3848 14.9395 33.3848Z" fill="#D70C19"/>
<path d="M22.1348 16.8276C21.7464 16.8276 21.4316 17.1424 21.4316 17.5308C21.4316 17.9192 21.7464 18.2339 22.1348 18.2339C23.0675 18.2339 23.8264 18.9874 23.8264 19.9136C23.8264 20.84 23.0675 21.5935 22.1348 21.5935C21.7464 21.5935 21.4316 21.9082 21.4316 22.2966C21.4316 22.685 21.7464 22.9998 22.1348 22.9998C23.843 22.9998 25.2326 21.6153 25.2326 19.9136C25.2326 18.212 23.843 16.8276 22.1348 16.8276Z" fill="#D70C19"/>
<path d="M9.74805 12.3569C9.35964 12.3569 9.04492 12.6717 9.04492 13.0601C9.04492 13.4485 9.35964 13.7632 9.74805 13.7632C11.3506 13.7632 12.6543 15.0588 12.6543 16.6514C12.6543 18.2442 11.3506 19.5399 9.74805 19.5399C9.35964 19.5399 9.04492 19.8546 9.04492 20.243C9.04492 20.6314 9.35964 20.9461 9.74805 20.9461C12.1259 20.9461 14.0605 19.0196 14.0605 16.6514C14.0605 14.2834 12.1259 12.3569 9.74805 12.3569Z" fill="#D70C19"/>
<path d="M42.8031 12.3252C41.4815 12.3252 40.4062 13.3967 40.4062 14.7137C40.4062 16.0308 41.4815 17.1022 42.8031 17.1022C44.1247 17.1022 45.1999 16.0308 45.1999 14.7137C45.1999 13.3967 44.1247 12.3252 42.8031 12.3252ZM42.8032 15.6961C42.257 15.6961 41.8126 15.2554 41.8126 14.7138C41.8125 14.1722 42.2569 13.7315 42.8032 13.7315C43.3493 13.7315 43.7937 14.1722 43.7937 14.7138C43.7937 15.2554 43.3493 15.6961 42.8032 15.6961Z" fill="#D70C19"/>
<path d="M45.1507 30.3203C43.829 30.3203 42.7539 31.3918 42.7539 32.7089C42.7539 34.026 43.8291 35.0973 45.1507 35.0973C46.4723 35.0973 47.5474 34.0259 47.5474 32.7089C47.5474 31.3919 46.4723 30.3203 45.1507 30.3203ZM45.1507 33.6911C44.6045 33.6911 44.1602 33.2505 44.1602 32.7089C44.1602 32.1673 44.6045 31.7266 45.1507 31.7266C45.6969 31.7266 46.1412 32.1672 46.1412 32.7089C46.1413 33.2505 45.6969 33.6911 45.1507 33.6911Z" fill="#D70C19"/>
<path d="M43.677 21.8937C43.2714 21.8938 42.8893 21.995 42.554 22.1731L41.1834 20.8092C40.908 20.5352 40.4629 20.5365 40.1891 20.8116C39.9152 21.0869 39.9163 21.532 40.1915 21.8059L41.5587 23.1663C41.3812 23.4997 41.2802 23.8793 41.2802 24.2822C41.2802 25.5992 42.3554 26.6707 43.677 26.6707C44.9987 26.6707 46.0738 25.5992 46.0738 24.2822C46.0738 22.9652 44.9986 21.8937 43.677 21.8937ZM43.6771 25.2646C43.1309 25.2646 42.6865 24.8239 42.6865 24.2822C42.6865 23.7407 43.1309 23.3 43.6771 23.3C44.2233 23.3 44.6676 23.7407 44.6676 24.2822C44.6676 24.8238 44.2233 25.2646 43.6771 25.2646Z" fill="#D70C19"/>
<path d="M42.0921 37.6602C40.7704 37.6602 39.6953 38.7316 39.6953 40.0487C39.6953 41.3658 40.7705 42.4373 42.0921 42.4373C43.4138 42.4373 44.4889 41.3658 44.4889 40.0487C44.4889 38.7316 43.4138 37.6602 42.0921 37.6602ZM42.0921 41.0309C41.5459 41.0309 41.1016 40.5903 41.1016 40.0486C41.1016 39.507 41.5459 39.0663 42.0921 39.0663C42.6383 39.0663 43.0827 39.5069 43.0827 40.0486C43.0828 40.5903 42.6384 41.0309 42.0921 41.0309Z" fill="#D70C19"/>
<path d="M33.8654 13.2136C34.3123 13.2136 34.8455 12.9935 35.1623 12.6783L37.8786 9.97528C38.1516 10.0832 38.4486 10.1432 38.7596 10.1432C40.0813 10.1432 41.1564 9.07172 41.1564 7.75463C41.1564 6.43763 40.0812 5.36625 38.7596 5.36625C37.438 5.36625 36.3629 6.43772 36.3629 7.75463C36.3629 8.24916 36.5145 8.70919 36.774 9.09075L34.1706 11.6812C34.1156 11.734 33.9414 11.806 33.8654 11.8073H28.0617V7.15294H29.6941C29.9961 8.12784 30.9087 8.83838 31.9848 8.83838C33.3065 8.83838 34.3816 7.76691 34.3816 6.44981C34.3816 5.13281 33.3064 4.06134 31.9848 4.06134C30.9087 4.06134 29.9961 4.77178 29.6941 5.74669H28.0617V5.64019C28.0617 2.53012 25.5206 0 22.397 0C20.1641 0 18.161 1.30144 17.247 3.29138C17.1064 3.28144 16.9663 3.27638 16.8272 3.27638C13.5809 3.27638 10.931 5.86819 10.8557 9.08288C10.5754 9.04294 10.2919 9.02278 10.0072 9.02278C6.71358 9.02278 4.03411 11.6907 4.03411 14.97C4.03411 15.6898 4.16039 16.3863 4.41014 17.0488C1.95164 18.5076 0.451172 21.1134 0.451172 24C0.451172 25.5499 0.892641 27.0564 1.72777 28.3567C2.4157 29.4277 3.34252 30.3191 4.43264 30.9643C4.1707 31.6432 4.03411 32.3701 4.03411 33.1C4.03411 34.5477 4.56267 35.9428 5.52239 37.0283C5.77955 37.3192 6.22392 37.3466 6.51492 37.0894C6.80592 36.8321 6.8332 36.3878 6.57595 36.0968C5.84358 35.2686 5.44036 34.2042 5.44036 33.0999C5.44036 32.3571 5.61595 31.6485 5.9617 30.9938C6.37439 30.2099 7.01555 29.548 7.82658 29.1089C8.16811 28.9239 8.29495 28.4973 8.10998 28.1558C7.92511 27.8142 7.49827 27.6872 7.15692 27.8724C6.31702 28.3274 5.6168 28.9654 5.0932 29.7206C3.08264 28.5112 1.85742 26.3726 1.85742 24C1.85742 21.4631 3.26255 19.1889 5.53111 18.0379C5.53111 18.0379 6.8438 17.3076 8.58642 17.3076C8.97483 17.3076 9.28955 16.9928 9.28955 16.6044C9.28955 16.216 8.97483 15.9013 8.58642 15.9013C7.56492 15.9013 6.58711 16.0902 5.68561 16.434C5.52398 15.9653 5.44055 15.4754 5.44055 14.9701C5.44055 12.4661 7.48917 10.4291 10.0074 10.4291C10.4807 10.4291 10.949 10.5016 11.3992 10.6446C11.6299 10.7178 11.882 10.6672 12.0666 10.5107C12.2513 10.3541 12.3424 10.1137 12.3078 9.87412C12.2764 9.65588 12.2605 9.43706 12.2605 9.22369C12.2605 6.71981 14.3092 4.68272 16.8274 4.68272C17.0747 4.68272 17.3275 4.70391 17.579 4.74525C19.7407 5.10281 21.3943 6.97434 21.3943 9.22369C21.3943 9.61209 21.709 9.92681 22.0974 9.92681C22.4858 9.92681 22.8005 9.61209 22.8005 9.22369C22.8005 6.58913 21.0704 4.35066 18.6822 3.57197C19.4246 2.25178 20.8355 1.40625 22.397 1.40625C24.7451 1.40625 26.6554 3.30562 26.6554 5.64019V5.71828H25.3031C24.9147 5.71828 24.6 6.033 24.6 6.42141C24.6 6.80981 24.9147 7.12453 25.3031 7.12453H26.6554V11.8073H20.9685C19.6818 11.8073 18.635 10.7672 18.635 9.48881C18.635 9.10041 18.3203 8.78569 17.9319 8.78569C17.5435 8.78569 17.2288 9.10041 17.2288 9.48881C17.2288 11.5426 18.9064 13.2135 20.9685 13.2135H26.6554V25.05H15.25C14.8616 25.05 14.5469 25.3647 14.5469 25.7531C14.5469 26.1415 14.8616 26.4563 15.25 26.4563H26.6554V36.1102H24.4827C22.4987 36.1102 20.8847 37.7178 20.8847 39.6938C20.8847 40.0822 21.1995 40.397 21.5879 40.397C21.9763 40.397 22.291 40.0822 22.291 39.6938C22.291 38.4933 23.2741 37.5165 24.4827 37.5165H26.6554V42.3598C26.6554 42.4703 26.6498 42.5794 26.6415 42.6877H25.3031C24.9147 42.6877 24.6 43.0024 24.6 43.3908C24.6 43.7792 24.9147 44.0939 25.3031 44.0939H26.2803C25.6127 45.566 24.1238 46.5938 22.397 46.5938C20.846 46.5938 19.4402 45.7569 18.6941 44.4494C19.5434 44.172 20.325 43.7057 20.9835 43.0704C21.2629 42.8008 21.2709 42.3557 21.0013 42.0763C20.7316 41.7967 20.2865 41.7888 20.0071 42.0584C19.3357 42.7062 18.4964 43.1244 17.59 43.2756C17.3344 43.3183 17.0778 43.3401 16.8272 43.3401C14.309 43.3401 12.2603 41.303 12.2603 38.799C12.2603 38.735 12.2641 38.6685 12.2672 38.6027C12.8348 38.3717 13.368 38.0556 13.8435 37.6586C14.1416 37.4098 14.1814 36.9664 13.9325 36.6683C13.6836 36.3701 13.2475 36.3393 12.9421 36.5792C11.5312 37.6875 10.1666 37.6702 9.62067 37.625C9.23255 37.5921 8.89392 37.8805 8.86167 38.2674C8.82952 38.6544 9.11723 38.9942 9.50423 39.0264C9.95377 39.0636 10.4117 39.0505 10.857 38.9871C10.957 42.1798 13.5968 44.7463 16.8273 44.7463C16.9696 44.7463 17.1132 44.741 17.2572 44.7305C18.1761 46.7073 20.1751 48 22.397 48C25.5205 48 28.0617 45.4699 28.0617 42.3598V40.806H31.789C31.8653 40.8073 32.0395 40.8792 32.0943 40.9319L33.7707 42.6C33.5439 42.9648 33.4126 43.3944 33.4126 43.8542C33.4126 45.1713 34.4878 46.2428 35.8094 46.2428C37.1311 46.2428 38.2062 45.1713 38.2062 43.8542C38.2062 42.5371 37.131 41.4656 35.8094 41.4656C35.4618 41.4656 35.1317 41.5403 34.8332 41.6735L33.0862 39.9351C32.7694 39.6199 32.2362 39.3997 31.7893 39.3997H28.0617V35.6411H34.1742C34.4761 36.616 35.3887 37.3266 36.465 37.3266C37.7866 37.3266 38.8618 36.2551 38.8618 34.938C38.8618 33.6209 37.7865 32.5494 36.465 32.5494C35.3888 32.5494 34.4761 33.2599 34.1742 34.2349H28.0617V29.5249H35.3762C35.6782 30.4998 36.5908 31.2103 37.667 31.2103C38.9887 31.2103 40.0638 30.1388 40.0638 28.8218C40.0638 27.5047 38.9886 26.4332 37.667 26.4332C36.5908 26.4332 35.6782 27.1436 35.3762 28.1186H28.0617V23.0009H29.8034C30.1054 23.9757 31.018 24.6863 32.0941 24.6863C33.4158 24.6863 34.491 23.6148 34.491 22.2978C34.491 20.9807 33.4157 19.9092 32.0941 19.9092C31.018 19.9092 30.1053 20.6197 29.8034 21.5947H28.0617V17.5371H35.7227C35.799 17.5385 35.9732 17.6103 36.0281 17.663L37.4724 19.1003C37.6096 19.2368 37.7889 19.3051 37.9683 19.3051C38.1488 19.3051 38.3294 19.236 38.4667 19.0979C38.7406 18.8227 38.7395 18.3774 38.4643 18.1035L37.02 16.6661C36.7032 16.3509 36.1699 16.1308 35.723 16.1308H28.0617V13.2136H33.8654ZM38.7596 6.77241C39.3058 6.77241 39.7501 7.21303 39.7501 7.75453C39.7501 8.29612 39.3058 8.73684 38.7596 8.73684C38.2134 8.73684 37.7691 8.29622 37.7691 7.75453C37.7691 7.21303 38.2134 6.77241 38.7596 6.77241ZM31.9848 5.46759C32.531 5.46759 32.9754 5.90822 32.9754 6.44981C32.9754 6.99141 32.531 7.43213 31.9848 7.43213C31.4386 7.43213 30.9944 6.9915 30.9944 6.44981C30.9943 5.90822 31.4386 5.46759 31.9848 5.46759ZM35.8094 42.8718C36.3556 42.8718 36.7999 43.3125 36.7999 43.8541C36.7999 44.3957 36.3556 44.8364 35.8094 44.8364C35.2632 44.8364 34.8188 44.3958 34.8188 43.8541C34.8188 43.3125 35.2632 42.8718 35.8094 42.8718ZM36.465 33.9557C37.0111 33.9557 37.4555 34.3963 37.4555 34.938C37.4555 35.4796 37.0111 35.9203 36.465 35.9203C35.9188 35.9203 35.4744 35.4797 35.4744 34.938C35.4744 34.3964 35.9188 33.9557 36.465 33.9557ZM37.6669 27.8394C38.2131 27.8394 38.6575 28.2801 38.6575 28.8218C38.6575 29.3633 38.2131 29.8041 37.6669 29.8041C37.1207 29.8041 36.6764 29.3634 36.6764 28.8218C36.6764 28.2801 37.1207 27.8394 37.6669 27.8394ZM32.0941 21.3155C32.6403 21.3155 33.0847 21.7561 33.0847 22.2978C33.0847 22.8393 32.6403 23.28 32.0941 23.28C31.548 23.28 31.1036 22.8394 31.1036 22.2978C31.1036 21.7561 31.548 21.3155 32.0941 21.3155Z" fill="#D70C19"/>
</g>
<defs>
<clipPath id="clip0_276_7924">
<rect width="48" height="48" fill="white"/>
</clipPath>
</defs>
</svg>
