<svg width="56" height="70" viewBox="0 0 56 70" fill="none" xmlns="http://www.w3.org/2000/svg">
<path d="M50.5 65H35.0437C37.6402 62.6816 40.0887 60.2028 42.375 57.5781C50.9531 47.7125 55.5 37.3125 55.5 27.5C55.5 20.2065 52.6027 13.2118 47.4454 8.05456C42.2882 2.89731 35.2935 0 28 0C20.7065 0 13.7118 2.89731 8.55456 8.05456C3.39731 13.2118 0.5 20.2065 0.5 27.5C0.5 37.3125 5.03438 47.7125 13.625 57.5781C15.9113 60.2028 18.3598 62.6816 20.9562 65H5.5C4.83696 65 4.20107 65.2634 3.73223 65.7322C3.26339 66.2011 3 66.837 3 67.5C3 68.163 3.26339 68.7989 3.73223 69.2678C4.20107 69.7366 4.83696 70 5.5 70H50.5C51.163 70 51.7989 69.7366 52.2678 69.2678C52.7366 68.7989 53 68.163 53 67.5C53 66.837 52.7366 66.2011 52.2678 65.7322C51.7989 65.2634 51.163 65 50.5 65ZM28 17.5C29.9778 17.5 31.9112 18.0865 33.5557 19.1853C35.2002 20.2841 36.4819 21.8459 37.2388 23.6732C37.9957 25.5004 38.1937 27.5111 37.8079 29.4509C37.422 31.3907 36.4696 33.1725 35.0711 34.5711C33.6725 35.9696 31.8907 36.922 29.9509 37.3079C28.0111 37.6937 26.0004 37.4957 24.1732 36.7388C22.3459 35.9819 20.7841 34.7002 19.6853 33.0557C18.5865 31.4112 18 29.4778 18 27.5C18 24.8478 19.0536 22.3043 20.9289 20.4289C22.8043 18.5536 25.3478 17.5 28 17.5Z" fill="#D70C19"/>
</svg>
