<svg width="24" height="24" viewBox="0 0 24 24" fill="none" xmlns="http://www.w3.org/2000/svg">
<g clip-path="url(#clip0_494_9991)">
<path d="M12 24C18.6274 24 24 18.6274 24 12C24 5.37258 18.6274 0 12 0C5.37258 0 0 5.37258 0 12C0 18.6274 5.37258 24 12 24Z" fill="#D70C19"/>
<path d="M9.31696 7.63737C9.31727 7.96166 9.22137 8.27875 9.0414 8.54851C8.86143 8.81828 8.60548 9.02859 8.30594 9.15284C8.00639 9.27708 7.67673 9.30967 7.35866 9.24648C7.04058 9.18329 6.74841 9.02716 6.5191 8.79786C6.28979 8.56855 6.13367 8.27637 6.07048 7.9583C6.00729 7.64023 6.03988 7.31056 6.16412 7.01102C6.28837 6.71148 6.49868 6.45552 6.76845 6.27556C7.03821 6.09559 7.3553 5.99969 7.67959 6C8.11372 6.00042 8.52995 6.17306 8.83692 6.48004C9.1439 6.78701 9.31654 7.20324 9.31696 7.63737Z" fill="white"/>
<path d="M8.54406 9.95703H6.81985C6.59574 9.95703 6.41406 10.1387 6.41406 10.3628V17.5928C6.41406 17.8169 6.59574 17.9986 6.81985 17.9986H8.54406C8.76817 17.9986 8.94985 17.8169 8.94985 17.5928V10.3628C8.94985 10.1387 8.76817 9.95703 8.54406 9.95703Z" fill="white"/>
<path d="M17.9625 14.1267V17.6272C17.9625 17.726 17.9232 17.8208 17.8533 17.8907C17.7835 17.9606 17.6887 17.9998 17.5898 17.9998H15.7393C15.6405 17.9998 15.5457 17.9606 15.4758 17.8907C15.4059 17.8208 15.3667 17.726 15.3667 17.6272V14.2356C15.3667 13.7288 15.5135 12.0251 14.0435 12.0251C12.9035 12.0251 12.6714 13.1967 12.6225 13.7225V17.6351C12.6204 17.732 12.5807 17.8243 12.5117 17.8924C12.4427 17.9605 12.3499 17.999 12.253 17.9998H10.4625C10.4135 18.0001 10.3649 17.9906 10.3196 17.9719C10.2743 17.9533 10.2332 17.9258 10.1985 17.8912C10.1639 17.8565 10.1364 17.8154 10.1178 17.7701C10.0991 17.7248 10.0896 17.6762 10.0898 17.6272V10.3325C10.0896 10.2834 10.0991 10.2348 10.1178 10.1894C10.1364 10.144 10.1638 10.1027 10.1984 10.068C10.2331 10.0332 10.2742 10.0056 10.3195 9.98678C10.3648 9.96796 10.4134 9.95827 10.4625 9.95827H12.253C12.3027 9.95743 12.352 9.96649 12.3981 9.98492C12.4443 10.0033 12.4863 10.0308 12.5217 10.0656C12.5571 10.1004 12.5853 10.142 12.6045 10.1878C12.6237 10.2336 12.6335 10.2828 12.6335 10.3325V10.9641C13.0567 10.3325 13.6851 9.83984 15.0225 9.83984C17.9798 9.83827 17.9625 12.6062 17.9625 14.1267Z" fill="white"/>
</g>
<defs>
<clipPath id="clip0_494_9991">
<rect width="24" height="24" fill="white"/>
</clipPath>
</defs>
</svg>
