<svg width="22" height="16" viewBox="0 0 22 16" fill="none" xmlns="http://www.w3.org/2000/svg">
<path d="M20.334 0H1.66732C1.3137 0 0.974557 0.140476 0.724509 0.390524C0.47446 0.640573 0.333984 0.979711 0.333984 1.33333V14.6667C0.333984 15.0203 0.47446 15.3594 0.724509 15.6095C0.974557 15.8595 1.3137 16 1.66732 16H20.334C20.6876 16 21.0267 15.8595 21.2768 15.6095C21.5268 15.3594 21.6673 15.0203 21.6673 14.6667V1.33333C21.6673 0.979711 21.5268 0.640573 21.2768 0.390524C21.0267 0.140476 20.6876 0 20.334 0ZM19.3073 14.6667H2.77398L7.44065 9.84L6.48065 8.91333L1.66732 13.8933V2.34667L9.95399 10.5933C10.2038 10.8417 10.5417 10.9811 10.894 10.9811C11.2462 10.9811 11.5842 10.8417 11.834 10.5933L20.334 2.14V13.8067L15.4273 8.9L14.4873 9.84L19.3073 14.6667ZM2.54065 1.33333H19.254L10.894 9.64667L2.54065 1.33333Z" fill="#D70C19"/>
</svg>
