<svg width="29" height="28" viewBox="0 0 29 28" fill="none" xmlns="http://www.w3.org/2000/svg">
<path d="M25.5 17.5V22.5C25.5 23.9 24.4 25 23 25H18C16.6 25 15.5 23.9 15.5 22.5V17.5C15.5 16.1 16.6 15 18 15H23C24.4 15 25.5 16.1 25.5 17.5ZM11 15H6C4.6 15 3.5 16.1 3.5 17.5V22.5C3.5 23.9 4.6 25 6 25H11C12.4 25 13.5 23.9 13.5 22.5V17.5C13.5 16.1 12.4 15 11 15ZM23 3H18C16.6 3 15.5 4.1 15.5 5.5V10.5C15.5 11.9 16.6 13 18 13H23C24.4 13 25.5 11.9 25.5 10.5V5.5C25.5 4.1 24.4 3 23 3ZM11 3H6C4.6 3 3.5 4.1 3.5 5.5V10.5C3.5 11.9 4.6 13 6 13H11C12.4 13 13.5 11.9 13.5 10.5V5.5C13.5 4.1 12.4 3 11 3Z" fill="white"/>
</svg>
