<svg width="32" height="32" viewBox="0 0 32 32" fill="none" xmlns="http://www.w3.org/2000/svg">
<g clip-path="url(#clip0_801_892)">
<path d="M16 32C24.8366 32 32 24.8366 32 16C32 7.16344 24.8366 0 16 0C7.16344 0 0 7.16344 0 16C0 24.8366 7.16344 32 16 32Z" fill="#2AA81A"/>
<path d="M21.6431 10.3559C20.3117 9.00938 18.5427 8.18328 16.6556 8.0267C14.7686 7.87013 12.8877 8.39339 11.3526 9.50202C9.81746 10.6107 8.72929 12.2316 8.28454 14.0722C7.83979 15.9128 8.06775 17.8518 8.92727 19.539L8.08516 23.6274C8.07615 23.6683 8.0758 23.7105 8.08414 23.7515C8.09248 23.7925 8.10932 23.8313 8.13359 23.8653C8.16833 23.9169 8.21799 23.9566 8.27593 23.9792C8.33387 24.0018 8.39732 24.0061 8.4578 23.9916L12.4578 23.0422C14.1404 23.8792 16.0655 24.0919 17.8903 23.6426C19.7151 23.1933 21.3212 22.111 22.4229 20.5884C23.5245 19.0659 24.0501 17.2018 23.9062 15.328C23.7622 13.4542 22.958 11.6923 21.6367 10.3559H21.6431ZM20.3925 20.3285C19.4717 21.2477 18.286 21.8551 17.0021 22.0654C15.7182 22.2758 14.4006 22.0784 13.2346 21.5011L12.6746 21.2232L10.2178 21.8043V21.7727L10.7357 19.2948L10.462 18.7559C9.86584 17.5867 9.65535 16.2588 9.86072 14.9627C10.0661 13.6665 10.6768 12.4687 11.6052 11.5411C12.7709 10.3766 14.3512 9.72254 15.9988 9.72254C17.6465 9.72254 19.2268 10.3766 20.3925 11.5411L20.4199 11.579C21.5704 12.7472 22.2127 14.3227 22.2068 15.9624C22.2009 17.602 21.5473 19.1728 20.3883 20.3327L20.3925 20.3285Z" fill="white"/>
<path d="M20.176 18.5264C19.875 19.0001 19.3971 19.579 18.8013 19.7243C17.7486 19.9769 16.1465 19.7243 14.1402 17.8696L14.115 17.8464C12.3697 16.2169 11.9065 14.859 12.0097 13.7832C12.0707 13.1706 12.5802 12.619 13.0097 12.2569C13.078 12.1993 13.1588 12.1585 13.2456 12.1378C13.3325 12.117 13.423 12.1168 13.51 12.1373C13.5969 12.1577 13.6779 12.1983 13.7464 12.2556C13.8148 12.3129 13.869 12.3855 13.9044 12.4674L14.5507 13.9285C14.5929 14.0226 14.6088 14.1263 14.5965 14.2287C14.5843 14.331 14.5444 14.4281 14.4813 14.5096L14.1528 14.9306C14.0846 15.018 14.0439 15.1238 14.036 15.2344C14.0282 15.345 14.0534 15.4555 14.1086 15.5517C14.4206 16.0115 14.7939 16.4265 15.2181 16.7853C15.6746 17.2246 16.1922 17.5955 16.755 17.8864C16.8577 17.9278 16.9704 17.9377 17.0787 17.9148C17.1871 17.8919 17.2862 17.8373 17.3634 17.758L17.7402 17.3748C17.8119 17.2977 17.9036 17.2419 18.005 17.2137C18.1064 17.1855 18.2137 17.1859 18.315 17.2148L19.8518 17.6548C19.9389 17.6796 20.0189 17.7245 20.0854 17.786C20.1519 17.8474 20.203 17.9237 20.2346 18.0085C20.2661 18.0934 20.2773 18.1845 20.2671 18.2745C20.2569 18.3644 20.2257 18.4507 20.176 18.5264Z" fill="white"/>
</g>
<defs>
<clipPath id="clip0_801_892">
<rect width="32" height="32" fill="white"/>
</clipPath>
</defs>
</svg>
