<svg width="40" height="40" viewBox="0 0 40 40" fill="none" xmlns="http://www.w3.org/2000/svg">
<g clip-path="url(#clip0_597_10377)">
<path d="M25.0648 9.11278V2.40078C25.0648 1.51278 24.3448 0.800781 23.4648 0.800781H2.40078C1.52078 0.800781 0.800781 1.51278 0.800781 2.40078V28.0808C0.800781 28.9688 1.52078 29.6808 2.40078 29.6808H13.7368V26.4328H4.20878V24.8328H13.7368V21.4568H4.20878V19.8568H13.7368V16.4888H4.20878V14.8888H13.7368V11.9128C13.7368 10.3687 14.9928 9.11278 16.5368 9.11278H25.0648ZM13.2145 7.07822L10.3628 9.35094C10.0843 9.5651 9.6771 9.37246 9.6771 9.0079V7.91446C4.9171 7.07822 4.01654 11.6021 4.01654 11.6021C3.67358 4.14078 9.67702 5.42726 9.67702 5.42726V4.48398C9.67702 4.11942 10.0842 3.92654 10.3627 4.14078L13.2145 6.41342C13.4292 6.5851 13.4292 6.90654 13.2145 7.07822Z" fill="#022345"/>
<path d="M37.6015 10.3125H16.5375C15.6575 10.3125 14.9375 11.0325 14.9375 11.9125V37.6005C14.9375 38.4805 15.6575 39.2005 16.5375 39.2005H37.6015C38.4895 39.2005 39.2015 38.4805 39.2015 37.6005V11.9125C39.2015 11.0325 38.4895 10.3125 37.6015 10.3125ZM18.3012 18.0873L21.1529 15.8146C21.4314 15.6005 21.8386 15.7931 21.8386 16.1576V17.2511C26.5986 18.0873 27.4992 13.5634 27.4992 13.5634C27.842 21.0247 21.8386 19.7383 21.8386 19.7383V20.6815C21.8386 21.0461 21.4314 21.239 21.1529 21.0246L18.3012 18.752C18.0866 18.5803 18.0866 18.259 18.3012 18.0873ZM36.4219 35.9495H18.9693V34.3495H36.4219V35.9495ZM36.4219 30.9796H18.9693V29.3796H36.4219V30.9796ZM36.4219 26.0096H18.9693V24.4096H36.4219V26.0096Z" fill="#022345"/>
</g>
<defs>
<clipPath id="clip0_597_10377">
<rect width="40" height="40" fill="white"/>
</clipPath>
</defs>
</svg>
