<svg width="36" height="34" viewBox="0 0 36 34" fill="none" xmlns="http://www.w3.org/2000/svg">
<path d="M3.59844 0.199219C2.27524 0.199219 1.19844 1.27602 1.19844 2.59922V5.70389C1.06404 6.25909 0.398438 9.10402 0.398438 10.9992C0.398438 12.2192 0.689638 13.2162 1.19844 13.9602V33.7992H17.864C17.9504 33.8135 18.0386 33.8135 18.125 33.7992H34.7984V13.9602C35.3072 13.2154 35.5984 12.2184 35.5984 10.9992C35.5984 9.10402 34.9328 6.25909 34.7984 5.70389V2.59922C34.7984 1.27602 33.7216 0.199219 32.3984 0.199219H3.59844ZM4.39844 2.59922C4.84003 2.59922 5.19843 2.95762 5.19843 3.39922C5.19843 3.84082 4.84003 4.19922 4.39844 4.19922C3.95684 4.19922 3.59844 3.84082 3.59844 3.39922C3.59844 2.95762 3.95684 2.59922 4.39844 2.59922ZM6.79843 2.59922C7.24003 2.59922 7.59843 2.95762 7.59843 3.39922C7.59843 3.84082 7.24003 4.19922 6.79843 4.19922C6.35683 4.19922 5.99843 3.84082 5.99843 3.39922C5.99843 2.95762 6.35683 2.59922 6.79843 2.59922ZM9.19843 2.59922C9.64003 2.59922 9.99843 2.95762 9.99843 3.39922C9.99843 3.84082 9.64003 4.19922 9.19843 4.19922C8.75683 4.19922 8.39843 3.84082 8.39843 3.39922C8.39843 2.95762 8.75683 2.59922 9.19843 2.59922ZM2.63438 6.59922H5.99843V12.9133C5.46723 13.4706 4.75763 13.7992 3.99844 13.7992C2.34564 13.7992 1.99844 12.2768 1.99844 10.9992C1.99844 9.63442 2.41038 7.60322 2.63438 6.59922ZM7.59843 6.59922H11.5984V12.9133C11.0672 13.4706 10.3576 13.7992 9.59843 13.7992C8.83923 13.7992 8.12963 13.4706 7.59843 12.9133V6.59922ZM13.1984 6.59922H17.1984V12.9133C16.6672 13.4706 15.9576 13.7992 15.1984 13.7992C14.4392 13.7992 13.7296 13.4706 13.1984 12.9133V6.59922ZM18.7984 6.59922H22.7984V12.9133C22.2684 13.471 21.5586 13.7992 20.7984 13.7992C20.0392 13.7992 19.3296 13.4706 18.7984 12.9133V6.59922ZM24.3984 6.59922H28.3984V12.9133C27.8684 13.471 27.1586 13.7992 26.3984 13.7992C25.6383 13.7992 24.9285 13.471 24.3984 12.9133V6.59922ZM29.9984 6.59922H33.3625C33.5865 7.60322 33.9984 9.63442 33.9984 10.9992C33.9984 11.6984 33.8844 12.4628 33.5188 13.0196C33.4108 13.102 33.3184 13.2025 33.264 13.3289C32.9656 13.6129 32.5632 13.7992 31.9984 13.7992C31.2383 13.7992 30.5285 13.471 29.9984 12.9133V6.59922ZM7.59843 17.7992H17.1984V32.1992H7.59843V17.7992ZM18.7984 17.7992H29.1984V32.1992H18.7984V17.7992ZM14.7984 24.1992C14.5862 24.1992 14.3828 24.2835 14.2328 24.4336C14.0827 24.5836 13.9984 24.787 13.9984 24.9992C13.9984 25.2114 14.0827 25.4149 14.2328 25.5649C14.3828 25.715 14.5862 25.7992 14.7984 25.7992C15.0106 25.7992 15.2141 25.715 15.3641 25.5649C15.5142 25.4149 15.5984 25.2114 15.5984 24.9992C15.5984 24.787 15.5142 24.5836 15.3641 24.4336C15.2141 24.2835 15.0106 24.1992 14.7984 24.1992ZM21.1984 24.1992C20.9862 24.1992 20.7828 24.2835 20.6328 24.4336C20.4827 24.5836 20.3984 24.787 20.3984 24.9992C20.3984 25.2114 20.4827 25.4149 20.6328 25.5649C20.7828 25.715 20.9862 25.7992 21.1984 25.7992C21.4106 25.7992 21.6141 25.715 21.7641 25.5649C21.9142 25.4149 21.9984 25.2114 21.9984 24.9992C21.9984 24.787 21.9142 24.5836 21.7641 24.4336C21.6141 24.2835 21.4106 24.1992 21.1984 24.1992Z" fill="#D70C19"/>
</svg>
