<svg width="42" height="42" viewBox="0 0 42 42" fill="none" xmlns="http://www.w3.org/2000/svg">
<path d="M18.9152 4.65967L20.0804 0H8.42188L9.58707 4.65967H18.9152Z" fill="#D70C19"/>
<path d="M16.5 27V12.75L28.5 7.87939V1.5C28.5 0.671631 27.8284 0 27 0H21.6256L20.2273 5.59131C20.1438 5.92529 19.8442 6.15967 19.5 6.15967H9C8.65576 6.15967 8.3562 5.92529 8.27271 5.59131L6.87442 0H1.5C0.671631 0 0 0.671631 0 1.5V40.5C0 41.3284 0.671631 42 1.5 42H27C27.8284 42 28.5 41.3284 28.5 40.5V34.6649L18.2578 29.7297C17.2141 29.2852 16.5 28.2026 16.5 27ZM6 34.5C4.34546 34.5 3 33.1545 3 31.5C3 29.8455 4.34546 28.5 6 28.5C7.65454 28.5 9 29.8455 9 31.5C9 33.1545 7.65454 34.5 6 34.5ZM6 25.5C4.34546 25.5 3 24.1545 3 22.5C3 20.8455 4.34546 19.5 6 19.5C7.65454 19.5 9 20.8455 9 22.5C9 24.1545 7.65454 25.5 6 25.5ZM6 16.5C4.34546 16.5 3 15.1545 3 13.5C3 11.8455 4.34546 10.5 6 10.5C7.65454 10.5 9 11.8455 9 13.5C9 15.1545 7.65454 16.5 6 16.5Z" fill="#D70C19"/>
<path d="M41.9983 14.9883L30.75 19.9875V32.9999L41.0903 28.3783C41.6426 28.1425 42 27.5998 42 26.9999V14.9999C42 14.9959 41.9983 14.9923 41.9983 14.9883Z" fill="#D70C19"/>
<path d="M30.587 9.12195C30.212 8.95935 29.7814 8.95935 29.4064 9.12195C29.4064 9.12195 18.8272 13.6735 18.7852 13.6965L29.9967 18.6793L41.2083 13.6965C41.1662 13.6735 30.587 9.12195 30.587 9.12195Z" fill="#D70C19"/>
<path d="M18 14.9999V26.9999C18 27.5998 18.3574 28.1425 18.9097 28.3783L29.25 32.9999V19.9875L18.0017 14.9883C18.0017 14.9923 18 14.9959 18 14.9999Z" fill="#D70C19"/>
</svg>
