<svg width="24" height="24" viewBox="0 0 24 24" fill="none" xmlns="http://www.w3.org/2000/svg">
<g clip-path="url(#clip0_801_1516)">
<path d="M12 24C18.6274 24 24 18.6274 24 12C24 5.37258 18.6274 0 12 0C5.37258 0 0 5.37258 0 12C0 18.6274 5.37258 24 12 24Z" fill="#03A9F4"/>
<path d="M19.774 7.17902C19.1893 7.43438 18.5708 7.60402 17.9377 7.68271C18.6051 7.28692 19.104 6.65989 19.3398 5.9206C18.7151 6.2914 18.0315 6.55253 17.3187 6.69271C16.8819 6.22558 16.3147 5.9007 15.6908 5.76032C15.0668 5.61995 14.4151 5.67058 13.8203 5.90562C13.2255 6.14067 12.7152 6.54926 12.3558 7.07824C11.9964 7.60723 11.8045 8.23212 11.8051 8.87165C11.8028 9.11576 11.8277 9.35936 11.8793 9.59797C10.6113 9.53569 9.37079 9.20663 8.23868 8.63228C7.10658 8.05793 6.10837 7.25121 5.30926 6.26481C4.89852 6.96651 4.77126 7.79859 4.95351 8.59098C5.13576 9.38336 5.61375 10.0762 6.28979 10.528C5.7852 10.5144 5.29129 10.3795 4.84979 10.1348V10.1696C4.85121 10.9051 5.1058 11.6177 5.57075 12.1876C6.03571 12.7575 6.68269 13.15 7.40295 13.299C7.13038 13.3706 6.84949 13.4057 6.56769 13.4032C6.36477 13.407 6.16203 13.389 5.96295 13.3496C6.1693 13.9821 6.56656 14.5352 7.10011 14.9327C7.63366 15.3303 8.27727 15.5528 8.94242 15.5695C7.81525 16.4506 6.4257 16.9291 4.99505 16.929C4.74014 16.9312 4.48537 16.9164 4.23242 16.8848C5.69117 17.8253 7.39152 18.3223 9.12716 18.3153C14.9929 18.3153 18.1998 13.4569 18.1998 9.24587C18.1998 9.10534 18.1998 8.96955 18.1887 8.83376C18.8133 8.38303 19.3505 7.8223 19.774 7.17902Z" fill="white"/>
</g>
<defs>
<clipPath id="clip0_801_1516">
<rect width="24" height="24" fill="white"/>
</clipPath>
</defs>
</svg>
