<svg width="24" height="24" viewBox="0 0 24 24" fill="none" xmlns="http://www.w3.org/2000/svg">
<g clip-path="url(#clip0_801_1522)">
<path d="M12 24C18.6274 24 24 18.6274 24 12C24 5.37258 18.6274 0 12 0C5.37258 0 0 5.37258 0 12C0 18.6274 5.37258 24 12 24Z" fill="#FF0000"/>
<path d="M15.9262 7.48535H8.07254C7.75869 7.48535 7.44791 7.5472 7.15797 7.66735C6.86802 7.78751 6.6046 7.96361 6.38274 8.18562C6.16089 8.40762 5.98495 8.67116 5.86499 8.96118C5.74503 9.2512 5.68339 9.56202 5.68359 9.87588V14.1232C5.68339 14.4371 5.74503 14.7479 5.86499 15.0379C5.98495 15.328 6.16089 15.5915 6.38274 15.8135C6.6046 16.0355 6.86802 16.2116 7.15797 16.3318C7.44791 16.4519 7.75869 16.5138 8.07254 16.5138H15.9262C16.2401 16.5138 16.5509 16.4519 16.8408 16.3318C17.1307 16.2116 17.3942 16.0355 17.616 15.8135C17.8379 15.5915 18.0138 15.328 18.1338 15.0379C18.2537 14.7479 18.3154 14.4371 18.3152 14.1232V9.87588C18.3154 9.56202 18.2537 9.2512 18.1338 8.96118C18.0138 8.67116 17.8379 8.40762 17.616 8.18562C17.3942 7.96361 17.1307 7.78751 16.8408 7.66735C16.5509 7.5472 16.2401 7.48535 15.9262 7.48535ZM10.3352 13.9354V10.0638L13.6636 11.9996L10.3352 13.9354Z" fill="white"/>
</g>
<defs>
<clipPath id="clip0_801_1522">
<rect width="24" height="24" fill="white"/>
</clipPath>
</defs>
</svg>
