<svg width="20" height="20" fill="none" xmlns="http://www.w3.org/2000/svg"><path d="M1.667 10c0-3.143 0-4.714.976-5.69.976-.977 2.548-.977 5.69-.977h3.334c3.142 0 4.714 0 5.69.977.976.976.976 2.547.976 5.69v1.667c0 3.142 0 4.714-.976 5.69s-2.548.976-5.69.976H8.333c-3.142 0-4.714 0-5.69-.976s-.976-2.548-.976-5.69V10z" stroke="#727272" stroke-width="1.5"/><path d="M5.833 3.333v-1.25m8.334 1.25v-1.25M2.083 7.5h15.834" stroke="#727272" stroke-width="1.5" stroke-linecap="round"/><path d="M15 14.167a.833.833 0 11-1.667 0 .833.833 0 011.667 0zm0-3.334a.833.833 0 11-1.667 0 .833.833 0 011.667 0zm-4.167 3.334a.833.833 0 11-1.666 0 .833.833 0 011.666 0zm0-3.334a.833.833 0 11-1.666 0 .833.833 0 011.666 0zm-4.166 3.334a.833.833 0 11-1.667 0 .833.833 0 011.667 0zm0-3.334a.833.833 0 11-1.667 0 .833.833 0 011.667 0z" fill="#727272"/></svg>