<svg width="182" height="220" fill="none" xmlns="http://www.w3.org/2000/svg"><path d="M67.802 178.952c9.64-9.64 24.703-9.64 34.043 0 9.64 9.34 9.64 24.403 0 34.044-9.34 9.339-24.403 9.339-34.043 0-9.34-9.641-9.34-24.704 0-34.044zM48.822 0h84.354c32.839 0 48.203 15.365 48.203 48.203v36.152c0 32.838-15.364 48.202-48.203 48.202H103.05v18.076H66.898V98.815h66.278c8.135 0 12.051-4.82 12.051-14.46V48.203c0-9.64-3.916-14.461-12.051-14.461H48.822c-8.134 0-12.05 4.82-12.05 14.46v15.064H.618V48.203C.62 15.365 15.984 0 48.822 0z" fill="#FF1010"/></svg>