<svg width="20" height="20" fill="none" xmlns="http://www.w3.org/2000/svg"><path fill-rule="evenodd" clip-rule="evenodd" d="M10 1.667a8.333 8.333 0 100 16.666 8.333 8.333 0 000-16.666zM3.543 8.332a6.679 6.679 0 000 3.333h2.369a17.511 17.511 0 010-3.333H3.543zm.682-1.667h1.936c.177-.852.42-1.633.72-2.308a8.25 8.25 0 01.157-.332 6.697 6.697 0 00-2.813 2.64zm3.362 1.667C7.53 8.864 7.5 9.423 7.5 10s.03 1.135.087 1.666h4.826c.057-.53.087-1.089.087-1.666 0-.578-.03-1.136-.087-1.667H7.587zm4.545-1.667H7.868c.145-.61.327-1.16.536-1.631.274-.615.578-1.061.873-1.342.291-.277.534-.36.723-.36.19 0 .432.083.723.36.295.28.6.727.872 1.342.21.472.392 1.021.537 1.631zm1.956 1.667a17.512 17.512 0 010 3.333h2.369a6.68 6.68 0 000-3.333h-2.369zm1.687-1.667h-1.936a11.424 11.424 0 00-.72-2.308 8.291 8.291 0 00-.157-.332 6.697 6.697 0 012.813 2.64zm-8.737 9.308a6.697 6.697 0 01-2.813-2.64h1.936c.177.852.42 1.632.72 2.308.05.113.103.224.157.332zm1.366-1.01a9.364 9.364 0 01-.536-1.63h4.264a9.366 9.366 0 01-.537 1.63c-.273.616-.577 1.062-.872 1.343-.291.277-.534.36-.723.36-.19 0-.432-.083-.723-.36-.295-.281-.6-.727-.873-1.342zm4.714.678c.3-.676.544-1.456.721-2.309h1.936a6.697 6.697 0 01-2.813 2.641 8.43 8.43 0 00.156-.332z" fill="#fff"/></svg>