<svg width="124" height="120" fill="none" xmlns="http://www.w3.org/2000/svg"><path fill="#FF1010" d="M0 0h123.047v120H0z"/><path fill-rule="evenodd" clip-rule="evenodd" d="M35.051 21.932l-.123-1.051-.025-.221a27.85 27.85 0 00-.038-.33c-.015-.127-.024-.256.124-.312.162-.062.243.046.32.167.346.552.694 1.104 1.042 1.655l.734 1.166.46.732c.35.558.7 1.115 1.056 1.669.08.124.2.238.326.316 2.82 1.757 5.643 3.51 8.466 5.262l1.617 1.004 12.772 7.932 1.178.732c1.66 1.032 3.322 2.064 4.986 3.09a.918.918 0 01.415.504 6834.995 6834.995 0 004.71 13.108c.06.143.31.693.731.883 1.065.48 2.124.97 3.184 1.46a833.093 833.093 0 002.553 1.179c1.43.66 2.861 1.318 4.292 1.977l.519.24a93.29 93.29 0 001.51.69.796.796 0 01.436.446l.306.715c.432 1.008.863 2.016 1.32 3.012.227.494.34.97.218 1.507a6.22 6.22 0 00-.114.874l-.017.195a.433.433 0 01-.212.352 229.81 229.81 0 00-1.453.95l-.017.012c-.067.045-.136.091-.235.03a.297.297 0 01-.12-.338c.03-.1.065-.199.1-.297l.063-.183.015-.046.014-.046a.386.386 0 00-.112-.41l-.137-.12-1-.875-.2-.177c-.235-.206-.47-.413-.714-.61a1.472 1.472 0 00-.42-.241c-.168-.062-.34-.115-.51-.168a10.851 10.851 0 01-.465-.151 1.426 1.426 0 00-.757-.059c-.52.095-1.04.184-1.56.274-.418.073-.837.145-1.256.22a.603.603 0 00-.276.122c-.683.582-1.363 1.168-2.055 1.765l-.246.212a.115.115 0 00-.031.13c.216.524 1.488 3.585 2.097 4.518.022.034.06.053.101.052.724-.028 1.449-.054 2.174-.074.231-.007.447-.044.652-.16.083-.048.17-.086.259-.125.092-.04.185-.08.272-.131.296-.175.607-.187.964-.118.258.05.521.063.783.048.305-.017.56.013.78.195.097.08.205.15.312.218l.044.028c.107.069.17.158.128.284-.039.118-.147.13-.255.127l-.35-.01c-.267-.008-.534-.015-.8-.036l-.027-.002c-.656-.053-.661-.053-1.105.443h-.001a.115.115 0 00.057.189c.109.028.21.054.312.077l.334.079c.332.078.664.156.999.22.195.037.284.139.335.311.123.411.248.822.373 1.232l.162.536.01.028c.01.021.02.042.015.06a.565.565 0 00-.013.062c-.014.07-.029.145-.072.173-.059.039-.198.032-.25-.013a3.301 3.301 0 00-.143-.117c-.175-.141-.352-.283-.451-.5a4.4 4.4 0 00-.333-.591.43.43 0 00-.232-.173 12.379 12.379 0 00-.58-.114 16.686 16.686 0 01-.426-.081c-.157-.033-.281-.004-.389.118a9.972 9.972 0 01-.286.309l-.067.07a.115.115 0 00.008.166c.047.042.097.085.151.122.418.293.772.65 1.082 1.053.15.195.313.382.476.569.092.106.182.216.088.354-.093.138-.223.088-.347.04l-.016-.006-.124-.047c-.79-.303-1.58-.606-2.297-1.062-.332-.212-.456-.194-.48.257l-.008.077-.007.076c-.016.269.082.424.338.514.2.07.402.137.604.203a65.886 65.886 0 01.455.15c.107.041.175.113.162.234-.014.125-.109.173-.217.182-.268.024-.537.041-.805.056-.558.031-1.01-.234-1.464-.5-.02-.01-.039-.022-.058-.034-.137-.08-.134-.201-.131-.331 0-.059.002-.12-.01-.178-.079-.4-.087-.81.002-1.207.1-.445.054-.591-.215-.712a35.366 35.366 0 01-.9-.421 47.773 47.773 0 00-.671-.319.816.816 0 00-.355-.083c-.472.018-.945.041-1.417.065a171.495 171.495 0 01-1.8.081c-.604.025-1.209.05-1.814.083-.27.015-.459-.063-.655-.253-.828-.799-1.665-1.59-2.5-2.38-.342-.322-.682-.644-1.022-.967a9.54 9.54 0 01-.144-.137.312.312 0 00-.199-.087l-13.927-.796-.047-.002-.77-.027a6.449 6.449 0 01-1.43-.258l-4.043-1.34a2.86 2.86 0 01-.85-.453l-1.635-1.266-.79-.612c-.216-.167-.199-.46.034-.57l1.769-.841a4.204 4.204 0 011.133-.35l6.382-1.03a5.397 5.397 0 011.752.01l8.05 1.354a.306.306 0 00.343-.2l.162-.51a.31.31 0 00-.234-.398l-3.622-.74a.58.58 0 01-.461-.515l-.167-1.833-.254-2.784c-.012-.135-.027-.27-.043-.414a.227.227 0 00-.343-.17c-.787.473-1.572.949-2.358 1.424l-.003.002-.048.03-.085.05c-.217.115-.312.087-.405-.147a56.86 56.86 0 01-.486-1.266l-.953-2.519c-1.554-4.107-3.109-8.214-4.66-12.323-.066-.176-.181-.287-.328-.39a12777.37 12777.37 0 01-8.761-6.18l-1.036-.732c-.836-.59-1.671-1.181-2.51-1.768a.575.575 0 01-.266-.452 424.183 424.183 0 00-.366-3.182 1509.688 1509.688 0 01-.27-2.307c-.108-.91-.215-1.822-.32-2.733-.057-.482-.11-.965-.164-1.447l-.165-1.458c-.096-.831-.194-1.663-.292-2.494zm38.7 35.078l.003.006.003.007a.975.975 0 00.497.513c.989.45 1.988.916 2.958 1.367l.042.02.363.169.248.115.007.003.604.281.74.342a.166.166 0 00.204-.052l.001-.002.17-.233v-.001a410.52 410.52 0 001.768-2.432.587.587 0 01.326-.24c.58-.175 1.159-.357 1.734-.545a.383.383 0 01.349.041c.522.307 1.047.61 1.573.913l.003.002.584.337.933.54.933.54c.113.066.228.113.34.008.088-.082.066-.163-.075-.292-.171-.156-.344-.31-.52-.463l-1.046-.908a686.42 686.42 0 01-2.736-2.385.784.784 0 00-.537-.208c-.856-.021-1.71-.049-2.566-.076l-.905-.028v-.002l-.791-.025-.767-.024a25.051 25.051 0 00-4.11.207 65.9 65.9 0 00-1.036.141s-.126.022-.087.147l.792 2.217h.002zm-.264 27.753c.917 0 1.775.236 2.542.787 1.28.919 1.93 2.156 1.9 3.69a8.552 8.552 0 01-.123 1.136c-.026.168-.053.337-.074.506-.016.123-.094.186-.213.197-.062.007-.125.007-.188.007h-4.646c-.034 0-.068.001-.101-.002-.237-.019-.296-.093-.262-.334l.087-.6v-.004l.066-.452a1.356 1.356 0 00-1.206-1.567 6.896 6.896 0 00-.826-.028h-.353a7.32 7.32 0 00-.785.023c-.647.064-1.041.45-1.139 1.09-.1.65-.195 1.3-.29 1.95v.001l-.067.451-.175 1.2c-.107.726-.213 1.453-.322 2.18-.14.927.476 1.655 1.418 1.662.513.004 1.025.004 1.537 0 .776-.005 1.245-.415 1.354-1.171.074-.52.152-1.038.233-1.557.034-.216.057-.237.274-.237h4.854c.265 0 .317.058.28.332-.052.4-.112.799-.171 1.197l-.042.283a72.482 72.482 0 00-.045.304v.001c-.044.303-.088.607-.14.908-.293 1.692-1.517 2.923-3.208 3.22a4.16 4.16 0 01-.721.056c-2.256.004-4.513.006-6.769.001-2.121-.004-3.999-1.673-4.292-3.785-.075-.548-.015-1.074.063-1.602l.442-2.987v-.006l.001-.005.502-3.393c.112-.764.38-1.453.873-2.037.742-.881 1.704-1.37 2.883-1.401a76.116 76.116 0 012.47-.011c.363.002.726.004 1.089.004v-.007h3.29zm20.759 3.524a4.376 4.376 0 00-1.36-2.368c-.882-.801-1.915-1.166-3.073-1.157-.758.005-1.517.004-2.275.003l-.989-.002h-.876c-.778 0-1.556-.001-2.333.003a5.202 5.202 0 00-.83.059c-1.755.297-2.989 1.649-3.229 3.321-.307 2.148-.629 4.293-.95 6.438h-.001l-.036.242a4.766 4.766 0 00.024 1.686c.399 1.945 2.225 3.473 4.194 3.482 2.293.009 4.585.008 6.877-.004.355-.002.72-.047 1.055-.147 1.609-.485 2.564-1.574 2.826-3.242.22-1.4.424-2.803.63-4.206.107-.736.215-1.473.325-2.21.094-.627.16-1.252.021-1.896v-.002zm-5.377 1.277a40.4 40.4 0 01-.186 1.353l-.014.092-.018.124-.022.147-.047.317c-.194 1.318-.388 2.636-.588 3.953-.104.688-.57 1.09-1.27 1.107-.19.005-.382.004-.574.002a37.875 37.875 0 00-.525 0c-.19.002-.381.003-.572-.002-.857-.026-1.46-.721-1.362-1.564.03-.248.063-.495.1-.74l.28-1.895.003-.02.002-.016v-.003l.001-.002v-.003c.154-1.034.307-2.068.458-3.102.065-.443.233-.811.63-1.041.23-.133.484-.166.745-.17.494-.006.989-.004 1.483-.001.4.003.767.105 1.07.406.299.299.452.653.405 1.059l.001-.001zm-47.833-4.801c.956 0 1.845.26 2.628.857 1.337 1.02 1.959 2.363 1.777 3.975-.13 1.153-.307 2.298-.484 3.443v.002c-.07.454-.14.908-.207 1.362-.199 1.35-.4 2.701-.601 4.052v.004l-.001.001-.182 1.221c-.044.298-.062.314-.376.314h-4.732a.815.815 0 01-.095 0c-.192-.019-.255-.093-.228-.287.036-.259.075-.517.114-.775v-.001l.046-.306.172-1.164v-.005c.158-1.062.316-2.125.472-3.188a.733.733 0 00.005-.126v-.07h-4.35l-.01.051-.007.04a3.95 3.95 0 00-.038.207l-.319 2.156v.004l-.47 3.173c-.04.277-.056.29-.338.29-1.59.002-3.181.003-4.772 0-.296 0-.346-.06-.303-.358.27-1.845.542-3.69.814-5.534v-.005l.002-.006.267-1.8c.2-1.345.4-2.69.592-4.036.176-1.238.75-2.21 1.792-2.877a3.816 3.816 0 011.983-.606c.317-.009.634-.008.951-.008h5.897zm-1.028 4.95c.009-.055.018-.111.02-.168.026-.725-.48-1.358-1.21-1.412a15.44 15.44 0 00-2.046 0c-.555.034-.91.385-1.029.915-.081.363-.131.735-.181 1.106-.02.15-.04.3-.063.448a.13.13 0 00.01.055l.006.019.005.018h4.343l.03-.2.033-.23.075-.507.007-.043zM20.468 88.1c-.197 0-.401.005-.586.056l.001.002c-.45.124-.76.419-.855.879-.077.372-.132.75-.188 1.141-.025.172-.05.346-.078.522l.127.005h.001c.078.003.147.005.216.005h8.976c.064 0 .128-.001.193.002.218.013.278.076.252.29-.026.21-.058.42-.09.628l-.04.27-.075.502c-.064.431-.128.862-.19 1.294-.051.344-.067.362-.422.362h-9.439l-.018.12v.002c-.062.408-.12.792-.176 1.175l-.214 1.452v.003l-.427 2.902c-.037.25-.072.283-.326.283a1920 1920 0 01-4.8 0c-.277 0-.34-.075-.299-.347l.433-2.913v-.005l.001-.002a4933.74 4933.74 0 00.88-5.947l.384-2.607c.26-1.76 1.462-3.017 3.205-3.343.27-.05.55-.065.828-.065 3.072-.003 6.145-.003 9.217-.003h2.163c.246.012.312.08.28.32-.038.276-.08.55-.121.826l-.05.336-.062.407-.162 1.098v.008c-.05.338-.05.34-.396.34h-1.635c-2.17 0-4.34 0-6.509.002zm32.571 8.558h7.55c.414 0 .437.025.378.434l-.374 2.561a2.29 2.29 0 01-.034.184c-.021.098-.086.15-.187.154a3.582 3.582 0 01-.188.003h-9.761c-.898 0-1.737-.233-2.491-.765-1.184-.835-1.833-1.96-1.932-3.38-.032-.458.038-.9.109-1.342l.047-.306c.271-1.853.545-3.705.82-5.558v-.007l.004-.025.356-2.41.068-.47v-.001c.032-.222.064-.444.098-.665.042-.275.074-.303.364-.303h4.719c.035 0 .072-.001.107.001.2.018.262.08.243.28-.016.162-.04.323-.065.484l-.011.075-.011.075-.616 4.167-.615 4.168c-.017.11-.032.221-.047.332-.034.25-.068.501-.115.749-.122.635.356 1.513 1.342 1.564.057.003.114.002.17.002h.04l.032-.001zm56.488-10.808c-.843-.742-1.821-1.084-2.907-1.086-.765-.002-1.531-.001-2.296 0h-1.866c-.788-.001-1.576-.002-2.364.002-.27.001-.54.008-.804.05-1.692.267-2.95 1.487-3.25 3.174a55.451 55.451 0 00-.295 1.905l-.106.732-.576 3.914-.007.046-.39 2.64-.088.602-.27 1.827c-.039.269.021.339.302.34h4.8c.253 0 .28-.03.318-.289l.361-2.444 1-6.772.049-.342c.052-.371.104-.743.185-1.106.12-.533.476-.86 1.031-.912.333-.03.671-.03 1.009-.03h.319a5.61 5.61 0 01.717.027c.753.094 1.28.763 1.199 1.505-.009.089-.024.176-.037.264l-.72 4.872-.72 4.872c-.042.289.015.355.315.355h4.774c.257 0 .292-.03.33-.277.035-.227.068-.456.101-.684l.015-.103.047-.322.337-2.284.007-.044c.279-1.89.559-3.781.835-5.673l.04-.264.001-.001c.058-.378.117-.758.123-1.14.022-1.326-.493-2.449-1.519-3.352v-.002z" fill="#181818"/></svg>