<svg width="16" height="17" fill="none" xmlns="http://www.w3.org/2000/svg"><g clip-path="url(#clip0_186_2268)" fill="#BB2525"><path d="M10.367 9.664l-1.34 1.345c-.543.545-1.5.557-2.054 0l-1.34-1.345L.82 14.493c.179.083.376.132.586.132h13.188c.21 0 .407-.05.586-.132l-4.813-4.829z"/><path d="M14.594 3.375H1.405c-.21 0-.408.05-.587.132l5.143 5.16.001.001v.001l1.673 1.678c.178.178.55.178.727 0l1.672-1.678h.001l.001-.002 5.143-5.16a1.391 1.391 0 00-.586-.132zM.15 4.163a1.39 1.39 0 00-.15.619v8.437c0 .223.057.431.15.619L4.97 9 .15 4.163zm15.7 0l-4.82 4.838 4.82 4.837a1.39 1.39 0 00.15-.619V4.782a1.39 1.39 0 00-.15-.619z"/></g><defs><clipPath id="clip0_186_2268"><path fill="#fff" transform="translate(0 .618)" d="M0 0h16v16H0z"/></clipPath></defs></svg>