<svg width="24" height="24" fill="none" xmlns="http://www.w3.org/2000/svg"><path d="M22 16.597a3.11 3.11 0 01-3.105 3.105H2V7.403a3.11 3.11 0 013.105-3.105H22v12.299z" fill="#fff"/><path d="M17.812 5.067a2.305 2.305 0 00-2.295 2.315v2.405h3.24c.076 0 .164 0 .227.012.732.038 1.274.42 1.274 1.082 0 .521-.366.966-1.047 1.055v.026c.744.05 1.312.47 1.312 1.12 0 .699-.63 1.157-1.463 1.157h-3.555v4.707h3.366c1.26 0 2.294-1.03 2.294-2.316V5.068h-3.353z" fill="#05A551"/><path d="M16.64 13.501h1.323c.02 0 .05-.003.082-.006s.063-.007.082-.007a.595.595 0 00.467-.598.616.616 0 00-.467-.597c-.038-.013-.113-.013-.164-.013H16.64v1.22zm1.323-3.015a.54.54 0 01.467.547.54.54 0 01-.467.547c-.012.013-.088.013-.126.013H16.64v-1.12h1.197c.021 0 .05.004.075.008.02.003.04.005.051.005z" fill="#05A551"/><path d="M5.13 5.067a2.305 2.305 0 00-2.295 2.315v5.712c.643.318 1.311.522 1.98.522.793 0 1.222-.484 1.222-1.145V9.774h1.967v2.684c0 1.043-.643 1.895-2.824 1.895a9.596 9.596 0 01-2.358-.292v4.872h3.366a2.305 2.305 0 002.295-2.315V5.068H5.129z" fill="#0A4EA1"/><path d="M11.47 5.067a2.305 2.305 0 00-2.294 2.315v3.028c.58-.496 1.588-.814 3.215-.738.87.038 1.802.28 1.802.28v.98a4.336 4.336 0 00-1.74-.51c-1.235-.088-1.979.522-1.979 1.59 0 1.082.744 1.693 1.98 1.59.718-.05 1.273-.279 1.74-.508v.98s-.921.241-1.803.28c-1.627.076-2.635-.242-3.215-.738v5.342h3.366c1.26 0 2.294-1.03 2.294-2.315V5.067H11.47z" fill="#EE1C24"/></svg>