<svg width="24" height="24" fill="none" xmlns="http://www.w3.org/2000/svg"><g clip-path="url(#clip0_3201_1061)"><path d="M14.92 5.042H9.08v10.496h5.84V5.042z" fill="#FF5F00"/><path d="M9.45 10.29A6.663 6.663 0 0112 5.042a6.675 6.675 0 100 10.496 6.664 6.664 0 01-2.55-5.248z" fill="#EB001B"/><path d="M22.8 10.29A6.675 6.675 0 0112 15.538a6.676 6.676 0 000-10.496 6.675 6.675 0 0110.8 5.248zm-.637 4.136v-.215h.087v-.043h-.22v.043h.086v.215h.047zm.429 0v-.259h-.068l-.078.178-.078-.178h-.067v.26h.048v-.196l.073.168h.049l.073-.169v.196h.048z" fill="#F79E1B"/></g><defs><clipPath id="clip0_3201_1061"><path fill="#fff" d="M0 0h24v24H0z"/></clipPath></defs></svg>