<svg width="24" height="24" fill="none" xmlns="http://www.w3.org/2000/svg"><path d="M11.903 8.885l-1.337 6.246H8.95l1.337-6.246h1.616zm6.799 4.033l.85-2.346.49 2.346h-1.34zm1.804 2.213H22l-1.305-6.246h-1.379c-.31 0-.572.18-.688.457l-2.425 5.79H17.9l.337-.934h2.073l.196.933zm-4.22-2.039c.008-1.649-2.278-1.74-2.263-2.477.005-.223.219-.462.685-.523.232-.03.87-.054 1.594.28l.283-1.325a4.355 4.355 0 00-1.512-.277c-1.597 0-2.721.85-2.73 2.065-.01.9.803 1.401 1.414 1.7.63.307.842.503.839.777-.005.419-.503.604-.967.611-.813.013-1.284-.22-1.66-.395l-.293 1.37c.378.173 1.075.324 1.797.331 1.698 0 2.809-.838 2.814-2.137zM9.594 8.885L6.975 15.13H5.267l-1.289-4.985c-.078-.307-.146-.42-.384-.549-.388-.21-1.03-.408-1.594-.531l.038-.181h2.75c.35 0 .666.233.746.636l.68 3.615 1.682-4.251h1.697z" fill="#1434CB"/></svg>