<svg width="24" height="24" fill="none" xmlns="http://www.w3.org/2000/svg"><g clip-path="url(#clip0_3201_1055)"><path fill-rule="evenodd" clip-rule="evenodd" d="M13.194 7.083l-1.46 1.483-.072.073-.81.824-.737.75-.072.073-.683.694-.072.074a3.023 3.023 0 01-1.046.691 2.927 2.927 0 01-1.437.18 2.945 2.945 0 01-1.14-.385 2.09 2.09 0 01-.438-.313h-.002L2.427 8.382a1.03 1.03 0 01-.24-.904l.018-.068a1.061 1.061 0 01.256-.436l.047-.048 2.83-2.877 1.715-1.744a1.008 1.008 0 011.392-.05l4.749 4.828z" fill="#005AAA"/><path fill-rule="evenodd" clip-rule="evenodd" d="M5.198 11.2l.027.026c.129.13.285.225.439.314a2.945 2.945 0 001.695.402 2.923 2.923 0 001.256-.373 3.02 3.02 0 00.672-.514l.072-.073.684-.695.345-.352.81-.823.463-.472.072-.073 2.94-2.988 1.212-1.335.073-.072a.937.937 0 011.34 0l.664.674.02.023a1.079 1.079 0 00-.811.314l-2.247 2.246-.023.028-3.91 3.91-.005-.005-1.44 1.439-.096.103c-.113.112-.35.325-.668.477-.144.069-.29.119-.434.15a1.67 1.67 0 01-.26.033h-.066a1.56 1.56 0 01-.668-.153l-.677-.686-.276-.282-1.267-1.303.058.06h.006zm16.36-1.337l-3.255 3.36-3.343 3.451a2.87 2.87 0 01-.35.306l-.049.036-.006.005a3.045 3.045 0 01-3.914-.28l-.076-.07-.576-.584-1.615-1.644-.614-.624c.087.015.176.02.265.02H8.1a2.021 2.021 0 00.803-.209 2.807 2.807 0 00.843-.638l1.243-1.24.005.005 4.272-4.274.023-.027 2.076-2.077a.81.81 0 011.033-.092l.492.5 2.669 2.712a.978.978 0 010 1.364z" fill="#ED1C24"/><path d="M12.753 7.53l-.274.277-.48-.492a.2.2 0 010-.278.192.192 0 01.274 0l.48.491v.001zm-.81.823l-.274.277-1.51-1.547a2.069 2.069 0 00-2.139-.527.192.192 0 01-.243-.125.198.198 0 01.125-.249 2.445 2.445 0 012.53.624l1.51 1.547h.001zM10.323 10l-.274.278-1.517-1.554a.201.201 0 010-.279.192.192 0 01.275.001L10.323 10zm.81-.823l-.274.278-1.514-1.552A.941.941 0 008 7.898a.98.98 0 00-.005 1.367l.976 1a.2.2 0 010 .28.192.192 0 01-.275-.002l-.976-1a1.38 1.38 0 01.008-1.925 1.325 1.325 0 011.893.008l1.512 1.55zm-2.51 2.386l-.009.005a3.1 3.1 0 01-.364.172l-1.342-1.376a2.56 2.56 0 01-.286-3.209.193.193 0 01.27-.05.2.2 0 01.05.273 2.16 2.16 0 00.241 2.707l1.441 1.477h-.001zm2.623-5.297a.195.195 0 01-.275-.003 3.21 3.21 0 00-4.586-.019 3.34 3.34 0 00-.017 4.662l.986 1.011a.094.094 0 01.017.023h-.014c-.18.012-.361.008-.539-.014l-.724-.743a3.738 3.738 0 01.02-5.219 3.591 3.591 0 015.132.02l.003.004c.075.076.073.2-.003.278z" fill="#009EDB"/></g><defs><clipPath id="clip0_3201_1055"><path fill="#fff" transform="translate(2.164)" d="M0 0h19.672v20H0z"/></clipPath></defs></svg>