<svg width="24" height="24" fill="none" xmlns="http://www.w3.org/2000/svg"><path fill-rule="evenodd" clip-rule="evenodd" d="M21 7.66V8a4 4 0 01-1.18 2.84L17 13.67a1.35 1.35 0 01-1.9 0l-.1-.11a.5.5 0 010-.7l3.44-3.44A2 2 0 0019 8v-.34a2 2 0 00-.59-1.42l-.65-.65A2 2 0 0016.34 5H16a2 2 0 00-1.42.59L11.14 9a.5.5 0 01-.7 0l-.11-.11a1.35 1.35 0 010-1.9l2.83-2.84A4 4 0 0116 3h.34a4 4 0 012.83 1.17l.66.66A4 4 0 0121 7.66zM8.65 13.94l5.29-5.29a.5.5 0 01.71 0l.7.7a.5.5 0 010 .71l-5.29 5.29a.5.5 0 01-.71 0l-.7-.7a.5.5 0 010-.71zM13.56 15a.5.5 0 00-.7 0l-3.43 3.41A2 2 0 018 19h-.34a2 2 0 01-1.42-.59l-.65-.65A2 2 0 015 16.34V16a2 2 0 01.59-1.42l3.42-3.44a.5.5 0 000-.7l-.11-.11a1.35 1.35 0 00-1.9 0l-2.82 2.83A4 4 0 003 16v.35a4 4 0 001.17 2.82l.66.66A4 4 0 007.66 21H8a4 4 0 002.82-1.14l2.85-2.85a1.35 1.35 0 000-1.9l-.11-.11z" fill="#181818"/></svg>