<svg width="24" height="24" fill="none" xmlns="http://www.w3.org/2000/svg"><path fill-rule="evenodd" clip-rule="evenodd" d="M11.885 2.012a4.142 4.142 0 00-2.233.894 6 6 0 00-.694.68A5.329 5.329 0 007.85 5.98a5.013 5.013 0 00-.087.678l-.008.167h-2.11c-2.33 0-2.192-.005-2.311.086a.378.378 0 00-.147.285c-.003.055.128 3.023.292 6.597.325 7.07.302 6.684.403 6.99.186.566.622 1 1.159 1.152.245.07-.174.066 7.086.066 7.279 0 6.85.004 7.115-.068.147-.04.417-.173.555-.274a1.83 1.83 0 00.727-1.199c.012-.079.149-2.702.35-6.71.326-6.529.329-6.583.304-6.66a.403.403 0 00-.2-.227l-.065-.03-2.138-.005-2.138-.003-.008-.085-.022-.249c-.116-1.265-.694-2.486-1.572-3.316-.886-.838-2.013-1.253-3.15-1.162zm.767 1.19c.398.074.748.212 1.084.429.746.479 1.316 1.307 1.554 2.26.069.273.103.493.13.841l.007.092H8.961l.01-.167a4.36 4.36 0 01.181-.99c.229-.728.62-1.336 1.15-1.782a3.008 3.008 0 011.505-.695c.16-.025.683-.018.845.012zm.013 6.137c.787.1 1.47.33 2.134.719.168.099.248.166.263.222.012.048-.022.12-.161.335l-.148.232c-.098.159-.13.16-.372.013a4.483 4.483 0 00-2.177-.662 2.618 2.618 0 00-.909.125c-.517.17-.93.525-1.104.951a1.258 1.258 0 00-.103.647c.074.644.557 1.12 1.533 1.51.106.043.337.125.513.183.599.199 1.017.362 1.415.553 1.146.55 1.744 1.165 1.921 1.977.043.198.053.591.021.839a2.571 2.571 0 01-1.45 2.03c-.344.17-.729.28-1.227.351a5.685 5.685 0 01-1.045 0c-.841-.092-1.671-.356-2.256-.718-.326-.203-.755-.515-.774-.566-.02-.05-.001-.088.193-.372.222-.326.262-.371.326-.371.055 0 .084.016.19.104.217.18.609.427.911.572.657.315 1.392.478 1.982.44.74-.047 1.341-.275 1.733-.657a1.51 1.51 0 00.421-.7c.034-.122.038-.155.037-.366a1.13 1.13 0 00-.102-.547c-.178-.436-.61-.836-1.235-1.144a5.494 5.494 0 00-.817-.32 19.051 19.051 0 01-1.682-.645 3.505 3.505 0 01-1.038-.764c-.416-.468-.604-.982-.577-1.583.033-.73.41-1.39 1.056-1.844.434-.306.984-.502 1.581-.564.166-.017.75-.005.947.02z" fill="#fff"/></svg>