<svg width="220" height="220" fill="none" xmlns="http://www.w3.org/2000/svg"><path fill-rule="evenodd" clip-rule="evenodd" d="M193.633 87.25c-1.689-6.222 1.988-12.636 8.211-14.326 6.228-1.687 12.64 1.988 14.327 8.212A110.244 110.244 0 01219.999 110c0 14.846-2.911 29.253-8.649 42.821-5.541 13.101-13.47 24.862-23.568 34.961-10.099 10.098-21.86 18.027-34.961 23.568-13.569 5.738-27.975 8.649-42.821 8.649-14.847 0-29.253-2.911-42.821-8.649-13.1-5.541-24.863-13.47-34.96-23.568-10.1-10.099-18.028-21.86-23.57-34.961C2.912 139.253.002 124.844.002 110c0-14.844 2.91-29.25 8.649-42.821 5.54-13.1 13.47-24.862 23.568-34.96C42.316 22.12 54.078 14.19 67.178 8.65 80.749 2.912 95.309.001 110 .001c14.691 0 28.958 2.852 42.409 8.475 5.951 2.49 8.755 9.327 6.268 15.277-2.489 5.95-9.329 8.755-15.277 6.268-10.583-4.426-21.82-6.668-33.4-6.668-23.145 0-44.904 9.011-61.27 25.377C32.366 65.097 23.353 86.855 23.353 110c0 23.145 9.011 44.904 25.377 61.27 16.366 16.364 38.125 25.377 61.27 25.377 23.144 0 44.903-9.011 61.269-25.377 16.364-16.366 25.378-38.125 25.378-61.27a86.906 86.906 0 00-3.014-22.75zM57.028 96.449c4.56-4.56 11.953-4.56 16.513 0v-.002l29.772 29.772 75.205-94.063c4.028-5.038 11.374-5.856 16.411-1.828 5.038 4.028 5.854 11.373 1.829 16.41l-83.356 104.254a11.674 11.674 0 01-17.376.967L57.03 112.96c-4.56-4.56-4.56-11.952 0-16.512z" fill="#22D105"/></svg>