<svg width="24" height="25" viewBox="0 0 24 25" fill="none" xmlns="http://www.w3.org/2000/svg">
<g clip-path="url(#clip0_373_23456)">
<path d="M24 16.8926C24 13.3943 21.6429 10.338 18.319 9.41693C18.11 4.54761 14.0839 0.650391 9.16406 0.650391C4.1109 0.650391 0 4.76129 0 9.81445C0 11.4613 0.438354 13.0648 1.27075 14.4725L0.0336914 18.9446L4.50604 17.7078C5.80005 18.473 7.25977 18.904 8.76636 18.969C9.68719 22.2931 12.7438 24.6504 16.2422 24.6504C17.6385 24.6504 18.9965 24.2785 20.1896 23.5719L23.9661 24.6165L22.9215 20.84C23.6281 19.6469 24 18.2889 24 16.8926ZM4.72797 16.1873L2.0506 16.9279L2.79126 14.2505L2.62244 13.9865C1.82684 12.7418 1.40625 11.2991 1.40625 9.81445C1.40625 5.53674 4.88635 2.05664 9.16406 2.05664C13.4418 2.05664 16.9219 5.53674 16.9219 9.81445C16.9219 14.0922 13.4418 17.5723 9.16406 17.5723C7.67944 17.5723 6.23694 17.1517 4.992 16.3561L4.72797 16.1873ZM21.9494 22.5998L19.9627 22.0501L19.6974 22.2228C18.6689 22.8909 17.4739 23.2441 16.2422 23.2441C13.4927 23.2441 11.0766 21.4664 10.2206 18.9172C14.4309 18.4318 17.7814 15.0813 18.267 10.8708C20.816 11.727 22.5938 14.1431 22.5938 16.8926C22.5938 18.1243 22.2405 19.3193 21.5724 20.3478L21.3997 20.6131L21.9494 22.5998Z" fill="black"/>
<path d="M8.46094 13.3535H9.86719V14.7598H8.46094V13.3535Z" fill="black"/>
<path d="M10.5703 7.68164C10.5703 8.08099 10.4077 8.44958 10.1125 8.71967L8.46094 10.2314V11.9473H9.86719V10.8506L11.062 9.75714C11.6431 9.22522 11.9766 8.46881 11.9766 7.68164C11.9766 6.13074 10.715 4.86914 9.16406 4.86914C7.61316 4.86914 6.35156 6.13074 6.35156 7.68164H7.75781C7.75781 6.90619 8.38861 6.27539 9.16406 6.27539C9.93951 6.27539 10.5703 6.90619 10.5703 7.68164Z" fill="black"/>
</g>
<defs>
<clipPath id="clip0_373_23456">
<rect width="24" height="24" fill="white" transform="translate(0 0.650391)"/>
</clipPath>
</defs>
</svg>
