<svg width="24" height="25" viewBox="0 0 24 25" fill="none" xmlns="http://www.w3.org/2000/svg">
<path d="M4.23153 19.0275C4.25491 19.1261 4.298 19.219 4.35819 19.3005C4.41839 19.382 4.49445 19.4505 4.5818 19.5018C4.66915 19.5531 4.76598 19.5863 4.86648 19.5992C4.96697 19.6122 5.06904 19.6047 5.16655 19.5771C9.63741 18.3427 14.3591 18.3422 18.8302 19.5758C18.9277 19.6033 19.0298 19.6108 19.1302 19.5979C19.2307 19.5849 19.3275 19.5518 19.4148 19.5005C19.5021 19.4492 19.5782 19.3808 19.6383 19.2993C19.6985 19.2178 19.7416 19.125 19.7651 19.0265L22.1546 8.8718C22.1866 8.73586 22.18 8.59368 22.1356 8.46129C22.0911 8.3289 22.0106 8.21154 21.903 8.12245C21.7955 8.03335 21.6652 7.97606 21.5268 7.95701C21.3885 7.93796 21.2476 7.95792 21.12 8.01464L16.3777 10.1223C16.2065 10.1984 16.013 10.2077 15.8352 10.1482C15.6575 10.0888 15.5085 9.96498 15.4175 9.80117L12.6563 4.83108C12.5914 4.71416 12.4963 4.61674 12.3811 4.54891C12.2658 4.48108 12.1345 4.44531 12.0007 4.44531C11.867 4.44531 11.7357 4.48108 11.6204 4.54891C11.5051 4.61674 11.4101 4.71416 11.3451 4.83108L8.58395 9.80117C8.49294 9.96498 8.34391 10.0888 8.1662 10.1482C7.98849 10.2077 7.79496 10.1984 7.62373 10.1223L2.88078 8.01432C2.75318 7.95762 2.61229 7.93765 2.47396 7.95668C2.33564 7.97571 2.20537 8.03297 2.09782 8.12203C1.99028 8.21108 1.90973 8.32839 1.86525 8.46075C1.82077 8.5931 1.81411 8.73524 1.84604 8.87117L4.23153 19.0275Z" stroke="#111012" stroke-width="1.5" stroke-linecap="round" stroke-linejoin="round"/>
<path d="M9 15.8078C10.9945 15.5979 13.0055 15.5979 15 15.8078" stroke="#111012" stroke-width="1.5" stroke-linecap="round" stroke-linejoin="round"/>
</svg>
