<svg width="20" height="21" viewBox="0 0 20 21" fill="none" xmlns="http://www.w3.org/2000/svg">
<path d="M0 17.9509V8.16485C0 5.13845 2.46266 2.67578 5.48907 2.67578H14.5096C17.5367 2.67578 20 5.13845 20 8.16485V9.85278C20 12.8792 17.5373 15.3419 14.5109 15.3419H5.61632L0 17.9509ZM5.48907 3.89953C3.13718 3.89953 1.22375 5.81296 1.22375 8.16485V16.0329L5.34665 14.1174H14.5109C16.8628 14.1174 18.7762 12.204 18.7762 9.85212V8.16419C18.7762 5.8123 16.8622 3.89887 14.5096 3.89887L5.48907 3.89953ZM5.89259 8.07188C6.53546 8.07188 7.05634 8.59277 7.05634 9.23563C7.05634 9.8785 6.53546 10.3994 5.89259 10.3994C5.24973 10.3994 4.72884 9.8785 4.72884 9.23563C4.72884 8.59277 5.24973 8.07188 5.89259 8.07188ZM14.1067 8.07188C14.7496 8.07188 15.2705 8.59277 15.2705 9.23563C15.2705 9.8785 14.7496 10.3994 14.1067 10.3994C13.4639 10.3994 12.943 9.8785 12.943 9.23563C12.943 8.59277 13.4639 8.07188 14.1067 8.07188ZM9.99901 8.07188C10.6419 8.07188 11.1628 8.59277 11.1628 9.23563C11.1628 9.8785 10.6419 10.3994 9.99901 10.3994C9.35615 10.3994 8.83526 9.8785 8.83526 9.23563C8.83526 8.59277 9.35615 8.07188 9.99901 8.07188Z" fill="#3800A6"/>
</svg>
