<svg width="12" height="12" viewBox="0 0 12 12" fill="none" xmlns="http://www.w3.org/2000/svg">
<path d="M8.00046 5.99942C8.00084 6.06522 7.98823 6.13045 7.96334 6.19137C7.93846 6.25229 7.9018 6.3077 7.85546 6.35442L4.85546 9.35442C4.76131 9.44857 4.63361 9.50146 4.50046 9.50146C4.36731 9.50146 4.23961 9.44857 4.14546 9.35442C4.05131 9.26027 3.99841 9.13257 3.99841 8.99942C3.99841 8.86627 4.05131 8.73857 4.14546 8.64442L6.79546 5.99942L4.15046 3.35442C4.06855 3.25877 4.02574 3.13573 4.0306 3.00989C4.03546 2.88405 4.08763 2.76468 4.17668 2.67564C4.26572 2.58659 4.38509 2.53442 4.51093 2.52956C4.63677 2.5247 4.75981 2.56751 4.85546 2.64942L7.85546 5.64942C7.94783 5.74255 7.99991 5.86825 8.00046 5.99942Z" fill="#0A0A0A"/>
</svg>
