<svg width="57" height="56" viewBox="0 0 57 56" fill="none" xmlns="http://www.w3.org/2000/svg">
<path d="M50.4106 29.0195C50.4106 29.0195 50.4106 29.0536 50.4106 29.1158C50.4106 29.178 50.4106 29.2703 50.3905 29.3866C50.3704 29.6193 50.3544 29.9543 50.3123 30.3534C50.2882 30.554 50.2601 30.7686 50.23 30.9953C50.216 31.1096 50.2019 31.226 50.1859 31.3463C50.1698 31.4667 50.1438 31.587 50.1217 31.7094C50.0756 31.9561 50.0294 32.2109 49.9833 32.4716C49.9372 32.7324 49.8629 32.9871 49.8028 33.2479C49.5717 34.2038 49.2734 35.1422 48.9102 36.0561C48.838 36.2426 48.7698 36.4131 48.7096 36.5656C48.6494 36.718 48.5832 36.8424 48.5351 36.9487L48.3846 37.2837L48.158 37.3338C48.0256 37.3659 47.841 37.402 47.6585 37.4341C47.2914 37.5023 46.9304 37.5585 46.9304 37.5585L46.8381 37.739C46.7819 37.8554 46.6917 38.0158 46.5794 38.2084C46.467 38.401 46.3447 38.6276 46.1982 38.8623L45.7349 39.5864L45.2314 40.2965C45.073 40.5232 44.9045 40.7197 44.7701 40.8983C44.5013 41.2513 44.3007 41.4699 44.3007 41.4699L44.389 41.8711L44.4732 42.2723C44.4732 42.2723 44.3508 42.4207 44.0981 42.6734L43.6388 43.1549L42.9889 43.7747C41.6191 45.0377 40.0905 46.1166 38.4416 46.984C36.1105 48.2135 33.5703 48.9965 30.9517 49.2928C26.6174 49.7914 22.2342 48.9549 18.388 46.8953C14.5419 44.8357 11.4162 41.651 9.42876 37.7671C9.15596 37.2576 8.94133 36.7481 8.72671 36.2687C8.51208 35.7893 8.34359 35.3179 8.20318 34.8646C7.94203 34.0989 7.72569 33.3186 7.55528 32.5278C7.47505 32.2008 7.43894 31.902 7.38679 31.6452C7.36473 31.5168 7.34266 31.3965 7.3226 31.2882C7.30254 31.1798 7.29653 31.0876 7.28449 30.9893C7.23836 30.6302 7.21429 30.4397 7.21429 30.4397L5.97266 30.5821C5.97266 30.5821 6.00475 30.8429 6.06693 31.3343C6.12911 31.8257 6.26752 32.5378 6.48215 33.4384C7.09637 35.9209 8.1273 38.2812 9.53106 40.4189L9.69353 40.6696C9.7497 40.7518 9.80787 40.8321 9.86804 40.9143L10.2211 41.4138C10.4638 41.7487 10.7326 42.0697 10.9933 42.4167C11.5591 43.094 12.1618 43.7395 12.7986 44.3503C13.4704 44.9935 14.1798 45.5963 14.9228 46.1556L15.5085 46.5728L15.8034 46.7835L16.1083 46.984L16.7241 47.3852L17.3519 47.7403L17.6749 47.9268L18.0058 48.0973L18.6758 48.4383C19.1351 48.6389 19.5885 48.8675 20.0679 49.0401C21.0236 49.4237 22.0048 49.7408 23.0044 49.9888L23.7647 50.1653C24.0194 50.2255 24.2782 50.2596 24.5349 50.3098C25.0484 50.4141 25.5719 50.4622 26.0935 50.5324C26.3542 50.5605 26.617 50.5745 26.8798 50.5966L27.2809 50.6267C27.4133 50.6267 27.5457 50.6267 27.6821 50.6387L28.4744 50.6588L29.2647 50.6387H29.6659L30.0671 50.6086L30.8574 50.5465C31.3789 50.4742 31.9045 50.4281 32.42 50.3238C33.4515 50.1468 34.4691 49.8961 35.4649 49.5736C36.4446 49.2555 37.4028 48.8743 38.3332 48.4323L39.0112 48.0853C39.1236 48.0271 39.2379 47.9709 39.3482 47.9108L39.6752 47.7222C39.8918 47.5958 40.1124 47.4755 40.3251 47.3451L40.9529 46.9439C41.1635 46.8156 41.3541 46.6691 41.5547 46.5267C41.7553 46.3843 41.9558 46.2479 42.1564 46.0995C42.5355 45.7966 42.9227 45.5097 43.2777 45.1888C43.9835 44.5818 44.6533 43.9342 45.2836 43.2491C46.4165 41.9827 47.4079 40.5965 48.2402 39.115C48.949 37.8596 49.5341 36.5382 49.9873 35.1695C50.342 34.1164 50.6143 33.0374 50.8017 31.9421C50.892 31.4888 50.9361 31.0775 50.9822 30.7225C51.0284 30.3675 51.0524 30.0626 51.0705 29.8159C51.0885 29.5691 51.1046 29.3786 51.1146 29.2522C51.1146 29.188 51.1146 29.1399 51.1146 29.1078V29.0576L50.4106 29.0195Z" fill="#673FFF"/>
<path d="M36.4599 48.1399L35.9504 47.825C35.7017 47.6706 35.4529 47.4961 35.4529 47.4981L35.1039 47.6144L34.7028 47.7508C34.5463 47.803 34.3678 47.8491 34.1732 47.9053C33.2261 48.1777 32.2599 48.3788 31.2828 48.507C30.3044 48.6414 29.3176 48.705 28.3301 48.6976C27.929 48.6855 27.59 48.6815 27.3533 48.6695L26.9862 48.6414C26.9862 48.6414 26.7575 48.9122 26.5148 49.181C26.2721 49.4498 26.0254 49.7085 26.0254 49.7085L26.1437 49.7206C26.222 49.7326 26.3443 49.7386 26.4827 49.7466L27.0103 49.7767L27.3332 49.7968H27.6943C28.9185 49.8216 30.1426 49.7411 31.353 49.5561C32.5563 49.3777 33.743 49.1013 34.9013 48.7297C35.3707 48.5612 35.7639 48.4288 36.0326 48.3285L36.4599 48.1399Z" fill="#673FFF"/>
<path d="M24.3934 49.28L24.3091 49.1136C24.259 49.0113 24.1928 48.8829 24.1306 48.7425L23.8899 48.1949L23.6352 48.1347C23.4807 48.1006 23.2761 48.0565 23.0775 47.9943L22.5239 47.8378L22.2732 47.7656C22.2732 47.7656 21.9904 47.9662 21.6955 48.1668C21.4006 48.3674 21.0938 48.568 21.0938 48.568L21.6052 48.7104C21.9081 48.8027 22.3233 48.8929 22.7345 48.9852L23.0414 49.0534L23.3423 49.1055L23.8719 49.1978C24.0283 49.2259 24.1567 49.246 24.249 49.256L24.3934 49.28Z" fill="#673FFF"/>
<path d="M37.2548 46.9886L37.2207 46.9104L37.3531 46.8502C37.4133 46.8262 37.5356 46.77 37.6981 46.6837L37.995 46.5313C38.2216 46.417 38.4804 46.2866 38.7291 46.1301L39.2707 45.8192L40.053 45.3177L40.1553 45.2495C40.1553 45.1011 40.1713 44.6478 40.1653 44.2165C40.1653 43.707 40.1272 43.1855 40.1252 43.1795V43.1574L40.3358 42.9909L40.4381 42.9107C40.5504 42.8245 40.6888 42.7101 40.8393 42.5817C41.3418 42.1571 41.8213 41.7058 42.2755 41.2298L42.6466 40.8427L42.9835 40.4415C43.1841 40.2168 43.3627 39.9922 43.5171 39.7936L43.7939 39.4426L44.1128 38.9933H44.494C44.6484 38.9933 44.837 38.9933 45.0536 38.9933C45.3605 38.9832 45.6794 38.9692 46.0004 38.9471L46.546 38.907L47.1016 38.8448C47.4707 38.7987 47.8458 38.7465 48.2168 38.6864C48.5879 38.6262 48.9049 38.554 49.1857 38.4858C49.4204 38.4356 49.655 38.3815 49.8817 38.3253C50.0061 38.2972 50.0823 38.2752 50.1244 38.2651L50.2909 37.896C50.315 37.8459 50.3391 37.7897 50.3671 37.7316C50.4714 37.5009 50.6018 37.2141 50.7302 36.8711C51.1524 35.8224 51.4977 34.7444 51.7632 33.6456C52.0288 32.5481 52.2184 31.4335 52.3309 30.3099L52.4131 29.1966L52.4251 28.7754H52.5094V29.1986L52.4251 30.3159C52.3139 31.4444 52.1235 32.5638 51.8555 33.6657C51.5892 34.7678 51.2433 35.8491 50.8205 36.9011C50.6901 37.2441 50.5597 37.533 50.4534 37.7637C50.4273 37.8238 50.4012 37.878 50.3792 37.9302L50.1966 38.3313H50.1766C50.1766 38.3313 50.0823 38.3594 49.9118 38.3995L49.2138 38.56C48.9329 38.6202 48.598 38.6904 48.2409 38.7606C47.8839 38.8308 47.4927 38.8749 47.1216 38.919L46.564 38.9812L46.0164 39.0233C45.6935 39.0434 45.3745 39.0595 45.0656 39.0675C44.849 39.0675 44.6645 39.0675 44.504 39.0675H44.165L43.8601 39.5148L43.5813 39.8678C43.4268 40.0684 43.2503 40.2931 43.0457 40.5197L42.6726 40.947L42.3357 41.302C41.879 41.7789 41.3976 42.2315 40.8934 42.658C40.743 42.7944 40.6026 42.9027 40.4923 42.9909L40.392 43.0692L40.2155 43.2096C40.2155 43.3159 40.2516 43.7752 40.2516 44.2266C40.2516 44.6779 40.2516 45.1472 40.2516 45.2796V45.3318H40.2215L40.1112 45.404L39.3269 45.9055L38.7833 46.2184C38.5345 46.3688 38.2738 46.5012 38.0451 46.6195C37.9388 46.6737 37.8445 46.7239 37.7503 46.772C37.6279 46.8362 37.5035 46.8964 37.3992 46.9405L37.2548 46.9886Z" fill="#673FFF"/>
<path d="M50.5907 36.4327L49.9629 36.1699C49.9629 36.1699 50.013 36.0495 50.0873 35.8449L50.3921 34.9403C50.4904 34.6254 50.6048 34.2242 50.7592 33.6545C50.7873 33.5302 50.8194 33.3877 50.8535 33.2534C50.9357 32.9003 51.022 32.5373 51.0782 32.1742C51.2527 31.2275 51.368 30.2709 51.4232 29.3098C51.4372 29.0551 51.4412 28.8244 51.4452 28.6318C51.4452 28.5316 51.4452 28.4313 51.4452 28.3591V28L52.1272 28.016V28.3811C52.1272 28.4614 52.1272 28.5496 52.1272 28.6459C52.1272 28.8465 52.1272 29.0852 52.1031 29.352C52.0476 30.3393 51.9297 31.3221 51.7501 32.2946C51.6919 32.6697 51.6037 33.0468 51.5174 33.4098C51.4833 33.5502 51.4512 33.6906 51.4212 33.827C51.2607 34.4288 51.1443 34.83 51.042 35.1609L50.7311 36.0796C50.6449 36.3063 50.5907 36.4327 50.5907 36.4327Z" fill="#673FFF"/>
<path d="M6.37095 36.4329C6.37095 36.4329 6.31679 36.3065 6.23255 36.0778L5.92164 35.1591C5.81533 34.8181 5.70099 34.4109 5.54253 33.8313L5.44424 33.4C5.35799 33.0369 5.26973 32.6598 5.20956 32.2727C5.03126 31.3062 4.91402 30.3294 4.85853 29.3481C4.84248 29.0774 4.83646 28.8407 4.83245 28.6421C4.83245 28.5418 4.83245 28.4535 4.83245 28.3773L4.81641 28.0082L5.4984 27.9922L5.50843 28.3573C5.50843 28.4315 5.50843 28.5237 5.50843 28.626C5.50843 28.8266 5.51846 29.0473 5.5325 29.306C5.5866 30.261 5.70049 31.2116 5.8735 32.1523C5.93367 32.5294 6.01792 32.8925 6.10216 33.2435C6.13426 33.388 6.16836 33.5304 6.19845 33.6688C6.35089 34.2244 6.46322 34.6256 6.56552 34.9485L6.87041 35.8512C6.94262 36.0517 6.99076 36.1661 6.99277 36.1701L6.37095 36.4329Z" fill="#673FFF"/>
<path d="M28.4832 54.5324L28.409 54.4521C28.409 54.4521 27.9898 53.9968 27.4341 53.3309C27.1292 52.9718 26.7882 52.5105 26.5235 52.1494C26.363 51.9267 26.2025 51.7021 26.0501 51.4774C25.8976 51.2528 25.7492 51.0141 25.5907 50.7593C25.2598 50.2278 24.989 49.7564 24.7884 49.3372C24.5878 48.918 24.3511 48.4747 24.1866 48.0795C23.9038 47.4256 23.7313 46.9642 23.6932 46.8599C23.639 46.8479 23.5769 46.8299 23.5107 46.8118L22.947 46.6513C22.4014 46.4929 21.6974 46.2502 20.9692 45.9473C20.0584 45.5575 19.1762 45.1037 18.3295 44.5893C17.36 43.9947 16.4451 43.3154 15.5955 42.5594C14.0011 41.1415 12.6464 39.4752 11.5838 37.6249C11.231 37.0176 10.9129 36.3908 10.631 35.7475C10.5568 35.595 10.5046 35.4586 10.4625 35.3463C10.4425 35.2921 10.4244 35.244 10.4064 35.2019L10.3382 35.0294L9.76247 34.8889L9.16071 34.7144L8.96013 34.1347C8.92603 34.0284 8.89393 33.9101 8.85983 33.7857C8.83777 33.7095 8.81571 33.6313 8.79164 33.551C8.76757 33.4708 8.76155 33.4407 8.7455 33.3866C8.69736 33.2221 8.64922 33.0516 8.61311 32.8771L8.45866 32.2031C8.42857 32.0647 8.4045 31.9343 8.38244 31.8019C8.3704 31.7317 8.36038 31.6655 8.34834 31.6013L8.27212 31.1821C8.26081 31.1271 8.25277 31.0715 8.24805 31.0156H8.33229C8.33714 31.0676 8.34518 31.1191 8.35636 31.1701L8.43058 31.5913C8.44262 31.6555 8.45465 31.7237 8.46669 31.7919C8.48875 31.9163 8.51082 32.0466 8.5409 32.183L8.69736 32.857C8.73146 33.0295 8.7796 33.198 8.82774 33.3605C8.84379 33.4166 8.85984 33.4708 8.87388 33.525C8.88792 33.5791 8.92001 33.6854 8.94208 33.7596C8.97618 33.884 9.00827 34.0003 9.04237 34.1047L9.2229 34.6422L9.78654 34.8047L10.4023 34.9551L10.4866 35.1678C10.5046 35.2099 10.5227 35.258 10.5448 35.3142C10.5849 35.4225 10.637 35.5569 10.7092 35.7154C10.9874 36.356 11.3008 36.9808 11.648 37.5868C12.7032 39.4289 14.0499 41.0878 15.6356 42.4992C16.4806 43.2504 17.3901 43.9256 18.3536 44.5171C19.1967 45.0287 20.0748 45.4805 20.9813 45.869C21.7074 46.1639 22.4074 46.4126 22.951 46.5691L23.5147 46.7296C23.5889 46.7516 23.6571 46.7697 23.7153 46.7817H23.7474V46.8078C23.7674 46.8599 23.9479 47.3393 24.2468 48.0394C24.4153 48.4406 24.638 48.8738 24.8486 49.293C25.0592 49.7123 25.328 50.1776 25.6509 50.7092C25.8094 50.9619 25.9618 51.2026 26.1083 51.4233C26.2547 51.6439 26.4212 51.8726 26.5816 52.0932C26.8424 52.4523 27.1834 52.9116 27.4883 53.2707C27.9877 53.8724 28.3729 54.2937 28.4471 54.3759H28.742L29.6306 54.3538C29.8893 54.3538 30.1802 54.3238 30.5171 54.2957L31.0106 54.2576C31.1851 54.2455 31.3656 54.2215 31.5562 54.1974L31.853 54.1593L32.0917 54.1292C32.3164 54.1011 32.5491 54.071 32.7858 54.0249C34.2664 53.7845 35.723 53.414 37.1385 52.9176C41.8233 51.2835 45.9536 48.364 49.0573 44.493L49.639 43.7488L50.3892 42.6857L50.8927 41.9035C51.0331 41.6888 51.1414 41.5023 51.2297 41.3438C51.2738 41.2656 51.3119 41.1954 51.348 41.1432L51.4945 40.8865C51.4624 40.7782 51.334 40.369 51.1174 39.8053C50.9749 39.4262 50.8285 39.0591 50.6841 38.7161C50.5036 38.315 50.315 37.9038 50.1224 37.5126C49.9299 37.1215 49.7012 36.7103 49.5046 36.3633C49.3081 36.0162 49.1155 35.6933 48.929 35.4105C48.5699 34.8609 48.3272 34.5239 48.3272 34.5219L48.3132 34.5038L48.4155 34.2009L48.6883 33.2361L48.8247 32.6524L48.9069 32.6725L48.7725 33.2582L48.4977 34.225L48.4054 34.4958C48.5218 34.6342 48.8166 35.0795 49.0072 35.3643C49.1977 35.6492 49.3863 35.9801 49.5849 36.3211C49.7835 36.6621 50.0081 37.0693 50.2047 37.4745C50.4013 37.8797 50.5878 38.2768 50.7683 38.678C50.9128 39.023 51.0592 39.3901 51.2036 39.7712C51.4323 40.373 51.5627 40.7942 51.5867 40.8724V40.8905V40.9085L51.4283 41.1833C51.3942 41.2415 51.354 41.3097 51.3119 41.3839C51.2237 41.5404 51.1113 41.733 50.9729 41.9496L50.4334 42.788L49.7153 43.801L49.1316 44.5452C46.0204 48.4314 41.876 51.3611 37.1746 52.9979C35.7547 53.4965 34.2934 53.8684 32.8078 54.1091C32.5711 54.1553 32.3365 54.1854 32.1098 54.2134L31.8731 54.2435L31.5762 54.2816C31.3757 54.3077 31.2011 54.3298 31.0246 54.3438L30.5312 54.3819C30.1942 54.408 29.9033 54.4321 29.6426 54.4381L28.752 54.4602H28.4792L28.4832 54.5324Z" fill="#673FFF"/>
<path d="M39.3957 50.2695L39.0808 50.1371C38.82 50.0207 38.5573 49.9004 38.3025 49.778L38.1942 49.7259C37.9094 49.5875 37.5924 49.429 37.2454 49.2405C36.8443 49.0238 36.4651 48.7972 36.09 48.5665C35.715 48.3358 35.3198 48.063 34.9948 47.8324L34.5154 47.4853L34.0942 47.1544C33.6529 46.7993 33.3541 46.5386 33.2818 46.4744C33.1274 46.5125 32.1987 46.7432 31.2599 46.8756L30.4997 46.9718C30.3493 46.9879 30.2048 46.9979 30.0684 47.0079L29.8318 47.024C29.5128 47.0561 29.2741 47.0601 29.2019 47.0601C29.1357 47.1664 29.0013 47.385 28.8509 47.6037L28.4497 48.1834L27.6955 48.1633C27.509 48.1633 27.3465 48.1633 27.186 48.1392L26.9413 48.1192C26.6324 48.0971 26.2854 48.0711 25.9223 48.0169C25.5593 47.9627 25.1501 47.9066 24.7649 47.8384L24.4881 47.7882C24.3337 47.7581 24.1812 47.722 24.0328 47.6879L23.766 47.6257L23.413 47.5435L23.072 47.4472L22.8173 47.375C22.6829 47.3369 22.5545 47.3008 22.4301 47.2627L21.8625 47.0621C21.6037 46.9799 21.3831 46.8916 21.2045 46.8214L21.022 46.7492L20.7051 46.6248L20.7352 46.5446L21.0521 46.669L21.2366 46.7412C21.4131 46.8114 21.6378 46.8996 21.8885 46.9799L22.4562 47.1804C22.5786 47.2186 22.7069 47.2547 22.8393 47.2928L23.0961 47.365L23.4351 47.4613L23.7841 47.5435C23.8743 47.5616 23.9626 47.5836 24.0529 47.6037C24.1993 47.6398 24.3517 47.6759 24.5022 47.704L24.781 47.7541C25.1641 47.8223 25.5613 47.8945 25.9324 47.9326C26.3034 47.9708 26.6404 48.0129 26.9473 48.0349L27.194 48.053C27.3525 48.069 27.511 48.0771 27.6975 48.0791L28.4056 48.0971L28.6062 47.7983L28.7707 47.5555C28.9231 47.3249 29.0715 47.0902 29.1277 47.0019L29.1397 46.9819H29.1678C29.1678 46.9819 29.4326 46.9819 29.8157 46.9478L30.0544 46.9297C30.1868 46.9297 30.3312 46.9097 30.4796 46.8956L31.2379 46.7973C32.2548 46.6489 33.2618 46.3962 33.2718 46.3962H33.2939L33.3119 46.4122C33.3119 46.4122 33.6309 46.697 34.1363 47.1042L34.5576 47.4332L35.035 47.7802C35.3579 48.0069 35.741 48.2736 36.1241 48.5103C36.5073 48.747 36.8864 48.9677 37.2775 49.1823C37.6145 49.3708 37.9375 49.5273 38.2223 49.6657L38.3306 49.7179C38.5833 49.8382 38.8441 49.9586 39.1049 50.0749L39.3837 50.1912C39.4619 50.1531 39.7949 49.9907 40.3144 49.7098L40.6012 49.5454C40.8319 49.415 41.0927 49.2665 41.3735 49.096L41.7345 48.8654C42.0435 48.6648 42.3644 48.4642 42.6954 48.2215C46.2815 45.6932 49.1326 42.2587 50.9575 38.2684C51.5119 37.0635 51.9641 35.8141 52.3095 34.5335C52.3917 34.2627 52.4519 34.0059 52.51 33.7311L52.6785 32.995L52.8932 31.7915L53.0276 30.7344H53.1118L52.9774 31.7955L52.7608 32.999L52.5923 33.7351C52.5281 34.022 52.4679 34.2787 52.3917 34.5495C52.0449 35.835 51.5907 37.0891 51.0337 38.2985C49.2037 42.302 46.3435 45.7477 42.7455 48.2837C42.4125 48.5304 42.0916 48.735 41.7807 48.9316C41.6543 49.0098 41.534 49.086 41.4176 49.1622C41.1348 49.3327 40.874 49.4832 40.6434 49.6136L40.3565 49.78C39.7548 50.093 39.4077 50.2695 39.4037 50.2715L39.3957 50.2695Z" fill="#673FFF"/>
<path d="M35.1836 50.2603C35.1836 50.2603 35.332 50.3646 35.5567 50.507C35.7813 50.6494 36.0862 50.838 36.3991 51.0225C37.027 51.4016 37.6869 51.7266 37.6869 51.7266L38.3208 51.4758C38.6337 51.3434 38.9446 51.199 38.9446 51.199L38.5234 51.0105L38.1021 50.8099L37.6207 50.5652C37.2978 50.3967 36.9829 50.2242 36.7502 50.0938C36.5175 49.9634 36.365 49.8691 36.365 49.8691L35.7753 50.0697L35.3742 50.2061L35.1836 50.2603Z" fill="#673FFF"/>
<path d="M33.1758 50.7671C33.1758 50.7671 33.7254 51.2064 34.3191 51.6356C34.616 51.8543 34.9209 52.0508 35.1496 52.2013L35.5387 52.448L35.7393 52.3898C35.8616 52.3537 36.0261 52.3116 36.1866 52.2554L36.8325 52.0368L36.4313 51.8081C36.1926 51.6677 35.8817 51.4912 35.5728 51.2906C34.955 50.8895 34.3833 50.4883 34.3833 50.4883C34.3833 50.4883 34.3091 50.5123 34.1948 50.5364L33.7775 50.6327L33.1758 50.7671Z" fill="#673FFF"/>
<path d="M31.1348 51.0866C31.1348 51.0866 31.6422 51.58 32.1979 52.0634C32.7535 52.5468 33.3372 52.9801 33.3372 52.9801L33.5478 52.942C33.6722 52.9199 33.8387 52.8778 34.0052 52.8417L34.6691 52.6872C34.6691 52.6872 34.0513 52.264 33.4796 51.8287C33.1928 51.6101 32.912 51.3734 32.7074 51.2029L32.3684 50.9141L32.1678 50.9482C32.0534 50.9702 31.899 50.9903 31.7445 51.0083L31.1348 51.0866Z" fill="#673FFF"/>
<path d="M29.0723 51.2282L29.3671 51.5672C29.5456 51.7678 29.7904 52.0386 30.0431 52.2913C30.5466 52.8068 31.0982 53.3163 31.0982 53.3163L31.7722 53.2321L32.2375 53.1719C32.3639 53.1578 32.4381 53.1398 32.4381 53.1398C32.4381 53.1398 32.2937 53.0275 32.0831 52.8429C31.8725 52.6584 31.5976 52.4197 31.3309 52.175C31.0641 51.9302 30.8073 51.6835 30.6168 51.487L30.3039 51.166L29.6841 51.2121L29.0723 51.2282Z" fill="#673FFF"/>
<path d="M27.002 51.1914L27.2647 51.5565C27.4252 51.7691 27.6458 52.0499 27.8765 52.3307C28.1072 52.6116 28.3419 52.8964 28.5264 53.103L28.8353 53.44L29.5153 53.4239C29.6838 53.4239 29.8543 53.4239 29.9807 53.4019L30.1933 53.3858L29.8663 53.0649C29.6657 52.8643 29.421 52.5975 29.1763 52.3287C28.9316 52.0599 28.6989 51.7892 28.5264 51.5866C28.3539 51.384 28.2436 51.2375 28.2436 51.2375L27.6218 51.2215C27.3109 51.2195 27.002 51.1914 27.002 51.1914Z" fill="#673FFF"/>
<path d="M48.2099 41.7228L47.6543 41.3216L47.8549 41.0288L48.2701 40.3809C48.4225 40.1502 48.5609 39.9075 48.6713 39.729L48.8518 39.4141L49.4536 39.7531L49.275 40.064C49.1667 40.2545 49.0223 40.5093 48.8578 40.754L48.4366 41.4099L48.2099 41.7228Z" fill="#673FFF"/>
<path d="M30.5703 46.9257L30.7809 46.5927L31.1821 46.5446C31.2824 46.5326 31.3827 46.5185 31.4529 46.5045L31.5752 46.4824L31.8721 46.7352L31.6715 47.0762L31.5452 47.1002C31.453 47.1185 31.3599 47.1319 31.2663 47.1403L30.8652 47.1925L30.5703 46.9257Z" fill="#673FFF"/>
<path d="M30.8133 47.3266L30.4121 46.9455L30.715 46.4741L31.1683 46.416C31.2559 46.4081 31.3429 46.3954 31.4291 46.3779L31.6136 46.3438L32.0389 46.7068L31.758 47.1922L31.5735 47.2263C31.5066 47.2397 31.4104 47.2537 31.2847 47.2685L30.8133 47.3266ZM30.7371 46.9034L30.9015 47.0578L31.2486 47.0137C31.3388 47.0054 31.4286 46.992 31.5173 46.9736L31.5896 46.9616L31.7039 46.761L31.5354 46.6165L31.4712 46.6266C31.407 46.6406 31.3147 46.6547 31.1924 46.6687L30.8594 46.7108L30.7371 46.9034Z" fill="#673FFF"/>
<path d="M42.5521 41.042L42.528 40.8414C42.516 40.7431 42.502 40.6408 42.502 40.6408L43.0275 40.0391H43.2281H43.4287L43.4688 40.2396C43.4888 40.3399 43.5029 40.4402 43.5029 40.4402L42.9613 41.0661H42.7607L42.5521 41.042Z" fill="#673FFF"/>
<path d="M43.0051 41.1897L42.4374 41.1636L42.3672 40.614L42.9689 39.918H43.2197H43.5226L43.5807 40.2188C43.6028 40.3191 43.6168 40.4194 43.6168 40.4194L43.6269 40.4776L43.0051 41.1897ZM42.6661 40.9189L42.8927 40.9289L43.3561 40.3954C43.3561 40.3593 43.34 40.3111 43.33 40.263L43.3119 40.1727H43.0853L42.636 40.6922L42.6661 40.9189Z" fill="#673FFF"/>
<path d="M41.2561 42.3239V42.1233C41.2561 42.0271 41.2461 41.9228 41.2461 41.9228L41.8278 41.3691L42.2169 41.3992L42.255 41.8004L41.6533 42.3721C41.6533 42.3721 41.557 42.362 41.4527 42.346L41.2561 42.3239Z" fill="#673FFF"/>
<path d="M41.6947 42.4999H41.6365C41.6365 42.4999 41.5363 42.4999 41.436 42.4738L41.1331 42.4297V42.1288C41.1331 42.0345 41.123 41.9382 41.123 41.9382V41.878L41.789 41.2422L42.3406 41.2843L42.3948 41.85L41.6947 42.4999ZM41.3798 42.203L41.4721 42.215L41.6024 42.2331L42.1139 41.7457L42.0919 41.517L41.8692 41.4989L41.3718 41.9723C41.3718 42.0124 41.3718 42.0646 41.3718 42.1147L41.3798 42.203Z" fill="#673FFF"/>
<path d="M37.083 47.469C36.999 47.4636 36.9184 47.434 36.8508 47.3838C36.7832 47.3337 36.7315 47.265 36.7019 47.1862C36.6702 47.1423 36.6487 47.092 36.6389 47.0388C36.6291 46.9855 36.6312 46.9308 36.6451 46.8785C36.659 46.8262 36.6844 46.7777 36.7194 46.7364C36.7544 46.6951 36.7981 46.6622 36.8474 46.6399C36.8967 46.6176 36.9504 46.6065 37.0045 46.6075C37.0586 46.6085 37.1118 46.6215 37.1603 46.6455C37.2087 46.6696 37.2512 46.7041 37.2847 46.7466C37.3182 46.7892 37.3418 46.8386 37.3538 46.8913C37.3817 46.9476 37.3982 47.0088 37.4024 47.0715C37.4065 47.1341 37.3982 47.197 37.3779 47.2564C37.3637 47.2972 37.3415 47.3347 37.3125 47.3668C37.2836 47.3988 37.2485 47.4247 37.2094 47.443C37.1697 47.4608 37.1265 47.4697 37.083 47.469ZM36.9707 46.8673C36.9165 46.8873 36.8925 46.9776 36.9366 47.0819C36.9807 47.1862 37.061 47.2263 37.1051 47.2063C37.1133 47.2019 37.1206 47.196 37.1265 47.1887C37.1324 47.1815 37.1367 47.1731 37.1392 47.1641C37.1543 47.1085 37.1486 47.0494 37.1231 46.9977C37.1111 46.9648 37.0907 46.9357 37.064 46.9132C37.0373 46.8907 37.0051 46.8755 36.9707 46.8693V46.8673Z" fill="#673FFF"/>
<path d="M6.54781 26.9812C6.54781 26.9812 6.54781 26.9471 6.54781 26.8849C6.54781 26.8227 6.55984 26.7305 6.56787 26.6141C6.58793 26.3815 6.60598 26.0465 6.6461 25.6473C6.67217 25.4467 6.70025 25.2341 6.72834 25.0054C6.74238 24.8911 6.75842 24.7748 6.77246 24.6544C6.78651 24.5341 6.81659 24.4137 6.83866 24.2913C6.88279 24.0446 6.92892 23.7899 6.97706 23.5311C7.0252 23.2724 7.09541 23.0136 7.15558 22.7528C7.38852 21.7975 7.68676 20.8592 8.04819 19.9446L8.24878 19.4372L8.42128 19.056L8.57373 18.7211L8.79839 18.6709C8.93278 18.6388 9.11531 18.6027 9.29985 18.5706C9.67094 18.5064 10.026 18.4543 10.026 18.4543L10.1203 18.2738C10.1744 18.1574 10.2667 17.9969 10.379 17.8044C10.4913 17.6118 10.6137 17.3852 10.7601 17.1505L11.2295 16.4143L11.731 15.7063C11.8894 15.4776 12.0599 15.281 12.1943 15.1045C12.4631 14.7515 12.6637 14.5328 12.6637 14.5328L12.5754 14.1316L12.4912 13.7305C12.4912 13.7305 12.6135 13.582 12.8663 13.3293L13.3236 12.8499L13.9795 12.2361C15.3498 10.9737 16.8784 9.89489 18.5268 9.02673C20.858 7.79801 23.3982 7.01567 26.0167 6.71998C30.3491 6.22064 34.7308 7.05546 38.576 9.11287C42.4213 11.1703 45.5471 14.3523 47.5356 18.2336C47.8104 18.7431 48.0251 19.2526 48.2397 19.732C48.4543 20.2114 48.6228 20.6828 48.7632 21.1361C49.0236 21.9005 49.2393 22.6795 49.4091 23.4689C49.4913 23.7939 49.5274 24.0948 49.5776 24.3495C49.6017 24.4799 49.6237 24.5982 49.6418 24.7066C49.6598 24.8149 49.6699 24.9071 49.6819 25.0054C49.728 25.3645 49.7521 25.555 49.7521 25.555L50.9937 25.4126C50.9937 25.4126 50.9596 25.1519 50.8974 24.6604C50.8353 24.169 50.6969 23.4569 50.4822 22.5583C49.8705 20.0753 48.8401 17.7147 47.4353 15.5779L47.2729 15.3251L47.0983 15.0804L46.7433 14.581C46.5026 14.248 46.2338 13.925 45.9731 13.578C45.4073 12.9008 44.8046 12.2553 44.1678 11.6444C43.4966 11.0013 42.788 10.3984 42.0456 9.8391L41.4639 9.4279L41.169 9.22731L40.8641 9.02673L40.2463 8.62555L39.6064 8.25647L39.2835 8.07194L38.9525 7.90144L38.2826 7.55843C37.8212 7.35785 37.3679 7.12918 36.8905 6.95667C35.935 6.57172 34.9537 6.25402 33.9539 6.0059L33.1937 5.83139C32.939 5.7692 32.6802 5.7351 32.4234 5.68496C31.9099 5.58065 31.3864 5.53251 30.8649 5.46231C30.6041 5.43422 30.3414 5.42018 30.0786 5.39812L29.6774 5.36803C29.547 5.36803 29.4147 5.36803 29.2762 5.356L28.4859 5.33594L27.6836 5.356L27.2824 5.36603L26.8812 5.39611L26.0929 5.45629C25.5714 5.5285 25.0439 5.57464 24.5284 5.67894C23.5086 5.85449 22.5025 6.10183 21.5176 6.4191C20.5383 6.73917 19.5808 7.12243 18.6512 7.56646L17.9732 7.91347C17.8609 7.97164 17.7465 8.02781 17.6362 8.08798L17.3093 8.27653C17.0926 8.4029 16.872 8.52325 16.6594 8.65364L16.0315 9.05481C15.8309 9.18318 15.6304 9.32961 15.4298 9.47203C15.2292 9.61444 15.0286 9.75084 14.828 9.90128C14.4469 10.2042 14.0598 10.489 13.7067 10.8099C13.0004 11.4171 12.3306 12.0654 11.7009 12.7516C10.5584 14.0186 9.55819 15.4069 8.71815 16.8917C8.00994 18.1478 7.42421 19.469 6.96904 20.8372C6.61614 21.8929 6.3439 22.9738 6.15466 24.0707C6.0664 24.524 6.02227 24.9352 5.97614 25.2903C5.93 25.6453 5.90393 25.9502 5.88587 26.1969C5.86782 26.4436 5.85378 26.6342 5.84375 26.7606C5.84375 26.8248 5.84375 26.8729 5.84375 26.905V26.9551L6.54781 26.9812Z" fill="#673FFF"/>
<path d="M20.498 7.85321L21.0075 8.16813C21.2583 8.32459 21.505 8.49709 21.505 8.49709L21.856 8.37875L22.2572 8.24235C22.4136 8.1902 22.5922 8.14607 22.7847 8.0899C23.7326 7.81763 24.6994 7.61648 25.6772 7.48814C26.6554 7.35138 27.6421 7.28435 28.6298 7.28756C29.031 7.29959 29.37 7.3036 29.6047 7.31564L29.9737 7.34372C29.9737 7.34372 30.2024 7.07293 30.4431 6.80414C30.6838 6.53536 30.9346 6.2766 30.9346 6.2766L30.8162 6.26457C30.738 6.25253 30.6156 6.24651 30.4772 6.23849L29.9497 6.21843L29.6247 6.19837H29.2657C28.0415 6.17169 26.8173 6.25155 25.607 6.43707C24.4008 6.62005 23.2115 6.90045 22.0506 7.27552C21.5832 7.44402 21.1901 7.5764 20.9193 7.6767L20.498 7.85321Z" fill="#673FFF"/>
<path d="M32.5645 6.7207L32.6487 6.88719C32.6968 6.98949 32.763 7.11786 32.8252 7.25827C32.9476 7.53308 33.0679 7.80788 33.0679 7.80788L33.3227 7.86605C33.4751 7.90015 33.6797 7.94428 33.8803 8.00646L34.4319 8.16292C34.5844 8.20504 34.6826 8.23714 34.6826 8.23714C34.6826 8.23714 34.9655 8.03655 35.2623 7.83596C35.5592 7.63538 35.8641 7.43479 35.8641 7.43479L35.3546 7.29237C35.0517 7.2001 34.6365 7.10984 34.2253 7.01958L33.9184 6.94937L33.6175 6.89722L33.086 6.80495C32.9315 6.77687 32.8011 6.75681 32.7089 6.74879L32.5645 6.7207Z" fill="#673FFF"/>
<path d="M4.53547 27.197H4.44922L4.46125 26.7737L4.5455 25.6585C4.6563 24.5299 4.84666 23.4105 5.11517 22.3087C5.38023 21.2056 5.72617 20.1235 6.15019 19.0712C6.27857 18.7282 6.41095 18.4394 6.51726 18.2067L6.59148 18.0422L6.76198 17.6671C6.76198 17.635 6.79006 17.629 7.05885 17.5648C7.28551 17.5107 7.5222 17.4565 7.75689 17.4064C8.03771 17.3462 8.37269 17.276 8.72973 17.2058C9.08677 17.1356 9.47792 17.0914 9.849 17.0453L10.4046 16.9831L10.9522 16.941C11.2772 16.9209 11.5961 16.9049 11.903 16.8969C12.1216 16.8969 12.3042 16.8969 12.4667 16.8969H12.8036L13.0985 16.4837L13.3773 16.1306C13.5318 15.93 13.7083 15.7054 13.9129 15.4787L14.284 15.0515L14.623 14.6984C15.0785 14.2205 15.5593 13.7672 16.0632 13.3405C16.2136 13.2041 16.354 13.0958 16.4643 13.0075L16.5646 12.9293L16.7411 12.7889C16.7411 12.6846 16.703 12.2232 16.703 11.7719C16.703 11.2564 16.703 10.7188 16.703 10.7128V10.6506L16.7411 10.6707C16.7612 10.6546 16.7953 10.6326 16.8434 10.6025L17.6257 10.101L18.1693 9.7901C18.4201 9.63765 18.6788 9.50727 18.9095 9.38893L19.2044 9.23849C19.3267 9.17229 19.4511 9.11212 19.5534 9.06799L19.6858 9.00781L19.7219 9.08604L19.5875 9.14622C19.5293 9.17029 19.4069 9.22645 19.2445 9.3127L18.9476 9.46515C18.7189 9.57948 18.4602 9.70986 18.2135 9.86632L17.6719 10.1792L16.8896 10.6787C16.8542 10.6995 16.8201 10.7222 16.7873 10.7469C16.7873 10.8512 16.7712 11.3246 16.7873 11.7799C16.7873 12.2894 16.8254 12.8109 16.8254 12.8169V12.837L16.6148 13.0035L16.5125 13.0837C16.4002 13.17 16.2617 13.2843 16.1113 13.4127C15.6095 13.8374 15.1307 14.2887 14.6771 14.7646L14.306 15.1518L13.969 15.5529C13.7685 15.7796 13.5899 16.0023 13.4355 16.2008L13.1587 16.5519L12.8478 16.9891H12.4646C12.3122 16.9891 12.1216 16.9891 11.907 16.9891C11.6001 16.9891 11.2812 17.0112 10.9582 17.0333L10.4127 17.0734L9.85903 17.1356C9.48795 17.1817 9.11285 17.2339 8.74377 17.294C8.37469 17.3542 8.05376 17.4264 7.77494 17.4946C7.54025 17.5448 7.30557 17.5989 7.0769 17.6551C6.95254 17.6832 6.87631 17.7052 6.8362 17.7153L6.6677 18.0843C6.64564 18.1345 6.62157 18.1886 6.59349 18.2488C6.48918 18.4795 6.3588 18.7663 6.23043 19.1093C5.8076 20.1577 5.46233 21.2358 5.19741 22.3348C4.93072 23.4328 4.74104 24.5481 4.62975 25.6725L4.5455 26.7838L4.53547 27.197Z" fill="#673FFF"/>
<path d="M5.4984 28.0071L4.81641 27.991L4.82644 27.626C4.82644 27.5457 4.82644 27.4575 4.82644 27.3592C4.82644 27.1586 4.83646 26.9219 4.85051 26.6551C4.91184 25.6683 5.03444 24.6862 5.21758 23.7145C5.27575 23.3394 5.36401 22.9623 5.45026 22.5993L5.54654 22.1821C5.70701 21.5803 5.82134 21.1791 5.92565 20.8482L6.23656 19.9295C6.32281 19.6948 6.37697 19.5664 6.37697 19.5664L7.0048 19.8292C7.0048 19.8292 6.95466 19.9515 6.88044 20.1541L6.56752 21.0608C6.46924 21.3777 6.36694 21.7769 6.20246 22.3485C6.17438 22.4729 6.14028 22.6133 6.10818 22.7497C6.02394 23.1007 5.93969 23.4638 5.88353 23.8269C5.70771 24.7754 5.59247 25.7341 5.53852 26.6972C5.52448 26.952 5.51846 27.1807 5.51445 27.3732C5.51445 27.4755 5.51445 27.5738 5.51445 27.648L5.4984 28.0071Z" fill="#673FFF"/>
<path d="M51.4628 28.0071V27.644C51.4628 27.5678 51.4628 27.4775 51.4628 27.3752C51.4628 27.1746 51.4628 26.952 51.4407 26.6932C51.3857 25.7383 51.2711 24.7876 51.0977 23.8469C51.0396 23.4698 50.9533 23.1068 50.8711 22.7557C50.837 22.6113 50.8049 22.4689 50.7728 22.3305C50.6223 21.7749 50.508 21.3757 50.4077 21.0507L50.1028 20.1481C50.0306 19.9475 49.9805 19.8332 49.9805 19.8292L50.6083 19.5664C50.6083 19.5664 50.6625 19.6948 50.7447 19.9214L51.0556 20.8401C51.1619 21.1811 51.2783 21.5883 51.4347 22.168C51.4688 22.3184 51.5009 22.4589 51.535 22.5993C51.6213 22.9623 51.7095 23.3394 51.7697 23.7286C51.948 24.6944 52.0652 25.6705 52.1207 26.6511C52.1368 26.9239 52.1408 27.1626 52.1448 27.3612C52.1448 27.4595 52.1448 27.5457 52.1448 27.622V27.991L51.4628 28.0071Z" fill="#673FFF"/>
<path d="M48.6298 24.9816C48.6249 24.9297 48.6169 24.8781 48.6057 24.8271L48.5295 24.4059C48.5174 24.3437 48.5074 24.2755 48.4954 24.2053C48.4733 24.0789 48.4512 23.9486 48.4211 23.8041L48.2647 23.1302C48.2286 22.9577 48.1804 22.7892 48.1343 22.6267L48.0862 22.4622C48.0634 22.382 48.0414 22.3038 48.02 22.2275C47.9859 22.1032 47.9538 21.9868 47.9197 21.8825L47.7371 21.345L47.1755 21.1825L46.5597 21.032L46.4755 20.8194C46.4574 20.7773 46.4373 20.7292 46.4173 20.673C46.3752 20.5647 46.325 20.4303 46.2528 20.2718C45.9739 19.6312 45.6599 19.0064 45.3121 18.4003C44.2541 16.5632 42.9054 14.9096 41.3184 13.504C40.4734 12.7509 39.5632 12.0742 38.5984 11.4821C37.7544 10.9709 36.8757 10.5191 35.9687 10.1302C35.327 9.86336 34.6723 9.62905 34.007 9.42812L33.4414 9.26765C33.3691 9.24559 33.2989 9.22754 33.2408 9.21751H33.2067V9.19143C33.1886 9.13928 33.0061 8.65988 32.7092 7.95983C32.5387 7.55866 32.308 7.12539 32.1075 6.70817C31.9069 6.29095 31.6281 5.82158 31.3051 5.29203C31.1487 5.03729 30.9962 4.79658 30.8498 4.57594C30.7034 4.35529 30.5369 4.12663 30.3764 3.90598C30.1136 3.54693 29.7746 3.08759 29.4697 2.72854C28.9703 2.12678 28.5832 1.70555 28.5109 1.62531H28.2161L27.3255 1.64939C27.0667 1.64939 26.7739 1.67947 26.4369 1.70555L25.9475 1.74366C25.7729 1.7557 25.5904 1.77977 25.3999 1.80384L25.103 1.84195L24.8663 1.87204C24.6416 1.90012 24.409 1.93021 24.1723 1.97634C22.691 2.21693 21.2338 2.58744 19.8175 3.08358C15.1327 4.71649 11.0026 7.63623 7.9007 11.5082L7.319 12.2524L6.5668 13.3155L6.06533 14.0998C5.92492 14.3124 5.81661 14.5009 5.72835 14.6594C5.68422 14.7356 5.64611 14.8058 5.61 14.86L5.46157 15.1167C5.49567 15.2251 5.62404 15.6343 5.84068 16.1979C5.98109 16.575 6.12752 16.9421 6.27394 17.2871C6.45247 17.6883 6.64302 18.0894 6.83558 18.4906C7.02815 18.8918 7.25682 19.293 7.45139 19.64C7.64595 19.987 7.85256 20.3099 8.02707 20.5928C8.38211 21.1343 8.62883 21.4793 8.62883 21.4814L8.64287 21.4994L8.54057 21.8023L8.26577 22.7671L8.13137 23.3508L8.04713 23.3328L8.18353 22.745L8.45833 21.7782L8.54659 21.5134C8.49243 21.4372 8.26175 21.1123 7.94483 20.6389C7.75828 20.3561 7.56371 20.0251 7.36513 19.6821C7.16655 19.3391 6.9439 18.9339 6.74733 18.5287C6.55075 18.1235 6.36421 17.7264 6.18368 17.3252C6.03725 16.9782 5.89082 16.6111 5.74841 16.234C5.51974 15.6323 5.38735 15.209 5.36328 15.1308V15.1127V15.0947L5.51974 14.8219C5.55584 14.7617 5.59396 14.6935 5.63808 14.6213C5.72634 14.4648 5.83867 14.2723 5.97708 14.0556L6.51665 13.2172L7.23475 12.2143L7.82046 11.454C9.84247 8.9317 12.3088 6.8005 15.0977 5.16566C16.5854 4.29673 18.154 3.57456 19.7814 3.00936C21.2015 2.50943 22.6627 2.1349 24.1482 1.89009C24.3869 1.84395 24.6216 1.81387 24.8482 1.78578L25.0849 1.7557L25.3798 1.71758C25.5804 1.69351 25.7549 1.66944 25.9334 1.6554L26.4208 1.6193C26.7598 1.59121 27.0547 1.56915 27.3155 1.56113L28.2061 1.53906C28.4066 1.53906 28.521 1.53906 28.521 1.53906H28.539L28.5531 1.5531C28.5531 1.5531 28.9723 2.00843 29.5259 2.67438C29.8328 3.03544 30.1738 3.49478 30.4366 3.85583C30.599 4.07849 30.7575 4.30314 30.912 4.5278C31.0664 4.75245 31.2128 4.99115 31.3713 5.2459C31.7003 5.77946 31.9731 6.24883 32.1737 6.66805C32.3742 7.08728 32.6129 7.52857 32.7754 7.92573C33.0582 8.58165 33.2307 9.04099 33.2689 9.14529C33.321 9.15733 33.3852 9.17538 33.4494 9.19544L34.015 9.35591C34.6857 9.55631 35.3459 9.79063 35.9928 10.058C36.9033 10.4485 37.7854 10.9023 38.6325 11.4159C39.6073 12.0078 40.5276 12.6851 41.3826 13.4398C42.9782 14.8573 44.3331 16.5245 45.3943 18.3763C45.7433 18.9855 46.0567 19.6144 46.333 20.2598C46.4073 20.4122 46.4594 20.5486 46.5015 20.661C46.5216 20.7151 46.5396 20.7633 46.5577 20.8054L46.6259 20.9779L47.2016 21.1183L47.8033 21.2948L48.0039 21.8745C48.036 21.9808 48.0701 22.0972 48.1042 22.2215C48.1269 22.2977 48.149 22.376 48.1704 22.4562L48.2186 22.6227C48.2647 22.7852 48.3148 22.9557 48.3489 23.1302L48.5054 23.8041C48.5355 23.9425 48.5595 24.0749 48.5796 24.2053C48.5916 24.2762 48.6037 24.3431 48.6157 24.4059L48.6919 24.8251C48.7032 24.8801 48.7113 24.9357 48.716 24.9916L48.6298 24.9816Z" fill="#673FFF"/>
<path d="M3.91432 25.2914H3.83008L3.96648 24.2303L4.1811 23.0268L4.3516 22.2907C4.41579 22.0058 4.47597 21.7471 4.55219 21.4763C4.89915 20.1918 5.35271 18.9384 5.90815 17.7293C7.7382 13.7186 10.6014 10.2664 14.2044 7.72609C14.5354 7.47937 14.8583 7.27678 15.1692 7.0782C15.2936 6.99997 15.4159 6.92375 15.5303 6.84752C15.8131 6.67702 16.0739 6.52659 16.3045 6.3962L16.5934 6.23172C17.1951 5.9168 17.5422 5.74029 17.5462 5.73828H17.5622L17.8791 5.87067C18.1359 5.97698 18.3987 6.09733 18.6534 6.21768L18.7597 6.26983C19.0466 6.40824 19.3615 6.5667 19.7105 6.75525C20.0996 6.97189 20.4888 7.19855 20.8659 7.42922C21.243 7.6599 21.6361 7.9347 21.9611 8.16337L22.4405 8.51038L22.8657 8.84536C23.307 9.2004 23.6059 9.46116 23.6681 9.52535C23.8205 9.48724 24.7512 9.25657 25.69 9.12418L26.4482 9.02589C26.6006 9.01185 26.7451 8.99981 26.8795 8.99179L27.1161 8.97374C27.4371 8.94164 27.6738 8.93763 27.748 8.93763C27.8142 8.83132 27.9486 8.61268 28.099 8.39404L28.5002 7.81435L29.2544 7.83441C29.4409 7.83441 29.6034 7.84444 29.7619 7.86048L30.0086 7.87854C30.3155 7.9006 30.6645 7.92668 31.0276 7.98084C31.3906 8.03499 31.7978 8.09116 32.183 8.15936L32.4618 8.2095C32.6142 8.23959 32.7687 8.2757 32.9151 8.3098L33.1839 8.37198L33.5349 8.45422L33.8779 8.55251L34.1327 8.62472C34.265 8.66082 34.3954 8.69693 34.5198 8.73504L35.0874 8.93563C35.3462 9.01787 35.5669 9.10612 35.7454 9.17834L35.9279 9.25055L36.2448 9.37491L36.2127 9.45314L35.9038 9.31674L35.7193 9.24453C35.5428 9.17432 35.3181 9.08607 35.0674 9.00583L34.4997 8.80525C34.3774 8.76713 34.249 8.73103 34.1166 8.69492L33.8599 8.62472L33.5209 8.52844L33.1698 8.4482L32.895 8.39003C32.7466 8.35393 32.5962 8.31983 32.4437 8.28974L32.1669 8.23959C31.7818 8.17139 31.3866 8.09918 31.0135 8.06107C30.6404 8.02296 30.3055 7.98084 30.0106 7.95877L29.7639 7.94072C29.6054 7.92467 29.445 7.91665 29.2604 7.91464L28.5503 7.89659L28.1813 8.43817C28.0268 8.66885 27.8804 8.90353 27.8242 8.99179L27.8102 9.01185H27.7841C27.5677 9.01198 27.3514 9.02336 27.1362 9.04595L26.8975 9.064C26.7631 9.07403 26.6207 9.08406 26.4703 9.10011L25.712 9.19639C24.6971 9.34482 23.6881 9.59756 23.6781 9.59756H23.656L23.64 9.58151C23.64 9.58151 23.319 9.29668 22.8136 8.8915L22.3943 8.56053L21.9169 8.21352C21.594 7.98685 21.2109 7.72007 20.8258 7.48338C20.4406 7.24669 20.0635 7.02805 19.6744 6.81142C19.3374 6.62487 19.0145 6.46641 18.7296 6.328L18.6213 6.27786C18.3646 6.15349 18.1038 6.03314 17.8471 5.91881L17.5662 5.81651C17.488 5.85462 17.1651 6.0171 16.6355 6.29792L16.3467 6.4624C16.118 6.59278 15.8572 6.74121 15.5764 6.91171L15.2154 7.14239C14.9045 7.34297 14.5835 7.54356 14.2546 7.78627C10.6673 10.3167 7.81614 13.7542 5.9924 17.7474C5.43768 18.9531 4.98478 20.2031 4.63844 21.4843C4.55821 21.7531 4.49803 22.0098 4.43785 22.2867L4.26936 23.0228L4.05473 24.2263L3.91432 25.2914Z" fill="#673FFF"/>
<path d="M21.7805 5.74173C21.7805 5.74173 21.6321 5.63742 21.4074 5.493C21.1828 5.34858 20.8779 5.16203 20.563 4.9775C19.9351 4.59839 19.2772 4.27344 19.2772 4.27344L18.6434 4.52417C18.3284 4.65856 18.0195 4.80098 18.0195 4.80098L18.4388 4.98953L18.862 5.19012L19.3414 5.43483C19.6663 5.60333 19.9813 5.77583 20.2119 5.90621C20.4426 6.03659 20.5991 6.13287 20.5991 6.13087L21.1868 5.93028L21.588 5.79388L21.7805 5.74173Z" fill="#673FFF"/>
<path d="M23.7837 5.23169C23.7837 5.23169 23.2341 4.79241 22.6404 4.36316C22.3415 4.14452 22.0386 3.94794 21.8099 3.7975L21.4208 3.55078L21.2202 3.60895C21.0978 3.64506 20.9314 3.68718 20.7709 3.74334L20.125 3.96198L20.5262 4.19065C20.7649 4.33106 21.0758 4.50758 21.3827 4.70816C22.0005 5.10934 22.5722 5.51051 22.5722 5.51051C22.5722 5.51051 22.6464 5.48644 22.7607 5.46237L23.1779 5.36609L23.7837 5.23169Z" fill="#673FFF"/>
<path d="M25.827 4.91307C25.827 4.91307 25.3196 4.41962 24.7659 3.93621C24.2123 3.4528 23.6246 3.01953 23.6246 3.01953L23.424 3.05764C23.2976 3.07971 23.1332 3.12183 22.9667 3.15994L22.3027 3.31239C22.3027 3.31239 22.9185 3.73562 23.4902 4.1709C23.779 4.38954 24.0599 4.62623 24.2645 4.79673L24.6035 5.08758L24.804 5.05348C24.9184 5.02941 25.0728 5.00935 25.2273 4.99129L25.827 4.91307Z" fill="#673FFF"/>
<path d="M27.8837 4.7717L27.5888 4.43471C27.4083 4.23413 27.1656 3.96133 26.9128 3.70859C26.4094 3.19308 25.8578 2.68359 25.8578 2.68359L25.1818 2.76784L24.7184 2.82802C24.5901 2.84206 24.5078 2.86011 24.5078 2.86011C24.5078 2.86011 24.6502 2.97444 24.8608 3.15698C25.0715 3.33951 25.3483 3.58222 25.615 3.82493C25.8818 4.06764 26.1386 4.31637 26.3291 4.51294L26.64 4.83388L27.2619 4.78774L27.8837 4.7717Z" fill="#673FFF"/>
<path d="M29.9569 4.81514L29.6881 4.44405C29.5276 4.24347 29.307 3.95061 29.0864 3.66979C28.8657 3.38897 28.619 3.10414 28.4365 2.89753L28.1276 2.56055L27.4476 2.57659C27.2771 2.57659 27.1086 2.58662 26.9802 2.59866L26.7676 2.61471L27.0945 2.93564C27.2951 3.13623 27.5418 3.40501 27.7845 3.67179C28.0273 3.93857 28.264 4.21137 28.4345 4.41396C28.6049 4.61656 28.7173 4.76298 28.7173 4.76298L29.3391 4.77903C29.646 4.78104 29.9569 4.81514 29.9569 4.81514Z" fill="#673FFF"/>
<path d="M8.10762 16.5722L7.50586 16.2332L7.68238 15.9243C7.79069 15.7237 7.93712 15.477 8.1016 15.2323L8.52083 14.5764L8.73545 14.2715L9.29308 14.6727L9.0925 14.9635L8.6813 15.6054C8.52885 15.8361 8.38844 16.0788 8.28012 16.2573L8.10762 16.5722Z" fill="#673FFF"/>
<path d="M26.3897 9.07537L26.1771 9.40835L25.7759 9.45849C25.6776 9.46852 25.5753 9.48256 25.5071 9.4966L25.3848 9.52068L25.0879 9.26593L25.2885 8.92493L25.4148 8.90086C25.4911 8.88482 25.5934 8.87278 25.6957 8.86075L26.0968 8.80859L26.3897 9.07537Z" fill="#673FFF"/>
<path d="M25.351 9.6567L24.9277 9.29364L25.2086 8.80822L25.3931 8.77613C25.4593 8.76209 25.5536 8.74804 25.6799 8.732L26.1453 8.67383L26.5465 9.05494L26.2456 9.52632L25.7903 9.58449C25.7033 9.59218 25.6169 9.60491 25.5315 9.6226L25.351 9.6567ZM25.2567 9.23748L25.4252 9.3819L25.4874 9.37187C25.5516 9.35783 25.6438 9.34379 25.7662 9.32974L26.1012 9.28762L26.2235 9.09706L26.059 8.94261L25.71 8.98674C25.6117 8.99878 25.5094 9.01081 25.4412 9.02686L25.371 9.0389L25.2567 9.23748Z" fill="#673FFF"/>
<path d="M14.4097 14.9577L14.4338 15.1583L14.4619 15.3589L13.9363 15.9606C13.9363 15.9606 13.836 15.9606 13.7357 15.9606H13.5352C13.5352 15.9606 13.5171 15.8644 13.497 15.7601C13.477 15.6558 13.4609 15.5595 13.4609 15.5595L14.0045 14.9316H14.2051L14.4097 14.9577Z" fill="#673FFF"/>
<path d="M13.4381 16.0864L13.3779 15.7855C13.3578 15.6852 13.3418 15.5849 13.3418 15.5849V15.5247L13.9616 14.8066L14.5212 14.8427L14.5935 15.3924L13.9917 16.0884H13.741L13.4381 16.0864ZM13.6046 15.605C13.6046 15.6391 13.6186 15.6872 13.6286 15.7354L13.6467 15.8256H13.8754L14.3247 15.3061L14.2946 15.0814L14.0679 15.0714L13.6046 15.605Z" fill="#673FFF"/>
<path d="M15.7042 13.6868V13.8874C15.7042 13.9837 15.7042 14.088 15.7042 14.088L15.1225 14.6416L14.7354 14.6115L14.6973 14.2103L15.299 13.6387C15.299 13.6387 15.3953 13.6387 15.4996 13.6627L15.7042 13.6868Z" fill="#673FFF"/>
<path d="M15.1837 14.7637L14.6421 14.7216L14.5859 14.1559L15.2639 13.5H15.3221C15.3221 13.5 15.4224 13.5 15.5227 13.5261L15.8256 13.5702V13.8731C15.8256 13.9654 15.8256 14.0616 15.8256 14.0616V14.1238L15.1837 14.7637ZM14.8648 14.4829L15.0894 14.5009L15.5869 14.0275C15.5869 13.9874 15.5869 13.9353 15.5869 13.8851V13.7989L15.4966 13.7848L15.3642 13.7668L14.8427 14.2542L14.8648 14.4829Z" fill="#673FFF"/>
<path d="M19.9886 9.38659C19.9051 9.3802 19.8251 9.35074 19.7575 9.3015C19.6898 9.25227 19.6372 9.18519 19.6054 9.10777C19.5501 8.99388 19.5415 8.86288 19.5814 8.74271C19.5959 8.70235 19.6182 8.66527 19.6472 8.63359C19.6761 8.60192 19.711 8.57629 19.7499 8.55817C19.8509 8.53508 19.9568 8.54763 20.0497 8.5937C20.1425 8.63977 20.2166 8.71653 20.2593 8.81096C20.302 8.90539 20.3108 9.01169 20.2841 9.11184C20.2574 9.212 20.197 9.29985 20.1129 9.36051C20.0739 9.37814 20.0314 9.38704 19.9886 9.38659ZM19.8782 8.78483C19.871 8.78277 19.8634 8.78277 19.8562 8.78483C19.8477 8.78882 19.8402 8.79469 19.8343 8.80198C19.8284 8.80928 19.8242 8.81781 19.8221 8.82695C19.8058 8.88244 19.8115 8.94208 19.8381 8.99344C19.8843 9.09173 19.9665 9.13987 20.0066 9.12181C20.0467 9.10376 20.0688 9.0135 20.0227 8.90919C20.0105 8.87849 19.991 8.85125 19.9658 8.82991C19.9406 8.80856 19.9105 8.79377 19.8782 8.78684V8.78483Z" fill="#673FFF"/>
<path d="M4.11559 42.8406L3.76456 42.2549C3.70037 42.1546 3.64421 42.0543 3.59406 41.9581L3.43359 41.6592L4.44856 41.1016L4.60502 41.3924C4.65316 41.4807 4.70531 41.579 4.76549 41.6752L5.10448 42.2389L4.11559 42.8406ZM3.56999 41.6993L3.68232 41.9099C3.73247 42.0002 3.78863 42.1105 3.85081 42.2048L4.14969 42.7022L4.96607 42.2048L4.68124 41.7214C4.61906 41.6231 4.5649 41.5208 4.51676 41.4345L4.40844 41.234L3.56999 41.6993Z" fill="#673FFF"/>
<path d="M3.23864 41.3009L3.1223 41.0843L2.63086 40.0813L3.67792 39.5879L4.1513 40.5527L4.26363 40.7533L3.23864 41.3009ZM2.76525 40.1295L3.28076 41.1665L4.12723 40.7192L4.06104 40.5968L3.63179 39.7163L2.76525 40.1295Z" fill="#673FFF"/>
<path d="M2.46119 39.7163L2.18639 39.0925C2.13022 38.9661 2.06804 38.8177 2.0199 38.6913L1.93164 38.4627L3.00879 38.0254L3.09504 38.25C3.14118 38.3704 3.19734 38.5108 3.2535 38.6312L3.51627 39.2329L2.46119 39.7163ZM2.06002 38.5128L2.11217 38.6492C2.16031 38.7776 2.22048 38.922 2.27665 39.0504L2.50933 39.5819L3.38389 39.1808L3.15923 38.6713C3.10306 38.5489 3.04489 38.4065 2.99876 38.2821L2.94861 38.1538L2.06002 38.5128Z" fill="#673FFF"/>
<path d="M0.509813 33.6141V33.5659C0.509813 33.5659 0.44362 33.253 0.389461 32.9461L0.285156 32.2722L1.4285 32.0977L1.5308 32.7476C1.58295 33.0424 1.64513 33.3373 1.64513 33.3493L1.65717 33.3995L0.509813 33.6141ZM0.389461 32.3564L0.477719 32.9301C0.519842 33.1628 0.567983 33.3975 0.588042 33.4977L1.52478 33.3112C1.50472 33.229 1.47664 33.0705 1.42048 32.7636L1.33623 32.212L0.389461 32.3564Z" fill="#673FFF"/>
<path d="M0.877051 35.2287L0.712571 34.5668C0.644371 34.302 0.590213 34.0292 0.576172 33.953V33.9049L0.624313 33.8908L1.70748 33.6602V33.7143C1.72152 33.7885 1.77367 34.0453 1.83987 34.3L1.99632 34.9379L0.877051 35.2287ZM0.676465 33.9791C0.69853 34.0874 0.744664 34.3161 0.80484 34.5427L0.949262 35.1024L1.87597 34.8617L1.74358 34.3201C1.68541 34.1035 1.63928 33.8828 1.61922 33.7765L0.676465 33.9791Z" fill="#673FFF"/>
<path d="M6.3754 46.0378L5.6914 45.1632C5.61317 45.0649 5.56905 44.9987 5.56905 44.9987L5.54297 44.9586L6.61009 44.1562L6.51782 44.3288C6.53587 44.3548 6.56796 44.399 6.61209 44.4531L7.27403 45.2976L6.3754 46.0378ZM5.67937 44.9807C5.69943 45.0087 5.72951 45.0489 5.76763 45.097L6.39145 45.8993L7.13362 45.2976L6.53186 44.5293L6.44761 44.417L5.67937 44.9807Z" fill="#673FFF"/>
<path d="M51.9361 13.8941L51.7536 13.5952C51.6974 13.5029 51.6352 13.3946 51.563 13.2923L51.1719 12.7026L52.1327 12.0547L52.5339 12.6685C52.6101 12.7768 52.6763 12.8891 52.7344 12.9894L52.917 13.2943L51.9361 13.8941ZM51.3143 12.7287L51.6513 13.2381C51.7235 13.3445 51.7877 13.4508 51.8519 13.5471L51.9782 13.7476L52.7986 13.2522L52.6662 13.0315C52.6081 12.9353 52.5419 12.831 52.4657 12.7166L52.1146 12.1871L51.3143 12.7287Z" fill="#673FFF"/>
<path d="M52.8363 15.5029L52.2847 14.4819L52.1523 14.2633L53.1553 13.6836L53.2897 13.9082L53.8633 14.9714L52.8363 15.5029ZM52.2928 14.2994L52.373 14.4318L52.8785 15.3685L53.7289 14.9292L53.2054 13.9584L53.1212 13.82L52.2928 14.2994Z" fill="#673FFF"/>
<path d="M53.6191 17.172L53.5188 16.9353C53.4666 16.8049 53.3984 16.6565 53.3342 16.5341L53.0273 15.8963L54.0664 15.3848L54.3833 16.0467C54.4515 16.1831 54.5237 16.3396 54.5839 16.478L54.6862 16.7187L53.6191 17.172ZM53.1557 15.9344L53.4205 16.482C53.4867 16.6144 53.5549 16.7648 53.607 16.8972L53.6692 17.0396L54.5458 16.6585L54.4836 16.5081C54.4274 16.3717 54.3572 16.2172 54.283 16.0828L54.0102 15.5111L53.1557 15.9344Z" fill="#673FFF"/>
<path d="M55.4857 23.5544L55.3613 22.8664C55.2991 22.5474 55.2269 22.2285 55.2249 22.2265L55.2129 22.1764L56.3462 21.9316L56.3582 21.9818C56.3582 21.9818 56.4345 22.3188 56.4986 22.6517L56.621 23.3759L55.4857 23.5544ZM55.3433 22.2426C55.3653 22.3288 55.3994 22.4993 55.4656 22.8443L55.5679 23.4461L56.5127 23.2896L56.4064 22.6658C56.3562 22.409 56.3001 22.1523 56.276 22.048L55.3433 22.2426Z" fill="#673FFF"/>
<path d="M55.1596 21.8646L55.1495 21.8145C55.1495 21.8145 55.0833 21.4895 54.9931 21.1786L54.8105 20.4946L55.9238 20.1797L56.1244 20.8898C56.2187 21.2147 56.2869 21.5517 56.2889 21.5557V21.6039L55.1596 21.8646ZM54.9329 20.5648L55.0894 21.1525C55.1596 21.3932 55.2137 21.64 55.2378 21.7543L56.1705 21.5377C56.1465 21.4334 56.0903 21.1766 56.0181 20.9359L55.8536 20.3341L54.9329 20.5648Z" fill="#673FFF"/>
<path d="M49.577 10.5701L49.547 10.528C49.547 10.528 49.4968 10.4638 49.4186 10.3735L48.6523 9.50098L49.5068 8.7207L50.3092 9.62535C50.3934 9.72364 50.4476 9.79384 50.4476 9.79384L50.4757 9.83195L49.577 10.5701ZM48.7928 9.50901L49.4928 10.3114C49.5369 10.3595 49.571 10.4016 49.5951 10.4317L50.3313 9.81992C50.3072 9.78983 50.2731 9.74771 50.2269 9.69555L49.4988 8.86713L48.7928 9.50901Z" fill="#673FFF"/>
<path d="M44.4894 13.3445L44.4492 13.541L44.9071 13.6348L44.9473 13.4382L44.4894 13.3445Z" fill="#FFD900"/>
<path d="M50.4106 29.0195C50.4106 29.0195 50.4106 29.0536 50.4106 29.1158C50.4106 29.178 50.4106 29.2703 50.3905 29.3866C50.3704 29.6193 50.3544 29.9543 50.3123 30.3534C50.2882 30.554 50.2601 30.7686 50.23 30.9953C50.216 31.1096 50.2019 31.226 50.1859 31.3463C50.1698 31.4667 50.1438 31.587 50.1217 31.7094C50.0756 31.9561 50.0294 32.2109 49.9833 32.4716C49.9372 32.7324 49.8629 32.9871 49.8028 33.2479C49.5717 34.2038 49.2734 35.1422 48.9102 36.0561C48.838 36.2426 48.7698 36.4131 48.7096 36.5656C48.6494 36.718 48.5832 36.8424 48.5351 36.9487L48.3846 37.2837L48.158 37.3338C48.0256 37.3659 47.841 37.402 47.6585 37.4341C47.2914 37.5023 46.9304 37.5585 46.9304 37.5585L46.8381 37.739C46.7819 37.8554 46.6917 38.0158 46.5794 38.2084C46.467 38.401 46.3447 38.6276 46.1982 38.8623L45.7349 39.5864L45.2314 40.2965C45.073 40.5232 44.9045 40.7197 44.7701 40.8983C44.5013 41.2513 44.3007 41.4699 44.3007 41.4699L44.389 41.8711L44.4732 42.2723C44.4732 42.2723 44.3508 42.4207 44.0981 42.6734L43.6388 43.1549L42.9889 43.7747C41.6191 45.0377 40.0905 46.1166 38.4416 46.984C36.1105 48.2135 33.5703 48.9965 30.9517 49.2928C26.6174 49.7914 22.2342 48.9549 18.388 46.8953C14.5419 44.8357 11.4162 41.651 9.42876 37.7671C9.15596 37.2576 8.94133 36.7481 8.72671 36.2687C8.51208 35.7893 8.34359 35.3179 8.20318 34.8646C7.94203 34.0989 7.72569 33.3186 7.55528 32.5278C7.47505 32.2008 7.43894 31.902 7.38679 31.6452C7.36473 31.5168 7.34266 31.3965 7.3226 31.2882C7.30254 31.1798 7.29653 31.0876 7.28449 30.9893C7.23836 30.6302 7.21429 30.4397 7.21429 30.4397L5.97266 30.5821C5.97266 30.5821 6.00475 30.8429 6.06693 31.3343C6.12911 31.8257 6.26752 32.5378 6.48215 33.4384C7.09637 35.9209 8.1273 38.2812 9.53106 40.4189L9.69353 40.6696C9.7497 40.7518 9.80787 40.8321 9.86804 40.9143L10.2211 41.4138C10.4638 41.7487 10.7326 42.0697 10.9933 42.4167C11.5591 43.094 12.1618 43.7395 12.7986 44.3503C13.4704 44.9935 14.1798 45.5963 14.9228 46.1556L15.5085 46.5728L15.8034 46.7835L16.1083 46.984L16.7241 47.3852L17.3519 47.7403L17.6749 47.9268L18.0058 48.0973L18.6758 48.4383C19.1351 48.6389 19.5885 48.8675 20.0679 49.0401C21.0236 49.4237 22.0048 49.7408 23.0044 49.9888L23.7647 50.1653C24.0194 50.2255 24.2782 50.2596 24.5349 50.3098C25.0484 50.4141 25.5719 50.4622 26.0935 50.5324C26.3542 50.5605 26.617 50.5745 26.8798 50.5966L27.2809 50.6267C27.4133 50.6267 27.5457 50.6267 27.6821 50.6387L28.4744 50.6588L29.2647 50.6387H29.6659L30.0671 50.6086L30.8574 50.5465C31.3789 50.4742 31.9045 50.4281 32.42 50.3238C33.4515 50.1468 34.4691 49.8961 35.4649 49.5736C36.4446 49.2555 37.4028 48.8743 38.3332 48.4323L39.0112 48.0853C39.1236 48.0271 39.2379 47.9709 39.3482 47.9108L39.6752 47.7222C39.8918 47.5958 40.1124 47.4755 40.3251 47.3451L40.9529 46.9439C41.1635 46.8156 41.3541 46.6691 41.5547 46.5267C41.7553 46.3843 41.9558 46.2479 42.1564 46.0995C42.5355 45.7966 42.9227 45.5097 43.2777 45.1888C43.9835 44.5818 44.6533 43.9342 45.2836 43.2491C46.4165 41.9827 47.4079 40.5965 48.2402 39.115C48.949 37.8596 49.5341 36.5382 49.9873 35.1695C50.342 34.1164 50.6143 33.0374 50.8017 31.9421C50.892 31.4888 50.9361 31.0775 50.9822 30.7225C51.0284 30.3675 51.0524 30.0626 51.0705 29.8159C51.0885 29.5691 51.1046 29.3786 51.1146 29.2522C51.1146 29.188 51.1146 29.1399 51.1146 29.1078V29.0576L50.4106 29.0195Z" fill="#673FFF"/>
<path d="M36.4599 48.1399L35.9504 47.825C35.7017 47.6706 35.4529 47.4961 35.4529 47.4981L35.1039 47.6144L34.7028 47.7508C34.5463 47.803 34.3678 47.8491 34.1732 47.9053C33.2261 48.1777 32.2599 48.3788 31.2828 48.507C30.3044 48.6414 29.3176 48.705 28.3301 48.6976C27.929 48.6855 27.59 48.6815 27.3533 48.6695L26.9862 48.6414C26.9862 48.6414 26.7575 48.9122 26.5148 49.181C26.2721 49.4498 26.0254 49.7085 26.0254 49.7085L26.1437 49.7206C26.222 49.7326 26.3443 49.7386 26.4827 49.7466L27.0103 49.7767L27.3332 49.7968H27.6943C28.9185 49.8216 30.1426 49.7411 31.353 49.5561C32.5563 49.3777 33.743 49.1013 34.9013 48.7297C35.3707 48.5612 35.7639 48.4288 36.0326 48.3285L36.4599 48.1399Z" fill="#673FFF"/>
<path d="M24.3934 49.28L24.3091 49.1136C24.259 49.0113 24.1928 48.8829 24.1306 48.7425L23.8899 48.1949L23.6352 48.1347C23.4807 48.1006 23.2761 48.0565 23.0775 47.9943L22.5239 47.8378L22.2732 47.7656C22.2732 47.7656 21.9904 47.9662 21.6955 48.1668C21.4006 48.3674 21.0938 48.568 21.0938 48.568L21.6052 48.7104C21.9081 48.8027 22.3233 48.8929 22.7345 48.9852L23.0414 49.0534L23.3423 49.1055L23.8719 49.1978C24.0283 49.2259 24.1567 49.246 24.249 49.256L24.3934 49.28Z" fill="#673FFF"/>
<path d="M37.2548 46.9886L37.2207 46.9104L37.3531 46.8502C37.4133 46.8262 37.5356 46.77 37.6981 46.6837L37.995 46.5313C38.2216 46.417 38.4804 46.2866 38.7291 46.1301L39.2707 45.8192L40.053 45.3177L40.1553 45.2495C40.1553 45.1011 40.1713 44.6478 40.1653 44.2165C40.1653 43.707 40.1272 43.1855 40.1252 43.1795V43.1574L40.3358 42.9909L40.4381 42.9107C40.5504 42.8245 40.6888 42.7101 40.8393 42.5817C41.3418 42.1571 41.8213 41.7058 42.2755 41.2298L42.6466 40.8427L42.9835 40.4415C43.1841 40.2168 43.3627 39.9922 43.5171 39.7936L43.7939 39.4426L44.1128 38.9933H44.494C44.6484 38.9933 44.837 38.9933 45.0536 38.9933C45.3605 38.9832 45.6794 38.9692 46.0004 38.9471L46.546 38.907L47.1016 38.8448C47.4707 38.7987 47.8458 38.7465 48.2168 38.6864C48.5879 38.6262 48.9049 38.554 49.1857 38.4858C49.4204 38.4356 49.655 38.3815 49.8817 38.3253C50.0061 38.2972 50.0823 38.2752 50.1244 38.2651L50.2909 37.896C50.315 37.8459 50.3391 37.7897 50.3671 37.7316C50.4714 37.5009 50.6018 37.2141 50.7302 36.8711C51.1524 35.8224 51.4977 34.7444 51.7632 33.6456C52.0288 32.5481 52.2184 31.4335 52.3309 30.3099L52.4131 29.1966L52.4251 28.7754H52.5094V29.1986L52.4251 30.3159C52.3139 31.4444 52.1235 32.5638 51.8555 33.6657C51.5892 34.7678 51.2433 35.8491 50.8205 36.9011C50.6901 37.2441 50.5597 37.533 50.4534 37.7637C50.4273 37.8238 50.4012 37.878 50.3792 37.9302L50.1966 38.3313H50.1766C50.1766 38.3313 50.0823 38.3594 49.9118 38.3995L49.2138 38.56C48.9329 38.6202 48.598 38.6904 48.2409 38.7606C47.8839 38.8308 47.4927 38.8749 47.1216 38.919L46.564 38.9812L46.0164 39.0233C45.6935 39.0434 45.3745 39.0595 45.0656 39.0675C44.849 39.0675 44.6645 39.0675 44.504 39.0675H44.165L43.8601 39.5148L43.5813 39.8678C43.4268 40.0684 43.2503 40.2931 43.0457 40.5197L42.6726 40.947L42.3357 41.302C41.879 41.7789 41.3976 42.2315 40.8934 42.658C40.743 42.7944 40.6026 42.9027 40.4923 42.9909L40.392 43.0692L40.2155 43.2096C40.2155 43.3159 40.2516 43.7752 40.2516 44.2266C40.2516 44.6779 40.2516 45.1472 40.2516 45.2796V45.3318H40.2215L40.1112 45.404L39.3269 45.9055L38.7833 46.2184C38.5345 46.3688 38.2738 46.5012 38.0451 46.6195C37.9388 46.6737 37.8445 46.7239 37.7503 46.772C37.6279 46.8362 37.5035 46.8964 37.3992 46.9405L37.2548 46.9886Z" fill="#673FFF"/>
<path d="M50.5907 36.4327L49.9629 36.1699C49.9629 36.1699 50.013 36.0495 50.0873 35.8449L50.3921 34.9403C50.4904 34.6254 50.6048 34.2242 50.7592 33.6545C50.7873 33.5302 50.8194 33.3877 50.8535 33.2534C50.9357 32.9003 51.022 32.5373 51.0782 32.1742C51.2527 31.2275 51.368 30.2709 51.4232 29.3098C51.4372 29.0551 51.4412 28.8244 51.4452 28.6318C51.4452 28.5316 51.4452 28.4313 51.4452 28.3591V28L52.1272 28.016V28.3811C52.1272 28.4614 52.1272 28.5496 52.1272 28.6459C52.1272 28.8465 52.1272 29.0852 52.1031 29.352C52.0476 30.3393 51.9297 31.3221 51.7501 32.2946C51.6919 32.6697 51.6037 33.0468 51.5174 33.4098C51.4833 33.5502 51.4512 33.6906 51.4212 33.827C51.2607 34.4288 51.1443 34.83 51.042 35.1609L50.7311 36.0796C50.6449 36.3063 50.5907 36.4327 50.5907 36.4327Z" fill="#673FFF"/>
<path d="M6.37095 36.4329C6.37095 36.4329 6.31679 36.3065 6.23255 36.0778L5.92164 35.1591C5.81533 34.8181 5.70099 34.4109 5.54253 33.8313L5.44424 33.4C5.35799 33.0369 5.26973 32.6598 5.20956 32.2727C5.03126 31.3062 4.91402 30.3294 4.85853 29.3481C4.84248 29.0774 4.83646 28.8407 4.83245 28.6421C4.83245 28.5418 4.83245 28.4535 4.83245 28.3773L4.81641 28.0082L5.4984 27.9922L5.50843 28.3573C5.50843 28.4315 5.50843 28.5237 5.50843 28.626C5.50843 28.8266 5.51846 29.0473 5.5325 29.306C5.5866 30.261 5.70049 31.2116 5.8735 32.1523C5.93367 32.5294 6.01792 32.8925 6.10216 33.2435C6.13426 33.388 6.16836 33.5304 6.19845 33.6688C6.35089 34.2244 6.46322 34.6256 6.56552 34.9485L6.87041 35.8512C6.94262 36.0517 6.99076 36.1661 6.99277 36.1701L6.37095 36.4329Z" fill="#673FFF"/>
<path d="M28.4832 54.5324L28.409 54.4521C28.409 54.4521 27.9898 53.9968 27.4341 53.3309C27.1292 52.9718 26.7882 52.5105 26.5235 52.1494C26.363 51.9267 26.2025 51.7021 26.0501 51.4774C25.8976 51.2528 25.7492 51.0141 25.5907 50.7593C25.2598 50.2278 24.989 49.7564 24.7884 49.3372C24.5878 48.918 24.3511 48.4747 24.1866 48.0795C23.9038 47.4256 23.7313 46.9642 23.6932 46.8599C23.639 46.8479 23.5769 46.8299 23.5107 46.8118L22.947 46.6513C22.4014 46.4929 21.6974 46.2502 20.9692 45.9473C20.0584 45.5575 19.1762 45.1037 18.3295 44.5893C17.36 43.9947 16.4451 43.3154 15.5955 42.5594C14.0011 41.1415 12.6464 39.4752 11.5838 37.6249C11.231 37.0176 10.9129 36.3908 10.631 35.7475C10.5568 35.595 10.5046 35.4586 10.4625 35.3463C10.4425 35.2921 10.4244 35.244 10.4064 35.2019L10.3382 35.0294L9.76247 34.8889L9.16071 34.7144L8.96013 34.1347C8.92603 34.0284 8.89393 33.9101 8.85983 33.7857C8.83777 33.7095 8.81571 33.6313 8.79164 33.551C8.76757 33.4708 8.76155 33.4407 8.7455 33.3866C8.69736 33.2221 8.64922 33.0516 8.61311 32.8771L8.45866 32.2031C8.42857 32.0647 8.4045 31.9343 8.38244 31.8019C8.3704 31.7317 8.36038 31.6655 8.34834 31.6013L8.27212 31.1821C8.26081 31.1271 8.25277 31.0715 8.24805 31.0156H8.33229C8.33714 31.0676 8.34518 31.1191 8.35636 31.1701L8.43058 31.5913C8.44262 31.6555 8.45465 31.7237 8.46669 31.7919C8.48875 31.9163 8.51082 32.0466 8.5409 32.183L8.69736 32.857C8.73146 33.0295 8.7796 33.198 8.82774 33.3605C8.84379 33.4166 8.85984 33.4708 8.87388 33.525C8.88792 33.5791 8.92001 33.6854 8.94208 33.7596C8.97618 33.884 9.00827 34.0003 9.04237 34.1047L9.2229 34.6422L9.78654 34.8047L10.4023 34.9551L10.4866 35.1678C10.5046 35.2099 10.5227 35.258 10.5448 35.3142C10.5849 35.4225 10.637 35.5569 10.7092 35.7154C10.9874 36.356 11.3008 36.9808 11.648 37.5868C12.7032 39.4289 14.0499 41.0878 15.6356 42.4992C16.4806 43.2504 17.3901 43.9256 18.3536 44.5171C19.1967 45.0287 20.0748 45.4805 20.9813 45.869C21.7074 46.1639 22.4074 46.4126 22.951 46.5691L23.5147 46.7296C23.5889 46.7516 23.6571 46.7697 23.7153 46.7817H23.7474V46.8078C23.7674 46.8599 23.9479 47.3393 24.2468 48.0394C24.4153 48.4406 24.638 48.8738 24.8486 49.293C25.0592 49.7123 25.328 50.1776 25.6509 50.7092C25.8094 50.9619 25.9618 51.2026 26.1083 51.4233C26.2547 51.6439 26.4212 51.8726 26.5816 52.0932C26.8424 52.4523 27.1834 52.9116 27.4883 53.2707C27.9877 53.8724 28.3729 54.2937 28.4471 54.3759H28.742L29.6306 54.3538C29.8893 54.3538 30.1802 54.3238 30.5171 54.2957L31.0106 54.2576C31.1851 54.2455 31.3656 54.2215 31.5562 54.1974L31.853 54.1593L32.0917 54.1292C32.3164 54.1011 32.5491 54.071 32.7858 54.0249C34.2664 53.7845 35.723 53.414 37.1385 52.9176C41.8233 51.2835 45.9536 48.364 49.0573 44.493L49.639 43.7488L50.3892 42.6857L50.8927 41.9035C51.0331 41.6888 51.1414 41.5023 51.2297 41.3438C51.2738 41.2656 51.3119 41.1954 51.348 41.1432L51.4945 40.8865C51.4624 40.7782 51.334 40.369 51.1174 39.8053C50.9749 39.4262 50.8285 39.0591 50.6841 38.7161C50.5036 38.315 50.315 37.9038 50.1224 37.5126C49.9299 37.1215 49.7012 36.7103 49.5046 36.3633C49.3081 36.0162 49.1155 35.6933 48.929 35.4105C48.5699 34.8609 48.3272 34.5239 48.3272 34.5219L48.3132 34.5038L48.4155 34.2009L48.6883 33.2361L48.8247 32.6524L48.9069 32.6725L48.7725 33.2582L48.4977 34.225L48.4054 34.4958C48.5218 34.6342 48.8166 35.0795 49.0072 35.3643C49.1977 35.6492 49.3863 35.9801 49.5849 36.3211C49.7835 36.6621 50.0081 37.0693 50.2047 37.4745C50.4013 37.8797 50.5878 38.2768 50.7683 38.678C50.9128 39.023 51.0592 39.3901 51.2036 39.7712C51.4323 40.373 51.5627 40.7942 51.5867 40.8724V40.8905V40.9085L51.4283 41.1833C51.3942 41.2415 51.354 41.3097 51.3119 41.3839C51.2237 41.5404 51.1113 41.733 50.9729 41.9496L50.4334 42.788L49.7153 43.801L49.1316 44.5452C46.0204 48.4314 41.876 51.3611 37.1746 52.9979C35.7547 53.4965 34.2934 53.8684 32.8078 54.1091C32.5711 54.1553 32.3365 54.1854 32.1098 54.2134L31.8731 54.2435L31.5762 54.2816C31.3757 54.3077 31.2011 54.3298 31.0246 54.3438L30.5312 54.3819C30.1942 54.408 29.9033 54.4321 29.6426 54.4381L28.752 54.4602H28.4792L28.4832 54.5324Z" fill="#673FFF"/>
<path d="M39.3957 50.2695L39.0808 50.1371C38.82 50.0207 38.5573 49.9004 38.3025 49.778L38.1942 49.7259C37.9094 49.5875 37.5924 49.429 37.2454 49.2405C36.8443 49.0238 36.4651 48.7972 36.09 48.5665C35.715 48.3358 35.3198 48.063 34.9948 47.8324L34.5154 47.4853L34.0942 47.1544C33.6529 46.7993 33.3541 46.5386 33.2818 46.4744C33.1274 46.5125 32.1987 46.7432 31.2599 46.8756L30.4997 46.9718C30.3493 46.9879 30.2048 46.9979 30.0684 47.0079L29.8318 47.024C29.5128 47.0561 29.2741 47.0601 29.2019 47.0601C29.1357 47.1664 29.0013 47.385 28.8509 47.6037L28.4497 48.1834L27.6955 48.1633C27.509 48.1633 27.3465 48.1633 27.186 48.1392L26.9413 48.1192C26.6324 48.0971 26.2854 48.0711 25.9223 48.0169C25.5593 47.9627 25.1501 47.9066 24.7649 47.8384L24.4881 47.7882C24.3337 47.7581 24.1812 47.722 24.0328 47.6879L23.766 47.6257L23.413 47.5435L23.072 47.4472L22.8173 47.375C22.6829 47.3369 22.5545 47.3008 22.4301 47.2627L21.8625 47.0621C21.6037 46.9799 21.3831 46.8916 21.2045 46.8214L21.022 46.7492L20.7051 46.6248L20.7352 46.5446L21.0521 46.669L21.2366 46.7412C21.4131 46.8114 21.6378 46.8996 21.8885 46.9799L22.4562 47.1804C22.5786 47.2186 22.7069 47.2547 22.8393 47.2928L23.0961 47.365L23.4351 47.4613L23.7841 47.5435C23.8743 47.5616 23.9626 47.5836 24.0529 47.6037C24.1993 47.6398 24.3517 47.6759 24.5022 47.704L24.781 47.7541C25.1641 47.8223 25.5613 47.8945 25.9324 47.9326C26.3034 47.9708 26.6404 48.0129 26.9473 48.0349L27.194 48.053C27.3525 48.069 27.511 48.0771 27.6975 48.0791L28.4056 48.0971L28.6062 47.7983L28.7707 47.5555C28.9231 47.3249 29.0715 47.0902 29.1277 47.0019L29.1397 46.9819H29.1678C29.1678 46.9819 29.4326 46.9819 29.8157 46.9478L30.0544 46.9297C30.1868 46.9297 30.3312 46.9097 30.4796 46.8956L31.2379 46.7973C32.2548 46.6489 33.2618 46.3962 33.2718 46.3962H33.2939L33.3119 46.4122C33.3119 46.4122 33.6309 46.697 34.1363 47.1042L34.5576 47.4332L35.035 47.7802C35.3579 48.0069 35.741 48.2736 36.1241 48.5103C36.5073 48.747 36.8864 48.9677 37.2775 49.1823C37.6145 49.3708 37.9375 49.5273 38.2223 49.6657L38.3306 49.7179C38.5833 49.8382 38.8441 49.9586 39.1049 50.0749L39.3837 50.1912C39.4619 50.1531 39.7949 49.9907 40.3144 49.7098L40.6012 49.5454C40.8319 49.415 41.0927 49.2665 41.3735 49.096L41.7345 48.8654C42.0435 48.6648 42.3644 48.4642 42.6954 48.2215C46.2815 45.6932 49.1326 42.2587 50.9575 38.2684C51.5119 37.0635 51.9641 35.8141 52.3095 34.5335C52.3917 34.2627 52.4519 34.0059 52.51 33.7311L52.6785 32.995L52.8932 31.7915L53.0276 30.7344H53.1118L52.9774 31.7955L52.7608 32.999L52.5923 33.7351C52.5281 34.022 52.4679 34.2787 52.3917 34.5495C52.0449 35.835 51.5907 37.0891 51.0337 38.2985C49.2037 42.302 46.3435 45.7477 42.7455 48.2837C42.4125 48.5304 42.0916 48.735 41.7807 48.9316C41.6543 49.0098 41.534 49.086 41.4176 49.1622C41.1348 49.3327 40.874 49.4832 40.6434 49.6136L40.3565 49.78C39.7548 50.093 39.4077 50.2695 39.4037 50.2715L39.3957 50.2695Z" fill="#673FFF"/>
<path d="M35.1836 50.2603C35.1836 50.2603 35.332 50.3646 35.5567 50.507C35.7813 50.6494 36.0862 50.838 36.3991 51.0225C37.027 51.4016 37.6869 51.7266 37.6869 51.7266L38.3208 51.4758C38.6337 51.3434 38.9446 51.199 38.9446 51.199L38.5234 51.0105L38.1021 50.8099L37.6207 50.5652C37.2978 50.3967 36.9829 50.2242 36.7502 50.0938C36.5175 49.9634 36.365 49.8691 36.365 49.8691L35.7753 50.0697L35.3742 50.2061L35.1836 50.2603Z" fill="#673FFF"/>
<path d="M33.1758 50.7671C33.1758 50.7671 33.7254 51.2064 34.3191 51.6356C34.616 51.8543 34.9209 52.0508 35.1496 52.2013L35.5387 52.448L35.7393 52.3898C35.8616 52.3537 36.0261 52.3116 36.1866 52.2554L36.8325 52.0368L36.4313 51.8081C36.1926 51.6677 35.8817 51.4912 35.5728 51.2906C34.955 50.8895 34.3833 50.4883 34.3833 50.4883C34.3833 50.4883 34.3091 50.5123 34.1948 50.5364L33.7775 50.6327L33.1758 50.7671Z" fill="#673FFF"/>
<path d="M31.1348 51.0866C31.1348 51.0866 31.6422 51.58 32.1979 52.0634C32.7535 52.5468 33.3372 52.9801 33.3372 52.9801L33.5478 52.942C33.6722 52.9199 33.8387 52.8778 34.0052 52.8417L34.6691 52.6872C34.6691 52.6872 34.0513 52.264 33.4796 51.8287C33.1928 51.6101 32.912 51.3734 32.7074 51.2029L32.3684 50.9141L32.1678 50.9482C32.0534 50.9702 31.899 50.9903 31.7445 51.0083L31.1348 51.0866Z" fill="#673FFF"/>
<path d="M29.0723 51.2282L29.3671 51.5672C29.5456 51.7678 29.7904 52.0386 30.0431 52.2913C30.5466 52.8068 31.0982 53.3163 31.0982 53.3163L31.7722 53.2321L32.2375 53.1719C32.3639 53.1578 32.4381 53.1398 32.4381 53.1398C32.4381 53.1398 32.2937 53.0275 32.0831 52.8429C31.8725 52.6584 31.5976 52.4197 31.3309 52.175C31.0641 51.9302 30.8073 51.6835 30.6168 51.487L30.3039 51.166L29.6841 51.2121L29.0723 51.2282Z" fill="#673FFF"/>
<path d="M27.002 51.1914L27.2647 51.5565C27.4252 51.7691 27.6458 52.0499 27.8765 52.3307C28.1072 52.6116 28.3419 52.8964 28.5264 53.103L28.8353 53.44L29.5153 53.4239C29.6838 53.4239 29.8543 53.4239 29.9807 53.4019L30.1933 53.3858L29.8663 53.0649C29.6657 52.8643 29.421 52.5975 29.1763 52.3287C28.9316 52.0599 28.6989 51.7892 28.5264 51.5866C28.3539 51.384 28.2436 51.2375 28.2436 51.2375L27.6218 51.2215C27.3109 51.2195 27.002 51.1914 27.002 51.1914Z" fill="#673FFF"/>
<path d="M48.2099 41.7228L47.6543 41.3216L47.8549 41.0288L48.2701 40.3809C48.4225 40.1502 48.5609 39.9075 48.6713 39.729L48.8518 39.4141L49.4536 39.7531L49.275 40.064C49.1667 40.2545 49.0223 40.5093 48.8578 40.754L48.4366 41.4099L48.2099 41.7228Z" fill="#673FFF"/>
<path d="M30.5703 46.9257L30.7809 46.5927L31.1821 46.5446C31.2824 46.5326 31.3827 46.5185 31.4529 46.5045L31.5752 46.4824L31.8721 46.7352L31.6715 47.0762L31.5452 47.1002C31.453 47.1185 31.3599 47.1319 31.2663 47.1403L30.8652 47.1925L30.5703 46.9257Z" fill="#673FFF"/>
<path d="M30.8133 47.3266L30.4121 46.9455L30.715 46.4741L31.1683 46.416C31.2559 46.4081 31.3429 46.3954 31.4291 46.3779L31.6136 46.3438L32.0389 46.7068L31.758 47.1922L31.5735 47.2263C31.5066 47.2397 31.4104 47.2537 31.2847 47.2685L30.8133 47.3266ZM30.7371 46.9034L30.9015 47.0578L31.2486 47.0137C31.3388 47.0054 31.4286 46.992 31.5173 46.9736L31.5896 46.9616L31.7039 46.761L31.5354 46.6165L31.4712 46.6266C31.407 46.6406 31.3147 46.6547 31.1924 46.6687L30.8594 46.7108L30.7371 46.9034Z" fill="#673FFF"/>
<path d="M42.5521 41.042L42.528 40.8414C42.516 40.7431 42.502 40.6408 42.502 40.6408L43.0275 40.0391H43.2281H43.4287L43.4688 40.2396C43.4888 40.3399 43.5029 40.4402 43.5029 40.4402L42.9613 41.0661H42.7607L42.5521 41.042Z" fill="#673FFF"/>
<path d="M43.0051 41.1897L42.4374 41.1636L42.3672 40.614L42.9689 39.918H43.2197H43.5226L43.5807 40.2188C43.6028 40.3191 43.6168 40.4194 43.6168 40.4194L43.6269 40.4776L43.0051 41.1897ZM42.6661 40.9189L42.8927 40.9289L43.3561 40.3954C43.3561 40.3593 43.34 40.3111 43.33 40.263L43.3119 40.1727H43.0853L42.636 40.6922L42.6661 40.9189Z" fill="#673FFF"/>
<path d="M41.2561 42.3239V42.1233C41.2561 42.0271 41.2461 41.9228 41.2461 41.9228L41.8278 41.3691L42.2169 41.3992L42.255 41.8004L41.6533 42.3721C41.6533 42.3721 41.557 42.362 41.4527 42.346L41.2561 42.3239Z" fill="#673FFF"/>
<path d="M41.6947 42.4999H41.6365C41.6365 42.4999 41.5363 42.4999 41.436 42.4738L41.1331 42.4297V42.1288C41.1331 42.0345 41.123 41.9382 41.123 41.9382V41.878L41.789 41.2422L42.3406 41.2843L42.3948 41.85L41.6947 42.4999ZM41.3798 42.203L41.4721 42.215L41.6024 42.2331L42.1139 41.7457L42.0919 41.517L41.8692 41.4989L41.3718 41.9723C41.3718 42.0124 41.3718 42.0646 41.3718 42.1147L41.3798 42.203Z" fill="#673FFF"/>
<path d="M37.083 47.469C36.999 47.4636 36.9184 47.434 36.8508 47.3838C36.7832 47.3337 36.7315 47.265 36.7019 47.1862C36.6702 47.1423 36.6487 47.092 36.6389 47.0388C36.6291 46.9855 36.6312 46.9308 36.6451 46.8785C36.659 46.8262 36.6844 46.7777 36.7194 46.7364C36.7544 46.6951 36.7981 46.6622 36.8474 46.6399C36.8967 46.6176 36.9504 46.6065 37.0045 46.6075C37.0586 46.6085 37.1118 46.6215 37.1603 46.6455C37.2087 46.6696 37.2512 46.7041 37.2847 46.7466C37.3182 46.7892 37.3418 46.8386 37.3538 46.8913C37.3817 46.9476 37.3982 47.0088 37.4024 47.0715C37.4065 47.1341 37.3982 47.197 37.3779 47.2564C37.3637 47.2972 37.3415 47.3347 37.3125 47.3668C37.2836 47.3988 37.2485 47.4247 37.2094 47.443C37.1697 47.4608 37.1265 47.4697 37.083 47.469ZM36.9707 46.8673C36.9165 46.8873 36.8925 46.9776 36.9366 47.0819C36.9807 47.1862 37.061 47.2263 37.1051 47.2063C37.1133 47.2019 37.1206 47.196 37.1265 47.1887C37.1324 47.1815 37.1367 47.1731 37.1392 47.1641C37.1543 47.1085 37.1486 47.0494 37.1231 46.9977C37.1111 46.9648 37.0907 46.9357 37.064 46.9132C37.0373 46.8907 37.0051 46.8755 36.9707 46.8693V46.8673Z" fill="#673FFF"/>
<path d="M6.54781 26.9812C6.54781 26.9812 6.54781 26.9471 6.54781 26.8849C6.54781 26.8227 6.55984 26.7305 6.56787 26.6141C6.58793 26.3815 6.60598 26.0465 6.6461 25.6473C6.67217 25.4467 6.70025 25.2341 6.72834 25.0054C6.74238 24.8911 6.75842 24.7748 6.77246 24.6544C6.78651 24.5341 6.81659 24.4137 6.83866 24.2913C6.88279 24.0446 6.92892 23.7899 6.97706 23.5311C7.0252 23.2724 7.09541 23.0136 7.15558 22.7528C7.38852 21.7975 7.68676 20.8592 8.04819 19.9446L8.24878 19.4372L8.42128 19.056L8.57373 18.7211L8.79839 18.6709C8.93278 18.6388 9.11531 18.6027 9.29985 18.5706C9.67094 18.5064 10.026 18.4543 10.026 18.4543L10.1203 18.2738C10.1744 18.1574 10.2667 17.9969 10.379 17.8044C10.4913 17.6118 10.6137 17.3852 10.7601 17.1505L11.2295 16.4143L11.731 15.7063C11.8894 15.4776 12.0599 15.281 12.1943 15.1045C12.4631 14.7515 12.6637 14.5328 12.6637 14.5328L12.5754 14.1316L12.4912 13.7305C12.4912 13.7305 12.6135 13.582 12.8663 13.3293L13.3236 12.8499L13.9795 12.2361C15.3498 10.9737 16.8784 9.89489 18.5268 9.02673C20.858 7.79801 23.3982 7.01567 26.0167 6.71998C30.3491 6.22064 34.7308 7.05546 38.576 9.11287C42.4213 11.1703 45.5471 14.3523 47.5356 18.2336C47.8104 18.7431 48.0251 19.2526 48.2397 19.732C48.4543 20.2114 48.6228 20.6828 48.7632 21.1361C49.0236 21.9005 49.2393 22.6795 49.4091 23.4689C49.4913 23.7939 49.5274 24.0948 49.5776 24.3495C49.6017 24.4799 49.6237 24.5982 49.6418 24.7066C49.6598 24.8149 49.6699 24.9071 49.6819 25.0054C49.728 25.3645 49.7521 25.555 49.7521 25.555L50.9937 25.4126C50.9937 25.4126 50.9596 25.1519 50.8974 24.6604C50.8353 24.169 50.6969 23.4569 50.4822 22.5583C49.8705 20.0753 48.8401 17.7147 47.4353 15.5779L47.2729 15.3251L47.0983 15.0804L46.7433 14.581C46.5026 14.248 46.2338 13.925 45.9731 13.578C45.4073 12.9008 44.8046 12.2553 44.1678 11.6444C43.4966 11.0013 42.788 10.3984 42.0456 9.8391L41.4639 9.4279L41.169 9.22731L40.8641 9.02673L40.2463 8.62555L39.6064 8.25647L39.2835 8.07194L38.9525 7.90144L38.2826 7.55843C37.8212 7.35785 37.3679 7.12918 36.8905 6.95667C35.935 6.57172 34.9537 6.25402 33.9539 6.0059L33.1937 5.83139C32.939 5.7692 32.6802 5.7351 32.4234 5.68496C31.9099 5.58065 31.3864 5.53251 30.8649 5.46231C30.6041 5.43422 30.3414 5.42018 30.0786 5.39812L29.6774 5.36803C29.547 5.36803 29.4147 5.36803 29.2762 5.356L28.4859 5.33594L27.6836 5.356L27.2824 5.36603L26.8812 5.39611L26.0929 5.45629C25.5714 5.5285 25.0439 5.57464 24.5284 5.67894C23.5086 5.85449 22.5025 6.10183 21.5176 6.4191C20.5383 6.73917 19.5808 7.12243 18.6512 7.56646L17.9732 7.91347C17.8609 7.97164 17.7465 8.02781 17.6362 8.08798L17.3093 8.27653C17.0926 8.4029 16.872 8.52325 16.6594 8.65364L16.0315 9.05481C15.8309 9.18318 15.6304 9.32961 15.4298 9.47203C15.2292 9.61444 15.0286 9.75084 14.828 9.90128C14.4469 10.2042 14.0598 10.489 13.7067 10.8099C13.0004 11.4171 12.3306 12.0654 11.7009 12.7516C10.5584 14.0186 9.55819 15.4069 8.71815 16.8917C8.00994 18.1478 7.42421 19.469 6.96904 20.8372C6.61614 21.8929 6.3439 22.9738 6.15466 24.0707C6.0664 24.524 6.02227 24.9352 5.97614 25.2903C5.93 25.6453 5.90393 25.9502 5.88587 26.1969C5.86782 26.4436 5.85378 26.6342 5.84375 26.7606C5.84375 26.8248 5.84375 26.8729 5.84375 26.905V26.9551L6.54781 26.9812Z" fill="#673FFF"/>
<path d="M20.498 7.85321L21.0075 8.16813C21.2583 8.32459 21.505 8.49709 21.505 8.49709L21.856 8.37875L22.2572 8.24235C22.4136 8.1902 22.5922 8.14607 22.7847 8.0899C23.7326 7.81763 24.6994 7.61648 25.6772 7.48814C26.6554 7.35138 27.6421 7.28435 28.6298 7.28756C29.031 7.29959 29.37 7.3036 29.6047 7.31564L29.9737 7.34372C29.9737 7.34372 30.2024 7.07293 30.4431 6.80414C30.6838 6.53536 30.9346 6.2766 30.9346 6.2766L30.8162 6.26457C30.738 6.25253 30.6156 6.24651 30.4772 6.23849L29.9497 6.21843L29.6247 6.19837H29.2657C28.0415 6.17169 26.8173 6.25155 25.607 6.43707C24.4008 6.62005 23.2115 6.90045 22.0506 7.27552C21.5832 7.44402 21.1901 7.5764 20.9193 7.6767L20.498 7.85321Z" fill="#673FFF"/>
<path d="M32.5645 6.7207L32.6487 6.88719C32.6968 6.98949 32.763 7.11786 32.8252 7.25827C32.9476 7.53308 33.0679 7.80788 33.0679 7.80788L33.3227 7.86605C33.4751 7.90015 33.6797 7.94428 33.8803 8.00646L34.4319 8.16292C34.5844 8.20504 34.6826 8.23714 34.6826 8.23714C34.6826 8.23714 34.9655 8.03655 35.2623 7.83596C35.5592 7.63538 35.8641 7.43479 35.8641 7.43479L35.3546 7.29237C35.0517 7.2001 34.6365 7.10984 34.2253 7.01958L33.9184 6.94937L33.6175 6.89722L33.086 6.80495C32.9315 6.77687 32.8011 6.75681 32.7089 6.74879L32.5645 6.7207Z" fill="#673FFF"/>
<path d="M4.53547 27.197H4.44922L4.46125 26.7737L4.5455 25.6585C4.6563 24.5299 4.84666 23.4105 5.11517 22.3087C5.38023 21.2056 5.72617 20.1235 6.15019 19.0712C6.27857 18.7282 6.41095 18.4394 6.51726 18.2067L6.59148 18.0422L6.76198 17.6671C6.76198 17.635 6.79006 17.629 7.05885 17.5648C7.28551 17.5107 7.5222 17.4565 7.75689 17.4064C8.03771 17.3462 8.37269 17.276 8.72973 17.2058C9.08677 17.1356 9.47792 17.0914 9.849 17.0453L10.4046 16.9831L10.9522 16.941C11.2772 16.9209 11.5961 16.9049 11.903 16.8969C12.1216 16.8969 12.3042 16.8969 12.4667 16.8969H12.8036L13.0985 16.4837L13.3773 16.1306C13.5318 15.93 13.7083 15.7054 13.9129 15.4787L14.284 15.0515L14.623 14.6984C15.0785 14.2205 15.5593 13.7672 16.0632 13.3405C16.2136 13.2041 16.354 13.0958 16.4643 13.0075L16.5646 12.9293L16.7411 12.7889C16.7411 12.6846 16.703 12.2232 16.703 11.7719C16.703 11.2564 16.703 10.7188 16.703 10.7128V10.6506L16.7411 10.6707C16.7612 10.6546 16.7953 10.6326 16.8434 10.6025L17.6257 10.101L18.1693 9.7901C18.4201 9.63765 18.6788 9.50727 18.9095 9.38893L19.2044 9.23849C19.3267 9.17229 19.4511 9.11212 19.5534 9.06799L19.6858 9.00781L19.7219 9.08604L19.5875 9.14622C19.5293 9.17029 19.4069 9.22645 19.2445 9.3127L18.9476 9.46515C18.7189 9.57948 18.4602 9.70986 18.2135 9.86632L17.6719 10.1792L16.8896 10.6787C16.8542 10.6995 16.8201 10.7222 16.7873 10.7469C16.7873 10.8512 16.7712 11.3246 16.7873 11.7799C16.7873 12.2894 16.8254 12.8109 16.8254 12.8169V12.837L16.6148 13.0035L16.5125 13.0837C16.4002 13.17 16.2617 13.2843 16.1113 13.4127C15.6095 13.8374 15.1307 14.2887 14.6771 14.7646L14.306 15.1518L13.969 15.5529C13.7685 15.7796 13.5899 16.0023 13.4355 16.2008L13.1587 16.5519L12.8478 16.9891H12.4646C12.3122 16.9891 12.1216 16.9891 11.907 16.9891C11.6001 16.9891 11.2812 17.0112 10.9582 17.0333L10.4127 17.0734L9.85903 17.1356C9.48795 17.1817 9.11285 17.2339 8.74377 17.294C8.37469 17.3542 8.05376 17.4264 7.77494 17.4946C7.54025 17.5448 7.30557 17.5989 7.0769 17.6551C6.95254 17.6832 6.87631 17.7052 6.8362 17.7153L6.6677 18.0843C6.64564 18.1345 6.62157 18.1886 6.59349 18.2488C6.48918 18.4795 6.3588 18.7663 6.23043 19.1093C5.8076 20.1577 5.46233 21.2358 5.19741 22.3348C4.93072 23.4328 4.74104 24.5481 4.62975 25.6725L4.5455 26.7838L4.53547 27.197Z" fill="#673FFF"/>
<path d="M5.4984 28.0071L4.81641 27.991L4.82644 27.626C4.82644 27.5457 4.82644 27.4575 4.82644 27.3592C4.82644 27.1586 4.83646 26.9219 4.85051 26.6551C4.91184 25.6683 5.03444 24.6862 5.21758 23.7145C5.27575 23.3394 5.36401 22.9623 5.45026 22.5993L5.54654 22.1821C5.70701 21.5803 5.82134 21.1791 5.92565 20.8482L6.23656 19.9295C6.32281 19.6948 6.37697 19.5664 6.37697 19.5664L7.0048 19.8292C7.0048 19.8292 6.95466 19.9515 6.88044 20.1541L6.56752 21.0608C6.46924 21.3777 6.36694 21.7769 6.20246 22.3485C6.17438 22.4729 6.14028 22.6133 6.10818 22.7497C6.02394 23.1007 5.93969 23.4638 5.88353 23.8269C5.70771 24.7754 5.59247 25.7341 5.53852 26.6972C5.52448 26.952 5.51846 27.1807 5.51445 27.3732C5.51445 27.4755 5.51445 27.5738 5.51445 27.648L5.4984 28.0071Z" fill="#673FFF"/>
<path d="M51.4628 28.0071V27.644C51.4628 27.5678 51.4628 27.4775 51.4628 27.3752C51.4628 27.1746 51.4628 26.952 51.4407 26.6932C51.3857 25.7383 51.2711 24.7876 51.0977 23.8469C51.0396 23.4698 50.9533 23.1068 50.8711 22.7557C50.837 22.6113 50.8049 22.4689 50.7728 22.3305C50.6223 21.7749 50.508 21.3757 50.4077 21.0507L50.1028 20.1481C50.0306 19.9475 49.9805 19.8332 49.9805 19.8292L50.6083 19.5664C50.6083 19.5664 50.6625 19.6948 50.7447 19.9214L51.0556 20.8401C51.1619 21.1811 51.2783 21.5883 51.4347 22.168C51.4688 22.3184 51.5009 22.4589 51.535 22.5993C51.6213 22.9623 51.7095 23.3394 51.7697 23.7286C51.948 24.6944 52.0652 25.6705 52.1207 26.6511C52.1368 26.9239 52.1408 27.1626 52.1448 27.3612C52.1448 27.4595 52.1448 27.5457 52.1448 27.622V27.991L51.4628 28.0071Z" fill="#673FFF"/>
<path d="M48.6298 24.9816C48.6249 24.9297 48.6169 24.8781 48.6057 24.8271L48.5295 24.4059C48.5174 24.3437 48.5074 24.2755 48.4954 24.2053C48.4733 24.0789 48.4512 23.9486 48.4211 23.8041L48.2647 23.1302C48.2286 22.9577 48.1804 22.7892 48.1343 22.6267L48.0862 22.4622C48.0634 22.382 48.0414 22.3038 48.02 22.2275C47.9859 22.1032 47.9538 21.9868 47.9197 21.8825L47.7371 21.345L47.1755 21.1825L46.5597 21.032L46.4755 20.8194C46.4574 20.7773 46.4373 20.7292 46.4173 20.673C46.3752 20.5647 46.325 20.4303 46.2528 20.2718C45.9739 19.6312 45.6599 19.0064 45.3121 18.4003C44.2541 16.5632 42.9054 14.9096 41.3184 13.504C40.4734 12.7509 39.5632 12.0742 38.5984 11.4821C37.7544 10.9709 36.8757 10.5191 35.9687 10.1302C35.327 9.86336 34.6723 9.62905 34.007 9.42812L33.4414 9.26765C33.3691 9.24559 33.2989 9.22754 33.2408 9.21751H33.2067V9.19143C33.1886 9.13928 33.0061 8.65988 32.7092 7.95983C32.5387 7.55866 32.308 7.12539 32.1075 6.70817C31.9069 6.29095 31.6281 5.82158 31.3051 5.29203C31.1487 5.03729 30.9962 4.79658 30.8498 4.57594C30.7034 4.35529 30.5369 4.12663 30.3764 3.90598C30.1136 3.54693 29.7746 3.08759 29.4697 2.72854C28.9703 2.12678 28.5832 1.70555 28.5109 1.62531H28.2161L27.3255 1.64939C27.0667 1.64939 26.7739 1.67947 26.4369 1.70555L25.9475 1.74366C25.7729 1.7557 25.5904 1.77977 25.3999 1.80384L25.103 1.84195L24.8663 1.87204C24.6416 1.90012 24.409 1.93021 24.1723 1.97634C22.691 2.21693 21.2338 2.58744 19.8175 3.08358C15.1327 4.71649 11.0026 7.63623 7.9007 11.5082L7.319 12.2524L6.5668 13.3155L6.06533 14.0998C5.92492 14.3124 5.81661 14.5009 5.72835 14.6594C5.68422 14.7356 5.64611 14.8058 5.61 14.86L5.46157 15.1167C5.49567 15.2251 5.62404 15.6343 5.84068 16.1979C5.98109 16.575 6.12752 16.9421 6.27394 17.2871C6.45247 17.6883 6.64302 18.0894 6.83558 18.4906C7.02815 18.8918 7.25682 19.293 7.45139 19.64C7.64595 19.987 7.85256 20.3099 8.02707 20.5928C8.38211 21.1343 8.62883 21.4793 8.62883 21.4814L8.64287 21.4994L8.54057 21.8023L8.26577 22.7671L8.13137 23.3508L8.04713 23.3328L8.18353 22.745L8.45833 21.7782L8.54659 21.5134C8.49243 21.4372 8.26175 21.1123 7.94483 20.6389C7.75828 20.3561 7.56371 20.0251 7.36513 19.6821C7.16655 19.3391 6.9439 18.9339 6.74733 18.5287C6.55075 18.1235 6.36421 17.7264 6.18368 17.3252C6.03725 16.9782 5.89082 16.6111 5.74841 16.234C5.51974 15.6323 5.38735 15.209 5.36328 15.1308V15.1127V15.0947L5.51974 14.8219C5.55584 14.7617 5.59396 14.6935 5.63808 14.6213C5.72634 14.4648 5.83867 14.2723 5.97708 14.0556L6.51665 13.2172L7.23475 12.2143L7.82046 11.454C9.84247 8.9317 12.3088 6.8005 15.0977 5.16566C16.5854 4.29673 18.154 3.57456 19.7814 3.00936C21.2015 2.50943 22.6627 2.1349 24.1482 1.89009C24.3869 1.84395 24.6216 1.81387 24.8482 1.78578L25.0849 1.7557L25.3798 1.71758C25.5804 1.69351 25.7549 1.66944 25.9334 1.6554L26.4208 1.6193C26.7598 1.59121 27.0547 1.56915 27.3155 1.56113L28.2061 1.53906C28.4066 1.53906 28.521 1.53906 28.521 1.53906H28.539L28.5531 1.5531C28.5531 1.5531 28.9723 2.00843 29.5259 2.67438C29.8328 3.03544 30.1738 3.49478 30.4366 3.85583C30.599 4.07849 30.7575 4.30314 30.912 4.5278C31.0664 4.75245 31.2128 4.99115 31.3713 5.2459C31.7003 5.77946 31.9731 6.24883 32.1737 6.66805C32.3742 7.08728 32.6129 7.52857 32.7754 7.92573C33.0582 8.58165 33.2307 9.04099 33.2689 9.14529C33.321 9.15733 33.3852 9.17538 33.4494 9.19544L34.015 9.35591C34.6857 9.55631 35.3459 9.79063 35.9928 10.058C36.9033 10.4485 37.7854 10.9023 38.6325 11.4159C39.6073 12.0078 40.5276 12.6851 41.3826 13.4398C42.9782 14.8573 44.3331 16.5245 45.3943 18.3763C45.7433 18.9855 46.0567 19.6144 46.333 20.2598C46.4073 20.4122 46.4594 20.5486 46.5015 20.661C46.5216 20.7151 46.5396 20.7633 46.5577 20.8054L46.6259 20.9779L47.2016 21.1183L47.8033 21.2948L48.0039 21.8745C48.036 21.9808 48.0701 22.0972 48.1042 22.2215C48.1269 22.2977 48.149 22.376 48.1704 22.4562L48.2186 22.6227C48.2647 22.7852 48.3148 22.9557 48.3489 23.1302L48.5054 23.8041C48.5355 23.9425 48.5595 24.0749 48.5796 24.2053C48.5916 24.2762 48.6037 24.3431 48.6157 24.4059L48.6919 24.8251C48.7032 24.8801 48.7113 24.9357 48.716 24.9916L48.6298 24.9816Z" fill="#673FFF"/>
<path d="M3.91432 25.2914H3.83008L3.96648 24.2303L4.1811 23.0268L4.3516 22.2907C4.41579 22.0058 4.47597 21.7471 4.55219 21.4763C4.89915 20.1918 5.35271 18.9384 5.90815 17.7293C7.7382 13.7186 10.6014 10.2664 14.2044 7.72609C14.5354 7.47937 14.8583 7.27678 15.1692 7.0782C15.2936 6.99997 15.4159 6.92375 15.5303 6.84752C15.8131 6.67702 16.0739 6.52659 16.3045 6.3962L16.5934 6.23172C17.1951 5.9168 17.5422 5.74029 17.5462 5.73828H17.5622L17.8791 5.87067C18.1359 5.97698 18.3987 6.09733 18.6534 6.21768L18.7597 6.26983C19.0466 6.40824 19.3615 6.5667 19.7105 6.75525C20.0996 6.97189 20.4888 7.19855 20.8659 7.42922C21.243 7.6599 21.6361 7.9347 21.9611 8.16337L22.4405 8.51038L22.8657 8.84536C23.307 9.2004 23.6059 9.46116 23.6681 9.52535C23.8205 9.48724 24.7512 9.25657 25.69 9.12418L26.4482 9.02589C26.6006 9.01185 26.7451 8.99981 26.8795 8.99179L27.1161 8.97374C27.4371 8.94164 27.6738 8.93763 27.748 8.93763C27.8142 8.83132 27.9486 8.61268 28.099 8.39404L28.5002 7.81435L29.2544 7.83441C29.4409 7.83441 29.6034 7.84444 29.7619 7.86048L30.0086 7.87854C30.3155 7.9006 30.6645 7.92668 31.0276 7.98084C31.3906 8.03499 31.7978 8.09116 32.183 8.15936L32.4618 8.2095C32.6142 8.23959 32.7687 8.2757 32.9151 8.3098L33.1839 8.37198L33.5349 8.45422L33.8779 8.55251L34.1327 8.62472C34.265 8.66082 34.3954 8.69693 34.5198 8.73504L35.0874 8.93563C35.3462 9.01787 35.5669 9.10612 35.7454 9.17834L35.9279 9.25055L36.2448 9.37491L36.2127 9.45314L35.9038 9.31674L35.7193 9.24453C35.5428 9.17432 35.3181 9.08607 35.0674 9.00583L34.4997 8.80525C34.3774 8.76713 34.249 8.73103 34.1166 8.69492L33.8599 8.62472L33.5209 8.52844L33.1698 8.4482L32.895 8.39003C32.7466 8.35393 32.5962 8.31983 32.4437 8.28974L32.1669 8.23959C31.7818 8.17139 31.3866 8.09918 31.0135 8.06107C30.6404 8.02296 30.3055 7.98084 30.0106 7.95877L29.7639 7.94072C29.6054 7.92467 29.445 7.91665 29.2604 7.91464L28.5503 7.89659L28.1813 8.43817C28.0268 8.66885 27.8804 8.90353 27.8242 8.99179L27.8102 9.01185H27.7841C27.5677 9.01198 27.3514 9.02336 27.1362 9.04595L26.8975 9.064C26.7631 9.07403 26.6207 9.08406 26.4703 9.10011L25.712 9.19639C24.6971 9.34482 23.6881 9.59756 23.6781 9.59756H23.656L23.64 9.58151C23.64 9.58151 23.319 9.29668 22.8136 8.8915L22.3943 8.56053L21.9169 8.21352C21.594 7.98685 21.2109 7.72007 20.8258 7.48338C20.4406 7.24669 20.0635 7.02805 19.6744 6.81142C19.3374 6.62487 19.0145 6.46641 18.7296 6.328L18.6213 6.27786C18.3646 6.15349 18.1038 6.03314 17.8471 5.91881L17.5662 5.81651C17.488 5.85462 17.1651 6.0171 16.6355 6.29792L16.3467 6.4624C16.118 6.59278 15.8572 6.74121 15.5764 6.91171L15.2154 7.14239C14.9045 7.34297 14.5835 7.54356 14.2546 7.78627C10.6673 10.3167 7.81614 13.7542 5.9924 17.7474C5.43768 18.9531 4.98478 20.2031 4.63844 21.4843C4.55821 21.7531 4.49803 22.0098 4.43785 22.2867L4.26936 23.0228L4.05473 24.2263L3.91432 25.2914Z" fill="#673FFF"/>
<path d="M21.7805 5.74173C21.7805 5.74173 21.6321 5.63742 21.4074 5.493C21.1828 5.34858 20.8779 5.16203 20.563 4.9775C19.9351 4.59839 19.2772 4.27344 19.2772 4.27344L18.6434 4.52417C18.3284 4.65856 18.0195 4.80098 18.0195 4.80098L18.4388 4.98953L18.862 5.19012L19.3414 5.43483C19.6663 5.60333 19.9813 5.77583 20.2119 5.90621C20.4426 6.03659 20.5991 6.13287 20.5991 6.13087L21.1868 5.93028L21.588 5.79388L21.7805 5.74173Z" fill="#673FFF"/>
<path d="M23.7837 5.23169C23.7837 5.23169 23.2341 4.79241 22.6404 4.36316C22.3415 4.14452 22.0386 3.94794 21.8099 3.7975L21.4208 3.55078L21.2202 3.60895C21.0978 3.64506 20.9314 3.68718 20.7709 3.74334L20.125 3.96198L20.5262 4.19065C20.7649 4.33106 21.0758 4.50758 21.3827 4.70816C22.0005 5.10934 22.5722 5.51051 22.5722 5.51051C22.5722 5.51051 22.6464 5.48644 22.7607 5.46237L23.1779 5.36609L23.7837 5.23169Z" fill="#673FFF"/>
<path d="M25.827 4.91307C25.827 4.91307 25.3196 4.41962 24.7659 3.93621C24.2123 3.4528 23.6246 3.01953 23.6246 3.01953L23.424 3.05764C23.2976 3.07971 23.1332 3.12183 22.9667 3.15994L22.3027 3.31239C22.3027 3.31239 22.9185 3.73562 23.4902 4.1709C23.779 4.38954 24.0599 4.62623 24.2645 4.79673L24.6035 5.08758L24.804 5.05348C24.9184 5.02941 25.0728 5.00935 25.2273 4.99129L25.827 4.91307Z" fill="#673FFF"/>
<path d="M27.8837 4.7717L27.5888 4.43471C27.4083 4.23413 27.1656 3.96133 26.9128 3.70859C26.4094 3.19308 25.8578 2.68359 25.8578 2.68359L25.1818 2.76784L24.7184 2.82802C24.5901 2.84206 24.5078 2.86011 24.5078 2.86011C24.5078 2.86011 24.6502 2.97444 24.8608 3.15698C25.0715 3.33951 25.3483 3.58222 25.615 3.82493C25.8818 4.06764 26.1386 4.31637 26.3291 4.51294L26.64 4.83388L27.2619 4.78774L27.8837 4.7717Z" fill="#673FFF"/>
<path d="M29.9569 4.81514L29.6881 4.44405C29.5276 4.24347 29.307 3.95061 29.0864 3.66979C28.8657 3.38897 28.619 3.10414 28.4365 2.89753L28.1276 2.56055L27.4476 2.57659C27.2771 2.57659 27.1086 2.58662 26.9802 2.59866L26.7676 2.61471L27.0945 2.93564C27.2951 3.13623 27.5418 3.40501 27.7845 3.67179C28.0273 3.93857 28.264 4.21137 28.4345 4.41396C28.6049 4.61656 28.7173 4.76298 28.7173 4.76298L29.3391 4.77903C29.646 4.78104 29.9569 4.81514 29.9569 4.81514Z" fill="#673FFF"/>
<path d="M8.10762 16.5722L7.50586 16.2332L7.68238 15.9243C7.79069 15.7237 7.93712 15.477 8.1016 15.2323L8.52083 14.5764L8.73545 14.2715L9.29308 14.6727L9.0925 14.9635L8.6813 15.6054C8.52885 15.8361 8.38844 16.0788 8.28012 16.2573L8.10762 16.5722Z" fill="#673FFF"/>
<path d="M26.3897 9.07537L26.1771 9.40835L25.7759 9.45849C25.6776 9.46852 25.5753 9.48256 25.5071 9.4966L25.3848 9.52068L25.0879 9.26593L25.2885 8.92493L25.4148 8.90086C25.4911 8.88482 25.5934 8.87278 25.6957 8.86075L26.0968 8.80859L26.3897 9.07537Z" fill="#673FFF"/>
<path d="M25.351 9.6567L24.9277 9.29364L25.2086 8.80822L25.3931 8.77613C25.4593 8.76209 25.5536 8.74804 25.6799 8.732L26.1453 8.67383L26.5465 9.05494L26.2456 9.52632L25.7903 9.58449C25.7033 9.59218 25.6169 9.60491 25.5315 9.6226L25.351 9.6567ZM25.2567 9.23748L25.4252 9.3819L25.4874 9.37187C25.5516 9.35783 25.6438 9.34379 25.7662 9.32974L26.1012 9.28762L26.2235 9.09706L26.059 8.94261L25.71 8.98674C25.6117 8.99878 25.5094 9.01081 25.4412 9.02686L25.371 9.0389L25.2567 9.23748Z" fill="#673FFF"/>
<path d="M14.4097 14.9577L14.4338 15.1583L14.4619 15.3589L13.9363 15.9606C13.9363 15.9606 13.836 15.9606 13.7357 15.9606H13.5352C13.5352 15.9606 13.5171 15.8644 13.497 15.7601C13.477 15.6558 13.4609 15.5595 13.4609 15.5595L14.0045 14.9316H14.2051L14.4097 14.9577Z" fill="#673FFF"/>
<path d="M13.4381 16.0864L13.3779 15.7855C13.3578 15.6852 13.3418 15.5849 13.3418 15.5849V15.5247L13.9616 14.8066L14.5212 14.8427L14.5935 15.3924L13.9917 16.0884H13.741L13.4381 16.0864ZM13.6046 15.605C13.6046 15.6391 13.6186 15.6872 13.6286 15.7354L13.6467 15.8256H13.8754L14.3247 15.3061L14.2946 15.0814L14.0679 15.0714L13.6046 15.605Z" fill="#673FFF"/>
<path d="M15.7042 13.6868V13.8874C15.7042 13.9837 15.7042 14.088 15.7042 14.088L15.1225 14.6416L14.7354 14.6115L14.6973 14.2103L15.299 13.6387C15.299 13.6387 15.3953 13.6387 15.4996 13.6627L15.7042 13.6868Z" fill="#673FFF"/>
<path d="M15.1837 14.7637L14.6421 14.7216L14.5859 14.1559L15.2639 13.5H15.3221C15.3221 13.5 15.4224 13.5 15.5227 13.5261L15.8256 13.5702V13.8731C15.8256 13.9654 15.8256 14.0616 15.8256 14.0616V14.1238L15.1837 14.7637ZM14.8648 14.4829L15.0894 14.5009L15.5869 14.0275C15.5869 13.9874 15.5869 13.9353 15.5869 13.8851V13.7989L15.4966 13.7848L15.3642 13.7668L14.8427 14.2542L14.8648 14.4829Z" fill="#673FFF"/>
<path d="M19.9886 9.38659C19.9051 9.3802 19.8251 9.35074 19.7575 9.3015C19.6898 9.25227 19.6372 9.18519 19.6054 9.10777C19.5501 8.99388 19.5415 8.86288 19.5814 8.74271C19.5959 8.70235 19.6182 8.66527 19.6472 8.63359C19.6761 8.60192 19.711 8.57629 19.7499 8.55817C19.8509 8.53508 19.9568 8.54763 20.0497 8.5937C20.1425 8.63977 20.2166 8.71653 20.2593 8.81096C20.302 8.90539 20.3108 9.01169 20.2841 9.11184C20.2574 9.212 20.197 9.29985 20.1129 9.36051C20.0739 9.37814 20.0314 9.38704 19.9886 9.38659ZM19.8782 8.78483C19.871 8.78277 19.8634 8.78277 19.8562 8.78483C19.8477 8.78882 19.8402 8.79469 19.8343 8.80198C19.8284 8.80928 19.8242 8.81781 19.8221 8.82695C19.8058 8.88244 19.8115 8.94208 19.8381 8.99344C19.8843 9.09173 19.9665 9.13987 20.0066 9.12181C20.0467 9.10376 20.0688 9.0135 20.0227 8.90919C20.0105 8.87849 19.991 8.85125 19.9658 8.82991C19.9406 8.80856 19.9105 8.79377 19.8782 8.78684V8.78483Z" fill="#673FFF"/>
<path d="M4.11559 42.8406L3.76456 42.2549C3.70037 42.1546 3.64421 42.0543 3.59406 41.9581L3.43359 41.6592L4.44856 41.1016L4.60502 41.3924C4.65316 41.4807 4.70531 41.579 4.76549 41.6752L5.10448 42.2389L4.11559 42.8406ZM3.56999 41.6993L3.68232 41.9099C3.73247 42.0002 3.78863 42.1105 3.85081 42.2048L4.14969 42.7022L4.96607 42.2048L4.68124 41.7214C4.61906 41.6231 4.5649 41.5208 4.51676 41.4345L4.40844 41.234L3.56999 41.6993Z" fill="#673FFF"/>
<path d="M3.23864 41.3009L3.1223 41.0843L2.63086 40.0813L3.67792 39.5879L4.1513 40.5527L4.26363 40.7533L3.23864 41.3009ZM2.76525 40.1295L3.28076 41.1665L4.12723 40.7192L4.06104 40.5968L3.63179 39.7163L2.76525 40.1295Z" fill="#673FFF"/>
<path d="M2.46119 39.7163L2.18639 39.0925C2.13022 38.9661 2.06804 38.8177 2.0199 38.6913L1.93164 38.4627L3.00879 38.0254L3.09504 38.25C3.14118 38.3704 3.19734 38.5108 3.2535 38.6312L3.51627 39.2329L2.46119 39.7163ZM2.06002 38.5128L2.11217 38.6492C2.16031 38.7776 2.22048 38.922 2.27665 39.0504L2.50933 39.5819L3.38389 39.1808L3.15923 38.6713C3.10306 38.5489 3.04489 38.4065 2.99876 38.2821L2.94861 38.1538L2.06002 38.5128Z" fill="#673FFF"/>
<path d="M0.509813 33.6141V33.5659C0.509813 33.5659 0.44362 33.253 0.389461 32.9461L0.285156 32.2722L1.4285 32.0977L1.5308 32.7476C1.58295 33.0424 1.64513 33.3373 1.64513 33.3493L1.65717 33.3995L0.509813 33.6141ZM0.389461 32.3564L0.477719 32.9301C0.519842 33.1628 0.567983 33.3975 0.588042 33.4977L1.52478 33.3112C1.50472 33.229 1.47664 33.0705 1.42048 32.7636L1.33623 32.212L0.389461 32.3564Z" fill="#673FFF"/>
<path d="M0.877051 35.2287L0.712571 34.5668C0.644371 34.302 0.590213 34.0292 0.576172 33.953V33.9049L0.624313 33.8908L1.70748 33.6602V33.7143C1.72152 33.7885 1.77367 34.0453 1.83987 34.3L1.99632 34.9379L0.877051 35.2287ZM0.676465 33.9791C0.69853 34.0874 0.744664 34.3161 0.80484 34.5427L0.949262 35.1024L1.87597 34.8617L1.74358 34.3201C1.68541 34.1035 1.63928 33.8828 1.61922 33.7765L0.676465 33.9791Z" fill="#673FFF"/>
<path d="M6.3754 46.0378L5.6914 45.1632C5.61317 45.0649 5.56905 44.9987 5.56905 44.9987L5.54297 44.9586L6.61009 44.1562L6.51782 44.3288C6.53587 44.3548 6.56796 44.399 6.61209 44.4531L7.27403 45.2976L6.3754 46.0378ZM5.67937 44.9807C5.69943 45.0087 5.72951 45.0489 5.76763 45.097L6.39145 45.8993L7.13362 45.2976L6.53186 44.5293L6.44761 44.417L5.67937 44.9807Z" fill="#673FFF"/>
<path d="M51.9361 13.8941L51.7536 13.5952C51.6974 13.5029 51.6352 13.3946 51.563 13.2923L51.1719 12.7026L52.1327 12.0547L52.5339 12.6685C52.6101 12.7768 52.6763 12.8891 52.7344 12.9894L52.917 13.2943L51.9361 13.8941ZM51.3143 12.7287L51.6513 13.2381C51.7235 13.3445 51.7877 13.4508 51.8519 13.5471L51.9782 13.7476L52.7986 13.2522L52.6662 13.0315C52.6081 12.9353 52.5419 12.831 52.4657 12.7166L52.1146 12.1871L51.3143 12.7287Z" fill="#673FFF"/>
<path d="M52.8363 15.5029L52.2847 14.4819L52.1523 14.2633L53.1553 13.6836L53.2897 13.9082L53.8633 14.9714L52.8363 15.5029ZM52.2928 14.2994L52.373 14.4318L52.8785 15.3685L53.7289 14.9292L53.2054 13.9584L53.1212 13.82L52.2928 14.2994Z" fill="#673FFF"/>
<path d="M53.6191 17.172L53.5188 16.9353C53.4666 16.8049 53.3984 16.6565 53.3342 16.5341L53.0273 15.8963L54.0664 15.3848L54.3833 16.0467C54.4515 16.1831 54.5237 16.3396 54.5839 16.478L54.6862 16.7187L53.6191 17.172ZM53.1557 15.9344L53.4205 16.482C53.4867 16.6144 53.5549 16.7648 53.607 16.8972L53.6692 17.0396L54.5458 16.6585L54.4836 16.5081C54.4274 16.3717 54.3572 16.2172 54.283 16.0828L54.0102 15.5111L53.1557 15.9344Z" fill="#673FFF"/>
<path d="M55.4857 23.5544L55.3613 22.8664C55.2991 22.5474 55.2269 22.2285 55.2249 22.2265L55.2129 22.1764L56.3462 21.9316L56.3582 21.9818C56.3582 21.9818 56.4345 22.3188 56.4986 22.6517L56.621 23.3759L55.4857 23.5544ZM55.3433 22.2426C55.3653 22.3288 55.3994 22.4993 55.4656 22.8443L55.5679 23.4461L56.5127 23.2896L56.4064 22.6658C56.3562 22.409 56.3001 22.1523 56.276 22.048L55.3433 22.2426Z" fill="#673FFF"/>
<path d="M55.1596 21.8646L55.1495 21.8145C55.1495 21.8145 55.0833 21.4895 54.9931 21.1786L54.8105 20.4946L55.9238 20.1797L56.1244 20.8898C56.2187 21.2147 56.2869 21.5517 56.2889 21.5557V21.6039L55.1596 21.8646ZM54.9329 20.5648L55.0894 21.1525C55.1596 21.3932 55.2137 21.64 55.2378 21.7543L56.1705 21.5377C56.1465 21.4334 56.0903 21.1766 56.0181 20.9359L55.8536 20.3341L54.9329 20.5648Z" fill="#673FFF"/>
<path d="M49.577 10.5701L49.547 10.528C49.547 10.528 49.4968 10.4638 49.4186 10.3735L48.6523 9.50098L49.5068 8.7207L50.3092 9.62535C50.3934 9.72364 50.4476 9.79384 50.4476 9.79384L50.4757 9.83195L49.577 10.5701ZM48.7928 9.50901L49.4928 10.3114C49.5369 10.3595 49.571 10.4016 49.5951 10.4317L50.3313 9.81992C50.3072 9.78983 50.2731 9.74771 50.2269 9.69555L49.4988 8.86713L48.7928 9.50901Z" fill="#673FFF"/>
</svg>
