<svg width="49" height="48" viewBox="0 0 49 48" fill="none" xmlns="http://www.w3.org/2000/svg">
<path fill-rule="evenodd" clip-rule="evenodd" d="M24.8086 44C15.972 44 8.80859 36.7082 8.80859 27.7134C8.80859 18.7891 13.9152 8.37518 21.8827 4.65111C22.8114 4.21704 23.81 4 24.8086 4V44Z" fill="#FA6900"/>
<path opacity="0.3" d="M27.7345 4.65111C26.8058 4.21704 25.8072 4 24.8086 4V18.0001L33.6719 9.13682C31.9465 7.24118 29.9512 5.68722 27.7345 4.65111Z" fill="#FA6900"/>
<path opacity="0.4" d="M24.8086 18V29L38.0371 15.7714C36.8929 13.3311 35.421 11.0583 33.6719 9.13672L24.8086 18Z" fill="#FA6900"/>
<path opacity="0.6" d="M24.8086 39.0001L40.4306 23.3781C39.9907 20.7971 39.1763 18.2012 38.0371 15.7715L24.8086 29.0001V39.0001Z" fill="#FA6900"/>
<path opacity="0.7" d="M40.4306 23.3789L24.8086 39.0009V44.0008C33.6451 44.0008 40.8086 36.709 40.8086 27.7142C40.8086 26.2958 40.6796 24.8397 40.4306 23.3789Z" fill="#FA6900"/>
</svg>
