<svg width="16" height="17" viewBox="0 0 16 17" fill="none" xmlns="http://www.w3.org/2000/svg">
<path d="M12.5238 5.24141C12.1447 4.49389 11.5837 3.85368 10.8925 3.37963C10.2012 2.90558 9.40193 2.6129 8.56802 2.52851C8.19078 2.49066 7.8107 2.49066 7.43347 2.52851C6.59958 2.61296 5.80028 2.90562 5.10902 3.37962C4.41776 3.85361 3.85671 4.49373 3.47742 5.24116C3.00021 6.19483 2.81589 7.2684 2.94766 8.32663C3.07943 9.38486 3.52141 10.3804 4.21792 11.188L7.61437 15.3174C7.66127 15.3744 7.72024 15.4204 7.78702 15.4519C7.85381 15.4835 7.92675 15.4999 8.00062 15.4999C8.07448 15.4999 8.14743 15.4835 8.21421 15.4519C8.281 15.4204 8.33996 15.3744 8.38687 15.3174L11.7833 11.188C12.4798 10.3805 12.9218 9.38495 13.0536 8.32676C13.1853 7.26857 13.001 6.19504 12.5238 5.24141ZM8.00062 9.49971C7.60506 9.49971 7.21838 9.38241 6.88948 9.16265C6.56058 8.94289 6.30423 8.63053 6.15286 8.26508C6.00148 7.89962 5.96188 7.49749 6.03905 7.10953C6.11622 6.72157 6.3067 6.3652 6.58641 6.0855C6.86611 5.80579 7.22248 5.61531 7.61044 5.53814C7.9984 5.46097 8.40053 5.50058 8.76599 5.65195C9.13144 5.80333 9.44379 6.05967 9.66356 6.38857C9.88332 6.71747 10.0006 7.10415 10.0006 7.49971C10 8.02995 9.78908 8.5383 9.41414 8.91324C9.03921 9.28817 8.53086 9.49909 8.00062 9.49971Z" fill="#BB2525"/>
</svg>
