<svg width="16" height="17" viewBox="0 0 16 17" fill="none" xmlns="http://www.w3.org/2000/svg">
<g clip-path="url(#clip0_186_2268)">
<path d="M10.3674 9.66418L9.02736 11.0087C8.48395 11.5541 7.52783 11.5658 6.97267 11.0087L5.63258 9.66418L0.81958 14.4928C0.998736 14.5757 1.19627 14.6251 1.40627 14.6251H14.5938C14.8038 14.6251 15.0012 14.5757 15.1803 14.4928L10.3674 9.66418Z" fill="#BB2525"/>
<path d="M14.5935 3.37512H1.40596C1.19596 3.37512 0.99843 3.42456 0.819336 3.5074L5.96237 8.6675C5.96271 8.66784 5.96312 8.6679 5.96346 8.66825C5.9638 8.66859 5.96387 8.66906 5.96387 8.66906L7.63615 10.3469C7.81377 10.5245 8.18571 10.5245 8.36334 10.3469L10.0353 8.66934C10.0353 8.66934 10.0357 8.66859 10.036 8.66825C10.036 8.66825 10.0368 8.66784 10.0371 8.6675L15.18 3.50737C15.0009 3.4245 14.8035 3.37512 14.5935 3.37512Z" fill="#BB2525"/>
<path d="M0.149562 4.16321C0.056875 4.35065 0 4.55871 0 4.78158V13.2191C0 13.442 0.0568125 13.65 0.149531 13.8375L4.97087 9.00049L0.149562 4.16321Z" fill="#BB2525"/>
<path d="M15.8506 4.16321L11.0293 9.00055L15.8506 13.8376C15.9433 13.6501 16.0001 13.4421 16.0001 13.2191V4.78165C16.0001 4.55871 15.9433 4.35065 15.8506 4.16321Z" fill="#BB2525"/>
</g>
<defs>
<clipPath id="clip0_186_2268">
<rect width="16" height="16" fill="white" transform="translate(0 0.617798)"/>
</clipPath>
</defs>
</svg>
