<svg width="20" height="21" viewBox="0 0 20 21" fill="none" xmlns="http://www.w3.org/2000/svg">
<g clip-path="url(#clip0_360_12)">
<path d="M12.9592 11.2781L11.2841 12.9588C10.6049 13.6404 9.40973 13.6551 8.71578 12.9588L7.04066 11.2781L1.02441 17.3139C1.24836 17.4174 1.49527 17.4792 1.75777 17.4792H18.2421C18.5046 17.4792 18.7515 17.4175 18.9754 17.3139L12.9592 11.2781Z" fill="white"/>
<path d="M18.2421 3.41675H1.7577C1.4952 3.41675 1.24828 3.47854 1.02441 3.5821L7.4532 10.0322C7.45363 10.0326 7.45414 10.0327 7.45457 10.0332C7.455 10.0336 7.45508 10.0342 7.45508 10.0342L9.54543 12.1314C9.76746 12.3535 10.2324 12.3535 10.4544 12.1314L12.5443 10.0345C12.5443 10.0345 12.5448 10.0336 12.5453 10.0332C12.5453 10.0332 12.5462 10.0326 12.5466 10.0322L18.9753 3.58206C18.7514 3.47847 18.5046 3.41675 18.2421 3.41675Z" fill="white"/>
<path d="M0.186953 4.40161C0.0710937 4.63591 0 4.89599 0 5.17458V15.7215C0 16 0.0710156 16.2601 0.186914 16.4944L6.21359 10.4482L0.186953 4.40161Z" fill="white"/>
<path d="M19.8137 4.40161L13.7871 10.4483L19.8137 16.4946C19.9296 16.2603 20.0007 16.0002 20.0007 15.7215V5.17466C20.0007 4.89599 19.9296 4.63591 19.8137 4.40161Z" fill="white"/>
</g>
<defs>
<clipPath id="clip0_360_12">
<rect width="20" height="20" fill="white" transform="translate(0 0.447998)"/>
</clipPath>
</defs>
</svg>
