<svg width="38" height="24" viewBox="0 0 38 24" fill="none" xmlns="http://www.w3.org/2000/svg">
<rect x="0.5" y="0.5" width="37" height="23" rx="3.5" fill="white"/>
<rect x="0.5" y="0.5" width="37" height="23" rx="3.5" stroke="#F2F4F7"/>
<path d="M24.5662 11.9523C25.1599 11.9638 25.7571 11.9288 26.3484 11.9705C26.9474 12.0704 27.0917 12.8817 26.5596 13.1474C26.1966 13.3224 25.7653 13.2125 25.3717 13.2434H24.5662V11.9523ZM26.6918 10.4909C26.8237 10.9075 26.3748 11.2816 25.9264 11.2242H24.5662C24.5757 10.8313 24.5475 10.4049 24.58 10.0327C25.1249 10.0464 25.6748 10.0047 26.2165 10.0545C26.4493 10.1068 26.6441 10.278 26.6918 10.4909ZM29.9653 4.31253C29.9906 5.10817 29.9689 5.94586 29.9762 6.75764C29.9745 10.058 29.9797 13.3583 29.9733 16.6589C29.9494 17.8958 28.7243 18.9706 27.3514 18.9953C25.9772 19.0003 24.6028 18.9961 23.2285 18.9974V14.0079C24.7259 14.001 26.2241 14.022 27.721 13.9975C28.4153 13.9585 29.1759 13.5485 29.2082 12.8648C29.29 12.1781 28.5664 11.7032 27.8795 11.6282C27.6154 11.622 27.6231 11.5593 27.8795 11.5319C28.5347 11.4052 29.0492 10.7985 28.8564 10.1908C28.6922 9.55172 27.9027 9.30436 27.246 9.30559C25.907 9.29745 24.5678 9.30445 23.2288 9.30209C23.2374 8.37061 23.2107 7.43812 23.2431 6.50732C23.3492 5.29275 24.6052 4.29112 25.9588 4.31285C27.2944 4.31267 28.6299 4.31267 29.9653 4.31262V4.31253Z" fill="url(#paint0_linear_366_6963)"/>
<path d="M8.09812 6.63335C8.13231 5.3984 9.3627 4.33244 10.7338 4.31439C12.1029 4.31062 13.4722 4.31385 14.8413 4.31276C14.8375 8.44462 14.8487 12.5769 14.8357 16.7086C14.7829 17.9285 13.5659 18.9742 12.2098 18.9957C10.8381 19.0002 9.46625 18.9964 8.09451 18.9976V13.8399C9.42693 14.1215 10.8242 14.2414 12.1835 14.0546C12.996 13.9376 13.885 13.5806 14.1601 12.8264C14.3625 12.1812 14.2485 11.5022 14.2787 10.8401V9.30231H11.9263C11.9157 10.3194 11.9479 11.3382 11.9093 12.354C11.8458 12.9784 11.1548 13.3751 10.4966 13.3539C9.68037 13.3616 8.0629 12.8246 8.0629 12.8246C8.05884 10.9191 8.08658 8.53273 8.09812 6.63353V6.63335Z" fill="url(#paint1_linear_366_6963)"/>
<path d="M15.7186 9.92281C15.5948 9.94631 15.6937 9.54542 15.6621 9.39335C15.6705 8.43182 15.6444 7.46924 15.6765 6.50839C15.7822 5.28867 17.0479 4.28454 18.4069 4.31309H22.4092C22.4054 8.44496 22.4165 12.5773 22.4035 16.7089C22.3507 17.9289 21.1337 18.9744 19.7775 18.9961C18.4057 19.0007 17.0339 18.9968 15.662 18.998V13.347C16.5989 14.0348 17.8723 14.1419 19.0395 14.1437C19.9195 14.1435 20.7943 14.0221 21.6488 13.8405V12.8052C20.6858 13.2347 19.5537 13.5074 18.4862 13.2607C17.7415 13.0949 17.2009 12.4509 17.213 11.7633C17.1267 11.0482 17.5952 10.2933 18.3805 10.0807C19.3557 9.80756 20.4184 10.0165 21.3324 10.3716C21.5283 10.4633 21.727 10.5771 21.6487 10.2842V9.4705C20.1201 9.14508 18.4932 9.02533 16.9574 9.37935C16.5128 9.49155 16.0797 9.66172 15.7186 9.9229V9.92281Z" fill="url(#paint2_linear_366_6963)"/>
<defs>
<linearGradient id="paint0_linear_366_6963" x1="23.1824" y1="11.341" x2="29.9336" y2="11.341" gradientUnits="userSpaceOnUse">
<stop stop-color="#58B03A"/>
<stop offset="1" stop-color="#55B330"/>
</linearGradient>
<linearGradient id="paint1_linear_366_6963" x1="7.95096" y1="11.7958" x2="14.7307" y2="11.7958" gradientUnits="userSpaceOnUse">
<stop stop-color="#0F6EB6"/>
<stop offset="1" stop-color="#006DBA"/>
</linearGradient>
<linearGradient id="paint2_linear_366_6963" x1="15.6521" y1="11.4838" x2="22.4079" y2="11.4838" gradientUnits="userSpaceOnUse">
<stop stop-color="#DE0D3D"/>
<stop offset="1" stop-color="#E30138"/>
</linearGradient>
</defs>
</svg>
