<svg width="16" height="17" viewBox="0 0 16 17" fill="none" xmlns="http://www.w3.org/2000/svg">
<path d="M13.0371 10.8767C12.3024 10.8767 11.581 10.7618 10.8974 10.5359C10.5625 10.4217 10.1507 10.5265 9.94626 10.7365L8.59698 11.755C7.03221 10.9197 6.06833 9.95618 5.24446 8.40315L6.23305 7.08903C6.48989 6.83253 6.58202 6.45784 6.47164 6.10628C6.24477 5.41909 6.12952 4.69806 6.12952 3.96306C6.12955 3.43209 5.69758 3.00012 5.16665 3.00012H2.9629C2.43197 3.00012 2 3.43209 2 3.96303C2 10.049 6.95117 15.0001 13.0371 15.0001C13.568 15.0001 14 14.5682 14 14.0372V11.8396C14 11.3087 13.568 10.8767 13.0371 10.8767Z" fill="#BB2525"/>
</svg>
