<svg width="32" height="32" viewBox="0 0 32 32" fill="none" xmlns="http://www.w3.org/2000/svg">
<path fill-rule="evenodd" clip-rule="evenodd" d="M16.7244 22.2584L17.0858 21.6479C17.3661 21.1743 17.5062 20.9375 17.7314 20.8065C17.9565 20.6756 18.2399 20.6707 18.8068 20.6609C19.6438 20.6465 20.1687 20.5953 20.6089 20.4129C21.4256 20.0746 22.0745 19.4257 22.4129 18.6089C22.6666 17.9964 22.6666 17.2198 22.6666 15.6666V15C22.6666 12.8177 22.6666 11.7265 22.1754 10.925C21.9005 10.4765 21.5234 10.0994 21.0749 9.82451C20.2733 9.33331 19.1822 9.33331 16.9999 9.33331H14.9999C12.8176 9.33331 11.7265 9.33331 10.9249 9.82451C10.4764 10.0994 10.0993 10.4765 9.82445 10.925C9.33325 11.7265 9.33325 12.8177 9.33325 15V15.6666C9.33325 17.2198 9.33325 17.9964 9.58699 18.6089C9.9253 19.4257 10.5742 20.0746 11.391 20.4129C11.8312 20.5952 12.3561 20.6465 13.193 20.6609C13.7599 20.6707 14.0433 20.6756 14.2684 20.8065C14.4936 20.9375 14.6337 21.1743 14.9141 21.6479L15.2755 22.2584C15.5976 22.8026 16.4022 22.8026 16.7244 22.2584ZM18.6666 16C19.0348 16 19.3333 15.7015 19.3333 15.3333C19.3333 14.9651 19.0348 14.6666 18.6666 14.6666C18.2984 14.6666 17.9999 14.9651 17.9999 15.3333C17.9999 15.7015 18.2984 16 18.6666 16ZM16.6666 15.3333C16.6666 15.7015 16.3681 16 15.9999 16C15.6317 16 15.3333 15.7015 15.3333 15.3333C15.3333 14.9651 15.6317 14.6666 15.9999 14.6666C16.3681 14.6666 16.6666 14.9651 16.6666 15.3333ZM13.3333 16C13.7014 16 13.9999 15.7015 13.9999 15.3333C13.9999 14.9651 13.7014 14.6666 13.3333 14.6666C12.9651 14.6666 12.6666 14.9651 12.6666 15.3333C12.6666 15.7015 12.9651 16 13.3333 16Z" fill="#4D4D4D"/>
</svg>
