<svg width="32" height="32" viewBox="0 0 32 32" fill="none" xmlns="http://www.w3.org/2000/svg">
<path fill-rule="evenodd" clip-rule="evenodd" d="M18.6666 12H13.3333C11.4476 12 10.5048 12 9.91904 12.5858C9.33325 13.1716 9.33325 14.1144 9.33325 16C9.33325 17.8856 9.33325 18.8284 9.91904 19.4142C10.2487 19.7439 10.6915 19.888 11.3519 19.951C11.3332 19.4692 11.3332 18.9015 11.3333 18.3333C11.1492 18.3333 10.9999 18.1841 10.9999 18C10.9999 17.8159 11.1492 17.6666 11.3333 17.6666H20.6666C20.8507 17.6666 20.9999 17.8159 20.9999 18C20.9999 18.1841 20.8507 18.3335 20.6666 18.3335C20.6666 18.9016 20.6666 19.4692 20.648 19.951C21.3083 19.888 21.7511 19.7439 22.0808 19.4142C22.6666 18.8284 22.6666 17.8856 22.6666 16C22.6666 14.1144 22.6666 13.1716 22.0808 12.5858C21.495 12 20.5522 12 18.6666 12ZM13.9999 15.1666C14.2761 15.1666 14.4999 14.9428 14.4999 14.6666C14.4999 14.3905 14.2761 14.1666 13.9999 14.1666H11.9999C11.7238 14.1666 11.4999 14.3905 11.4999 14.6666C11.4999 14.9428 11.7238 15.1666 11.9999 15.1666H13.9999ZM19.3333 15.3333C19.7014 15.3333 19.9999 15.0348 19.9999 14.6666C19.9999 14.2985 19.7014 14 19.3333 14C18.9651 14 18.6666 14.2985 18.6666 14.6666C18.6666 15.0348 18.9651 15.3333 19.3333 15.3333Z" fill="#4D4D4D"/>
<path d="M19.414 9.9191C18.8282 9.33331 17.8854 9.33331 15.9998 9.33331C14.1141 9.33331 13.1713 9.33331 12.5855 9.9191C12.2573 10.2473 12.113 10.6877 12.0495 11.3432C12.4224 11.3333 12.8345 11.3333 13.2862 11.3333H18.7136C19.1652 11.3333 19.5772 11.3333 19.95 11.3432C19.8865 10.6877 19.7422 10.2473 19.414 9.9191Z" fill="#4D4D4D"/>
<path d="M19.9999 18.3333C19.9999 20.2189 19.9999 21.4951 19.4141 22.0809C18.8283 22.6666 17.8855 22.6666 15.9999 22.6666C14.1143 22.6666 13.1715 22.6666 12.5857 22.0809C11.9999 21.4951 11.9999 20.2189 11.9999 18.3333H19.9999Z" fill="#4D4D4D"/>
</svg>
