<svg width="16" height="16" viewBox="0 0 16 16" fill="none" xmlns="http://www.w3.org/2000/svg">
<path d="M7.35961 10.5601V12.4801C7.35961 13.5361 6.49555 14.4001 5.43961 14.4001H3.51961C2.46367 14.4001 1.59961 13.5361 1.59961 12.4801V10.5601C1.59961 9.5042 2.46367 8.64014 3.51961 8.64014H5.43961C6.49555 8.64014 7.35961 9.5042 7.35961 10.5601Z" fill="#858585"/>
<path d="M7.35961 3.5201V5.4401C7.35961 6.49604 6.49555 7.3601 5.43961 7.3601H3.51961C2.46367 7.3601 1.59961 6.49604 1.59961 5.4401V3.5201C1.59961 2.46416 2.46367 1.6001 3.51961 1.6001H5.43961C6.49555 1.6001 7.35961 2.46416 7.35961 3.5201Z" fill="#858585"/>
<path d="M14.3996 10.5601V12.4801C14.3996 13.5361 13.5356 14.4001 12.4796 14.4001H10.5596C9.50371 14.4001 8.63965 13.5361 8.63965 12.4801V10.5601C8.63965 9.5042 9.50371 8.64014 10.5596 8.64014H12.4796C13.5356 8.64014 14.3996 9.5042 14.3996 10.5601Z" fill="#858585"/>
<path d="M14.3996 3.5201V5.4401C14.3996 6.49604 13.5356 7.3601 12.4796 7.3601H10.5596C9.50371 7.3601 8.63965 6.49604 8.63965 5.4401V3.5201C8.63965 2.46416 9.50371 1.6001 10.5596 1.6001H12.4796C13.5356 1.6001 14.3996 2.46416 14.3996 3.5201Z" fill="#858585"/>
</svg>
