<svg width="16" height="16" viewBox="0 0 16 16" fill="none" xmlns="http://www.w3.org/2000/svg">
<g clip-path="url(#clip0_122_7656)">
<path d="M8.46875 7.86439V11.4355L11.5614 9.64995V6.07886L8.46875 7.86439Z" fill="#858585"/>
<path d="M4.90723 5.26701L7.99988 7.05257L11.0925 5.26701L7.99988 3.48145L4.90723 5.26701Z" fill="#858585"/>
<path d="M7.53113 7.86439L4.43848 6.07886V9.64995L7.53113 11.4355V7.86439Z" fill="#858585"/>
<path d="M14.1163 2.68606C13.7792 2.68606 13.4704 2.80878 13.2316 3.01156L8.01549 0L2.78052 3.02241C2.54009 2.81319 2.2264 2.68606 1.8834 2.68606C1.12865 2.68606 0.514648 3.30006 0.514648 4.05481C0.514648 4.65628 0.904805 5.16803 1.44521 5.35119V11.38L6.62715 14.3718C6.61096 14.4558 6.60218 14.5425 6.60218 14.6312C6.60218 15.3859 7.21618 15.9999 7.97093 15.9999C8.72565 15.9999 9.33965 15.3859 9.33965 14.6312C9.33965 14.5588 9.3339 14.4878 9.32302 14.4184L14.5857 11.38V5.34059C15.1099 5.14859 15.485 4.64469 15.485 4.05481C15.485 3.30009 14.871 2.68606 14.1163 2.68606ZM13.6468 10.8379L8.86671 13.5977C8.62643 13.3892 8.31327 13.2625 7.9709 13.2625C7.64552 13.2625 7.34646 13.3768 7.1113 13.5672L2.38418 10.8379V5.32825C2.89184 5.12791 3.25212 4.63281 3.25212 4.05481C3.25212 3.98303 3.24649 3.91256 3.2358 3.84375L8.01549 1.08419L12.7668 3.82734C12.7543 3.90137 12.7475 3.97728 12.7475 4.05481C12.7475 4.64469 13.1226 5.14859 13.6468 5.34059V10.8379Z" fill="#858585"/>
</g>
<defs>
<clipPath id="clip0_122_7656">
<rect width="16" height="16" fill="white"/>
</clipPath>
</defs>
</svg>
