<svg width="16" height="16" viewBox="0 0 16 16" fill="none" xmlns="http://www.w3.org/2000/svg">
<g clip-path="url(#clip0_122_7659)">
<path d="M6.16393 10.3008L5.91844 11.7588C5.88498 11.9582 5.96677 12.159 6.12996 12.278C6.2934 12.3967 6.51043 12.4126 6.689 12.319L7.99989 11.6347L9.31078 12.3191C9.38833 12.3594 9.47333 12.3796 9.55742 12.3796C9.66754 12.3796 9.7774 12.3452 9.87008 12.2781C10.0334 12.1592 10.1154 11.9583 10.0817 11.7589L9.83649 10.3009L10.892 9.26548C11.0364 9.12409 11.0878 8.91308 11.0259 8.72105C10.9637 8.52915 10.7973 8.38865 10.5976 8.35917L9.1349 8.14227L8.47612 6.81818C8.38677 6.63742 8.20166 6.52295 7.99976 6.52295C7.79824 6.52295 7.61326 6.63742 7.52314 6.81818L6.86501 8.14227L5.40234 8.35904C5.20223 8.38852 5.03661 8.52902 4.97431 8.72093C4.91201 8.91296 4.96328 9.12422 5.10788 9.26536L6.16393 10.3008Z" fill="#858585"/>
<path d="M14.2583 1.70096H12.5909V0.771965C12.5909 0.345602 12.2468 0 11.8222 0H11.7003C11.2758 0 10.9319 0.345602 10.9319 0.771965V1.70096H5.04879V0.771965C5.04879 0.345602 4.70472 0 4.28037 0H4.15836C3.73388 0 3.38993 0.345602 3.38993 0.771965V1.70096H1.74193C0.869873 1.70096 0.160156 2.41358 0.160156 3.28976V14.4112C0.160156 15.2869 0.869873 16 1.74193 16H14.2584C15.1303 16 15.8402 15.287 15.8402 14.4112V3.28976C15.84 2.41358 15.1302 1.70096 14.2583 1.70096ZM14.0519 14.2039H1.94829V5.54656H14.0519V14.2039Z" fill="#858585"/>
</g>
<defs>
<clipPath id="clip0_122_7659">
<rect width="16" height="16" fill="white"/>
</clipPath>
</defs>
</svg>
