<svg width="16" height="16" viewBox="0 0 16 16" fill="none" xmlns="http://www.w3.org/2000/svg">
<g clip-path="url(#clip0_122_7671)">
<path d="M14.1952 9.41484V0H11.8008V8.62371C12.2354 9.12555 12.5739 9.72075 12.7798 10.3522H15.9988V9.41484H14.1952Z" fill="#858585"/>
<path d="M8.00062 7.82104C5.74568 7.82104 3.91113 9.65556 3.91113 11.9105C3.91113 14.1654 5.74568 16 8.00062 16C10.2556 16 12.0901 14.1654 12.0901 11.9105C12.0901 9.65556 10.2556 7.82104 8.00062 7.82104ZM8.00062 11.4418C8.87302 11.4418 9.58276 12.1516 9.58276 13.024C9.58276 13.7333 9.1136 14.335 8.46928 14.5352V15.2497H7.53196V14.5352C6.88768 14.335 6.41849 13.7333 6.41849 13.024H7.35581C7.35581 13.3796 7.64507 13.6688 8.00062 13.6688C8.35618 13.6688 8.64544 13.3796 8.64544 13.024C8.64544 12.6685 8.35618 12.3792 8.00062 12.3792C7.12823 12.3792 6.41849 11.6694 6.41849 10.797C6.41849 10.0877 6.88765 9.486 7.53196 9.28579V8.57137H8.46928V9.28579C9.11356 9.486 9.58276 10.0877 9.58276 10.797H8.64544C8.64544 10.4415 8.35618 10.1522 8.00062 10.1522C7.64507 10.1522 7.35581 10.4415 7.35581 10.797C7.35581 11.1526 7.64507 11.4418 8.00062 11.4418Z" fill="#858585"/>
<path d="M4.20005 8.62359V6.21118H1.80567V9.41472H0.00195312V10.352H3.22102C3.42695 9.72044 3.76516 9.12571 4.20005 8.62359Z" fill="#858585"/>
<path d="M10.8632 2.07056H8.46875V6.9059C9.35277 6.98804 10.171 7.29998 10.8632 7.78133V2.07056Z" fill="#858585"/>
<path d="M7.53211 4.14087H5.1377V7.7812C5.82984 7.29982 6.64809 6.98788 7.53211 6.90577V4.14087Z" fill="#858585"/>
</g>
<defs>
<clipPath id="clip0_122_7671">
<rect width="16" height="16" fill="white"/>
</clipPath>
</defs>
</svg>
