<svg width="16" height="16" viewBox="0 0 16 16" fill="none" xmlns="http://www.w3.org/2000/svg">
<g clip-path="url(#clip0_2001_4380)">
<g clip-path="url(#clip1_2001_4380)">
<path d="M15.0625 0.78125H0.9375C0.420625 0.78125 0 1.20187 0 1.71875V11.0312C0 11.5481 0.420625 11.9688 0.9375 11.9688H15.0625C15.5794 11.9688 16 11.5481 16 11.0312V1.71875C16 1.20187 15.5794 0.78125 15.0625 0.78125Z" fill="#85828C"/>
<path d="M13 14.2812H10.4688V12.9062H5.53125V14.2812H3C2.74125 14.2812 2.53125 14.4913 2.53125 14.75C2.53125 15.0087 2.74125 15.2188 3 15.2188H13C13.2587 15.2188 13.4688 15.0087 13.4688 14.75C13.4688 14.4913 13.2587 14.2812 13 14.2812Z" fill="#85828C"/>
</g>
</g>
<defs>
<clipPath id="clip0_2001_4380">
<rect width="16" height="16" fill="white"/>
</clipPath>
<clipPath id="clip1_2001_4380">
<rect width="16" height="16" fill="white"/>
</clipPath>
</defs>
</svg>
