<svg width="40" height="40" viewBox="0 0 40 40" fill="none" xmlns="http://www.w3.org/2000/svg">
<g clip-path="url(#clip0_190_21984)">
<path d="M18.2541 27.9283C18.4757 28.1496 18.776 28.2741 19.0894 28.2741C19.4025 28.2741 19.7028 28.1499 19.9243 27.9283L24.1409 23.7117C24.6024 23.2503 24.6024 22.5026 24.1409 22.0412C23.6798 21.58 22.9318 21.58 22.4707 22.0412L19.0894 25.4225L17.5476 23.8808C17.0862 23.4196 16.3385 23.4196 15.8771 23.8808C15.416 24.3419 15.416 25.0899 15.8771 25.5513L18.2541 27.9283Z" fill="#3800A6"/>
<path d="M20.009 34.3615C25.179 34.3615 29.3849 30.1553 29.3849 24.9853C29.3849 19.8153 25.179 15.6094 20.009 15.6094C14.8387 15.6094 10.6328 19.8153 10.6328 24.9853C10.6328 30.1553 14.8391 34.3615 20.009 34.3615ZM20.009 17.9714C23.8765 17.9714 27.0229 21.1178 27.0229 24.9853C27.0229 28.8528 23.8765 31.9995 20.009 31.9995C16.1415 31.9995 12.9949 28.8528 12.9949 24.9853C12.9949 21.1178 16.1415 17.9714 20.009 17.9714Z" fill="#3800A6"/>
<path d="M35.73 2.51495H33.5757V1.18103C33.5757 0.52887 33.0469 0 32.3947 0C31.7426 0 31.2137 0.52887 31.2137 1.18103V2.51495H28.8928V1.18103C28.8928 0.52887 28.364 0 27.7115 0C27.0593 0 26.5305 0.52887 26.5305 1.18103V2.51495H13.4885V1.18103C13.4885 0.52887 12.9596 0 12.3071 0C11.655 0 11.1261 0.52887 11.1261 1.18103V2.51495H8.80524V1.18103C8.80524 0.52887 8.27637 0 7.6239 0C6.97174 0 6.44287 0.52887 6.44287 1.18103V2.51495H4.28833C2.18231 2.51495 0.46875 4.22852 0.46875 6.33484V36.1804C0.46875 38.2864 2.18231 40 4.28833 40H35.73C37.8363 40 39.5496 38.2864 39.5496 36.1804V6.33484C39.5496 4.22852 37.836 2.51495 35.73 2.51495ZM37.1872 36.1804C37.1872 36.9839 36.5335 37.6379 35.73 37.6379H4.28833C3.4848 37.6379 2.83081 36.9839 2.83081 36.1804V12.3358H37.1872V36.1804ZM2.83081 6.33484C2.83081 5.53101 3.4848 4.87732 4.28833 4.87732H6.44287V6.21124C6.44287 6.8634 6.97174 7.39227 7.62421 7.39227C8.27637 7.39227 8.80524 6.8634 8.80524 6.21124V4.87732H11.1261V6.21124C11.1261 6.8634 11.655 7.39227 12.3074 7.39227C12.9596 7.39227 13.4885 6.8634 13.4885 6.21124V4.87732H26.5305V6.21124C26.5305 6.8634 27.0593 7.39227 27.7118 7.39227C28.364 7.39227 28.8928 6.8634 28.8928 6.21124V4.87732H31.2137V6.21124C31.2137 6.8634 31.7426 7.39227 32.3947 7.39227C33.0472 7.39227 33.576 6.8634 33.576 6.21124V4.87732H35.73C36.5335 4.87732 37.1875 5.53101 37.1875 6.33484V9.97345H2.83081V6.33484Z" fill="#3800A6"/>
</g>
<defs>
<clipPath id="clip0_190_21984">
<rect width="40" height="40" fill="white"/>
</clipPath>
</defs>
</svg>
