<svg width="40" height="40" viewBox="0 0 40 40" fill="none" xmlns="http://www.w3.org/2000/svg">
<g clip-path="url(#clip0_190_22000)">
<path d="M20 0C8.97199 0 0 8.97192 0 20C0 31.0281 8.97199 40 20 40C31.028 40 40 31.028 40 20C40 8.97199 31.0281 0 20 0ZM20 37.6567C10.264 37.6567 2.34321 29.736 2.34321 20C2.34321 10.264 10.264 2.34321 20 2.34321C29.736 2.34321 37.6568 10.264 37.6568 20C37.6568 29.736 29.736 37.6567 20 37.6567Z" fill="#3800A6"/>
<path d="M19.9997 4.6875C19.3527 4.6875 18.8281 5.21207 18.8281 5.8591C18.8281 6.50614 19.3527 7.03071 19.9997 7.03071C27.1516 7.03071 32.9701 12.8491 32.9701 20.0011C32.9701 20.6481 33.4947 21.1727 34.1417 21.1727C34.7887 21.1727 35.3133 20.6481 35.3133 20.0011C35.3133 11.5571 28.4437 4.6875 19.9997 4.6875Z" fill="#3800A6"/>
<path d="M6.88618 19.9169C6.88774 19.2694 6.36443 18.7437 5.7177 18.7422C5.71692 18.7422 5.71536 18.7422 5.71458 18.7422C5.06863 18.7422 4.54453 19.2647 4.54297 19.9107C4.54141 20.5582 5.06473 21.0838 5.71145 21.0854C6.35896 21.087 6.88462 20.5636 6.88618 19.9169Z" fill="#3800A6"/>
<path d="M6.77331 24.1484C6.62412 24.1484 6.47338 24.1766 6.32732 24.2368C5.72902 24.4835 5.44393 25.1686 5.68996 25.7669C5.93678 26.3643 6.62178 26.6502 7.22008 26.4034C7.81838 26.1566 8.10347 25.4723 7.85665 24.874C7.67068 24.4218 7.23328 24.1484 6.77331 24.1484Z" fill="#3800A6"/>
<path d="M9.82395 28.7422C9.52559 28.7422 9.22722 28.8554 8.99836 29.082C8.53909 29.5382 8.53675 30.2802 8.9929 30.7395C8.9929 30.7395 8.9929 30.7395 8.9929 30.7387C9.44826 31.1979 10.1903 31.2011 10.6495 30.7449C11.1088 30.2896 11.1112 29.5475 10.6558 29.0883C10.4262 28.857 10.1254 28.7422 9.82395 28.7422Z" fill="#3800A6"/>
<path d="M14.8447 31.9125C14.6963 31.85 14.5424 31.8203 14.3909 31.8203C13.934 31.8203 13.4989 32.0898 13.3107 32.538C13.06 33.134 13.3396 33.8214 13.9363 34.0721C14.5331 34.3229 15.2196 34.0432 15.4703 33.4464C15.7211 32.8498 15.4414 32.1632 14.8447 31.9125Z" fill="#3800A6"/>
<path d="M7.28493 13.4212C6.68897 13.1689 6.00163 13.4469 5.74934 14.043C5.49706 14.6389 5.77512 15.3263 6.37108 15.5793C6.52026 15.6426 6.67491 15.6722 6.82722 15.6722C7.28415 15.6722 7.71764 15.4036 7.90666 14.9576C8.15894 14.3616 7.88088 13.6735 7.28493 13.4212Z" fill="#3800A6"/>
<path d="M9.09809 9.11169C8.63804 9.56619 8.63335 10.3082 9.08793 10.7683C9.31679 11.0003 9.61906 11.1167 9.92133 11.1167C10.2189 11.1167 10.5165 11.0042 10.7446 10.7785C11.2046 10.3239 11.2093 9.58189 10.7547 9.12184C10.3002 8.66093 9.55814 8.65711 9.09809 9.11169Z" fill="#3800A6"/>
<path d="M14.0739 5.82202C13.4748 6.06727 13.1882 6.75141 13.4334 7.34979C13.6193 7.80359 14.0567 8.07853 14.5183 8.07853C14.6659 8.07853 14.8159 8.05041 14.9612 7.99105C15.5603 7.74579 15.8469 7.06158 15.6017 6.4625C15.3572 5.8642 14.673 5.57668 14.0739 5.82202Z" fill="#3800A6"/>
<path d="M33.5283 24.2368C33.3823 24.1766 33.2315 24.1484 33.0823 24.1484C32.6224 24.1484 32.1849 24.4218 31.999 24.874C31.7522 25.4723 32.0373 26.1566 32.6356 26.4034C33.2338 26.6502 33.9189 26.3643 34.1657 25.7669C34.4117 25.1686 34.1266 24.4835 33.5283 24.2368Z" fill="#3800A6"/>
<path d="M30.0311 28.7422C29.7296 28.7422 29.4289 28.857 29.1992 29.0883C28.7439 29.5475 28.7462 30.2896 29.2055 30.7449C29.6648 31.2011 30.4068 31.1979 30.8621 30.7387V30.7395C31.3183 30.2802 31.3159 29.5382 30.8567 29.082C30.6278 28.8554 30.3295 28.7422 30.0311 28.7422Z" fill="#3800A6"/>
<path d="M25.4663 31.8203C25.3148 31.8203 25.1609 31.85 25.0125 31.9125C24.4158 32.1632 24.1361 32.8498 24.3869 33.4465C24.6376 34.0433 25.3241 34.3229 25.9209 34.0722C26.5176 33.8215 26.7972 33.1341 26.5465 32.5381C26.3584 32.0898 25.9232 31.8203 25.4663 31.8203Z" fill="#3800A6"/>
<path d="M20.0693 32.9219C20.0677 32.9219 20.0662 32.9219 20.0638 32.9219C19.4171 32.925 18.8946 33.4522 18.8985 34.0989C18.9016 34.7456 19.4288 35.2682 20.0755 35.2651C20.7223 35.262 21.2448 34.7347 21.2409 34.0872C21.2386 33.442 20.7145 32.9219 20.0693 32.9219Z" fill="#3800A6"/>
<path d="M29.4284 21.1291C30.0754 21.1291 30.6 20.6045 30.6 19.9575C30.6 19.3104 30.0754 18.7859 29.4284 18.7859H23.2422C22.8886 17.7889 22.0974 16.9978 21.1005 16.6442V10.4685C21.1005 9.82144 20.5759 9.29688 19.9289 9.29688C19.2818 9.29688 18.7573 9.82144 18.7573 10.4685V16.6442C17.3936 17.1279 16.4141 18.4302 16.4141 19.9575C16.4141 21.8956 17.9908 23.4724 19.9289 23.4724C21.4563 23.4724 22.7585 22.4928 23.2422 21.1291H29.4284V21.1291ZM19.9289 21.1291C19.2829 21.1291 18.7573 20.6035 18.7573 19.9575C18.7573 19.3114 19.2829 18.7859 19.9289 18.7859C20.575 18.7859 21.1005 19.3114 21.1005 19.9575C21.1005 20.6035 20.5749 21.1291 19.9289 21.1291Z" fill="#3800A6"/>
</g>
<defs>
<clipPath id="clip0_190_22000">
<rect width="40" height="40" fill="white"/>
</clipPath>
</defs>
</svg>
