<svg width="60" height="60" viewBox="0 0 60 60" fill="none" xmlns="http://www.w3.org/2000/svg">
<rect width="60" height="60" fill="#E8E9FF"/>
<path d="M45.0625 27.1875C45.5803 27.1875 46 26.7678 46 26.25C46 25.7322 45.5803 25.3125 45.0625 25.3125H42.25V23.4375H45.0625C45.5803 23.4375 46 23.0178 46 22.5C46 21.9822 45.5803 21.5625 45.0625 21.5625H42.25V19.9375C42.25 18.7312 41.2688 17.75 40.0625 17.75H38.4375V14.9375C38.4375 14.4197 38.0178 14 37.5 14C36.9822 14 36.5625 14.4197 36.5625 14.9375V17.75H34.6875V14.9375C34.6875 14.4197 34.2678 14 33.75 14C33.2322 14 32.8125 14.4197 32.8125 14.9375V17.75H30.9375V14.9375C30.9375 14.4197 30.5178 14 30 14C29.4822 14 29.0625 14.4197 29.0625 14.9375V17.75H27.1875V14.9375C27.1875 14.4197 26.7678 14 26.25 14C25.7322 14 25.3125 14.4197 25.3125 14.9375V17.75H23.4375V14.9375C23.4375 14.4197 23.0178 14 22.5 14C21.9822 14 21.5625 14.4197 21.5625 14.9375V17.75H19.9375C18.7312 17.75 17.75 18.7312 17.75 19.9375V21.5625H14.9375C14.4197 21.5625 14 21.9822 14 22.5C14 23.0178 14.4197 23.4375 14.9375 23.4375H17.75V25.3125H14.9375C14.4197 25.3125 14 25.7322 14 26.25C14 26.7678 14.4197 27.1875 14.9375 27.1875H17.75V29.0625H14.9375C14.4197 29.0625 14 29.4822 14 30C14 30.5178 14.4197 30.9375 14.9375 30.9375H17.75V32.8125H14.9375C14.4197 32.8125 14 33.2322 14 33.75C14 34.2678 14.4197 34.6875 14.9375 34.6875H17.75V36.5625H14.9375C14.4197 36.5625 14 36.9822 14 37.5C14 38.0178 14.4197 38.4375 14.9375 38.4375H17.75V40.0625C17.75 41.2688 18.7312 42.25 19.9375 42.25H21.5625V45.0625C21.5625 45.5803 21.9822 46 22.5 46C23.0178 46 23.4375 45.5803 23.4375 45.0625V42.25H25.3125V45.0625C25.3125 45.5803 25.7322 46 26.25 46C26.7678 46 27.1875 45.5803 27.1875 45.0625V42.25H29.0625V45.0625C29.0625 45.5803 29.4822 46 30 46C30.5178 46 30.9375 45.5803 30.9375 45.0625V42.25H32.8125V45.0625C32.8125 45.5803 33.2322 46 33.75 46C34.2678 46 34.6875 45.5803 34.6875 45.0625V42.25H36.5625V45.0625C36.5625 45.5803 36.9822 46 37.5 46C38.0178 46 38.4375 45.5803 38.4375 45.0625V42.25H40.0625C41.2688 42.25 42.25 41.2688 42.25 40.0625V38.4375H45.0625C45.5803 38.4375 46 38.0178 46 37.5C46 36.9822 45.5803 36.5625 45.0625 36.5625H42.25V34.6875H45.0625C45.5803 34.6875 46 34.2678 46 33.75C46 33.2322 45.5803 32.8125 45.0625 32.8125H42.25V30.9375H45.0625C45.5803 30.9375 46 30.5178 46 30C46 29.4822 45.5803 29.0625 45.0625 29.0625H42.25V27.1875H45.0625ZM38.5 37.5625C38.5 38.0803 38.0803 38.5 37.5625 38.5H22.4375C21.9197 38.5 21.5 38.0803 21.5 37.5625V22.4375C21.5 21.9197 21.9197 21.5 22.4375 21.5H37.5625C38.0803 21.5 38.5 21.9197 38.5 22.4375V37.5625Z" fill="#3800A6"/>
</svg>
