<svg width="20" height="21" viewBox="0 0 20 21" fill="none" xmlns="http://www.w3.org/2000/svg">
<path d="M3.52564 15.6245C3.54512 15.7067 3.58103 15.784 3.63119 15.852C3.68135 15.9199 3.74474 15.9769 3.81753 16.0197C3.89032 16.0625 3.97102 16.0901 4.05476 16.1009C4.1385 16.1117 4.22356 16.1054 4.30482 16.0825C8.03054 15.0538 11.9653 15.0534 15.6912 16.0814C15.7725 16.1043 15.8575 16.1106 15.9412 16.0998C16.0249 16.089 16.1056 16.0614 16.1784 16.0187C16.2511 15.9759 16.3145 15.9189 16.3647 15.851C16.4148 15.7831 16.4507 15.7058 16.4702 15.6237L18.4615 7.1614C18.4882 7.04811 18.4827 6.92963 18.4457 6.8193C18.4086 6.70898 18.3415 6.61118 18.2519 6.53694C18.1623 6.46269 18.0537 6.41494 17.9384 6.39907C17.8231 6.3832 17.7057 6.39983 17.5993 6.4471L13.6475 8.20348C13.5048 8.2669 13.3435 8.27461 13.1954 8.22508C13.0473 8.17555 12.9231 8.07238 12.8473 7.93587L10.5463 3.79413C10.4922 3.6967 10.413 3.61551 10.3169 3.55899C10.2209 3.50246 10.1114 3.47266 9.99997 3.47266C9.88851 3.47266 9.77908 3.50246 9.68301 3.55899C9.58695 3.61551 9.50775 3.6967 9.45362 3.79413L7.15265 7.93587C7.07681 8.07238 6.95263 8.17555 6.80453 8.22508C6.65644 8.27461 6.49517 8.2669 6.35247 8.20348L2.40001 6.44683C2.29368 6.39958 2.17627 6.38294 2.061 6.3988C1.94573 6.41465 1.83717 6.46237 1.74755 6.53659C1.65793 6.6108 1.59081 6.70856 1.55374 6.81885C1.51667 6.92915 1.51113 7.0476 1.53773 7.16087L3.52564 15.6245Z" stroke="#3800A6" stroke-width="1.5" stroke-linecap="round" stroke-linejoin="round"/>
<path d="M7.49999 12.9436C9.16207 12.7688 10.8379 12.7688 12.5 12.9436" stroke="#3800A6" stroke-width="1.5" stroke-linecap="round" stroke-linejoin="round"/>
</svg>
