<svg width="24" height="25" viewBox="0 0 24 25" fill="none" xmlns="http://www.w3.org/2000/svg">
<g clip-path="url(#clip0_373_23469)">
<path d="M12 0.650391C5.38317 0.650391 0 6.03356 0 12.6504C0 19.2672 5.38317 24.6504 12 24.6504C18.6168 24.6504 24 19.2672 24 12.6504C24 6.03356 18.6168 0.650391 12 0.650391ZM12 23.5254C6.00352 23.5254 1.125 18.6469 1.125 12.6504C1.125 6.65391 6.00352 1.77539 12 1.77539C17.9965 1.77539 22.875 6.65391 22.875 12.6504C22.875 18.6469 17.9965 23.5254 12 23.5254ZM17.6396 7.70508H6.36033C5.60592 7.70508 4.99214 8.31886 4.99214 9.07327V16.2276C4.99214 16.982 5.60588 17.5958 6.36033 17.5958H17.6396C18.394 17.5958 19.0078 16.982 19.0078 16.2276V9.07327C19.0078 8.31886 18.394 7.70508 17.6396 7.70508ZM16.7917 8.83008L12 12.6353L7.20825 8.83008H16.7917ZM17.6396 16.4707H6.36033C6.22627 16.4707 6.11714 16.3616 6.11714 16.2275V9.40017L11.6502 13.794C11.7526 13.8753 11.8763 13.916 12 13.916C12.1236 13.916 12.2474 13.8754 12.3497 13.794L17.8828 9.40017V16.2275C17.8828 16.3616 17.7737 16.4707 17.6396 16.4707Z" fill="black"/>
</g>
<defs>
<clipPath id="clip0_373_23469">
<rect width="24" height="24" fill="white" transform="translate(0 0.650391)"/>
</clipPath>
</defs>
</svg>
