<svg width="24" height="25" viewBox="0 0 24 25" fill="none" xmlns="http://www.w3.org/2000/svg">
<path d="M11.9999 1.35547C8.47047 1.35547 5.64694 4.179 5.64694 7.70841V10.5319C4.44694 10.5319 3.5293 11.4496 3.5293 12.6496V21.8261C3.5293 23.0261 4.44694 23.9437 5.64694 23.9437H18.3528C19.5528 23.9437 20.4705 23.0261 20.4705 21.8261V12.6496C20.4705 11.4496 19.5528 10.5319 18.3528 10.5319V7.70841C18.3528 4.179 15.5293 1.35547 11.9999 1.35547ZM19.0587 12.6496V21.8261C19.0587 22.2496 18.7764 22.5319 18.3528 22.5319H5.64694C5.22341 22.5319 4.94106 22.2496 4.94106 21.8261V12.6496C4.94106 12.2261 5.22341 11.9437 5.64694 11.9437H6.35283H17.6469H18.3528C18.7764 11.9437 19.0587 12.2261 19.0587 12.6496ZM7.05871 10.5319V7.70841C7.05871 4.95547 9.24694 2.76723 11.9999 2.76723C14.7528 2.76723 16.9411 4.95547 16.9411 7.70841V10.5319H7.05871Z" fill="black"/>
<path d="M12.0005 14.0605C10.8005 14.0605 9.88281 14.9782 9.88281 16.1782C9.88281 17.0958 10.4475 17.8723 11.2946 18.1547V19.7076C11.2946 20.1311 11.5769 20.4135 12.0005 20.4135C12.424 20.4135 12.7063 20.1311 12.7063 19.7076V18.1547C13.5534 17.8723 14.1181 17.0958 14.1181 16.1782C14.1181 14.9782 13.2005 14.0605 12.0005 14.0605ZM12.0005 16.8841C11.5769 16.8841 11.2946 16.6017 11.2946 16.1782C11.2946 15.7547 11.5769 15.4723 12.0005 15.4723C12.424 15.4723 12.7063 15.7547 12.7063 16.1782C12.7063 16.6017 12.424 16.8841 12.0005 16.8841Z" fill="black"/>
</svg>
