<svg width="24" height="25" viewBox="0 0 24 25" fill="none" xmlns="http://www.w3.org/2000/svg">
<g clip-path="url(#clip0_373_23442)">
<path d="M8.33102 7.91203H16.309C16.5684 7.91203 16.7786 7.70175 16.7786 7.44234C16.7786 7.18294 16.5684 6.97266 16.309 6.97266H8.33102C8.07161 6.97266 7.86133 7.18294 7.86133 7.44234C7.86133 7.70175 8.07161 7.91203 8.33102 7.91203Z" fill="black"/>
<path d="M7.08257 5.6719C6.87928 5.51079 6.58387 5.54501 6.42276 5.7483L5.58215 6.80909L5.20359 6.55301C4.98876 6.4076 4.69678 6.46404 4.55142 6.67887C4.40606 6.8937 4.4624 7.18573 4.67727 7.33104L5.41659 7.83115C5.49702 7.88552 5.58862 7.91182 5.67946 7.91182C5.81845 7.91182 5.95556 7.85027 6.04785 7.73384L7.15898 6.33171C7.32004 6.12841 7.28587 5.83301 7.08257 5.6719Z" fill="black"/>
<path d="M8.33102 11.8515H16.309C16.5684 11.8515 16.7786 11.6412 16.7786 11.3818C16.7786 11.1224 16.5684 10.9121 16.309 10.9121H8.33102C8.07161 10.9121 7.86133 11.1224 7.86133 11.3818C7.86133 11.6412 8.07161 11.8515 8.33102 11.8515Z" fill="black"/>
<path d="M7.08257 9.61133C6.87932 9.45027 6.58392 9.48444 6.42276 9.68774L5.58215 10.7485L5.20359 10.4924C4.98876 10.347 4.69678 10.4034 4.55142 10.6183C4.40606 10.8331 4.4624 11.1252 4.67727 11.2705L5.41659 11.7706C5.49702 11.825 5.58862 11.8513 5.67946 11.8513C5.81845 11.8513 5.95556 11.7897 6.04785 11.6733L7.15898 10.2711C7.32004 10.0678 7.28587 9.77244 7.08257 9.61133Z" fill="black"/>
<path d="M8.33102 15.7909H16.309C16.5684 15.7909 16.7786 15.5807 16.7786 15.3213C16.7786 15.0618 16.5684 14.8516 16.309 14.8516H8.33102C8.07161 14.8516 7.86133 15.0618 7.86133 15.3213C7.86133 15.5807 8.07161 15.7909 8.33102 15.7909Z" fill="black"/>
<path d="M7.08257 13.5508C6.87928 13.3897 6.58387 13.4239 6.42276 13.6272L5.58215 14.688L5.20359 14.4319C4.98876 14.2866 4.69678 14.3429 4.55142 14.5578C4.40606 14.7726 4.4624 15.0646 4.67727 15.2099L5.41659 15.7101C5.49702 15.7644 5.58862 15.7907 5.67946 15.7907C5.81845 15.7907 5.95556 15.7292 6.04785 15.6127L7.15898 14.2106C7.32004 14.0073 7.28587 13.7119 7.08257 13.5508Z" fill="black"/>
<path d="M7.08257 17.4903C6.87932 17.3292 6.58392 17.3633 6.42276 17.5667L5.58215 18.6274L5.20359 18.3714C4.98876 18.226 4.69678 18.2824 4.55142 18.4972C4.40606 18.712 4.4624 19.0041 4.67727 19.1494L5.41659 19.6495C5.49702 19.7039 5.58862 19.7302 5.67946 19.7302C5.81845 19.7302 5.95556 19.6686 6.04785 19.5522L7.15898 18.1501C7.32004 17.9468 7.28587 17.6514 7.08257 17.4903Z" fill="black"/>
<path d="M21.5771 17.8109C21.0785 17.3123 20.4156 17.0377 19.7105 17.0377C19.6732 17.0377 19.6362 17.0386 19.5991 17.0401V2.05941C19.5991 1.28245 18.9671 0.650391 18.1901 0.650391H3.05745C2.2805 0.650391 1.64844 1.28245 1.64844 2.05941V23.2414C1.64844 24.0183 2.2805 24.6504 3.05745 24.6504H8.5183C8.7777 24.6504 8.98798 24.4401 8.98798 24.1807C8.98798 23.9213 8.7777 23.711 8.5183 23.711H3.05745C2.79847 23.711 2.58777 23.5003 2.58777 23.2413V2.05941C2.58777 1.80042 2.79847 1.58972 3.05745 1.58972H18.1902C18.4491 1.58972 18.6598 1.80042 18.6598 2.05941V17.2548C18.4837 17.3312 18.3157 17.4267 18.159 17.5411C17.1286 16.8061 15.6843 16.9007 14.7604 17.8246C14.4822 18.1027 14.274 18.4321 14.144 18.7914H8.33014C8.07073 18.7914 7.86045 19.0017 7.86045 19.2611C7.86045 19.5205 8.07073 19.7308 8.33014 19.7308H13.9881C13.9982 20.4211 14.2711 21.0687 14.7607 21.5583L16.9135 23.7111H12.7293C12.4699 23.7111 12.2596 23.9214 12.2596 24.1808C12.2596 24.4402 12.4699 24.6505 12.7293 24.6505C12.7293 24.6505 18.1582 24.6502 18.1618 24.6502C18.3529 24.6502 18.544 24.5775 18.6894 24.432L21.5633 21.5581L21.5771 21.5443C22.0757 21.0457 22.3503 20.3827 22.3503 19.6776C22.3503 18.9724 22.0757 18.3095 21.5771 17.8109ZM20.9127 20.8802L18.1619 23.631L15.4245 20.8936C14.7615 20.2306 14.7615 19.1518 15.4245 18.4888C15.756 18.1573 16.1915 17.9916 16.627 17.9916C17.0615 17.9916 17.496 18.1567 17.8273 18.4867C17.9137 18.5745 18.0315 18.6249 18.155 18.6268C18.2827 18.6283 18.404 18.5791 18.4938 18.4895L18.5078 18.4755C18.5079 18.4754 18.508 18.4753 18.5081 18.4752C18.8293 18.154 19.2563 17.9771 19.7105 17.9771C20.1648 17.9771 20.5918 18.154 20.913 18.4752C21.2342 18.7964 21.411 19.2234 21.411 19.6776C21.411 20.1318 21.2341 20.5588 20.9127 20.8802Z" fill="black"/>
<path d="M10.623 24.6504C10.8819 24.6504 11.0918 24.4405 11.0918 24.1816C11.0918 23.9228 10.8819 23.7129 10.623 23.7129C10.3642 23.7129 10.1543 23.9228 10.1543 24.1816C10.1543 24.4405 10.3642 24.6504 10.623 24.6504Z" fill="black"/>
</g>
<defs>
<clipPath id="clip0_373_23442">
<rect width="24" height="24" fill="white" transform="translate(0 0.650391)"/>
</clipPath>
</defs>
</svg>
