<svg width="48" height="48" viewBox="0 0 48 48" fill="none" xmlns="http://www.w3.org/2000/svg">
<circle cx="24" cy="24" r="23.25" stroke="#E0E0E0" stroke-width="1.5"/>
<g clip-path="url(#clip0_122_7688)">
<path d="M28.7079 18.6217L22.1082 18.6217C21.9335 18.6248 21.7669 18.6963 21.6443 18.821C21.5218 18.9457 21.4532 19.1135 21.4532 19.2883C21.4532 19.4631 21.5218 19.6309 21.6443 19.7556C21.7669 19.8803 21.9335 19.9518 22.1082 19.9549L27.0985 19.9549L18.8084 28.245C18.6834 28.37 18.6132 28.5396 18.6132 28.7164C18.6132 28.8932 18.6834 29.0628 18.8084 29.1878C18.9334 29.3128 19.103 29.3831 19.2798 29.3831C19.4566 29.3831 19.6262 29.3128 19.7512 29.1878L28.0413 20.8977V25.888C28.0398 25.9765 28.0559 26.0644 28.0887 26.1466C28.1215 26.2289 28.1704 26.3037 28.2324 26.3669C28.2945 26.43 28.3685 26.4801 28.4501 26.5144C28.5317 26.5486 28.6194 26.5662 28.7079 26.5662C28.7964 26.5662 28.8841 26.5486 28.9657 26.5144C29.0473 26.4801 29.1213 26.43 29.1834 26.3669C29.2454 26.3037 29.2943 26.2289 29.3271 26.1466C29.3599 26.0644 29.376 25.9765 29.3745 25.888L29.3745 19.2883C29.3744 19.1115 29.3042 18.942 29.1792 18.817C29.0542 18.692 28.8847 18.6218 28.7079 18.6217Z" fill="white"/>
</g>
<defs>
<clipPath id="clip0_122_7688">
<rect width="16" height="16" fill="white" transform="translate(16 16)"/>
</clipPath>
</defs>
</svg>
