<svg width="20" height="21" viewBox="0 0 20 21" fill="none" xmlns="http://www.w3.org/2000/svg">
<path d="M18.3327 10.7669C18.3327 15.3693 14.6017 19.1003 9.99935 19.1003C5.39698 19.1003 1.66602 15.3693 1.66602 10.7669C1.66602 6.16455 5.39698 2.43359 9.99935 2.43359C14.6017 2.43359 18.3327 6.16455 18.3327 10.7669Z" fill="#475569"/>
<path fill-rule="evenodd" clip-rule="evenodd" d="M9.99935 6.80859C10.3445 6.80859 10.6243 7.08842 10.6243 7.43359V10.508L12.5246 12.4083C12.7687 12.6524 12.7687 13.0481 12.5246 13.2922C12.2805 13.5363 11.8848 13.5363 11.6407 13.2922L9.55741 11.2089C9.4402 11.0917 9.37435 10.9327 9.37435 10.7669V7.43359C9.37435 7.08842 9.65417 6.80859 9.99935 6.80859Z" fill="white"/>
</svg>
