<svg width="200" height="197" viewBox="0 0 200 197" fill="none" xmlns="http://www.w3.org/2000/svg">
<path d="M177 101.891C177 101.891 177 102.01 177 102.229C177 102.447 177 102.771 176.929 103.179C176.859 103.996 176.803 105.173 176.655 106.574C176.57 107.279 176.472 108.032 176.366 108.828C176.317 109.229 176.267 109.638 176.211 110.061C176.155 110.483 176.063 110.906 175.986 111.335C175.824 112.202 175.662 113.096 175.5 114.012C175.338 114.927 175.077 115.822 174.866 116.737C174.054 120.094 173.007 123.389 171.732 126.598C171.478 127.253 171.239 127.851 171.027 128.386C170.816 128.922 170.584 129.358 170.415 129.732L169.886 130.908L169.091 131.084C168.626 131.197 167.978 131.323 167.337 131.436C166.048 131.676 164.78 131.873 164.78 131.873L164.456 132.507C164.259 132.915 163.942 133.479 163.548 134.155C163.153 134.831 162.724 135.627 162.21 136.451L160.583 138.993L158.815 141.486C158.258 142.282 157.667 142.973 157.195 143.599C156.251 144.839 155.547 145.607 155.547 145.607L155.857 147.015L156.153 148.424C156.153 148.424 155.723 148.945 154.835 149.832L153.223 151.523L150.941 153.699C146.131 158.134 140.764 161.922 134.974 164.968C126.789 169.285 117.87 172.034 108.676 173.074C93.4569 174.825 78.0665 171.888 64.562 164.656C51.0574 157.424 40.0824 146.242 33.104 132.605C32.1462 130.816 31.3926 129.027 30.639 127.344C29.8854 125.661 29.2937 124.006 28.8007 122.414C27.8838 119.725 27.1242 116.986 26.5258 114.209C26.2441 113.061 26.1173 112.011 25.9342 111.11C25.8568 110.659 25.7793 110.237 25.7089 109.856C25.6384 109.476 25.6173 109.152 25.575 108.807C25.413 107.546 25.3285 106.877 25.3285 106.877L20.9689 107.377C20.9689 107.377 21.0816 108.293 21.2999 110.018C21.5183 111.744 22.0042 114.244 22.7578 117.406C24.9145 126.123 28.5343 134.41 33.4632 141.916L34.0337 142.796C34.2309 143.085 34.4351 143.367 34.6464 143.656L35.886 145.409C36.7382 146.586 37.682 147.712 38.5976 148.931C40.584 151.309 42.7001 153.576 44.9363 155.72C47.2953 157.979 49.7858 160.095 52.3948 162.059L54.4514 163.524L55.4867 164.264L56.5573 164.968L58.7195 166.376L60.9239 167.623L62.0579 168.278L63.22 168.877L65.5723 170.074C67.1852 170.778 68.7769 171.581 70.4602 172.187C73.8161 173.534 77.2614 174.647 80.7711 175.518L83.4404 176.138C84.3349 176.349 85.2435 176.469 86.145 176.645C87.948 177.011 89.7862 177.18 91.6174 177.427C92.533 177.526 93.4556 177.575 94.3783 177.652L95.7868 177.758C96.2517 177.758 96.7165 177.758 97.1955 177.8L99.9774 177.871L102.752 177.8H104.161L105.57 177.695L108.345 177.476C110.176 177.223 112.021 177.061 113.831 176.695C117.453 176.073 121.026 175.193 124.522 174.06C127.963 172.943 131.327 171.605 134.594 170.053L136.974 168.834C137.369 168.63 137.77 168.433 138.158 168.222L139.306 167.56C140.066 167.116 140.841 166.693 141.588 166.236L143.792 164.827C144.532 164.376 145.201 163.862 145.905 163.362C146.609 162.862 147.314 162.383 148.018 161.862C149.349 160.798 150.708 159.791 151.955 158.664C154.433 156.533 156.785 154.259 158.998 151.854C162.976 147.407 166.457 142.54 169.379 137.338C171.868 132.93 173.923 128.29 175.514 123.485C176.759 119.787 177.715 115.998 178.373 112.152C178.69 110.561 178.845 109.117 179.007 107.87C179.169 106.624 179.254 105.553 179.317 104.687C179.38 103.82 179.437 103.151 179.472 102.708C179.472 102.482 179.472 102.313 179.472 102.201V102.024L177 101.891Z" fill="#F7B928"/>
<path d="M128.02 169.033L126.231 167.927C125.357 167.385 124.484 166.772 124.484 166.779L123.259 167.188L121.85 167.667C121.301 167.85 120.674 168.012 119.991 168.209C116.665 169.166 113.273 169.872 109.842 170.322C106.406 170.794 102.942 171.017 99.4744 170.991C98.0658 170.949 96.8755 170.935 96.0444 170.892L94.7555 170.794C94.7555 170.794 93.9526 171.745 93.1004 172.688C92.2482 173.632 91.3819 174.541 91.3819 174.541L91.7975 174.583C92.0721 174.625 92.5018 174.646 92.9877 174.675L94.8401 174.78L95.974 174.851H97.2417C101.54 174.938 105.838 174.655 110.088 174.005C114.313 173.379 118.48 172.409 122.547 171.104C124.195 170.512 125.576 170.047 126.52 169.695L128.02 169.033Z" fill="#F7B928"/>
<path d="M85.6551 173.032L85.3593 172.448C85.1832 172.089 84.9508 171.638 84.7324 171.145L83.8873 169.222L82.9928 169.011C82.4505 168.891 81.7321 168.736 81.0348 168.518L79.091 167.968L78.2106 167.715C78.2106 167.715 77.2175 168.419 76.1822 169.123C75.1469 169.828 74.0693 170.532 74.0693 170.532L75.8653 171.032C76.9288 171.356 78.3867 171.673 79.8305 171.997L80.9081 172.236L81.9645 172.42L83.8239 172.744C84.3732 172.842 84.824 172.913 85.148 172.948L85.6551 173.032Z" fill="#F7B928"/>
<path d="M130.808 164.99L130.688 164.715L131.153 164.504C131.365 164.419 131.794 164.222 132.365 163.919L133.407 163.384C134.203 162.982 135.111 162.525 135.985 161.975L137.886 160.884L140.633 159.123L140.992 158.883C140.992 158.362 141.049 156.77 141.028 155.256C141.028 153.467 140.894 151.636 140.887 151.615V151.537L141.626 150.953L141.985 150.671C142.38 150.368 142.866 149.967 143.394 149.516C145.159 148.025 146.842 146.441 148.437 144.769L149.74 143.41L150.923 142.001C151.627 141.212 152.254 140.424 152.797 139.726L153.768 138.494L154.888 136.916H156.226C156.769 136.916 157.431 136.916 158.191 136.916C159.269 136.881 160.389 136.832 161.516 136.754L163.431 136.613L165.382 136.395C166.678 136.233 167.995 136.05 169.298 135.839C170.601 135.627 171.714 135.374 172.7 135.134C173.524 134.958 174.348 134.768 175.144 134.571C175.581 134.472 175.848 134.395 175.996 134.36L176.581 133.064C176.665 132.888 176.75 132.69 176.848 132.486C177.215 131.676 177.672 130.669 178.123 129.465C179.606 125.783 180.818 121.998 181.75 118.14C182.683 114.286 183.349 110.372 183.744 106.427L184.032 102.518L184.075 101.039H184.37V102.525L184.075 106.448C183.684 110.411 183.015 114.341 182.074 118.21C181.139 122.08 179.925 125.876 178.44 129.57C177.982 130.775 177.525 131.789 177.151 132.599C177.06 132.81 176.968 133 176.891 133.183L176.25 134.592H176.179C176.179 134.592 175.848 134.691 175.25 134.831L172.799 135.395C171.813 135.606 170.636 135.853 169.383 136.099C168.129 136.346 166.756 136.501 165.453 136.656L163.495 136.874L161.572 137.022C160.438 137.092 159.318 137.149 158.234 137.177C157.473 137.177 156.825 137.177 156.262 137.177H155.071L154.001 138.747L153.022 139.987C152.48 140.691 151.86 141.48 151.141 142.276L149.831 143.776L148.648 145.023C147.045 146.697 145.354 148.287 143.584 149.784C143.056 150.263 142.563 150.643 142.176 150.953L141.823 151.228L141.204 151.721C141.204 152.094 141.33 153.707 141.33 155.291C141.33 156.876 141.33 158.524 141.33 158.989V159.172H141.225L140.837 159.426L138.084 161.186L136.175 162.285C135.302 162.813 134.386 163.278 133.583 163.694C133.21 163.884 132.879 164.06 132.548 164.229C132.118 164.454 131.682 164.666 131.315 164.821L130.808 164.99Z" fill="#F7B928"/>
<path d="M177.637 127.921L175.433 126.999C175.433 126.999 175.609 126.576 175.869 125.858L176.94 122.681C177.285 121.576 177.686 120.167 178.229 118.167C178.327 117.73 178.44 117.23 178.56 116.758C178.848 115.519 179.151 114.244 179.348 112.969C179.961 109.645 180.366 106.286 180.56 102.912C180.609 102.017 180.623 101.207 180.637 100.531C180.637 100.179 180.637 99.8268 180.637 99.5732V98.3125L183.032 98.3688V99.6507C183.032 99.9324 183.032 100.242 183.032 100.58C183.032 101.285 183.032 102.123 182.947 103.059C182.752 106.526 182.338 109.977 181.708 113.392C181.504 114.709 181.194 116.033 180.891 117.308C180.771 117.801 180.658 118.294 180.553 118.772C179.989 120.885 179.581 122.294 179.222 123.456L178.13 126.682C177.827 127.478 177.637 127.921 177.637 127.921Z" fill="#F7B928"/>
<path d="M22.3647 127.922C22.3647 127.922 22.1745 127.478 21.8787 126.676L20.7871 123.45C20.4138 122.253 20.0123 120.823 19.4559 118.787L19.1108 117.273C18.808 115.998 18.4981 114.674 18.2868 113.315C17.6608 109.921 17.2491 106.492 17.0543 103.046C16.9979 102.095 16.9768 101.264 16.9627 100.567C16.9627 100.215 16.9627 99.905 16.9627 99.6374L16.9064 98.3415L19.301 98.2852L19.3362 99.567C19.3362 99.8276 19.3362 100.152 19.3362 100.511C19.3362 101.215 19.3714 101.99 19.4207 102.898C19.6107 106.251 20.0106 109.589 20.618 112.892C20.8293 114.216 21.1251 115.491 21.4209 116.724C21.5336 117.231 21.6534 117.731 21.759 118.217C22.2943 120.168 22.6887 121.576 23.0479 122.71L24.1184 125.88C24.372 126.584 24.541 126.985 24.548 127L22.3647 127.922Z" fill="#F7B928"/>
<path d="M100.01 191.479L99.7489 191.197C99.7489 191.197 98.277 189.598 96.326 187.26C95.2555 185.999 94.0582 184.379 93.1285 183.111C92.5651 182.33 92.0016 181.541 91.4664 180.752C90.9311 179.963 90.4099 179.125 89.8535 178.231C88.6914 176.364 87.7406 174.709 87.0363 173.237C86.332 171.765 85.5009 170.209 84.9234 168.821C83.9303 166.525 83.3246 164.905 83.1908 164.539C83.0007 164.497 82.7823 164.433 82.5499 164.37L80.5708 163.807C78.6551 163.25 76.183 162.398 73.6264 161.334C70.4281 159.966 67.3308 158.373 64.3578 156.566C60.9537 154.479 57.7413 152.093 54.7582 149.439C49.1598 144.46 44.4031 138.61 40.6721 132.113C39.4333 129.981 38.3163 127.78 37.3267 125.521C37.0661 124.985 36.883 124.507 36.7351 124.112C36.6647 123.922 36.6013 123.753 36.5379 123.605L36.2984 122.999L34.2771 122.506L32.1642 121.894L31.4599 119.858C31.3401 119.485 31.2274 119.069 31.1077 118.633C31.0302 118.365 30.9528 118.09 30.8683 117.809C30.7837 117.527 30.7626 117.421 30.7063 117.231C30.5372 116.654 30.3682 116.055 30.2414 115.442L29.6991 113.076C29.5935 112.59 29.509 112.132 29.4315 111.667C29.3892 111.421 29.354 111.188 29.3117 110.963L29.0441 109.491C29.0044 109.298 28.9762 109.103 28.9596 108.906H29.2554C29.2724 109.089 29.3006 109.27 29.3399 109.449L29.6005 110.928C29.6428 111.153 29.685 111.392 29.7273 111.632C29.8048 112.069 29.8822 112.526 29.9879 113.005L30.5372 115.372C30.657 115.977 30.826 116.569 30.995 117.14C31.0514 117.337 31.1077 117.527 31.157 117.717C31.2063 117.907 31.319 118.28 31.3965 118.541C31.5162 118.978 31.6289 119.386 31.7486 119.752L32.3825 121.64L34.3616 122.211L36.5238 122.739L36.8196 123.485C36.883 123.633 36.9464 123.802 37.0238 123.999C37.1647 124.38 37.3478 124.852 37.6014 125.408C38.578 127.658 39.6784 129.851 40.8975 131.979C44.6027 138.447 49.3311 144.272 54.899 149.228C57.8658 151.865 61.0593 154.236 64.4423 156.313C67.4027 158.109 70.4858 159.696 73.6687 161.06C76.2182 162.095 78.6762 162.968 80.5849 163.518L82.564 164.081C82.8246 164.159 83.064 164.222 83.2683 164.264H83.381V164.356C83.4514 164.539 84.0853 166.222 85.1347 168.68C85.7263 170.089 86.5081 171.61 87.2476 173.082C87.9871 174.554 88.9309 176.188 90.0648 178.055C90.6212 178.942 91.1565 179.787 91.6706 180.562C92.1847 181.337 92.7693 182.14 93.3328 182.914C94.2484 184.175 95.4457 185.788 96.5162 187.048C98.2699 189.161 99.6222 190.64 99.8828 190.929H100.918L104.038 190.852C104.947 190.852 105.968 190.746 107.151 190.647L108.884 190.514C109.496 190.471 110.13 190.387 110.799 190.302L111.842 190.169L112.68 190.063C113.469 189.964 114.286 189.859 115.117 189.697C120.316 188.853 125.43 187.552 130.4 185.809C146.849 180.071 161.352 169.82 172.25 156.228L174.292 153.615L176.926 149.883L178.694 147.136C179.187 146.382 179.567 145.727 179.877 145.171C180.032 144.896 180.166 144.65 180.293 144.466L180.807 143.565C180.694 143.185 180.244 141.748 179.483 139.769C178.983 138.438 178.469 137.149 177.962 135.944C177.328 134.536 176.666 133.092 175.99 131.719C175.313 130.345 174.511 128.901 173.82 127.683C173.13 126.464 172.454 125.331 171.799 124.337C170.538 122.408 169.686 121.224 169.686 121.217L169.637 121.154L169.996 120.091L170.954 116.703L171.433 114.653L171.722 114.724L171.25 116.78L170.285 120.175L169.961 121.126C170.369 121.612 171.405 123.175 172.074 124.176C172.743 125.176 173.405 126.338 174.102 127.535C174.799 128.732 175.588 130.162 176.278 131.585C176.969 133.007 177.624 134.402 178.257 135.811C178.765 137.022 179.279 138.311 179.786 139.649C180.589 141.762 181.046 143.241 181.131 143.516V143.579V143.642L180.575 144.607C180.455 144.812 180.314 145.051 180.166 145.312C179.856 145.861 179.462 146.537 178.976 147.298L177.081 150.242L174.56 153.798L172.51 156.411C161.586 170.057 147.035 180.344 130.527 186.091C125.541 187.841 120.41 189.147 115.194 189.992C114.363 190.154 113.539 190.26 112.743 190.359L111.912 190.464L110.87 190.598C110.166 190.69 109.553 190.767 108.933 190.817L107.2 190.95C106.017 191.042 104.996 191.126 104.08 191.148L100.953 191.225H99.9954L100.01 191.479Z" fill="#F7B928"/>
<path d="M138.327 176.504L137.222 176.039C136.306 175.631 135.383 175.208 134.489 174.778L134.109 174.595C133.109 174.109 131.996 173.553 130.777 172.891C129.369 172.13 128.038 171.334 126.72 170.525C125.403 169.715 124.016 168.757 122.875 167.947L121.192 166.728L119.713 165.566C118.163 164.32 117.114 163.404 116.86 163.179C116.318 163.312 113.057 164.122 109.761 164.587L107.092 164.925C106.563 164.982 106.056 165.017 105.577 165.052L104.746 165.108C103.626 165.221 102.788 165.235 102.535 165.235C102.302 165.608 101.83 166.376 101.302 167.144L99.8936 169.179L97.2455 169.109C96.5905 169.109 96.02 169.109 95.4565 169.024L94.5973 168.954C93.5127 168.876 92.2942 168.785 91.0194 168.595C89.7447 168.405 88.3079 168.207 86.9556 167.968L85.9837 167.792C85.4414 167.686 84.9061 167.559 84.3849 167.44L83.4482 167.221L82.2086 166.933L81.0113 166.595L80.1169 166.341C79.645 166.207 79.1942 166.08 78.7576 165.947L76.7644 165.242C75.8558 164.953 75.0811 164.644 74.4543 164.397L73.8134 164.144L72.7006 163.707L72.8062 163.425L73.919 163.862L74.567 164.115C75.1867 164.362 75.9756 164.672 76.8559 164.953L78.8491 165.658C79.2787 165.792 79.7295 165.918 80.1943 166.052L81.0958 166.306L82.2861 166.644L83.5116 166.933C83.8285 166.996 84.1384 167.073 84.4554 167.144C84.9695 167.271 85.5048 167.397 86.033 167.496L87.012 167.672C88.3572 167.912 89.7517 168.165 91.0547 168.299C92.3576 168.433 93.5408 168.581 94.6184 168.658L95.4847 168.721C96.0411 168.778 96.5975 168.806 97.2525 168.813L99.7387 168.876L100.443 167.827L101.021 166.975C101.556 166.165 102.077 165.341 102.274 165.031L102.316 164.961H102.415C102.415 164.961 103.345 164.961 104.69 164.841L105.528 164.777C105.993 164.777 106.5 164.707 107.021 164.658L109.683 164.313C113.254 163.791 116.79 162.904 116.825 162.904H116.903L116.966 162.96C116.966 162.96 118.086 163.96 119.861 165.39L121.34 166.545L123.016 167.764C124.15 168.56 125.495 169.496 126.84 170.327C128.185 171.158 129.517 171.933 130.89 172.687C132.073 173.349 133.207 173.898 134.207 174.384L134.588 174.567C135.475 174.99 136.391 175.412 137.306 175.821L138.285 176.229C138.56 176.096 139.729 175.525 141.553 174.539L142.56 173.962C143.37 173.504 144.286 172.983 145.272 172.384L146.54 171.574C147.624 170.87 148.751 170.165 149.913 169.313C162.505 160.436 172.516 148.376 178.923 134.366C180.87 130.135 182.458 125.748 183.67 121.252C183.959 120.301 184.17 119.399 184.375 118.434L184.966 115.85L185.72 111.624L186.192 107.912H186.488L186.016 111.638L185.255 115.864L184.663 118.448C184.438 119.456 184.227 120.357 183.959 121.308C182.742 125.822 181.147 130.225 179.191 134.471C172.765 148.528 162.723 160.627 150.089 169.531C148.92 170.398 147.793 171.116 146.702 171.806C146.258 172.081 145.835 172.349 145.427 172.616C144.434 173.215 143.518 173.743 142.708 174.201L141.701 174.786C139.588 175.884 138.37 176.504 138.356 176.511L138.327 176.504Z" fill="#F7B928"/>
<path d="M123.535 176.469C123.535 176.469 124.056 176.835 124.845 177.335C125.634 177.835 126.705 178.497 127.803 179.145C130.008 180.477 132.325 181.618 132.325 181.618L134.551 180.737C135.649 180.272 136.741 179.765 136.741 179.765L135.262 179.103L133.783 178.399L132.093 177.54C130.959 176.948 129.853 176.342 129.036 175.885C128.219 175.427 127.684 175.096 127.684 175.096L125.613 175.8L124.204 176.279L123.535 176.469Z" fill="#F7B928"/>
<path d="M116.492 178.258C116.492 178.258 118.421 179.801 120.506 181.308C121.548 182.076 122.619 182.766 123.422 183.294L124.788 184.16L125.492 183.956C125.922 183.829 126.5 183.681 127.063 183.484L129.331 182.716L127.922 181.914C127.084 181.421 125.993 180.801 124.908 180.097C122.739 178.688 120.731 177.279 120.731 177.279C120.731 177.279 120.471 177.364 120.069 177.448L118.604 177.786L116.492 178.258Z" fill="#F7B928"/>
<path d="M109.316 179.379C109.316 179.379 111.098 181.112 113.049 182.809C115 184.506 117.05 186.028 117.05 186.028L117.789 185.894C118.226 185.816 118.81 185.669 119.395 185.542L121.726 184.999C121.726 184.999 119.557 183.513 117.55 181.985C116.543 181.217 115.557 180.386 114.838 179.788L113.648 178.773L112.944 178.893C112.542 178.971 112 179.041 111.458 179.104L109.316 179.379Z" fill="#F7B928"/>
<path d="M102.073 179.871L103.108 181.061C103.735 181.765 104.594 182.716 105.481 183.603C107.249 185.414 109.186 187.202 109.186 187.202L111.553 186.907L113.187 186.695C113.63 186.646 113.891 186.583 113.891 186.583C113.891 186.583 113.384 186.188 112.644 185.54C111.905 184.892 110.94 184.054 110.003 183.195C109.066 182.336 108.165 181.469 107.496 180.779L106.397 179.652L104.221 179.814L102.073 179.871Z" fill="#F7B928"/>
<path d="M94.8163 179.744L95.739 181.026C96.3024 181.773 97.0772 182.759 97.8871 183.745C98.697 184.731 99.5211 185.731 100.169 186.456L101.254 187.639L103.641 187.583C104.233 187.583 104.832 187.583 105.275 187.506L106.022 187.449L104.874 186.322C104.169 185.618 103.31 184.681 102.451 183.738C101.592 182.794 100.775 181.843 100.169 181.132C99.5633 180.42 99.176 179.906 99.176 179.906L96.9926 179.85C95.901 179.843 94.8163 179.744 94.8163 179.744Z" fill="#F7B928"/>
<path d="M169.28 146.495L167.329 145.087L168.034 144.058L169.492 141.783C170.027 140.973 170.513 140.121 170.9 139.494L171.534 138.389L173.647 139.579L173.02 140.671C172.64 141.34 172.133 142.234 171.555 143.093L170.076 145.396L169.28 146.495Z" fill="#F7B928"/>
<path d="M107.345 164.764L108.084 163.594L109.493 163.425C109.845 163.383 110.197 163.334 110.443 163.285L110.873 163.207L111.915 164.094L111.211 165.292L110.767 165.376C110.444 165.441 110.117 165.488 109.788 165.517L108.38 165.7L107.345 164.764Z" fill="#F7B928"/>
<path d="M108.184 166.174L106.776 164.836L107.839 163.18L109.431 162.976C109.738 162.949 110.044 162.904 110.347 162.842L110.995 162.723L112.488 163.997L111.502 165.702L110.854 165.822C110.619 165.869 110.281 165.918 109.84 165.969L108.184 166.174ZM107.917 164.688L108.494 165.23L109.713 165.075C110.03 165.046 110.345 164.999 110.657 164.934L110.91 164.892L111.312 164.188L110.72 163.681L110.495 163.716C110.269 163.765 109.945 163.814 109.516 163.864L108.346 164.012L107.917 164.688Z" fill="#F7B928"/>
<path d="M149.402 144.107L149.318 143.403C149.275 143.058 149.226 142.699 149.226 142.699L151.071 140.586H151.776H152.48L152.621 141.29C152.691 141.642 152.741 141.995 152.741 141.995L150.839 144.192H150.135L149.402 144.107Z" fill="#F7B928"/>
<path d="M150.997 144.629L149.004 144.538L148.757 142.608L150.87 140.164H151.751H152.814L153.018 141.221C153.096 141.573 153.145 141.925 153.145 141.925L153.18 142.129L150.997 144.629ZM149.807 143.679L150.603 143.714L152.23 141.84C152.23 141.714 152.173 141.544 152.138 141.375L152.075 141.059H151.279L149.701 142.883L149.807 143.679Z" fill="#F7B928"/>
<path d="M144.858 148.608V147.904C144.858 147.566 144.823 147.2 144.823 147.2L146.865 145.256L148.232 145.362L148.366 146.77L146.253 148.777C146.253 148.777 145.915 148.742 145.548 148.686L144.858 148.608Z" fill="#F7B928"/>
<path d="M146.402 149.227H146.198C146.198 149.227 145.846 149.227 145.494 149.135L144.43 148.98V147.924C144.43 147.593 144.395 147.254 144.395 147.254V147.043L146.733 144.811L148.67 144.958L148.86 146.945L146.402 149.227ZM145.296 148.184L145.62 148.226L146.078 148.29L147.874 146.578L147.797 145.775L147.015 145.712L145.268 147.374C145.268 147.515 145.268 147.698 145.268 147.874L145.296 148.184Z" fill="#F7B928"/>
<path d="M130.207 166.674C129.912 166.655 129.629 166.551 129.391 166.375C129.154 166.198 128.972 165.957 128.869 165.681C128.757 165.527 128.682 165.35 128.647 165.163C128.613 164.976 128.62 164.784 128.669 164.6C128.718 164.417 128.807 164.246 128.93 164.101C129.053 163.956 129.206 163.841 129.38 163.762C129.553 163.684 129.741 163.645 129.931 163.649C130.121 163.652 130.308 163.698 130.478 163.782C130.648 163.867 130.797 163.988 130.915 164.137C131.032 164.287 131.115 164.46 131.158 164.645C131.256 164.843 131.314 165.058 131.328 165.278C131.343 165.498 131.313 165.719 131.242 165.927C131.192 166.07 131.114 166.202 131.013 166.315C130.911 166.427 130.788 166.518 130.65 166.582C130.511 166.645 130.36 166.676 130.207 166.674ZM129.812 164.561C129.622 164.631 129.538 164.948 129.693 165.314C129.848 165.681 130.129 165.822 130.284 165.751C130.313 165.736 130.339 165.715 130.359 165.69C130.38 165.664 130.395 165.635 130.404 165.603C130.457 165.408 130.437 165.2 130.348 165.019C130.305 164.903 130.234 164.801 130.14 164.722C130.046 164.643 129.933 164.59 129.812 164.568V164.561Z" fill="#F7B928"/>
<path d="M23.0004 94.7355C23.0004 94.7355 23.0004 94.6158 23.0004 94.3975C23.0004 94.1792 23.0426 93.8552 23.0708 93.4467C23.1412 92.6297 23.2046 91.4535 23.3455 90.0519C23.4371 89.3476 23.5357 88.6011 23.6343 87.7982C23.6836 87.3967 23.7399 86.9882 23.7892 86.5657C23.8385 86.1431 23.9442 85.7205 24.0216 85.2909C24.1766 84.4246 24.3386 83.5301 24.5076 82.6216C24.6766 81.713 24.9231 80.8045 25.1344 79.8889C25.9523 76.5343 26.9995 73.2398 28.2686 70.0287L28.9729 68.2468L29.5786 66.9086L30.1138 65.7324L30.9027 65.5563C31.3745 65.4437 32.0154 65.3169 32.6634 65.2042C33.9664 64.9788 35.213 64.7957 35.213 64.7957L35.544 64.1618C35.7342 63.7533 36.0581 63.1899 36.4525 62.5138C36.847 61.8376 37.2766 61.0418 37.7907 60.2177L39.4388 57.6329L41.1995 55.1468C41.7559 54.3439 42.3546 53.6536 42.8265 53.0339C43.7702 51.7943 44.4745 51.0266 44.4745 51.0266L44.1646 49.618L43.8688 48.2094C43.8688 48.2094 44.2985 47.6882 45.1859 46.8008L46.7917 45.1175L49.0948 42.9623C53.906 38.5299 59.2731 34.7418 65.0613 31.6935C73.2465 27.3792 82.1657 24.6323 91.3599 23.5941C106.572 21.8408 121.957 24.772 135.458 31.996C148.96 39.22 159.935 50.3927 166.917 64.021C167.882 65.8099 168.636 67.5988 169.389 69.2821C170.143 70.9654 170.735 72.6205 171.228 74.2122C172.142 76.8962 172.899 79.6312 173.496 82.4032C173.784 83.5442 173.911 84.6007 174.087 85.4951C174.172 85.9529 174.249 86.3685 174.313 86.7488C174.376 87.1291 174.411 87.4531 174.453 87.7982C174.615 89.0589 174.7 89.728 174.7 89.728L179.06 89.2279C179.06 89.2279 178.94 88.3123 178.721 86.5868C178.503 84.8613 178.017 82.361 177.264 79.2057C175.116 70.4874 171.498 62.1988 166.565 54.696L165.995 53.8086L165.382 52.9493L164.135 51.1956C163.29 50.0265 162.346 48.8926 161.431 47.6741C159.444 45.2962 157.328 43.0296 155.092 40.8847C152.736 38.6265 150.247 36.5099 147.641 34.5459L145.598 33.1021L144.563 32.3978L143.492 31.6935L141.323 30.2849L139.076 28.989L137.942 28.341L136.78 27.7424L134.428 26.538C132.808 25.8337 131.216 25.0308 129.54 24.4251C126.185 23.0735 122.74 21.958 119.229 21.0867L116.56 20.474C115.665 20.2557 114.757 20.1359 113.855 19.9599C112.052 19.5936 110.214 19.4246 108.383 19.1781C107.467 19.0795 106.545 19.0302 105.622 18.9527L104.213 18.8471C103.756 18.8471 103.291 18.8471 102.805 18.8048L100.03 18.7344L97.2126 18.8048L95.804 18.84L94.3954 18.9457L91.6275 19.157C89.7964 19.4105 87.944 19.5725 86.134 19.9387C82.5534 20.5551 79.0207 21.4236 75.5624 22.5376C72.124 23.6614 68.7621 25.0071 65.4979 26.5662L63.1174 27.7846C62.723 27.9889 62.3215 28.1861 61.9342 28.3974L60.7862 29.0594C60.0255 29.5031 59.2508 29.9257 58.5042 30.3835L56.2998 31.7921C55.5955 32.2429 54.8912 32.757 54.1869 33.2571C53.4826 33.7571 52.7783 34.2361 52.074 34.7643C50.7358 35.8278 49.3765 36.8279 48.1369 37.9548C45.6569 40.0865 43.3051 42.363 41.0939 44.7724C37.0824 49.2209 33.5705 54.0956 30.6209 59.3092C28.1343 63.7194 26.0776 68.3587 24.4794 73.1628C23.2403 76.8694 22.2844 80.6648 21.62 84.5161C21.3101 86.1079 21.1551 87.5517 20.9931 88.7983C20.8311 90.0449 20.7396 91.1154 20.6762 91.9817C20.6128 92.848 20.5635 93.5171 20.5283 93.9608C20.5283 94.1862 20.5283 94.3552 20.5283 94.4679V94.644L23.0004 94.7355Z" fill="#F7B928"/>
<path d="M71.9724 27.5742L73.7613 28.6799C74.6417 29.2293 75.508 29.835 75.508 29.835L76.7405 29.4195L78.1491 28.9405C78.6985 28.7574 79.3253 28.6025 80.0014 28.4053C83.3295 27.4493 86.7243 26.743 90.1575 26.2924C93.5922 25.8121 97.0567 25.5768 100.525 25.5881C101.933 25.6303 103.124 25.6444 103.948 25.6867L105.244 25.7853C105.244 25.7853 106.047 24.8345 106.892 23.8907C107.737 22.9469 108.617 22.0384 108.617 22.0384L108.202 21.9961C107.927 21.9539 107.497 21.9327 107.011 21.9046L105.159 21.8341L104.018 21.7637H102.757C98.4591 21.67 94.1607 21.9504 89.911 22.6018C85.6759 23.2443 81.4998 24.2288 77.4237 25.5458C75.7827 26.1374 74.4023 26.6023 73.4514 26.9544L71.9724 27.5742Z" fill="#F7B928"/>
<path d="M114.345 23.5938L114.64 24.1783C114.809 24.5375 115.042 24.9883 115.26 25.4813C115.69 26.4462 116.112 27.4111 116.112 27.4111L117.007 27.6153C117.542 27.735 118.261 27.89 118.965 28.1083L120.902 28.6577C121.437 28.8056 121.782 28.9183 121.782 28.9183C121.782 28.9183 122.775 28.214 123.817 27.5097C124.86 26.8054 125.93 26.1011 125.93 26.1011L124.141 25.601C123.078 25.277 121.62 24.9601 120.176 24.6432L119.099 24.3967L118.042 24.2135L116.176 23.8896C115.633 23.791 115.176 23.7205 114.852 23.6924L114.345 23.5938Z" fill="#F7B928"/>
<path d="M15.9311 95.4969H15.6282L15.6705 94.0108L15.9663 90.0949C16.3553 86.1321 17.0237 82.2017 17.9665 78.3331C18.8972 74.4599 20.1119 70.6604 21.6007 66.9657C22.0515 65.7613 22.5163 64.7471 22.8896 63.9301L23.1502 63.3526L23.7488 62.0356C23.7488 61.9229 23.8474 61.9017 24.7912 61.6764C25.5871 61.4862 26.4181 61.296 27.2422 61.12C28.2282 60.9087 29.4044 60.6622 30.658 60.4157C31.9117 60.1692 33.2851 60.0142 34.588 59.8522L36.539 59.6339L38.4617 59.486C39.6027 59.4156 40.7225 59.3592 41.8001 59.331C42.5678 59.331 43.2087 59.331 43.7792 59.331H44.9624L45.9977 57.8802L46.9767 56.6406C47.519 55.9363 48.1388 55.1475 48.8572 54.3516L50.1601 52.8515L51.3504 51.6119C52.95 49.9337 54.638 48.3421 56.4073 46.8438C56.9355 46.3648 57.4285 45.9845 57.8159 45.6746L58.168 45.4L58.7878 44.9069C58.7878 44.5407 58.654 42.9208 58.654 41.3361C58.654 39.5261 58.654 37.6386 58.654 37.6174V37.3991L58.7878 37.4695C58.8583 37.4132 58.978 37.3357 59.147 37.2301L61.8938 35.4693L63.8025 34.3776C64.6828 33.8424 65.5914 33.3846 66.4013 32.969L67.4367 32.4408C67.8663 32.2084 68.303 31.9971 68.6621 31.8421L69.127 31.6309L69.2538 31.9055L68.7819 32.1168C68.5776 32.2013 68.148 32.3985 67.5775 32.7014L66.5352 33.2367C65.7323 33.6381 64.8237 34.0959 63.9574 34.6453L62.0558 35.744L59.309 37.4977C59.1848 37.5706 59.0649 37.6506 58.9498 37.7372C58.9498 38.1034 58.8935 39.7655 58.9498 41.3643C58.9498 43.1532 59.0836 44.9844 59.0836 45.0055V45.076L58.3441 45.6605L57.9849 45.9423C57.5905 46.2451 57.1046 46.6466 56.5763 47.0973C54.8142 48.5886 53.1332 50.1732 51.5406 51.8443L50.2376 53.2036L49.0544 54.6122C48.3501 55.4081 47.7233 56.1898 47.1809 56.8871L46.209 58.1196L45.1173 59.655H43.7721C43.2369 59.655 42.5678 59.655 41.8142 59.655C40.7366 59.655 39.6167 59.7325 38.4828 59.81L36.5671 59.9508L34.6233 60.1692C33.3203 60.3311 32.0032 60.5143 30.7073 60.7256C29.4114 60.9368 28.2845 61.1904 27.3056 61.4299C26.4815 61.6059 25.6575 61.7961 24.8546 61.9933C24.4179 62.0919 24.1503 62.1694 24.0094 62.2046L23.4178 63.5005C23.3403 63.6766 23.2558 63.8667 23.1572 64.078C22.791 64.888 22.3332 65.8951 21.8824 67.0995C20.3978 70.7807 19.1855 74.5659 18.2553 78.4247C17.3189 82.28 16.6529 86.1961 16.2621 90.1442L15.9663 94.0461L15.9311 95.4969Z" fill="#F7B928"/>
<path d="M19.301 98.3421L16.9064 98.2857L16.9416 97.0039C16.9416 96.7222 16.9416 96.4123 16.9416 96.0672C16.9416 95.3629 16.9768 94.5318 17.0261 93.5951C17.2415 90.13 17.6719 86.6817 18.315 83.27C18.5192 81.953 18.8291 80.6289 19.132 79.3541L19.47 77.8892C20.0335 75.7763 20.4349 74.3677 20.8012 73.2056L21.8928 69.9799C22.1957 69.1558 22.3858 68.7051 22.3858 68.7051L24.5903 69.6277C24.5903 69.6277 24.4142 70.0573 24.1536 70.7687L23.0549 73.9521C22.7098 75.0649 22.3506 76.4665 21.7731 78.4737C21.6745 78.9104 21.5548 79.4034 21.4421 79.8823C21.1463 81.1149 20.8505 82.3897 20.6533 83.6644C20.0359 86.9948 19.6313 90.3612 19.4419 93.743C19.3926 94.6375 19.3714 95.4404 19.3573 96.1165C19.3573 96.4757 19.3573 96.8208 19.3573 97.0814L19.301 98.3421Z" fill="#F7B928"/>
<path d="M180.697 98.3421V97.0673C180.697 96.7997 180.697 96.4827 180.697 96.1235C180.697 95.4192 180.697 94.6375 180.619 93.7289C180.426 90.3758 180.024 87.0379 179.415 83.7349C179.211 82.4108 178.908 81.136 178.619 79.9035C178.499 79.3964 178.387 78.8963 178.274 78.4104C177.746 76.4594 177.344 75.0579 176.992 73.9169L175.922 70.7475C175.668 70.0432 175.492 69.6418 175.492 69.6277L177.696 68.7051C177.696 68.7051 177.887 69.1558 178.175 69.9517L179.267 73.1774C179.64 74.3747 180.049 75.8044 180.598 77.8399C180.718 78.3681 180.831 78.8611 180.95 79.3541C181.253 80.6289 181.563 81.953 181.774 83.3193C182.4 86.7106 182.812 90.1379 183.007 93.581C183.063 94.5389 183.077 95.377 183.091 96.0742C183.091 96.4193 183.091 96.7222 183.091 96.9898V98.2857L180.697 98.3421Z" fill="#F7B928"/>
<path d="M170.759 87.7141C170.742 87.5317 170.713 87.3506 170.674 87.1718L170.406 85.6927C170.364 85.4744 170.329 85.2349 170.287 84.9884C170.209 84.5447 170.132 84.0869 170.026 83.5798L169.477 81.2134C169.35 80.6077 169.181 80.0161 169.019 79.4456L168.85 78.868C168.77 78.5863 168.693 78.3116 168.618 78.044C168.498 77.6073 168.385 77.1988 168.265 76.8326L167.624 74.9451L165.652 74.3746L163.49 73.8464L163.194 73.0998C163.131 72.9519 163.061 72.7829 162.99 72.5857C162.842 72.2053 162.666 71.7335 162.413 71.1771C161.433 68.9276 160.331 66.7338 159.109 64.6059C155.395 58.1553 150.659 52.3493 145.087 47.4139C142.12 44.7694 138.924 42.3936 135.536 40.3146C132.573 38.5195 129.488 36.9333 126.303 35.5676C124.05 34.6307 121.751 33.808 119.415 33.1025L117.429 32.5391C117.175 32.4616 116.929 32.3982 116.725 32.363H116.605V32.2714C116.541 32.0883 115.901 30.4051 114.858 27.947C114.26 26.5384 113.45 25.0171 112.745 23.5522C112.041 22.0872 111.062 20.4392 109.928 18.5798C109.379 17.6854 108.843 16.8402 108.329 16.0655C107.815 15.2907 107.231 14.4878 106.667 13.7131C105.745 12.4524 104.554 10.8396 103.484 9.57885C101.73 7.46595 100.371 5.98691 100.117 5.70519H99.0818L95.9547 5.78971C95.0462 5.78971 94.0179 5.89535 92.8347 5.98691L91.1162 6.12073C90.5034 6.16299 89.8625 6.24751 89.1934 6.33202L88.1511 6.46584L87.32 6.57148C86.5312 6.67009 85.7142 6.77573 84.8831 6.93772C79.6821 7.78249 74.5656 9.08342 69.5927 10.8255C53.1432 16.559 38.6418 26.8108 27.7502 40.4061L25.7077 43.0191L23.0666 46.7519L21.3058 49.5057C20.8128 50.2523 20.4325 50.9143 20.1226 51.4707C19.9676 51.7383 19.8338 51.9848 19.707 52.175L19.1859 53.0765C19.3056 53.4568 19.7564 54.8936 20.517 56.8727C21.01 58.1968 21.5241 59.4857 22.0383 60.6971C22.6651 62.1057 23.3342 63.5143 24.0103 64.9229C24.6865 66.3315 25.4894 67.7401 26.1725 68.9585C26.8557 70.177 27.5811 71.3109 28.1939 72.3039C29.4405 74.2056 30.3068 75.417 30.3068 75.424L30.3561 75.4874L29.9969 76.5509L29.032 79.9386L28.5601 81.9881L28.2643 81.9247L28.7432 79.8611L29.7081 76.4664L30.018 75.5367C29.8279 75.2691 29.0179 74.1281 27.9051 72.4659C27.2501 71.4729 26.5669 70.3108 25.8697 69.1064C25.1724 67.9021 24.3907 66.4794 23.7004 65.0567C23.0102 63.634 22.3552 62.2395 21.7214 60.8309C21.2072 59.6124 20.6931 58.3236 20.193 56.9995C19.3901 54.8866 18.9253 53.4005 18.8408 53.1258V53.0624V52.999L19.3901 52.0412C19.5169 51.8299 19.6507 51.5904 19.8057 51.3369C20.1155 50.7875 20.51 50.1114 20.9959 49.3508L22.8905 46.4068L25.4119 42.8853L27.4685 40.216C34.5682 31.3595 43.228 23.8764 53.0205 18.1361C58.2439 15.0851 63.7516 12.5494 69.466 10.5649C74.4522 8.8095 79.5827 7.49447 84.7986 6.63487C85.6367 6.47288 86.4608 6.36724 87.2566 6.26863L88.0877 6.16299L89.123 6.02917C89.8273 5.94466 90.4401 5.86014 91.0669 5.81084L92.7783 5.68406C93.9686 5.58546 95.0039 5.50799 95.9195 5.47982L99.0466 5.40234C99.7509 5.40234 100.152 5.40234 100.152 5.40234H100.216L100.265 5.45164C100.265 5.45164 101.737 7.05041 103.681 9.38869C104.759 10.6564 105.956 12.2693 106.878 13.537C107.449 14.3188 108.005 15.1076 108.548 15.8964C109.09 16.6853 109.604 17.5234 110.161 18.4178C111.316 20.2913 112.273 21.9393 112.978 23.4113C113.682 24.8833 114.52 26.4328 115.091 27.8273C116.084 30.1304 116.689 31.7432 116.823 32.1095C117.006 32.1517 117.232 32.2151 117.457 32.2855L119.443 32.849C121.798 33.5526 124.116 34.3754 126.388 35.314C129.585 36.6853 132.682 38.2786 135.656 40.0821C139.079 42.1603 142.31 44.5385 145.312 47.1886C150.915 52.1656 155.672 58.0194 159.398 64.5214C160.624 66.6605 161.724 68.8686 162.694 71.1348C162.955 71.6701 163.138 72.149 163.286 72.5434C163.356 72.7336 163.42 72.9026 163.483 73.0505L163.723 73.6562L165.744 74.1492L167.857 74.769L168.561 76.8044C168.674 77.1777 168.794 77.5862 168.913 78.0229C168.993 78.2905 169.071 78.5652 169.146 78.8469L169.315 79.4315C169.477 80.002 169.653 80.6006 169.773 81.2134L170.322 83.5798C170.428 84.0658 170.512 84.5306 170.583 84.9884C170.625 85.2373 170.667 85.472 170.709 85.6927L170.977 87.1647C171.017 87.3577 171.045 87.5529 171.061 87.7493L170.759 87.7141Z" fill="#F7B928"/>
<path d="M13.749 88.8057H13.4532L13.9321 85.0799L14.6857 80.8541L15.2844 78.2693C15.5098 77.2692 15.7211 76.3607 15.9887 75.4099C17.207 70.8996 18.7995 66.4989 20.7498 62.2535C27.1755 48.1711 37.2286 36.0494 49.8797 27.13C51.0418 26.2637 52.1757 25.5524 53.2674 24.8551C53.7041 24.5804 54.1337 24.3128 54.5351 24.0452C55.5282 23.4465 56.4438 22.9183 57.2537 22.4605L58.2679 21.883C60.3808 20.7772 61.5993 20.1574 61.6134 20.1504H61.6697L62.7825 20.6152C63.684 20.9885 64.6066 21.4111 65.5011 21.8337L65.8744 22.0168C66.8815 22.5028 67.9873 23.0592 69.2128 23.7212C70.5791 24.4818 71.9455 25.2777 73.2696 26.0877C74.5936 26.8976 75.9741 27.8625 77.115 28.6654L78.7983 29.8838L80.2914 31.06C81.8409 32.3066 82.8903 33.2222 83.1087 33.4476C83.6439 33.3138 86.9119 32.5038 90.208 32.039L92.8703 31.6939C93.4055 31.6446 93.9126 31.6023 94.3845 31.5742L95.2156 31.5108C96.3425 31.3981 97.1736 31.384 97.4341 31.384C97.6666 31.0107 98.1384 30.243 98.6667 29.4753L100.075 27.4399L102.723 27.5103C103.378 27.5103 103.949 27.5456 104.505 27.6019L105.372 27.6653C106.449 27.7428 107.675 27.8343 108.949 28.0245C110.224 28.2146 111.654 28.4118 113.006 28.6513L113.985 28.8274C114.521 28.933 115.063 29.0598 115.577 29.1795L116.521 29.3979L117.753 29.6866L118.958 30.0317L119.852 30.2853C120.317 30.4121 120.775 30.5388 121.211 30.6727L123.205 31.377C124.113 31.6657 124.888 31.9756 125.515 32.2292L126.156 32.4827L127.268 32.9194L127.156 33.1941L126.071 32.7151L125.423 32.4616C124.803 32.2151 124.014 31.9052 123.134 31.6235L121.141 30.9192C120.711 30.7853 120.261 30.6586 119.796 30.5318L118.894 30.2853L117.704 29.9472L116.471 29.6655L115.507 29.4613C114.985 29.3345 114.457 29.2148 113.922 29.1091L112.95 28.933C111.598 28.6936 110.21 28.44 108.9 28.3062C107.59 28.1724 106.414 28.0245 105.379 27.947L104.512 27.8836C103.956 27.8273 103.393 27.7991 102.745 27.7921L100.251 27.7287L98.9554 29.6303C98.4131 30.4402 97.899 31.2643 97.7018 31.5742L97.6525 31.6446H97.5609C96.8011 31.6451 96.0417 31.685 95.286 31.7643L94.4479 31.8277C93.976 31.8629 93.476 31.8981 92.9477 31.9545L90.2855 32.2925C86.7217 32.8137 83.1791 33.7011 83.1439 33.7011H83.0664L83.01 33.6448C83.01 33.6448 81.8832 32.6447 80.1083 31.222L78.6363 30.0599L76.9601 28.8415C75.8262 28.0456 74.481 27.1089 73.1287 26.2778C71.7764 25.4467 70.4523 24.679 69.086 23.9184C67.9028 23.2634 66.7689 22.707 65.7687 22.221L65.3884 22.045C64.4869 21.6083 63.5713 21.1857 62.6698 20.7843L61.6838 20.4251C61.4091 20.5589 60.2752 21.1294 58.4158 22.1154L57.4016 22.6929C56.5987 23.1507 55.6831 23.6719 54.6971 24.2706L53.4294 25.0805C52.3377 25.7848 51.2108 26.4891 50.0558 27.3413C37.4602 36.2263 27.4491 48.296 21.0456 62.3169C19.0979 66.5504 17.5076 70.9394 16.2916 75.4381C16.0098 76.3818 15.7985 77.2833 15.5872 78.2553L14.9956 80.84L14.242 85.0659L13.749 88.8057Z" fill="#F7B928"/>
<path d="M76.4686 20.1633C76.4686 20.1633 75.9474 19.7971 75.1586 19.29C74.3698 18.7829 73.2993 18.1279 72.1935 17.4799C69.9891 16.1488 67.6789 15.0078 67.6789 15.0078L65.4533 15.8882C64.3476 16.3601 63.263 16.8601 63.263 16.8601L64.735 17.5222L66.221 18.2265L67.9043 19.0857C69.0453 19.6773 70.151 20.283 70.961 20.7408C71.7709 21.1986 72.3203 21.5367 72.3203 21.5296L74.3839 20.8253L75.7925 20.3464L76.4686 20.1633Z" fill="#F7B928"/>
<path d="M83.5095 18.3688C83.5095 18.3688 81.5797 16.8264 79.495 15.3192C78.4456 14.5515 77.3821 13.8613 76.5792 13.3331L75.2128 12.4668L74.5085 12.671C74.0789 12.7978 73.4943 12.9457 72.9309 13.1429L70.663 13.9106L72.0716 14.7135C72.9097 15.2065 74.0014 15.8263 75.079 16.5306C77.2482 17.9392 79.2555 19.3478 79.2555 19.3478C79.2555 19.3478 79.5161 19.2633 79.9175 19.1788L81.3825 18.8407L83.5095 18.3688Z" fill="#F7B928"/>
<path d="M90.6783 17.2482C90.6783 17.2482 88.8964 15.5156 86.9525 13.8183C85.0087 12.1209 82.9451 10.5996 82.9451 10.5996L82.2408 10.7334C81.797 10.8109 81.2195 10.9588 80.6349 11.0926L78.3037 11.6279C78.3037 11.6279 80.4659 13.114 82.4732 14.6423C83.4874 15.41 84.4734 16.2411 85.1918 16.8397L86.3821 17.861L87.0864 17.7412C87.4878 17.6567 88.0301 17.5863 88.5724 17.5229L90.6783 17.2482Z" fill="#F7B928"/>
<path d="M97.9009 16.7556L96.8656 15.5724C96.2317 14.8681 95.3795 13.9102 94.4921 13.0228C92.7243 11.2128 90.7875 9.42383 90.7875 9.42383L88.414 9.71963L86.787 9.93093C86.3363 9.98023 86.0475 10.0436 86.0475 10.0436C86.0475 10.0436 86.5476 10.4451 87.2871 11.086C88.0266 11.7269 88.9985 12.5791 89.9353 13.4313C90.872 14.2835 91.7735 15.1568 92.4426 15.8471L93.5342 16.9739L95.7176 16.812L97.9009 16.7556Z" fill="#F7B928"/>
<path d="M105.183 16.9027L104.24 15.5997C103.676 14.8954 102.902 13.8671 102.127 12.8811C101.352 11.8951 100.486 10.895 99.8449 10.1696L98.7602 8.98633L96.3727 9.04267C95.774 9.04267 95.1824 9.07789 94.7316 9.12015L93.9851 9.17649L95.1331 10.3034C95.8374 11.0077 96.7037 11.9514 97.5559 12.8882C98.4081 13.8249 99.2392 14.7827 99.8378 15.4941C100.436 16.2054 100.831 16.7196 100.831 16.7196L103.014 16.7759C104.092 16.7829 105.183 16.9027 105.183 16.9027Z" fill="#F7B928"/>
<path d="M28.4725 58.1897L26.3596 56.9994L26.9793 55.9148C27.3597 55.2105 27.8738 54.3442 28.4513 53.4849L29.9233 51.1819L30.6769 50.1113L32.6349 51.5199L31.9306 52.5412L30.4868 54.7949C29.9515 55.6049 29.4585 56.4571 29.0782 57.0839L28.4725 58.1897Z" fill="#F7B928"/>
<path d="M92.6622 31.8625L91.9156 33.0316L90.507 33.2077C90.1619 33.2429 89.8027 33.2922 89.5633 33.3415L89.1336 33.4261L88.0913 32.5316L88.7956 31.3343L89.2393 31.2498C89.5069 31.1934 89.8661 31.1512 90.2253 31.1089L91.6339 30.9258L92.6622 31.8625Z" fill="#F7B928"/>
<path d="M89.018 33.9062L87.5319 32.6314L88.5179 30.927L89.1659 30.8143C89.3983 30.765 89.7293 30.7157 90.1731 30.6593L91.807 30.4551L93.2156 31.7932L92.1592 33.4484L90.5604 33.6526C90.2552 33.6796 89.9519 33.7243 89.6519 33.7864L89.018 33.9062ZM88.687 32.4342L89.2786 32.9413L89.4969 32.906C89.7223 32.8567 90.0463 32.8074 90.4759 32.7581L91.6521 32.6102L92.0817 31.9412L91.5042 31.3988L90.2787 31.5538C89.9336 31.596 89.5744 31.6383 89.3349 31.6946L89.0884 31.7369L88.687 32.4342Z" fill="#F7B928"/>
<path d="M50.5942 52.5193L50.6787 53.2236L50.7773 53.9279L48.932 56.0408C48.932 56.0408 48.5799 56.0408 48.2277 56.0408H47.5234C47.5234 56.0408 47.4601 55.7027 47.3896 55.3365C47.3192 54.9703 47.2628 54.6322 47.2628 54.6322L49.1715 52.4277H49.8758L50.5942 52.5193Z" fill="#F7B928"/>
<path d="M47.1884 56.4856L46.9771 55.4292C46.9067 55.077 46.8503 54.7249 46.8503 54.7249V54.5136L49.0266 51.9922L50.9916 52.119L51.2452 54.0487L49.1323 56.4927H48.2519L47.1884 56.4856ZM47.773 54.7953C47.773 54.915 47.8223 55.0841 47.8575 55.2531L47.9209 55.57H48.7238L50.3014 53.7459L50.1958 52.9571L49.3999 52.9219L47.773 54.7953Z" fill="#F7B928"/>
<path d="M55.1422 48.0538V48.7581C55.1422 49.0962 55.1422 49.4624 55.1422 49.4624L53.0997 51.4063L51.7404 51.3006L51.6066 49.892L53.7195 47.8848C53.7195 47.8848 54.0576 47.8848 54.4238 47.9693L55.1422 48.0538Z" fill="#F7B928"/>
<path d="M53.318 51.8375L51.4164 51.6896L51.2191 49.7035L53.5997 47.4004H53.8039C53.8039 47.4004 54.1561 47.4004 54.5082 47.4919L55.5717 47.6469V48.7104C55.5717 49.0344 55.5717 49.3724 55.5717 49.3724V49.5908L53.318 51.8375ZM52.1981 50.8515L52.9869 50.9149L54.7336 49.2527C54.7336 49.1118 54.7336 48.9287 54.7336 48.7526V48.4498L54.4167 48.4005L53.9518 48.3371L52.1207 50.0486L52.1981 50.8515Z" fill="#F7B928"/>
<path d="M70.1858 32.9621C69.8929 32.9396 69.6119 32.8362 69.3744 32.6633C69.1368 32.4905 68.952 32.2549 68.8406 31.9831C68.6463 31.5832 68.616 31.1232 68.7561 30.7013C68.807 30.5596 68.8856 30.4294 68.9871 30.3182C69.0886 30.2069 69.2112 30.1169 69.3477 30.0533C69.7025 29.9722 70.0744 30.0163 70.4004 30.1781C70.7264 30.3399 70.9864 30.6094 71.1365 30.9409C71.2865 31.2725 71.3173 31.6457 71.2236 31.9974C71.1299 32.3491 70.9176 32.6575 70.6225 32.8705C70.4853 32.9324 70.3363 32.9637 70.1858 32.9621ZM69.7984 30.8492C69.7731 30.8419 69.7463 30.8419 69.721 30.8492C69.6911 30.8632 69.6649 30.8838 69.6441 30.9094C69.6234 30.935 69.6087 30.965 69.6012 30.9971C69.5441 31.1919 69.5643 31.4013 69.6576 31.5817C69.8196 31.9268 70.1083 32.0958 70.2492 32.0324C70.3901 31.969 70.4675 31.6521 70.3055 31.2858C70.2629 31.178 70.1943 31.0824 70.1058 31.0075C70.0174 30.9325 69.9118 30.8806 69.7984 30.8562V30.8492Z" fill="#F7B928"/>
<path d="M14.4541 150.425L13.2216 148.368C12.9962 148.016 12.799 147.664 12.6229 147.326L12.0595 146.276L15.6232 144.318L16.1726 145.34C16.3416 145.649 16.5248 145.995 16.736 146.333L17.9263 148.312L14.4541 150.425ZM12.5384 146.417L12.9328 147.157C13.1089 147.474 13.3061 147.861 13.5244 148.192L14.5738 149.939L17.4403 148.192L16.4402 146.495C16.2219 146.15 16.0317 145.79 15.8627 145.488L15.4824 144.783L12.5384 146.417Z" fill="#F7B928"/>
<path d="M11.3685 145.017L10.96 144.256L9.23444 140.735L12.9109 139.002L14.573 142.39L14.9675 143.094L11.3685 145.017ZM9.70632 140.904L11.5164 144.545L14.4885 142.974L14.2561 142.545L12.7489 139.453L9.70632 140.904Z" fill="#F7B928"/>
<path d="M8.64067 139.453L7.67577 137.263C7.47857 136.819 7.26024 136.298 7.0912 135.854L6.78131 135.051L10.5634 133.516L10.8663 134.304C11.0282 134.727 11.2255 135.22 11.4227 135.643L12.3453 137.756L8.64067 139.453ZM7.23206 135.227L7.41518 135.706C7.58421 136.157 7.79551 136.664 7.99271 137.115L8.8097 138.981L11.8805 137.572L11.0916 135.783C10.8944 135.354 10.6902 134.854 10.5282 134.417L10.3521 133.966L7.23206 135.227Z" fill="#F7B928"/>
<path d="M1.78882 118.028V117.859C1.78882 117.859 1.5564 116.76 1.36624 115.682L1 113.316L5.01452 112.703L5.37371 114.985C5.55683 116.02 5.77517 117.056 5.77517 117.098L5.81742 117.274L1.78882 118.028ZM1.36624 113.612L1.67613 115.626C1.82403 116.443 1.99307 117.267 2.0635 117.619L5.35258 116.964C5.28215 116.675 5.18355 116.119 4.98635 115.041L4.69054 113.105L1.36624 113.612Z" fill="#F7B928"/>
<path d="M3.08459 123.697L2.50706 121.373C2.2676 120.443 2.07744 119.485 2.02814 119.218V119.049L2.19717 118.999L6.0004 118.189V118.38C6.0497 118.64 6.23282 119.542 6.46524 120.436L7.01459 122.676L3.08459 123.697ZM2.38029 119.309C2.45776 119.69 2.61975 120.493 2.83104 121.288L3.33814 123.253L6.59201 122.408L6.12717 120.507C5.92292 119.746 5.76094 118.971 5.69051 118.598L2.38029 119.309Z" fill="#F7B928"/>
<path d="M22.3824 161.651L19.9807 158.581C19.706 158.235 19.5511 158.003 19.5511 158.003L19.4595 157.862L23.2064 155.045L22.8824 155.651C22.9458 155.742 23.0585 155.897 23.2135 156.087L25.5377 159.052L22.3824 161.651ZM19.9385 157.94C20.0089 158.038 20.1145 158.179 20.2484 158.348L22.4387 161.165L25.0446 159.052L22.9317 156.355L22.6359 155.961L19.9385 157.94Z" fill="#F7B928"/>
<path d="M182.35 48.7866L181.709 47.7372C181.512 47.4132 181.294 47.0329 181.04 46.6737L179.667 44.603L183.041 42.3281L184.449 44.4833C184.717 44.8636 184.949 45.258 185.154 45.6102L185.794 46.6807L182.35 48.7866ZM180.167 44.6946L181.35 46.4835C181.604 46.8568 181.829 47.2301 182.055 47.5681L182.498 48.2724L185.379 46.5328L184.914 45.7581C184.71 45.42 184.477 45.0538 184.21 44.6523L182.977 42.793L180.167 44.6946Z" fill="#F7B928"/>
<path d="M185.519 54.4349L183.582 50.85L183.117 50.0823L186.639 48.0469L187.11 48.8357L189.125 52.5685L185.519 54.4349ZM183.61 50.2091L183.892 50.6739L185.667 53.963L188.653 52.4206L186.815 49.0118L186.519 48.5258L183.61 50.2091Z" fill="#F7B928"/>
<path d="M188.27 60.2949L187.918 59.4638C187.734 59.006 187.495 58.4848 187.27 58.0552L186.192 55.8155L189.84 54.0195L190.953 56.3437C191.193 56.8227 191.446 57.372 191.657 57.858L192.017 58.7031L188.27 60.2949ZM186.643 55.9493L187.572 57.8721C187.805 58.3369 188.044 58.8651 188.227 59.33L188.446 59.83L191.524 58.4919L191.305 57.9636C191.108 57.4847 190.862 56.9424 190.601 56.4705L189.643 54.4632L186.643 55.9493Z" fill="#F7B928"/>
<path d="M194.825 82.7056L194.388 80.2899C194.17 79.17 193.916 78.0502 193.909 78.0431L193.867 77.8671L197.846 77.0078L197.889 77.1839C197.889 77.1839 198.156 78.3671 198.382 79.5363L198.811 82.0788L194.825 82.7056ZM194.325 78.0995C194.402 78.4023 194.522 79.001 194.754 80.2124L195.114 82.3253L198.431 81.7759L198.058 79.5856C197.882 78.6841 197.684 77.7825 197.6 77.4163L194.325 78.0995Z" fill="#F7B928"/>
<path d="M193.683 76.7696L193.648 76.5936C193.648 76.5936 193.416 75.4526 193.099 74.3609L192.458 71.9593L196.367 70.8535L197.071 73.3467C197.402 74.4877 197.641 75.6709 197.648 75.685V75.8541L193.683 76.7696ZM192.887 72.2058L193.437 74.2694C193.683 75.1145 193.873 75.9808 193.958 76.3823L197.233 75.6216C197.148 75.2554 196.951 74.3539 196.698 73.5087L196.12 71.3958L192.887 72.2058Z" fill="#F7B928"/>
<path d="M174.079 37.1167L173.974 36.9688C173.974 36.9688 173.798 36.7434 173.523 36.4265L170.833 33.3628L173.833 30.623L176.65 33.7994C176.946 34.1446 177.136 34.3911 177.136 34.3911L177.235 34.5249L174.079 37.1167ZM171.326 33.391L173.784 36.2082C173.938 36.3772 174.058 36.5251 174.143 36.6307L176.728 34.4826C176.643 34.377 176.523 34.2291 176.361 34.046L173.805 31.1372L171.326 33.391Z" fill="#F7B928"/>
<path d="M156.214 46.8588L156.073 47.5488L157.681 47.878L157.822 47.188L156.214 46.8588Z" fill="#FFD900"/>
<path d="M177 101.891C177 101.891 177 102.01 177 102.229C177 102.447 177 102.771 176.929 103.179C176.859 103.996 176.803 105.173 176.655 106.574C176.57 107.279 176.472 108.032 176.366 108.828C176.317 109.229 176.267 109.638 176.211 110.061C176.155 110.483 176.063 110.906 175.986 111.335C175.824 112.202 175.662 113.096 175.5 114.012C175.338 114.927 175.077 115.822 174.866 116.737C174.054 120.094 173.007 123.389 171.732 126.598C171.478 127.253 171.239 127.851 171.027 128.386C170.816 128.922 170.584 129.358 170.415 129.732L169.886 130.908L169.091 131.084C168.626 131.197 167.978 131.323 167.337 131.436C166.048 131.676 164.78 131.873 164.78 131.873L164.456 132.507C164.259 132.915 163.942 133.479 163.548 134.155C163.153 134.831 162.724 135.627 162.21 136.451L160.583 138.993L158.815 141.486C158.258 142.282 157.667 142.973 157.195 143.599C156.251 144.839 155.547 145.607 155.547 145.607L155.857 147.015L156.153 148.424C156.153 148.424 155.723 148.945 154.835 149.832L153.223 151.523L150.941 153.699C146.131 158.134 140.764 161.922 134.974 164.968C126.789 169.285 117.87 172.034 108.676 173.074C93.4569 174.825 78.0665 171.888 64.562 164.656C51.0574 157.424 40.0824 146.242 33.104 132.605C32.1462 130.816 31.3926 129.027 30.639 127.344C29.8854 125.661 29.2937 124.006 28.8007 122.414C27.8838 119.725 27.1242 116.986 26.5258 114.209C26.2441 113.061 26.1173 112.011 25.9342 111.11C25.8568 110.659 25.7793 110.237 25.7089 109.856C25.6384 109.476 25.6173 109.152 25.575 108.807C25.413 107.546 25.3285 106.877 25.3285 106.877L20.9689 107.377C20.9689 107.377 21.0816 108.293 21.2999 110.018C21.5183 111.744 22.0042 114.244 22.7578 117.406C24.9145 126.123 28.5343 134.41 33.4632 141.916L34.0337 142.796C34.2309 143.085 34.4351 143.367 34.6464 143.656L35.886 145.409C36.7382 146.586 37.682 147.712 38.5976 148.931C40.584 151.309 42.7001 153.576 44.9363 155.72C47.2953 157.979 49.7858 160.095 52.3948 162.059L54.4514 163.524L55.4867 164.264L56.5573 164.968L58.7195 166.376L60.9239 167.623L62.0579 168.278L63.22 168.877L65.5723 170.074C67.1852 170.778 68.7769 171.581 70.4602 172.187C73.8161 173.534 77.2614 174.647 80.7711 175.518L83.4404 176.138C84.3349 176.349 85.2435 176.469 86.145 176.645C87.948 177.011 89.7862 177.18 91.6174 177.427C92.533 177.526 93.4556 177.575 94.3783 177.652L95.7868 177.758C96.2517 177.758 96.7165 177.758 97.1955 177.8L99.9774 177.871L102.752 177.8H104.161L105.57 177.695L108.345 177.476C110.176 177.223 112.021 177.061 113.831 176.695C117.453 176.073 121.026 175.193 124.522 174.06C127.963 172.943 131.327 171.605 134.594 170.053L136.974 168.834C137.369 168.63 137.77 168.433 138.158 168.222L139.306 167.56C140.066 167.116 140.841 166.693 141.588 166.236L143.792 164.827C144.532 164.376 145.201 163.862 145.905 163.362C146.609 162.862 147.314 162.383 148.018 161.862C149.349 160.798 150.708 159.791 151.955 158.664C154.433 156.533 156.785 154.259 158.998 151.854C162.976 147.407 166.457 142.54 169.379 137.338C171.868 132.93 173.923 128.29 175.514 123.485C176.759 119.787 177.715 115.998 178.373 112.152C178.69 110.561 178.845 109.117 179.007 107.87C179.169 106.624 179.254 105.553 179.317 104.687C179.38 103.82 179.437 103.151 179.472 102.708C179.472 102.482 179.472 102.313 179.472 102.201V102.024L177 101.891Z" fill="#F7B928"/>
<path d="M128.02 169.033L126.231 167.927C125.357 167.385 124.484 166.772 124.484 166.779L123.259 167.188L121.85 167.667C121.301 167.85 120.674 168.012 119.991 168.209C116.665 169.166 113.273 169.872 109.842 170.322C106.406 170.794 102.942 171.017 99.4744 170.991C98.0658 170.949 96.8755 170.935 96.0444 170.892L94.7555 170.794C94.7555 170.794 93.9526 171.745 93.1004 172.688C92.2482 173.632 91.3819 174.541 91.3819 174.541L91.7975 174.583C92.0721 174.625 92.5018 174.646 92.9877 174.675L94.8401 174.78L95.974 174.851H97.2417C101.54 174.938 105.838 174.655 110.088 174.005C114.313 173.379 118.48 172.409 122.547 171.104C124.195 170.512 125.576 170.047 126.52 169.695L128.02 169.033Z" fill="#F7B928"/>
<path d="M85.6551 173.032L85.3593 172.448C85.1832 172.089 84.9508 171.638 84.7324 171.145L83.8873 169.222L82.9928 169.011C82.4505 168.891 81.7321 168.736 81.0348 168.518L79.091 167.968L78.2106 167.715C78.2106 167.715 77.2175 168.419 76.1822 169.123C75.1469 169.828 74.0693 170.532 74.0693 170.532L75.8653 171.032C76.9288 171.356 78.3867 171.673 79.8305 171.997L80.9081 172.236L81.9645 172.42L83.8239 172.744C84.3732 172.842 84.824 172.913 85.148 172.948L85.6551 173.032Z" fill="#F7B928"/>
<path d="M130.808 164.99L130.688 164.715L131.153 164.504C131.365 164.419 131.794 164.222 132.365 163.919L133.407 163.384C134.203 162.982 135.111 162.525 135.985 161.975L137.886 160.884L140.633 159.123L140.992 158.883C140.992 158.362 141.049 156.77 141.028 155.256C141.028 153.467 140.894 151.636 140.887 151.615V151.537L141.626 150.953L141.985 150.671C142.38 150.368 142.866 149.967 143.394 149.516C145.159 148.025 146.842 146.441 148.437 144.769L149.74 143.41L150.923 142.001C151.627 141.212 152.254 140.424 152.797 139.726L153.768 138.494L154.888 136.916H156.226C156.769 136.916 157.431 136.916 158.191 136.916C159.269 136.881 160.389 136.832 161.516 136.754L163.431 136.613L165.382 136.395C166.678 136.233 167.995 136.05 169.298 135.839C170.601 135.627 171.714 135.374 172.7 135.134C173.524 134.958 174.348 134.768 175.144 134.571C175.581 134.472 175.848 134.395 175.996 134.36L176.581 133.064C176.665 132.888 176.75 132.69 176.848 132.486C177.215 131.676 177.672 130.669 178.123 129.465C179.606 125.783 180.818 121.998 181.75 118.14C182.683 114.286 183.349 110.372 183.744 106.427L184.032 102.518L184.075 101.039H184.37V102.525L184.075 106.448C183.684 110.411 183.015 114.341 182.074 118.21C181.139 122.08 179.925 125.876 178.44 129.57C177.982 130.775 177.525 131.789 177.151 132.599C177.06 132.81 176.968 133 176.891 133.183L176.25 134.592H176.179C176.179 134.592 175.848 134.691 175.25 134.831L172.799 135.395C171.813 135.606 170.636 135.853 169.383 136.099C168.129 136.346 166.756 136.501 165.453 136.656L163.495 136.874L161.572 137.022C160.438 137.092 159.318 137.149 158.234 137.177C157.473 137.177 156.825 137.177 156.262 137.177H155.071L154.001 138.747L153.022 139.987C152.48 140.691 151.86 141.48 151.141 142.276L149.831 143.776L148.648 145.023C147.045 146.697 145.354 148.287 143.584 149.784C143.056 150.263 142.563 150.643 142.176 150.953L141.823 151.228L141.204 151.721C141.204 152.094 141.33 153.707 141.33 155.291C141.33 156.876 141.33 158.524 141.33 158.989V159.172H141.225L140.837 159.426L138.084 161.186L136.175 162.285C135.302 162.813 134.386 163.278 133.583 163.694C133.21 163.884 132.879 164.06 132.548 164.229C132.118 164.454 131.682 164.666 131.315 164.821L130.808 164.99Z" fill="#F7B928"/>
<path d="M177.637 127.921L175.433 126.999C175.433 126.999 175.609 126.576 175.869 125.858L176.94 122.681C177.285 121.576 177.686 120.167 178.229 118.167C178.327 117.73 178.44 117.23 178.56 116.758C178.848 115.519 179.151 114.244 179.348 112.969C179.961 109.645 180.366 106.286 180.56 102.912C180.609 102.017 180.623 101.207 180.637 100.531C180.637 100.179 180.637 99.8268 180.637 99.5732V98.3125L183.032 98.3688V99.6507C183.032 99.9324 183.032 100.242 183.032 100.58C183.032 101.285 183.032 102.123 182.947 103.059C182.752 106.526 182.338 109.977 181.708 113.392C181.504 114.709 181.194 116.033 180.891 117.308C180.771 117.801 180.658 118.294 180.553 118.772C179.989 120.885 179.581 122.294 179.222 123.456L178.13 126.682C177.827 127.478 177.637 127.921 177.637 127.921Z" fill="#F7B928"/>
<path d="M22.3647 127.922C22.3647 127.922 22.1745 127.478 21.8787 126.676L20.7871 123.45C20.4138 122.253 20.0123 120.823 19.4559 118.787L19.1108 117.273C18.808 115.998 18.4981 114.674 18.2868 113.315C17.6608 109.921 17.2491 106.492 17.0543 103.046C16.9979 102.095 16.9768 101.264 16.9627 100.567C16.9627 100.215 16.9627 99.905 16.9627 99.6374L16.9064 98.3415L19.301 98.2852L19.3362 99.567C19.3362 99.8276 19.3362 100.152 19.3362 100.511C19.3362 101.215 19.3714 101.99 19.4207 102.898C19.6107 106.251 20.0106 109.589 20.618 112.892C20.8293 114.216 21.1251 115.491 21.4209 116.724C21.5336 117.231 21.6534 117.731 21.759 118.217C22.2943 120.168 22.6887 121.576 23.0479 122.71L24.1184 125.88C24.372 126.584 24.541 126.985 24.548 127L22.3647 127.922Z" fill="#F7B928"/>
<path d="M100.01 191.479L99.7489 191.197C99.7489 191.197 98.277 189.598 96.326 187.26C95.2555 185.999 94.0582 184.379 93.1285 183.111C92.5651 182.33 92.0016 181.541 91.4664 180.752C90.9311 179.963 90.4099 179.125 89.8535 178.231C88.6914 176.364 87.7406 174.709 87.0363 173.237C86.332 171.765 85.5009 170.209 84.9234 168.821C83.9303 166.525 83.3246 164.905 83.1908 164.539C83.0007 164.497 82.7823 164.433 82.5499 164.37L80.5708 163.807C78.6551 163.25 76.183 162.398 73.6264 161.334C70.4281 159.966 67.3308 158.373 64.3578 156.566C60.9537 154.479 57.7413 152.093 54.7582 149.439C49.1598 144.46 44.4031 138.61 40.6721 132.113C39.4333 129.981 38.3163 127.78 37.3267 125.521C37.0661 124.985 36.883 124.507 36.7351 124.112C36.6647 123.922 36.6013 123.753 36.5379 123.605L36.2984 122.999L34.2771 122.506L32.1642 121.894L31.4599 119.858C31.3401 119.485 31.2274 119.069 31.1077 118.633C31.0302 118.365 30.9528 118.09 30.8683 117.809C30.7837 117.527 30.7626 117.421 30.7063 117.231C30.5372 116.654 30.3682 116.055 30.2414 115.442L29.6991 113.076C29.5935 112.59 29.509 112.132 29.4315 111.667C29.3892 111.421 29.354 111.188 29.3117 110.963L29.0441 109.491C29.0044 109.298 28.9762 109.103 28.9596 108.906H29.2554C29.2724 109.089 29.3006 109.27 29.3399 109.449L29.6005 110.928C29.6428 111.153 29.685 111.392 29.7273 111.632C29.8048 112.069 29.8822 112.526 29.9879 113.005L30.5372 115.372C30.657 115.977 30.826 116.569 30.995 117.14C31.0514 117.337 31.1077 117.527 31.157 117.717C31.2063 117.907 31.319 118.28 31.3965 118.541C31.5162 118.978 31.6289 119.386 31.7486 119.752L32.3825 121.64L34.3616 122.211L36.5238 122.739L36.8196 123.485C36.883 123.633 36.9464 123.802 37.0238 123.999C37.1647 124.38 37.3478 124.852 37.6014 125.408C38.578 127.658 39.6784 129.851 40.8975 131.979C44.6027 138.447 49.3311 144.272 54.899 149.228C57.8658 151.865 61.0593 154.236 64.4423 156.313C67.4027 158.109 70.4858 159.696 73.6687 161.06C76.2182 162.095 78.6762 162.968 80.5849 163.518L82.564 164.081C82.8246 164.159 83.064 164.222 83.2683 164.264H83.381V164.356C83.4514 164.539 84.0853 166.222 85.1347 168.68C85.7263 170.089 86.5081 171.61 87.2476 173.082C87.9871 174.554 88.9309 176.188 90.0648 178.055C90.6212 178.942 91.1565 179.787 91.6706 180.562C92.1847 181.337 92.7693 182.14 93.3328 182.914C94.2484 184.175 95.4457 185.788 96.5162 187.048C98.2699 189.161 99.6222 190.64 99.8828 190.929H100.918L104.038 190.852C104.947 190.852 105.968 190.746 107.151 190.647L108.884 190.514C109.496 190.471 110.13 190.387 110.799 190.302L111.842 190.169L112.68 190.063C113.469 189.964 114.286 189.859 115.117 189.697C120.316 188.853 125.43 187.552 130.4 185.809C146.849 180.071 161.352 169.82 172.25 156.228L174.292 153.615L176.926 149.883L178.694 147.136C179.187 146.382 179.567 145.727 179.877 145.171C180.032 144.896 180.166 144.65 180.293 144.466L180.807 143.565C180.694 143.185 180.244 141.748 179.483 139.769C178.983 138.438 178.469 137.149 177.962 135.944C177.328 134.536 176.666 133.092 175.99 131.719C175.313 130.345 174.511 128.901 173.82 127.683C173.13 126.464 172.454 125.331 171.799 124.337C170.538 122.408 169.686 121.224 169.686 121.217L169.637 121.154L169.996 120.091L170.954 116.703L171.433 114.653L171.722 114.724L171.25 116.78L170.285 120.175L169.961 121.126C170.369 121.612 171.405 123.175 172.074 124.176C172.743 125.176 173.405 126.338 174.102 127.535C174.799 128.732 175.588 130.162 176.278 131.585C176.969 133.007 177.624 134.402 178.257 135.811C178.765 137.022 179.279 138.311 179.786 139.649C180.589 141.762 181.046 143.241 181.131 143.516V143.579V143.642L180.575 144.607C180.455 144.812 180.314 145.051 180.166 145.312C179.856 145.861 179.462 146.537 178.976 147.298L177.081 150.242L174.56 153.798L172.51 156.411C161.586 170.057 147.035 180.344 130.527 186.091C125.541 187.841 120.41 189.147 115.194 189.992C114.363 190.154 113.539 190.26 112.743 190.359L111.912 190.464L110.87 190.598C110.166 190.69 109.553 190.767 108.933 190.817L107.2 190.95C106.017 191.042 104.996 191.126 104.08 191.148L100.953 191.225H99.9954L100.01 191.479Z" fill="#F7B928"/>
<path d="M138.327 176.504L137.222 176.039C136.306 175.631 135.383 175.208 134.489 174.778L134.109 174.595C133.109 174.109 131.996 173.553 130.777 172.891C129.369 172.13 128.038 171.334 126.72 170.525C125.403 169.715 124.016 168.757 122.875 167.947L121.192 166.728L119.713 165.566C118.163 164.32 117.114 163.404 116.86 163.179C116.318 163.312 113.057 164.122 109.761 164.587L107.092 164.925C106.563 164.982 106.056 165.017 105.577 165.052L104.746 165.108C103.626 165.221 102.788 165.235 102.535 165.235C102.302 165.608 101.83 166.376 101.302 167.144L99.8936 169.179L97.2455 169.109C96.5905 169.109 96.02 169.109 95.4565 169.024L94.5973 168.954C93.5127 168.876 92.2942 168.785 91.0194 168.595C89.7447 168.405 88.3079 168.207 86.9556 167.968L85.9837 167.792C85.4414 167.686 84.9061 167.559 84.3849 167.44L83.4482 167.221L82.2086 166.933L81.0113 166.595L80.1169 166.341C79.645 166.207 79.1942 166.08 78.7576 165.947L76.7644 165.242C75.8558 164.953 75.0811 164.644 74.4543 164.397L73.8134 164.144L72.7006 163.707L72.8062 163.425L73.919 163.862L74.567 164.115C75.1867 164.362 75.9756 164.672 76.8559 164.953L78.8491 165.658C79.2787 165.792 79.7295 165.918 80.1943 166.052L81.0958 166.306L82.2861 166.644L83.5116 166.933C83.8285 166.996 84.1384 167.073 84.4554 167.144C84.9695 167.271 85.5048 167.397 86.033 167.496L87.012 167.672C88.3572 167.912 89.7517 168.165 91.0547 168.299C92.3576 168.433 93.5408 168.581 94.6184 168.658L95.4847 168.721C96.0411 168.778 96.5975 168.806 97.2525 168.813L99.7387 168.876L100.443 167.827L101.021 166.975C101.556 166.165 102.077 165.341 102.274 165.031L102.316 164.961H102.415C102.415 164.961 103.345 164.961 104.69 164.841L105.528 164.777C105.993 164.777 106.5 164.707 107.021 164.658L109.683 164.313C113.254 163.791 116.79 162.904 116.825 162.904H116.903L116.966 162.96C116.966 162.96 118.086 163.96 119.861 165.39L121.34 166.545L123.016 167.764C124.15 168.56 125.495 169.496 126.84 170.327C128.185 171.158 129.517 171.933 130.89 172.687C132.073 173.349 133.207 173.898 134.207 174.384L134.588 174.567C135.475 174.99 136.391 175.412 137.306 175.821L138.285 176.229C138.56 176.096 139.729 175.525 141.553 174.539L142.56 173.962C143.37 173.504 144.286 172.983 145.272 172.384L146.54 171.574C147.624 170.87 148.751 170.165 149.913 169.313C162.505 160.436 172.516 148.376 178.923 134.366C180.87 130.135 182.458 125.748 183.67 121.252C183.959 120.301 184.17 119.399 184.375 118.434L184.966 115.85L185.72 111.624L186.192 107.912H186.488L186.016 111.638L185.255 115.864L184.663 118.448C184.438 119.456 184.227 120.357 183.959 121.308C182.742 125.822 181.147 130.225 179.191 134.471C172.765 148.528 162.723 160.627 150.089 169.531C148.92 170.398 147.793 171.116 146.702 171.806C146.258 172.081 145.835 172.349 145.427 172.616C144.434 173.215 143.518 173.743 142.708 174.201L141.701 174.786C139.588 175.884 138.37 176.504 138.356 176.511L138.327 176.504Z" fill="#F7B928"/>
<path d="M123.535 176.469C123.535 176.469 124.056 176.835 124.845 177.335C125.634 177.835 126.705 178.497 127.803 179.145C130.008 180.477 132.325 181.618 132.325 181.618L134.551 180.737C135.649 180.272 136.741 179.765 136.741 179.765L135.262 179.103L133.783 178.399L132.093 177.54C130.959 176.948 129.853 176.342 129.036 175.885C128.219 175.427 127.684 175.096 127.684 175.096L125.613 175.8L124.204 176.279L123.535 176.469Z" fill="#F7B928"/>
<path d="M116.492 178.258C116.492 178.258 118.421 179.801 120.506 181.308C121.548 182.076 122.619 182.766 123.422 183.294L124.788 184.16L125.492 183.956C125.922 183.829 126.5 183.681 127.063 183.484L129.331 182.716L127.922 181.914C127.084 181.421 125.993 180.801 124.908 180.097C122.739 178.688 120.731 177.279 120.731 177.279C120.731 177.279 120.471 177.364 120.069 177.448L118.604 177.786L116.492 178.258Z" fill="#F7B928"/>
<path d="M109.316 179.379C109.316 179.379 111.098 181.112 113.049 182.809C115 184.506 117.05 186.028 117.05 186.028L117.789 185.894C118.226 185.816 118.81 185.669 119.395 185.542L121.726 184.999C121.726 184.999 119.557 183.513 117.55 181.985C116.543 181.217 115.557 180.386 114.838 179.788L113.648 178.773L112.944 178.893C112.542 178.971 112 179.041 111.458 179.104L109.316 179.379Z" fill="#F7B928"/>
<path d="M102.073 179.871L103.108 181.061C103.735 181.765 104.594 182.716 105.481 183.603C107.249 185.414 109.186 187.202 109.186 187.202L111.553 186.907L113.187 186.695C113.63 186.646 113.891 186.583 113.891 186.583C113.891 186.583 113.384 186.188 112.644 185.54C111.905 184.892 110.94 184.054 110.003 183.195C109.066 182.336 108.165 181.469 107.496 180.779L106.397 179.652L104.221 179.814L102.073 179.871Z" fill="#F7B928"/>
<path d="M94.8163 179.744L95.739 181.026C96.3024 181.773 97.0772 182.759 97.8871 183.745C98.697 184.731 99.5211 185.731 100.169 186.456L101.254 187.639L103.641 187.583C104.233 187.583 104.832 187.583 105.275 187.506L106.022 187.449L104.874 186.322C104.169 185.618 103.31 184.681 102.451 183.738C101.592 182.794 100.775 181.843 100.169 181.132C99.5633 180.42 99.176 179.906 99.176 179.906L96.9926 179.85C95.901 179.843 94.8163 179.744 94.8163 179.744Z" fill="#F7B928"/>
<path d="M169.28 146.495L167.329 145.087L168.034 144.058L169.492 141.783C170.027 140.973 170.513 140.121 170.9 139.494L171.534 138.389L173.647 139.579L173.02 140.671C172.64 141.34 172.133 142.234 171.555 143.093L170.076 145.396L169.28 146.495Z" fill="#F7B928"/>
<path d="M107.345 164.764L108.084 163.594L109.493 163.425C109.845 163.383 110.197 163.334 110.443 163.285L110.873 163.207L111.915 164.094L111.211 165.292L110.767 165.376C110.444 165.441 110.117 165.488 109.788 165.517L108.38 165.7L107.345 164.764Z" fill="#F7B928"/>
<path d="M108.184 166.174L106.776 164.836L107.839 163.18L109.431 162.976C109.738 162.949 110.044 162.904 110.347 162.842L110.995 162.723L112.488 163.997L111.502 165.702L110.854 165.822C110.619 165.869 110.281 165.918 109.84 165.969L108.184 166.174ZM107.917 164.688L108.494 165.23L109.713 165.075C110.03 165.046 110.345 164.999 110.657 164.934L110.91 164.892L111.312 164.188L110.72 163.681L110.495 163.716C110.269 163.765 109.945 163.814 109.516 163.864L108.346 164.012L107.917 164.688Z" fill="#F7B928"/>
<path d="M149.402 144.107L149.318 143.403C149.275 143.058 149.226 142.699 149.226 142.699L151.071 140.586H151.776H152.48L152.621 141.29C152.691 141.642 152.741 141.995 152.741 141.995L150.839 144.192H150.135L149.402 144.107Z" fill="#F7B928"/>
<path d="M150.997 144.629L149.004 144.538L148.757 142.608L150.87 140.164H151.751H152.814L153.018 141.221C153.096 141.573 153.145 141.925 153.145 141.925L153.18 142.129L150.997 144.629ZM149.807 143.679L150.603 143.714L152.23 141.84C152.23 141.714 152.173 141.544 152.138 141.375L152.075 141.059H151.279L149.701 142.883L149.807 143.679Z" fill="#F7B928"/>
<path d="M144.858 148.608V147.904C144.858 147.566 144.823 147.2 144.823 147.2L146.865 145.256L148.232 145.362L148.366 146.77L146.253 148.777C146.253 148.777 145.915 148.742 145.548 148.686L144.858 148.608Z" fill="#F7B928"/>
<path d="M146.402 149.227H146.198C146.198 149.227 145.846 149.227 145.494 149.135L144.43 148.98V147.924C144.43 147.593 144.395 147.254 144.395 147.254V147.043L146.733 144.811L148.67 144.958L148.86 146.945L146.402 149.227ZM145.296 148.184L145.62 148.226L146.078 148.29L147.874 146.578L147.797 145.775L147.015 145.712L145.268 147.374C145.268 147.515 145.268 147.698 145.268 147.874L145.296 148.184Z" fill="#F7B928"/>
<path d="M130.207 166.674C129.912 166.655 129.629 166.551 129.391 166.375C129.154 166.198 128.972 165.957 128.869 165.681C128.757 165.527 128.682 165.35 128.647 165.163C128.613 164.976 128.62 164.784 128.669 164.6C128.718 164.417 128.807 164.246 128.93 164.101C129.053 163.956 129.206 163.841 129.38 163.762C129.553 163.684 129.741 163.645 129.931 163.649C130.121 163.652 130.308 163.698 130.478 163.782C130.648 163.867 130.797 163.988 130.915 164.137C131.032 164.287 131.115 164.46 131.158 164.645C131.256 164.843 131.314 165.058 131.328 165.278C131.343 165.498 131.313 165.719 131.242 165.927C131.192 166.07 131.114 166.202 131.013 166.315C130.911 166.427 130.788 166.518 130.65 166.582C130.511 166.645 130.36 166.676 130.207 166.674ZM129.812 164.561C129.622 164.631 129.538 164.948 129.693 165.314C129.848 165.681 130.129 165.822 130.284 165.751C130.313 165.736 130.339 165.715 130.359 165.69C130.38 165.664 130.395 165.635 130.404 165.603C130.457 165.408 130.437 165.2 130.348 165.019C130.305 164.903 130.234 164.801 130.14 164.722C130.046 164.643 129.933 164.59 129.812 164.568V164.561Z" fill="#F7B928"/>
<path d="M23.0004 94.7355C23.0004 94.7355 23.0004 94.6158 23.0004 94.3975C23.0004 94.1792 23.0426 93.8552 23.0708 93.4467C23.1412 92.6297 23.2046 91.4535 23.3455 90.0519C23.4371 89.3476 23.5357 88.6011 23.6343 87.7982C23.6836 87.3967 23.7399 86.9882 23.7892 86.5657C23.8385 86.1431 23.9442 85.7205 24.0216 85.2909C24.1766 84.4246 24.3386 83.5301 24.5076 82.6216C24.6766 81.713 24.9231 80.8045 25.1344 79.8889C25.9523 76.5343 26.9995 73.2398 28.2686 70.0287L28.9729 68.2468L29.5786 66.9086L30.1138 65.7324L30.9027 65.5563C31.3745 65.4437 32.0154 65.3169 32.6634 65.2042C33.9664 64.9788 35.213 64.7957 35.213 64.7957L35.544 64.1618C35.7342 63.7533 36.0581 63.1899 36.4525 62.5138C36.847 61.8376 37.2766 61.0418 37.7907 60.2177L39.4388 57.6329L41.1995 55.1468C41.7559 54.3439 42.3546 53.6536 42.8265 53.0339C43.7702 51.7943 44.4745 51.0266 44.4745 51.0266L44.1646 49.618L43.8688 48.2094C43.8688 48.2094 44.2985 47.6882 45.1859 46.8008L46.7917 45.1175L49.0948 42.9623C53.906 38.5299 59.2731 34.7418 65.0613 31.6935C73.2465 27.3792 82.1657 24.6323 91.3599 23.5941C106.572 21.8408 121.957 24.772 135.458 31.996C148.96 39.22 159.935 50.3927 166.917 64.021C167.882 65.8099 168.636 67.5988 169.389 69.2821C170.143 70.9654 170.735 72.6205 171.228 74.2122C172.142 76.8962 172.899 79.6312 173.496 82.4032C173.784 83.5442 173.911 84.6007 174.087 85.4951C174.172 85.9529 174.249 86.3685 174.313 86.7488C174.376 87.1291 174.411 87.4531 174.453 87.7982C174.615 89.0589 174.7 89.728 174.7 89.728L179.06 89.2279C179.06 89.2279 178.94 88.3123 178.721 86.5868C178.503 84.8613 178.017 82.361 177.264 79.2057C175.116 70.4874 171.498 62.1988 166.565 54.696L165.995 53.8086L165.382 52.9493L164.135 51.1956C163.29 50.0265 162.346 48.8926 161.431 47.6741C159.444 45.2962 157.328 43.0296 155.092 40.8847C152.736 38.6265 150.247 36.5099 147.641 34.5459L145.598 33.1021L144.563 32.3978L143.492 31.6935L141.323 30.2849L139.076 28.989L137.942 28.341L136.78 27.7424L134.428 26.538C132.808 25.8337 131.216 25.0308 129.54 24.4251C126.185 23.0735 122.74 21.958 119.229 21.0867L116.56 20.474C115.665 20.2557 114.757 20.1359 113.855 19.9599C112.052 19.5936 110.214 19.4246 108.383 19.1781C107.467 19.0795 106.545 19.0302 105.622 18.9527L104.213 18.8471C103.756 18.8471 103.291 18.8471 102.805 18.8048L100.03 18.7344L97.2126 18.8048L95.804 18.84L94.3954 18.9457L91.6275 19.157C89.7964 19.4105 87.944 19.5725 86.134 19.9387C82.5534 20.5551 79.0207 21.4236 75.5624 22.5376C72.124 23.6614 68.7621 25.0071 65.4979 26.5662L63.1174 27.7846C62.723 27.9889 62.3215 28.1861 61.9342 28.3974L60.7862 29.0594C60.0255 29.5031 59.2508 29.9257 58.5042 30.3835L56.2998 31.7921C55.5955 32.2429 54.8912 32.757 54.1869 33.2571C53.4826 33.7571 52.7783 34.2361 52.074 34.7643C50.7358 35.8278 49.3765 36.8279 48.1369 37.9548C45.6569 40.0865 43.3051 42.363 41.0939 44.7724C37.0824 49.2209 33.5705 54.0956 30.6209 59.3092C28.1343 63.7194 26.0776 68.3587 24.4794 73.1628C23.2403 76.8694 22.2844 80.6648 21.62 84.5161C21.3101 86.1079 21.1551 87.5517 20.9931 88.7983C20.8311 90.0449 20.7396 91.1154 20.6762 91.9817C20.6128 92.848 20.5635 93.5171 20.5283 93.9608C20.5283 94.1862 20.5283 94.3552 20.5283 94.4679V94.644L23.0004 94.7355Z" fill="#F7B928"/>
<path d="M71.9724 27.5742L73.7613 28.6799C74.6417 29.2293 75.508 29.835 75.508 29.835L76.7405 29.4195L78.1491 28.9405C78.6985 28.7574 79.3253 28.6025 80.0014 28.4053C83.3295 27.4493 86.7243 26.743 90.1575 26.2924C93.5922 25.8121 97.0567 25.5768 100.525 25.5881C101.933 25.6303 103.124 25.6444 103.948 25.6867L105.244 25.7853C105.244 25.7853 106.047 24.8345 106.892 23.8907C107.737 22.9469 108.617 22.0384 108.617 22.0384L108.202 21.9961C107.927 21.9539 107.497 21.9327 107.011 21.9046L105.159 21.8341L104.018 21.7637H102.757C98.4591 21.67 94.1607 21.9504 89.911 22.6018C85.6759 23.2443 81.4998 24.2288 77.4237 25.5458C75.7827 26.1374 74.4023 26.6023 73.4514 26.9544L71.9724 27.5742Z" fill="#F7B928"/>
<path d="M114.345 23.5938L114.64 24.1783C114.809 24.5375 115.042 24.9883 115.26 25.4813C115.69 26.4462 116.112 27.4111 116.112 27.4111L117.007 27.6153C117.542 27.735 118.261 27.89 118.965 28.1083L120.902 28.6577C121.437 28.8056 121.782 28.9183 121.782 28.9183C121.782 28.9183 122.775 28.214 123.817 27.5097C124.86 26.8054 125.93 26.1011 125.93 26.1011L124.141 25.601C123.078 25.277 121.62 24.9601 120.176 24.6432L119.099 24.3967L118.042 24.2135L116.176 23.8896C115.633 23.791 115.176 23.7205 114.852 23.6924L114.345 23.5938Z" fill="#F7B928"/>
<path d="M15.9311 95.4969H15.6282L15.6705 94.0108L15.9663 90.0949C16.3553 86.1321 17.0237 82.2017 17.9665 78.3331C18.8972 74.4599 20.1119 70.6604 21.6007 66.9657C22.0515 65.7613 22.5163 64.7471 22.8896 63.9301L23.1502 63.3526L23.7488 62.0356C23.7488 61.9229 23.8474 61.9017 24.7912 61.6764C25.5871 61.4862 26.4181 61.296 27.2422 61.12C28.2282 60.9087 29.4044 60.6622 30.658 60.4157C31.9117 60.1692 33.2851 60.0142 34.588 59.8522L36.539 59.6339L38.4617 59.486C39.6027 59.4156 40.7225 59.3592 41.8001 59.331C42.5678 59.331 43.2087 59.331 43.7792 59.331H44.9624L45.9977 57.8802L46.9767 56.6406C47.519 55.9363 48.1388 55.1475 48.8572 54.3516L50.1601 52.8515L51.3504 51.6119C52.95 49.9337 54.638 48.3421 56.4073 46.8438C56.9355 46.3648 57.4285 45.9845 57.8159 45.6746L58.168 45.4L58.7878 44.9069C58.7878 44.5407 58.654 42.9208 58.654 41.3361C58.654 39.5261 58.654 37.6386 58.654 37.6174V37.3991L58.7878 37.4695C58.8583 37.4132 58.978 37.3357 59.147 37.2301L61.8938 35.4693L63.8025 34.3776C64.6828 33.8424 65.5914 33.3846 66.4013 32.969L67.4367 32.4408C67.8663 32.2084 68.303 31.9971 68.6621 31.8421L69.127 31.6309L69.2538 31.9055L68.7819 32.1168C68.5776 32.2013 68.148 32.3985 67.5775 32.7014L66.5352 33.2367C65.7323 33.6381 64.8237 34.0959 63.9574 34.6453L62.0558 35.744L59.309 37.4977C59.1848 37.5706 59.0649 37.6506 58.9498 37.7372C58.9498 38.1034 58.8935 39.7655 58.9498 41.3643C58.9498 43.1532 59.0836 44.9844 59.0836 45.0055V45.076L58.3441 45.6605L57.9849 45.9423C57.5905 46.2451 57.1046 46.6466 56.5763 47.0973C54.8142 48.5886 53.1332 50.1732 51.5406 51.8443L50.2376 53.2036L49.0544 54.6122C48.3501 55.4081 47.7233 56.1898 47.1809 56.8871L46.209 58.1196L45.1173 59.655H43.7721C43.2369 59.655 42.5678 59.655 41.8142 59.655C40.7366 59.655 39.6167 59.7325 38.4828 59.81L36.5671 59.9508L34.6233 60.1692C33.3203 60.3311 32.0032 60.5143 30.7073 60.7256C29.4114 60.9368 28.2845 61.1904 27.3056 61.4299C26.4815 61.6059 25.6575 61.7961 24.8546 61.9933C24.4179 62.0919 24.1503 62.1694 24.0094 62.2046L23.4178 63.5005C23.3403 63.6766 23.2558 63.8667 23.1572 64.078C22.791 64.888 22.3332 65.8951 21.8824 67.0995C20.3978 70.7807 19.1855 74.5659 18.2553 78.4247C17.3189 82.28 16.6529 86.1961 16.2621 90.1442L15.9663 94.0461L15.9311 95.4969Z" fill="#F7B928"/>
<path d="M19.301 98.3421L16.9064 98.2857L16.9416 97.0039C16.9416 96.7222 16.9416 96.4123 16.9416 96.0672C16.9416 95.3629 16.9768 94.5318 17.0261 93.5951C17.2415 90.13 17.6719 86.6817 18.315 83.27C18.5192 81.953 18.8291 80.6289 19.132 79.3541L19.47 77.8892C20.0335 75.7763 20.4349 74.3677 20.8012 73.2056L21.8928 69.9799C22.1957 69.1558 22.3858 68.7051 22.3858 68.7051L24.5903 69.6277C24.5903 69.6277 24.4142 70.0573 24.1536 70.7687L23.0549 73.9521C22.7098 75.0649 22.3506 76.4665 21.7731 78.4737C21.6745 78.9104 21.5548 79.4034 21.4421 79.8823C21.1463 81.1149 20.8505 82.3897 20.6533 83.6644C20.0359 86.9948 19.6313 90.3612 19.4419 93.743C19.3926 94.6375 19.3714 95.4404 19.3573 96.1165C19.3573 96.4757 19.3573 96.8208 19.3573 97.0814L19.301 98.3421Z" fill="#F7B928"/>
<path d="M180.697 98.3421V97.0673C180.697 96.7997 180.697 96.4827 180.697 96.1235C180.697 95.4192 180.697 94.6375 180.619 93.7289C180.426 90.3758 180.024 87.0379 179.415 83.7349C179.211 82.4108 178.908 81.136 178.619 79.9035C178.499 79.3964 178.387 78.8963 178.274 78.4104C177.746 76.4594 177.344 75.0579 176.992 73.9169L175.922 70.7475C175.668 70.0432 175.492 69.6418 175.492 69.6277L177.696 68.7051C177.696 68.7051 177.887 69.1558 178.175 69.9517L179.267 73.1774C179.64 74.3747 180.049 75.8044 180.598 77.8399C180.718 78.3681 180.831 78.8611 180.95 79.3541C181.253 80.6289 181.563 81.953 181.774 83.3193C182.4 86.7106 182.812 90.1379 183.007 93.581C183.063 94.5389 183.077 95.377 183.091 96.0742C183.091 96.4193 183.091 96.7222 183.091 96.9898V98.2857L180.697 98.3421Z" fill="#F7B928"/>
<path d="M170.759 87.7141C170.742 87.5317 170.713 87.3506 170.674 87.1718L170.406 85.6927C170.364 85.4744 170.329 85.2349 170.287 84.9884C170.209 84.5447 170.132 84.0869 170.026 83.5798L169.477 81.2134C169.35 80.6077 169.181 80.0161 169.019 79.4456L168.85 78.868C168.77 78.5863 168.693 78.3116 168.618 78.044C168.498 77.6073 168.385 77.1988 168.265 76.8326L167.624 74.9451L165.652 74.3746L163.49 73.8464L163.194 73.0998C163.131 72.9519 163.061 72.7829 162.99 72.5857C162.842 72.2053 162.666 71.7335 162.413 71.1771C161.433 68.9276 160.331 66.7338 159.109 64.6059C155.395 58.1553 150.659 52.3493 145.087 47.4139C142.12 44.7694 138.924 42.3936 135.536 40.3146C132.573 38.5195 129.488 36.9333 126.303 35.5676C124.05 34.6307 121.751 33.808 119.415 33.1025L117.429 32.5391C117.175 32.4616 116.929 32.3982 116.725 32.363H116.605V32.2714C116.541 32.0883 115.901 30.4051 114.858 27.947C114.26 26.5384 113.45 25.0171 112.745 23.5522C112.041 22.0872 111.062 20.4392 109.928 18.5798C109.379 17.6854 108.843 16.8402 108.329 16.0655C107.815 15.2907 107.231 14.4878 106.667 13.7131C105.745 12.4524 104.554 10.8396 103.484 9.57885C101.73 7.46595 100.371 5.98691 100.117 5.70519H99.0818L95.9547 5.78971C95.0462 5.78971 94.0179 5.89535 92.8347 5.98691L91.1162 6.12073C90.5034 6.16299 89.8625 6.24751 89.1934 6.33202L88.1511 6.46584L87.32 6.57148C86.5312 6.67009 85.7142 6.77573 84.8831 6.93772C79.6821 7.78249 74.5656 9.08342 69.5927 10.8255C53.1432 16.559 38.6418 26.8108 27.7502 40.4061L25.7077 43.0191L23.0666 46.7519L21.3058 49.5057C20.8128 50.2523 20.4325 50.9143 20.1226 51.4707C19.9676 51.7383 19.8338 51.9848 19.707 52.175L19.1859 53.0765C19.3056 53.4568 19.7564 54.8936 20.517 56.8727C21.01 58.1968 21.5241 59.4857 22.0383 60.6971C22.6651 62.1057 23.3342 63.5143 24.0103 64.9229C24.6865 66.3315 25.4894 67.7401 26.1725 68.9585C26.8557 70.177 27.5811 71.3109 28.1939 72.3039C29.4405 74.2056 30.3068 75.417 30.3068 75.424L30.3561 75.4874L29.9969 76.5509L29.032 79.9386L28.5601 81.9881L28.2643 81.9247L28.7432 79.8611L29.7081 76.4664L30.018 75.5367C29.8279 75.2691 29.0179 74.1281 27.9051 72.4659C27.2501 71.4729 26.5669 70.3108 25.8697 69.1064C25.1724 67.9021 24.3907 66.4794 23.7004 65.0567C23.0102 63.634 22.3552 62.2395 21.7214 60.8309C21.2072 59.6124 20.6931 58.3236 20.193 56.9995C19.3901 54.8866 18.9253 53.4005 18.8408 53.1258V53.0624V52.999L19.3901 52.0412C19.5169 51.8299 19.6507 51.5904 19.8057 51.3369C20.1155 50.7875 20.51 50.1114 20.9959 49.3508L22.8905 46.4068L25.4119 42.8853L27.4685 40.216C34.5682 31.3595 43.228 23.8764 53.0205 18.1361C58.2439 15.0851 63.7516 12.5494 69.466 10.5649C74.4522 8.8095 79.5827 7.49447 84.7986 6.63487C85.6367 6.47288 86.4608 6.36724 87.2566 6.26863L88.0877 6.16299L89.123 6.02917C89.8273 5.94466 90.4401 5.86014 91.0669 5.81084L92.7783 5.68406C93.9686 5.58546 95.0039 5.50799 95.9195 5.47982L99.0466 5.40234C99.7509 5.40234 100.152 5.40234 100.152 5.40234H100.216L100.265 5.45164C100.265 5.45164 101.737 7.05041 103.681 9.38869C104.759 10.6564 105.956 12.2693 106.878 13.537C107.449 14.3188 108.005 15.1076 108.548 15.8964C109.09 16.6853 109.604 17.5234 110.161 18.4178C111.316 20.2913 112.273 21.9393 112.978 23.4113C113.682 24.8833 114.52 26.4328 115.091 27.8273C116.084 30.1304 116.689 31.7432 116.823 32.1095C117.006 32.1517 117.232 32.2151 117.457 32.2855L119.443 32.849C121.798 33.5526 124.116 34.3754 126.388 35.314C129.585 36.6853 132.682 38.2786 135.656 40.0821C139.079 42.1603 142.31 44.5385 145.312 47.1886C150.915 52.1656 155.672 58.0194 159.398 64.5214C160.624 66.6605 161.724 68.8686 162.694 71.1348C162.955 71.6701 163.138 72.149 163.286 72.5434C163.356 72.7336 163.42 72.9026 163.483 73.0505L163.723 73.6562L165.744 74.1492L167.857 74.769L168.561 76.8044C168.674 77.1777 168.794 77.5862 168.913 78.0229C168.993 78.2905 169.071 78.5652 169.146 78.8469L169.315 79.4315C169.477 80.002 169.653 80.6006 169.773 81.2134L170.322 83.5798C170.428 84.0658 170.512 84.5306 170.583 84.9884C170.625 85.2373 170.667 85.472 170.709 85.6927L170.977 87.1647C171.017 87.3577 171.045 87.5529 171.061 87.7493L170.759 87.7141Z" fill="#F7B928"/>
<path d="M13.749 88.8057H13.4532L13.9321 85.0799L14.6857 80.8541L15.2844 78.2693C15.5098 77.2692 15.7211 76.3607 15.9887 75.4099C17.207 70.8996 18.7995 66.4989 20.7498 62.2535C27.1755 48.1711 37.2286 36.0494 49.8797 27.13C51.0418 26.2637 52.1757 25.5524 53.2674 24.8551C53.7041 24.5804 54.1337 24.3128 54.5351 24.0452C55.5282 23.4465 56.4438 22.9183 57.2537 22.4605L58.2679 21.883C60.3808 20.7772 61.5993 20.1574 61.6134 20.1504H61.6697L62.7825 20.6152C63.684 20.9885 64.6066 21.4111 65.5011 21.8337L65.8744 22.0168C66.8815 22.5028 67.9873 23.0592 69.2128 23.7212C70.5791 24.4818 71.9455 25.2777 73.2696 26.0877C74.5936 26.8976 75.9741 27.8625 77.115 28.6654L78.7983 29.8838L80.2914 31.06C81.8409 32.3066 82.8903 33.2222 83.1087 33.4476C83.6439 33.3138 86.9119 32.5038 90.208 32.039L92.8703 31.6939C93.4055 31.6446 93.9126 31.6023 94.3845 31.5742L95.2156 31.5108C96.3425 31.3981 97.1736 31.384 97.4341 31.384C97.6666 31.0107 98.1384 30.243 98.6667 29.4753L100.075 27.4399L102.723 27.5103C103.378 27.5103 103.949 27.5456 104.505 27.6019L105.372 27.6653C106.449 27.7428 107.675 27.8343 108.949 28.0245C110.224 28.2146 111.654 28.4118 113.006 28.6513L113.985 28.8274C114.521 28.933 115.063 29.0598 115.577 29.1795L116.521 29.3979L117.753 29.6866L118.958 30.0317L119.852 30.2853C120.317 30.4121 120.775 30.5388 121.211 30.6727L123.205 31.377C124.113 31.6657 124.888 31.9756 125.515 32.2292L126.156 32.4827L127.268 32.9194L127.156 33.1941L126.071 32.7151L125.423 32.4616C124.803 32.2151 124.014 31.9052 123.134 31.6235L121.141 30.9192C120.711 30.7853 120.261 30.6586 119.796 30.5318L118.894 30.2853L117.704 29.9472L116.471 29.6655L115.507 29.4613C114.985 29.3345 114.457 29.2148 113.922 29.1091L112.95 28.933C111.598 28.6936 110.21 28.44 108.9 28.3062C107.59 28.1724 106.414 28.0245 105.379 27.947L104.512 27.8836C103.956 27.8273 103.393 27.7991 102.745 27.7921L100.251 27.7287L98.9554 29.6303C98.4131 30.4402 97.899 31.2643 97.7018 31.5742L97.6525 31.6446H97.5609C96.8011 31.6451 96.0417 31.685 95.286 31.7643L94.4479 31.8277C93.976 31.8629 93.476 31.8981 92.9477 31.9545L90.2855 32.2925C86.7217 32.8137 83.1791 33.7011 83.1439 33.7011H83.0664L83.01 33.6448C83.01 33.6448 81.8832 32.6447 80.1083 31.222L78.6363 30.0599L76.9601 28.8415C75.8262 28.0456 74.481 27.1089 73.1287 26.2778C71.7764 25.4467 70.4523 24.679 69.086 23.9184C67.9028 23.2634 66.7689 22.707 65.7687 22.221L65.3884 22.045C64.4869 21.6083 63.5713 21.1857 62.6698 20.7843L61.6838 20.4251C61.4091 20.5589 60.2752 21.1294 58.4158 22.1154L57.4016 22.6929C56.5987 23.1507 55.6831 23.6719 54.6971 24.2706L53.4294 25.0805C52.3377 25.7848 51.2108 26.4891 50.0558 27.3413C37.4602 36.2263 27.4491 48.296 21.0456 62.3169C19.0979 66.5504 17.5076 70.9394 16.2916 75.4381C16.0098 76.3818 15.7985 77.2833 15.5872 78.2553L14.9956 80.84L14.242 85.0659L13.749 88.8057Z" fill="#F7B928"/>
<path d="M76.4686 20.1633C76.4686 20.1633 75.9474 19.7971 75.1586 19.29C74.3698 18.7829 73.2993 18.1279 72.1935 17.4799C69.9891 16.1488 67.6789 15.0078 67.6789 15.0078L65.4533 15.8882C64.3476 16.3601 63.263 16.8601 63.263 16.8601L64.735 17.5222L66.221 18.2265L67.9043 19.0857C69.0453 19.6773 70.151 20.283 70.961 20.7408C71.7709 21.1986 72.3203 21.5367 72.3203 21.5296L74.3839 20.8253L75.7925 20.3464L76.4686 20.1633Z" fill="#F7B928"/>
<path d="M83.5095 18.3688C83.5095 18.3688 81.5797 16.8264 79.495 15.3192C78.4456 14.5515 77.3821 13.8613 76.5792 13.3331L75.2128 12.4668L74.5085 12.671C74.0789 12.7978 73.4943 12.9457 72.9309 13.1429L70.663 13.9106L72.0716 14.7135C72.9097 15.2065 74.0014 15.8263 75.079 16.5306C77.2482 17.9392 79.2555 19.3478 79.2555 19.3478C79.2555 19.3478 79.5161 19.2633 79.9175 19.1788L81.3825 18.8407L83.5095 18.3688Z" fill="#F7B928"/>
<path d="M90.6783 17.2482C90.6783 17.2482 88.8964 15.5156 86.9525 13.8183C85.0087 12.1209 82.9451 10.5996 82.9451 10.5996L82.2408 10.7334C81.797 10.8109 81.2195 10.9588 80.6349 11.0926L78.3037 11.6279C78.3037 11.6279 80.4659 13.114 82.4732 14.6423C83.4874 15.41 84.4734 16.2411 85.1918 16.8397L86.3821 17.861L87.0864 17.7412C87.4878 17.6567 88.0301 17.5863 88.5724 17.5229L90.6783 17.2482Z" fill="#F7B928"/>
<path d="M97.9009 16.7556L96.8656 15.5724C96.2317 14.8681 95.3795 13.9102 94.4921 13.0228C92.7243 11.2128 90.7875 9.42383 90.7875 9.42383L88.414 9.71963L86.787 9.93093C86.3363 9.98023 86.0475 10.0436 86.0475 10.0436C86.0475 10.0436 86.5476 10.4451 87.2871 11.086C88.0266 11.7269 88.9985 12.5791 89.9353 13.4313C90.872 14.2835 91.7735 15.1568 92.4426 15.8471L93.5342 16.9739L95.7176 16.812L97.9009 16.7556Z" fill="#F7B928"/>
<path d="M105.183 16.9027L104.24 15.5997C103.676 14.8954 102.902 13.8671 102.127 12.8811C101.352 11.8951 100.486 10.895 99.8449 10.1696L98.7602 8.98633L96.3727 9.04267C95.774 9.04267 95.1824 9.07789 94.7316 9.12015L93.9851 9.17649L95.1331 10.3034C95.8374 11.0077 96.7037 11.9514 97.5559 12.8882C98.4081 13.8249 99.2392 14.7827 99.8378 15.4941C100.436 16.2054 100.831 16.7196 100.831 16.7196L103.014 16.7759C104.092 16.7829 105.183 16.9027 105.183 16.9027Z" fill="#F7B928"/>
<path d="M28.4725 58.1897L26.3596 56.9994L26.9793 55.9148C27.3597 55.2105 27.8738 54.3442 28.4513 53.4849L29.9233 51.1819L30.6769 50.1113L32.6349 51.5199L31.9306 52.5412L30.4868 54.7949C29.9515 55.6049 29.4585 56.4571 29.0782 57.0839L28.4725 58.1897Z" fill="#F7B928"/>
<path d="M92.6622 31.8625L91.9156 33.0316L90.507 33.2077C90.1619 33.2429 89.8027 33.2922 89.5633 33.3415L89.1336 33.4261L88.0913 32.5316L88.7956 31.3343L89.2393 31.2498C89.5069 31.1934 89.8661 31.1512 90.2253 31.1089L91.6339 30.9258L92.6622 31.8625Z" fill="#F7B928"/>
<path d="M89.018 33.9062L87.5319 32.6314L88.5179 30.927L89.1659 30.8143C89.3983 30.765 89.7293 30.7157 90.1731 30.6593L91.807 30.4551L93.2156 31.7932L92.1592 33.4484L90.5604 33.6526C90.2552 33.6796 89.9519 33.7243 89.6519 33.7864L89.018 33.9062ZM88.687 32.4342L89.2786 32.9413L89.4969 32.906C89.7223 32.8567 90.0463 32.8074 90.4759 32.7581L91.6521 32.6102L92.0817 31.9412L91.5042 31.3988L90.2787 31.5538C89.9336 31.596 89.5744 31.6383 89.3349 31.6946L89.0884 31.7369L88.687 32.4342Z" fill="#F7B928"/>
<path d="M50.5942 52.5193L50.6787 53.2236L50.7773 53.9279L48.932 56.0408C48.932 56.0408 48.5799 56.0408 48.2277 56.0408H47.5234C47.5234 56.0408 47.4601 55.7027 47.3896 55.3365C47.3192 54.9703 47.2628 54.6322 47.2628 54.6322L49.1715 52.4277H49.8758L50.5942 52.5193Z" fill="#F7B928"/>
<path d="M47.1884 56.4856L46.9771 55.4292C46.9067 55.077 46.8503 54.7249 46.8503 54.7249V54.5136L49.0266 51.9922L50.9916 52.119L51.2452 54.0487L49.1323 56.4927H48.2519L47.1884 56.4856ZM47.773 54.7953C47.773 54.915 47.8223 55.0841 47.8575 55.2531L47.9209 55.57H48.7238L50.3014 53.7459L50.1958 52.9571L49.3999 52.9219L47.773 54.7953Z" fill="#F7B928"/>
<path d="M55.1422 48.0538V48.7581C55.1422 49.0962 55.1422 49.4624 55.1422 49.4624L53.0997 51.4063L51.7404 51.3006L51.6066 49.892L53.7195 47.8848C53.7195 47.8848 54.0576 47.8848 54.4238 47.9693L55.1422 48.0538Z" fill="#F7B928"/>
<path d="M53.318 51.8375L51.4164 51.6896L51.2191 49.7035L53.5997 47.4004H53.8039C53.8039 47.4004 54.1561 47.4004 54.5082 47.4919L55.5717 47.6469V48.7104C55.5717 49.0344 55.5717 49.3724 55.5717 49.3724V49.5908L53.318 51.8375ZM52.1981 50.8515L52.9869 50.9149L54.7336 49.2527C54.7336 49.1118 54.7336 48.9287 54.7336 48.7526V48.4498L54.4167 48.4005L53.9518 48.3371L52.1207 50.0486L52.1981 50.8515Z" fill="#F7B928"/>
<path d="M70.1858 32.9621C69.8929 32.9396 69.6119 32.8362 69.3744 32.6633C69.1368 32.4905 68.952 32.2549 68.8406 31.9831C68.6463 31.5832 68.616 31.1232 68.7561 30.7013C68.807 30.5596 68.8856 30.4294 68.9871 30.3182C69.0886 30.2069 69.2112 30.1169 69.3477 30.0533C69.7025 29.9722 70.0744 30.0163 70.4004 30.1781C70.7264 30.3399 70.9864 30.6094 71.1365 30.9409C71.2865 31.2725 71.3173 31.6457 71.2236 31.9974C71.1299 32.3491 70.9176 32.6575 70.6225 32.8705C70.4853 32.9324 70.3363 32.9637 70.1858 32.9621ZM69.7984 30.8492C69.7731 30.8419 69.7463 30.8419 69.721 30.8492C69.6911 30.8632 69.6649 30.8838 69.6441 30.9094C69.6234 30.935 69.6087 30.965 69.6012 30.9971C69.5441 31.1919 69.5643 31.4013 69.6576 31.5817C69.8196 31.9268 70.1083 32.0958 70.2492 32.0324C70.3901 31.969 70.4675 31.6521 70.3055 31.2858C70.2629 31.178 70.1943 31.0824 70.1058 31.0075C70.0174 30.9325 69.9118 30.8806 69.7984 30.8562V30.8492Z" fill="#F7B928"/>
<path d="M14.4541 150.425L13.2216 148.368C12.9962 148.016 12.799 147.664 12.6229 147.326L12.0595 146.276L15.6232 144.318L16.1726 145.34C16.3416 145.649 16.5248 145.995 16.736 146.333L17.9263 148.312L14.4541 150.425ZM12.5384 146.417L12.9328 147.157C13.1089 147.474 13.3061 147.861 13.5244 148.192L14.5738 149.939L17.4403 148.192L16.4402 146.495C16.2219 146.15 16.0317 145.79 15.8627 145.488L15.4824 144.783L12.5384 146.417Z" fill="#F7B928"/>
<path d="M11.3685 145.017L10.96 144.256L9.23444 140.735L12.9109 139.002L14.573 142.39L14.9675 143.094L11.3685 145.017ZM9.70632 140.904L11.5164 144.545L14.4885 142.974L14.2561 142.545L12.7489 139.453L9.70632 140.904Z" fill="#F7B928"/>
<path d="M8.64067 139.453L7.67577 137.263C7.47857 136.819 7.26024 136.298 7.0912 135.854L6.78131 135.051L10.5634 133.516L10.8663 134.304C11.0282 134.727 11.2255 135.22 11.4227 135.643L12.3453 137.756L8.64067 139.453ZM7.23206 135.227L7.41518 135.706C7.58421 136.157 7.79551 136.664 7.99271 137.115L8.8097 138.981L11.8805 137.572L11.0916 135.783C10.8944 135.354 10.6902 134.854 10.5282 134.417L10.3521 133.966L7.23206 135.227Z" fill="#F7B928"/>
<path d="M1.78882 118.028V117.859C1.78882 117.859 1.5564 116.76 1.36624 115.682L1 113.316L5.01452 112.703L5.37371 114.985C5.55683 116.02 5.77517 117.056 5.77517 117.098L5.81742 117.274L1.78882 118.028ZM1.36624 113.612L1.67613 115.626C1.82403 116.443 1.99307 117.267 2.0635 117.619L5.35258 116.964C5.28215 116.675 5.18355 116.119 4.98635 115.041L4.69054 113.105L1.36624 113.612Z" fill="#F7B928"/>
<path d="M3.08459 123.697L2.50706 121.373C2.2676 120.443 2.07744 119.485 2.02814 119.218V119.049L2.19717 118.999L6.0004 118.189V118.38C6.0497 118.64 6.23282 119.542 6.46524 120.436L7.01459 122.676L3.08459 123.697ZM2.38029 119.309C2.45776 119.69 2.61975 120.493 2.83104 121.288L3.33814 123.253L6.59201 122.408L6.12717 120.507C5.92292 119.746 5.76094 118.971 5.69051 118.598L2.38029 119.309Z" fill="#F7B928"/>
<path d="M22.3824 161.651L19.9807 158.581C19.706 158.235 19.5511 158.003 19.5511 158.003L19.4595 157.862L23.2064 155.045L22.8824 155.651C22.9458 155.742 23.0585 155.897 23.2135 156.087L25.5377 159.052L22.3824 161.651ZM19.9385 157.94C20.0089 158.038 20.1145 158.179 20.2484 158.348L22.4387 161.165L25.0446 159.052L22.9317 156.355L22.6359 155.961L19.9385 157.94Z" fill="#F7B928"/>
<path d="M182.35 48.7866L181.709 47.7372C181.512 47.4132 181.294 47.0329 181.04 46.6737L179.667 44.603L183.041 42.3281L184.449 44.4833C184.717 44.8636 184.949 45.258 185.154 45.6102L185.794 46.6807L182.35 48.7866ZM180.167 44.6946L181.35 46.4835C181.604 46.8568 181.829 47.2301 182.055 47.5681L182.498 48.2724L185.379 46.5328L184.914 45.7581C184.71 45.42 184.477 45.0538 184.21 44.6523L182.977 42.793L180.167 44.6946Z" fill="#F7B928"/>
<path d="M185.519 54.4349L183.582 50.85L183.117 50.0823L186.639 48.0469L187.11 48.8357L189.125 52.5685L185.519 54.4349ZM183.61 50.2091L183.892 50.6739L185.667 53.963L188.653 52.4206L186.815 49.0118L186.519 48.5258L183.61 50.2091Z" fill="#F7B928"/>
<path d="M188.27 60.2949L187.918 59.4638C187.734 59.006 187.495 58.4848 187.27 58.0552L186.192 55.8155L189.84 54.0195L190.953 56.3437C191.193 56.8227 191.446 57.372 191.657 57.858L192.017 58.7031L188.27 60.2949ZM186.643 55.9493L187.572 57.8721C187.805 58.3369 188.044 58.8651 188.227 59.33L188.446 59.83L191.524 58.4919L191.305 57.9636C191.108 57.4847 190.862 56.9424 190.601 56.4705L189.643 54.4632L186.643 55.9493Z" fill="#F7B928"/>
<path d="M194.825 82.7056L194.388 80.2899C194.17 79.17 193.916 78.0502 193.909 78.0431L193.867 77.8671L197.846 77.0078L197.889 77.1839C197.889 77.1839 198.156 78.3671 198.382 79.5363L198.811 82.0788L194.825 82.7056ZM194.325 78.0995C194.402 78.4023 194.522 79.001 194.754 80.2124L195.114 82.3253L198.431 81.7759L198.058 79.5856C197.882 78.6841 197.684 77.7825 197.6 77.4163L194.325 78.0995Z" fill="#F7B928"/>
<path d="M193.683 76.7696L193.648 76.5936C193.648 76.5936 193.416 75.4526 193.099 74.3609L192.458 71.9593L196.367 70.8535L197.071 73.3467C197.402 74.4877 197.641 75.6709 197.648 75.685V75.8541L193.683 76.7696ZM192.887 72.2058L193.437 74.2694C193.683 75.1145 193.873 75.9808 193.958 76.3823L197.233 75.6216C197.148 75.2554 196.951 74.3539 196.698 73.5087L196.12 71.3958L192.887 72.2058Z" fill="#F7B928"/>
<path d="M174.079 37.1167L173.974 36.9688C173.974 36.9688 173.798 36.7434 173.523 36.4265L170.833 33.3628L173.833 30.623L176.65 33.7994C176.946 34.1446 177.136 34.3911 177.136 34.3911L177.235 34.5249L174.079 37.1167ZM171.326 33.391L173.784 36.2082C173.938 36.3772 174.058 36.5251 174.143 36.6307L176.728 34.4826C176.643 34.377 176.523 34.2291 176.361 34.046L173.805 31.1372L171.326 33.391Z" fill="#F7B928"/>
</svg>
