<svg width="18" height="16" viewBox="0 0 18 16" fill="none" xmlns="http://www.w3.org/2000/svg">
<path d="M6.56939 13.9266L6.10507 14.5155L6.10507 14.5155L6.56939 13.9266ZM9 3.19836L8.45963 3.71846C8.60102 3.86535 8.79612 3.94836 9 3.94836C9.20388 3.94836 9.39898 3.86535 9.54037 3.71846L9 3.19836ZM11.4306 13.9266L10.9663 13.3376L10.9663 13.3376L11.4306 13.9266ZM7.0337 13.3376C5.81227 12.3747 4.50304 11.4534 3.46279 10.2821C2.44825 9.13966 1.75 7.81864 1.75 6.10753H0.25C0.25 8.28677 1.15953 9.94747 2.34122 11.2781C3.4972 12.5798 4.97265 13.6228 6.10507 14.5155L7.0337 13.3376ZM1.75 6.10753C1.75 4.44296 2.69036 3.05483 3.96185 2.47363C5.18605 1.91404 6.85165 2.04782 8.45963 3.71846L9.54037 2.67826C7.54848 0.608763 5.21408 0.251952 3.33825 1.1094C1.5097 1.94523 0.25 3.88176 0.25 6.10753H1.75ZM6.10507 14.5155C6.51348 14.8375 6.96146 15.1886 7.41778 15.4553C7.87386 15.7218 8.4096 15.9479 9 15.9479V14.4479C8.7904 14.4479 8.52614 14.3656 8.17457 14.1602C7.82323 13.9549 7.4559 13.6704 7.0337 13.3376L6.10507 14.5155ZM11.8949 14.5155C13.0273 13.6228 14.5028 12.5798 15.6588 11.2781C16.8405 9.94747 17.75 8.28677 17.75 6.10753H16.25C16.25 7.81864 15.5518 9.13966 14.5372 10.2821C13.497 11.4534 12.1877 12.3747 10.9663 13.3376L11.8949 14.5155ZM17.75 6.10753C17.75 3.88176 16.4903 1.94523 14.6617 1.1094C12.7859 0.251952 10.4515 0.608763 8.45963 2.67826L9.54037 3.71846C11.1484 2.04782 12.8139 1.91404 14.0382 2.47363C15.3096 3.05483 16.25 4.44296 16.25 6.10753H17.75ZM10.9663 13.3376C10.5441 13.6704 10.1768 13.9549 9.82543 14.1602C9.47386 14.3656 9.2096 14.4479 9 14.4479V15.9479C9.5904 15.9479 10.1261 15.7218 10.5822 15.4553C11.0385 15.1886 11.4865 14.8375 11.8949 14.5155L10.9663 13.3376Z" fill="#3800A6"/>
</svg>
