<svg width="24" height="25" viewBox="0 0 24 25" fill="none" xmlns="http://www.w3.org/2000/svg">
<path d="M4.6875 15.4648H7.5C8.01778 15.4648 8.4375 15.0451 8.4375 14.5273C8.4375 14.0096 8.01778 13.5898 7.5 13.5898H4.6875C4.16972 13.5898 3.75 14.0096 3.75 14.5273C3.75 15.0451 4.16972 15.4648 4.6875 15.4648Z" fill="#3800A6"/>
<path d="M4.6875 11.7148H7.5C8.01778 11.7148 8.4375 11.2951 8.4375 10.7773C8.4375 10.2596 8.01778 9.83984 7.5 9.83984H4.6875C4.16972 9.83984 3.75 10.2596 3.75 10.7773C3.75 11.2951 4.16972 11.7148 4.6875 11.7148Z" fill="#3800A6"/>
<path d="M10.1914 14.5288C10.1914 15.0466 10.6111 15.4663 11.1289 15.4663C13.0893 15.4663 14.9323 14.7029 16.3185 13.3167L23.1744 6.46009C24.2735 5.36101 24.2737 3.58187 23.1744 2.4826C22.0779 1.38601 20.2936 1.38601 19.1969 2.4826L12.341 9.3392C10.9549 10.7254 10.1914 12.5684 10.1914 14.5288ZM20.5228 3.80846C20.8883 3.44293 21.4831 3.44293 21.8486 3.80846C22.215 4.17474 22.2151 4.76785 21.8486 5.13427L14.9926 11.9909C14.2089 12.7746 13.229 13.2909 12.1636 13.4941C12.3667 12.4287 12.8831 11.4488 13.6668 10.6651L20.5228 3.80846Z" fill="#3800A6"/>
<path d="M2.8125 22.9648C3.50513 22.9648 4.17084 22.7107 4.68712 22.2491L5.98308 21.0898H15.5625C18.1472 21.0898 20.25 18.987 20.25 16.4023V14.2994C20.25 13.7816 19.8303 13.3619 19.3125 13.3619C18.7947 13.3619 18.375 13.7816 18.375 14.2994V16.4023C18.375 17.9532 17.1133 19.2148 15.5625 19.2148H5.625C5.39437 19.2148 5.17186 19.2998 4.99997 19.4536L3.43725 20.8514C3.26527 21.0052 3.04341 21.0898 2.8125 21.0898C2.29556 21.0898 1.875 20.6693 1.875 20.1523V8.90234C1.875 7.35153 3.13669 6.08984 4.6875 6.08984H12.5507C13.0685 6.08984 13.4882 5.67013 13.4882 5.15234C13.4882 4.63456 13.0685 4.21484 12.5507 4.21484H4.6875C2.10277 4.21484 0 6.31766 0 8.90234V20.1523C0 21.7032 1.26169 22.9648 2.8125 22.9648Z" fill="#3800A6"/>
</svg>
