<svg width="32" height="32" viewBox="0 0 32 32" fill="none" xmlns="http://www.w3.org/2000/svg">
<g clip-path="url(#clip0_122_8464)">
<path d="M18.4857 10.5893C19.4419 9.62934 20.8406 9.60918 21.6149 10.3865C22.3907 11.1653 22.3698 12.5728 21.4129 13.5334L19.7971 15.1555C19.6022 15.3512 19.6028 15.6677 19.7984 15.8626C19.9941 16.0575 20.3106 16.0569 20.5055 15.8613L22.1214 14.2391C23.3956 12.9599 23.5556 10.9177 22.3234 9.68076C21.0898 8.44233 19.0521 8.60374 17.7772 9.88353L14.5454 13.1278C13.2713 14.407 13.1113 16.4492 14.3435 17.6862C14.5383 17.8818 14.8549 17.8824 15.0506 17.6876C15.2462 17.4927 15.2468 17.1761 15.0519 16.9805C14.2762 16.2017 14.2971 14.7942 15.2539 13.8336L18.4857 10.5893Z" fill="#4D4D4D"/>
<path d="M17.6567 14.3138C17.4618 14.1181 17.1453 14.1175 16.9496 14.3124C16.754 14.5073 16.7534 14.8239 16.9483 15.0195C17.724 15.7983 17.7031 17.2058 16.7463 18.1664L13.5145 21.4107C12.5583 22.3706 11.1596 22.3908 10.3853 21.6135C9.6095 20.8347 9.63039 19.4272 10.5873 18.4666L12.2032 16.8444C12.398 16.6488 12.3974 16.3322 12.2018 16.1373C12.0061 15.9424 11.6896 15.943 11.4947 16.1387L9.87878 17.7608C8.60458 19.04 8.44461 21.0822 9.6768 22.3192C10.9104 23.5576 12.9481 23.3962 14.223 22.1164L17.4547 18.8721C18.7289 17.593 18.8889 15.5508 17.6567 14.3138Z" fill="#4D4D4D"/>
</g>
<defs>
<clipPath id="clip0_122_8464">
<rect width="16" height="16" fill="white" transform="translate(8 8)"/>
</clipPath>
</defs>
</svg>
