<svg width="32" height="32" viewBox="0 0 32 32" fill="none" xmlns="http://www.w3.org/2000/svg">
<path fill-rule="evenodd" clip-rule="evenodd" d="M8 16.437C8 13.2413 8 11.6434 8.7615 10.4926C9.10155 9.97863 9.54168 9.5385 10.0556 9.19845C11.2065 8.43695 12.8043 8.43695 16 8.43695C19.1957 8.43695 20.7935 8.43695 21.9444 9.19845C22.4583 9.5385 22.8984 9.97863 23.2385 10.4926C24 11.6434 24 13.2413 24 16.437C24 19.6326 24 21.2305 23.2385 22.3813C22.8984 22.8953 22.4583 23.3354 21.9444 23.6754C20.7935 24.437 19.1957 24.437 16 24.437C12.8043 24.437 11.2065 24.437 10.0556 23.6754C9.54168 23.3354 9.10155 22.8953 8.7615 22.3813C8 21.2305 8 19.6326 8 16.437ZM20.141 16.437C20.141 18.7244 18.2867 20.5787 15.9993 20.5787C13.7119 20.5787 11.8576 18.7244 11.8576 16.437C11.8576 14.1496 13.7119 12.2953 15.9993 12.2953C18.2867 12.2953 20.141 14.1496 20.141 16.437ZM15.9993 19.1774C17.5128 19.1774 18.7398 17.9505 18.7398 16.437C18.7398 14.9235 17.5128 13.6965 15.9993 13.6965C14.4858 13.6965 13.2589 14.9235 13.2589 16.437C13.2589 17.9505 14.4858 19.1774 15.9993 19.1774ZM20.3054 13.0604C20.8429 13.0604 21.2786 12.6247 21.2786 12.0872C21.2786 11.5497 20.8429 11.114 20.3054 11.114C19.768 11.114 19.3322 11.5497 19.3322 12.0872C19.3322 12.6247 19.768 13.0604 20.3054 13.0604Z" fill="#4D4D4D"/>
</svg>
