<svg width="32" height="32" viewBox="0 0 32 32" fill="none" xmlns="http://www.w3.org/2000/svg">
<path d="M16.3891 22.6413L12.7783 22.5738C11.6092 22.5503 10.4372 22.5973 9.29098 22.3536C7.54737 21.9896 7.42385 20.2048 7.29459 18.7077C7.11649 16.603 7.18544 14.46 7.52154 12.3728C7.71128 11.2017 8.45797 10.5029 9.61271 10.4269C13.5108 10.1509 17.4348 10.1836 21.3243 10.3123C21.735 10.3241 22.1486 10.3887 22.5537 10.4621C24.5531 10.8202 24.6018 12.8428 24.7314 14.5454C24.8607 16.2656 24.8061 17.9947 24.5591 19.7032C24.3609 21.1177 23.9816 22.304 22.3813 22.4185C20.3762 22.5683 18.4171 22.6888 16.4063 22.6504C16.4064 22.6413 16.3949 22.6413 16.3891 22.6413ZM14.2663 19.06C15.7773 18.1734 17.2595 17.3016 18.7619 16.421C17.2481 15.5344 15.7687 14.6626 14.2663 13.7819V19.06Z" fill="#4D4D4D"/>
</svg>
