<svg width="32" height="32" viewBox="0 0 32 32" fill="none" xmlns="http://www.w3.org/2000/svg">
<path d="M8 10.588C8 10.0749 8.18019 9.65166 8.54054 9.31817C8.9009 8.98467 9.36937 8.81793 9.94595 8.81793C10.5122 8.81793 10.9704 8.9821 11.3205 9.31048C11.6808 9.6491 11.861 10.0903 11.861 10.6342C11.861 11.1267 11.686 11.5372 11.3359 11.8656C10.9756 12.2042 10.5019 12.3735 9.91506 12.3735H9.89961C9.33333 12.3735 8.87517 12.2042 8.5251 11.8656C8.17503 11.5269 8 11.1011 8 10.588ZM8.20077 24.056V13.7742H11.6293V24.056H8.20077ZM13.529 24.056H16.9575V18.3148C16.9575 17.9556 16.9987 17.6786 17.0811 17.4836C17.2252 17.1347 17.444 16.8397 17.7375 16.5986C18.0309 16.3574 18.399 16.2369 18.8417 16.2369C19.9949 16.2369 20.5714 17.0116 20.5714 18.5611V24.056H24V18.1609C24 16.6422 23.6396 15.4904 22.9189 14.7054C22.1982 13.9204 21.2458 13.5279 20.0618 13.5279C18.7336 13.5279 17.6988 14.0974 16.9575 15.2364V15.2672H16.9421L16.9575 15.2364V13.7742H13.529C13.5495 14.1025 13.5598 15.1235 13.5598 16.8372C13.5598 18.5508 13.5495 20.9571 13.529 24.056Z" fill="#4D4D4D"/>
</svg>
