<svg width="16" height="16" viewBox="0 0 16 16" fill="none" xmlns="http://www.w3.org/2000/svg">
<g clip-path="url(#clip0_122_7662)">
<path d="M15.6707 0.0014011C12.5402 -0.054786 8.96991 1.58333 6.71002 4.12446C4.55036 4.16526 2.4475 5.05155 0.899258 6.60137C0.80905 6.69034 0.776976 6.82345 0.8164 6.94385C0.856493 7.06492 0.960734 7.15254 1.08636 7.1706L3.66164 7.53983L3.34357 7.89635C3.2253 8.02879 3.23132 8.23013 3.35694 8.35588L7.65153 12.6549C7.71635 12.7197 7.80188 12.7525 7.88808 12.7525C7.9676 12.7525 8.04711 12.7244 8.11059 12.6676L8.46675 12.3492L8.8356 14.9271C8.85364 15.0528 8.95254 15.1451 9.07215 15.1853C9.10289 15.1953 9.13496 15.2 9.1677 15.2C9.26259 15.2 9.35948 15.1585 9.4263 15.0923C10.9532 13.5639 11.8385 11.4589 11.8793 9.29701C14.4205 7.03013 16.0703 3.45757 15.9975 0.327821C15.9928 0.149895 15.8491 0.00608335 15.6707 0.0014011ZM12.5916 5.77529C12.2662 6.10104 11.8385 6.26425 11.4102 6.26425C10.9819 6.26425 10.5542 6.10104 10.2288 5.77529C9.57798 5.12312 9.57798 4.06225 10.2288 3.41008C10.8803 2.75791 11.9401 2.75791 12.5916 3.41008C13.2431 4.06225 13.2431 5.12379 12.5916 5.77529Z" fill="#858585"/>
<path d="M1.79815 11.3163C1.09184 12.0227 0.122156 15.2138 0.0139 15.5748C-0.0210853 15.691 0.0112596 15.8171 0.0964123 15.9029C0.159782 15.9663 0.243614 16 0.330087 16C0.361772 16 0.393457 15.9953 0.425141 15.9861C0.786215 15.8778 3.97713 14.9081 4.68344 14.2018C5.47885 13.4063 5.47885 12.1118 4.68344 11.3163C3.88736 10.5209 2.59356 10.5215 1.79815 11.3163Z" fill="#858585"/>
</g>
<defs>
<clipPath id="clip0_122_7662">
<rect width="16" height="16" fill="white"/>
</clipPath>
</defs>
</svg>
