<svg width="16" height="16" viewBox="0 0 16 16" fill="none" xmlns="http://www.w3.org/2000/svg">
<g clip-path="url(#clip0_122_7668)">
<path d="M4.6875 4.6875H11.3125V11.3125H4.6875V4.6875Z" fill="#858585"/>
<path d="M15.5312 6.59375C15.7902 6.59375 16 6.38391 16 6.125C16 5.86609 15.7902 5.65625 15.5312 5.65625H14.125V4.71875H15.5312C15.7902 4.71875 16 4.50891 16 4.25C16 3.99109 15.7902 3.78125 15.5312 3.78125H14.125V2.96875C14.125 2.3656 13.6344 1.875 13.0312 1.875H12.2188V0.46875C12.2188 0.209839 12.0089 0 11.75 0C11.4911 0 11.2812 0.209839 11.2812 0.46875V1.875H10.3438V0.46875C10.3438 0.209839 10.1339 0 9.875 0C9.61609 0 9.40625 0.209839 9.40625 0.46875V1.875H8.46875V0.46875C8.46875 0.209839 8.25891 0 8 0C7.74109 0 7.53125 0.209839 7.53125 0.46875V1.875H6.59375V0.46875C6.59375 0.209839 6.38391 0 6.125 0C5.86609 0 5.65625 0.209839 5.65625 0.46875V1.875H4.71875V0.46875C4.71875 0.209839 4.50891 0 4.25 0C3.99109 0 3.78125 0.209839 3.78125 0.46875V1.875H2.96875C2.3656 1.875 1.875 2.3656 1.875 2.96875V3.78125H0.46875C0.209839 3.78125 0 3.99109 0 4.25C0 4.50891 0.209839 4.71875 0.46875 4.71875H1.875V5.65625H0.46875C0.209839 5.65625 0 5.86609 0 6.125C0 6.38391 0.209839 6.59375 0.46875 6.59375H1.875V7.53125H0.46875C0.209839 7.53125 0 7.74109 0 8C0 8.25891 0.209839 8.46875 0.46875 8.46875H1.875V9.40625H0.46875C0.209839 9.40625 0 9.61609 0 9.875C0 10.1339 0.209839 10.3438 0.46875 10.3438H1.875V11.2812H0.46875C0.209839 11.2812 0 11.4911 0 11.75C0 12.0089 0.209839 12.2188 0.46875 12.2188H1.875V13.0312C1.875 13.6344 2.3656 14.125 2.96875 14.125H3.78125V15.5312C3.78125 15.7902 3.99109 16 4.25 16C4.50891 16 4.71875 15.7902 4.71875 15.5312V14.125H5.65625V15.5312C5.65625 15.7902 5.86609 16 6.125 16C6.38391 16 6.59375 15.7902 6.59375 15.5312V14.125H7.53125V15.5312C7.53125 15.7902 7.74109 16 8 16C8.25891 16 8.46875 15.7902 8.46875 15.5312V14.125H9.40625V15.5312C9.40625 15.7902 9.61609 16 9.875 16C10.1339 16 10.3438 15.7902 10.3438 15.5312V14.125H11.2812V15.5312C11.2812 15.7902 11.4911 16 11.75 16C12.0089 16 12.2188 15.7902 12.2188 15.5312V14.125H13.0312C13.6344 14.125 14.125 13.6344 14.125 13.0312V12.2188H15.5312C15.7902 12.2188 16 12.0089 16 11.75C16 11.4911 15.7902 11.2812 15.5312 11.2812H14.125V10.3438H15.5312C15.7902 10.3438 16 10.1339 16 9.875C16 9.61609 15.7902 9.40625 15.5312 9.40625H14.125V8.46875H15.5312C15.7902 8.46875 16 8.25891 16 8C16 7.74109 15.7902 7.53125 15.5312 7.53125H14.125V6.59375H15.5312ZM12.25 11.7812C12.25 12.0402 12.0402 12.25 11.7812 12.25H4.21875C3.95984 12.25 3.75 12.0402 3.75 11.7812V4.21875C3.75 3.95984 3.95984 3.75 4.21875 3.75H11.7812C12.0402 3.75 12.25 3.95984 12.25 4.21875V11.7812Z" fill="#858585"/>
</g>
<defs>
<clipPath id="clip0_122_7668">
<rect width="16" height="16" fill="white"/>
</clipPath>
</defs>
</svg>
