<svg width="16" height="16" viewBox="0 0 16 16" fill="none" xmlns="http://www.w3.org/2000/svg">
<path d="M10.7163 0H5.31108C4.39213 0 3.61133 0.749287 3.61133 1.66798V14.3339C3.61133 15.2526 4.37561 16 5.29456 16L10.7087 15.9942C11.6275 15.9942 12.3792 15.2466 12.3792 14.3278L12.3871 1.66709C12.387 0.745093 11.639 0 10.7163 0ZM7.23284 1.00002H8.80106C8.93882 1.00002 9.05103 1.11186 9.05103 1.25C9.05103 1.38814 8.93882 1.49997 8.80106 1.49997H7.23284C7.0947 1.49997 6.98287 1.38814 6.98287 1.25C6.98287 1.11186 7.0947 1.00002 7.23284 1.00002ZM6.29051 1.07958C6.38316 0.987061 6.5518 0.98579 6.64431 1.07958C6.6907 1.12584 6.71815 1.19078 6.71815 1.25711C6.71815 1.32218 6.6907 1.38699 6.64431 1.43338C6.59818 1.47977 6.53299 1.50709 6.46805 1.50709C6.40184 1.50709 6.33817 1.47977 6.29051 1.43338C6.24438 1.38712 6.21808 1.32218 6.21808 1.25711C6.21795 1.19078 6.24438 1.12584 6.29051 1.07958ZM7.9665 15.5045C7.55398 15.5045 7.21848 15.1687 7.21848 14.7564C7.21848 14.3438 7.55398 14.0082 7.9665 14.0082C8.37901 14.0082 8.71451 14.3438 8.71451 14.7564C8.71451 15.1687 8.37888 15.5045 7.9665 15.5045ZM11.6111 13.4997H4.4863V2.37507H11.6111V13.4997Z" fill="#85828C"/>
</svg>
