<svg width="40" height="40" viewBox="0 0 40 40" fill="none" xmlns="http://www.w3.org/2000/svg">
<path d="M28.2031 12.9688C28.2031 8.43367 24.5222 4.6875 20 4.6875C15.4837 4.6875 11.7969 8.42844 11.7969 12.9688C11.7969 17.492 15.4768 21.1719 20 21.1719C24.5232 21.1719 28.2031 17.492 28.2031 12.9688ZM14.1406 12.9688C14.1406 9.69477 16.7691 7.03125 20 7.03125C23.2309 7.03125 25.8594 9.69477 25.8594 12.9688C25.8594 16.1996 23.2309 18.8281 20 18.8281C16.7691 18.8281 14.1406 16.1996 14.1406 12.9688Z" fill="#3800A6"/>
<path d="M32.8906 12.9688C32.8906 5.85844 27.1187 0 20 0C13.2801 0 7.10938 5.36859 7.10938 12.9688C7.10938 17.7073 11.7489 24.868 14.5036 28.8027C11.4413 29.4182 7.10938 31.0075 7.10938 34.1406C7.10938 38.6211 15.4548 40 20 40C24.5456 40 32.8906 38.621 32.8906 34.1406C32.8906 31.0073 28.5583 29.4181 25.4964 28.8027C28.237 24.8883 32.8906 17.7128 32.8906 12.9688ZM9.45312 12.9688C9.45312 6.40602 14.9277 2.34375 20 2.34375C25.8155 2.34375 30.5469 7.11008 30.5469 12.9688C30.5469 17.9316 23.6123 27.7142 19.9999 32.277C16.3872 27.7152 9.45312 17.9346 9.45312 12.9688ZM30.5469 34.1406C30.5469 36.0985 24.8077 37.6562 20 37.6562C15.1987 37.6562 9.45312 36.0973 9.45312 34.1406C9.45312 33.2079 11.5466 31.5909 16.0219 30.9155C17.7311 33.2348 19.0176 34.7916 19.0977 34.8884C19.3203 35.157 19.6511 35.3125 20 35.3125C20.3489 35.3125 20.6797 35.157 20.9023 34.8884C20.9824 34.7916 22.2689 33.2348 23.9781 30.9155C28.4534 31.5909 30.5469 33.2079 30.5469 34.1406Z" fill="#3800A6"/>
</svg>
