<svg width="40" height="40" viewBox="0 0 40 40" fill="none" xmlns="http://www.w3.org/2000/svg">
<path d="M31.9192 27.6172H8.07031C7.42303 27.6172 6.89844 28.1418 6.89844 28.7891C6.89844 29.436 7.42303 29.9609 8.07031 29.9609H31.9192C32.5665 29.9609 33.0911 29.436 33.0911 28.7891C33.0911 28.1418 32.5665 27.6172 31.9192 27.6172Z" fill="#3800A6"/>
<path d="M26.8985 32.6328H11.8359C11.1887 32.6328 10.6641 33.1574 10.6641 33.8047C10.6641 34.4517 11.1887 34.9766 11.8359 34.9766H26.8985C27.5455 34.9766 28.0704 34.4517 28.0704 33.8047C28.0704 33.1574 27.5455 32.6328 26.8985 32.6328Z" fill="#3800A6"/>
<path d="M33.8019 2.51038H32.4634V1.17188C32.4634 0.524597 31.9388 0 31.2915 0C30.6445 0 30.1196 0.524597 30.1196 1.17188V2.51038H24.9323V1.17188C24.9323 0.524597 24.4077 0 23.7604 0C23.1131 0 22.5885 0.524597 22.5885 1.17188V2.51038H17.4011V1.17188C17.4011 0.524597 16.8762 0 16.2292 0C15.582 0 15.0574 0.524597 15.0574 1.17188V2.51038H9.86969V1.17188C9.86969 0.524597 9.34509 0 8.69781 0C8.05084 0 7.52594 0.524597 7.52594 1.17188V2.51038H6.18744C3.46497 2.51038 1.25 4.72534 1.25 7.44781V35.0626C1.25 37.785 3.46497 40 6.18744 40H33.8022C36.5247 40 38.7396 37.785 38.7396 35.0626V7.44781C38.7396 4.72534 36.5247 2.51038 33.8019 2.51038ZM36.3959 35.0626C36.3959 36.4926 35.2322 37.6562 33.8022 37.6562H6.18744C4.75739 37.6562 3.59375 36.4926 3.59375 35.0626V7.44781C3.59375 6.01776 4.75739 4.85413 6.18744 4.85413H7.52594V6.19263C7.52594 6.8399 8.05084 7.3645 8.69781 7.3645C9.34509 7.3645 9.86969 6.8399 9.86969 6.19263V4.85413H15.0574V6.19263C15.0574 6.8399 15.582 7.3645 16.2292 7.3645C16.8762 7.3645 17.4011 6.8399 17.4011 6.19263V4.85413H22.5885V6.19263C22.5885 6.8399 23.1131 7.3645 23.7604 7.3645C24.4077 7.3645 24.9323 6.8399 24.9323 6.19263V4.85413H30.1196V6.19263C30.1196 6.8399 30.6445 7.3645 31.2915 7.3645C31.9388 7.3645 32.4634 6.8399 32.4634 6.19263V4.85413H33.8022C35.2322 4.85413 36.3959 6.01776 36.3959 7.44781V35.0626Z" fill="#3800A6"/>
<path d="M18.4271 18.0362H21.5649C22.1298 18.0362 22.5897 18.4961 22.5897 19.061C22.5897 19.6262 22.1298 20.0858 21.5649 20.0858H17.4857C16.8384 20.0858 16.3138 20.6104 16.3138 21.2576C16.3138 21.9049 16.8384 22.4295 17.4857 22.4295H18.8242V23.768C18.8242 24.4153 19.3488 24.9399 19.996 24.9399C20.6433 24.9399 21.1679 24.4153 21.1679 23.768V22.4295H21.5649C23.4222 22.4295 24.9335 20.9183 24.9335 19.061C24.9335 17.2037 23.4222 15.6924 21.5649 15.6924H18.4271C17.8619 15.6924 17.4023 15.2328 17.4023 14.668C17.4023 14.1028 17.8619 13.6432 18.4271 13.6432H22.5064C23.1537 13.6432 23.6783 13.1183 23.6783 12.4713C23.6783 11.824 23.1537 11.2994 22.5064 11.2994H21.1679V9.96094C21.1679 9.31366 20.6433 8.78906 19.996 8.78906C19.3488 8.78906 18.8242 9.31366 18.8242 9.96094V11.2994H18.4271C16.5695 11.2994 15.0586 12.8104 15.0586 14.668C15.0586 16.5253 16.5695 18.0362 18.4271 18.0362Z" fill="#3800A6"/>
</svg>
