<svg width="60" height="60" viewBox="0 0 60 60" fill="none" xmlns="http://www.w3.org/2000/svg">
<rect width="60" height="60" fill="#E8E9FF"/>
<path d="M39 33H42V37H39C37.897 37 37 36.103 37 35C37 33.897 37.897 33 39 33Z" fill="#3800A6"/>
<path d="M42 38.5V42C42 43.105 41.105 44 40 44H20C18.895 44 18 43.105 18 42V28C18 26.895 18.895 26 20 26H40C41.105 26 42 26.895 42 28V31.5H39C37.07 31.5 35.5 33.07 35.5 35C35.5 36.93 37.07 38.5 39 38.5H42Z" fill="#3800A6"/>
<path d="M27.5 18.5C27.5 17.119 28.619 16 30 16C31.381 16 32.5 17.119 32.5 18.5C32.5 19.525 31.882 20.403 31 20.789V24.5H29V20.789C28.118 20.403 27.5 19.525 27.5 18.5Z" fill="#3800A6"/>
<path d="M19.5 19.5C19.5 18.119 20.619 17 22 17C23.576 17 24.807 18.46 24.428 20.071L26.6 21.7C26.852 21.889 27 22.185 27 22.5V24.5H25V23L23.224 21.667C21.522 22.631 19.5 21.378 19.5 19.5Z" fill="#3800A6"/>
<path d="M40.5 19.5C40.5 21.386 38.472 22.627 36.776 21.668L35 23V24.5H33V22.5C33 22.185 33.148 21.889 33.4 21.7L35.572 20.072C35.193 18.459 36.425 17 38 17C39.381 17 40.5 18.119 40.5 19.5Z" fill="#3800A6"/>
</svg>
