<svg width="16" height="16" viewBox="0 0 16 16" fill="none" xmlns="http://www.w3.org/2000/svg">
<g clip-path="url(#clip0_2001_17503)">
<path d="M1.41864 10.4887C1.11449 8.51172 0.810337 6.53477 0.506187 4.55777C0.438737 4.11952 0.937387 3.82062 1.29209 4.08667C2.23969 4.79737 3.18724 5.50802 4.13484 6.21872C4.44684 6.45272 4.89134 6.37657 5.10764 6.05207L7.47429 2.50207C7.72439 2.12692 8.27559 2.12692 8.52569 2.50207L10.8923 6.05207C11.1086 6.37657 11.5531 6.45267 11.8651 6.21872C12.8127 5.50802 13.7603 4.79737 14.7079 4.08667C15.0626 3.82062 15.5612 4.11952 15.4938 4.55777C15.1897 6.53477 14.8855 8.51172 14.5814 10.4887H1.41864Z" fill="#FFB743"/>
<path d="M13.8954 13.7797H2.1052C1.7262 13.7797 1.41895 13.4724 1.41895 13.0934V11.5859H14.5817V13.0934C14.5816 13.4724 14.2744 13.7797 13.8954 13.7797Z" fill="#FFB743"/>
</g>
<defs>
<clipPath id="clip0_2001_17503">
<rect width="16" height="16" fill="white"/>
</clipPath>
</defs>
</svg>
