<svg width="40" height="40" viewBox="0 0 40 40" fill="none" xmlns="http://www.w3.org/2000/svg">
<path d="M10 20C10 16.2288 10 14.3431 11.1716 13.1716C12.3431 12 14.2288 12 18 12H22C25.7712 12 27.6569 12 28.8284 13.1716C30 14.3431 30 16.2288 30 20C30 23.7712 30 25.6569 28.8284 26.8284C27.6569 28 25.7712 28 22 28H18C14.2288 28 12.3431 28 11.1716 26.8284C10 25.6569 10 23.7712 10 20Z" stroke="#AF8C3E" stroke-width="1.5"/>
<path d="M14 16L16.1589 17.7991C17.9955 19.3296 18.9139 20.0949 20 20.0949C21.0861 20.0949 22.0045 19.3296 23.8411 17.7991L26 16" stroke="#AF8C3E" stroke-width="1.5" stroke-linecap="round"/>
</svg>
