<svg width="40" height="40" viewBox="0 0 40 40" fill="none" xmlns="http://www.w3.org/2000/svg">
<path d="M13 16.5146C13 12.9167 16.134 10 20 10C23.866 10 27 12.9167 27 16.5146C27 20.0844 24.7658 24.2499 21.2801 25.7396C20.4675 26.0868 19.5325 26.0868 18.7199 25.7396C15.2342 24.2499 13 20.0844 13 16.5146Z" stroke="#AF8C3E" stroke-width="1.5"/>
<path d="M22 17C22 18.1046 21.1046 19 20 19C18.8954 19 18 18.1046 18 17C18 15.8954 18.8954 15 20 15C21.1046 15 22 15.8954 22 17Z" stroke="#AF8C3E" stroke-width="1.5"/>
<path d="M28.9605 23.5C29.6259 24.1025 30 24.7816 30 25.5C30 27.9853 25.5228 30 20 30C14.4772 30 10 27.9853 10 25.5C10 24.7816 10.3741 24.1025 11.0395 23.5" stroke="#AF8C3E" stroke-width="1.5" stroke-linecap="round"/>
</svg>
