<svg width="40" height="41" viewBox="0 0 40 41" fill="none" xmlns="http://www.w3.org/2000/svg">
<rect y="0.748047" width="40" height="40" rx="20" fill="#AF8C3E" fill-opacity="0.1"/>
<path d="M14.9403 10.748C15.3561 10.748 15.6933 11.0723 15.6933 11.4722V12.9329C16.3612 12.9205 17.1098 12.9205 17.9522 12.9205H21.9681C22.8104 12.9205 23.5591 12.9205 24.227 12.9329V11.4722C24.227 11.0723 24.5641 10.748 24.98 10.748C25.3958 10.748 25.733 11.0723 25.733 11.4722V12.997C27.178 13.1083 28.1267 13.3814 28.8236 14.0516C29.5206 14.7219 29.8046 15.6342 29.9203 17.0239L30 17.748H10.9246H10V17.0239C10.1157 15.6342 10.3997 14.7219 11.0967 14.0516C11.7936 13.3814 12.7423 13.1083 14.1873 12.997V11.4722C14.1873 11.0723 14.5244 10.748 14.9403 10.748Z" fill="#AF8C3E"/>
<path opacity="0.5" d="M30.0005 22.7481V20.7481C30.0005 19.9091 29.9972 18.4133 29.9843 17.748H10.0101C9.99724 18.4133 10.0005 19.9091 10.0005 20.7481V22.7481C10.0005 26.5194 10.0005 28.405 11.1721 29.5766C12.3436 30.7481 14.2293 30.7481 18.0005 30.7481H22.0005C25.7717 30.7481 27.6574 30.7481 28.8289 29.5766C30.0005 28.405 30.0005 26.5194 30.0005 22.7481Z" fill="#AF8C3E"/>
<path d="M26 25.748C26 26.3003 25.5523 26.748 25 26.748C24.4477 26.748 24 26.3003 24 25.748C24 25.1958 24.4477 24.748 25 24.748C25.5523 24.748 26 25.1958 26 25.748Z" fill="#AF8C3E"/>
<path d="M26 21.748C26 22.3003 25.5523 22.748 25 22.748C24.4477 22.748 24 22.3003 24 21.748C24 21.1958 24.4477 20.748 25 20.748C25.5523 20.748 26 21.1958 26 21.748Z" fill="#AF8C3E"/>
<path d="M21 25.748C21 26.3003 20.5523 26.748 20 26.748C19.4477 26.748 19 26.3003 19 25.748C19 25.1958 19.4477 24.748 20 24.748C20.5523 24.748 21 25.1958 21 25.748Z" fill="#AF8C3E"/>
<path d="M21 21.748C21 22.3003 20.5523 22.748 20 22.748C19.4477 22.748 19 22.3003 19 21.748C19 21.1958 19.4477 20.748 20 20.748C20.5523 20.748 21 21.1958 21 21.748Z" fill="#AF8C3E"/>
<path d="M16 25.748C16 26.3003 15.5523 26.748 15 26.748C14.4477 26.748 14 26.3003 14 25.748C14 25.1958 14.4477 24.748 15 24.748C15.5523 24.748 16 25.1958 16 25.748Z" fill="#AF8C3E"/>
<path d="M16 21.748C16 22.3003 15.5523 22.748 15 22.748C14.4477 22.748 14 22.3003 14 21.748C14 21.1958 14.4477 20.748 15 20.748C15.5523 20.748 16 21.1958 16 21.748Z" fill="#AF8C3E"/>
</svg>
