<svg width="40" height="40" viewBox="0 0 40 40" fill="none" xmlns="http://www.w3.org/2000/svg">
<rect width="40" height="40" rx="20" fill="#AF8C3E" fill-opacity="0.1"/>
<path fill-rule="evenodd" clip-rule="evenodd" d="M11.9047 23.8918C12.149 21.8151 13.909 20.25 16.0001 20.25H24.0001C26.0911 20.25 27.8511 21.8151 28.0955 23.8918L28.7449 29.4124C28.7933 29.8237 28.4991 30.1965 28.0877 30.2449C27.6763 30.2933 27.3036 29.999 27.2552 29.5876L26.6057 24.0671C26.4503 22.7458 25.3305 21.75 24.0001 21.75H16.0001C14.6697 21.75 13.5499 22.7458 13.3944 24.0671L12.7449 29.5876C12.6965 29.999 12.3238 30.2933 11.9124 30.2449C11.5011 30.1965 11.2068 29.8237 11.2552 29.4124L11.9047 23.8918Z" fill="#AF8C3E"/>
<circle cx="20" cy="14" r="4" fill="#AF8C3E"/>
<path opacity="0.5" d="M16 21.75V26C16 27.8856 16 28.8284 16.5858 29.4142C17.1716 30 18.1144 30 20 30C21.8856 30 22.8284 30 23.4142 29.4142C24 28.8284 24 27.8856 24 26V21.75H16Z" fill="#AF8C3E"/>
</svg>
