<svg width="40" height="40" viewBox="0 0 40 40" fill="none" xmlns="http://www.w3.org/2000/svg">
<rect width="40" height="40" rx="20" fill="#AF8C3E" fill-opacity="0.1"/>
<path opacity="0.6" d="M27.7165 28.3624C29.143 27.5846 30 26.5873 30 25.5C30 24.3475 29.0372 23.2961 27.4537 22.5C25.6226 21.5794 22.9617 21 20 21C17.0383 21 14.3774 21.5794 12.5463 22.5C10.9628 23.2961 10 24.3475 10 25.5C10 26.6525 10.9628 27.7039 12.5463 28.5C14.3774 29.4206 17.0383 30 20 30C23.1066 30 25.8823 29.3625 27.7165 28.3624Z" fill="#AF8C3E"/>
<path fill-rule="evenodd" clip-rule="evenodd" d="M17.25 12C17.25 10.4812 18.4812 9.25 20 9.25C21.5188 9.25 22.75 10.4812 22.75 12C22.75 13.5188 21.5188 14.75 20 14.75C18.4812 14.75 17.25 13.5188 17.25 12Z" fill="#AF8C3E"/>
<path d="M16.2231 19.5751L14.0478 18.85C13.4221 18.6414 13 18.0558 13 17.3962C13 16.4207 13.8995 15.6935 14.8535 15.8979L16.751 16.3045C16.8565 16.3271 16.9093 16.3384 16.9616 16.3492C18.966 16.7638 21.034 16.7638 23.0384 16.3492C23.0907 16.3384 23.1435 16.3271 23.249 16.3045L25.1465 15.8979C26.1005 15.6935 27 16.4207 27 17.3962C27 18.0558 26.5779 18.6414 25.9522 18.85L23.7769 19.5751C23.514 19.6627 23.3826 19.7065 23.2837 19.7675C22.9471 19.9753 22.7646 20.362 22.8182 20.7539C22.834 20.869 22.8837 20.9984 22.9832 21.257L24.23 24.4986C24.6011 25.4636 23.8888 26.5007 22.8549 26.5007C22.3263 26.5007 21.8381 26.2174 21.5758 25.7584L20 23.0007L18.4242 25.7584C18.1619 26.2174 17.6737 26.5007 17.1451 26.5007C16.1112 26.5007 15.3989 25.4636 15.77 24.4986L17.0168 21.257C17.1163 20.9984 17.166 20.869 17.1818 20.7539C17.2354 20.362 17.0529 19.9753 16.7163 19.7675C16.6174 19.7065 16.486 19.6627 16.2231 19.5751Z" fill="#AF8C3E"/>
</svg>
