<svg width="25" height="24" viewBox="0 0 25 24" fill="none" xmlns="http://www.w3.org/2000/svg">
<g clip-path="url(#clip0_276_721)">
<path d="M23.3 21.0012H14.7708L14.2908 19.8012H23.3C23.5209 19.8012 23.7 19.6221 23.7 19.4012V18.6012C23.6984 18.0912 23.374 17.6381 22.8916 17.4724C22.7131 12.0182 18.3529 7.62757 12.9 7.41117V6.60117H13.7C14.3628 6.60117 14.9 6.06392 14.9 5.40117C14.9 4.73842 14.3628 4.20117 13.7 4.20117H11.3C10.6373 4.20117 10.1 4.73842 10.1 5.40117C10.1 6.06392 10.6373 6.60117 11.3 6.60117H12.1V7.41117C6.64715 7.62757 2.28695 12.0182 2.1084 17.4724C1.62605 17.6381 1.3016 18.0912 1.3 18.6012V19.4012C1.3 19.6221 1.4791 19.8012 1.7 19.8012H10.7092L10.2292 21.0012H1.7C1.03725 21.0012 0.5 21.5384 0.5 22.2012V23.0012C0.5 23.2221 0.6791 23.4012 0.9 23.4012H24.1C24.3209 23.4012 24.5 23.2221 24.5 23.0012V22.2012C24.5 21.5384 23.9628 21.0012 23.3 21.0012ZM11.3 5.80117C11.0791 5.80117 10.9 5.62207 10.9 5.40117C10.9 5.18027 11.0791 5.00117 11.3 5.00117H13.7C13.9209 5.00117 14.1 5.18027 14.1 5.40117C14.1 5.62207 13.9209 5.80117 13.7 5.80117H11.3ZM12.5 8.20117C17.6439 8.20737 21.8711 12.2621 22.0916 17.4012H2.9084C3.1289 12.2621 7.35615 8.20737 12.5 8.20117ZM2.1 19.0012V18.6012C2.1 18.3803 2.2791 18.2012 2.5 18.2012H22.5C22.7209 18.2012 22.9 18.3803 22.9 18.6012V19.0012H2.1ZM13.9092 21.0012H11.0908L11.5708 19.8012H13.4292L13.9092 21.0012ZM23.7 22.6012H1.3V22.2012C1.3 21.9803 1.4791 21.8012 1.7 21.8012H23.3C23.5209 21.8012 23.7 21.9803 23.7 22.2012V22.6012Z" fill="white"/>
<path d="M8.3086 10.0605C6.3907 11.0982 4.9266 12.8112 4.2002 14.8673L4.9546 15.1337C5.6153 13.2645 6.94655 11.7072 8.6902 10.7637L8.3086 10.0605Z" fill="white"/>
<path d="M9.98426 9.36719C9.70051 9.45204 9.42126 9.55109 9.14746 9.66399L9.45226 10.4036C9.70091 10.301 9.95456 10.2111 10.2123 10.134L9.98426 9.36719Z" fill="white"/>
<path d="M12.8996 0.601562H12.0996V3.00156H12.8996V0.601562Z" fill="white"/>
<path d="M9.30039 4.99805H6.90039V5.79805H9.30039V4.99805Z" fill="white"/>
<path d="M8.6858 1.42065L8.12012 1.98633L9.81716 3.68337L10.3828 3.11769L8.6858 1.42065Z" fill="white"/>
<path d="M16.3142 1.41819L14.6172 3.11523L15.1829 3.68091L16.8799 1.98387L16.3142 1.41819Z" fill="white"/>
<path d="M18.1002 4.99805H15.7002V5.79805H18.1002V4.99805Z" fill="white"/>
</g>
<defs>
<clipPath id="clip0_276_721">
<rect width="24" height="24" fill="white" transform="translate(0.5)"/>
</clipPath>
</defs>
</svg>
