<svg width="25" height="24" viewBox="0 0 25 24" fill="none" xmlns="http://www.w3.org/2000/svg">
<g clip-path="url(#clip0_276_774)">
<path d="M12.4531 21.8711C13.3074 21.8711 14 21.1785 14 20.3242C14 19.4699 13.3074 18.7773 12.4531 18.7773C11.5988 18.7773 10.9062 19.4699 10.9062 20.3242C10.9062 21.1785 11.5988 21.8711 12.4531 21.8711Z" fill="white"/>
<path d="M24.2483 7.26315C21.1672 3.95739 16.995 2.13677 12.4998 2.13672C8.00499 2.13677 3.83279 3.95739 0.751657 7.26315C0.398689 7.6419 0.419549 8.23514 0.798298 8.58816C1.17709 8.94113 1.7703 8.92032 2.12331 8.54152C4.84581 5.62046 8.53092 4.01176 12.5002 4.01172C16.4691 4.01176 20.1542 5.62046 22.8767 8.54152C23.0613 8.73961 23.3117 8.83983 23.5627 8.83983C23.7916 8.83983 24.021 8.75649 24.2017 8.58816C24.5804 8.2351 24.6013 7.6419 24.2483 7.26315Z" fill="white"/>
<path d="M20.806 11.1325C18.5285 8.83783 15.5787 7.57413 12.5 7.57422C9.42054 7.57427 6.4707 8.83801 4.19389 11.1326C3.8292 11.5002 3.8315 12.0938 4.19905 12.4584C4.56659 12.8231 5.16017 12.8208 5.52486 12.4533C7.44696 10.5161 9.92411 9.44926 12.5 9.44922C15.0752 9.44912 17.5523 10.516 19.4752 12.4534C19.6584 12.638 19.8995 12.7305 20.1406 12.7305C20.3793 12.7305 20.6182 12.6398 20.8011 12.4584C21.1685 12.0936 21.1708 11.5 20.806 11.1325Z" fill="white"/>
<path d="M17.0543 15.0176C15.8346 13.8092 14.0863 13.0586 12.4915 13.0586C12.4913 13.0586 12.491 13.0586 12.4908 13.0586H12.4233C12.423 13.0586 12.4229 13.0586 12.4226 13.0586C10.8278 13.0586 9.07932 13.8092 7.85968 15.0176C7.4919 15.382 7.48914 15.9756 7.85354 16.3434C8.03687 16.5284 8.27818 16.6211 8.51954 16.6211C8.75799 16.6211 8.99654 16.5307 9.1793 16.3496C10.0476 15.4893 11.3206 14.9336 12.4227 14.9336C12.4228 14.9336 12.423 14.9336 12.4231 14.9336H12.491C12.4912 14.9336 12.4912 14.9336 12.4914 14.9336C13.5934 14.9336 14.8664 15.4894 15.7346 16.3496C16.1024 16.7139 16.6961 16.7113 17.0604 16.3434C17.4249 15.9756 17.4221 15.382 17.0543 15.0176Z" fill="white"/>
</g>
<defs>
<clipPath id="clip0_276_774">
<rect width="24" height="24" fill="white" transform="translate(0.5)"/>
</clipPath>
</defs>
</svg>
