<svg width="25" height="24" viewBox="0 0 25 24" fill="none" xmlns="http://www.w3.org/2000/svg">
<g clip-path="url(#clip0_276_699)">
<path d="M24.0312 9.68166H20.1875V8.68945C20.1875 8.43056 19.9776 8.2207 19.7188 8.2207H9.59375C9.33491 8.2207 9.125 8.43056 9.125 8.68945C9.125 8.94834 9.33491 9.1582 9.59375 9.1582H19.25V12.7519C19.25 15.9089 17.5645 18.843 14.8429 20.4394H5.84459C3.12298 18.843 1.4375 15.9089 1.4375 12.752V9.15825H4.57812C4.83697 9.15825 5.04688 8.94839 5.04688 8.6895C5.04688 8.43061 4.83697 8.22075 4.57812 8.22075H0.96875C0.709906 8.22075 0.5 8.43061 0.5 8.6895V12.752C0.5 14.5238 0.97625 16.2612 1.87728 17.7762C2.48492 18.7979 3.27336 19.7002 4.19666 20.4395H0.96875C0.709906 20.4395 0.5 20.6493 0.5 20.9082C0.5 22.6141 1.88783 24.002 3.59375 24.002H18.2188C19.9247 24.002 21.3125 22.6141 21.3125 20.9082C21.3125 20.6493 21.1026 20.4395 20.8438 20.4395H16.4908C17.3406 19.759 18.0758 18.9403 18.6613 18.0176H19.9844C22.4743 18.0176 24.5 15.9919 24.5 13.502V10.1504C24.5 9.89152 24.2901 9.68166 24.0312 9.68166ZM20.3237 21.377C20.1091 22.3413 19.2468 23.0645 18.2188 23.0645H3.59375C2.56573 23.0645 1.70347 22.3413 1.48883 21.377H5.71902H14.9685H20.3237ZM20.1875 12.752V12.4942H21.6875V13.502C21.6875 14.4411 20.9235 15.2051 19.9844 15.2051H19.8779C20.0825 14.4079 20.1875 13.5838 20.1875 12.752ZM23.5625 13.502C23.5625 15.4749 21.9574 17.0801 19.9844 17.0801H19.1866C19.3363 16.7744 19.4699 16.4615 19.5867 16.1426H19.9844C21.4405 16.1426 22.625 14.958 22.625 13.502V12.0254C22.625 11.7665 22.4151 11.5567 22.1562 11.5567H20.1875V10.6192H23.5625V13.502Z" fill="white"/>
<path d="M10.7913 2.59422L10.5474 2.28798C10.1894 1.83855 10.1888 1.21028 10.5461 0.760188C10.7071 0.557406 10.6732 0.262563 10.4704 0.101641C10.2675 -0.0593748 9.97274 -0.0253905 9.81178 0.177391C9.18168 0.971266 9.18262 2.07934 9.81407 2.87209L10.058 3.17833C10.5258 3.76567 10.5265 4.58669 10.0597 5.17492L9.80971 5.48983C9.64874 5.69261 9.68268 5.98745 9.88546 6.14837C9.97167 6.21677 10.0745 6.25 10.1766 6.25C10.3147 6.25 10.4515 6.18925 10.5441 6.07262L10.794 5.75772C11.5337 4.82575 11.5326 3.52488 10.7913 2.59422Z" fill="white"/>
<path d="M13.3889 3.64891L13.145 3.34272C12.787 2.89323 12.7865 2.26497 13.1438 1.81488C13.3047 1.61209 13.2708 1.31725 13.068 1.15633C12.8652 0.995313 12.5704 1.0293 12.4094 1.23208C11.7793 2.02595 11.7803 3.13403 12.4117 3.92683L12.6556 4.23306C13.1234 4.82045 13.1241 5.64152 12.6573 6.2297L12.4074 6.54456C12.2464 6.74734 12.2803 7.04219 12.4831 7.20311C12.5693 7.2715 12.6721 7.30469 12.7742 7.30469C12.9123 7.30469 13.0492 7.24389 13.1417 7.12731L13.3916 6.81245C14.1313 5.88053 14.1302 4.57966 13.3889 3.64891Z" fill="white"/>
<path d="M8.19363 3.6489L7.94974 3.34272C7.5917 2.89328 7.59119 2.26497 7.94842 1.81487C8.10939 1.61209 8.07545 1.31725 7.87267 1.15628C7.66984 0.995311 7.37505 1.02934 7.21408 1.23203C6.58403 2.0259 6.58497 3.13403 7.21642 3.92678L7.46031 4.23301C7.92813 4.8204 7.92883 5.64147 7.462 6.22961L7.21206 6.54447C7.05109 6.74725 7.08499 7.04209 7.28777 7.20306C7.37397 7.27145 7.47672 7.30469 7.57886 7.30469C7.71695 7.30469 7.85378 7.24394 7.94631 7.12736L8.1963 6.81245C8.93599 5.88053 8.93491 4.57965 8.19363 3.6489Z" fill="white"/>
<path d="M7.5443 8.35805C7.45711 8.27086 7.33617 8.2207 7.21289 8.2207C7.08961 8.2207 6.96867 8.27086 6.88148 8.35805C6.79434 8.4457 6.74414 8.56617 6.74414 8.68945C6.74414 8.81273 6.7943 8.93367 6.88148 9.02133C6.96867 9.10852 7.08961 9.1582 7.21289 9.1582C7.33617 9.1582 7.45711 9.10852 7.5443 9.02133C7.63191 8.93367 7.68164 8.8132 7.68164 8.68945C7.68164 8.56617 7.63191 8.44523 7.5443 8.35805Z" fill="white"/>
<path d="M17.4686 12.2812C17.2098 12.2812 16.9999 12.4911 16.9999 12.75C16.9999 14.49 16.2941 16.1999 15.0635 17.4414C14.8813 17.6252 14.8827 17.922 15.0665 18.1043C15.1579 18.1949 15.2772 18.2401 15.3965 18.2401C15.5172 18.2401 15.6378 18.1938 15.7295 18.1013C17.1326 16.6857 17.9374 14.7352 17.9374 12.75C17.9374 12.4911 17.7275 12.2812 17.4686 12.2812Z" fill="white"/>
<path d="M14.2755 18.7131C14.1483 18.4876 13.8624 18.408 13.6369 18.5352L13.6262 18.5412C13.4007 18.6684 13.3211 18.9543 13.4482 19.1798C13.5344 19.3325 13.6933 19.4183 13.857 19.4183C13.935 19.4183 14.0141 19.3988 14.0868 19.3578L14.0975 19.3517C14.323 19.2245 14.4027 18.9386 14.2755 18.7131Z" fill="white"/>
</g>
<defs>
<clipPath id="clip0_276_699">
<rect width="24" height="24" fill="white" transform="translate(0.5)"/>
</clipPath>
</defs>
</svg>
