<svg width="25" height="24" viewBox="0 0 25 24" fill="none" xmlns="http://www.w3.org/2000/svg">
<g clip-path="url(#clip0_276_765)">
<path d="M23.4453 13.1045H23.0439V10.1009C23.0439 9.9067 22.8865 9.74934 22.6924 9.74934C22.4982 9.74934 22.3408 9.90675 22.3408 10.1009V13.1045H21.5879C21.5879 11.1965 21.5879 5.85591 21.5879 4.3432H22.3408V8.41341C22.3408 8.60761 22.4982 8.76497 22.6924 8.76497C22.8865 8.76497 23.0439 8.60761 23.0439 8.41341V3.99164C23.0439 1.791 21.2535 0 19.0522 0C19.0522 0 19.0522 0 19.0522 0C17.0065 0 15.2558 1.56258 15.0757 3.64012H14.7748C13.7281 3.64012 12.8765 4.49175 12.8765 5.53852V5.82422H12.5C12.3058 5.82422 12.1484 5.98158 12.1484 6.17578C12.1484 6.36998 12.3058 6.52734 12.5 6.52734H14.7102C14.9044 6.52734 15.0618 6.36998 15.0618 6.17578C15.0618 5.98158 14.9044 5.82422 14.7102 5.82422H13.5796V5.53852C13.5796 4.87941 14.1157 4.34325 14.7748 4.34325H17.5055C18.1645 4.34325 18.7007 4.87941 18.7007 5.53852V5.82422H16.3509C16.1567 5.82422 15.9993 5.98158 15.9993 6.17578C15.9993 6.36998 16.1567 6.52734 16.3509 6.52734H19.7803C19.9745 6.52734 20.1319 6.36998 20.1319 6.17578C20.1319 5.98158 19.9745 5.82422 19.7803 5.82422H19.4039V5.53852C19.4039 4.49175 18.5523 3.64012 17.5055 3.64012H17.2536C17.418 2.79727 18.1621 2.15916 19.0523 2.15916C20.0628 2.15916 20.8849 2.9812 20.8849 3.99164V10.3629C20.6525 10.2735 20.4062 10.218 20.1539 10.1994C19.1168 10.1231 18.1399 10.6863 17.6857 11.6105C17.4185 11.5 17.1268 11.4516 16.8348 11.4705C15.9337 11.5283 15.1995 12.2209 15.0783 13.1045H11.3064C10.984 11.8401 9.82588 10.9204 8.49594 10.9204C8.15713 10.9204 7.82637 10.978 7.51123 11.0919C7.18789 10.5344 6.59825 10.1924 5.94786 10.1924C5.22392 10.1924 4.56744 10.6297 4.28511 11.2901C4.23275 11.2863 4.18011 11.2844 4.1278 11.2844C3.05005 11.2844 2.15314 12.0736 1.98463 13.1045H1.55469C0.973109 13.1045 0.5 13.5776 0.5 14.1592V14.4683C0.5 15.2857 1.1472 15.9548 1.95603 15.9902V16.5425C1.95603 17.7799 2.38447 18.9192 3.10081 19.8198L1.77013 22.4813C1.60625 22.809 1.62345 23.1907 1.81606 23.5023C2.00872 23.8139 2.34242 24 2.7088 24C3.02117 24 3.31498 23.8623 3.515 23.6224L5.31884 21.4578C5.91153 21.689 6.55597 21.8159 7.22952 21.8159H17.7705C18.4441 21.8159 19.0885 21.689 19.6812 21.4578L21.485 23.6223C21.685 23.8623 21.9789 24 22.2913 24C22.6576 24 22.9913 23.8139 23.1839 23.5023C23.3765 23.1907 23.3937 22.809 23.2299 22.4813L21.8991 19.8198C22.6155 18.9192 23.0439 17.78 23.0439 16.5425V15.9902C23.8528 15.9548 24.5 15.2857 24.5 14.4683V14.1592C24.5 13.5776 24.0269 13.1045 23.4453 13.1045ZM19.4038 1.48031V0.721781C20.0474 0.7905 20.6361 1.04564 21.1147 1.43203L20.5787 1.96809C20.2423 1.71375 19.8407 1.54116 19.4038 1.48031ZM17.5258 1.96814L16.9885 1.43077C17.4806 1.03261 18.0711 0.788016 18.7007 0.721547V1.48031C18.2638 1.54116 17.8623 1.71375 17.5258 1.96814ZM21.6119 1.92923C21.9982 2.40778 22.2534 2.99648 22.3221 3.64008H21.5636C21.5027 3.20325 21.3302 2.80172 21.0758 2.4653L21.6119 1.92923ZM15.7821 3.64012C15.8486 3.01059 16.0932 2.42011 16.4913 1.92797L17.0287 2.46534C16.7743 2.80177 16.6017 3.2033 16.5409 3.64012H15.7821ZM16.8797 12.1721C17.0891 12.159 17.2977 12.1995 17.4832 12.2902C17.6277 12.3608 17.7967 12.3695 17.9468 12.3143C18.0979 12.2586 18.2165 12.1464 18.2807 11.9986C18.591 11.2845 19.3226 10.8434 20.1021 10.9007C20.3802 10.9212 20.6476 11.0031 20.8848 11.1394V13.1046H15.7919C15.9049 12.595 16.3457 12.2064 16.8797 12.1721ZM4.1277 11.9875C4.18264 11.9875 4.23805 11.9906 4.29247 11.9967C4.5642 12.027 4.81798 11.8723 4.91014 11.6205C5.06881 11.1869 5.48581 10.8955 5.94777 10.8955C6.36716 10.8955 6.7452 11.1283 6.93444 11.5029C7.07248 11.7762 7.39184 11.8957 7.67722 11.781C7.93728 11.6766 8.21267 11.6235 8.49584 11.6235C9.44164 11.6235 10.2726 12.2373 10.5729 13.1045H2.70172C2.85969 12.464 3.43906 11.9875 4.1277 11.9875ZM2.97486 23.1722C2.90881 23.2515 2.81183 23.2969 2.7088 23.2969C2.53452 23.2969 2.44475 23.182 2.41419 23.1326C2.38367 23.0832 2.32109 22.9515 2.399 22.7957L3.60983 20.374C3.92619 20.6731 4.27948 20.9335 4.66198 21.1476L2.97486 23.1722ZM22.5858 23.1326C22.5553 23.182 22.4655 23.2969 22.2912 23.2969C22.1881 23.2969 22.0911 23.2515 22.0251 23.1722L20.338 21.1477C20.7205 20.9335 21.0738 20.6731 21.3901 20.3741L22.601 22.7957C22.6789 22.9515 22.6163 23.0832 22.5858 23.1326ZM23.7969 14.4683C23.7969 14.9205 23.4289 15.2886 22.9766 15.2886H6.17802C5.98386 15.2886 5.82645 15.4459 5.82645 15.6401C5.82645 15.8343 5.98386 15.9917 6.17802 15.9917H22.3408V16.5425C22.3408 19.0626 20.2906 21.1128 17.7705 21.1128H7.22947C4.70937 21.1128 2.65916 19.0626 2.65916 16.5425V15.9917H4.53739C4.73155 15.9917 4.88895 15.8343 4.88895 15.6401C4.88895 15.4459 4.73155 15.2886 4.53739 15.2886H2.02344C1.57114 15.2886 1.20312 14.9205 1.20312 14.4683V14.1592C1.20312 13.9653 1.36081 13.8076 1.55469 13.8076H23.4453C23.6392 13.8076 23.7969 13.9653 23.7969 14.1592V14.4683Z" fill="white"/>
<path d="M13.9551 8.71239C14.1492 8.71239 14.3066 8.55503 14.3066 8.36083V7.63281C14.3066 7.43861 14.1492 7.28125 13.9551 7.28125C13.7609 7.28125 13.6035 7.43861 13.6035 7.63281V8.36083C13.6035 8.55498 13.7609 8.71239 13.9551 8.71239Z" fill="white"/>
<path d="M16.8691 8.71239C17.0633 8.71239 17.2207 8.55503 17.2207 8.36083V7.63281C17.2207 7.43861 17.0633 7.28125 16.8691 7.28125C16.675 7.28125 16.5176 7.43861 16.5176 7.63281V8.36083C16.5176 8.55498 16.6749 8.71239 16.8691 8.71239Z" fill="white"/>
<path d="M18.6758 9.08739V8.35938C18.6758 8.16517 18.5184 8.00781 18.3242 8.00781C18.1301 8.00781 17.9727 8.16517 17.9727 8.35938V9.08739C17.9727 9.28159 18.1301 9.43895 18.3242 9.43895C18.5184 9.43895 18.6758 9.28159 18.6758 9.08739Z" fill="white"/>
<path d="M13.6035 11.271C13.6035 11.4652 13.7609 11.6225 13.9551 11.6225C14.1492 11.6225 14.3066 11.4652 14.3066 11.271V10.543C14.3066 10.3488 14.1492 10.1914 13.9551 10.1914C13.7609 10.1914 13.6035 10.3488 13.6035 10.543V11.271Z" fill="white"/>
<path d="M15.7637 9.08739V8.35938C15.7637 8.16517 15.6063 8.00781 15.4121 8.00781C15.218 8.00781 15.0605 8.16517 15.0605 8.35938V9.08739C15.0605 9.28159 15.218 9.43895 15.4121 9.43895C15.6063 9.43895 15.7637 9.28159 15.7637 9.08739Z" fill="white"/>
<path d="M16.5176 10.3638C16.5176 10.558 16.675 10.7154 16.8691 10.7154C17.0633 10.7154 17.2207 10.558 17.2207 10.3638V9.81641C17.2207 9.6222 17.0633 9.46484 16.8691 9.46484C16.675 9.46484 16.5176 9.6222 16.5176 9.81641V10.3638Z" fill="white"/>
</g>
<defs>
<clipPath id="clip0_276_765">
<rect width="24" height="24" fill="white" transform="translate(0.5)"/>
</clipPath>
</defs>
</svg>
