<svg width="25" height="24" viewBox="0 0 25 24" fill="none" xmlns="http://www.w3.org/2000/svg">
<path d="M10.131 1.69336C9.31027 1.69336 8.64258 2.36105 8.64258 3.18173C8.64258 4.00247 9.31027 4.67011 10.131 4.67011C10.9516 4.67011 11.6193 4.00242 11.6193 3.18173C11.6194 2.36105 10.9517 1.69336 10.131 1.69336ZM10.131 3.96698C9.69797 3.96698 9.3457 3.61472 9.3457 3.18173C9.3457 2.74875 9.69797 2.39648 10.131 2.39648C10.5639 2.39648 10.9162 2.74875 10.9162 3.18173C10.9162 3.61472 10.564 3.96698 10.131 3.96698Z" fill="white"/>
<path d="M6.10556 1.69336C5.28488 1.69336 4.61719 2.36105 4.61719 3.18173C4.61719 4.00247 5.28488 4.67011 6.10556 4.67011C6.92625 4.67011 7.59394 4.00242 7.59394 3.18173C7.59394 2.36105 6.92625 1.69336 6.10556 1.69336ZM6.10556 3.96698C5.67258 3.96698 5.32031 3.61472 5.32031 3.18173C5.32031 2.74875 5.67258 2.39648 6.10556 2.39648C6.53855 2.39648 6.89081 2.74875 6.89081 3.18173C6.89081 3.61472 6.53855 3.96698 6.10556 3.96698Z" fill="white"/>
<path d="M19.0132 1.69336H14.9694C14.5275 1.69336 14.168 2.05289 14.168 2.49483V3.86869C14.168 4.31062 14.5275 4.67016 14.9694 4.67016H19.0132C19.4551 4.67016 19.8147 4.31062 19.8147 3.86869V2.49483C19.8147 2.05289 19.4551 1.69336 19.0132 1.69336ZM19.1115 3.86869C19.1115 3.92292 19.0674 3.96703 19.0132 3.96703H14.9694C14.9152 3.96703 14.8711 3.92292 14.8711 3.86869V2.49483C14.8711 2.44059 14.9152 2.39648 14.9694 2.39648H19.0132C19.0674 2.39648 19.1115 2.44059 19.1115 2.49483V3.86869Z" fill="white"/>
<path d="M12.5001 7.20117C11.0581 7.20117 9.69368 7.66613 8.55438 8.54583C8.40068 8.66447 8.37232 8.88525 8.49096 9.03895C8.60965 9.19266 8.83043 9.22102 8.98409 9.10238C9.99921 8.31858 11.215 7.9043 12.5001 7.9043C15.6756 7.9043 18.259 10.4877 18.259 13.6632C18.259 16.8386 15.6756 19.422 12.5001 19.422C9.32468 19.422 6.74126 16.8386 6.74126 13.6632C6.74126 12.3414 7.20045 11.0503 8.03421 10.0274C8.15688 9.87689 8.13434 9.65545 7.98382 9.53278C7.8333 9.41011 7.61187 9.43266 7.48919 9.58313C6.55348 10.731 6.03809 12.18 6.03809 13.6632C6.03809 17.2263 8.93693 20.1252 12.5001 20.1252C16.0632 20.1252 18.9621 17.2263 18.9621 13.6632C18.9621 10.1 16.0633 7.20117 12.5001 7.20117Z" fill="white"/>
<path d="M22.7307 21.2708V2.70197C22.7307 1.21209 21.5188 0 20.0292 0H4.96908C3.47948 0 2.26758 1.21209 2.26758 2.70197V21.2985C2.26758 22.7881 3.47948 24 4.96903 24H20.0291C21.5054 24 22.7081 22.8096 22.7296 21.3383C22.7311 21.3253 22.7314 21.28 22.7307 21.2708ZM22.0275 20.9469H19.1171C18.9229 20.9469 18.7655 21.1043 18.7655 21.2985C18.7655 21.4927 18.9229 21.6501 19.1171 21.6501H21.9966C21.83 22.5849 21.0112 23.2969 20.0292 23.2969H4.96908C3.98709 23.2969 3.16828 22.5849 3.00169 21.6501H17.7108C17.9049 21.6501 18.0623 21.4927 18.0623 21.2985C18.0623 21.1044 17.9049 20.947 17.7108 20.947H2.97075V6.36356H22.0275V20.9469ZM22.0275 5.66048H2.9707V2.70197C2.9707 1.5998 3.86719 0.703125 4.96908 0.703125H20.0292C21.1311 0.703125 22.0275 1.5998 22.0275 2.70197V5.66048Z" fill="white"/>
<path d="M12.4997 8.83594C9.83764 8.83594 7.67188 11.0017 7.67188 13.6637C7.67192 13.898 7.68875 14.1323 7.72198 14.3601C7.72198 14.3603 7.72208 14.3604 7.72208 14.3606C7.88647 15.4978 8.456 16.5423 9.326 17.3018C10.2048 18.069 11.3319 18.4915 12.4997 18.4915C13.6675 18.4915 14.7946 18.069 15.6734 17.3018C16.5433 16.5423 17.1128 15.498 17.2773 14.3609C17.2773 14.3606 17.2774 14.3604 17.2774 14.3602C17.3106 14.1325 17.3275 13.8982 17.3275 13.6637C17.3275 11.0017 15.1618 8.83594 12.4997 8.83594ZM15.211 16.7721C14.4603 17.4275 13.4974 17.7884 12.4997 17.7884C11.5019 17.7884 10.5391 17.4275 9.78842 16.7721C9.09964 16.1708 8.63122 15.3608 8.45445 14.4728L8.6712 14.3253C9.03345 14.0788 9.52367 14.0786 9.88616 14.3253C10.4847 14.7325 11.2935 14.7326 11.8922 14.3253C12.2539 14.0793 12.7454 14.0791 13.1071 14.3253C13.7059 14.7327 14.5145 14.7326 15.1133 14.3252C15.4764 14.0782 15.9652 14.0781 16.328 14.3252L16.5448 14.4728C16.3682 15.3608 15.8998 16.1708 15.211 16.7721ZM16.6243 13.6809C16.6219 13.6794 16.6192 13.6782 16.6167 13.6767C16.428 13.5669 16.2217 13.4963 16.0071 13.4586C15.7385 13.4113 15.4556 13.4333 15.1954 13.5136C15.0257 13.566 14.8643 13.644 14.7176 13.7439C14.355 13.9906 13.8648 13.9903 13.5027 13.7439C13.2054 13.5417 12.8586 13.4348 12.4997 13.4348C12.143 13.4348 11.7915 13.5434 11.4966 13.7439C11.1335 13.9909 10.6447 13.9908 10.2817 13.7439C9.98445 13.5417 9.63763 13.4347 9.2787 13.4347C8.96722 13.4347 8.65156 13.5188 8.38264 13.6768C8.38016 13.6782 8.37753 13.6794 8.37505 13.6809C8.375 13.6751 8.375 13.6694 8.375 13.6636C8.37505 11.3894 10.2253 9.53902 12.4997 9.53902C14.7741 9.53902 16.6244 11.3894 16.6244 13.6637C16.6244 13.6694 16.6244 13.6752 16.6243 13.6809Z" fill="white"/>
</svg>
