<svg width="40" height="40" viewBox="0 0 40 40" fill="none" xmlns="http://www.w3.org/2000/svg">
<rect width="40" height="40" rx="20" fill="white" fill-opacity="0.8"/>
<path d="M22 10C22 10 24.2 10.2 27 13C29.8 15.8 30 18 30 18" stroke="#AF8C3E" stroke-width="1.5" stroke-linecap="round"/>
<path d="M22.207 13.5352C22.207 13.5352 23.197 13.818 24.6819 15.3029C26.1668 16.7878 26.4497 17.7778 26.4497 17.7778" stroke="#AF8C3E" stroke-width="1.5" stroke-linecap="round"/>
<path d="M18.0376 13.3162L18.6866 14.4791C19.2723 15.5286 19.0372 16.9053 18.1147 17.8278C18.1147 17.8278 18.1147 17.8278 18.1147 17.8278C18.1146 17.8279 16.9959 18.9468 19.0245 20.9755C21.0525 23.0035 22.1714 21.8861 22.1722 21.8853C22.1722 21.8853 22.1722 21.8853 22.1722 21.8853C23.0947 20.9628 24.4714 20.7277 25.5209 21.3134L26.6838 21.9624C28.2686 22.8468 28.4557 25.0692 27.0628 26.4622C26.2258 27.2992 25.2004 27.9505 24.0669 27.9934C22.1588 28.0658 18.9183 27.5829 15.6677 24.3323C12.4171 21.0817 11.9342 17.8412 12.0066 15.9331C12.0495 14.7996 12.7008 13.7742 13.5378 12.9372C14.9308 11.5443 17.1532 11.7314 18.0376 13.3162Z" stroke="#AF8C3E" stroke-width="1.5" stroke-linecap="round"/>
</svg>
