<svg width="18" height="19" viewBox="0 0 18 19" fill="none" xmlns="http://www.w3.org/2000/svg">
<g clip-path="url(#clip0_321_903)">
<path d="M18 9.5C18 4.52948 13.9705 0.5 9 0.5C4.02948 0.5 0 4.52948 0 9.5C0 13.7206 2.90592 17.2623 6.82596 18.235V12.2504H4.97016V9.5H6.82596V8.31488C6.82596 5.25164 8.21232 3.8318 11.2198 3.8318C11.79 3.8318 12.7739 3.94376 13.1764 4.05536V6.54836C12.964 6.52604 12.595 6.51488 12.1367 6.51488C10.661 6.51488 10.0908 7.07396 10.0908 8.52728V9.5H13.0306L12.5255 12.2504H10.0908V18.4341C14.5472 17.8959 18.0004 14.1015 18.0004 9.5H18Z" fill="#0866FF"/>
<path d="M12.5241 12.2506L13.0292 9.50023H10.0894V8.52751C10.0894 7.07419 10.6596 6.51511 12.1353 6.51511C12.5935 6.51511 12.9625 6.52627 13.1749 6.54859V4.05559C12.7725 3.94363 11.7886 3.83203 11.2183 3.83203C8.21091 3.83203 6.82455 5.25187 6.82455 8.31511V9.50023H4.96875V12.2506H6.82455V18.2353C7.52079 18.4081 8.24907 18.5002 8.99859 18.5002C9.36759 18.5002 9.73155 18.4776 10.089 18.4344V12.2506H12.5237H12.5241Z" fill="white"/>
</g>
<defs>
<clipPath id="clip0_321_903">
<rect width="18" height="18" fill="white" transform="translate(0 0.5)"/>
</clipPath>
</defs>
</svg>
