<svg width="18" height="19" viewBox="0 0 18 19" fill="none" xmlns="http://www.w3.org/2000/svg">
<g clip-path="url(#clip0_321_900)">
<path d="M9 7.86328V11.3487H13.8436C13.6309 12.4696 12.9927 13.4188 12.0354 14.0569L14.9563 16.3233C16.6581 14.7525 17.64 12.4452 17.64 9.70428C17.64 9.06611 17.5827 8.45242 17.4763 7.86338L9 7.86328Z" fill="#4285F4"/>
<path d="M3.95547 11.2129L3.2967 11.7172L0.964844 13.5335C2.44575 16.4708 5.48098 18.4999 8.99913 18.4999C11.4291 18.4999 13.4663 17.6981 14.9554 16.3235L12.0345 14.0572C11.2327 14.5972 10.21 14.9245 8.99913 14.9245C6.65915 14.9245 4.67102 13.3454 3.95915 11.2181L3.95547 11.2129Z" fill="#34A853"/>
<path d="M0.965384 5.4668C0.351781 6.67766 0 8.04404 0 9.50038C0 10.9567 0.351781 12.3231 0.965384 13.534C0.965384 13.5421 3.95998 11.2103 3.95998 11.2103C3.77998 10.6703 3.67359 10.0976 3.67359 9.50029C3.67359 8.90293 3.77998 8.33024 3.95998 7.79025L0.965384 5.4668Z" fill="#FBBC05"/>
<path d="M8.99932 4.08363C10.3248 4.08363 11.503 4.5418 12.4439 5.42545L15.0211 2.84821C13.4584 1.39187 11.4294 0.5 8.99932 0.5C5.48116 0.5 2.44575 2.52091 0.964844 5.46637L3.95935 7.79001C4.67112 5.66271 6.65933 4.08363 8.99932 4.08363Z" fill="#EA4335"/>
</g>
<defs>
<clipPath id="clip0_321_900">
<rect width="18" height="18" fill="white" transform="translate(0 0.5)"/>
</clipPath>
</defs>
</svg>
