<svg width="32" height="56" viewBox="0 0 32 56" fill="none" xmlns="http://www.w3.org/2000/svg">
<path d="M3.82229 55.9819V55.5849C4.47622 55.4782 5.0889 55.3063 5.65446 55.0693C6.22001 54.8322 6.6972 54.4885 7.09191 54.0381C7.22151 53.8781 7.32166 53.6529 7.38647 53.3625C7.45127 53.0721 7.50428 52.7284 7.54552 52.3314C7.58676 51.9343 7.61033 51.5195 7.62211 51.081C7.63389 50.6424 7.63978 50.2157 7.63978 49.795C7.63978 49.4275 7.64567 48.9238 7.65746 48.2897C7.66924 47.6556 7.68103 46.9623 7.6987 46.2096C7.71048 45.457 7.71637 44.6807 7.71637 43.8925V32.4313C7.71637 31.9572 7.6987 31.5127 7.65746 31.1038C7.61622 30.6949 7.5573 30.3215 7.48072 29.9956C7.40413 29.6637 7.28632 29.4089 7.12725 29.2252C6.75611 28.7748 6.30838 28.4548 5.76639 28.2533C5.23029 28.0577 4.61761 27.9155 3.93423 27.8385V27.4414H15.7225V27.8385C15.1687 27.9155 14.5796 28.0637 13.9493 28.277C13.3189 28.4903 12.8299 28.9111 12.4882 29.5452C12.2526 29.9956 12.1289 30.5645 12.1112 31.2519C12.0994 31.9394 12.0759 32.5853 12.0523 33.1957C12.0523 33.8595 12.0464 34.5113 12.0346 35.1573C12.0228 35.8033 12.0169 36.4611 12.0169 37.1189V50.4054C12.0169 51.1698 12.0287 51.9106 12.0582 52.6277C12.0817 53.3388 12.2055 53.8426 12.4117 54.1329C12.7298 54.5833 13.2246 54.927 13.908 55.1641C14.5914 55.4011 15.21 55.5493 15.7637 55.6026V55.9997H3.81641L3.82229 55.9819Z" fill="url(#paint0_linear_316_3304)"/>
<path d="M15.7168 55.9801V55.583C16.2706 55.5297 16.8892 55.3875 17.5726 55.1445C18.2559 54.9074 18.7567 54.5637 19.0689 54.1133C19.281 53.823 19.3988 53.3192 19.4224 52.6081C19.446 51.8969 19.4636 51.1562 19.4636 50.3858V41.4254C19.4636 40.6076 19.4636 39.8549 19.4636 39.1675V37.1052C19.4636 36.4474 19.4577 35.7896 19.446 35.1436C19.4342 34.4977 19.4283 33.8399 19.4283 33.1821C19.4047 32.5717 19.3812 31.9257 19.3694 31.2383C19.3576 30.5508 19.2339 29.9819 18.9923 29.5315C18.6506 28.8974 18.1617 28.4767 17.5313 28.2633C16.901 28.05 16.3118 27.9078 15.7581 27.8248V27.4277H27.5463V27.8248C26.863 27.9018 26.2503 28.0441 25.7142 28.2396C25.1781 28.4352 24.7245 28.7611 24.3533 29.2115C24.1943 29.3952 24.0764 29.656 23.9998 29.9819C23.9233 30.3138 23.8643 30.6812 23.8231 31.0901C23.7819 31.499 23.7642 31.9435 23.7642 32.4176V33.8458V41.5795V43.8788C23.7642 44.6729 23.7701 45.4433 23.7819 46.196C23.7937 46.9486 23.8054 47.6419 23.8231 48.2761C23.8349 48.9102 23.8408 49.4139 23.8408 49.7813C23.8408 50.2021 23.8467 50.6347 23.8585 51.0673C23.8702 51.5058 23.8997 51.9207 23.935 52.3177C23.9704 52.7148 24.0293 53.0585 24.0941 53.3489C24.1589 53.6392 24.2591 53.8644 24.3887 54.0244C24.7834 54.4748 25.2606 54.8186 25.8261 55.0556C26.3917 55.2926 27.0044 55.4645 27.6583 55.5712V55.9682H15.7109L15.7168 55.9801Z" fill="url(#paint1_linear_316_3304)"/>
<path d="M27.4697 10.2796C27.8232 10.7537 28.2356 10.9967 28.7245 11.0974C29.6318 11.2811 30.4212 10.9967 31.0928 10.3626C31.8351 9.66329 32.0707 8.76251 31.9824 7.74913C31.8999 6.78909 31.4934 6.02461 30.7275 5.47941C30.1443 5.05865 29.4904 4.88086 28.7893 4.86308C27.5463 4.83345 26.4388 5.27199 25.4196 5.9772C24.2001 6.82465 23.2693 7.95062 22.5034 9.23068C21.5903 10.7596 20.9835 12.419 20.524 14.1435C20.5004 14.2383 20.4533 14.3331 20.3885 14.5109C19.6698 11.6189 18.6152 8.96993 17.2544 6.42167C18.8568 3.42302 20.9776 1.05847 24.3474 0.104357C24.206 0.0687995 24.1176 0.0332424 24.0351 0.0273162C23.3223 -0.0141671 22.6154 -0.0141671 21.9084 0.128061C20.3414 0.442149 19.0394 1.25996 17.9201 2.41557C17.4075 2.94892 16.9363 3.51784 16.4414 4.06897C16.3118 4.21713 16.1645 4.34158 15.9996 4.50158C15.7698 4.25269 15.5695 4.03934 15.3692 3.82007C14.839 3.24523 14.3441 2.64076 13.7786 2.10148C12.5768 0.945875 11.1688 0.216954 9.51925 0.0450948C8.91834 -0.0200933 8.31744 -0.0260195 7.70476 0.104357C11.0451 1.01106 13.2307 3.3045 14.8095 6.34463C14.7271 6.51056 14.6564 6.64686 14.5916 6.77724C14.0672 7.8084 13.5547 8.84548 13.1777 9.94182C12.7182 11.2871 12.2822 12.6323 11.8345 13.9776C11.7815 14.1376 11.7108 14.2976 11.6165 14.5405C11.5517 14.3272 11.5164 14.2146 11.481 14.0961C11.0215 12.5197 10.4324 10.9908 9.63118 9.56847C8.8123 8.11656 7.79312 6.86021 6.41458 5.94757C5.41308 5.28384 4.335 4.89864 3.13319 4.9342C1.10662 4.99938 -0.189437 6.54019 0.0226461 8.63213C0.146361 9.85885 1.03593 10.9019 2.1965 11.1567C2.99181 11.3345 3.71642 11.1804 4.32321 10.5937C4.38212 10.5344 4.42336 10.4574 4.49406 10.3567C4.22306 10.3567 3.9992 10.3685 3.77533 10.3567C3.1921 10.3152 2.66779 10.1315 2.24952 9.68107C1.3894 8.75066 1.71931 7.41727 2.90933 7.05577C3.78711 6.78909 4.57654 7.01429 5.28937 7.57135C6.01988 8.14026 6.56186 8.88103 7.02138 9.687C8.31155 11.9745 9.2129 14.422 9.69598 17.0295C9.78435 17.4977 9.89039 17.9659 9.99054 18.434C10.1378 19.1215 10.4854 19.6548 11.0392 20.0637C11.7167 20.5675 12.3647 21.1068 13.0245 21.6283C13.0893 21.6816 13.16 21.729 13.2602 21.7942C13.2837 21.6697 13.3073 21.5927 13.3191 21.5157C13.4781 20.2356 13.6372 18.9615 13.7845 17.6814C13.9789 15.9806 14.2027 14.2798 14.5798 12.6145C14.839 11.4945 15.1571 10.3922 15.6873 9.37291C15.7934 9.17142 15.9171 8.98771 16.0702 8.73288C16.247 9.03512 16.406 9.27216 16.5357 9.52106C16.9598 10.3329 17.2662 11.1922 17.5077 12.0752C18.3325 15.0917 18.68 18.1674 18.6388 21.3023C18.6388 21.4564 18.6388 21.6164 18.6388 21.7705C18.7095 21.7646 18.739 21.7705 18.7625 21.7586C19.6344 21.1897 20.4886 20.5971 21.225 19.8445C21.7376 19.323 22.0616 18.6889 22.1735 17.9422C22.2855 17.2251 22.3856 16.508 22.527 15.7969C22.8923 13.9835 23.5933 12.3004 24.3945 10.6589C24.7833 9.85885 25.2016 9.08253 25.7789 8.41879C26.1206 8.02766 26.5035 7.66024 26.9159 7.34615C27.4579 6.93132 28.0883 6.8128 28.754 6.90169C29.5139 7.00243 30.0618 7.47653 30.1855 8.16989C30.2857 8.74473 30.0913 9.22475 29.7143 9.62773C29.2842 10.084 28.7363 10.2559 28.1413 10.2855C27.9351 10.2915 27.7348 10.2855 27.4697 10.2855V10.2796Z" fill="url(#paint2_linear_316_3304)"/>
<defs>
<linearGradient id="paint0_linear_316_3304" x1="-0.260298" y1="51.8751" x2="20.0069" y2="31.7335" gradientUnits="userSpaceOnUse">
<stop stop-color="#A3803F"/>
<stop offset="0.2" stop-color="#D1A451"/>
<stop offset="0.43" stop-color="#FFF3DB"/>
<stop offset="0.54" stop-color="#FFD587"/>
<stop offset="0.79" stop-color="#D19830"/>
<stop offset="1" stop-color="#7D5D20"/>
</linearGradient>
<linearGradient id="paint1_linear_316_3304" x1="31.7409" y1="51.8732" x2="11.4737" y2="31.7316" gradientUnits="userSpaceOnUse">
<stop stop-color="#A3803F"/>
<stop offset="0.2" stop-color="#D1A451"/>
<stop offset="0.43" stop-color="#FFF3DB"/>
<stop offset="0.54" stop-color="#FFD587"/>
<stop offset="0.79" stop-color="#D19830"/>
<stop offset="1" stop-color="#7D5D20"/>
</linearGradient>
<linearGradient id="paint2_linear_316_3304" x1="-0.000918702" y1="10.8959" x2="31.9941" y2="10.8959" gradientUnits="userSpaceOnUse">
<stop stop-color="#A3803F"/>
<stop offset="0.2" stop-color="#D1A451"/>
<stop offset="0.43" stop-color="#FFF3DB"/>
<stop offset="0.54" stop-color="#FFD587"/>
<stop offset="0.79" stop-color="#D19830"/>
<stop offset="1" stop-color="#7D5D20"/>
</linearGradient>
</defs>
</svg>
