<svg width="56" height="96" viewBox="0 0 56 96" fill="none" xmlns="http://www.w3.org/2000/svg">
<path d="M7.33031 95.2186V94.5486C8.44031 94.3686 9.48031 94.0786 10.4403 93.6786C11.4003 93.2786 12.2103 92.6986 12.8803 91.9386C13.1003 91.6686 13.2703 91.2886 13.3803 90.7986C13.4903 90.3086 13.5803 89.7286 13.6503 89.0586C13.7203 88.3886 13.7603 87.6886 13.7803 86.9486C13.8003 86.2086 13.8103 85.4886 13.8103 84.7786C13.8103 84.1586 13.8203 83.3086 13.8403 82.2386C13.8603 81.1686 13.8803 79.9986 13.9103 78.7286C13.9303 77.4586 13.9403 76.1486 13.9403 74.8186V55.4786C13.9403 54.6786 13.9103 53.9286 13.8403 53.2386C13.7703 52.5486 13.6703 51.9186 13.5403 51.3686C13.4103 50.8086 13.2103 50.3786 12.9403 50.0686C12.3103 49.3086 11.5503 48.7686 10.6303 48.4286C9.72031 48.0986 8.68031 47.8586 7.52031 47.7286V47.0586H27.5303V47.7286C26.5903 47.8586 25.5903 48.1086 24.5203 48.4686C23.4503 48.8286 22.6203 49.5386 22.0403 50.6086C21.6403 51.3686 21.4303 52.3286 21.4003 53.4886C21.3803 54.6486 21.3403 55.7386 21.3003 56.7686C21.3003 57.8886 21.2903 58.9886 21.2703 60.0786C21.2503 61.1686 21.2403 62.2786 21.2403 63.3886V85.8086C21.2403 87.0986 21.2603 88.3486 21.3103 89.5586C21.3503 90.7586 21.5603 91.6086 21.9103 92.0986C22.4503 92.8586 23.2903 93.4386 24.4503 93.8386C25.6103 94.2386 26.6603 94.4886 27.6003 94.5786V95.2486H7.32031L7.33031 95.2186Z" fill="url(#paint0_linear_415_3690)"/>
<path d="M27.5178 95.2191V94.5491C28.4578 94.4591 29.5078 94.2191 30.6678 93.8091C31.8278 93.4091 32.6778 92.8291 33.2078 92.0691C33.5678 91.5791 33.7678 90.7291 33.8078 89.5291C33.8478 88.3291 33.8778 87.0791 33.8778 85.7791V70.6591C33.8778 69.2791 33.8778 68.0091 33.8778 66.8491V63.3691C33.8778 62.2591 33.8678 61.1491 33.8478 60.0591C33.8278 58.9691 33.8178 57.8591 33.8178 56.7491C33.7778 55.7191 33.7378 54.6291 33.7178 53.4691C33.6978 52.3091 33.4878 51.3491 33.0778 50.5891C32.4978 49.5191 31.6678 48.8091 30.5978 48.4491C29.5278 48.0891 28.5278 47.8491 27.5878 47.7091V47.0391H47.5978V47.7091C46.4378 47.8391 45.3978 48.0791 44.4878 48.4091C43.5778 48.7391 42.8078 49.2891 42.1778 50.0491C41.9078 50.3591 41.7078 50.7991 41.5778 51.3491C41.4478 51.9091 41.3478 52.5291 41.2778 53.2191C41.2078 53.9091 41.1778 54.6591 41.1778 55.4591V57.8691V70.9191V74.7991C41.1778 76.1391 41.1878 77.4391 41.2078 78.7091C41.2278 79.9791 41.2478 81.1491 41.2778 82.2191C41.2978 83.2891 41.3078 84.1391 41.3078 84.7591C41.3078 85.4691 41.3178 86.1991 41.3378 86.9291C41.3578 87.6691 41.4078 88.3691 41.4678 89.0391C41.5278 89.7091 41.6278 90.2891 41.7378 90.7791C41.8478 91.2691 42.0178 91.6491 42.2378 91.9191C42.9078 92.6791 43.7178 93.2591 44.6778 93.6591C45.6378 94.0591 46.6778 94.3491 47.7878 94.5291V95.1991H27.5078L27.5178 95.2191Z" fill="url(#paint1_linear_415_3690)"/>
<path d="M47.4683 18.098C48.0683 18.898 48.7683 19.308 49.5983 19.478C51.1383 19.788 52.4783 19.308 53.6183 18.238C54.8783 17.058 55.2783 15.538 55.1283 13.828C54.9883 12.208 54.2983 10.918 52.9983 9.99805C52.0083 9.28805 50.8983 8.98805 49.7083 8.95805C47.5983 8.90805 45.7183 9.64805 43.9883 10.838C41.9183 12.268 40.3383 14.168 39.0383 16.328C37.4883 18.908 36.4583 21.708 35.6783 24.618C35.6383 24.778 35.5583 24.938 35.4483 25.238C34.2283 20.358 32.4383 15.888 30.1283 11.588C32.8483 6.52805 36.4483 2.53805 42.1683 0.928047C41.9283 0.868047 41.7783 0.808047 41.6383 0.798047C40.4283 0.728047 39.2283 0.728047 38.0283 0.968047C35.3683 1.49805 33.1583 2.87805 31.2583 4.82805C30.3883 5.72805 29.5883 6.68805 28.7483 7.61805C28.5283 7.86805 28.2783 8.07805 27.9983 8.34805C27.6083 7.92805 27.2683 7.56805 26.9283 7.19805C26.0283 6.22805 25.1883 5.20805 24.2283 4.29805C22.1883 2.34805 19.7983 1.11805 16.9983 0.828047C15.9783 0.718047 14.9583 0.708047 13.9183 0.928047C19.5883 2.45805 23.2983 6.32805 25.9783 11.458C25.8383 11.738 25.7183 11.968 25.6083 12.188C24.7183 13.928 23.8483 15.678 23.2083 17.528C22.4283 19.798 21.6883 22.068 20.9283 24.338C20.8383 24.608 20.7183 24.878 20.5583 25.288C20.4483 24.928 20.3883 24.738 20.3283 24.538C19.5483 21.878 18.5483 19.298 17.1883 16.898C15.7983 14.448 14.0683 12.328 11.7283 10.788C10.0283 9.66805 8.19828 9.01805 6.15828 9.07805C2.71828 9.18805 0.518284 11.788 0.878284 15.318C1.08828 17.388 2.59829 19.148 4.56829 19.578C5.91829 19.878 7.14827 19.618 8.17827 18.628C8.27827 18.528 8.34828 18.398 8.46828 18.228C8.00828 18.228 7.62828 18.248 7.24828 18.228C6.25828 18.158 5.36828 17.848 4.65828 17.088C3.19828 15.518 3.75828 13.268 5.77828 12.658C7.26828 12.208 8.60829 12.588 9.81829 13.528C11.0583 14.488 11.9783 15.738 12.7583 17.098C14.9483 20.958 16.4783 25.088 17.2983 29.488C17.4483 30.278 17.6283 31.068 17.7983 31.858C18.0483 33.018 18.6383 33.918 19.5783 34.608C20.7283 35.458 21.8283 36.368 22.9483 37.248C23.0583 37.338 23.1783 37.418 23.3483 37.528C23.3883 37.318 23.4283 37.188 23.4483 37.058C23.7183 34.898 23.9883 32.748 24.2383 30.588C24.5683 27.718 24.9483 24.848 25.5883 22.038C26.0283 20.148 26.5683 18.288 27.4683 16.568C27.6483 16.228 27.8583 15.918 28.1183 15.488C28.4183 15.998 28.6883 16.398 28.9083 16.818C29.6283 18.188 30.1483 19.638 30.5583 21.128C31.9583 26.218 32.5483 31.408 32.4783 36.698C32.4783 36.958 32.4783 37.228 32.4783 37.488C32.5983 37.478 32.6483 37.488 32.6883 37.468C34.1683 36.508 35.6183 35.508 36.8683 34.238C37.7383 33.358 38.2883 32.288 38.4783 31.028C38.6683 29.818 38.8383 28.608 39.0783 27.408C39.6983 24.348 40.8883 21.508 42.2483 18.738C42.9083 17.388 43.6183 16.078 44.5983 14.958C45.1783 14.298 45.8283 13.678 46.5283 13.148C47.4483 12.448 48.5183 12.248 49.6483 12.398C50.9383 12.568 51.8683 13.368 52.0783 14.538C52.2483 15.508 51.9183 16.318 51.2783 16.998C50.5483 17.768 49.6183 18.058 48.6083 18.108C48.2583 18.118 47.9183 18.108 47.4683 18.108V18.098Z" fill="url(#paint2_linear_415_3690)"/>
<defs>
<linearGradient id="paint0_linear_415_3690" x1="0.400313" y1="88.2886" x2="34.6003" y2="54.0986" gradientUnits="userSpaceOnUse">
<stop stop-color="#A3803F"/>
<stop offset="0.2" stop-color="#D1A451"/>
<stop offset="0.43" stop-color="#FFF3DB"/>
<stop offset="0.54" stop-color="#FFD587"/>
<stop offset="0.79" stop-color="#D19830"/>
<stop offset="1" stop-color="#7D5D20"/>
</linearGradient>
<linearGradient id="paint1_linear_415_3690" x1="54.7178" y1="88.2891" x2="20.5178" y2="54.0991" gradientUnits="userSpaceOnUse">
<stop stop-color="#A3803F"/>
<stop offset="0.2" stop-color="#D1A451"/>
<stop offset="0.43" stop-color="#FFF3DB"/>
<stop offset="0.54" stop-color="#FFD587"/>
<stop offset="0.79" stop-color="#D19830"/>
<stop offset="1" stop-color="#7D5D20"/>
</linearGradient>
<linearGradient id="paint2_linear_415_3690" x1="0.838284" y1="19.138" x2="55.1483" y2="19.138" gradientUnits="userSpaceOnUse">
<stop stop-color="#A3803F"/>
<stop offset="0.2" stop-color="#D1A451"/>
<stop offset="0.43" stop-color="#FFF3DB"/>
<stop offset="0.54" stop-color="#FFD587"/>
<stop offset="0.79" stop-color="#D19830"/>
<stop offset="1" stop-color="#7D5D20"/>
</linearGradient>
</defs>
</svg>
