<svg width="157" height="104" viewBox="0 0 157 104" fill="none" xmlns="http://www.w3.org/2000/svg">
<path opacity="0.1" d="M128.692 0.902934C137.201 0.902933 144.291 4.16463 149.964 10.688C155.353 17.495 157.338 26.9965 155.92 39.1924C153.935 57.9117 147.128 73.2275 135.499 85.1398C123.587 97.3357 108.838 103.434 91.2535 103.434C85.581 103.434 81.4684 103.008 78.9157 102.157L82.3193 85.1398C85.4391 85.707 89.8353 85.9906 95.5079 85.9906C100.897 85.9906 106.002 84.7143 110.824 82.1617C115.362 79.609 118.907 76.2055 121.46 71.9512C126.848 65.7114 130.252 58.6207 131.67 50.6792C127.416 54.9336 121.743 57.0608 114.653 57.0608C107.562 57.0608 101.889 54.9336 97.635 50.6792C93.3807 46.4248 91.6789 40.6105 92.5298 33.2362C93.3807 24.1602 97.3514 16.5024 104.442 10.2626C111.249 4.02282 119.332 0.902934 128.692 0.902934ZM50.4114 0.90294C58.9201 0.90294 66.0108 4.16463 71.6833 10.688C77.0722 17.495 79.0576 26.9965 77.6394 39.1924C75.6541 57.9117 68.847 73.2275 57.2184 85.1398C45.3061 97.3357 30.5576 103.434 12.9728 103.434C7.30029 103.434 3.18773 103.008 0.635086 102.157L4.03857 85.1398C7.15848 85.707 11.5547 85.9906 17.2272 85.9906C22.6161 85.9906 27.7213 84.7143 32.543 82.1617C37.081 79.609 40.6263 76.2055 43.1789 71.9512C48.5678 65.7114 51.9713 58.6207 53.3894 50.6792C49.1351 54.9336 43.4625 57.0608 36.3719 57.0608C29.2813 57.0608 23.6088 54.9336 19.3544 50.6792C15.1 46.4249 13.3982 40.6105 14.2491 33.2363C15.1 24.1603 19.0707 16.5024 26.1614 10.2626C32.9684 4.02282 41.0517 0.902941 50.4114 0.90294Z" fill="#FAA634"/>
</svg>
