<svg width="72" height="72" viewBox="0 0 72 72" fill="none" xmlns="http://www.w3.org/2000/svg">
<path d="M41.1422 32.0737L40.9734 32.2087L40.8047 32.0737C40.9167 32.0587 41.0302 32.0587 41.1422 32.0737Z" fill="black"/>
<path d="M64.7333 16.3011C64.9178 16.1562 65.0524 15.9574 65.1186 15.7324C65.1847 15.5073 65.179 15.2673 65.1022 15.0456C65.0254 14.824 64.8814 14.6318 64.6903 14.4959C64.4991 14.36 64.2704 14.2871 64.0358 14.2873H30.3758C30.0484 11.6311 28.8298 9.16441 26.9192 7.2903C25.0086 5.41619 22.5188 4.24546 19.8568 3.96937C17.1947 3.69328 14.5177 4.32817 12.2632 5.7703C10.0086 7.21242 8.30977 9.37653 7.44423 11.909C6.57868 14.4416 6.5976 17.1927 7.4979 19.7131C8.39819 22.2335 10.1266 24.374 12.4008 25.785C14.675 27.196 17.3605 27.794 20.0185 27.4813C22.6765 27.1686 25.1499 25.9638 27.0346 24.0636L27.7096 24.5923C27.761 24.6398 27.8176 24.6813 27.8783 24.7161L39.8483 34.1886V60.6148L29.1158 65.9248C28.8884 66.0375 28.7056 66.2237 28.5971 66.4532C28.4886 66.6826 28.4608 66.942 28.518 67.1893C28.5753 67.4366 28.7144 67.6573 28.9127 67.8158C29.111 67.9742 29.357 68.0611 29.6108 68.0623H52.3358C52.5896 68.0611 52.8356 67.9742 53.0339 67.8158C53.2322 67.6573 53.3713 67.4366 53.4286 67.1893C53.4858 66.942 53.458 66.6826 53.3495 66.4532C53.241 66.2237 53.0582 66.0375 52.8308 65.9248L42.0983 60.6036V34.1886L64.7333 16.3011ZM18.6533 25.3123C16.824 25.3145 15.0325 24.7919 13.4913 23.8066C11.95 22.8212 10.7238 21.4145 9.95793 19.7532C9.19208 18.092 8.91881 16.2459 9.17051 14.4341C9.42221 12.6222 10.1883 10.9205 11.378 9.53091C12.5677 8.14131 14.1309 7.12211 15.8824 6.59419C17.6338 6.06627 19.5 6.0518 21.2594 6.55249C23.0188 7.05318 24.5977 8.04802 25.8088 9.419C27.0199 10.79 27.8123 12.4796 28.0921 14.2873H17.9108C17.6777 14.2902 17.4512 14.3648 17.2622 14.5012C17.0731 14.6375 16.9307 14.8289 16.8544 15.0491C16.7782 15.2693 16.7717 15.5078 16.8359 15.7318C16.9001 15.9559 17.0319 16.1547 17.2133 16.3011L25.2571 22.6573C23.4848 24.3673 21.116 25.3197 18.6533 25.3123ZM27.6421 21.6673L27.6308 21.6561C27.6196 21.6448 27.6083 21.6448 27.5971 21.6336L21.1508 16.5373H60.7958L59.4233 17.6286C53.9225 17.6959 48.4554 18.498 43.1671 20.0136C38.4731 21.3046 33.6725 22.1706 28.8233 22.6011L27.6421 21.6673ZM47.5321 65.8123H34.4258L40.9733 62.5723L47.5321 65.8123ZM41.1421 32.0736L40.9733 32.2086L40.8046 32.0736L31.3658 24.6148C35.536 24.1057 39.6641 23.2973 43.7183 22.1961C47.8686 21.0255 52.1287 20.2866 56.4308 19.9911L41.1421 32.0736Z" fill="black"/>
<path d="M18.6504 11.8125C18.352 11.8125 18.0659 11.694 17.8549 11.483C17.6439 11.272 17.5254 10.9859 17.5254 10.6875V8.4375C17.5254 8.13913 17.6439 7.85298 17.8549 7.64201C18.0659 7.43103 18.352 7.3125 18.6504 7.3125C18.9488 7.3125 19.2349 7.43103 19.4459 7.64201C19.6569 7.85298 19.7754 8.13913 19.7754 8.4375V10.6875C19.7754 10.9859 19.6569 11.272 19.4459 11.483C19.2349 11.694 18.9488 11.8125 18.6504 11.8125Z" fill="black"/>
<path d="M15.119 13.2497C14.9689 13.2498 14.8202 13.2199 14.6819 13.1616C14.5436 13.1032 14.4184 13.0177 14.3137 12.9101L12.7426 11.2985C12.638 11.193 12.5552 11.0679 12.4992 10.9303C12.4431 10.7927 12.4149 10.6454 12.4161 10.4968C12.4172 10.3483 12.4478 10.2014 12.5061 10.0647C12.5644 9.92808 12.6491 9.8043 12.7555 9.70055C12.8618 9.59681 12.9877 9.51516 13.1257 9.46032C13.2638 9.40547 13.4114 9.37852 13.5599 9.38102C13.7085 9.38352 13.8551 9.41541 13.9912 9.47486C14.1274 9.53432 14.2504 9.62015 14.3532 9.72741L15.9243 11.3391C16.0788 11.4975 16.1832 11.698 16.2244 11.9154C16.2655 12.1329 16.2416 12.3577 16.1557 12.5616C16.0697 12.7656 15.9255 12.9396 15.7411 13.062C15.5567 13.1844 15.3403 13.2497 15.119 13.2497Z" fill="black"/>
<path d="M22.1842 13.2488C21.9629 13.2489 21.7464 13.1838 21.562 13.0615C21.3775 12.9392 21.2333 12.7653 21.1472 12.5614C21.0611 12.3575 21.0371 12.1328 21.0781 11.9153C21.1191 11.6978 21.2233 11.4973 21.3778 11.3388L22.9477 9.72712C23.1559 9.51325 23.4405 9.39084 23.7389 9.38682C24.0374 9.3828 24.3252 9.4975 24.5391 9.70569C24.7529 9.91387 24.8754 10.1985 24.8794 10.4969C24.8834 10.7954 24.7687 11.0832 24.5605 11.2971L22.9905 12.9087C22.8856 13.0164 22.7603 13.102 22.6218 13.1605C22.4833 13.2189 22.3345 13.2489 22.1842 13.2488Z" fill="black"/>
<path d="M13.5488 22.1124C13.3275 22.1124 13.1111 22.0471 12.9267 21.9247C12.7423 21.8023 12.5981 21.6283 12.5121 21.4243C12.4262 21.2204 12.4023 20.9956 12.4435 20.7782C12.4846 20.5607 12.589 20.3602 12.7435 20.2018L14.3146 18.5907C14.4174 18.4834 14.5404 18.3976 14.6766 18.3381C14.8128 18.2787 14.9593 18.2468 15.1079 18.2443C15.2564 18.2418 15.404 18.2688 15.5421 18.3236C15.6802 18.3784 15.806 18.4601 15.9124 18.5638C16.0187 18.6676 16.1035 18.7914 16.1617 18.928C16.22 19.0647 16.2506 19.2116 16.2518 19.3601C16.2529 19.5087 16.2247 19.656 16.1686 19.7936C16.1126 19.9312 16.0298 20.0563 15.9252 20.1618L14.3541 21.7729C14.2494 21.8804 14.1241 21.9658 13.9858 22.0241C13.8475 22.0824 13.6989 22.1125 13.5488 22.1124Z" fill="black"/>
<path d="M13.5879 16.875H11.3379C11.0395 16.875 10.7534 16.7565 10.5424 16.5455C10.3314 16.3345 10.2129 16.0484 10.2129 15.75C10.2129 15.4516 10.3314 15.1655 10.5424 14.9545C10.7534 14.7435 11.0395 14.625 11.3379 14.625H13.5879C13.8863 14.625 14.1724 14.7435 14.3834 14.9545C14.5944 15.1655 14.7129 15.4516 14.7129 15.75C14.7129 16.0484 14.5944 16.3345 14.3834 16.5455C14.1724 16.7565 13.8863 16.875 13.5879 16.875Z" fill="black"/>
<path d="M18.6484 24.1855C18.3501 24.1855 18.0639 24.067 17.8529 23.856C17.642 23.6451 17.5234 23.3589 17.5234 23.0605V20.8105C17.5234 20.5122 17.642 20.226 17.8529 20.0151C18.0639 19.8041 18.3501 19.6855 18.6484 19.6855C18.9468 19.6855 19.233 19.8041 19.4439 20.0151C19.6549 20.226 19.7734 20.5122 19.7734 20.8105V23.0605C19.7734 23.3589 19.6549 23.6451 19.4439 23.856C19.233 24.067 18.9468 24.1855 18.6484 24.1855Z" fill="black"/>
</svg>
