<svg width="73" height="72" viewBox="0 0 73 72" fill="none" xmlns="http://www.w3.org/2000/svg">
<path d="M36.4995 52.2495C35.533 52.2495 34.7495 53.033 34.7495 53.9995C34.7495 54.966 35.533 55.7495 36.4995 55.7495V52.2495ZM36.5295 55.7495C37.496 55.7495 38.2795 54.966 38.2795 53.9995C38.2795 53.033 37.496 52.2495 36.5295 52.2495V55.7495ZM26.7779 44.2783C26.0944 44.9616 26.0942 46.0696 26.7775 46.7531C27.4608 47.4366 28.5689 47.4368 29.2524 46.7535L26.7779 44.2783ZM43.7459 46.7535C44.4294 47.4368 45.5374 47.4366 46.2208 46.7531C46.9041 46.0696 46.9039 44.9616 46.2204 44.2783L43.7459 46.7535ZM18.2904 35.7905C17.607 36.474 17.607 37.582 18.2904 38.2654C18.9739 38.9488 20.0819 38.9488 20.7653 38.2653L18.2904 35.7905ZM52.2324 38.2653C52.9158 38.9488 54.0238 38.9488 54.7072 38.2654C55.3907 37.582 55.3907 36.474 54.7073 35.7905L52.2324 38.2653ZM9.80735 27.3065C9.12401 27.99 9.12413 29.098 9.80762 29.7814C10.4911 30.4647 11.5991 30.4646 12.2825 29.7811L9.80735 27.3065ZM60.8113 29.785C61.4968 30.4663 62.6049 30.4629 63.2862 29.7774C63.9675 29.0919 63.9641 27.9839 63.2785 27.3025L60.8113 29.785ZM36.4995 55.7495H36.5295V52.2495H36.4995V55.7495ZM29.2524 46.7535C31.1745 44.8319 33.7812 43.7524 36.4991 43.7524V40.2524C32.8531 40.2524 29.3564 41.7005 26.7779 44.2783L29.2524 46.7535ZM36.4991 43.7524C39.2171 43.7524 41.8237 44.8319 43.7459 46.7535L46.2204 44.2783C43.6419 41.7005 40.1451 40.2524 36.4991 40.2524V43.7524ZM20.7653 38.2653C22.8314 36.1991 25.2843 34.5601 27.9839 33.4418L26.6444 30.2083C23.5202 31.5024 20.6815 33.3993 18.2904 35.7905L20.7653 38.2653ZM27.9839 33.4418C30.6834 32.3236 33.5768 31.748 36.4988 31.748V28.248C33.1172 28.248 29.7686 28.9141 26.6444 30.2083L27.9839 33.4418ZM36.4988 31.748C39.4208 31.748 42.3142 32.3236 45.0138 33.4418L46.3532 30.2083C43.229 28.9141 39.8805 28.248 36.4988 28.248V31.748ZM45.0138 33.4418C47.7134 34.5601 50.1662 36.1991 52.2324 38.2653L54.7073 35.7905C52.3162 33.3993 49.4775 31.5024 46.3532 30.2083L45.0138 33.4418ZM12.2825 29.7811C25.6549 16.4059 47.3437 16.4002 60.8113 29.785L63.2785 27.3025C48.4502 12.5654 24.551 12.5597 9.80735 27.3065L12.2825 29.7811Z" fill="black"/>
</svg>
