<svg width="72" height="72" viewBox="0 0 72 72" fill="none" xmlns="http://www.w3.org/2000/svg">
<path d="M21 9V7.5V9ZM51 9V7.5V9ZM15 57H13.5H15ZM15 28.5C14.1716 28.5 13.5 29.1716 13.5 30C13.5 30.8284 14.1716 31.5 15 31.5V28.5ZM57 31.5C57.8284 31.5 58.5 30.8284 58.5 30C58.5 29.1716 57.8284 28.5 57 28.5V31.5ZM28.5 39C28.5 38.1716 27.8284 37.5 27 37.5C26.1716 37.5 25.5 38.1716 25.5 39H28.5ZM25.5 48C25.5 48.8284 26.1716 49.5 27 49.5C27.8284 49.5 28.5 48.8284 28.5 48H25.5ZM28.5 18C28.5 17.1716 27.8284 16.5 27 16.5C26.1716 16.5 25.5 17.1716 25.5 18H28.5ZM25.5 21C25.5 21.8284 26.1716 22.5 27 22.5C27.8284 22.5 28.5 21.8284 28.5 21H25.5ZM16.5 15C16.5 13.8065 16.9741 12.6619 17.818 11.818L15.6967 9.6967C14.2902 11.1032 13.5 13.0109 13.5 15H16.5ZM17.818 11.818C18.6619 10.9741 19.8065 10.5 21 10.5V7.5C19.0109 7.5 17.1032 8.29018 15.6967 9.6967L17.818 11.818ZM21 10.5H51V7.5H21V10.5ZM51 10.5C52.1935 10.5 53.3381 10.9741 54.182 11.818L56.3033 9.6967C54.8968 8.29018 52.9891 7.5 51 7.5V10.5ZM54.182 11.818C55.0259 12.6619 55.5 13.8065 55.5 15H58.5C58.5 13.0109 57.7098 11.1032 56.3033 9.6967L54.182 11.818ZM55.5 15V57H58.5V15H55.5ZM55.5 57C55.5 58.1935 55.0259 59.3381 54.182 60.182L56.3033 62.3033C57.7098 60.8968 58.5 58.9891 58.5 57H55.5ZM54.182 60.182C53.3381 61.0259 52.1935 61.5 51 61.5V64.5C52.9891 64.5 54.8968 63.7098 56.3033 62.3033L54.182 60.182ZM51 61.5H21V64.5H51V61.5ZM21 61.5C19.8065 61.5 18.6619 61.0259 17.818 60.182L15.6967 62.3033C17.1032 63.7098 19.0109 64.5 21 64.5V61.5ZM17.818 60.182C16.9741 59.3381 16.5 58.1935 16.5 57H13.5C13.5 58.9891 14.2902 60.8968 15.6967 62.3033L17.818 60.182ZM16.5 57V15H13.5V57H16.5ZM15 31.5H57V28.5H15V31.5ZM25.5 39V48H28.5V39H25.5ZM25.5 18V21H28.5V18H25.5Z" fill="black"/>
</svg>
