<svg width="24" height="24" viewBox="0 0 24 24" fill="none" xmlns="http://www.w3.org/2000/svg">
<rect width="24" height="24" rx="12" fill="white"/>
<path fill-rule="evenodd" clip-rule="evenodd" d="M6 12C6 9.60324 6 8.40486 6.57113 7.5417C6.82616 7.15626 7.15626 6.82616 7.5417 6.57113C8.40486 6 9.60324 6 12 6C14.3968 6 15.5951 6 16.4583 6.57113C16.8437 6.82616 17.1738 7.15626 17.4289 7.5417C18 8.40486 18 9.60324 18 12C18 14.3968 18 15.5951 17.4289 16.4583C17.1738 16.8437 16.8437 17.1738 16.4583 17.4289C15.5951 18 14.3968 18 12 18C9.60324 18 8.40486 18 7.5417 17.4289C7.15626 17.1738 6.82616 16.8437 6.57113 16.4583C6 15.5951 6 14.3968 6 12ZM15.1061 12.0008C15.1061 13.7164 13.7154 15.1071 11.9998 15.1071C10.2843 15.1071 8.89355 13.7164 8.89355 12.0008C8.89355 10.2853 10.2843 8.89453 11.9998 8.89453C13.7154 8.89453 15.1061 10.2853 15.1061 12.0008ZM11.9998 14.0561C13.135 14.0561 14.0552 13.1359 14.0552 12.0008C14.0552 10.8657 13.135 9.94547 11.9998 9.94547C10.8647 9.94547 9.94449 10.8657 9.94449 12.0008C9.94449 13.1359 10.8647 14.0561 11.9998 14.0561ZM15.2288 9.46758C15.6319 9.46758 15.9586 9.1408 15.9586 8.73769C15.9586 8.33459 15.6319 8.00781 15.2288 8.00781C14.8257 8.00781 14.4989 8.33459 14.4989 8.73769C14.4989 9.1408 14.8257 9.46758 15.2288 9.46758Z" fill="#AF8C3E"/>
</svg>
