<svg width="24" height="24" viewBox="0 0 24 24" fill="none" xmlns="http://www.w3.org/2000/svg">
<rect width="24" height="24" rx="12" fill="white"/>
<path d="M17.1422 8.63595C15.8826 8.63595 14.8578 7.61116 14.8578 6.35156C14.8578 6.15741 14.7004 6 14.5063 6H12.6235C12.4293 6 12.2719 6.15741 12.2719 6.35156V14.0711C12.2719 14.8116 11.6694 15.414 10.9289 15.414C10.1884 15.414 9.58595 14.8116 9.58595 14.0711C9.58595 13.3306 10.1884 12.7281 10.9289 12.7281C11.1231 12.7281 11.2805 12.5707 11.2805 12.3765V10.4937C11.2805 10.2996 11.1231 10.1422 10.9289 10.1422C8.7625 10.1422 7 11.9047 7 14.0711C7.00002 16.2375 8.7625 18 10.9289 18C13.0953 18 14.8579 16.2375 14.8579 14.0711V10.6541C15.5576 11.0272 16.3361 11.2219 17.1422 11.2219C17.3364 11.2219 17.4938 11.0645 17.4938 10.8703V8.98751C17.4937 8.79335 17.3363 8.63595 17.1422 8.63595Z" fill="#AF8C3E"/>
</svg>
