<svg width="24" height="24" viewBox="0 0 24 24" fill="none" xmlns="http://www.w3.org/2000/svg">
<rect width="24" height="24" rx="12" fill="white"/>
<path d="M4.00307 12.0064C3.90516 9.42853 6.16313 7.04628 8.74358 7.01538C10.0588 6.9032 11.3383 7.41393 12.3336 8.24692C11.9253 8.69583 11.5099 9.13956 11.0662 9.55497C10.19 9.02263 9.135 8.61694 8.11095 8.97724C6.45924 9.44755 5.45896 11.3977 6.07019 13.0136C6.57638 14.7012 8.62902 15.6273 10.2377 14.9184C11.0707 14.6201 11.6199 13.8515 11.8609 13.0257C10.9062 13.0067 9.95134 13.0185 8.99667 12.9922C8.99429 12.4242 8.99192 11.8583 8.99429 11.2903C10.5863 11.2879 12.1808 11.2832 13.7752 11.2975C13.8731 12.6892 13.6678 14.1785 12.7631 15.2955C11.5242 16.89 9.23528 17.3579 7.37327 16.7324C5.39715 16.0834 3.96006 14.0925 4.00307 12.0064ZM16.8785 9.85799H18.2985C18.3011 10.3331 18.3056 10.8105 18.3082 11.2854C18.7831 11.2901 19.2605 11.2925 19.7356 11.2949V12.7175L18.3082 12.7246C18.3035 13.202 18.3011 13.6769 18.2985 14.1543C17.8237 14.152 17.3484 14.1543 16.8759 14.1543C16.8714 13.6769 16.8714 13.202 16.8664 12.727C16.3915 12.722 15.9141 12.7198 15.439 12.7173V11.2946C15.9141 11.2923 16.3892 11.2899 16.8664 11.2851C16.8688 10.8105 16.8735 10.3331 16.8785 9.85799Z" fill="#AF8C3E"/>
</svg>
