<svg width="174" height="521" viewBox="0 0 174 521" fill="none" xmlns="http://www.w3.org/2000/svg">
<g opacity="0.1">
<path d="M-81.7435 520.835V517.141C-75.8172 516.148 -70.2645 514.549 -65.1391 512.344C-60.0136 510.138 -55.6889 506.941 -52.1117 502.75C-50.9372 501.262 -50.0295 499.166 -49.4422 496.465C-48.8549 493.763 -48.3745 490.565 -48.0007 486.871C-47.627 483.177 -47.4134 479.318 -47.3066 475.238C-47.1998 471.158 -47.1465 467.188 -47.1465 463.273C-47.1465 459.855 -47.0931 455.168 -46.9863 449.269C-46.8795 443.369 -46.7727 436.919 -46.6125 429.916C-46.5057 422.914 -46.4524 415.692 -46.4524 408.359V301.727C-46.4524 297.316 -46.6126 293.181 -46.9863 289.376C-47.36 285.572 -47.894 282.099 -48.588 279.066C-49.2821 275.979 -50.3499 273.608 -51.7914 271.898C-55.155 267.708 -59.2127 264.731 -64.1246 262.856C-68.9832 261.037 -74.5358 259.714 -80.7291 258.997V255.303H26.1054V258.997C21.0867 259.714 15.7476 261.092 10.0349 263.077C4.32206 265.062 -0.109413 268.976 -3.20607 274.876C-5.34169 279.066 -6.46288 284.359 -6.62305 290.755C-6.72984 297.15 -6.94335 303.16 -7.15691 308.839C-7.15691 315.014 -7.2103 321.079 -7.31708 327.089C-7.42386 333.099 -7.47724 339.219 -7.47724 345.339V468.952C-7.47724 476.065 -7.37051 482.957 -7.10355 489.628C-6.88999 496.244 -5.76876 500.931 -3.90009 503.632C-1.017 507.823 3.46777 511.021 9.66107 513.226C15.8544 515.431 21.4604 516.81 26.4791 517.306V521H-81.7969L-81.7435 520.835Z" fill="#AF8C3E"/>
<path d="M26.0495 520.838V517.143C31.0682 516.647 36.6742 515.324 42.8675 513.063C49.0608 510.858 53.5991 507.66 56.4288 503.47C58.3508 500.768 59.4186 496.082 59.6322 489.465C59.8457 482.849 60.0059 475.957 60.0059 468.79V385.425C60.0059 377.816 60.0059 370.814 60.0059 364.418V345.231C60.0059 339.111 59.9525 332.991 59.8458 326.982C59.739 320.972 59.6856 314.852 59.6856 308.732C59.472 303.053 59.2584 297.043 59.1517 290.647C59.0449 284.252 57.9237 278.959 55.7347 274.768C52.638 268.869 48.2066 264.954 42.4938 262.969C36.781 260.985 31.4419 259.661 26.4232 258.889V255.195H133.258V258.889C127.064 259.606 121.512 260.929 116.653 262.749C111.795 264.568 107.684 267.601 104.32 271.791C102.878 273.5 101.811 275.926 101.117 278.959C100.423 282.046 99.8886 285.465 99.5149 289.269C99.1412 293.073 98.981 297.208 98.981 301.619V314.907V386.859V408.251C98.981 415.639 99.0344 422.807 99.1412 429.809C99.248 436.811 99.3547 443.262 99.5149 449.162C99.6217 455.061 99.6751 459.747 99.6751 463.166C99.6751 467.081 99.7284 471.105 99.8352 475.13C99.942 479.21 100.209 483.07 100.529 486.764C100.85 490.458 101.384 493.656 101.971 496.357C102.558 499.059 103.466 501.154 104.64 502.643C108.218 506.833 112.542 510.031 117.668 512.236C122.793 514.442 128.346 516.041 134.272 517.033V520.727H25.9961L26.0495 520.838Z" fill="#AF8C3E"/>
<path d="M132.565 95.6383C135.768 100.049 139.506 102.31 143.937 103.247C152.159 104.956 159.314 102.31 165.4 96.4102C172.127 89.9043 174.263 81.5237 173.462 72.0955C172.715 63.1636 169.031 56.0511 162.09 50.9787C156.804 47.0641 150.878 45.41 144.525 45.2446C133.259 44.9689 123.222 49.049 113.985 55.6101C102.933 63.4944 94.4975 73.9701 87.5568 85.8794C79.2812 100.104 73.782 115.542 69.6176 131.587C69.404 132.469 68.9769 133.351 68.3896 135.005C61.8759 108.099 52.3191 83.4534 39.9859 59.7452C54.5081 31.8467 73.7287 9.8477 104.268 0.970901C102.987 0.640089 102.186 0.309277 101.438 0.254142C94.9781 -0.131806 88.5712 -0.131806 82.1644 1.19144C67.9625 4.11362 56.1631 11.7223 46.0189 22.4737C41.374 27.4359 37.1028 32.7289 32.618 37.8565C31.4433 39.2349 30.1086 40.3927 28.6136 41.8813C26.5314 39.5657 24.7161 37.5808 22.9008 35.5408C18.0957 30.1926 13.6109 24.5688 8.4854 19.5515C-2.40628 8.80012 -15.1666 2.01847 -30.116 0.419548C-35.5618 -0.186941 -41.0076 -0.242077 -46.5602 0.970901C-16.2878 9.40661 3.52007 30.744 17.8287 59.0285C17.0813 60.5722 16.4406 61.8404 15.8533 63.0533C11.1016 72.6469 6.45661 82.2956 3.03962 92.4956C-1.12485 105.011 -5.07582 117.527 -9.1335 130.043C-9.61401 131.531 -10.2547 133.02 -11.1089 135.281C-11.6962 133.296 -12.0165 132.248 -12.3369 131.146C-16.5014 116.479 -21.8404 102.255 -29.1015 89.0221C-36.5228 75.5139 -45.7594 63.8252 -58.2528 55.3344C-67.3292 49.1592 -77.0996 45.5754 -87.9913 45.9062C-106.358 46.5127 -118.104 60.8479 -116.181 80.3107C-115.06 91.7237 -106.998 101.428 -96.4804 103.798C-89.2726 105.452 -82.7057 104.019 -77.2064 98.5605C-76.6725 98.0092 -76.2988 97.2924 -75.6581 96.3551C-78.114 96.3551 -80.1429 96.4654 -82.1717 96.3551C-87.4574 95.9691 -92.2091 94.26 -95.9999 90.0697C-103.795 81.4134 -100.805 69.008 -90.0201 65.6447C-82.065 63.1636 -74.9106 65.2588 -68.4503 70.4415C-61.8299 75.7345 -56.918 82.6264 -52.7536 90.1248C-41.061 111.407 -32.8922 134.178 -28.5142 158.438C-27.7134 162.793 -26.7523 167.149 -25.8447 171.505C-24.5099 177.9 -21.3599 182.863 -16.3412 186.667C-10.2013 191.353 -4.32833 196.371 1.65141 201.223C2.23871 201.719 2.87944 202.16 3.78708 202.766C4.00064 201.609 4.21416 200.892 4.32094 200.175C5.76248 188.266 7.20407 176.412 8.53883 164.502C10.3007 148.679 12.3295 132.855 15.7465 117.362C18.0957 106.941 20.9788 96.6859 25.784 87.2026C26.745 85.328 27.8662 83.6188 29.2543 81.248C30.856 84.0599 32.2976 86.2653 33.4722 88.581C37.3163 96.1346 40.0926 104.129 42.2816 112.344C49.7563 140.408 52.9063 169.024 52.5326 198.19C52.5326 199.624 52.5326 201.112 52.5326 202.546C53.1733 202.491 53.4403 202.546 53.6538 202.436C61.5556 197.143 69.2972 191.629 75.971 184.627C80.616 179.775 83.5525 173.875 84.5669 166.928C85.5813 160.257 86.489 153.586 87.7704 146.969C91.0806 130.098 97.4341 114.439 104.695 99.167C108.219 91.7237 112.01 84.501 117.242 78.3258C120.339 74.6869 123.809 71.2685 127.546 68.3463C132.458 64.4869 138.171 63.3841 144.204 64.2112C151.092 65.1485 156.057 69.5593 157.178 76.0101C158.086 81.3583 156.324 85.8242 152.907 89.5734C149.009 93.8189 144.044 95.4178 138.652 95.6935C136.783 95.7486 134.968 95.6935 132.565 95.6935V95.6383Z" fill="#AF8C3E"/>
</g>
</svg>
