<svg width="223" height="544" viewBox="0 0 223 544" fill="none" xmlns="http://www.w3.org/2000/svg">
<g opacity="0.1">
<path d="M26.5565 543.175V539.323C31.0996 538.288 35.3562 536.62 39.2853 534.32C43.2145 532.02 46.5297 528.685 49.2719 524.315C50.1723 522.763 50.8681 520.578 51.3183 517.76C51.7686 514.943 52.1369 511.608 52.4234 507.755C52.7099 503.903 52.8736 499.878 52.9555 495.623C53.0373 491.368 53.0782 487.228 53.0782 483.145C53.0782 479.58 53.1192 474.693 53.201 468.54C53.2829 462.387 53.3648 455.66 53.4876 448.357C53.5694 441.055 53.6103 433.522 53.6103 425.875V314.669C53.6103 310.069 53.4875 305.757 53.201 301.789C52.9145 297.822 52.5052 294.199 51.9732 291.037C51.4411 287.817 50.6225 285.344 49.5175 283.562C46.939 279.191 43.8284 276.086 40.063 274.131C36.3385 272.234 32.0819 270.854 27.3342 270.106V266.254H109.232V270.106C105.385 270.854 101.292 272.291 96.9128 274.361C92.5334 276.431 89.1363 280.514 86.7625 286.667C85.1253 291.037 84.2658 296.557 84.143 303.227C84.0612 309.897 83.8975 316.164 83.7338 322.087C83.7338 328.527 83.6929 334.852 83.611 341.119C83.5291 347.387 83.4882 353.769 83.4882 360.152V489.068C83.4882 496.485 83.57 503.673 83.7747 510.63C83.9384 517.53 84.7979 522.418 86.2304 525.235C88.4406 529.605 91.8786 532.94 96.6263 535.24C101.374 537.54 105.672 538.978 109.519 539.495V543.348H26.5156L26.5565 543.175Z" fill="#AF8C3E"/>
<path d="M109.191 543.177V539.325C113.039 538.807 117.336 537.427 122.084 535.07C126.832 532.77 130.311 529.435 132.48 525.065C133.953 522.247 134.772 517.36 134.935 510.459C135.099 503.559 135.222 496.372 135.222 488.897V401.956C135.222 394.021 135.222 386.719 135.222 380.049V360.039C135.222 353.656 135.181 347.274 135.099 341.006C135.017 334.739 134.976 328.356 134.976 321.973C134.813 316.051 134.649 309.783 134.567 303.113C134.485 296.443 133.626 290.923 131.948 286.553C129.574 280.401 126.177 276.318 121.797 274.248C117.418 272.178 113.325 270.798 109.478 269.993V266.141H191.376V269.993C186.628 270.741 182.372 272.121 178.647 274.018C174.923 275.916 171.771 279.078 169.193 283.448C168.088 285.231 167.269 287.761 166.737 290.923C166.205 294.143 165.796 297.708 165.509 301.676C165.223 305.643 165.1 309.956 165.1 314.556V328.413V403.451V425.761C165.1 433.467 165.141 440.942 165.223 448.244C165.304 455.547 165.386 462.274 165.509 468.427C165.591 474.579 165.632 479.467 165.632 483.032C165.632 487.114 165.673 491.312 165.755 495.509C165.837 499.764 166.041 503.789 166.287 507.642C166.532 511.494 166.942 514.829 167.392 517.647C167.842 520.465 168.538 522.65 169.438 524.202C172.18 528.572 175.496 531.907 179.425 534.207C183.354 536.507 187.611 538.175 192.154 539.21V543.062H109.15L109.191 543.177Z" fill="#AF8C3E"/>
<path d="M190.844 99.7406C193.299 104.341 196.164 106.698 199.561 107.676C205.864 109.458 211.349 106.698 216.015 100.546C221.172 93.7606 222.809 85.0205 222.195 75.188C221.622 65.8729 218.798 58.4554 213.477 53.1653C209.425 49.0828 204.882 47.3578 200.012 47.1853C191.376 46.8978 183.681 51.1528 176.601 57.9954C168.128 66.2179 161.662 77.143 156.341 89.563C149.997 104.398 145.781 120.498 142.589 137.231C142.425 138.151 142.098 139.071 141.647 140.796C136.654 112.736 129.328 87.033 119.873 62.3079C131.006 33.2127 145.74 10.2701 169.151 1.01255C168.169 0.667545 167.555 0.322543 166.982 0.265042C162.03 -0.13746 157.118 -0.13746 152.207 1.24255C141.32 4.29006 132.275 12.2251 124.498 23.4377C120.938 28.6127 117.663 34.1327 114.225 39.4803C113.325 40.9178 112.302 42.1253 111.156 43.6778C109.559 41.2628 108.168 39.1928 106.776 37.0652C103.093 31.4877 99.6547 25.6227 95.7256 20.3902C87.3761 9.17759 77.5942 2.10505 66.1342 0.437543C61.9595 -0.19496 57.7848 -0.25246 53.5282 1.01255C76.7347 9.81009 91.9192 32.0627 102.888 61.5604C102.315 63.1704 101.824 64.4929 101.374 65.7579C97.7311 75.763 94.1703 85.8255 91.5509 96.4631C88.3585 109.516 85.3297 122.568 82.2191 135.621C81.8508 137.173 81.3596 138.726 80.7048 141.083C80.2546 139.013 80.009 137.921 79.7634 136.771C76.571 121.476 72.4782 106.641 66.9119 92.8405C61.2228 78.753 54.1421 66.5629 44.5648 57.7079C37.607 51.2678 30.1171 47.5303 21.7676 47.8753C7.68819 48.5078 -1.3161 63.4579 0.157332 83.7555C1.01683 95.6581 7.19706 105.778 15.26 108.251C20.7854 109.976 25.8195 108.481 30.0352 102.788C30.4444 102.213 30.731 101.466 31.2221 100.488C29.3394 100.488 27.7841 100.603 26.2288 100.488C22.1769 100.086 18.5343 98.3031 15.6283 93.9331C9.65276 84.9055 11.9447 71.9679 20.2123 68.4604C26.3107 65.8729 31.7951 68.0579 36.7475 73.4629C41.8227 78.983 45.588 86.1705 48.7805 93.9906C57.7438 116.186 64.0059 139.933 67.3621 165.233C67.976 169.776 68.7127 174.318 69.4085 178.861C70.4317 185.531 72.8465 190.706 76.6938 194.674C81.4006 199.561 85.9027 204.794 90.4867 209.854C90.9369 210.371 91.4281 210.831 92.1239 211.464C92.2876 210.256 92.4513 209.509 92.5331 208.761C93.6382 196.341 94.7433 183.979 95.7665 171.558C97.1172 155.056 98.6724 138.553 101.292 122.396C103.093 111.528 105.303 100.833 108.986 90.943C109.723 88.988 110.583 87.2055 111.647 84.733C112.875 87.6655 113.98 89.9655 114.88 92.3805C117.827 100.258 119.955 108.596 121.633 117.163C127.363 146.431 129.778 176.274 129.492 206.691C129.492 208.186 129.492 209.739 129.492 211.234C129.983 211.176 130.187 211.234 130.351 211.119C136.409 205.599 142.343 199.849 147.459 192.546C151.02 187.486 153.271 181.334 154.049 174.089C154.826 167.131 155.522 160.173 156.505 153.273C159.042 135.678 163.913 119.348 169.479 103.421C172.18 95.6581 175.086 88.1255 179.097 81.6855C181.471 77.8905 184.131 74.3254 186.996 71.2779C190.762 67.2529 195.141 66.1029 199.766 66.9654C205.046 67.9429 208.852 72.5429 209.712 79.2705C210.408 84.848 209.057 89.5055 206.437 93.4156C203.45 97.8431 199.643 99.5106 195.51 99.7981C194.077 99.8556 192.685 99.7981 190.844 99.7981V99.7406Z" fill="#AF8C3E"/>
</g>
</svg>
