<svg width="222" height="387" viewBox="0 0 222 387" fill="none" xmlns="http://www.w3.org/2000/svg">
<g opacity="0.1">
<path d="M26.5614 386.696V383.954C31.1053 383.217 35.3626 382.03 39.2924 380.392C43.2222 378.755 46.538 376.38 49.2806 373.269C50.1812 372.164 50.8771 370.609 51.3274 368.603C51.7777 366.597 52.1461 364.223 52.4326 361.48C52.7192 358.737 52.8829 355.872 52.9648 352.843C53.0467 349.813 53.0876 346.866 53.0876 343.96C53.0876 341.422 53.1286 337.942 53.2104 333.562C53.2923 329.182 53.3742 324.392 53.497 319.194C53.5789 313.995 53.6198 308.632 53.6198 303.188V224.018C53.6198 220.744 53.497 217.673 53.2104 214.849C52.9239 212.024 52.5145 209.445 51.9823 207.194C51.4502 204.902 50.6315 203.141 49.5263 201.872C46.9473 198.761 43.8362 196.551 40.0702 195.159C36.345 193.808 32.0877 192.826 27.3392 192.293V189.551H109.251V192.293C105.403 192.826 101.31 193.849 96.9296 195.323C92.5495 196.796 89.1518 199.703 86.7775 204.083C85.1401 207.194 84.2805 211.124 84.1577 215.872C84.0758 220.621 83.9121 225.083 83.7483 229.299C83.7483 233.884 83.7074 238.387 83.6255 242.849C83.5437 247.311 83.5027 251.855 83.5027 256.398V348.176C83.5027 353.457 83.5846 358.574 83.7893 363.527C83.953 368.439 84.8127 371.919 86.2454 373.924C88.4559 377.035 91.8945 379.41 96.643 381.047C101.392 382.685 105.69 383.708 109.538 384.076V386.819H26.5205L26.5614 386.696Z" fill="white"/>
<path d="M109.21 386.698V383.955C113.058 383.587 117.356 382.604 122.105 380.926C126.853 379.289 130.333 376.914 132.502 373.803C133.976 371.798 134.795 368.318 134.958 363.406C135.122 358.493 135.245 353.377 135.245 348.055V286.16C135.245 280.511 135.245 275.312 135.245 270.564V256.318C135.245 251.775 135.204 247.231 135.122 242.769C135.04 238.307 134.999 233.763 134.999 229.219C134.836 225.003 134.672 220.541 134.59 215.792C134.508 211.044 133.648 207.114 131.97 204.003C129.596 199.623 126.198 196.716 121.818 195.243C117.438 193.769 113.344 192.786 109.496 192.213V189.471H191.408V192.213C186.66 192.746 182.403 193.728 178.678 195.079C174.952 196.43 171.8 198.681 169.221 201.792C168.116 203.061 167.297 204.862 166.765 207.114C166.233 209.406 165.824 211.944 165.537 214.769C165.251 217.593 165.128 220.664 165.128 223.938V233.804V287.225V303.108C165.128 308.593 165.169 313.915 165.251 319.113C165.333 324.312 165.414 329.102 165.537 333.482C165.619 337.862 165.66 341.341 165.66 343.879C165.66 346.786 165.701 349.774 165.783 352.762C165.865 355.792 166.069 358.657 166.315 361.4C166.561 364.143 166.97 366.517 167.42 368.523C167.871 370.529 168.566 372.084 169.467 373.189C172.21 376.3 175.525 378.675 179.455 380.312C183.385 381.949 187.642 383.137 192.186 383.873V386.616H109.169L109.21 386.698Z" fill="white"/>
<path d="M190.876 71.0071C193.332 74.282 196.198 75.9603 199.595 76.6562C205.899 77.9252 211.385 75.9603 216.051 71.5802C221.209 66.7498 222.847 60.5276 222.233 53.5277C221.659 46.8961 218.835 41.6154 213.513 37.8494C209.461 34.9429 204.917 33.7149 200.046 33.5921C191.408 33.3874 183.712 36.4166 176.63 41.288C168.157 47.1417 161.689 54.9195 156.367 63.7616C150.022 74.3229 145.806 85.7849 142.613 97.6971C142.449 98.3521 142.122 99.007 141.671 100.235C136.677 80.2586 129.35 61.9604 119.894 44.3581C131.028 23.6447 145.765 7.31147 169.18 0.72085C168.198 0.475237 167.584 0.229624 167.011 0.188689C162.057 -0.0978601 157.145 -0.0978601 152.233 0.884592C141.344 3.05417 132.297 8.70328 124.519 16.6857C120.958 20.3699 117.683 24.2997 114.245 28.1067C113.344 29.1301 112.321 29.9897 111.174 31.095C109.578 29.3757 108.186 27.902 106.794 26.3874C103.11 22.4167 99.6716 18.2413 95.7418 14.5161C87.3909 6.53369 77.6073 1.49863 66.1454 0.311495C61.97 -0.138796 57.7945 -0.179731 53.5373 0.72085C76.7477 6.98398 91.9348 22.826 102.905 43.826C102.332 44.9722 101.841 45.9137 101.391 46.8142C97.7476 53.937 94.1863 61.1007 91.5664 68.6738C88.3734 77.9662 85.3441 87.2585 82.233 96.5509C81.8646 97.6562 81.3734 98.7614 80.7184 100.44C80.2681 98.9661 80.0225 98.1883 79.7769 97.3696C76.584 86.4808 72.4904 75.9194 66.9232 66.0949C61.2331 56.0657 54.1513 47.3873 44.5724 41.0833C37.6133 36.4985 30.1222 33.8377 21.7713 34.0833C7.68949 34.5336 -1.31632 45.1768 0.157358 59.6271C1.017 68.1007 7.19828 75.3054 15.2626 77.0656C20.7889 78.2937 25.8239 77.2293 30.0402 73.1767C30.4496 72.7674 30.7362 72.2352 31.2274 71.5393C29.3444 71.5393 27.7888 71.6212 26.2333 71.5393C22.1806 71.2527 18.5374 69.9837 15.631 66.8727C9.65439 60.4458 11.9468 51.2353 20.2157 48.7382C26.3151 46.8961 31.8005 48.4517 36.7537 52.2996C41.8297 56.2294 45.5957 61.3464 48.7887 66.9136C57.7536 82.7147 64.0168 99.6211 67.3735 117.633C67.9875 120.867 68.7243 124.101 69.4202 127.334C70.4436 132.083 72.8588 135.767 76.7068 138.592C81.4144 142.071 85.9172 145.796 90.502 149.399C90.9523 149.767 91.4436 150.095 92.1395 150.545C92.3032 149.685 92.4669 149.153 92.5488 148.621C93.6541 139.779 94.7594 130.978 95.7827 122.136C97.1336 110.387 98.6891 98.6386 101.309 87.1357C103.11 79.3989 105.321 71.7849 109.005 64.744C109.742 63.3522 110.601 62.0832 111.666 60.323C112.894 62.4107 113.999 64.0481 114.9 65.7674C117.847 71.3756 119.976 77.3112 121.654 83.4106C127.385 104.247 129.8 125.492 129.514 147.147C129.514 148.212 129.514 149.317 129.514 150.381C130.005 150.34 130.21 150.381 130.373 150.299C136.432 146.369 142.367 142.276 147.484 137.077C151.046 133.475 153.297 129.095 154.075 123.937C154.853 118.984 155.549 114.03 156.531 109.118C159.069 96.5918 163.94 84.9661 169.508 73.627C172.209 68.1007 175.116 62.7382 179.127 58.1534C181.502 55.4516 184.163 52.9136 187.028 50.7441C190.794 47.8786 195.174 47.0599 199.8 47.6739C205.081 48.3698 208.888 51.6446 209.747 56.4341C210.443 60.4048 209.092 63.7206 206.472 66.5042C203.484 69.6563 199.677 70.8434 195.543 71.0481C194.11 71.089 192.718 71.0481 190.876 71.0481V71.0071Z" fill="white"/>
</g>
</svg>
