<svg width="57" height="57" viewBox="0 0 57 57" fill="none" xmlns="http://www.w3.org/2000/svg">
<g id="Vector">
<path d="M29.2631 1.84108C29.4566 0.64584 30.5866 -0.164961 31.782 0.0285429C31.856 0.0427048 32.0941 0.0871959 32.2188 0.114973C32.4683 0.170522 32.8163 0.256047 33.2501 0.382401C34.1178 0.635085 35.3298 1.05135 36.7846 1.71822C39.6972 3.05337 43.5732 5.38897 47.5954 9.4106C51.6175 13.4322 53.9534 17.3078 55.2887 20.22C55.9557 21.6746 56.372 22.8865 56.6247 23.7541C56.7511 24.1879 56.8366 24.5358 56.8922 24.7852C56.92 24.91 56.9403 25.0101 56.9544 25.0841L56.9713 25.1753C57.1648 26.3705 56.3613 27.5471 55.1659 27.7406C53.9739 27.9336 52.851 27.1267 52.6527 25.9371C52.6466 25.9051 52.6298 25.8193 52.6118 25.7384C52.5758 25.5765 52.5134 25.3198 52.4144 24.9802C52.2166 24.3011 51.873 23.2916 51.3025 22.0473C50.1628 19.5618 48.1134 16.1295 44.4946 12.5111C40.8757 8.89262 37.4429 6.84352 34.9571 5.704C33.7126 5.13353 32.703 4.78997 32.0238 4.59215C31.6842 4.49326 31.2574 4.3953 31.0955 4.35925C29.9057 4.16099 29.0701 3.0329 29.2631 1.84108Z" fill="#F3F4F6"/>
<path fill-rule="evenodd" clip-rule="evenodd" d="M29.9245 11.9243C30.2572 10.7601 31.4708 10.086 32.6351 10.4186L32.0328 12.5266C32.6351 10.4186 32.6351 10.4186 32.6351 10.4186L32.6393 10.4198L32.6438 10.4211L32.6535 10.4239L32.6762 10.4307L32.7341 10.4487C32.7781 10.4628 32.8332 10.4812 32.8988 10.5045C33.0301 10.551 33.2037 10.6173 33.4165 10.7085C33.8424 10.891 34.4244 11.1729 35.1392 11.5959C36.5701 12.4427 38.5236 13.8492 40.8185 16.1438C43.1133 18.4383 44.52 20.3915 45.3669 21.8223C45.79 22.537 46.0719 23.1189 46.2544 23.5448C46.3456 23.7576 46.4119 23.9311 46.4585 24.0624C46.4818 24.128 46.5001 24.1831 46.5142 24.2271L46.5322 24.285L46.539 24.3076L46.5418 24.3174L46.5431 24.3219C46.5431 24.3219 46.5443 24.3261 44.4361 24.9284L46.5443 24.3261C46.877 25.4903 46.2028 26.7037 45.0384 27.0364C43.884 27.3662 42.6811 26.7062 42.3365 25.5602L42.3257 25.5287C42.3101 25.4848 42.2779 25.3983 42.2237 25.272C42.1155 25.0196 41.9194 24.6068 41.5931 24.0555C40.9412 22.9543 39.7639 21.2903 37.7176 19.2442C35.6713 17.1982 34.0071 16.021 32.9057 15.3692C32.3544 15.043 31.9415 14.8468 31.6891 14.7387C31.5628 14.6846 31.4763 14.6523 31.4324 14.6367L31.4008 14.6259C30.2547 14.2813 29.5946 13.0786 29.9245 11.9243Z" fill="#F3F4F6"/>
<path fill-rule="evenodd" clip-rule="evenodd" d="M5.1379 9.22713C10.0496 4.31607 18.3381 4.68941 21.758 10.8166L23.6554 14.216C25.8887 18.2173 24.937 23.2657 21.6677 26.5746C21.6241 26.6343 21.3934 26.9702 21.3646 27.5573C21.3279 28.3065 21.5941 30.0393 24.2791 32.724C26.9632 35.4078 28.696 35.6745 29.4457 35.6381C30.0332 35.6095 30.3695 35.3786 30.4292 35.335C33.7385 32.0661 38.7876 31.1145 42.7894 33.3475L46.1892 35.2447C52.3172 38.6642 52.6906 46.9517 47.7789 51.8627C45.1517 54.4896 41.6583 56.8237 37.5532 56.9793C31.4696 57.2099 21.3682 55.6391 11.3646 45.6368C1.36107 35.6345 -0.209974 25.5344 0.0206531 19.4516C0.176279 15.3469 2.51067 11.854 5.1379 9.22713ZM17.9288 12.9534C16.1775 9.81591 11.4716 9.09509 8.23873 12.3276C5.97201 14.594 4.49837 17.0957 4.40275 19.6177C4.21042 24.6903 5.46296 33.535 14.4655 42.5363C23.468 51.5377 32.3138 52.7901 37.387 52.5978C39.9094 52.5022 42.4113 51.0287 44.6781 48.7623C47.9109 45.5298 47.19 40.8245 44.0521 39.0735L40.6523 37.1763C38.5374 35.9962 35.5668 36.3988 33.4814 38.4838C33.2766 38.6885 31.9726 39.905 29.6587 40.0176C27.2901 40.1328 24.4229 39.0686 21.1783 35.8244C17.9326 32.5791 16.8686 29.7115 16.9846 27.3428C17.0979 25.0291 18.3148 23.7266 18.5184 23.523C20.6037 21.4378 21.0065 18.4674 19.8262 16.3528L17.9288 12.9534Z" fill="#F3F4F6"/>
</g>
</svg>
