<svg width="63" height="63" viewBox="0 0 63 63" fill="none" xmlns="http://www.w3.org/2000/svg">
<g id="Group 59">
<path id="Vector" d="M48.5998 14.6896C52.3052 15.054 54.7993 15.8777 56.6608 17.7393C59.9998 21.0783 59.9998 26.4523 59.9998 37.2002C59.9998 47.9482 59.9998 53.3222 56.6608 56.6612C53.3219 60.0002 47.9479 60.0002 37.1999 60.0002H25.7999C15.0519 60.0002 9.67794 60.0002 6.33897 56.6612C3 53.3222 3 47.9482 3 37.2002C3 26.4523 3 21.0783 6.33897 17.7393C8.20053 15.8777 10.6947 15.054 14.4 14.6896" stroke="#F3F4F6" stroke-width="5"/>
<path id="Vector_2" d="M25.8008 14.4H37.2007" stroke="#F3F4F6" stroke-width="5" stroke-linecap="round"/>
<path id="Vector_3" d="M28.6484 22.9502H34.3484" stroke="#F3F4F6" stroke-width="5" stroke-linecap="round"/>
<path id="Vector_4" d="M20.5513 30.9274L15.8377 26.9994C15.13 26.4096 14.7761 26.1147 14.5873 25.7116C14.3984 25.3085 14.3984 24.8478 14.3984 23.9265V17.2501C14.3984 10.5326 14.3984 7.17384 16.4853 5.08698C18.5722 3.00012 21.9309 3.00012 28.6484 3.00012H34.3484C41.0659 3.00012 44.4246 3.00012 46.5115 5.08698C48.5983 7.17384 48.5983 10.5326 48.5983 17.2501V23.9265C48.5983 24.8478 48.5983 25.3085 48.4095 25.7116C48.2207 26.1147 47.8668 26.4096 47.1591 26.9994L42.4455 30.9274L42.4455 30.9274C37.2111 35.2894 34.5939 37.4704 31.4984 37.4704C28.4029 37.4704 25.7857 35.2894 20.5513 30.9274L20.5513 30.9274Z" stroke="#F3F4F6" stroke-width="5" stroke-linecap="round"/>
<path id="Vector_5" d="M14.3984 25.7999L20.5513 30.9273C25.7857 35.2893 28.4029 37.4703 31.4984 37.4703C34.5939 37.4703 37.2111 35.2893 42.4455 30.9273L48.5983 25.7999" stroke="#F3F4F6" stroke-width="5" stroke-linecap="round"/>
</g>
</svg>
