<svg width="57" height="61" viewBox="0 0 57 61" fill="none" xmlns="http://www.w3.org/2000/svg">
<g id="Group 60">
<path id="Vector" d="M45.6186 19.4476L48.3773 20.3672C51.2562 21.3268 52.6957 21.8067 53.519 22.949C54.3424 24.0913 54.3424 25.6086 54.3424 28.6432V45.1215C54.3424 48.8754 54.3424 50.7523 53.3545 51.958C53.019 52.3675 52.6117 52.7125 52.1526 52.9761C50.8009 53.7523 48.9496 53.4437 45.2468 52.8266C41.5932 52.2177 39.7664 51.9132 37.9559 52.0647C37.3204 52.1179 36.6892 52.2128 36.0662 52.3489C34.2911 52.7365 32.6201 53.5721 29.278 55.2431C24.9169 57.4236 22.7364 58.5139 20.4153 58.85C19.7162 58.9512 19.0107 59.0013 18.3043 59C15.959 58.9955 13.6661 58.2313 9.08041 56.7027L7.96504 56.3309C5.08613 55.3713 3.64667 54.8914 2.82334 53.7491C2 52.6068 2 51.0895 2 48.0548V33.7197C2 28.8958 2 26.4838 3.42026 25.1866C3.66878 24.9596 3.94274 24.7622 4.23666 24.5982C5.91641 23.661 8.20459 24.4237 12.7809 25.9492" stroke="#F3F4F6" stroke-width="4"/>
<path id="Vector_2" d="M10.7246 18.5761C10.7246 9.42144 18.5361 2.00012 28.1721 2.00012C37.808 2.00012 45.6195 9.42144 45.6195 18.5761C45.6195 27.659 40.0509 38.2579 31.3626 42.0482C29.3372 42.9317 27.0069 42.9317 24.9815 42.0482C16.2932 38.2579 10.7246 27.659 10.7246 18.5761Z" stroke="#F3F4F6" stroke-width="4"/>
<circle id="Vector_3" cx="28.1713" cy="19.4475" r="5.81582" stroke="#F3F4F6" stroke-width="4"/>
</g>
</svg>
