<svg width="57" height="54" viewBox="0 0 57 54" fill="none" xmlns="http://www.w3.org/2000/svg">
<path d="M24.7202 13.8145C24.7202 13.8145 27.7489 16.2049 27.7489 19.2357V23.7788C27.7489 23.7788 27.7489 25.2126 29.5029 26.4894C31.257 27.7661 31.0173 28.3219 30.6991 29.359C30.6991 29.359 31.3375 31.2721 30.381 31.8299C29.4244 32.3878 30.4615 32.9456 30.4615 32.9456C30.4615 32.9456 31.0193 33.5034 29.7446 34.5405C29.7446 34.5405 29.505 34.9393 29.9037 35.8153C30.3024 36.6913 30.7797 37.7284 28.788 37.7284C26.7964 37.7284 19.8609 35.7347 16.0347 44.5028C16.0347 44.5028 19.3031 36.5322 27.8315 38.1251C27.8315 38.1251 31.4181 38.6829 30.5421 35.8132C30.5421 35.8132 30.1433 34.458 31.259 34.2989C31.259 34.2989 31.7503 34.0169 31.259 32.7039C30.7676 31.3909 31.4785 31.7474 31.4785 31.7474C31.4785 31.7474 32.1169 31.8299 31.4785 30.3619C31.4785 30.3619 31.0113 29.5282 31.7624 29.1576C31.7624 29.1576 32.8559 28.4689 29.7426 25.6033C29.1324 25.0414 28.7518 24.2641 28.7035 23.4344C28.6431 22.4034 28.6108 20.885 28.774 19.2336C29.07 16.2311 25.4532 14.2012 24.7262 13.8125L24.7202 13.8145Z" fill="url(#paint0_linear_501_314)"/>
<path d="M24.6497 14.4611C24.6497 14.4611 27.7388 20.4964 22.3499 26.3143C16.961 32.1341 11.0001 33.0665 11.5741 40.5377C12.148 48.0089 20.0501 47.435 21.631 43.1234C21.631 43.1234 19.8387 46.1401 16.0286 45.4937C16.0286 45.4937 11.4291 45.3507 12.579 38.1655C12.579 38.1655 13.5838 34.2869 16.8885 32.3456C20.1931 30.4063 30.1071 21.9282 24.6476 14.457L24.6497 14.4611Z" fill="url(#paint1_linear_501_314)"/>
<path d="M24.5065 15.6833C24.5065 15.6833 24.722 24.9508 14.4496 27.3936C4.17725 29.8363 3.38583 39.8207 5.75808 44.1323C8.13034 48.4438 13.8032 49.6642 13.8032 49.6642C13.8032 49.6642 22.7827 51.245 24.9375 43.1979C24.9375 43.1979 21.9913 50.3106 13.7307 48.2988C5.47011 46.287 6.33201 36.949 8.2713 33.7149C8.2713 33.7149 10.9919 29.9531 16.0325 28.6139C20.2836 27.4842 25.741 21.5858 24.5085 15.6833H24.5065Z" fill="url(#paint2_linear_501_314)"/>
<path d="M23.4997 16.0418C23.4997 16.0418 19.7641 25.2368 9.70719 26.3867C9.70719 26.3867 0.512195 27.6795 0.00874527 35.5817C0.00874527 35.5817 -0.289297 38.5218 2.59446 41.0411C2.59446 41.0411 -1.78756 35.6522 2.88243 30.6962C2.88243 30.6962 5.98771 27.601 9.98711 27.16C13.9865 26.719 17.6375 24.4836 18.0483 24.0104C18.4592 23.5372 23.4755 19.1531 23.5017 16.0398L23.4997 16.0418Z" fill="url(#paint3_linear_501_314)"/>
<path d="M46.7793 5.86015C49.6852 7.0785 54.9392 11.1605 54.9392 11.1605C55.1809 10.22 55.4507 9.24333 55.7528 8.23039C56.0548 7.21745 56.373 6.31325 56.7113 5.51579C54.3371 4.50889 51.7594 3.23416 48.5917 2.07421C45.9859 1.1237 41.6159 0 37.7796 0C29.1686 0 22.2412 3.46776 17.0556 7.90617C13.1509 11.243 10.6397 15.5425 9.52002 20.8045C12.8448 20.142 15.4446 18.7525 17.4342 17.1938C17.6537 17.0206 17.8229 16.7931 17.9236 16.5333C18.8781 14.0845 20.2072 11.9539 21.921 10.1495C25.7915 6.07361 30.973 4.03565 37.4615 4.03565C40.7661 4.03565 43.8714 4.64583 46.7773 5.86216L46.7793 5.86015Z" fill="url(#paint4_linear_501_314)"/>
<path d="M42.6772 28.6018C42.6772 28.6018 42.8685 29.6671 42.7638 31.254C42.7638 31.254 46.4088 31.401 49.9068 31.405V48.5001C48.2655 49.3439 46.445 49.9783 44.4433 50.3992C42.4416 50.8221 40.4036 51.0315 38.3294 51.0315C34.322 51.0315 30.8482 50.3951 27.902 49.1244C25.858 50.2421 24.0597 50.965 22.5654 51.4322C26.4057 53.1419 30.971 53.9998 36.2673 53.9998C39.5719 53.9998 42.943 53.6917 46.3806 53.0775C49.8182 52.4633 53.1651 51.5752 56.4214 50.4173V29.5402C56.4214 29.5402 47.023 29.7879 42.6772 28.6018Z" fill="url(#paint5_linear_501_314)"/>
<defs>
<linearGradient id="paint0_linear_501_314" x1="-12.2552" y1="8.25442" x2="61.035" y2="55.1598" gradientUnits="userSpaceOnUse">
<stop stop-color="white"/>
<stop offset="0.03" stop-color="#E4E4E4"/>
<stop offset="0.04" stop-color="#CFCFCF"/>
<stop offset="0.08" stop-color="#979797"/>
<stop offset="0.11" stop-color="#747474"/>
<stop offset="0.13" stop-color="#676767"/>
<stop offset="0.16" stop-color="#777777"/>
<stop offset="0.23" stop-color="#A1A1A1"/>
<stop offset="0.32" stop-color="#E4E4E4"/>
<stop offset="0.38" stop-color="#F1F1F1"/>
<stop offset="0.44" stop-color="white"/>
<stop offset="0.69" stop-color="#E4E4E4"/>
<stop offset="0.7" stop-color="#D8D8D8"/>
<stop offset="0.75" stop-color="#A8A8A8"/>
<stop offset="0.79" stop-color="#858585"/>
<stop offset="0.82" stop-color="#707070"/>
<stop offset="0.85" stop-color="#696969"/>
<stop offset="0.87" stop-color="#6C6C6C"/>
<stop offset="0.89" stop-color="#777777"/>
<stop offset="0.91" stop-color="#8A8A8A"/>
<stop offset="0.93" stop-color="#A5A5A5"/>
<stop offset="0.95" stop-color="#C6C6C6"/>
<stop offset="0.96" stop-color="#E4E4E4"/>
<stop offset="0.98" stop-color="#F0F0F1"/>
<stop offset="1" stop-color="#FCFDFF"/>
</linearGradient>
<linearGradient id="paint1_linear_501_314" x1="-12.9278" y1="9.30372" x2="60.3623" y2="56.2111" gradientUnits="userSpaceOnUse">
<stop stop-color="white"/>
<stop offset="0.03" stop-color="#E4E4E4"/>
<stop offset="0.04" stop-color="#CFCFCF"/>
<stop offset="0.08" stop-color="#979797"/>
<stop offset="0.11" stop-color="#747474"/>
<stop offset="0.13" stop-color="#676767"/>
<stop offset="0.16" stop-color="#777777"/>
<stop offset="0.23" stop-color="#A1A1A1"/>
<stop offset="0.32" stop-color="#E4E4E4"/>
<stop offset="0.38" stop-color="#F1F1F1"/>
<stop offset="0.44" stop-color="white"/>
<stop offset="0.69" stop-color="#E4E4E4"/>
<stop offset="0.7" stop-color="#D8D8D8"/>
<stop offset="0.75" stop-color="#A8A8A8"/>
<stop offset="0.79" stop-color="#858585"/>
<stop offset="0.82" stop-color="#707070"/>
<stop offset="0.85" stop-color="#696969"/>
<stop offset="0.87" stop-color="#6C6C6C"/>
<stop offset="0.89" stop-color="#777777"/>
<stop offset="0.91" stop-color="#8A8A8A"/>
<stop offset="0.93" stop-color="#A5A5A5"/>
<stop offset="0.95" stop-color="#C6C6C6"/>
<stop offset="0.96" stop-color="#E4E4E4"/>
<stop offset="0.98" stop-color="#F0F0F1"/>
<stop offset="1" stop-color="#FCFDFF"/>
</linearGradient>
<linearGradient id="paint2_linear_501_314" x1="-14.4343" y1="11.6578" x2="58.8559" y2="58.5652" gradientUnits="userSpaceOnUse">
<stop stop-color="white"/>
<stop offset="0.03" stop-color="#E4E4E4"/>
<stop offset="0.04" stop-color="#CFCFCF"/>
<stop offset="0.08" stop-color="#979797"/>
<stop offset="0.11" stop-color="#747474"/>
<stop offset="0.13" stop-color="#676767"/>
<stop offset="0.16" stop-color="#777777"/>
<stop offset="0.23" stop-color="#A1A1A1"/>
<stop offset="0.32" stop-color="#E4E4E4"/>
<stop offset="0.38" stop-color="#F1F1F1"/>
<stop offset="0.44" stop-color="white"/>
<stop offset="0.69" stop-color="#E4E4E4"/>
<stop offset="0.7" stop-color="#D8D8D8"/>
<stop offset="0.75" stop-color="#A8A8A8"/>
<stop offset="0.79" stop-color="#858585"/>
<stop offset="0.82" stop-color="#707070"/>
<stop offset="0.85" stop-color="#696969"/>
<stop offset="0.87" stop-color="#6C6C6C"/>
<stop offset="0.89" stop-color="#777777"/>
<stop offset="0.91" stop-color="#8A8A8A"/>
<stop offset="0.93" stop-color="#A5A5A5"/>
<stop offset="0.95" stop-color="#C6C6C6"/>
<stop offset="0.96" stop-color="#E4E4E4"/>
<stop offset="0.98" stop-color="#F0F0F1"/>
<stop offset="1" stop-color="#FCFDFF"/>
</linearGradient>
<linearGradient id="paint3_linear_501_314" x1="-14.114" y1="11.1583" x2="59.1761" y2="58.0637" gradientUnits="userSpaceOnUse">
<stop stop-color="white"/>
<stop offset="0.03" stop-color="#E4E4E4"/>
<stop offset="0.04" stop-color="#CFCFCF"/>
<stop offset="0.08" stop-color="#979797"/>
<stop offset="0.11" stop-color="#747474"/>
<stop offset="0.13" stop-color="#676767"/>
<stop offset="0.16" stop-color="#777777"/>
<stop offset="0.23" stop-color="#A1A1A1"/>
<stop offset="0.32" stop-color="#E4E4E4"/>
<stop offset="0.38" stop-color="#F1F1F1"/>
<stop offset="0.44" stop-color="white"/>
<stop offset="0.69" stop-color="#E4E4E4"/>
<stop offset="0.7" stop-color="#D8D8D8"/>
<stop offset="0.75" stop-color="#A8A8A8"/>
<stop offset="0.79" stop-color="#858585"/>
<stop offset="0.82" stop-color="#707070"/>
<stop offset="0.85" stop-color="#696969"/>
<stop offset="0.87" stop-color="#6C6C6C"/>
<stop offset="0.89" stop-color="#777777"/>
<stop offset="0.91" stop-color="#8A8A8A"/>
<stop offset="0.93" stop-color="#A5A5A5"/>
<stop offset="0.95" stop-color="#C6C6C6"/>
<stop offset="0.96" stop-color="#E4E4E4"/>
<stop offset="0.98" stop-color="#F0F0F1"/>
<stop offset="1" stop-color="#FCFDFF"/>
</linearGradient>
<linearGradient id="paint4_linear_501_314" x1="9.52002" y1="10.4013" x2="56.7113" y2="10.4013" gradientUnits="userSpaceOnUse">
<stop stop-color="#EBC13D"/>
<stop offset="0.32" stop-color="#FAF18D"/>
<stop offset="0.68" stop-color="#DAAA27"/>
<stop offset="1" stop-color="#F9F297"/>
</linearGradient>
<linearGradient id="paint5_linear_501_314" x1="22.5674" y1="41.3008" x2="56.4214" y2="41.3008" gradientUnits="userSpaceOnUse">
<stop stop-color="#EBC13D"/>
<stop offset="0.32" stop-color="#FAF18D"/>
<stop offset="0.68" stop-color="#DAAA27"/>
<stop offset="1" stop-color="#F9F297"/>
</linearGradient>
</defs>
</svg>
