<svg width="24" height="19" viewBox="0 0 24 19" fill="none" xmlns="http://www.w3.org/2000/svg">
<path d="M18.8626 3.05219C18.723 2.88157 18.5475 2.74379 18.3486 2.64866C18.1497 2.55354 17.9322 2.50339 17.7118 2.5018H17.1113L17.2614 1.65119C17.2896 1.44904 17.2775 1.24334 17.226 1.04586C17.1745 0.848374 17.0845 0.663001 16.9612 0.50036C16.6738 0.196107 16.2787 0.016499 15.8604 0H3.90184C3.63643 0 3.38189 0.105433 3.19422 0.293104C3.00655 0.480775 2.90112 0.735312 2.90112 1.00072C2.90112 1.26613 3.00655 1.52066 3.19422 1.70833C3.38189 1.89601 3.63643 2.00144 3.90184 2.00144H15.1599L13.1585 13.4597C12.9326 13.7786 12.7633 14.134 12.6581 14.5104H10.3565C10.1387 13.7908 9.69522 13.1604 9.0915 12.7123C8.48778 12.2642 7.7559 12.0223 7.00407 12.0223C6.25224 12.0223 5.52036 12.2642 4.91664 12.7123C4.31292 13.1604 3.8694 13.7908 3.65166 14.5104H3.10126L3.35144 13.0594C3.39533 12.8009 3.33605 12.5356 3.18634 12.3204C3.03664 12.1052 2.80845 11.9573 2.55087 11.9086C2.29241 11.8647 2.02705 11.9239 1.81184 12.0737C1.59664 12.2234 1.44877 12.4515 1.40004 12.7091L0.999752 14.8607C0.969008 15.0665 0.984491 15.2765 1.04508 15.4756C1.10566 15.6747 1.20982 15.8577 1.35 16.0115C1.47906 16.1653 1.63968 16.2896 1.82097 16.376C2.00226 16.4623 2.19999 16.5086 2.40076 16.5119H3.65166C3.8694 17.2315 4.31292 17.8619 4.91664 18.31C5.52036 18.7581 6.25224 19 7.00407 19C7.7559 19 8.48778 18.7581 9.0915 18.31C9.69522 17.8619 10.1387 17.2315 10.3565 16.5119H12.6581C12.8759 17.2315 13.3194 17.8619 13.9231 18.31C14.5268 18.7581 15.2587 19 16.0105 19C16.7624 19 17.4943 18.7581 18.098 18.31C18.7017 17.8619 19.1452 17.2315 19.363 16.5119H20.3637C20.7397 16.5047 21.1012 16.3654 21.3849 16.1184C21.6685 15.8714 21.8561 15.5324 21.9148 15.1609L23.0156 8.75629L18.8626 3.05219ZM7.00407 17.0122C6.60596 17.0122 6.22415 16.8541 5.94264 16.5726C5.66114 16.2911 5.50299 15.9093 5.50299 15.5111C5.50299 15.113 5.66114 14.7312 5.94264 14.4497C6.22415 14.1682 6.60596 14.0101 7.00407 14.0101C7.40218 14.0101 7.78398 14.1682 8.06549 14.4497C8.347 14.7312 8.50515 15.113 8.50515 15.5111C8.50515 15.9093 8.347 16.2911 8.06549 16.5726C7.78398 16.8541 7.40218 17.0122 7.00407 17.0122ZM16.7611 4.50324H17.4115L20.3637 8.50611H16.0606L16.7611 4.50324ZM16.0105 17.0122C15.6124 17.0122 15.2306 16.8541 14.9491 16.5726C14.6676 16.2911 14.5095 15.9093 14.5095 15.5111C14.5095 15.113 14.6676 14.7312 14.9491 14.4497C15.2306 14.1682 15.6124 14.0101 16.0105 14.0101C16.4087 14.0101 16.7905 14.1682 17.072 14.4497C17.3535 14.7312 17.5116 15.113 17.5116 15.5111C17.5116 15.9093 17.3535 16.2911 17.072 16.5726C16.7905 16.8541 16.4087 17.0122 16.0105 17.0122ZM20.0134 14.5104H19.363C19.1476 13.7883 18.7052 13.1548 18.1012 12.7041C17.4973 12.2534 16.7641 12.0095 16.0105 12.0086H15.4601L15.7103 10.4575H20.6639L20.0134 14.5104Z" fill="#0D0F3B"/>
<path d="M2.00072 5.00339H7.00432C7.26972 5.00339 7.52426 4.89796 7.71193 4.71029C7.8996 4.52262 8.00504 4.26808 8.00504 4.00267C8.00504 3.73727 7.8996 3.48273 7.71193 3.29506C7.52426 3.10739 7.26972 3.00195 7.00432 3.00195H2.00072C1.73531 3.00195 1.48078 3.10739 1.2931 3.29506C1.10543 3.48273 1 3.73727 1 4.00267C1 4.26808 1.10543 4.52262 1.2931 4.71029C1.48078 4.89796 1.73531 5.00339 2.00072 5.00339Z" fill="#0D0F3B"/>
<path d="M7.50432 7.00511C7.50432 6.73971 7.39888 6.48517 7.21121 6.2975C7.02354 6.10983 6.769 6.00439 6.5036 6.00439H2.50072C2.23531 6.00439 1.98078 6.10983 1.7931 6.2975C1.60543 6.48517 1.5 6.73971 1.5 7.00511C1.5 7.27052 1.60543 7.52506 1.7931 7.71273C1.98078 7.9004 2.23531 8.00583 2.50072 8.00583H6.5036C6.769 8.00583 7.02354 7.9004 7.21121 7.71273C7.39888 7.52506 7.50432 7.27052 7.50432 7.00511Z" fill="#0D0F3B"/>
<path d="M3.00121 9.00635C2.7358 9.00635 2.48126 9.11178 2.29359 9.29945C2.10592 9.48712 2.00049 9.74166 2.00049 10.0071C2.00049 10.2725 2.10592 10.527 2.29359 10.7147C2.48126 10.9024 2.7358 11.0078 3.00121 11.0078H6.00337C6.26877 11.0078 6.52331 10.9024 6.71098 10.7147C6.89865 10.527 7.00408 10.2725 7.00408 10.0071C7.00408 9.74166 6.89865 9.48712 6.71098 9.29945C6.52331 9.11178 6.26877 9.00635 6.00337 9.00635H3.00121Z" fill="#0D0F3B"/>
</svg>
