<svg width="19" height="21" viewBox="0 0 19 21" fill="none" xmlns="http://www.w3.org/2000/svg">
<path d="M8.3742 19.2053C8.57956 19.3123 8.68224 19.3658 8.82467 19.3935C8.93562 19.4151 9.09563 19.4151 9.20658 19.3935C9.34901 19.3658 9.45169 19.3123 9.65705 19.2053C11.5557 18.2161 17.0156 14.9834 17.0156 10.5223V6.73993C17.0156 5.94042 17.0156 5.54067 16.8849 5.19704C16.7694 4.89347 16.5816 4.62261 16.338 4.40786C16.0621 4.16477 15.6878 4.02441 14.9392 3.74368L9.57742 1.73301C9.36953 1.65504 9.26558 1.61606 9.15864 1.60061C9.06379 1.58691 8.96746 1.58691 8.87261 1.60061C8.76567 1.61606 8.66172 1.65504 8.45383 1.73301L3.09203 3.74368C2.34342 4.02441 1.96912 4.16477 1.69328 4.40786C1.44961 4.62261 1.2619 4.89347 1.14639 5.19704C1.01562 5.54067 1.01562 5.94042 1.01562 6.73993V10.5223C1.01562 14.9834 6.47558 18.2161 8.3742 19.2053Z" stroke="#0D0F3B" stroke-width="2" stroke-linecap="round" stroke-linejoin="round"/>
</svg>
