<svg width="24" height="18" viewBox="0 0 24 18" fill="none" xmlns="http://www.w3.org/2000/svg">
<path d="M2.22222 15.8571L8.33333 9M21.7778 15.8571L15.6667 9M1 4.42857L9.83051 9.9333C10.6146 10.4221 11.0066 10.6665 11.4304 10.7614C11.8048 10.8453 12.1952 10.8453 12.5696 10.7614C12.9934 10.6665 13.3854 10.4221 14.1695 9.9333L23 4.42857M4.91111 17H19.0889C20.4579 17 21.1424 17 21.6653 16.7509C22.1253 16.5317 22.4992 16.1821 22.7336 15.752C23 15.263 23 14.623 23 13.3429V4.65714C23 3.37702 23 2.73696 22.7336 2.24802C22.4992 1.81794 22.1253 1.46827 21.6653 1.24913C21.1424 1 20.4579 1 19.0889 1H4.91111C3.54209 1 2.85759 1 2.33469 1.24913C1.87474 1.46827 1.50079 1.81794 1.26643 2.24802C1 2.73696 1 3.37702 1 4.65714V13.3429C1 14.623 1 15.263 1.26643 15.752C1.50079 16.1821 1.87474 16.5317 2.33469 16.7509C2.85759 17 3.54209 17 4.91111 17Z" stroke="#B9B9B9" stroke-width="2" stroke-linecap="round" stroke-linejoin="round"/>
</svg>
