<svg width="20" height="20" viewBox="0 0 20 20" fill="none" xmlns="http://www.w3.org/2000/svg">
<path d="M14.0601 12.5786H13.2019L12.8978 12.2699C13.9992 10.9251 14.6045 9.20834 14.6033 7.43282C14.6033 5.96275 14.1892 4.52569 13.4133 3.30337C12.6374 2.08105 11.5346 1.12837 10.2443 0.565793C8.95407 0.00322052 7.5343 -0.143974 6.16457 0.142823C4.79484 0.42962 3.53665 1.13753 2.54913 2.17702C1.56161 3.21652 0.889096 4.54092 0.616639 5.98275C0.344182 7.42457 0.484017 8.91907 1.01846 10.2772C1.5529 11.6354 2.45795 12.7963 3.61916 13.613C4.78036 14.4297 6.14557 14.8656 7.54214 14.8656C9.29114 14.8656 10.8989 14.191 12.1373 13.0703L12.4306 13.3905V14.2939L17.8623 20L19.481 18.2962L14.0601 12.5786ZM7.54214 12.5786C4.83716 12.5786 2.65363 10.2802 2.65363 7.43282C2.65363 4.58548 4.83716 2.28702 7.54214 2.28702C10.2471 2.28702 12.4306 4.58548 12.4306 7.43282C12.4306 10.2802 10.2471 12.5786 7.54214 12.5786Z" fill="#F3F4F6"/>
</svg>
