<svg width="21" height="19" viewBox="0 0 21 19" fill="none" xmlns="http://www.w3.org/2000/svg">
<path d="M10.5 2L13.0219 7.40945L19 8.11136L14.5802 12.1556L15.7534 17.9992L10.5 15.0894L5.24661 18L6.41981 12.1564L2 8.11055L7.97892 7.40864L10.5 2Z" fill="#FFC300"/>
<path d="M10.5 2L13.0219 7.40945L19 8.11136L14.5802 12.1556L15.7534 17.9992L10.5 15.0894L5.24661 18L6.41981 12.1564L2 8.11055L7.97892 7.40864L10.5 2Z" fill="#FFC300"/>
<path d="M10.5 2L13.0219 7.40945L19 8.11136L14.5802 12.1556L15.7534 17.9992L10.5 15.0894L5.24661 18L6.41981 12.1564L2 8.11055L7.97892 7.40864L10.5 2Z" stroke="#FFC300"/>
<path d="M10.5 2L13.0219 7.40945L19 8.11136L14.5802 12.1556L15.7534 17.9992L10.5 15.0894L5.24661 18L6.41981 12.1564L2 8.11055L7.97892 7.40864L10.5 2Z" stroke="#FFC300"/>
</svg>
