<svg width="24" height="24" viewBox="0 0 24 24" fill="none" xmlns="http://www.w3.org/2000/svg">
<g clip-path="url(#clip0_470_5767)">
<path d="M12 24C18.6274 24 24 18.6274 24 12C24 5.37258 18.6274 0 12 0C5.37258 0 0 5.37258 0 12C0 18.6274 5.37258 24 12 24Z" fill="#334C8C"/>
<path d="M15.0423 10.8647L14.8433 12.5353C14.8348 12.6129 14.7977 12.6845 14.7394 12.7364C14.6811 12.7883 14.6056 12.8168 14.5276 12.8163H12.7907V17.7742C12.7911 17.8334 12.7681 17.8904 12.7267 17.9327C12.6853 17.975 12.6289 17.9992 12.5697 18H10.7997C10.7702 17.9996 10.7411 17.9934 10.7141 17.9817C10.6871 17.9701 10.6626 17.9532 10.642 17.9321C10.6215 17.911 10.6053 17.886 10.5945 17.8587C10.5836 17.8313 10.5782 17.8021 10.5786 17.7726L10.5881 12.8163H9.27282C9.18907 12.8163 9.10875 12.783 9.04952 12.7238C8.9903 12.6646 8.95703 12.5843 8.95703 12.5005V10.83C8.95703 10.7462 8.9903 10.6659 9.04952 10.6067C9.10875 10.5475 9.18907 10.5142 9.27282 10.5142H10.5802V8.89421C10.5802 7.02 11.6949 6 13.3276 6H14.6649C14.7487 6 14.829 6.03327 14.8882 6.09249C14.9474 6.15171 14.9807 6.23204 14.9807 6.31579V7.72263C14.9807 7.80638 14.9474 7.88671 14.8882 7.94593C14.829 8.00515 14.7487 8.03842 14.6649 8.03842H13.8455C12.9581 8.05263 12.7907 8.47737 12.7907 9.1121V10.5095H14.7344C14.7787 10.5102 14.8224 10.5203 14.8626 10.5391C14.9028 10.5579 14.9386 10.5849 14.9676 10.6184C14.9967 10.6519 15.0183 10.6912 15.0312 10.7336C15.0441 10.7761 15.0478 10.8207 15.0423 10.8647Z" fill="white"/>
</g>
<defs>
<clipPath id="clip0_470_5767">
<rect width="24" height="24" fill="white"/>
</clipPath>
</defs>
</svg>
