<svg width="24" height="24" viewBox="0 0 24 24" fill="none" xmlns="http://www.w3.org/2000/svg">
<g clip-path="url(#clip0_470_5772)">
<path d="M12 24C18.6274 24 24 18.6274 24 12C24 5.37258 18.6274 0 12 0C5.37258 0 0 5.37258 0 12C0 18.6274 5.37258 24 12 24Z" fill="#00A6DE"/>
<path d="M17.9759 8.36852C17.6923 8.7946 17.3457 9.17524 16.948 9.49747C16.8979 9.53925 16.8577 9.59169 16.8304 9.65096C16.8031 9.71023 16.7893 9.77485 16.7901 9.8401V9.87958C16.7855 10.7353 16.6283 11.5833 16.3259 12.3838C16.0143 13.224 15.5514 13.9999 14.9601 14.6733C14.1655 15.5778 13.1433 16.2533 11.9996 16.6296C11.2481 16.8735 10.4623 16.9956 9.67223 16.9912C8.41876 16.991 7.18764 16.6593 6.10381 16.0296C6.06497 16.0075 6.0344 15.9733 6.01673 15.9323C5.99906 15.8913 5.99527 15.8456 6.00592 15.8022C6.01685 15.7595 6.04175 15.7217 6.07666 15.6948C6.11157 15.6679 6.15448 15.6535 6.19855 15.6538H6.49855C7.45112 15.6561 8.38262 15.3735 9.17329 14.8422C8.70209 14.7659 8.2611 14.561 7.89892 14.2501C7.53674 13.9392 7.26743 13.5343 7.12065 13.0801C7.11314 13.0574 7.11177 13.033 7.1167 13.0096C7.12163 12.9861 7.13267 12.9644 7.1487 12.9466C7.16474 12.9288 7.18519 12.9156 7.208 12.9082C7.2308 12.9009 7.25514 12.8997 7.27855 12.9048C7.42224 12.9319 7.56812 12.9456 7.71434 12.9459H7.7696C7.3142 12.7367 6.92914 12.4 6.66099 11.9766C6.39283 11.5532 6.25305 11.0612 6.25855 10.5601C6.25871 10.5367 6.26494 10.5136 6.27664 10.4933C6.28833 10.473 6.30509 10.456 6.32529 10.4441C6.34548 10.4322 6.36841 10.4257 6.39186 10.4253C6.4153 10.4249 6.43846 10.4305 6.45907 10.4417C6.64431 10.5451 6.84307 10.6222 7.0496 10.6706C6.64137 10.2667 6.37878 9.73873 6.30305 9.16948C6.22732 8.60023 6.34274 8.02194 6.63118 7.52537C6.64209 7.50629 6.65747 7.49016 6.67599 7.47833C6.69452 7.46651 6.71563 7.45936 6.73753 7.4575C6.75942 7.45564 6.78144 7.45912 6.80169 7.46764C6.82195 7.47616 6.83983 7.48947 6.85381 7.50642C7.4241 8.21253 8.13038 8.79691 8.93078 9.22491C9.73117 9.65291 10.6094 9.9158 11.5133 9.998H11.5259C11.5392 9.99761 11.5523 9.99453 11.5643 9.98893C11.5764 9.98334 11.5871 9.97535 11.596 9.96545C11.6049 9.95556 11.6116 9.94396 11.6159 9.93137C11.6201 9.91877 11.6217 9.90545 11.6207 9.89221C11.5854 9.57533 11.6057 9.25474 11.6807 8.94484C11.7825 8.5236 11.9917 8.13588 12.2877 7.81936C12.5837 7.50284 12.9566 7.2683 13.3701 7.13852C13.6354 7.05565 13.9117 7.01307 14.1896 7.01221C14.8198 7.01148 15.4285 7.24116 15.9012 7.658C15.9624 7.71278 16.0417 7.74313 16.1238 7.74326C16.1505 7.74269 16.177 7.73898 16.2028 7.73221C16.6469 7.61999 17.0723 7.44395 17.4659 7.20958C17.4895 7.19505 17.5169 7.18816 17.5446 7.18984C17.5722 7.19153 17.5986 7.20172 17.6202 7.219C17.6418 7.23629 17.6576 7.25984 17.6653 7.28641C17.673 7.31299 17.6723 7.3413 17.6633 7.36747C17.5319 7.78081 17.2977 8.15404 16.9828 8.45221C17.2665 8.38455 17.5435 8.291 17.8101 8.17273C17.8364 8.16257 17.8653 8.16086 17.8926 8.16784C17.9199 8.17482 17.9444 8.19013 17.9627 8.21166C17.9809 8.23319 17.992 8.25987 17.9943 8.28798C17.9967 8.31609 17.9903 8.34424 17.9759 8.36852Z" fill="white"/>
</g>
<defs>
<clipPath id="clip0_470_5772">
<rect width="24" height="24" fill="white"/>
</clipPath>
</defs>
</svg>
