<svg width="24" height="24" viewBox="0 0 24 24" fill="none" xmlns="http://www.w3.org/2000/svg">
<g clip-path="url(#clip0_470_5777)">
<path d="M12 24C18.6274 24 24 18.6274 24 12C24 5.37258 18.6274 0 12 0C5.37258 0 0 5.37258 0 12C0 18.6274 5.37258 24 12 24Z" fill="#0B69C7"/>
<path d="M9.31696 7.63737C9.31727 7.96166 9.22137 8.27875 9.0414 8.54851C8.86143 8.81828 8.60548 9.02859 8.30594 9.15284C8.00639 9.27708 7.67673 9.30967 7.35866 9.24648C7.04058 9.18329 6.74841 9.02716 6.5191 8.79786C6.28979 8.56855 6.13367 8.27637 6.07048 7.9583C6.00729 7.64023 6.03988 7.31056 6.16412 7.01102C6.28837 6.71148 6.49868 6.45552 6.76845 6.27556C7.03821 6.09559 7.3553 5.99969 7.67959 6C8.11372 6.00042 8.52995 6.17306 8.83692 6.48004C9.1439 6.78701 9.31654 7.20324 9.31696 7.63737Z" fill="white"/>
<path d="M8.54406 9.9585H6.81985C6.59574 9.9585 6.41406 10.1402 6.41406 10.3643V17.5943C6.41406 17.8184 6.59574 18.0001 6.81985 18.0001H8.54406C8.76817 18.0001 8.94985 17.8184 8.94985 17.5943V10.3643C8.94985 10.1402 8.76817 9.9585 8.54406 9.9585Z" fill="white"/>
<path d="M17.9625 14.1269V17.6275C17.9625 17.7263 17.9232 17.8211 17.8533 17.8909C17.7835 17.9608 17.6887 18.0001 17.5898 18.0001H15.7393C15.6405 18.0001 15.5457 17.9608 15.4758 17.8909C15.4059 17.8211 15.3667 17.7263 15.3667 17.6275V14.2359C15.3667 13.729 15.5135 12.0254 14.0435 12.0254C12.9035 12.0254 12.6714 13.1969 12.6225 13.7227V17.6354C12.6204 17.7323 12.5807 17.8246 12.5117 17.8927C12.4427 17.9608 12.3499 17.9993 12.253 18.0001H10.4625C10.4135 18.0003 10.3649 17.9908 10.3196 17.9721C10.2743 17.9535 10.2332 17.9261 10.1985 17.8914C10.1639 17.8568 10.1364 17.8156 10.1178 17.7703C10.0991 17.725 10.0896 17.6765 10.0898 17.6275V10.3327C10.0896 10.2837 10.0991 10.235 10.1178 10.1896C10.1364 10.1442 10.1638 10.103 10.1984 10.0682C10.2331 10.0334 10.2742 10.0058 10.3195 9.98702C10.3648 9.9682 10.4134 9.95851 10.4625 9.95851H12.253C12.3027 9.95767 12.352 9.96673 12.3981 9.98516C12.4443 10.0036 12.4863 10.031 12.5217 10.0659C12.5571 10.1007 12.5853 10.1422 12.6045 10.188C12.6237 10.2339 12.6335 10.283 12.6335 10.3327V10.9643C13.0567 10.3327 13.6851 9.84009 15.0225 9.84009C17.9798 9.83851 17.9625 12.6064 17.9625 14.1269Z" fill="white"/>
</g>
<defs>
<clipPath id="clip0_470_5777">
<rect width="24" height="24" fill="white"/>
</clipPath>
</defs>
</svg>
