<svg width="18" height="18" viewBox="0 0 18 18" fill="none" xmlns="http://www.w3.org/2000/svg">
<path d="M11.7118 8.34627C12.8635 7.50628 13.6136 6.14686 13.6136 4.61538C13.6136 2.07046 11.5431 0 8.99818 0C6.45326 0 4.3828 2.07046 4.3828 4.61538C4.3828 6.14686 5.13279 7.50628 6.28458 8.34627C3.42145 9.44191 1.38281 12.2179 1.38281 15.4615C1.38281 16.8613 2.52156 18 3.92127 18H14.0751C15.4748 18 16.6136 16.8613 16.6136 15.4615C16.6136 12.2179 14.5749 9.44191 11.7118 8.34627ZM5.76743 4.61538C5.76743 2.83395 7.21675 1.38463 8.99818 1.38463C10.7796 1.38463 12.2289 2.83395 12.2289 4.61538C12.2289 6.39682 10.7796 7.84617 8.99818 7.84617C7.21675 7.84617 5.76743 6.39682 5.76743 4.61538ZM14.0751 16.6154H3.92127C3.28505 16.6154 2.76744 16.0978 2.76744 15.4615C2.76744 12.0258 5.5625 9.23073 8.99822 9.23073C12.4339 9.23073 15.229 12.0258 15.229 15.4615C15.229 16.0978 14.7114 16.6154 14.0751 16.6154Z" fill="#182951"/>
</svg>
