<svg width="18" height="18" viewBox="0 0 18 18" fill="none" xmlns="http://www.w3.org/2000/svg">
<g clip-path="url(#clip0_758_4293)">
<path d="M17.9114 9.23523L15.9618 6.36369L17.9114 3.49215C18.0025 3.35518 18.0247 3.18422 17.9716 3.02869C17.9181 2.87316 17.7955 2.75109 17.6395 2.69963L11.2762 0.590267C11.0486 0.513522 10.8024 0.60004 10.6706 0.797793L8.99998 3.30368L7.32936 0.797793C7.19651 0.599021 6.94827 0.512994 6.72373 0.590267L0.3605 2.69963C0.204478 2.75113 0.0818893 2.87319 0.0283467 3.02869C-0.0247036 3.18422 -0.00255538 3.35518 0.0886041 3.49218L2.03814 6.36372L0.0886392 9.23523C-0.00252023 9.37219 -0.0246685 9.54319 0.0283819 9.69872C0.0819244 9.85425 0.204513 9.97631 0.360536 10.0278L6.72377 12.1371C6.94771 12.2124 7.19683 12.1284 7.3294 11.9296L9.00001 9.42373L10.6706 11.9296C10.8033 12.1286 11.0526 12.2124 11.2763 12.1371L17.6395 10.0278C17.7955 9.97628 17.9181 9.85422 17.9716 9.69872C18.0247 9.54319 18.0025 9.37223 17.9114 9.23523ZM9.00001 7.9174L4.33893 6.36372L9.00001 4.81004L13.6611 6.36372L9.00001 7.9174Z" fill="#F37224"/>
<path d="M11.6099 13.1378C10.9461 13.3604 10.1957 13.1189 9.79299 12.5146L8.99998 11.3251L8.20686 12.5146C7.80499 13.1178 7.05543 13.3615 6.38743 13.1367L2.14453 11.7225V14.8011C2.14453 15.0282 2.28976 15.2296 2.50502 15.3012L8.83 17.4095C8.84906 17.4162 8.86811 17.4214 8.88717 17.4255C8.88717 17.4255 8.88769 17.4255 8.88769 17.426H8.88822C8.92531 17.4337 8.96289 17.4379 8.99998 17.4379C9.03964 17.4379 9.07876 17.4332 9.11789 17.4245C9.1354 17.4203 9.15238 17.4157 9.1694 17.41L15.4949 15.3012C15.7101 15.2296 15.8554 15.0282 15.8554 14.8011V11.7226L11.6099 13.1378Z" fill="#F37224"/>
</g>
<defs>
<clipPath id="clip0_758_4293">
<rect width="18" height="18" fill="white"/>
</clipPath>
</defs>
</svg>
