<svg width="22" height="20" viewBox="0 0 22 20" fill="none" xmlns="http://www.w3.org/2000/svg">
<g clip-path="url(#clip0_747_4249)">
<path d="M21.2786 4.21732C21.1056 4.04852 20.8688 3.96168 20.6277 3.96168H16.5909C16.1593 3.96168 15.8097 4.31245 15.8097 4.74567C15.8097 5.17889 16.1593 5.52966 16.5909 5.52966H19.8601L18.5836 12.5334H6.83104L5.55448 5.52966H9.07402C9.50569 5.52966 9.85522 5.17889 9.85522 4.74567C9.85522 4.31245 9.50569 3.96168 9.07402 3.96168H5.26864L4.98961 2.43077C4.82725 1.53896 4.05382 0.891571 3.15061 0.891571H1.24938C0.828883 0.891571 0.467207 1.21502 0.446304 1.63605C0.423942 2.08634 0.782701 2.45956 1.22653 2.45956H2.90609C3.1963 2.45956 3.44471 2.66738 3.49721 2.95376L5.39358 13.3564C5.47233 13.7877 5.84664 14.1009 6.28367 14.1009H19.1324C19.5694 14.1009 19.9437 13.7877 20.0225 13.3564L21.5397 5.03253C21.5936 4.73543 21.4983 4.431 21.2791 4.21683L21.2786 4.21732Z" fill="white"/>
<path d="M10.0473 17.6898C10.1094 16.6859 9.34875 15.8216 8.34845 15.7594C7.34814 15.6971 6.48692 16.4604 6.42487 17.4643C6.36281 18.4682 7.12341 19.3325 8.12371 19.3947C9.12402 19.457 9.98524 18.6937 10.0473 17.6898Z" fill="white"/>
<path d="M18.7915 18.3617C19.2236 17.4542 18.8408 16.367 17.9365 15.9333C17.0322 15.4997 15.9489 15.8838 15.5168 16.7913C15.0847 17.6989 15.4675 18.7861 16.3717 19.2198C17.276 19.6534 18.3594 19.2692 18.7915 18.3617Z" fill="white"/>
<path d="M10.0043 7.27425C9.90172 7.52306 9.95568 7.79577 10.1453 7.98604L12.3513 10.2C12.4918 10.3409 12.676 10.4112 12.8603 10.4112C13.0445 10.4112 13.2292 10.3409 13.3692 10.2L15.5753 7.98604C15.7649 7.79577 15.8188 7.52257 15.7162 7.27425C15.6137 7.02544 15.3832 6.87079 15.1149 6.87079C14.9409 6.87079 14.7775 6.9386 14.6545 7.06203L13.5112 8.20948V1.78923C13.5112 1.42919 13.219 1.13599 12.8603 1.13599C12.5015 1.13599 12.2093 1.42919 12.2093 1.78923V8.20948L11.066 7.06203C10.943 6.9386 10.7797 6.87079 10.6056 6.87079C10.3373 6.87079 10.1069 7.02544 10.0043 7.27425Z" fill="white"/>
</g>
<defs>
<clipPath id="clip0_747_4249">
<rect width="21.1084" height="18.506" fill="white" transform="translate(0.445312 0.891571)"/>
</clipPath>
</defs>
</svg>
