<svg width="18" height="18" viewBox="0 0 18 18" fill="none" xmlns="http://www.w3.org/2000/svg">
<path d="M9 1.6875C7.55373 1.6875 6.13993 2.11637 4.9374 2.91988C3.73486 3.72339 2.7976 4.86544 2.24413 6.20163C1.69067 7.53781 1.54586 9.00811 1.82801 10.4266C2.11017 11.8451 2.80661 13.148 3.82928 14.1707C4.85196 15.1934 6.15492 15.8898 7.57341 16.172C8.99189 16.4541 10.4622 16.3093 11.7984 15.7559C13.1346 15.2024 14.2766 14.2651 15.0801 13.0626C15.8836 11.8601 16.3125 10.4463 16.3125 9C16.3105 7.06123 15.5394 5.20246 14.1685 3.83154C12.7975 2.46063 10.9388 1.68955 9 1.6875ZM12.9375 9.5625H9C8.85082 9.5625 8.70775 9.50324 8.60226 9.39775C8.49677 9.29226 8.4375 9.14918 8.4375 9V5.0625C8.4375 4.91332 8.49677 4.77024 8.60226 4.66475C8.70775 4.55926 8.85082 4.5 9 4.5C9.14919 4.5 9.29226 4.55926 9.39775 4.66475C9.50324 4.77024 9.5625 4.91332 9.5625 5.0625V8.4375H12.9375C13.0867 8.4375 13.2298 8.49676 13.3353 8.60225C13.4407 8.70774 13.5 8.85082 13.5 9C13.5 9.14918 13.4407 9.29226 13.3353 9.39775C13.2298 9.50324 13.0867 9.5625 12.9375 9.5625Z" fill="#F7F9FD"/>
</svg>
