<svg width="18" height="18" viewBox="0 0 18 18" fill="none" xmlns="http://www.w3.org/2000/svg">
<g clip-path="url(#clip0_758_4308)">
<path d="M11.2511 17.0612C11.0486 17.0612 10.8611 16.9487 10.7636 16.7762C10.6661 16.5962 10.6661 16.3862 10.7711 16.2062L11.5586 14.8937C11.7161 14.6237 12.0686 14.5412 12.3311 14.6987C12.6011 14.8562 12.6836 15.2012 12.5261 15.4712L12.3236 15.8087C14.3936 15.3212 15.9461 13.4612 15.9461 11.2412C15.9461 10.9337 16.2011 10.6787 16.5086 10.6787C16.8161 10.6787 17.0711 10.9337 17.0711 11.2412C17.0636 14.4512 14.4536 17.0612 11.2511 17.0612Z" fill="#F37224"/>
<path d="M1.5 7.3125C1.1925 7.3125 0.9375 7.0575 0.9375 6.75C0.9375 3.5475 3.5475 0.9375 6.75 0.9375C6.9525 0.9375 7.14 1.05 7.2375 1.2225C7.335 1.4025 7.335 1.6125 7.23 1.7925L6.4425 3.105C6.285 3.3675 5.94 3.4575 5.67 3.2925C5.4075 3.135 5.3175 2.79 5.4825 2.52L5.685 2.1825C3.6075 2.67 2.0625 4.53 2.0625 6.75C2.0625 7.0575 1.8075 7.3125 1.5 7.3125Z" fill="#F37224"/>
<path d="M11.1 9.4719V11.6769C11.1 13.5144 10.365 14.2494 8.5275 14.2494H6.3225C4.485 14.2494 3.75 13.5144 3.75 11.6769V9.4719C3.75 7.6344 4.485 6.89941 6.3225 6.89941H8.5275C10.365 6.89941 11.1 7.6344 11.1 9.4719Z" fill="#F37224"/>
<path d="M11.6801 3.75H9.47513C7.66763 3.75 6.93266 4.47 6.91016 6.24H8.53013C10.7351 6.24 11.7551 7.2675 11.7551 9.465V11.085C13.5326 11.0625 14.2451 10.3275 14.2451 8.52V6.3225C14.2526 4.485 13.5176 3.75 11.6801 3.75Z" fill="#F37224"/>
</g>
<defs>
<clipPath id="clip0_758_4308">
<rect width="18" height="18" fill="white"/>
</clipPath>
</defs>
</svg>
