<svg width="25" height="24" viewBox="0 0 25 24" fill="none" xmlns="http://www.w3.org/2000/svg">
<g clip-path="url(#clip0_570_2970)">
<path d="M24.0735 4.53907C23.7625 4.17148 23.3271 3.94695 22.8472 3.90687L5.94615 2.49566C5.46625 2.45558 4.99965 2.60478 4.63201 2.9157C4.26588 3.2254 4.04167 3.65867 4.00033 4.13618L3.6603 7.32629H2.30257C1.30864 7.32629 0.5 8.13493 0.5 9.12886V19.7086C0.5 20.7025 1.30864 21.5112 2.30257 21.5112H19.2625C20.2565 21.5112 21.0651 20.7025 21.0651 19.7086V17.9924L21.6669 18.0426C21.7177 18.0468 21.7682 18.049 21.8182 18.049C22.7449 18.049 23.5348 17.336 23.6133 16.3963L24.4936 5.85325C24.5337 5.37339 24.3845 4.90671 24.0735 4.53907ZM2.30257 8.26379H19.2625C19.7395 8.26379 20.1276 8.65187 20.1276 9.12886V10.0929H1.4375V9.12886C1.4375 8.65187 1.82557 8.26379 2.30257 8.26379ZM1.4375 11.0304H20.1276V12.9752H1.4375V11.0304ZM19.2625 20.5737H2.30257C1.82557 20.5737 1.4375 20.1856 1.4375 19.7086V13.9127H20.1276V19.7086C20.1276 20.1856 19.7395 20.5737 19.2625 20.5737ZM23.5594 5.7752L22.679 16.3182C22.6393 16.7936 22.2202 17.1482 21.7449 17.1084L21.0651 17.0516V9.12886C21.0651 8.13493 20.2565 7.32629 19.2625 7.32629H4.60314L4.93309 4.23068C4.93347 4.22712 4.93379 4.2236 4.93408 4.21999C4.97378 3.74464 5.39265 3.39007 5.86815 3.42992L22.7692 4.84113C22.9995 4.86035 23.2086 4.96811 23.3578 5.14455C23.507 5.32099 23.5786 5.54491 23.5594 5.7752Z" fill="#040F25"/>
<path d="M18.1676 15.3066H13.6562C13.3974 15.3066 13.1875 15.5165 13.1875 15.7754V18.7186C13.1875 18.9775 13.3974 19.1874 13.6562 19.1874H18.1676C18.4265 19.1874 18.6363 18.9775 18.6363 18.7186V15.7754C18.6363 15.5165 18.4265 15.3066 18.1676 15.3066ZM17.6988 18.2499H14.125V16.2441H17.6988V18.2499Z" fill="#040F25"/>
</g>
<defs>
<clipPath id="clip0_570_2970">
<rect width="24" height="24" fill="white" transform="translate(0.5)"/>
</clipPath>
</defs>
</svg>
