<svg width="18" height="18" viewBox="0 0 18 18" fill="none" xmlns="http://www.w3.org/2000/svg">
<path d="M13.5716 16.7077L12.6791 17.4352C8.48286 20.8627 -3.30714 6.42515 0.88911 2.99767L1.78159 2.27017L5.23159 6.48892C3.93784 8.35266 8.04784 13.3814 10.1253 12.4889L13.5716 16.7077Z" fill="#F37224"/>
<path d="M14.0057 16.3521L14.718 15.7704C15.2854 15.307 15.3697 14.4714 14.9064 13.904L13.1686 11.776C12.7052 11.2085 11.8696 11.1242 11.3022 11.5875L10.5898 12.1692L14.0057 16.3521Z" fill="#F37224"/>
<path d="M5.63065 6.0966L6.34297 5.5149C6.91038 5.05154 6.99473 4.21592 6.53136 3.64849L4.79357 1.52049C4.3302 0.953063 3.49458 0.868714 2.92716 1.33208L2.21484 1.91378L5.63065 6.0966Z" fill="#F37224"/>
<path d="M13.2756 0.0426636C10.6656 0.0426636 8.54688 2.1614 8.54688 4.76766C8.54688 7.37766 10.6656 9.4964 13.2756 9.4964C15.8894 9.4964 18.0006 7.37767 18.0006 4.76766C18.0006 2.1614 15.8894 0.0426636 13.2756 0.0426636ZM15.5031 5.32265C15.8069 5.49891 15.9081 5.88515 15.7356 6.19265C15.5526 6.51142 15.1425 6.58948 14.8694 6.4214L13.9094 5.86641V6.97641C13.9094 7.32516 13.6244 7.61392 13.2756 7.61392C12.9216 7.61392 12.6381 7.32225 12.6381 6.97641V5.8664L11.6781 6.4214C11.3744 6.59766 10.9844 6.49265 10.8119 6.19265C10.6381 5.89937 10.7326 5.50162 11.0444 5.32264L12.0044 4.76765L11.0444 4.21266C10.7406 4.04015 10.6356 3.65391 10.8119 3.34641C10.9753 3.06176 11.3437 2.92807 11.6781 3.11391L12.6381 3.6689V2.5589C12.6381 2.21015 12.9231 1.92515 13.2756 1.92515C13.6445 1.92515 13.9094 2.23678 13.9094 2.5589V3.66891L14.8694 3.11391C15.1694 2.94141 15.5594 3.04266 15.7356 3.34641C15.918 3.67456 15.7952 4.04496 15.5031 4.21266L14.5431 4.76766L15.5031 5.32265Z" fill="#F37224"/>
</svg>
