<svg width="34" height="34" viewBox="0 0 34 34" fill="none" xmlns="http://www.w3.org/2000/svg">
<g clip-path="url(#clip0_626_3697)">
<path d="M17 13.7217C20.1907 13.7217 22.7773 11.1351 22.7773 7.94434C22.7773 4.7536 20.1907 2.16699 17 2.16699C13.8093 2.16699 11.2227 4.7536 11.2227 7.94434C11.2227 11.1351 13.8093 13.7217 17 13.7217Z" fill="#F7F9FD"/>
<path d="M28.6875 13.7217C30.7046 13.7217 32.3398 12.0865 32.3398 10.0693C32.3398 8.0522 30.7046 6.41699 28.6875 6.41699C26.6704 6.41699 25.0352 8.0522 25.0352 10.0693C25.0352 12.0865 26.6704 13.7217 28.6875 13.7217Z" fill="#F7F9FD"/>
<path d="M5.3125 13.7217C7.32963 13.7217 8.96484 12.0865 8.96484 10.0693C8.96484 8.0522 7.32963 6.41699 5.3125 6.41699C3.29537 6.41699 1.66016 8.0522 1.66016 10.0693C1.66016 12.0865 3.29537 13.7217 5.3125 13.7217Z" fill="#F7F9FD"/>
<path d="M8.91105 17.0015C7.47336 15.8236 6.17133 15.9795 4.50898 15.9795C2.02273 15.9795 0 17.9903 0 20.4612V27.7135C0 28.7866 0.875898 29.6592 1.95301 29.6592C6.60317 29.6592 6.04297 29.7433 6.04297 29.4586C6.04297 24.3197 5.43429 20.5511 8.91105 17.0015Z" fill="#F7F9FD"/>
<path d="M18.5806 16.0061C15.677 15.7639 13.1533 16.0089 10.9764 17.8057C7.33357 20.7236 8.03462 24.6524 8.03462 29.4587C8.03462 30.7303 9.06923 31.7842 10.3602 31.7842C24.3773 31.7842 24.9352 32.2364 25.7664 30.3957C26.039 29.7732 25.9643 29.971 25.9643 24.016C25.9643 19.2862 21.8688 16.0061 18.5806 16.0061Z" fill="#F7F9FD"/>
<path d="M29.4919 15.9793C27.8205 15.9793 26.5256 15.825 25.0898 17.0013C28.5406 20.5246 27.9579 24.0361 27.9579 29.4585C27.9579 29.7449 27.4929 29.659 31.9782 29.659C33.0938 29.659 34.0009 28.7552 34.0009 27.6442V20.4611C34.0009 17.9901 31.9782 15.9793 29.4919 15.9793Z" fill="#F7F9FD"/>
</g>
<defs>
<clipPath id="clip0_626_3697">
<rect width="34" height="34" fill="white"/>
</clipPath>
</defs>
</svg>
