<svg width="34" height="34" viewBox="0 0 34 34" fill="none" xmlns="http://www.w3.org/2000/svg">
<g clip-path="url(#clip0_626_3673)">
<path d="M33.7437 13.6857C33.3752 13.2773 32.745 13.2454 32.3366 13.614L29.3164 16.3426C29.5528 16.4708 29.7726 16.6315 29.9698 16.8214C30.264 17.1056 30.4951 17.4483 30.6512 17.8221L33.6727 15.0922C34.0804 14.7236 34.1123 14.0934 33.7437 13.6857Z" fill="#F7F9FD"/>
<path d="M0.25686 13.6857C-0.111695 14.0934 -0.07982 14.7236 0.327914 15.0922L3.3494 17.8221C3.50545 17.4483 3.73655 17.1063 4.03073 16.8221C4.22795 16.6321 4.44776 16.4714 4.68416 16.3426L1.66401 13.614C1.25561 13.2454 0.625414 13.2773 0.25686 13.6857Z" fill="#F7F9FD"/>
<path d="M10.5859 23.2842H23.413L27.3973 17.9717H6.60156L10.5859 23.2842Z" fill="#F7F9FD"/>
<path d="M23.911 25.2764H10.0879C9.77445 25.2764 9.47895 25.1283 9.29102 24.8779L5.10742 19.2998V33.0041C5.10742 33.5539 5.55367 34.0002 6.10352 34.0002H27.8954C28.4452 34.0002 28.8915 33.5539 28.8915 33.0041V19.2998L24.7079 24.8779C24.52 25.1283 24.2245 25.2764 23.911 25.2764Z" fill="#F7F9FD"/>
<path d="M23.4481 10.2455L23.4631 12.2277C23.4655 12.5439 23.6179 12.8402 23.8737 13.026C24.1295 13.2119 24.4583 13.2651 24.7598 13.1698L26.6497 12.5716L28.5396 13.1698C28.5857 13.1844 29.0271 13.3156 29.4258 13.026C29.8244 12.7363 29.8359 12.2761 29.8363 12.2277L29.8513 10.2455L31.0044 8.63301C31.0325 8.59363 31.2937 8.21445 31.1414 7.74589C30.9892 7.27726 30.5549 7.124 30.5091 7.10866L28.6285 6.48185L27.4512 4.88697C27.4225 4.84805 27.1425 4.48242 26.6498 4.48242C26.157 4.48242 25.8771 4.84805 25.8484 4.88697L24.6711 6.48185L22.7905 7.10866C22.4905 7.20866 22.2559 7.44507 22.1581 7.74589C22.0604 8.04658 22.1113 8.37582 22.2952 8.63301L23.4481 10.2455Z" fill="#F7F9FD"/>
<path d="M4.14741 10.2455L4.16242 12.2277C4.16282 12.2761 4.17437 12.7364 4.57301 13.026C4.97165 13.3156 5.41298 13.1844 5.45913 13.1698L7.34906 12.5716L9.23891 13.1698C9.285 13.1844 9.7264 13.3156 10.125 13.026C10.5237 12.7363 10.5352 12.2761 10.5356 12.2277L10.5506 10.2455L11.7036 8.63301C11.8876 8.37582 11.9385 8.04658 11.8407 7.74589C11.743 7.44514 11.5083 7.20866 11.2083 7.10866L9.32776 6.48185L8.15038 4.88697C7.96258 4.63257 7.66522 4.48242 7.34899 4.48242C7.03283 4.48242 6.7354 4.63257 6.5476 4.88697L5.37028 6.48178L3.48966 7.10859C3.1897 7.2086 2.95502 7.445 2.85734 7.74582C2.75965 8.04651 2.81052 8.37575 2.9944 8.63295L4.14741 10.2455Z" fill="#F7F9FD"/>
<path d="M13.7979 5.7634L13.8125 7.74563C13.8129 7.79403 13.8247 8.25436 14.2235 8.54383C14.6221 8.83309 15.0632 8.70188 15.1094 8.68727L16.9993 8.08895L18.8892 8.68727C18.9355 8.70188 19.3765 8.83309 19.7751 8.54383C20.1739 8.25443 20.1858 7.79403 20.1862 7.74563L20.2008 5.7634L21.3536 4.15039C21.5375 3.8934 21.5887 3.56402 21.491 3.2632C21.3934 2.96238 21.1584 2.72598 20.8589 2.62637L18.9782 1.99949L17.8009 0.404414C17.6129 0.150078 17.3154 0 16.9993 0C16.6832 0 16.3857 0.150078 16.1978 0.404414L15.0204 1.99949L13.1398 2.62637C12.8403 2.72598 12.6052 2.96238 12.5076 3.2632C12.41 3.56402 12.4611 3.8934 12.6451 4.15039L13.7979 5.7634Z" fill="#F7F9FD"/>
</g>
<defs>
<clipPath id="clip0_626_3673">
<rect width="34" height="34" fill="white"/>
</clipPath>
</defs>
</svg>
