<svg width="18" height="18" viewBox="0 0 18 18" fill="none" xmlns="http://www.w3.org/2000/svg">
<g clip-path="url(#clip0_553_2397)">
<path d="M16.7063 11.7141C16.2703 11.5031 15.743 11.6895 15.532 12.1254C14.9484 13.3383 14.0414 14.3648 12.9059 15.0961C11.7422 15.8449 10.3922 16.2422 9 16.2422C5.00625 16.2422 1.75781 12.9937 1.75781 9C1.75781 5.00625 5.00625 1.75781 9 1.75781C10.3922 1.75781 11.7422 2.15508 12.9094 2.90039C14.0449 3.62812 14.952 4.6582 15.5355 5.87109C15.7465 6.30703 16.2703 6.49336 16.7098 6.28242C17.1457 6.07148 17.332 5.54766 17.1211 5.1082C16.3969 3.6 15.2719 2.32383 13.8586 1.42031C12.4102 0.492188 10.7297 0 9 0C6.59531 0 4.33477 0.935156 2.63672 2.63672C0.935156 4.33477 0 6.59531 0 9C0 11.4047 0.935156 13.6652 2.63672 15.3633C4.33828 17.0648 6.59531 18 9 18C10.7297 18 12.4102 17.5078 13.8586 16.5762C15.2684 15.6691 16.3969 14.393 17.1211 12.8883C17.3285 12.4488 17.1457 11.925 16.7063 11.7141Z" fill="#FF0000"/>
<path d="M9.46797 12.4207C9.64023 12.593 9.86523 12.6773 10.0902 12.6773C10.3152 12.6773 10.5402 12.593 10.7125 12.4207L12.9238 10.2094C13.2473 9.88593 13.423 9.45703 13.423 9.00351C13.423 8.55 13.2437 8.11758 12.9238 7.79765L10.7125 5.58633C10.368 5.24179 9.8125 5.24179 9.46797 5.58633C9.12344 5.93086 9.12344 6.48633 9.46797 6.83086L10.7652 8.12812H5.76953C5.28437 8.12812 4.89062 8.52187 4.89062 9.00703C4.89062 9.49219 5.28437 9.88594 5.76953 9.88594H10.7687L9.47148 11.1832C9.12695 11.5207 9.12695 12.0762 9.46797 12.4207Z" fill="#FF0000"/>
</g>
<defs>
<clipPath id="clip0_553_2397">
<rect width="18" height="18" fill="white"/>
</clipPath>
</defs>
</svg>
