<svg width="24" height="24" viewBox="0 0 24 24" fill="none" xmlns="http://www.w3.org/2000/svg">
<path d="M6.6672 7.63686C6.56033 8.77686 6.48533 10.7944 7.15845 11.6531C7.15845 11.6531 6.84158 9.43686 9.6822 6.65623C10.826 5.53686 11.0903 4.01436 10.691 2.87248C10.4641 2.22561 10.0497 1.69123 9.6897 1.31811C9.4797 1.09873 9.64095 0.736856 9.94658 0.749981C11.7953 0.832481 14.7916 1.34623 16.0647 4.54123C16.6235 5.94373 16.6647 7.39311 16.3985 8.86686C16.2297 9.80811 15.6297 11.9006 16.9985 12.1575C17.9753 12.3412 18.4478 11.565 18.6597 11.0062C18.7478 10.7737 19.0535 10.7156 19.2185 10.9012C20.8685 12.7781 21.0091 14.9887 20.6678 16.8919C20.0078 20.5706 16.2822 23.2481 12.581 23.2481C7.9572 23.2481 4.27658 20.6025 3.3222 15.8137C2.93783 13.8806 3.13283 10.0556 6.11408 7.35561C6.33533 7.15311 6.6972 7.33311 6.6672 7.63686Z" fill="url(#paint0_radial_412_9584)"/>
<path d="M14.2708 14.5162C12.5664 12.3225 13.3295 9.81934 13.7476 8.82184C13.8039 8.69059 13.6539 8.56683 13.5358 8.64746C12.8026 9.14621 11.3008 10.32 10.6014 11.9718C9.6545 14.205 9.722 15.2981 10.2826 16.6331C10.6201 17.4375 10.2283 17.6081 10.0314 17.6381C9.84013 17.6681 9.66388 17.5406 9.52325 17.4075C9.1187 17.0191 8.83041 16.5256 8.69075 15.9825C8.66075 15.8662 8.50888 15.8343 8.4395 15.93C7.9145 16.6556 7.64263 17.82 7.6295 18.6431C7.58825 21.1875 9.69013 23.25 12.2326 23.25C15.437 23.25 17.7714 19.7062 15.9301 16.7437C15.3958 15.8812 14.8933 15.3168 14.2708 14.5162Z" fill="url(#paint1_radial_412_9584)"/>
<defs>
<radialGradient id="paint0_radial_412_9584" cx="0" cy="0" r="1" gradientUnits="userSpaceOnUse" gradientTransform="translate(11.6652 23.3064) rotate(-179.751) scale(13.2352 21.7163)">
<stop offset="0.314" stop-color="#FF9800"/>
<stop offset="0.662" stop-color="#FF6D00"/>
<stop offset="0.972" stop-color="#F44336"/>
</radialGradient>
<radialGradient id="paint1_radial_412_9584" cx="0" cy="0" r="1" gradientUnits="userSpaceOnUse" gradientTransform="translate(12.4089 10.1359) rotate(90.5787) scale(13.8481 10.4217)">
<stop offset="0.214" stop-color="#FFF176"/>
<stop offset="0.328" stop-color="#FFF27D"/>
<stop offset="0.487" stop-color="#FFF48F"/>
<stop offset="0.672" stop-color="#FFF7AD"/>
<stop offset="0.793" stop-color="#FFF9C4"/>
<stop offset="0.822" stop-color="#FFF8BD" stop-opacity="0.804"/>
<stop offset="0.863" stop-color="#FFF6AB" stop-opacity="0.529"/>
<stop offset="0.91" stop-color="#FFF38D" stop-opacity="0.209"/>
<stop offset="0.941" stop-color="#FFF176" stop-opacity="0"/>
</radialGradient>
</defs>
</svg>
