<svg width="39" height="30" viewBox="0 0 39 30" fill="none" xmlns="http://www.w3.org/2000/svg">
<path opacity="0.5" d="M0 30V21.0867C0 18.5557 0.481632 15.9697 1.4449 13.3287C2.40816 10.6878 3.67913 8.19807 5.25781 5.8597C6.8365 3.52132 8.54896 1.56809 10.3952 0L17.9408 4.58047C16.4424 7.00138 15.2115 9.53232 14.2483 12.1733C13.3118 14.8143 12.8435 17.7579 12.8435 21.0041V30H0ZM20.2687 30V21.0867C20.2687 18.5557 20.7503 15.9697 21.7136 13.3287C22.6768 10.6878 23.9478 8.19807 25.5265 5.8597C27.1052 3.52132 28.8176 1.56809 30.6639 0L38.2095 4.58047C36.7111 7.00138 35.4802 9.53232 34.5169 12.1733C33.5804 14.8143 33.1122 17.7579 33.1122 21.0041V30H20.2687Z" fill="#182951"/>
</svg>
