<svg width="100" height="70" viewBox="0 0 100 70" fill="none" xmlns="http://www.w3.org/2000/svg">
<path opacity="0.12" d="M42.5738 47.3482C42.5738 61.7574 30.2899 69.2308 21.7192 69.2308C13.1485 69.2308 0 60.5545 0 44.3538C0 19.6303 18.8454 1.79155 32.2737 0C33.2655 1.79155 34.5626 4.50448 34.5626 4.50448C28.5605 7.06385 12.0041 18.8881 11.1394 29.6886C15.7172 26.6942 17.6755 25.1841 23.1434 25.1841C34.5626 25.1841 42.5738 36.2662 42.5738 47.3738V47.3482ZM100 47.3482C100 61.7574 87.7162 69.2308 79.1455 69.2308C70.5748 69.2308 57.4262 60.5545 57.4262 44.3538C57.4262 19.6303 76.2716 1.79155 89.6999 0C90.6918 1.79155 91.9888 4.50448 91.9888 4.50448C85.9868 7.06385 69.4303 18.8881 68.5656 29.6886C73.1434 26.6942 75.1017 25.1841 80.5697 25.1841C91.9888 25.1841 100 36.2662 100 47.3738V47.3482Z" fill="#182951"/>
</svg>
