<svg width="25" height="24" viewBox="0 0 25 24" fill="none" xmlns="http://www.w3.org/2000/svg">
<g clip-path="url(#clip0_412_4876)">
<path d="M19.5312 1.45312H13.9062C11.1926 1.45312 8.98438 3.66136 8.98438 6.375C8.98438 8.85038 10.8212 10.9048 13.2031 11.2468V13.4062C13.2031 13.6905 13.3741 13.9473 13.6371 14.0558C13.8965 14.164 14.2007 14.106 14.4034 13.9034L17.0099 11.2969H19.5312C22.2449 11.2969 24.5 9.08864 24.5 6.375C24.5 3.66136 22.2449 1.45312 19.5312 1.45312ZM13.9062 7.07803C13.5178 7.07803 13.2031 6.76322 13.2031 6.37491C13.2031 5.98659 13.5178 5.67178 13.9062 5.67178C14.2946 5.67178 14.6094 5.98659 14.6094 6.37491C14.6094 6.76322 14.2946 7.07803 13.9062 7.07803ZM16.7188 7.07803C16.3303 7.07803 16.0156 6.76322 16.0156 6.37491C16.0156 5.98659 16.3303 5.67178 16.7188 5.67178C17.1071 5.67178 17.4219 5.98659 17.4219 6.37491C17.4219 6.76322 17.1071 7.07803 16.7188 7.07803ZM19.5312 7.07803C19.1428 7.07803 18.8281 6.76322 18.8281 6.37491C18.8281 5.98659 19.1428 5.67178 19.5312 5.67178C19.9196 5.67178 20.2344 5.98659 20.2344 6.37491C20.2344 6.76322 19.9196 7.07803 19.5312 7.07803Z" fill="#F7F9FD"/>
<path d="M16.2969 22.5469C17.46 22.5469 18.4062 21.6007 18.4062 20.4375V17.625C18.4062 17.3222 18.2126 17.0537 17.9256 16.9583L13.7167 15.552C13.5107 15.4827 13.2855 15.5142 13.1043 15.6337L11.3149 16.8264C9.4197 15.9228 7.17097 13.674 6.26731 11.7788L7.46 9.98944C7.58014 9.80883 7.61038 9.58294 7.5417 9.37697L6.13545 5.16811C6.04006 4.88114 5.77156 4.6875 5.46875 4.6875H2.60938C1.44622 4.6875 0.5 5.62383 0.5 6.78698C0.5 14.888 8.19584 22.5469 16.2969 22.5469Z" fill="#F7F9FD"/>
</g>
<defs>
<clipPath id="clip0_412_4876">
<rect width="24" height="24" fill="white" transform="translate(0.5)"/>
</clipPath>
</defs>
</svg>
