<svg width="100" height="71" viewBox="0 0 100 71" fill="none" xmlns="http://www.w3.org/2000/svg">
<path opacity="0.2" d="M42.5738 48.2329C42.5738 62.6421 30.2899 70.1154 21.7192 70.1154C13.1485 70.1154 0 61.4392 0 45.2384C0 20.515 18.8454 2.6762 32.2737 0.884644C33.2655 2.6762 34.5626 5.38913 34.5626 5.38913C28.5605 7.94849 12.0041 19.7727 11.1394 30.5733C15.7172 27.5788 17.6755 26.0688 23.1434 26.0688C34.5626 26.0688 42.5738 37.1508 42.5738 48.2585V48.2329ZM100 48.2329C100 62.6421 87.7162 70.1154 79.1455 70.1154C70.5748 70.1154 57.4262 61.4392 57.4262 45.2384C57.4262 20.515 76.2716 2.6762 89.6999 0.884644C90.6918 2.6762 91.9888 5.38913 91.9888 5.38913C85.9868 7.94849 69.4303 19.7727 68.5656 30.5733C73.1434 27.5788 75.1017 26.0688 80.5697 26.0688C91.9888 26.0688 100 37.1508 100 48.2585V48.2329Z" fill="#F7F9FD"/>
</svg>
