<svg width="12" height="12" viewBox="0 0 12 12" fill="none" xmlns="http://www.w3.org/2000/svg">
<path d="M9.85848 5.53176L4.51833 0.191706C4.39482 0.068097 4.22994 0 4.05414 0C3.87833 0 3.71346 0.068097 3.58995 0.191706L3.19668 0.584873C2.94078 0.841066 2.94078 1.25745 3.19668 1.51326L7.68094 5.99751L3.19171 10.4867C3.06819 10.6104 3 10.7751 3 10.9508C3 11.1267 3.06819 11.2915 3.19171 11.4152L3.58497 11.8083C3.70858 11.9319 3.87336 12 4.04916 12C4.22497 12 4.38984 11.9319 4.51335 11.8083L9.85848 6.46336C9.98228 6.33936 10.0503 6.1738 10.0499 5.99781C10.0503 5.82112 9.98228 5.65566 9.85848 5.53176Z" fill="#F7F9FD"/>
</svg>
