<svg width="198" height="117" viewBox="0 0 198 117" fill="none" xmlns="http://www.w3.org/2000/svg">
<g filter="url(#filter0_d_412_9747)">
<path d="M169.73 15.4593L167.878 14.0962C166.479 13.0738 164.854 12.4301 163.153 12.2408L128.452 8.07573C128.036 8.03786 127.658 8 127.242 8C122.555 8 118.435 11.3321 117.452 15.9137L117.074 17.6554C116.62 17.1632 116.129 16.7088 115.562 16.3302L112.273 13.9826C110.572 12.7709 108.569 12.1272 106.452 12.1272C105.62 12.1272 104.789 12.2408 103.957 12.4301L88.9879 16.2923L87.0978 16.7846H86.9088C84.7164 17.3904 82.8642 18.6399 81.5412 20.3438C80.2181 19.7001 78.7061 19.3593 77.1941 19.3593C76.6271 19.3593 76.0223 19.3972 75.4553 19.5108L61.2422 22.0477C59.0498 22.4264 57.0841 23.5244 55.6477 25.1147C54.8539 24.4332 53.9467 23.9031 52.9261 23.5244C51.3762 22.9186 49.713 22.3885 48.012 22.0098C47.1804 21.8205 46.311 21.6691 45.4793 21.5176C44.6477 21.404 43.7783 21.2904 42.9089 21.2147C42.3797 21.1768 41.8883 21.139 41.2457 21.1011H40.9811C40.4141 21.1011 39.8092 21.1011 39.2422 21.1011C37.0876 21.1011 34.933 21.2526 32.8539 21.5933C27.5996 22.3885 23.177 24.0545 19.6615 26.5157C19.3213 26.7429 18.9433 27.008 18.6031 27.3109C18.5275 27.3866 18.4519 27.4245 18.3763 27.5002L15.9948 29.3934C12.555 32.1197 10.2113 35.4896 8.96392 39.4275C7.67869 43.5926 7.67869 47.9849 8.96392 52.415C10.3625 57.1859 12.7818 60.9724 16.146 63.7743L15.1254 72.8997C14.634 77.2919 17.0533 81.4192 21.0979 83.1988C24.2732 84.5998 28.0154 85.5085 32.1735 85.8872C33.7233 86.0386 35.311 86.1144 36.823 86.1144C39.2044 86.1144 41.5859 85.925 43.9295 85.5843C45.1769 85.3949 46.4244 85.1677 47.5962 84.8648C49.0326 85.66 50.6958 86.0765 52.3591 86.0765C52.9261 86.0765 53.5309 86.0386 54.0979 85.925L68.8023 83.3124C72.847 82.593 75.9845 79.5259 76.8539 75.5123L76.9673 74.9822L79.3865 74.5657V80.2075C79.3865 83.4639 80.9363 86.493 83.5824 88.3862L86.871 90.7338C88.5721 91.9455 90.5755 92.5892 92.6923 92.5892C93.524 92.5892 94.3556 92.4756 95.1872 92.2863L135.18 81.9871C137.826 81.3056 140.019 79.6017 141.342 77.2919L153.854 78.8065C154.27 78.8444 154.648 78.8822 155.063 78.8822C159.751 78.8822 163.871 75.5502 164.854 70.9686L167.311 59.4957C167.916 56.7316 167.311 53.8539 165.685 51.582C165.685 51.582 165.685 51.582 165.685 51.5441L165.95 50.2567L167.424 43.4411C167.424 43.4411 167.462 43.2897 167.5 43.2139C169.428 41.7751 170.788 39.6547 171.318 37.2692L173.775 25.7963C174.606 21.9341 173.094 17.9584 169.919 15.6108L169.73 15.4593Z" fill="white"/>
<mask id="mask0_412_9747" style="mask-type:luminance" maskUnits="userSpaceOnUse" x="10" y="11" width="161" height="79">
<path d="M167.915 17.9205L166.062 16.5574C165.08 15.838 163.983 15.3836 162.774 15.27L128.073 11.1049C127.808 11.1049 127.506 11.0671 127.241 11.0671C123.99 11.0671 121.155 13.3389 120.437 16.5953L116.695 34.0129V24.5468C116.695 22.275 115.636 20.1545 113.784 18.8672L110.495 16.5196C109.286 15.6865 107.887 15.2322 106.451 15.2322C105.884 15.2322 105.279 15.3079 104.712 15.4594L89.7429 19.3215L87.8529 19.8138H87.6639C85.0935 20.5332 83.1656 22.5779 82.5986 25.0769C81.2756 23.4109 79.2722 22.4643 77.1553 22.4643C76.7395 22.4643 76.3615 22.4643 75.9457 22.5779L61.7327 25.1148C59.0488 25.607 56.8942 27.576 56.2138 30.1886L55.987 31.0974C55.42 29.0148 53.9079 27.2352 51.7911 26.4022C50.3547 25.8342 48.8427 25.3798 47.2928 25.0391C46.5368 24.8876 45.743 24.7361 44.9492 24.6226C44.1554 24.509 43.3616 24.3954 42.5678 24.3575C42.0763 24.3196 41.6227 24.2818 41.0179 24.2439H40.7533C40.2241 24.2439 39.6571 24.2439 39.1279 24.2439C37.1245 24.2439 35.121 24.3954 33.1932 24.6983C28.4303 25.4177 24.4234 26.8944 21.286 29.0906C20.9836 29.3177 20.6434 29.5449 20.341 29.81C20.2654 29.8478 20.2276 29.9236 20.152 29.9614L17.7705 31.8547C14.8221 34.2023 12.8186 37.08 11.7602 40.412C10.6262 44.0092 10.664 47.7577 11.7602 51.6199C13.0076 55.9365 15.2379 59.3442 18.2997 61.7676C18.6021 61.9948 18.9045 62.222 19.207 62.4491C19.207 62.5627 19.1692 62.7142 19.1692 62.8278L18.0351 73.2784C17.6949 76.3075 19.396 79.2231 22.1932 80.4348C25.1039 81.6843 28.5059 82.5173 32.3616 82.896C33.8358 83.0474 35.2722 83.1231 36.7465 83.1231C38.9767 83.1231 41.2069 82.9717 43.3994 82.6309C45.0248 82.3658 46.5746 82.0629 48.011 81.6086C49.2207 82.5552 50.7327 83.0474 52.2447 83.0474C52.6605 83.0474 53.0385 83.0474 53.4543 82.9338L68.1588 80.3212C70.956 79.8289 73.1863 77.6706 73.7533 74.9065L74.2825 72.3696L81.578 71.0822L82.2962 72.1424V80.2454C82.2962 82.5173 83.3546 84.6377 85.2069 85.9251L88.4955 88.2727C89.7051 89.1057 91.1038 89.5601 92.5402 89.5601C93.1072 89.5601 93.712 89.4844 94.279 89.3329L134.272 79.0338C136.767 78.3901 138.657 76.4211 139.3 73.9978L154.117 75.7774C154.382 75.7774 154.684 75.8153 154.949 75.8153C158.2 75.8153 161.073 73.5434 161.753 70.2871L164.21 58.8141C164.626 56.8831 164.21 54.9141 163.076 53.2859C162.812 52.9452 162.547 52.6044 162.245 52.3015L162.849 49.5374L164.361 42.5324C164.513 42.1159 164.626 41.6616 164.702 41.245C166.44 40.2984 167.763 38.6324 168.217 36.5499L170.674 25.0769C171.241 22.3885 170.183 19.6244 167.99 17.9963L167.915 17.9205Z" fill="white"/>
</mask>
<g mask="url(#mask0_412_9747)">
<path d="M13.0077 11.0671L10.6641 14.3613V11.0671H13.0077Z" fill="#F06221"/>
<path d="M15.3891 11.0671L10.6641 17.7691V14.3613L13.0077 11.0671H15.3891Z" fill="#F06221"/>
<path d="M17.8084 11.0671L10.6641 21.139V17.7691L15.3891 11.0671H17.8084Z" fill="#F06121"/>
<path d="M20.1898 11.0671L10.6641 24.5468V21.139L17.8084 11.0671H20.1898Z" fill="#F06021"/>
<path d="M22.5713 11.0671L10.6641 27.9546V24.5468L20.1898 11.0671H22.5713Z" fill="#F05F21"/>
<path d="M24.9905 11.0671L10.6641 31.3624V27.9546L22.5713 11.0671H24.9905Z" fill="#F05E21"/>
<path d="M27.3719 11.0671L10.6641 34.7702V31.3624L24.9905 11.0671H27.3719Z" fill="#F05D21"/>
<path d="M29.7912 11.0671L10.6641 38.178V34.7702L27.3719 11.0671H29.7912Z" fill="#F05C21"/>
<path d="M32.1726 11.0671L10.6641 41.5858V38.178L29.7912 11.0671H32.1726Z" fill="#F05B21"/>
<path d="M34.5919 11.0671L10.6641 44.9558V41.5858L32.1726 11.0671H34.5919Z" fill="#F05A21"/>
<path d="M36.9733 11.0671L10.6641 48.3636V44.9558L34.5919 11.0671H36.9733Z" fill="#F05922"/>
<path d="M39.3547 11.0671L10.6641 51.7714V48.3636L36.9733 11.0671H39.3547Z" fill="#F05822"/>
<path d="M41.774 11.0671L10.6641 55.1792V51.7714L39.3547 11.0671H41.774Z" fill="#F05722"/>
<path d="M44.1554 11.0671L10.6641 58.587V55.1792L41.774 11.0671H44.1554Z" fill="#EF5622"/>
<path d="M46.5747 11.0671L10.6641 61.9948V58.587L44.1554 11.0671H46.5747Z" fill="#EF5522"/>
<path d="M48.9561 11.0671L10.6641 65.4026V61.9948L46.5747 11.0671H48.9561Z" fill="#EF5422"/>
<path d="M51.3754 11.0671L10.6641 68.8104V65.4026L48.9561 11.0671H51.3754Z" fill="#EF5322"/>
<path d="M53.7568 11.0671L10.6641 72.1803V68.8104L51.3754 11.0671H53.7568Z" fill="#EF5222"/>
<path d="M56.1382 11.0671L10.6641 75.5881V72.1803L53.7568 11.0671H56.1382Z" fill="#EF5122"/>
<path d="M58.5575 11.0671L10.6641 78.9959V75.5881L56.1382 11.0671H58.5575Z" fill="#EF5022"/>
<path d="M60.9389 11.0671L10.7775 82.2523L10.6641 82.1765V78.9959L58.5575 11.0671H60.9389Z" fill="#EF4F22"/>
<path d="M63.358 11.0671L12.365 83.3882L10.7773 82.2523L60.9388 11.0671H63.358Z" fill="#EF4E22"/>
<path d="M65.7397 11.0671L13.9907 84.5241L12.3652 83.3882L63.3583 11.0671H65.7397Z" fill="#EF4D22"/>
<path d="M68.1586 11.0671L15.5779 85.66L13.9902 84.5241L65.7393 11.0671H68.1586Z" fill="#EF4C22"/>
<path d="M70.5403 11.0671L17.1658 86.796L15.5781 85.66L68.1588 11.0671H70.5403Z" fill="#EF4B22"/>
<path d="M72.9598 11.0671L18.7914 87.9319L17.166 86.796L70.5405 11.0671H72.9598Z" fill="#EF4A22"/>
<path d="M75.3408 11.0671L20.3786 89.0678L18.791 87.9319L72.9593 11.0671H75.3408Z" fill="#EF4923"/>
<path d="M77.7225 11.0671L22.4957 89.4465H20.9459L20.3789 89.0678L75.341 11.0671H77.7225Z" fill="#EF4823"/>
<path d="M80.1421 11.0671L24.8775 89.4465H22.4961L77.7228 11.0671H80.1421Z" fill="#EF4723"/>
<path d="M82.5229 11.0671L27.2962 89.4465H24.877L80.1415 11.0671H82.5229Z" fill="#EF4623"/>
<path d="M84.9428 11.0671L29.6783 89.4465H27.2969L82.5236 11.0671H84.9428Z" fill="#EF4523"/>
<path d="M87.3237 11.0671L32.097 89.4465H29.6777L84.9423 11.0671H87.3237Z" fill="#EF4423"/>
<path d="M89.7417 11.0671L34.4771 89.4465H32.0957L87.3224 11.0671H89.7417Z" fill="#EF4323"/>
<path d="M92.1245 11.0671L36.8978 89.4465H34.4785L89.7431 11.0671H92.1245Z" fill="#EF4223"/>
<path d="M94.5066 11.0671L39.2799 89.4465H36.8984L92.1252 11.0671H94.5066Z" fill="#EF4123"/>
<path d="M96.9253 11.0671L41.6607 89.4465H39.2793L94.506 11.0671H96.9253Z" fill="#EE3F23"/>
<path d="M99.3061 11.0671L44.0794 89.4465H41.6602L96.9247 11.0671H99.3061Z" fill="#EE3E23"/>
<path d="M101.726 11.0671L46.4615 89.4465H44.0801L99.3068 11.0671H101.726Z" fill="#EE3D23"/>
<path d="M104.107 11.0671L48.8802 89.4465H46.4609L101.725 11.0671H104.107Z" fill="#EE3C23"/>
<path d="M106.527 11.0671L51.2623 89.4465H48.8809L104.108 11.0671H106.527Z" fill="#EE3B23"/>
<path d="M108.908 11.0671L53.681 89.4465H51.2617L106.526 11.0671H108.908Z" fill="#EE3A23"/>
<path d="M111.328 11.0671L56.0631 89.4465H53.6816L108.908 11.0671H111.328Z" fill="#EE3923"/>
<path d="M113.708 11.0671L58.4817 89.4465H56.0625L111.327 11.0671H113.708Z" fill="#EE3823"/>
<path d="M116.091 11.0671L60.8639 89.4465H58.4824L113.709 11.0671H116.091Z" fill="#EE3724"/>
<path d="M118.509 11.0671L63.2447 89.4465H60.8633L116.09 11.0671H118.509Z" fill="#EE3624"/>
<path d="M120.89 11.0671L65.6634 89.4465H63.2441L118.509 11.0671H120.89Z" fill="#EE3524"/>
<path d="M123.31 11.0671L68.0455 89.4465H65.6641L120.891 11.0671H123.31Z" fill="#EE3424"/>
<path d="M125.691 11.0671L70.4642 89.4465H68.0449L123.309 11.0671H125.691Z" fill="#EE3324"/>
<path d="M128.111 11.0671L72.8463 89.4465H70.4648L125.692 11.0671H128.111Z" fill="#EE3224"/>
<path d="M130.492 11.0671L75.2649 89.4465H72.8457L128.11 11.0671H130.492Z" fill="#EE3124"/>
<path d="M132.874 11.0671L77.6471 89.4465H75.2656L130.492 11.0671H132.874Z" fill="#EE3024"/>
<path d="M135.292 11.0671L80.0279 89.4465H77.6465L132.873 11.0671H135.292Z" fill="#EE2F24"/>
<path d="M137.675 11.0671L82.4485 89.4465H80.0293L135.294 11.0671H137.675Z" fill="#EE2E24"/>
<path d="M140.093 11.0671L84.8287 89.4465H82.4473L137.674 11.0671H140.093Z" fill="#EE2D24"/>
<path d="M142.474 11.0671L87.2474 89.4465H84.8281L140.093 11.0671H142.474Z" fill="#EE2C24"/>
<path d="M144.894 11.0671L89.6295 89.4465H87.248L142.475 11.0671H144.894Z" fill="#EE2B24"/>
<path d="M147.275 11.0671L92.0481 89.4465H89.6289L144.893 11.0671H147.275Z" fill="#EE2A24"/>
<path d="M149.695 11.0671L94.4303 89.4465H92.0488L147.276 11.0671H149.695Z" fill="#ED2924"/>
<path d="M152.076 11.0671L96.8489 89.4465H94.4297L149.694 11.0671H152.076Z" fill="#ED2824"/>
<path d="M154.458 11.0671L99.231 89.4465H96.8496L152.076 11.0671H154.458Z" fill="#ED2725"/>
<path d="M156.876 11.0671L101.612 89.4465H99.2305L154.457 11.0671H156.876Z" fill="#ED2625"/>
<path d="M159.259 11.0671L104.033 89.4465H101.613L156.878 11.0671H159.259Z" fill="#ED2525"/>
<path d="M161.677 11.0671L106.413 89.4465H104.031L159.258 11.0671H161.677Z" fill="#ED2425"/>
<path d="M164.058 11.0671L108.831 89.4465H106.412L161.677 11.0671H164.058Z" fill="#ED2325"/>
<path d="M166.478 11.0671L111.213 89.4465H108.832L164.059 11.0671H166.478Z" fill="#ED2225"/>
<path d="M168.859 11.0671L113.632 89.4465H111.213L166.477 11.0671H168.859Z" fill="#ED2125"/>
<path d="M171.203 11.1428L116.014 89.4465H113.633L168.86 11.0671H171.203V11.1428Z" fill="#ED2025"/>
<path d="M171.205 14.5506L118.397 89.4464H116.016L171.205 11.1428V14.5506Z" fill="#ED1F25"/>
<path d="M118.396 89.4465L171.204 14.5506V89.4465H118.396Z" fill="#ED1F25"/>
</g>
<mask id="mask1_412_9747" style="mask-type:luminance" maskUnits="userSpaceOnUse" x="33" y="41" width="16" height="5">
<path d="M46.2755 45.4101L48.6947 43.479C44.461 42.0402 40.7566 41.5858 37.5057 42.078C37.3167 42.078 37.1277 42.1538 36.9387 42.1916C36.9009 42.1916 36.8631 42.1916 36.7875 42.1916C36.6363 42.1916 36.5229 42.2295 36.3717 42.2674C36.2961 42.2674 36.2205 42.3052 36.1449 42.3431C36.0693 42.3431 35.9559 42.3809 35.8803 42.4188C35.8425 42.4188 35.8047 42.4188 35.7291 42.4567C35.6157 42.4567 35.5023 42.5324 35.4267 42.5703C35.3889 42.5703 35.3511 42.5703 35.3133 42.6081C35.1999 42.6081 35.1243 42.6839 35.0487 42.7217C34.9731 42.7217 34.8975 42.7975 34.8219 42.8353C34.7841 42.8353 34.7085 42.8732 34.6707 42.9111C34.5951 42.9111 34.5195 42.9868 34.4817 43.0246C34.4439 43.0246 34.4061 43.0625 34.3683 43.1004C34.3305 43.1004 34.2549 43.1761 34.2171 43.214C34.1793 43.214 34.1415 43.2897 34.0659 43.2897C33.6501 43.6305 33.4233 43.9713 33.3477 44.4256C33.8391 44.2742 34.4061 44.1606 35.0865 44.047C38.3373 43.5547 42.0796 44.047 46.2755 45.448V45.4101Z" fill="white"/>
</mask>
<g mask="url(#mask1_412_9747)">
<path d="M33.3477 44.3878L33.4611 45.4102H33.3477V44.3878Z" fill="#F06221"/>
<path d="M33.3477 42.4567L33.6879 45.4102H33.4611L33.3477 44.3878V42.4567Z" fill="#F06221"/>
<path d="M33.4611 41.5858L33.9147 45.4101H33.6879L33.3477 42.4567V41.5858H33.4611Z" fill="#F06121"/>
<path d="M33.6877 41.5858L34.1413 45.4101H33.9145L33.4609 41.5858H33.6877Z" fill="#F06021"/>
<path d="M33.9143 41.5858L34.4057 45.4101H34.1411L33.6875 41.5858H33.9143Z" fill="#F05F21"/>
<path d="M34.1409 41.5858L34.6323 45.4101H34.4055L33.9141 41.5858H34.1409Z" fill="#F05E21"/>
<path d="M34.4052 41.5858L34.8588 45.4101H34.632L34.1406 41.5858H34.4052Z" fill="#F05D21"/>
<path d="M34.6331 41.5858L35.0867 45.4101H34.8599L34.4062 41.5858H34.6331Z" fill="#F05C21"/>
<path d="M34.8596 41.5858L35.3132 45.4101H35.0864L34.6328 41.5858H34.8596Z" fill="#F05B21"/>
<path d="M35.0862 41.5858L35.5398 45.4101H35.313L34.8594 41.5858H35.0862Z" fill="#F05A21"/>
<path d="M35.3127 41.5858L35.7663 45.4101H35.5395L35.0859 41.5858H35.3127Z" fill="#F05922"/>
<path d="M35.5393 41.5858L35.9929 45.4101H35.7661L35.3125 41.5858H35.5393Z" fill="#F05822"/>
<path d="M35.7678 41.5858L36.2214 45.4101H35.9946L35.541 41.5858H35.7678Z" fill="#F05722"/>
<path d="M35.9944 41.5858L36.4858 45.4101H36.2212L35.7676 41.5858H35.9944Z" fill="#EF5622"/>
<path d="M36.2209 41.5858L36.7124 45.4101H36.4855L35.9941 41.5858H36.2209Z" fill="#EF5522"/>
<path d="M36.4853 41.5858L36.9389 45.4101H36.7121L36.2207 41.5858H36.4853Z" fill="#EF5422"/>
<path d="M36.7131 41.5858L37.1667 45.4101H36.9399L36.4863 41.5858H36.7131Z" fill="#EF5322"/>
<path d="M36.9377 41.5858L37.3914 45.4101H37.1645L36.7109 41.5858H36.9377Z" fill="#EF5222"/>
<path d="M37.1663 41.5858L37.6199 45.4101H37.3931L36.9395 41.5858H37.1663Z" fill="#EF5122"/>
<path d="M37.3928 41.5858L37.8464 45.4101H37.6196L37.166 41.5858H37.3928Z" fill="#EF5022"/>
<path d="M37.6194 41.5858L38.073 45.4101H37.8462L37.3926 41.5858H37.6194Z" fill="#EF4F22"/>
<path d="M37.8459 41.5858L38.2996 45.4101H38.0727L37.6191 41.5858H37.8459Z" fill="#EF4E22"/>
<path d="M38.0725 41.5858L38.5639 45.4101H38.2993L37.8457 41.5858H38.0725Z" fill="#EF4D22"/>
<path d="M38.2991 41.5858L38.7905 45.4101H38.5637L38.0723 41.5858H38.2991Z" fill="#EF4C22"/>
<path d="M38.5634 41.5858L39.017 45.4101H38.7902L38.2988 41.5858H38.5634Z" fill="#EF4B22"/>
<path d="M38.7893 41.5858L39.2429 45.4101H39.0161L38.5625 41.5858H38.7893Z" fill="#EF4A22"/>
<path d="M39.0178 41.5858L39.4714 45.4101H39.2446L38.791 41.5858H39.0178Z" fill="#EF4923"/>
<path d="M39.2444 41.5858L39.698 45.4101H39.4712L39.0176 41.5858H39.2444Z" fill="#EF4823"/>
<path d="M39.4709 41.5858L39.9246 45.4101H39.6977L39.2441 41.5858H39.4709Z" fill="#EF4723"/>
<path d="M39.6975 41.5858L40.1511 45.4101H39.9243L39.4707 41.5858H39.6975Z" fill="#EF4623"/>
<path d="M39.9241 41.5858L40.3777 45.4101H40.1509L39.6973 41.5858H39.9241Z" fill="#EF4523"/>
<path d="M40.1526 41.5858L40.6062 45.4101H40.3794L39.9258 41.5858H40.1526Z" fill="#EF4423"/>
<path d="M40.3791 41.5858L40.8706 45.4101H40.606L40.1523 41.5858H40.3791Z" fill="#EF4323"/>
<path d="M40.6057 41.5858L41.0971 45.4101H40.8703L40.3789 41.5858H40.6057Z" fill="#EF4223"/>
<path d="M40.8701 41.5858L41.3237 45.4101H41.0969L40.6055 41.5858H40.8701Z" fill="#EF4123"/>
<path d="M41.0979 41.5858L41.5515 45.4101H41.3247L40.8711 41.5858H41.0979Z" fill="#EE3F23"/>
<path d="M41.3225 41.5858L41.7761 45.4101H41.5493L41.0957 41.5858H41.3225Z" fill="#EE3E23"/>
<path d="M41.551 41.5858L42.0046 45.4101H41.7778L41.3242 41.5858H41.551Z" fill="#EE3D23"/>
<path d="M41.7756 41.5858L42.2292 45.4101H42.0024L41.5488 41.5858H41.7756Z" fill="#EE3C23"/>
<path d="M42.0041 41.5858L42.4578 45.4101H42.231L41.7773 41.5858H42.0041Z" fill="#EE3B23"/>
<path d="M42.2307 41.5858L42.6843 45.4101H42.4575L42.0039 41.5858H42.2307Z" fill="#EE3A23"/>
<path d="M42.4573 41.5858L42.9487 45.4101H42.6841L42.2305 41.5858H42.4573Z" fill="#EE3923"/>
<path d="M42.6838 41.5858L43.1752 45.4101H42.9484L42.457 41.5858H42.6838Z" fill="#EE3823"/>
<path d="M42.9482 41.5858L43.4018 45.4101H43.175L42.6836 41.5858H42.9482Z" fill="#EE3724"/>
<path d="M43.176 41.5858L43.6296 45.4101H43.4028L42.9492 41.5858H43.176Z" fill="#EE3624"/>
<path d="M43.4026 41.5858L43.8562 45.4101H43.6294L43.1758 41.5858H43.4026Z" fill="#EE3524"/>
<path d="M43.6291 41.5858L44.0828 45.4101H43.856L43.4023 41.5858H43.6291Z" fill="#EE3424"/>
<path d="M43.8557 41.5858L44.3093 45.4101H44.0825L43.6289 41.5858H43.8557Z" fill="#EE3324"/>
<path d="M44.0842 41.5858L44.5378 45.4101H44.311L43.8574 41.5858H44.0842Z" fill="#EE3224"/>
<path d="M44.3088 41.5858L44.7624 45.4101H44.5356L44.082 41.5858H44.3088Z" fill="#EE3124"/>
<path d="M44.5373 41.5858L44.991 45.4101H44.7642L44.3105 41.5858H44.5373Z" fill="#EE3024"/>
<path d="M44.7639 41.5858L45.2553 45.4101H44.9907L44.5371 41.5858H44.7639Z" fill="#EE2F24"/>
<path d="M44.9905 41.5858L45.4819 45.4101H45.2551L44.7637 41.5858H44.9905Z" fill="#EE2E24"/>
<path d="M45.2548 41.5858L45.7084 45.4101H45.4816L44.9902 41.5858H45.2548Z" fill="#EE2D24"/>
<path d="M45.4827 41.5858L45.9363 45.4101H45.7095L45.2559 41.5858H45.4827Z" fill="#EE2C24"/>
<path d="M45.7073 41.5858L46.1609 45.4101H45.9341L45.4805 41.5858H45.7073Z" fill="#EE2B24"/>
<path d="M45.9358 41.5858L46.3894 45.4101H46.1626L45.709 41.5858H45.9358Z" fill="#EE2A24"/>
<path d="M46.1604 41.5858L46.614 45.4101H46.3872L45.9336 41.5858H46.1604Z" fill="#ED2924"/>
<path d="M46.3889 41.5858L46.8425 45.4101H46.6157L46.1621 41.5858H46.3889Z" fill="#ED2824"/>
<path d="M46.6155 41.5858L47.0691 45.4101H46.8423L46.3887 41.5858H46.6155Z" fill="#ED2725"/>
<path d="M46.842 41.5858L47.3334 45.4101H47.0688L46.6152 41.5858H46.842Z" fill="#ED2625"/>
<path d="M47.0686 41.5858L47.56 45.4101H47.3332L46.8418 41.5858H47.0686Z" fill="#ED2525"/>
<path d="M47.333 41.5858L47.7866 45.4101H47.5598L47.0684 41.5858H47.333Z" fill="#ED2425"/>
<path d="M47.5608 41.5858L48.0144 45.4101H47.7876L47.334 41.5858H47.5608Z" fill="#ED2325"/>
<path d="M47.7874 41.5858L48.241 45.4101H48.0142L47.5605 41.5858H47.7874Z" fill="#ED2225"/>
<path d="M48.0159 41.5858L48.4695 45.4101H48.2427L47.7891 41.5858H48.0159Z" fill="#ED2125"/>
<path d="M48.2405 41.5858L48.6941 45.4101H48.4673L48.0137 41.5858H48.2405Z" fill="#ED2025"/>
<path d="M48.469 41.5858L48.6958 43.479V45.4101L48.2422 41.5858H48.469Z" fill="#ED1F25"/>
<path d="M48.6936 43.479L48.4668 41.5858H48.6936V43.479Z" fill="#ED1F25"/>
</g>
<mask id="mask2_412_9747" style="mask-type:luminance" maskUnits="userSpaceOnUse" x="18" y="35" width="29" height="29">
<path d="M36.7842 60.3287C39.1656 60.4801 40.8666 60.7073 41.9628 60.9724C43.0591 61.2374 43.7395 61.8054 43.9663 62.6384C44.0419 62.8656 44.0419 63.0549 44.0419 63.2442C44.7979 63.0549 45.3649 62.7899 45.7429 62.5248C45.7807 62.487 45.8563 62.4491 45.8941 62.4112C45.8941 62.4112 45.9697 62.3734 46.0075 62.3355C46.0075 62.3355 46.0831 62.2598 46.1209 62.2219C46.1209 62.2219 46.1587 62.1462 46.1965 62.1462C46.1965 62.1462 46.2343 62.0704 46.2721 62.0326C46.2721 62.0326 46.3099 61.9569 46.3477 61.9569C46.3477 61.919 46.3477 61.8811 46.3855 61.8433C46.3855 61.8433 46.3855 61.7675 46.4233 61.7297C46.4233 61.6918 46.4233 61.6539 46.4233 61.6161C46.4233 61.6161 46.4233 61.5403 46.4233 61.5025C46.4233 61.4646 46.4233 61.3889 46.4233 61.351C46.4233 61.351 46.4233 61.2753 46.4233 61.2374C46.4233 61.1996 46.4233 61.1238 46.4233 61.086C46.4233 61.086 46.4233 61.0481 46.4233 61.0102C46.4233 60.9345 46.4233 60.8209 46.3477 60.7452C46.0831 59.9122 45.4405 59.3442 44.3443 59.0792C43.2481 58.8141 41.5092 58.5869 39.1656 58.4355C36.1037 58.2083 33.5333 57.8675 31.4165 57.4131C29.2996 56.9587 27.2584 55.9743 25.3684 54.4976C23.4405 53.0208 22.0797 50.8247 21.2481 47.9091C20.5299 45.3722 20.4921 42.9868 21.2103 40.7528C21.2859 40.4877 21.3993 40.2227 21.5127 39.9576C21.5127 39.8819 21.5883 39.8061 21.6261 39.6926C21.7017 39.5032 21.7773 39.3518 21.8529 39.2003C21.8907 39.0867 21.9663 39.011 22.0041 38.8974C22.0797 38.7459 22.1553 38.5945 22.2687 38.443C22.3443 38.3294 22.3821 38.2537 22.4577 38.1401C22.5333 37.9887 22.6467 37.8751 22.7601 37.7236C22.8357 37.6479 22.9113 37.5343 22.9869 37.4586C23.1003 37.3071 23.2137 37.1935 23.3271 37.042C23.4027 36.9663 23.4783 36.8527 23.5539 36.777C23.6673 36.6255 23.8185 36.5119 23.9319 36.3605C24.0075 36.2848 24.0831 36.209 24.1587 36.1333C24.3099 35.9818 24.4989 35.8304 24.6501 35.6789C24.7257 35.6411 24.7635 35.5653 24.8391 35.5275L22.4199 37.4586C20.5677 38.9353 19.3581 40.6392 18.7154 42.646C17.9972 44.9178 18.035 47.3033 18.7532 49.8024C19.5849 52.7179 20.9835 54.9141 22.8735 56.3908C24.7635 57.8675 26.8048 58.852 28.9216 59.3063C31.0385 59.7607 33.6467 60.1015 36.6708 60.3287H36.7842Z" fill="white"/>
</mask>
<g mask="url(#mask2_412_9747)">
<path d="M18.0742 60.8209L18.3766 63.2442H18.0742V60.8209Z" fill="#F06121"/>
<path d="M18.0742 58.3219L18.679 63.2443H18.3766L18.0742 60.821V58.3219Z" fill="#F06021"/>
<path d="M18.0742 55.8228L18.9814 63.2442H18.679L18.0742 58.3219V55.8228Z" fill="#F05F21"/>
<path d="M18.0742 53.3238L19.2838 63.2443H18.9814L18.0742 55.8228V53.3238Z" fill="#F05E21"/>
<path d="M18.0742 50.8247L19.5862 63.2442H19.2838L18.0742 53.3238V50.8247Z" fill="#F05D21"/>
<path d="M18.0742 48.3256L19.8886 63.2442H19.5862L18.0742 50.8247V48.3256Z" fill="#F05C21"/>
<path d="M18.0742 45.8266L20.1911 63.2443H19.8886L18.0742 48.3257V45.8266Z" fill="#F05B21"/>
<path d="M18.0742 43.3275L20.4935 63.2442H20.1911L18.0742 45.8266V43.3275Z" fill="#F05A21"/>
<path d="M18.0742 40.8285L20.7959 63.2442H20.4935L18.0742 43.3275V40.8285Z" fill="#F05922"/>
<path d="M18.0742 38.3295L21.0605 63.2443H20.7959L18.0742 40.8285V38.3295Z" fill="#F05822"/>
<path d="M18.0742 35.8304L21.3629 63.2442H21.0605L18.0742 38.3294V35.8304Z" fill="#F05722"/>
<path d="M18.3388 35.5275L21.6653 63.2442H21.3629L18.0742 35.8304V35.5275H18.3388Z" fill="#EF5622"/>
<path d="M18.6403 35.5275L21.9668 63.2442H21.6643L18.3379 35.5275H18.6403Z" fill="#EF5522"/>
<path d="M18.943 35.5275L22.2695 63.2442H21.9671L18.6406 35.5275H18.943Z" fill="#EF5422"/>
<path d="M19.2458 35.5275L22.5722 63.2442H22.2698L18.9434 35.5275H19.2458Z" fill="#EF5322"/>
<path d="M19.5485 35.5275L22.875 63.2442H22.5726L19.2461 35.5275H19.5485Z" fill="#EF5222"/>
<path d="M19.8512 35.5275L23.1777 63.2442H22.8753L19.5488 35.5275H19.8512Z" fill="#EF5122"/>
<path d="M20.152 35.5275L23.4785 63.2442H23.1761L19.8496 35.5275H20.152Z" fill="#EF5022"/>
<path d="M20.4567 35.5275L23.7832 63.2442H23.4808L20.1543 35.5275H20.4567Z" fill="#EF4F22"/>
<path d="M20.7575 35.5275L24.0839 63.2442H23.7815L20.4551 35.5275H20.7575Z" fill="#EF4E22"/>
<path d="M21.0602 35.5275L24.3867 63.2442H24.0843L20.7578 35.5275H21.0602Z" fill="#EF4D22"/>
<path d="M21.363 35.5275L24.6894 63.2442H24.387L21.0605 35.5275H21.363Z" fill="#EF4C22"/>
<path d="M21.6637 35.5275L24.9902 63.2442H24.6878L21.3613 35.5275H21.6637Z" fill="#EF4B22"/>
<path d="M21.9684 35.5275L25.2949 63.2442H24.9925L21.666 35.5275H21.9684Z" fill="#EF4A22"/>
<path d="M22.2692 35.5275L25.5957 63.2442H25.2933L21.9668 35.5275H22.2692Z" fill="#EF4923"/>
<path d="M22.5719 35.5275L25.8984 63.2442H25.596L22.2695 35.5275H22.5719Z" fill="#EF4823"/>
<path d="M22.8747 35.5275L26.2011 63.2442H25.8987L22.5723 35.5275H22.8747Z" fill="#EF4723"/>
<path d="M23.1774 35.5275L26.5039 63.2442H26.2015L22.875 35.5275H23.1774Z" fill="#EF4623"/>
<path d="M23.4423 35.5275L26.8066 63.2442H26.5042L23.1777 35.5275H23.4423Z" fill="#EF4523"/>
<path d="M23.7438 35.5275L27.1081 63.2442H26.8057L23.4414 35.5275H23.7438Z" fill="#EF4423"/>
<path d="M24.0465 35.5275L27.4108 63.2442H27.1084L23.7441 35.5275H24.0465Z" fill="#EF4323"/>
<path d="M24.3493 35.5275L27.7135 63.2442H27.4111L24.0469 35.5275H24.3493Z" fill="#EF4223"/>
<path d="M24.652 35.5275L28.0163 63.2442H27.7139L24.3496 35.5275H24.652Z" fill="#EF4123"/>
<path d="M24.9548 35.5275L28.2812 63.2442H28.0166L24.6523 35.5275H24.9548Z" fill="#EE3F23"/>
<path d="M25.2555 35.5275L28.582 63.2442H28.2796L24.9531 35.5275H25.2555Z" fill="#EE3E23"/>
<path d="M25.5583 35.5275L28.8847 63.2442H28.5823L25.2559 35.5275H25.5583Z" fill="#EE3D23"/>
<path d="M25.861 35.5275L29.1875 63.2442H28.8851L25.5586 35.5275H25.861Z" fill="#EE3C23"/>
<path d="M26.1637 35.5275L29.4902 63.2442H29.1878L25.8613 35.5275H26.1637Z" fill="#EE3B23"/>
<path d="M26.4665 35.5275L29.7929 63.2442H29.4905L26.1641 35.5275H26.4665Z" fill="#EE3A23"/>
<path d="M26.7692 35.5275L30.0957 63.2442H29.7933L26.4668 35.5275H26.7692Z" fill="#EE3923"/>
<path d="M27.07 35.5275L30.3964 63.2442H30.094L26.7676 35.5275H27.07Z" fill="#EE3823"/>
<path d="M27.3747 35.5275L30.7011 63.2442H30.3987L27.0723 35.5275H27.3747Z" fill="#EE3724"/>
<path d="M27.6755 35.5275L31.0019 63.2442H30.6995L27.373 35.5275H27.6755Z" fill="#EE3624"/>
<path d="M27.9782 35.5275L31.3046 63.2442H31.0022L27.6758 35.5275H27.9782Z" fill="#EE3524"/>
<path d="M28.2809 35.5275L31.6074 63.2442H31.305L27.9785 35.5275H28.2809Z" fill="#EE3424"/>
<path d="M28.5817 35.5275L31.9082 63.2442H31.6058L28.2793 35.5275H28.5817Z" fill="#EE3324"/>
<path d="M28.8864 35.5275L32.2128 63.2442H31.9104L28.584 35.5275H28.8864Z" fill="#EE3224"/>
<path d="M29.1872 35.5275L32.5136 63.2442H32.2112L28.8848 35.5275H29.1872Z" fill="#EE3124"/>
<path d="M29.4899 35.5275L32.8164 63.2442H32.514L29.1875 35.5275H29.4899Z" fill="#EE3024"/>
<path d="M29.7926 35.5275L33.1191 63.2442H32.8167L29.4902 35.5275H29.7926Z" fill="#EE2F24"/>
<path d="M30.0954 35.5275L33.4218 63.2442H33.1194L29.793 35.5275H30.0954Z" fill="#EE2E24"/>
<path d="M30.3981 35.5275L33.7246 63.2442H33.4222L30.0957 35.5275H30.3981Z" fill="#EE2D24"/>
<path d="M30.6611 35.5275L34.0253 63.2442H33.7229L30.3965 35.5275H30.6611Z" fill="#EE2C24"/>
<path d="M30.9626 35.5275L34.3268 63.2442H34.0244L30.6602 35.5275H30.9626Z" fill="#EE2B24"/>
<path d="M31.2672 35.5275L34.6315 63.2442H34.3291L30.9648 35.5275H31.2672Z" fill="#EE2A24"/>
<path d="M31.568 35.5275L34.9323 63.2442H34.6299L31.2656 35.5275H31.568Z" fill="#ED2924"/>
<path d="M31.8708 35.5275L35.1972 63.2442H34.9326L31.5684 35.5275H31.8708Z" fill="#ED2824"/>
<path d="M32.1735 35.5275L35.5 63.2442H35.1975L31.8711 35.5275H32.1735Z" fill="#ED2725"/>
<path d="M32.4762 35.5275L35.8027 63.2442H35.5003L32.1738 35.5275H32.4762Z" fill="#ED2625"/>
<path d="M32.779 35.5275L36.1054 63.2442H35.803L32.4766 35.5275H32.779Z" fill="#ED2525"/>
<path d="M33.0817 35.5275L36.4082 63.2442H36.1058L32.7793 35.5275H33.0817Z" fill="#ED2425"/>
<path d="M33.3825 35.5275L36.7089 63.2442H36.4065L33.0801 35.5275H33.3825Z" fill="#ED2325"/>
<path d="M33.6852 35.5275L37.0117 63.2442H36.7093L33.3828 35.5275H33.6852Z" fill="#ED2225"/>
<path d="M33.988 35.5275L37.3144 63.2442H37.012L33.6855 35.5275H33.988Z" fill="#ED2125"/>
<path d="M34.2907 35.5275L37.6171 63.2442H37.3147L33.9883 35.5275H34.2907Z" fill="#ED2025"/>
<path d="M34.5934 35.5275L37.9199 63.2442H37.6175L34.291 35.5275H34.5934Z" fill="#ED1F25"/>
<path d="M37.9183 63.2442L34.5918 35.5275H46.499V63.2442H37.9183Z" fill="#ED1F25"/>
</g>
<mask id="mask3_412_9747" style="mask-type:luminance" maskUnits="userSpaceOnUse" x="25" y="61" width="30" height="16">
<path d="M45.1369 73.9599C42.0751 74.4143 38.9754 74.49 35.838 74.1871C33.1163 73.922 30.6971 73.3919 28.6558 72.6346C28.3534 72.521 28.0888 72.4074 27.7864 72.2938L28.9204 61.8433L26.5012 63.7743L25.3672 74.2249C27.5974 75.2094 30.2813 75.8531 33.4187 76.156C36.5562 76.4589 39.6558 76.3832 42.7177 75.9288C46.4221 75.3609 49.4084 74.3007 51.6386 72.7104C51.8654 72.5589 52.0922 72.3696 52.319 72.2181L54.7383 70.287C54.5115 70.4764 54.2847 70.6278 54.0579 70.7793C51.8276 72.3696 48.8414 73.4676 45.1369 73.9978V73.9599Z" fill="white"/>
</mask>
<g mask="url(#mask3_412_9747)">
<path d="M25.3301 74.1871L25.5947 76.4211H25.3301V74.1871Z" fill="#F06221"/>
<path d="M25.3301 70.4764L26.0483 76.4211H25.5947L25.3301 74.1871V70.4764Z" fill="#F06221"/>
<path d="M25.3301 66.7657L26.5019 76.4211H26.0483L25.3301 70.4764V66.7657Z" fill="#F06121"/>
<path d="M25.3301 63.0549L26.9555 76.4211H26.5019L25.3301 66.7657V63.0549Z" fill="#F06021"/>
<path d="M25.6325 61.8054L27.3713 76.4211H26.9555L25.3301 63.0549V61.8054H25.6325Z" fill="#F05F21"/>
<path d="M26.0845 61.8054L27.8233 76.4211H27.3697L25.6309 61.8054H26.0845Z" fill="#F05E21"/>
<path d="M26.5395 61.8054L28.2784 76.4211H27.8248L26.0859 61.8054H26.5395Z" fill="#F05D21"/>
<path d="M26.9549 61.8054L28.7315 76.4211H28.2779L26.5391 61.8054H26.9549Z" fill="#F05C21"/>
<path d="M27.4106 61.8054L29.1873 76.4211H28.7337L26.957 61.8054H27.4106Z" fill="#F05B21"/>
<path d="M27.8638 61.8054L29.6026 76.4211H29.1868L27.4102 61.8054H27.8638Z" fill="#F05A21"/>
<path d="M28.3169 61.8054L30.0557 76.4211H29.6021L27.8633 61.8054H28.3169Z" fill="#F05922"/>
<path d="M28.77 61.8054L30.5088 76.4211H30.0552L28.3164 61.8054H28.77Z" fill="#F05822"/>
<path d="M29.1853 61.8054L30.962 76.4211H30.5084L28.7695 61.8054H29.1853Z" fill="#F05722"/>
<path d="M29.6392 61.8054L31.4158 76.4211H30.9622L29.1855 61.8054H29.6392Z" fill="#EF5622"/>
<path d="M30.0923 61.8054L31.8311 76.4211H31.4153L29.6387 61.8054H30.0923Z" fill="#EF5522"/>
<path d="M30.5454 61.8054L32.2842 76.4211H31.8306L30.0918 61.8054H30.5454Z" fill="#EF5422"/>
<path d="M30.9985 61.8054L32.7374 76.4211H32.2838L30.5449 61.8054H30.9985Z" fill="#EF5322"/>
<path d="M31.4158 61.8054L33.1924 76.4211H32.7388L31 61.8054H31.4158Z" fill="#EF5222"/>
<path d="M31.8696 61.8054L33.6463 76.4211H33.1926L31.416 61.8054H31.8696Z" fill="#EF5122"/>
<path d="M32.3247 61.8054L34.0635 76.4211H33.6477L31.8711 61.8054H32.3247Z" fill="#EF5022"/>
<path d="M32.7778 61.8054L34.5167 76.4211H34.063L32.3242 61.8054H32.7778Z" fill="#EF4F22"/>
<path d="M33.231 61.8054L34.9698 76.4211H34.5162L32.7773 61.8054H33.231Z" fill="#EF4E22"/>
<path d="M33.6463 61.8054L35.4229 76.4211H34.9693L33.2305 61.8054H33.6463Z" fill="#EF4D22"/>
<path d="M34.1001 61.8054L35.8767 76.4211H35.4231L33.6465 61.8054H34.1001Z" fill="#EF4C22"/>
<path d="M34.5532 61.8054L36.292 76.4211H35.8762L34.0996 61.8054H34.5532Z" fill="#EF4B22"/>
<path d="M35.0063 61.8054L36.7452 76.4211H36.2916L34.5527 61.8054H35.0063Z" fill="#EF4A22"/>
<path d="M35.4595 61.8054L37.1983 76.4211H36.7447L35.0059 61.8054H35.4595Z" fill="#EF4923"/>
<path d="M35.8748 61.8054L37.6514 76.4211H37.1978L35.459 61.8054H35.8748Z" fill="#EF4823"/>
<path d="M36.3306 61.8054L38.1072 76.4211H37.6536L35.877 61.8054H36.3306Z" fill="#EF4723"/>
<path d="M36.7837 61.8054L38.5225 76.4211H38.1067L36.3301 61.8054H36.7837Z" fill="#EF4623"/>
<path d="M37.2388 61.8054L38.9776 76.4211H38.524L36.7852 61.8054H37.2388Z" fill="#EF4523"/>
<path d="M37.6919 61.8054L39.4307 76.4211H38.9771L37.2383 61.8054H37.6919Z" fill="#EF4423"/>
<path d="M38.1072 61.8054L39.8838 76.4211H39.4302L37.6914 61.8054H38.1072Z" fill="#EF4323"/>
<path d="M38.561 61.8054L40.3377 76.4211H39.8841L38.1074 61.8054H38.561Z" fill="#EF4223"/>
<path d="M39.0142 61.8054L40.753 76.4211H40.3372L38.5605 61.8054H39.0142Z" fill="#EF4123"/>
<path d="M39.4673 61.8054L41.2061 76.4211H40.7525L39.0137 61.8054H39.4673Z" fill="#EE3F23"/>
<path d="M39.9204 61.8054L41.6592 76.4211H41.2056L39.4668 61.8054H39.9204Z" fill="#EE3E23"/>
<path d="M40.3357 61.8054L42.1124 76.4211H41.6588L39.9199 61.8054H40.3357Z" fill="#EE3D23"/>
<path d="M40.7895 61.8054L42.5662 76.4211H42.1126L40.3359 61.8054H40.7895Z" fill="#EE3C23"/>
<path d="M41.2446 61.8054L43.0213 76.4211H42.5676L40.791 61.8054H41.2446Z" fill="#EE3B23"/>
<path d="M41.6977 61.8054L43.4366 76.4211H43.0208L41.2441 61.8054H41.6977Z" fill="#EE3A23"/>
<path d="M42.1528 61.8054L43.8917 76.4211H43.438L41.6992 61.8054H42.1528Z" fill="#EE3923"/>
<path d="M42.5681 61.8054L44.3448 76.4211H43.8912L42.1523 61.8054H42.5681Z" fill="#EE3823"/>
<path d="M43.02 61.8054L44.7966 76.4211H44.343L42.5664 61.8054H43.02Z" fill="#EE3724"/>
<path d="M43.4751 61.8054L45.2517 76.4211H44.7981L43.0215 61.8054H43.4751Z" fill="#EE3624"/>
<path d="M43.9282 61.8054L45.667 76.4211H45.2512L43.4746 61.8054H43.9282Z" fill="#EE3524"/>
<path d="M44.3813 61.8054L46.1202 76.4211H45.6666L43.9277 61.8054H44.3813Z" fill="#EE3424"/>
<path d="M44.7967 61.8054L46.5733 76.4211H46.1197L44.3809 61.8054H44.7967Z" fill="#EE3324"/>
<path d="M45.2505 61.8054L47.0271 76.4211H46.5735L44.7969 61.8054H45.2505Z" fill="#EE3224"/>
<path d="M45.7036 61.8054L47.4802 76.4211H47.0266L45.25 61.8054H45.7036Z" fill="#EE3124"/>
<path d="M46.1587 61.8054L47.8975 76.4211H47.4817L45.7051 61.8054H46.1587Z" fill="#EE3024"/>
<path d="M46.6118 61.8054L48.3506 76.4211H47.897L46.1582 61.8054H46.6118Z" fill="#EE2F24"/>
<path d="M47.0291 61.8054L48.8057 76.4211H48.3521L46.6133 61.8054H47.0291Z" fill="#EE2E24"/>
<path d="M47.481 61.8054L49.2576 76.4211H48.804L47.0273 61.8054H47.481Z" fill="#EE2D24"/>
<path d="M47.9341 61.8054L49.7107 76.4211H49.2571L47.4805 61.8054H47.9341Z" fill="#EE2C24"/>
<path d="M48.3892 61.8054L50.128 76.4211H49.7122L47.9355 61.8054H48.3892Z" fill="#EE2B24"/>
<path d="M48.8423 61.8054L50.5811 76.4211H50.1275L48.3887 61.8054H48.8423Z" fill="#EE2A24"/>
<path d="M49.2576 61.8054L51.0342 76.4211H50.5806L48.8418 61.8054H49.2576Z" fill="#ED2924"/>
<path d="M49.7114 61.8054L51.4881 76.4211H51.0344L49.2578 61.8054H49.7114Z" fill="#ED2824"/>
<path d="M50.1645 61.8054L51.9412 76.4211H51.4876L49.7109 61.8054H50.1645Z" fill="#ED2725"/>
<path d="M50.6177 61.8054L52.3565 76.4211H51.9407L50.1641 61.8054H50.6177Z" fill="#ED2625"/>
<path d="M51.0727 61.8054L52.8116 76.4211H52.358L50.6191 61.8054H51.0727Z" fill="#ED2525"/>
<path d="M51.4881 61.8054L53.2647 76.4211H52.8111L51.0723 61.8054H51.4881Z" fill="#ED2425"/>
<path d="M51.9419 61.8054L53.7185 76.4211H53.2649L51.4883 61.8054H51.9419Z" fill="#ED2325"/>
<path d="M52.395 61.8054L54.1716 76.4211H53.718L51.9414 61.8054H52.395Z" fill="#ED2225"/>
<path d="M52.8481 61.8054L54.587 76.4211H54.1712L52.3945 61.8054H52.8481Z" fill="#ED2125"/>
<path d="M53.3032 61.8054L54.7396 73.922V76.4211H54.5884L52.8496 61.8054H53.3032Z" fill="#ED2025"/>
<path d="M53.7185 61.8054L54.7392 70.2113V73.922L53.3027 61.8054H53.7185Z" fill="#ED1F25"/>
<path d="M54.7394 70.2113L53.7188 61.8054H54.7394V70.2113Z" fill="#ED1F25"/>
</g>
<path d="M54.0589 70.7036C51.8287 72.2939 48.8424 73.3919 45.138 73.922C42.0761 74.3764 38.9765 74.4521 35.839 74.1492C33.1174 73.8842 30.6981 73.3541 28.6569 72.5968C28.3545 72.4832 28.0899 72.3696 27.7875 72.256L28.9215 61.8054C31.0005 62.6384 33.2308 63.2443 35.65 63.585C38.0314 63.9258 40.2239 63.9258 42.2651 63.6229C42.9833 63.5093 43.5881 63.3957 44.1173 63.2443C44.8734 63.0549 45.4404 62.7899 45.8184 62.5248C45.8562 62.487 45.9318 62.4491 45.9696 62.4112C45.9696 62.4112 46.0452 62.3734 46.083 62.3355C46.083 62.3355 46.1586 62.2598 46.1964 62.2219C46.1964 62.2219 46.2342 62.1462 46.272 62.1462C46.272 62.1462 46.3098 62.0705 46.3476 62.0326C46.3476 62.0326 46.3854 61.9569 46.4232 61.9569C46.4232 61.919 46.4232 61.8811 46.461 61.8433C46.461 61.8433 46.461 61.7675 46.4988 61.7297C46.4988 61.6918 46.4988 61.654 46.4988 61.6161C46.4988 61.6161 46.4988 61.5404 46.4988 61.5025C46.4988 61.4646 46.4988 61.3889 46.4988 61.351C46.4988 61.351 46.4988 61.2753 46.4988 61.2374C46.4988 61.1996 46.4988 61.1238 46.4988 61.086C46.4988 61.086 46.4988 61.0481 46.4988 61.0103C46.4988 60.9345 46.4988 60.8209 46.4232 60.7452C46.1586 59.9122 45.516 59.3442 44.4197 59.0792C43.3235 58.8141 41.5847 58.5869 39.2411 58.4355C36.1792 58.2083 33.6088 57.8675 31.4919 57.4131C29.3751 56.9588 27.3339 55.9743 25.4438 54.4976C23.516 53.0209 22.1552 50.8247 21.3236 47.9092C20.6053 45.3722 20.5675 42.9868 21.2858 40.7528C21.3614 40.4877 21.4748 40.2227 21.5882 39.9576C21.5882 39.8819 21.6638 39.8062 21.7016 39.6926C21.7772 39.5032 21.8528 39.3518 21.9284 39.2003C21.9662 39.0867 22.0418 39.011 22.0796 38.8974C22.1552 38.746 22.2308 38.5945 22.3442 38.443C22.4198 38.3294 22.4576 38.2537 22.5332 38.1401C22.6088 37.9887 22.7222 37.8751 22.8356 37.7236C22.9112 37.6479 22.9868 37.5343 23.0624 37.4586C23.1758 37.3071 23.2892 37.1935 23.4026 37.0421C23.4782 36.9663 23.5538 36.8527 23.6294 36.777C23.7428 36.6255 23.894 36.512 24.0074 36.3605C24.083 36.2848 24.1586 36.209 24.2342 36.1333C24.3854 35.9819 24.5744 35.8304 24.7256 35.6789C24.8012 35.6411 24.839 35.5653 24.9146 35.5275C25.1792 35.3382 25.406 35.1488 25.7084 34.9595C27.9765 33.3692 30.9249 32.309 34.6672 31.741C37.1998 31.3624 39.8081 31.2867 42.4163 31.476C45.0624 31.7032 47.4816 32.2333 49.674 33.1042L48.7668 43.479C44.5332 42.0402 40.8287 41.5858 37.5778 42.078C37.3888 42.078 37.1998 42.1538 37.0108 42.1916C36.973 42.1916 36.9352 42.1916 36.8596 42.1916C36.7084 42.1916 36.595 42.2295 36.4438 42.2674C36.3682 42.2674 36.2926 42.3052 36.217 42.3431C36.1414 42.3431 36.028 42.3809 35.9524 42.4188C35.9146 42.4188 35.8768 42.4188 35.8012 42.4567C35.6878 42.4567 35.5744 42.5324 35.4988 42.5703C35.461 42.5703 35.4232 42.5703 35.3854 42.6081C35.272 42.6081 35.1964 42.6839 35.1208 42.7217C35.0452 42.7217 34.9696 42.7975 34.894 42.8353C34.8562 42.8353 34.7806 42.8732 34.7428 42.911C34.6672 42.911 34.5916 42.9868 34.5538 43.0246C34.516 43.0246 34.4782 43.0625 34.4404 43.1004C34.4026 43.1004 34.327 43.1761 34.2892 43.214C34.2514 43.214 34.2136 43.2897 34.138 43.2897C33.7222 43.6305 33.4954 43.9713 33.4198 44.4256C33.382 44.7285 33.4198 45.0315 33.4954 45.3722C33.7222 46.1674 34.3648 46.6975 35.461 46.9625C36.5194 47.2276 38.2204 47.4169 40.5641 47.5305C43.5503 47.682 46.1208 47.9849 48.3132 48.4393C50.4678 48.8936 52.5091 49.8402 54.4369 51.317C56.3648 52.7937 57.7256 54.9519 58.595 57.8675C59.3132 60.4044 59.351 62.752 58.595 65.0239C57.8768 67.2579 56.4026 69.189 54.1723 70.7793L54.0589 70.7036Z" fill="#FFF702"/>
<path d="M36.1424 74.1871C37.2764 74.3007 38.4105 74.3385 39.5445 74.3764C41.4345 74.3764 43.2868 74.2249 45.139 73.9599C48.8434 73.3919 51.8297 72.3317 54.0599 70.7414C56.2902 69.1511 57.7644 67.22 58.4826 64.986C59.2008 62.752 59.163 60.3665 58.4826 57.8296C57.651 54.9141 56.2524 52.7558 54.3245 51.2791C52.3967 49.8024 50.3555 48.8557 48.2008 48.4014C46.0462 47.947 43.4758 47.6441 40.4517 47.4926C38.1081 47.379 36.4448 47.1897 35.3486 46.9247C34.2902 46.6596 33.6098 46.1295 33.383 45.3343C33.2696 44.9936 33.2696 44.6907 33.3074 44.3877C33.383 43.9712 33.6098 43.5926 34.0256 43.2518C34.0634 43.2518 34.1012 43.1761 34.1768 43.1761C34.2146 43.1761 34.2524 43.1003 34.328 43.0625C34.328 43.0625 34.4036 43.0246 34.4414 42.9868C34.517 42.9489 34.5548 42.911 34.6304 42.8732C34.6682 42.8732 34.7438 42.8353 34.7816 42.7974C34.8572 42.7974 34.9328 42.7217 35.0084 42.6838C35.084 42.6838 35.1974 42.6081 35.273 42.5702C35.3108 42.5702 35.3486 42.5702 35.3864 42.5324C35.4998 42.5324 35.5754 42.4567 35.6888 42.4188C35.7266 42.4188 35.7644 42.4188 35.84 42.3809C35.9156 42.3809 35.9912 42.3431 36.1046 42.3052C36.1802 42.3052 36.2558 42.2673 36.3314 42.2295C36.4448 42.2295 36.596 42.1537 36.7472 42.1537C36.785 42.1537 36.8228 42.1537 36.8984 42.1537C37.0874 42.1537 37.2765 42.078 37.4655 42.0401C38.3349 41.9265 39.2421 41.8508 40.1871 41.8508C42.7575 41.8508 45.5926 42.3431 48.6922 43.3654L49.5995 33.1041C47.407 32.2332 44.9878 31.7031 42.3417 31.476C41.4345 31.4002 40.5273 31.3624 39.6201 31.3624C38.0325 31.3624 36.4826 31.476 34.9328 31.741C31.2283 32.309 28.2421 33.3692 25.9741 34.9595C25.7095 35.1488 25.4448 35.3381 25.1802 35.5275C25.1046 35.5653 25.0668 35.641 24.9912 35.6789C24.8022 35.8304 24.651 35.9818 24.4998 36.1333C24.4242 36.209 24.3486 36.2847 24.273 36.3605C24.1218 36.4741 24.0084 36.6255 23.895 36.777C23.8194 36.8527 23.7438 36.9663 23.6682 37.042C23.5548 37.1556 23.4414 37.3071 23.328 37.4585C23.2524 37.5343 23.1768 37.6479 23.1012 37.7236C22.9878 37.8751 22.9122 37.9886 22.7988 38.1401C22.7232 38.2537 22.6854 38.3294 22.6098 38.443C22.5342 38.5945 22.4208 38.7459 22.3452 38.8974C22.3074 39.011 22.2318 39.0867 22.194 39.2003C22.1184 39.3518 22.0428 39.5411 21.9672 39.6925C21.9672 39.7683 21.8916 39.844 21.8538 39.9576C21.7404 40.2226 21.6648 40.4877 21.5514 40.7527C20.8332 43.0246 20.871 45.4101 21.5892 47.9091C22.4208 50.8247 23.8194 53.0208 25.7095 54.4975C27.5995 55.9743 29.6407 56.9587 31.7576 57.4131C33.8744 57.8675 36.4826 58.2083 39.5067 58.4354C41.8881 58.5869 43.5892 58.8141 44.6854 59.0791C45.7816 59.3442 46.462 59.9122 46.6888 60.7452C46.6888 60.8209 46.7266 60.9345 46.7644 61.0102C46.7644 61.0102 46.7644 61.0481 46.7644 61.086C46.7644 61.1238 46.7644 61.1996 46.7644 61.2374C46.7644 61.2374 46.7644 61.3131 46.7644 61.351C46.7644 61.3889 46.7644 61.4646 46.7644 61.5025C46.7644 61.5025 46.7644 61.5782 46.7644 61.6161C46.7644 61.6539 46.7644 61.6918 46.7644 61.7297C46.7644 61.7297 46.7644 61.8054 46.7266 61.8433C46.7266 61.8811 46.7266 61.919 46.6888 61.9568C46.6888 61.9568 46.651 62.0326 46.6132 62.0326C46.6132 62.0326 46.5754 62.1083 46.5376 62.1462C46.5376 62.1462 46.4998 62.2219 46.462 62.2219C46.462 62.2219 46.3864 62.2976 46.3486 62.3355C46.3486 62.3355 46.273 62.4112 46.2352 62.4112C46.1974 62.4491 46.1596 62.4869 46.084 62.5248C45.706 62.7899 45.139 63.0549 44.383 63.2442C43.8538 63.3957 43.249 63.5093 42.5307 63.6229C41.5101 63.7743 40.4139 63.8501 39.2799 63.8501C38.1081 63.8501 36.8984 63.7743 35.6132 63.585C33.3452 63.2821 31.2283 62.7141 29.2249 61.919L28.0909 72.256C28.3555 72.3696 28.6579 72.4832 28.9603 72.5968C31.0015 73.3919 33.4208 73.8841 36.1424 74.1492V74.1871Z" fill="#FFCC01"/>
<mask id="mask4_412_9747" style="mask-type:luminance" maskUnits="userSpaceOnUse" x="70" y="43" width="10" height="11">
<path d="M73.0741 46.2809L77.5346 52.6422L79.0844 52.3771L72.9229 43.5547L70.7305 53.8538L71.5243 53.7024L73.0741 46.2809Z" fill="white"/>
</mask>
<g mask="url(#mask4_412_9747)">
<path d="M70.8439 43.5547H70.7305V53.8538H70.8439V43.5547Z" fill="#F06221"/>
<path d="M70.9572 43.5547H70.8438V53.8538H70.9572V43.5547Z" fill="#F06121"/>
<path d="M71.1075 43.5547H70.9941V53.8538H71.1075V43.5547Z" fill="#F06021"/>
<path d="M71.2208 43.5547H71.1074V53.8538H71.2208V43.5547Z" fill="#F05F21"/>
<path d="M71.3361 43.5547H71.2227V53.8538H71.3361V43.5547Z" fill="#F05E21"/>
<path d="M71.4493 43.5547H71.3359V53.8538H71.4493V43.5547Z" fill="#F05D21"/>
<path d="M71.5997 43.5547H71.4863V53.8538H71.5997V43.5547Z" fill="#F05C21"/>
<path d="M71.713 43.5547H71.5996V53.8538H71.713V43.5547Z" fill="#F05B21"/>
<path d="M71.8263 43.5547H71.7129V53.8538H71.8263V43.5547Z" fill="#F05A21"/>
<path d="M71.9786 43.5547H71.8652V53.8538H71.9786V43.5547Z" fill="#F05922"/>
<path d="M72.0919 43.5547H71.9785V53.8538H72.0919V43.5547Z" fill="#F05822"/>
<path d="M72.2052 43.5547H72.0918V53.8538H72.2052V43.5547Z" fill="#F05722"/>
<path d="M72.3556 43.5547H72.2422V53.8538H72.3556V43.5547Z" fill="#EF5622"/>
<path d="M72.4708 43.5547H72.3574V53.8538H72.4708V43.5547Z" fill="#EF5522"/>
<path d="M72.5822 43.5547H72.4688V53.8538H72.5822V43.5547Z" fill="#EF5422"/>
<path d="M72.6954 43.5547H72.582V53.8538H72.6954V43.5547Z" fill="#EF5322"/>
<path d="M72.8478 43.5547H72.7344V53.8538H72.8478V43.5547Z" fill="#EF5222"/>
<path d="M72.9611 43.5547H72.8477V53.8538H72.9611V43.5547Z" fill="#EF5122"/>
<path d="M73.0743 43.5547H72.9609V53.8538H73.0743V43.5547Z" fill="#EF5022"/>
<path d="M73.2247 43.5547H73.1113V53.8538H73.2247V43.5547Z" fill="#EF4F22"/>
<path d="M73.338 43.5547H73.2246V53.8538H73.338V43.5547Z" fill="#EF4E22"/>
<path d="M73.4532 43.5547H73.3398V53.8538H73.4532V43.5547Z" fill="#EF4D22"/>
<path d="M73.5646 43.5547H73.4512V53.8538H73.5646V43.5547Z" fill="#EF4C22"/>
<path d="M73.7169 43.5547H73.6035V53.8538H73.7169V43.5547Z" fill="#EF4B22"/>
<path d="M73.8302 43.5547H73.7168V53.8538H73.8302V43.5547Z" fill="#EF4A22"/>
<path d="M73.9435 43.5547H73.8301V53.8538H73.9435V43.5547Z" fill="#EF4923"/>
<path d="M74.0939 43.5547H73.9805V53.8538H74.0939V43.5547Z" fill="#EF4823"/>
<path d="M74.2072 43.5547H74.0938V53.8538H74.2072V43.5547Z" fill="#EF4723"/>
<path d="M74.3224 43.5547H74.209V53.8538H74.3224V43.5547Z" fill="#EF4623"/>
<path d="M74.4357 43.5547H74.3223V53.8538H74.4357V43.5547Z" fill="#EF4523"/>
<path d="M74.5861 43.5547H74.4727V53.8538H74.5861V43.5547Z" fill="#EF4423"/>
<path d="M74.6993 43.5547H74.5859V53.8538H74.6993V43.5547Z" fill="#EF4323"/>
<path d="M74.8126 43.5547H74.6992V53.8538H74.8126V43.5547Z" fill="#EF4223"/>
<path d="M74.965 43.5547H74.8516V53.8538H74.965V43.5547Z" fill="#EF4123"/>
<path d="M75.0763 43.5547H74.9629V53.8538H75.0763V43.5547Z" fill="#EE3F23"/>
<path d="M75.1915 43.5547H75.0781V53.8538H75.1915V43.5547Z" fill="#EE3E23"/>
<path d="M75.3419 43.5547H75.2285V53.8538H75.3419V43.5547Z" fill="#EE3D23"/>
<path d="M75.4572 43.5547H75.3438V53.8538H75.4572V43.5547Z" fill="#EE3C23"/>
<path d="M75.5685 43.5547H75.4551V53.8538H75.5685V43.5547Z" fill="#EE3B23"/>
<path d="M75.6818 43.5547H75.5684V53.8538H75.6818V43.5547Z" fill="#EE3A23"/>
<path d="M75.8341 43.5547H75.7207V53.8538H75.8341V43.5547Z" fill="#EE3923"/>
<path d="M75.9474 43.5547H75.834V53.8538H75.9474V43.5547Z" fill="#EE3823"/>
<path d="M76.0587 43.5547H75.9453V53.8538H76.0587V43.5547Z" fill="#EE3724"/>
<path d="M76.2111 43.5547H76.0977V53.8538H76.2111V43.5547Z" fill="#EE3624"/>
<path d="M76.3243 43.5547H76.2109V53.8538H76.3243V43.5547Z" fill="#EE3524"/>
<path d="M76.4396 43.5547H76.3262V53.8538H76.4396V43.5547Z" fill="#EE3424"/>
<path d="M76.5509 43.5547H76.4375V53.8538H76.5509V43.5547Z" fill="#EE3324"/>
<path d="M76.7032 43.5547H76.5898V53.8538H76.7032V43.5547Z" fill="#EE3224"/>
<path d="M76.8165 43.5547H76.7031V53.8538H76.8165V43.5547Z" fill="#EE3124"/>
<path d="M76.9298 43.5547H76.8164V53.8538H76.9298V43.5547Z" fill="#EE3024"/>
<path d="M77.0802 43.5547H76.9668V53.8538H77.0802V43.5547Z" fill="#EE2F24"/>
<path d="M77.1935 43.5547H77.0801V53.8538H77.1935V43.5547Z" fill="#EE2E24"/>
<path d="M77.3087 43.5547H77.1953V53.8538H77.3087V43.5547Z" fill="#EE2D24"/>
<path d="M77.422 43.5547H77.3086V53.8538H77.422V43.5547Z" fill="#EE2C24"/>
<path d="M77.5724 43.5547H77.459V53.8538H77.5724V43.5547Z" fill="#EE2B24"/>
<path d="M77.6857 43.5547H77.5723V53.8538H77.6857V43.5547Z" fill="#EE2A24"/>
<path d="M77.799 43.5547H77.6855V53.8538H77.799V43.5547Z" fill="#ED2924"/>
<path d="M77.9513 43.5547H77.8379V53.8538H77.9513V43.5547Z" fill="#ED2824"/>
<path d="M78.0626 43.5547H77.9492V53.8538H78.0626V43.5547Z" fill="#ED2725"/>
<path d="M78.1779 43.5547H78.0645V53.8538H78.1779V43.5547Z" fill="#ED2625"/>
<path d="M78.3282 43.5547H78.2148V53.8538H78.3282V43.5547Z" fill="#ED2525"/>
<path d="M78.4415 43.5547H78.3281V53.8538H78.4415V43.5547Z" fill="#ED2425"/>
<path d="M78.5548 43.5547H78.4414V53.8538H78.5548V43.5547Z" fill="#ED2325"/>
<path d="M78.6681 43.5547H78.5547V53.8538H78.6681V43.5547Z" fill="#ED2225"/>
<path d="M78.8204 43.5547H78.707V53.8538H78.8204V43.5547Z" fill="#ED2125"/>
<path d="M78.9337 43.5547H78.8203V53.8538H78.9337V43.5547Z" fill="#ED2025"/>
<path d="M79.045 43.5547H78.9316V53.8538H79.045V43.5547Z" fill="#ED1F25"/>
</g>
<mask id="mask5_412_9747" style="mask-type:luminance" maskUnits="userSpaceOnUse" x="52" y="60" width="53" height="17">
<path d="M89.2495 66.9928L84.978 60.8967L68.6481 63.7744L67.1739 70.9307L52.4316 73.5434L52.6206 76.2318L67.3251 73.6191L68.8371 66.5006L85.1292 63.585L89.4007 69.7191L104.37 67.0686L104.181 64.3423L89.2495 66.9928Z" fill="white"/>
</mask>
<g mask="url(#mask5_412_9747)">
<path d="M53.2255 60.8967H52.4316V76.2696H53.2255V60.8967Z" fill="#F06221"/>
<path d="M54.0184 60.8967H53.2246V76.2696H54.0184V60.8967Z" fill="#F06121"/>
<path d="M54.7762 60.8967H53.9824V76.2696H54.7762V60.8967Z" fill="#F06021"/>
<path d="M55.5692 60.8967H54.7754V76.2696H55.5692V60.8967Z" fill="#F05F21"/>
<path d="M56.3251 60.8967H55.5312V76.2696H56.3251V60.8967Z" fill="#F05E21"/>
<path d="M57.118 60.8967H56.3242V76.2696H57.118V60.8967Z" fill="#F05D21"/>
<path d="M57.8758 60.8967H57.082V76.2696H57.8758V60.8967Z" fill="#F05C21"/>
<path d="M58.6688 60.8967H57.875V76.2696H58.6688V60.8967Z" fill="#F05B21"/>
<path d="M59.4247 60.8967H58.6309V76.2696H59.4247V60.8967Z" fill="#F05A21"/>
<path d="M60.2196 60.8967H59.4258V76.2696H60.2196V60.8967Z" fill="#F05922"/>
<path d="M60.9735 60.8967H60.1797V76.2696H60.9735V60.8967Z" fill="#F05822"/>
<path d="M61.7684 60.8967H60.9746V76.2696H61.7684V60.8967Z" fill="#F05722"/>
<path d="M62.5243 60.8967H61.7305V76.2696H62.5243V60.8967Z" fill="#EF5622"/>
<path d="M63.3173 60.8967H62.5234V76.2696H63.3173V60.8967Z" fill="#EF5522"/>
<path d="M64.0751 60.8967H63.2812V76.2696H64.0751V60.8967Z" fill="#EF5422"/>
<path d="M64.868 60.8967H64.0742V76.2696H64.868V60.8967Z" fill="#EF5322"/>
<path d="M65.6239 60.8967H64.8301V76.2696H65.6239V60.8967Z" fill="#EF5222"/>
<path d="M66.4169 60.8967H65.623V76.2696H66.4169V60.8967Z" fill="#EF5122"/>
<path d="M67.1747 60.8967H66.3809V76.2696H67.1747V60.8967Z" fill="#EF5022"/>
<path d="M67.9676 60.8967H67.1738V76.2696H67.9676V60.8967Z" fill="#EF4F22"/>
<path d="M68.7235 60.8967H67.9297V76.2696H68.7235V60.8967Z" fill="#EF4E22"/>
<path d="M69.5184 60.8967H68.7246V76.2696H69.5184V60.8967Z" fill="#EF4D22"/>
<path d="M70.2723 60.8967H69.4785V76.2696H70.2723V60.8967Z" fill="#EF4C22"/>
<path d="M71.0672 60.8967H70.2734V76.2696H71.0672V60.8967Z" fill="#EF4B22"/>
<path d="M71.8231 60.8967H71.0293V76.2696H71.8231V60.8967Z" fill="#EF4A22"/>
<path d="M72.618 60.8967H71.8242V76.2696H72.618V60.8967Z" fill="#EF4923"/>
<path d="M73.3739 60.8967H72.5801V76.2696H73.3739V60.8967Z" fill="#EF4823"/>
<path d="M74.1669 60.8967H73.373V76.2696H74.1669V60.8967Z" fill="#EF4723"/>
<path d="M74.9227 60.8967H74.1289V76.2696H74.9227V60.8967Z" fill="#EF4623"/>
<path d="M75.7157 60.8967H74.9219V76.2696H75.7157V60.8967Z" fill="#EF4523"/>
<path d="M76.4735 60.8967H75.6797V76.2696H76.4735V60.8967Z" fill="#EF4423"/>
<path d="M77.2665 60.8967H76.4727V76.2696H77.2665V60.8967Z" fill="#EF4323"/>
<path d="M78.0223 60.8967H77.2285V76.2696H78.0223V60.8967Z" fill="#EF4223"/>
<path d="M78.8173 60.8967H78.0234V76.2696H78.8173V60.8967Z" fill="#EF4123"/>
<path d="M79.5712 60.8967H78.7773V76.2696H79.5712V60.8967Z" fill="#EE3F23"/>
<path d="M80.3661 60.8967H79.5723V76.2696H80.3661V60.8967Z" fill="#EE3E23"/>
<path d="M81.1219 60.8967H80.3281V76.2696H81.1219V60.8967Z" fill="#EE3D23"/>
<path d="M81.9169 60.8967H81.123V76.2696H81.9169V60.8967Z" fill="#EE3C23"/>
<path d="M82.6727 60.8967H81.8789V76.2696H82.6727V60.8967Z" fill="#EE3B23"/>
<path d="M83.4657 60.8967H82.6719V76.2696H83.4657V60.8967Z" fill="#EE3A23"/>
<path d="M84.2216 60.8967H83.4277V76.2696H84.2216V60.8967Z" fill="#EE3923"/>
<path d="M85.0145 60.8967H84.2207V76.2696H85.0145V60.8967Z" fill="#EE3823"/>
<path d="M85.7723 60.8967H84.9785V76.2696H85.7723V60.8967Z" fill="#EE3724"/>
<path d="M86.5653 60.8967H85.7715V76.2696H86.5653V60.8967Z" fill="#EE3624"/>
<path d="M87.3231 60.8967H86.5293V76.2696H87.3231V60.8967Z" fill="#EE3524"/>
<path d="M88.1161 60.8967H87.3223V76.2696H88.1161V60.8967Z" fill="#EE3424"/>
<path d="M88.8719 60.8967H88.0781V76.2696H88.8719V60.8967Z" fill="#EE3324"/>
<path d="M89.6649 60.8967H88.8711V76.2696H89.6649V60.8967Z" fill="#EE3224"/>
<path d="M90.4208 60.8967H89.627V76.2696H90.4208V60.8967Z" fill="#EE3124"/>
<path d="M91.2157 60.8967H90.4219V76.2696H91.2157V60.8967Z" fill="#EE3024"/>
<path d="M91.9715 60.8967H91.1777V76.2696H91.9715V60.8967Z" fill="#EE2F24"/>
<path d="M92.7645 60.8967H91.9707V76.2696H92.7645V60.8967Z" fill="#EE2E24"/>
<path d="M93.5204 60.8967H92.7266V76.2696H93.5204V60.8967Z" fill="#EE2D24"/>
<path d="M94.3133 60.8967H93.5195V76.2696H94.3133V60.8967Z" fill="#EE2C24"/>
<path d="M95.0712 60.8967H94.2773V76.2696H95.0712V60.8967Z" fill="#EE2B24"/>
<path d="M95.8641 60.8967H95.0703V76.2696H95.8641V60.8967Z" fill="#EE2A24"/>
<path d="M96.6219 60.8967H95.8281V76.2696H96.6219V60.8967Z" fill="#ED2924"/>
<path d="M97.4149 60.8967H96.6211V76.2696H97.4149V60.8967Z" fill="#ED2824"/>
<path d="M98.1708 60.8967H97.377V76.2696H98.1708V60.8967Z" fill="#ED2725"/>
<path d="M98.9637 60.8967H98.1699V76.2696H98.9637V60.8967Z" fill="#ED2625"/>
<path d="M99.7196 60.8967H98.9258V76.2696H99.7196V60.8967Z" fill="#ED2525"/>
<path d="M100.515 60.8967H99.7207V76.2696H100.515V60.8967Z" fill="#ED2425"/>
<path d="M101.27 60.8967H100.477V76.2696H101.27V60.8967Z" fill="#ED2325"/>
<path d="M102.065 60.8967H101.271V76.2696H102.065V60.8967Z" fill="#ED2225"/>
<path d="M102.819 60.8967H102.025V76.2696H102.819V60.8967Z" fill="#ED2125"/>
<path d="M103.614 60.8967H102.82V76.2696H103.614V60.8967Z" fill="#ED2025"/>
<path d="M104.37 60.8967H103.576V76.2696H104.37V60.8967Z" fill="#ED1F25"/>
</g>
<path d="M77.5325 29.6585L63.3195 32.1954L52.4707 73.5434L67.1752 70.9308L68.6872 63.8122L85.0171 60.9345L89.2885 67.0307L104.258 64.3802L77.5703 29.6964L77.5325 29.6585ZM77.5325 52.6422L71.5222 53.7024L70.7284 53.8539L72.9209 43.5548L79.0824 52.3772L77.5325 52.6422Z" fill="#FFF702"/>
<path d="M89.4409 66.9171L104.145 64.3045L77.4959 29.6585L63.4718 32.1576L52.623 73.4677L67.1385 70.8929L68.6505 63.8122H68.8773V63.7365L85.2072 60.8588L89.4787 66.955L89.4409 66.9171ZM79.0457 52.3393L77.4959 52.6044L71.4856 53.6646L70.6918 53.816L72.8842 43.5169L73.0354 43.7441L73.111 43.4412L79.2725 52.2636H79.0457V52.3393Z" fill="#FFCC01"/>
<mask id="mask6_412_9747" style="mask-type:luminance" maskUnits="userSpaceOnUse" x="106" y="22" width="5" height="40">
<path d="M110.119 24.774L106.869 22.4264L106.793 61.9947L110.082 61.1617L110.119 24.774Z" fill="white"/>
</mask>
<g mask="url(#mask6_412_9747)">
<path d="M106.831 22.4264H106.793V61.9947H106.831V22.4264Z" fill="#F06221"/>
<path d="M106.868 22.4264H106.83V61.9947H106.868V22.4264Z" fill="#F06121"/>
<path d="M106.907 22.4264H106.869V61.9947H106.907V22.4264Z" fill="#F06021"/>
<path d="M106.983 22.4264H106.945V61.9947H106.983V22.4264Z" fill="#F05F21"/>
<path d="M107.02 22.4264H106.982V61.9947H107.02V22.4264Z" fill="#F05E21"/>
<path d="M107.057 22.4264H107.02V61.9947H107.057V22.4264Z" fill="#F05D21"/>
<path d="M107.132 22.4264H107.094V61.9947H107.132V22.4264Z" fill="#F05C21"/>
<path d="M107.171 22.4264H107.133V61.9947H107.171V22.4264Z" fill="#F05B21"/>
<path d="M107.208 22.4264H107.17V61.9947H107.208V22.4264Z" fill="#F05A21"/>
<path d="M107.284 22.4264H107.246V61.9947H107.284V22.4264Z" fill="#F05922"/>
<path d="M107.323 22.4264H107.285V61.9947H107.323V22.4264Z" fill="#F05822"/>
<path d="M107.36 22.4264H107.322V61.9947H107.36V22.4264Z" fill="#F05722"/>
<path d="M107.436 22.4264H107.398V61.9947H107.436V22.4264Z" fill="#EF5622"/>
<path d="M107.473 22.4264H107.436V61.9947H107.473V22.4264Z" fill="#EF5522"/>
<path d="M107.512 22.4264H107.475V61.9947H107.512V22.4264Z" fill="#EF5422"/>
<path d="M107.587 22.4264H107.549V61.9947H107.587V22.4264Z" fill="#EF5322"/>
<path d="M107.624 22.4264H107.586V61.9947H107.624V22.4264Z" fill="#EF5222"/>
<path d="M107.661 22.4264H107.623V61.9947H107.661V22.4264Z" fill="#EF5122"/>
<path d="M107.7 22.4264H107.662V61.9947H107.7V22.4264Z" fill="#EF5022"/>
<path d="M107.776 22.4264H107.738V61.9947H107.776V22.4264Z" fill="#EF4F22"/>
<path d="M107.813 22.4264H107.775V61.9947H107.813V22.4264Z" fill="#EF4E22"/>
<path d="M107.852 22.4264H107.814V61.9947H107.852V22.4264Z" fill="#EF4D22"/>
<path d="M107.926 22.4264H107.889V61.9947H107.926V22.4264Z" fill="#EF4C22"/>
<path d="M107.966 22.4264H107.928V61.9947H107.966V22.4264Z" fill="#EF4B22"/>
<path d="M108.003 22.4264H107.965V61.9947H108.003V22.4264Z" fill="#EF4A22"/>
<path d="M108.079 22.4264H108.041V61.9947H108.079V22.4264Z" fill="#EF4923"/>
<path d="M108.116 22.4264H108.078V61.9947H108.116V22.4264Z" fill="#EF4823"/>
<path d="M108.153 22.4264H108.115V61.9947H108.153V22.4264Z" fill="#EF4723"/>
<path d="M108.229 22.4264H108.191V61.9947H108.229V22.4264Z" fill="#EF4623"/>
<path d="M108.266 22.4264H108.229V61.9947H108.266V22.4264Z" fill="#EF4523"/>
<path d="M108.305 22.4264H108.268V61.9947H108.305V22.4264Z" fill="#EF4423"/>
<path d="M108.382 22.4264H108.344V61.9947H108.382V22.4264Z" fill="#EF4323"/>
<path d="M108.419 22.4264H108.381V61.9947H108.419V22.4264Z" fill="#EF4223"/>
<path d="M108.458 22.4264H108.42V61.9947H108.458V22.4264Z" fill="#EF4123"/>
<path d="M108.532 22.4264H108.494V61.9947H108.532V22.4264Z" fill="#EE3F23"/>
<path d="M108.569 22.4264H108.531V61.9947H108.569V22.4264Z" fill="#EE3E23"/>
<path d="M108.606 22.4264H108.568V61.9947H108.606V22.4264Z" fill="#EE3D23"/>
<path d="M108.682 22.4264H108.645V61.9947H108.682V22.4264Z" fill="#EE3C23"/>
<path d="M108.721 22.4264H108.684V61.9947H108.721V22.4264Z" fill="#EE3B23"/>
<path d="M108.759 22.4264H108.721V61.9947H108.759V22.4264Z" fill="#EE3A23"/>
<path d="M108.835 22.4264H108.797V61.9947H108.835V22.4264Z" fill="#EE3923"/>
<path d="M108.872 22.4264H108.834V61.9947H108.872V22.4264Z" fill="#EE3823"/>
<path d="M108.911 22.4264H108.873V61.9947H108.911V22.4264Z" fill="#EE3724"/>
<path d="M108.987 22.4264H108.949V61.9947H108.987V22.4264Z" fill="#EE3624"/>
<path d="M109.024 22.4264H108.986V61.9947H109.024V22.4264Z" fill="#EE3524"/>
<path d="M109.061 22.4264H109.023V61.9947H109.061V22.4264Z" fill="#EE3424"/>
<path d="M109.098 22.4264H109.061V61.9947H109.098V22.4264Z" fill="#EE3324"/>
<path d="M109.175 22.4264H109.137V61.9947H109.175V22.4264Z" fill="#EE3224"/>
<path d="M109.212 22.4264H109.174V61.9947H109.212V22.4264Z" fill="#EE3124"/>
<path d="M109.251 22.4264H109.213V61.9947H109.251V22.4264Z" fill="#EE3024"/>
<path d="M109.325 22.4264H109.287V61.9947H109.325V22.4264Z" fill="#EE2F24"/>
<path d="M109.364 22.4264H109.326V61.9947H109.364V22.4264Z" fill="#EE2E24"/>
<path d="M109.401 22.4264H109.363V61.9947H109.401V22.4264Z" fill="#EE2D24"/>
<path d="M109.477 22.4264H109.439V61.9947H109.477V22.4264Z" fill="#EE2C24"/>
<path d="M109.514 22.4264H109.477V61.9947H109.514V22.4264Z" fill="#EE2B24"/>
<path d="M109.551 22.4264H109.514V61.9947H109.551V22.4264Z" fill="#EE2A24"/>
<path d="M109.628 22.4264H109.59V61.9947H109.628V22.4264Z" fill="#ED2924"/>
<path d="M109.665 22.4264H109.627V61.9947H109.665V22.4264Z" fill="#ED2824"/>
<path d="M109.704 22.4264H109.666V61.9947H109.704V22.4264Z" fill="#ED2725"/>
<path d="M109.78 22.4264H109.742V61.9947H109.78V22.4264Z" fill="#ED2625"/>
<path d="M109.817 22.4264H109.779V61.9947H109.817V22.4264Z" fill="#ED2525"/>
<path d="M109.854 22.4264H109.816V61.9947H109.854V22.4264Z" fill="#ED2425"/>
<path d="M109.93 22.4264H109.893V61.9947H109.93V22.4264Z" fill="#ED2325"/>
<path d="M109.969 22.4264H109.932V61.9947H109.969V22.4264Z" fill="#ED2225"/>
<path d="M110.007 22.4264H109.969V61.9947H110.007V22.4264Z" fill="#ED2125"/>
<path d="M110.081 22.4264H110.043V61.9947H110.081V22.4264Z" fill="#ED2025"/>
<path d="M110.118 22.4264H110.08V61.9947H110.118V22.4264Z" fill="#ED1F25"/>
</g>
<mask id="mask7_412_9747" style="mask-type:luminance" maskUnits="userSpaceOnUse" x="89" y="56" width="44" height="27">
<path d="M129.661 70.0977L89.668 80.3969L92.9566 82.7445L132.912 72.4453L132.95 58.4355L129.661 56.0879V70.0977Z" fill="white"/>
</mask>
<g mask="url(#mask7_412_9747)">
<path d="M90.3106 56.0879H89.668V82.7445H90.3106V56.0879Z" fill="#F06221"/>
<path d="M90.9532 56.0879H90.3105V82.7445H90.9532V56.0879Z" fill="#F06121"/>
<path d="M91.5957 56.0879H90.9531V82.7445H91.5957V56.0879Z" fill="#F06021"/>
<path d="M92.2383 56.0879H91.5957V82.7445H92.2383V56.0879Z" fill="#F05F21"/>
<path d="M92.8809 56.0879H92.2383V82.7445H92.8809V56.0879Z" fill="#F05E21"/>
<path d="M93.5235 56.0879H92.8809V82.7445H93.5235V56.0879Z" fill="#F05D21"/>
<path d="M94.166 56.0879H93.5234V82.7445H94.166V56.0879Z" fill="#F05C21"/>
<path d="M94.8086 56.0879H94.166V82.7445H94.8086V56.0879Z" fill="#F05B21"/>
<path d="M95.4883 56.0879H94.8457V82.7445H95.4883V56.0879Z" fill="#F05A21"/>
<path d="M96.1309 56.0879H95.4883V82.7445H96.1309V56.0879Z" fill="#F05922"/>
<path d="M96.7754 56.0879H96.1328V82.7445H96.7754V56.0879Z" fill="#F05822"/>
<path d="M97.418 56.0879H96.7754V82.7445H97.418V56.0879Z" fill="#F05722"/>
<path d="M98.0586 56.0879H97.416V82.7445H98.0586V56.0879Z" fill="#EF5622"/>
<path d="M98.7032 56.0879H98.0605V82.7445H98.7032V56.0879Z" fill="#EF5522"/>
<path d="M99.3457 56.0879H98.7031V82.7445H99.3457V56.0879Z" fill="#EF5422"/>
<path d="M99.9864 56.0879H99.3438V82.7445H99.9864V56.0879Z" fill="#EF5322"/>
<path d="M100.631 56.0879H99.9883V82.7445H100.631V56.0879Z" fill="#EF5222"/>
<path d="M101.273 56.0879H100.631V82.7445H101.273V56.0879Z" fill="#EF5122"/>
<path d="M101.914 56.0879H101.271V82.7445H101.914V56.0879Z" fill="#EF5022"/>
<path d="M102.596 56.0879H101.953V82.7445H102.596V56.0879Z" fill="#EF4F22"/>
<path d="M103.238 56.0879H102.596V82.7445H103.238V56.0879Z" fill="#EF4E22"/>
<path d="M103.881 56.0879H103.238V82.7445H103.881V56.0879Z" fill="#EF4D22"/>
<path d="M104.523 56.0879H103.881V82.7445H104.523V56.0879Z" fill="#EF4C22"/>
<path d="M105.166 56.0879H104.523V82.7445H105.166V56.0879Z" fill="#EF4B22"/>
<path d="M105.809 56.0879H105.166V82.7445H105.809V56.0879Z" fill="#EF4A22"/>
<path d="M106.451 56.0879H105.809V82.7445H106.451V56.0879Z" fill="#EF4923"/>
<path d="M107.094 56.0879H106.451V82.7445H107.094V56.0879Z" fill="#EF4823"/>
<path d="M107.736 56.0879H107.094V82.7445H107.736V56.0879Z" fill="#EF4723"/>
<path d="M108.379 56.0879H107.736V82.7445H108.379V56.0879Z" fill="#EF4623"/>
<path d="M109.061 56.0879H108.418V82.7445H109.061V56.0879Z" fill="#EF4523"/>
<path d="M109.703 56.0879H109.061V82.7445H109.703V56.0879Z" fill="#EF4423"/>
<path d="M110.344 56.0879H109.701V82.7445H110.344V56.0879Z" fill="#EF4323"/>
<path d="M110.988 56.0879H110.346V82.7445H110.988V56.0879Z" fill="#EF4223"/>
<path d="M111.631 56.0879H110.988V82.7445H111.631V56.0879Z" fill="#EF4123"/>
<path d="M112.272 56.0879H111.629V82.7445H112.272V56.0879Z" fill="#EE3F23"/>
<path d="M112.916 56.0879H112.273V82.7445H112.916V56.0879Z" fill="#EE3E23"/>
<path d="M113.559 56.0879H112.916V82.7445H113.559V56.0879Z" fill="#EE3D23"/>
<path d="M114.199 56.0879H113.557V82.7445H114.199V56.0879Z" fill="#EE3C23"/>
<path d="M114.844 56.0879H114.201V82.7445H114.844V56.0879Z" fill="#EE3B23"/>
<path d="M115.486 56.0879H114.844V82.7445H115.486V56.0879Z" fill="#EE3A23"/>
<path d="M116.166 56.0879H115.523V82.7445H116.166V56.0879Z" fill="#EE3923"/>
<path d="M116.809 56.0879H116.166V82.7445H116.809V56.0879Z" fill="#EE3823"/>
<path d="M117.451 56.0879H116.809V82.7445H117.451V56.0879Z" fill="#EE3724"/>
<path d="M118.094 56.0879H117.451V82.7445H118.094V56.0879Z" fill="#EE3624"/>
<path d="M118.736 56.0879H118.094V82.7445H118.736V56.0879Z" fill="#EE3524"/>
<path d="M119.379 56.0879H118.736V82.7445H119.379V56.0879Z" fill="#EE3424"/>
<path d="M120.022 56.0879H119.379V82.7445H120.022V56.0879Z" fill="#EE3324"/>
<path d="M120.664 56.0879H120.021V82.7445H120.664V56.0879Z" fill="#EE3224"/>
<path d="M121.307 56.0879H120.664V82.7445H121.307V56.0879Z" fill="#EE3124"/>
<path d="M121.951 56.0879H121.309V82.7445H121.951V56.0879Z" fill="#EE3024"/>
<path d="M122.592 56.0879H121.949V82.7445H122.592V56.0879Z" fill="#EE2F24"/>
<path d="M123.273 56.0879H122.631V82.7445H123.273V56.0879Z" fill="#EE2E24"/>
<path d="M123.916 56.0879H123.273V82.7445H123.916V56.0879Z" fill="#EE2D24"/>
<path d="M124.557 56.0879H123.914V82.7445H124.557V56.0879Z" fill="#EE2C24"/>
<path d="M125.201 56.0879H124.559V82.7445H125.201V56.0879Z" fill="#EE2B24"/>
<path d="M125.844 56.0879H125.201V82.7445H125.844V56.0879Z" fill="#EE2A24"/>
<path d="M126.484 56.0879H125.842V82.7445H126.484V56.0879Z" fill="#ED2924"/>
<path d="M127.129 56.0879H126.486V82.7445H127.129V56.0879Z" fill="#ED2824"/>
<path d="M127.772 56.0879H127.129V82.7445H127.772V56.0879Z" fill="#ED2725"/>
<path d="M128.414 56.0879H127.771V82.7445H128.414V56.0879Z" fill="#ED2625"/>
<path d="M129.057 56.0879H128.414V82.7445H129.057V56.0879Z" fill="#ED2525"/>
<path d="M129.699 56.0879H129.057V82.7445H129.699V56.0879Z" fill="#ED2425"/>
<path d="M130.379 56.0879H129.736V82.7445H130.379V56.0879Z" fill="#ED2325"/>
<path d="M131.022 56.0879H130.379V82.7445H131.022V56.0879Z" fill="#ED2225"/>
<path d="M131.664 56.0879H131.021V82.7445H131.664V56.0879Z" fill="#ED2125"/>
<path d="M132.307 56.0879H131.664V82.7445H132.307V56.0879Z" fill="#ED2025"/>
<path d="M132.949 56.0879H132.307V82.7445H132.949V56.0879Z" fill="#ED1F25"/>
</g>
<path d="M129.663 56.0879L110.082 61.1617L106.794 61.9947L106.869 22.4264L89.7455 26.8565L89.6699 80.3969L129.663 70.0977V56.0879Z" fill="#FFF702"/>
<path d="M106.792 61.9947L106.868 22.4264L89.9708 26.7808L89.8574 80.2833L129.661 70.022V56.0879L110.081 61.1617L106.792 61.9947Z" fill="#FFCC01"/>
<mask id="mask8_412_9747" style="mask-type:luminance" maskUnits="userSpaceOnUse" x="136" y="36" width="23" height="5">
<path d="M137.034 36.6255L136.77 37.7236L158.127 40.2984L156.312 38.9731L137.034 36.6255Z" fill="white"/>
</mask>
<g mask="url(#mask8_412_9747)">
<path d="M137.072 36.6255H136.77V40.2984H137.072V36.6255Z" fill="#F06221"/>
<path d="M137.412 36.6255H137.109V40.2984H137.412V36.6255Z" fill="#F06121"/>
<path d="M137.715 36.6255H137.412V40.2984H137.715V36.6255Z" fill="#F06021"/>
<path d="M138.054 36.6255H137.752V40.2984H138.054V36.6255Z" fill="#F05F21"/>
<path d="M138.357 36.6255H138.055V40.2984H138.357V36.6255Z" fill="#F05E21"/>
<path d="M138.699 36.6255H138.396V40.2984H138.699V36.6255Z" fill="#F05D21"/>
<path d="M139 36.6255H138.697V40.2984H139V36.6255Z" fill="#F05C21"/>
<path d="M139.302 36.6255H139V40.2984H139.302V36.6255Z" fill="#F05B21"/>
<path d="M139.642 36.6255H139.34V40.2984H139.642V36.6255Z" fill="#F05A21"/>
<path d="M139.945 36.6255H139.643V40.2984H139.945V36.6255Z" fill="#F05922"/>
<path d="M140.285 36.6255H139.982V40.2984H140.285V36.6255Z" fill="#F05822"/>
<path d="M140.588 36.6255H140.285V40.2984H140.588V36.6255Z" fill="#F05722"/>
<path d="M140.927 36.6255H140.625V40.2984H140.927V36.6255Z" fill="#EF5622"/>
<path d="M141.23 36.6255H140.928V40.2984H141.23V36.6255Z" fill="#EF5522"/>
<path d="M141.57 36.6255H141.268V40.2984H141.57V36.6255Z" fill="#EF5422"/>
<path d="M141.873 36.6255H141.57V40.2984H141.873V36.6255Z" fill="#EF5322"/>
<path d="M142.175 36.6255H141.873V40.2984H142.175V36.6255Z" fill="#EF5222"/>
<path d="M142.515 36.6255H142.213V40.2984H142.515V36.6255Z" fill="#EF5122"/>
<path d="M142.816 36.6255H142.514V40.2984H142.816V36.6255Z" fill="#EF5022"/>
<path d="M143.158 36.6255H142.855V40.2984H143.158V36.6255Z" fill="#EF4F22"/>
<path d="M143.461 36.6255H143.158V40.2984H143.461V36.6255Z" fill="#EF4E22"/>
<path d="M143.8 36.6255H143.498V40.2984H143.8V36.6255Z" fill="#EF4D22"/>
<path d="M144.103 36.6255H143.801V40.2984H144.103V36.6255Z" fill="#EF4C22"/>
<path d="M144.406 36.6255H144.104V40.2984H144.406V36.6255Z" fill="#EF4B22"/>
<path d="M144.744 36.6255H144.441V40.2984H144.744V36.6255Z" fill="#EF4A22"/>
<path d="M145.048 36.6255H144.746V40.2984H145.048V36.6255Z" fill="#EF4923"/>
<path d="M145.388 36.6255H145.086V40.2984H145.388V36.6255Z" fill="#EF4823"/>
<path d="M145.691 36.6255H145.389V40.2984H145.691V36.6255Z" fill="#EF4723"/>
<path d="M146.031 36.6255H145.729V40.2984H146.031V36.6255Z" fill="#EF4623"/>
<path d="M146.334 36.6255H146.031V40.2984H146.334V36.6255Z" fill="#EF4523"/>
<path d="M146.636 36.6255H146.334V40.2984H146.636V36.6255Z" fill="#EF4423"/>
<path d="M146.976 36.6255H146.674V40.2984H146.976V36.6255Z" fill="#EF4323"/>
<path d="M147.277 36.6255H146.975V40.2984H147.277V36.6255Z" fill="#EF4223"/>
<path d="M147.619 36.6255H147.316V40.2984H147.619V36.6255Z" fill="#EF4123"/>
<path d="M147.922 36.6255H147.619V40.2984H147.922V36.6255Z" fill="#EE3F23"/>
<path d="M148.261 36.6255H147.959V40.2984H148.261V36.6255Z" fill="#EE3E23"/>
<path d="M148.564 36.6255H148.262V40.2984H148.564V36.6255Z" fill="#EE3D23"/>
<path d="M148.865 36.6255H148.562V40.2984H148.865V36.6255Z" fill="#EE3C23"/>
<path d="M149.205 36.6255H148.902V40.2984H149.205V36.6255Z" fill="#EE3B23"/>
<path d="M149.509 36.6255H149.207V40.2984H149.509V36.6255Z" fill="#EE3A23"/>
<path d="M149.849 36.6255H149.547V40.2984H149.849V36.6255Z" fill="#EE3923"/>
<path d="M150.15 36.6255H149.848V40.2984H150.15V36.6255Z" fill="#EE3823"/>
<path d="M150.492 36.6255H150.189V40.2984H150.492V36.6255Z" fill="#EE3724"/>
<path d="M150.793 36.6255H150.49V40.2984H150.793V36.6255Z" fill="#EE3624"/>
<path d="M151.095 36.6255H150.793V40.2984H151.095V36.6255Z" fill="#EE3524"/>
<path d="M151.437 36.6255H151.135V40.2984H151.437V36.6255Z" fill="#EE3424"/>
<path d="M151.738 36.6255H151.436V40.2984H151.738V36.6255Z" fill="#EE3324"/>
<path d="M152.078 36.6255H151.775V40.2984H152.078V36.6255Z" fill="#EE3224"/>
<path d="M152.381 36.6255H152.078V40.2984H152.381V36.6255Z" fill="#EE3124"/>
<path d="M152.72 36.6255H152.418V40.2984H152.72V36.6255Z" fill="#EE3024"/>
<path d="M153.023 36.6255H152.721V40.2984H153.023V36.6255Z" fill="#EE2F24"/>
<path d="M153.326 36.6255H153.023V40.2984H153.326V36.6255Z" fill="#EE2E24"/>
<path d="M153.666 36.6255H153.363V40.2984H153.666V36.6255Z" fill="#EE2D24"/>
<path d="M153.97 36.6255H153.668V40.2984H153.97V36.6255Z" fill="#EE2C24"/>
<path d="M154.308 36.6255H154.006V40.2984H154.308V36.6255Z" fill="#EE2B24"/>
<path d="M154.611 36.6255H154.309V40.2984H154.611V36.6255Z" fill="#EE2A24"/>
<path d="M154.953 36.6255H154.65V40.2984H154.953V36.6255Z" fill="#ED2924"/>
<path d="M155.254 36.6255H154.951V40.2984H155.254V36.6255Z" fill="#ED2824"/>
<path d="M155.593 36.6255H155.291V40.2984H155.593V36.6255Z" fill="#ED2725"/>
<path d="M155.898 36.6255H155.596V40.2984H155.898V36.6255Z" fill="#ED2625"/>
<path d="M156.199 36.6255H155.896V40.2984H156.199V36.6255Z" fill="#ED2525"/>
<path d="M156.539 36.6255H156.236V40.2984H156.539V36.6255Z" fill="#ED2425"/>
<path d="M156.841 36.6255H156.539V40.2984H156.841V36.6255Z" fill="#ED2325"/>
<path d="M157.181 36.6255H156.879V40.2984H157.181V36.6255Z" fill="#ED2225"/>
<path d="M157.484 36.6255H157.182V40.2984H157.484V36.6255Z" fill="#ED2125"/>
<path d="M157.826 36.6255H157.523V40.2984H157.826V36.6255Z" fill="#ED2025"/>
<path d="M158.127 36.6255H157.824V40.2984H158.127V36.6255Z" fill="#ED1F25"/>
</g>
<mask id="mask9_412_9747" style="mask-type:luminance" maskUnits="userSpaceOnUse" x="136" y="53" width="22" height="5">
<path d="M136.617 53.9296L136.391 55.0277L157.748 57.6025L155.896 56.2394L136.617 53.9296Z" fill="white"/>
</mask>
<g mask="url(#mask9_412_9747)">
<path d="M136.693 53.9296H136.391V57.6025H136.693V53.9296Z" fill="#F06221"/>
<path d="M136.994 53.9296H136.691V57.6025H136.994V53.9296Z" fill="#F06121"/>
<path d="M137.336 53.9296H137.033V57.6025H137.336V53.9296Z" fill="#F06021"/>
<path d="M137.638 53.9296H137.336V57.6025H137.638V53.9296Z" fill="#F05F21"/>
<path d="M137.978 53.9296H137.676V57.6025H137.978V53.9296Z" fill="#F05E21"/>
<path d="M138.281 53.9296H137.979V57.6025H138.281V53.9296Z" fill="#F05D21"/>
<path d="M138.621 53.9296H138.318V57.6025H138.621V53.9296Z" fill="#F05C21"/>
<path d="M138.923 53.9296H138.621V57.6025H138.923V53.9296Z" fill="#F05B21"/>
<path d="M139.226 53.9296H138.924V57.6025H139.226V53.9296Z" fill="#F05A21"/>
<path d="M139.566 53.9296H139.264V57.6025H139.566V53.9296Z" fill="#F05922"/>
<path d="M139.869 53.9296H139.566V57.6025H139.869V53.9296Z" fill="#F05822"/>
<path d="M140.209 53.9296H139.906V57.6025H140.209V53.9296Z" fill="#F05722"/>
<path d="M140.511 53.9296H140.209V57.6025H140.511V53.9296Z" fill="#EF5622"/>
<path d="M140.851 53.9296H140.549V57.6025H140.851V53.9296Z" fill="#EF5522"/>
<path d="M141.154 53.9296H140.852V57.6025H141.154V53.9296Z" fill="#EF5422"/>
<path d="M141.455 53.9296H141.152V57.6025H141.455V53.9296Z" fill="#EF5322"/>
<path d="M141.797 53.9296H141.494V57.6025H141.797V53.9296Z" fill="#EF5222"/>
<path d="M142.099 53.9296H141.797V57.6025H142.099V53.9296Z" fill="#EF5122"/>
<path d="M142.437 53.9296H142.135V57.6025H142.437V53.9296Z" fill="#EF5022"/>
<path d="M142.742 53.9296H142.439V57.6025H142.742V53.9296Z" fill="#EF4F22"/>
<path d="M143.082 53.9296H142.779V57.6025H143.082V53.9296Z" fill="#EF4E22"/>
<path d="M143.382 53.9296H143.08V57.6025H143.382V53.9296Z" fill="#EF4D22"/>
<path d="M143.687 53.9296H143.385V57.6025H143.687V53.9296Z" fill="#EF4C22"/>
<path d="M144.027 53.9296H143.725V57.6025H144.027V53.9296Z" fill="#EF4B22"/>
<path d="M144.328 53.9296H144.025V57.6025H144.328V53.9296Z" fill="#EF4A22"/>
<path d="M144.67 53.9296H144.367V57.6025H144.67V53.9296Z" fill="#EF4923"/>
<path d="M144.97 53.9296H144.668V57.6025H144.97V53.9296Z" fill="#EF4823"/>
<path d="M145.312 53.9296H145.01V57.6025H145.312V53.9296Z" fill="#EF4723"/>
<path d="M145.615 53.9296H145.312V57.6025H145.615V53.9296Z" fill="#EF4623"/>
<path d="M145.916 53.9296H145.613V57.6025H145.916V53.9296Z" fill="#EF4523"/>
<path d="M146.257 53.9296H145.955V57.6025H146.257V53.9296Z" fill="#EF4423"/>
<path d="M146.558 53.9296H146.256V57.6025H146.558V53.9296Z" fill="#EF4323"/>
<path d="M146.898 53.9296H146.596V57.6025H146.898V53.9296Z" fill="#EF4223"/>
<path d="M147.203 53.9296H146.9V57.6025H147.203V53.9296Z" fill="#EF4123"/>
<path d="M147.543 53.9296H147.24V57.6025H147.543V53.9296Z" fill="#EE3F23"/>
<path d="M147.843 53.9296H147.541V57.6025H147.843V53.9296Z" fill="#EE3E23"/>
<path d="M148.148 53.9296H147.846V57.6025H148.148V53.9296Z" fill="#EE3D23"/>
<path d="M148.486 53.9296H148.184V57.6025H148.486V53.9296Z" fill="#EE3C23"/>
<path d="M148.789 53.9296H148.486V57.6025H148.789V53.9296Z" fill="#EE3B23"/>
<path d="M149.131 53.9296H148.828V57.6025H149.131V53.9296Z" fill="#EE3A23"/>
<path d="M149.431 53.9296H149.129V57.6025H149.431V53.9296Z" fill="#EE3923"/>
<path d="M149.771 53.9296H149.469V57.6025H149.771V53.9296Z" fill="#EE3823"/>
<path d="M150.076 53.9296H149.773V57.6025H150.076V53.9296Z" fill="#EE3724"/>
<path d="M150.377 53.9296H150.074V57.6025H150.377V53.9296Z" fill="#EE3624"/>
<path d="M150.716 53.9296H150.414V57.6025H150.716V53.9296Z" fill="#EE3524"/>
<path d="M151.019 53.9296H150.717V57.6025H151.019V53.9296Z" fill="#EE3424"/>
<path d="M151.359 53.9296H151.057V57.6025H151.359V53.9296Z" fill="#EE3324"/>
<path d="M151.662 53.9296H151.359V57.6025H151.662V53.9296Z" fill="#EE3224"/>
<path d="M152.002 53.9296H151.699V57.6025H152.002V53.9296Z" fill="#EE3124"/>
<path d="M152.304 53.9296H152.002V57.6025H152.304V53.9296Z" fill="#EE3024"/>
<path d="M152.644 53.9296H152.342V57.6025H152.644V53.9296Z" fill="#EE2F24"/>
<path d="M152.947 53.9296H152.645V57.6025H152.947V53.9296Z" fill="#EE2E24"/>
<path d="M153.25 53.9296H152.947V57.6025H153.25V53.9296Z" fill="#EE2D24"/>
<path d="M153.591 53.9296H153.289V57.6025H153.591V53.9296Z" fill="#EE2C24"/>
<path d="M153.892 53.9296H153.59V57.6025H153.892V53.9296Z" fill="#EE2B24"/>
<path d="M154.232 53.9296H153.93V57.6025H154.232V53.9296Z" fill="#EE2A24"/>
<path d="M154.535 53.9296H154.232V57.6025H154.535V53.9296Z" fill="#ED2924"/>
<path d="M154.875 53.9296H154.572V57.6025H154.875V53.9296Z" fill="#ED2824"/>
<path d="M155.177 53.9296H154.875V57.6025H155.177V53.9296Z" fill="#ED2725"/>
<path d="M155.48 53.9296H155.178V57.6025H155.48V53.9296Z" fill="#ED2625"/>
<path d="M155.82 53.9296H155.518V57.6025H155.82V53.9296Z" fill="#ED2525"/>
<path d="M156.123 53.9296H155.82V57.6025H156.123V53.9296Z" fill="#ED2425"/>
<path d="M156.463 53.9296H156.16V57.6025H156.463V53.9296Z" fill="#ED2325"/>
<path d="M156.765 53.9296H156.463V57.6025H156.765V53.9296Z" fill="#ED2225"/>
<path d="M157.105 53.9296H156.803V57.6025H157.105V53.9296Z" fill="#ED2125"/>
<path d="M157.408 53.9296H157.105V57.6025H157.408V53.9296Z" fill="#ED2025"/>
<path d="M157.711 53.9296H157.408V57.6025H157.711V53.9296Z" fill="#ED1F25"/>
</g>
<path d="M139.34 31.1731L139.113 32.2712L157.144 34.4673L155.33 33.1042L139.34 31.1731Z" fill="#B4B4B4"/>
<mask id="mask10_412_9747" style="mask-type:luminance" maskUnits="userSpaceOnUse" x="117" y="18" width="48" height="47">
<path d="M162.323 22.4643L127.622 18.2992L117.945 63.3958L119.798 64.7589L129.437 19.6623L164.175 23.8274L162.323 22.4643Z" fill="white"/>
</mask>
<g mask="url(#mask10_412_9747)">
<path d="M118.626 18.2992H117.945V64.7589H118.626V18.2992Z" fill="#F06221"/>
<path d="M119.307 18.2992H118.627V64.7589H119.307V18.2992Z" fill="#F06121"/>
<path d="M120.024 18.2992H119.344V64.7589H120.024V18.2992Z" fill="#F06021"/>
<path d="M120.706 18.2992H120.025V64.7589H120.706V18.2992Z" fill="#F05F21"/>
<path d="M121.384 18.2992H120.703V64.7589H121.384V18.2992Z" fill="#F05E21"/>
<path d="M122.065 18.2992H121.385V64.7589H122.065V18.2992Z" fill="#F05D21"/>
<path d="M122.784 18.2992H122.104V64.7589H122.784V18.2992Z" fill="#F05C21"/>
<path d="M123.464 18.2992H122.783V64.7589H123.464V18.2992Z" fill="#F05B21"/>
<path d="M124.145 18.2992H123.465V64.7589H124.145V18.2992Z" fill="#F05A21"/>
<path d="M124.825 18.2992H124.145V64.7589H124.825V18.2992Z" fill="#F05922"/>
<path d="M125.544 18.2992H124.863V64.7589H125.544V18.2992Z" fill="#F05822"/>
<path d="M126.223 18.2992H125.543V64.7589H126.223V18.2992Z" fill="#F05722"/>
<path d="M126.903 18.2992H126.223V64.7589H126.903V18.2992Z" fill="#EF5622"/>
<path d="M127.585 18.2992H126.904V64.7589H127.585V18.2992Z" fill="#EF5522"/>
<path d="M128.302 18.2992H127.621V64.7589H128.302V18.2992Z" fill="#EF5422"/>
<path d="M128.983 18.2992H128.303V64.7589H128.983V18.2992Z" fill="#EF5322"/>
<path d="M129.663 18.2992H128.982V64.7589H129.663V18.2992Z" fill="#EF5222"/>
<path d="M130.344 18.2992H129.664V64.7589H130.344V18.2992Z" fill="#EF5122"/>
<path d="M131.063 18.2992H130.383V64.7589H131.063V18.2992Z" fill="#EF5022"/>
<path d="M131.743 18.2992H131.062V64.7589H131.743V18.2992Z" fill="#EF4F22"/>
<path d="M132.423 18.2992H131.742V64.7589H132.423V18.2992Z" fill="#EF4E22"/>
<path d="M133.104 18.2992H132.424V64.7589H133.104V18.2992Z" fill="#EF4D22"/>
<path d="M133.821 18.2992H133.141V64.7589H133.821V18.2992Z" fill="#EF4C22"/>
<path d="M134.503 18.2992H133.822V64.7589H134.503V18.2992Z" fill="#EF4B22"/>
<path d="M135.182 18.2992H134.502V64.7589H135.182V18.2992Z" fill="#EF4A22"/>
<path d="M135.862 18.2992H135.182V64.7589H135.862V18.2992Z" fill="#EF4923"/>
<path d="M136.581 18.2992H135.9V64.7589H136.581V18.2992Z" fill="#EF4823"/>
<path d="M137.26 18.2992H136.58V64.7589H137.26V18.2992Z" fill="#EF4723"/>
<path d="M137.942 18.2992H137.262V64.7589H137.942V18.2992Z" fill="#EF4623"/>
<path d="M138.622 18.2992H137.941V64.7589H138.622V18.2992Z" fill="#EF4523"/>
<path d="M139.341 18.2992H138.66V64.7589H139.341V18.2992Z" fill="#EF4423"/>
<path d="M140.02 18.2992H139.34V64.7589H140.02V18.2992Z" fill="#EF4323"/>
<path d="M140.702 18.2992H140.021V64.7589H140.702V18.2992Z" fill="#EF4223"/>
<path d="M141.382 18.2992H140.701V64.7589H141.382V18.2992Z" fill="#EF4123"/>
<path d="M142.1 18.2992H141.42V64.7589H142.1V18.2992Z" fill="#EE3F23"/>
<path d="M142.78 18.2992H142.1V64.7589H142.78V18.2992Z" fill="#EE3E23"/>
<path d="M143.46 18.2992H142.779V64.7589H143.46V18.2992Z" fill="#EE3D23"/>
<path d="M144.141 18.2992H143.461V64.7589H144.141V18.2992Z" fill="#EE3C23"/>
<path d="M144.86 18.2992H144.18V64.7589H144.86V18.2992Z" fill="#EE3B23"/>
<path d="M145.54 18.2992H144.859V64.7589H145.54V18.2992Z" fill="#EE3A23"/>
<path d="M146.221 18.2992H145.541V64.7589H146.221V18.2992Z" fill="#EE3923"/>
<path d="M146.901 18.2992H146.221V64.7589H146.901V18.2992Z" fill="#EE3823"/>
<path d="M147.618 18.2992H146.938V64.7589H147.618V18.2992Z" fill="#EE3724"/>
<path d="M148.3 18.2992H147.619V64.7589H148.3V18.2992Z" fill="#EE3624"/>
<path d="M148.979 18.2992H148.299V64.7589H148.979V18.2992Z" fill="#EE3524"/>
<path d="M149.661 18.2992H148.98V64.7589H149.661V18.2992Z" fill="#EE3424"/>
<path d="M150.378 18.2992H149.697V64.7589H150.378V18.2992Z" fill="#EE3324"/>
<path d="M151.059 18.2992H150.379V64.7589H151.059V18.2992Z" fill="#EE3224"/>
<path d="M151.739 18.2992H151.059V64.7589H151.739V18.2992Z" fill="#EE3124"/>
<path d="M152.419 18.2992H151.738V64.7589H152.419V18.2992Z" fill="#EE3024"/>
<path d="M153.137 18.2992H152.457V64.7589H153.137V18.2992Z" fill="#EE2F24"/>
<path d="M153.817 18.2992H153.137V64.7589H153.817V18.2992Z" fill="#EE2E24"/>
<path d="M154.499 18.2992H153.818V64.7589H154.499V18.2992Z" fill="#EE2D24"/>
<path d="M155.18 18.2992H154.5V64.7589H155.18V18.2992Z" fill="#EE2C24"/>
<path d="M155.897 18.2992H155.217V64.7589H155.897V18.2992Z" fill="#EE2B24"/>
<path d="M156.579 18.2992H155.898V64.7589H156.579V18.2992Z" fill="#EE2A24"/>
<path d="M157.257 18.2992H156.576V64.7589H157.257V18.2992Z" fill="#ED2924"/>
<path d="M157.938 18.2992H157.258V64.7589H157.938V18.2992Z" fill="#ED2824"/>
<path d="M158.657 18.2992H157.977V64.7589H158.657V18.2992Z" fill="#ED2725"/>
<path d="M159.337 18.2992H158.656V64.7589H159.337V18.2992Z" fill="#ED2625"/>
<path d="M160.018 18.2992H159.338V64.7589H160.018V18.2992Z" fill="#ED2525"/>
<path d="M160.698 18.2992H160.018V64.7589H160.698V18.2992Z" fill="#ED2425"/>
<path d="M161.417 18.2992H160.736V64.7589H161.417V18.2992Z" fill="#ED2325"/>
<path d="M162.096 18.2992H161.416V64.7589H162.096V18.2992Z" fill="#ED2225"/>
<path d="M162.776 18.2992H162.096V64.7589H162.776V18.2992Z" fill="#ED2125"/>
<path d="M163.458 18.2992H162.777V64.7589H163.458V18.2992Z" fill="#ED2025"/>
<path d="M164.175 18.2992H163.494V64.7589H164.175V18.2992Z" fill="#ED1F25"/>
</g>
<path d="M161.718 35.3003L164.175 23.8274L129.436 19.6623L119.797 64.7589L155.292 69.0375L157.749 57.5646L136.391 54.9898L136.656 53.8918L137.677 49.0451L155.745 51.2412L158.089 40.2606L140.02 38.1023L140.247 37.0042L141.154 32.8391L161.718 35.3003Z" fill="#FFF702"/>
<path d="M164.175 23.8274L129.663 19.6623L119.986 64.7589L155.292 68.9997L157.749 57.5646L136.392 54.9898L136.656 53.8918L137.677 49.0451L137.866 49.083V49.0451L155.746 51.2034L158.089 40.2606L140.021 38.1023L140.247 37.0042L141.155 32.8391H141.344L161.718 35.2624L164.175 23.8274Z" fill="#FFCC01"/>
</g>
<defs>
<filter id="filter0_d_412_9747" x="0" y="0" width="198" height="116.589" filterUnits="userSpaceOnUse" color-interpolation-filters="sRGB">
<feFlood flood-opacity="0" result="BackgroundImageFix"/>
<feColorMatrix in="SourceAlpha" type="matrix" values="0 0 0 0 0 0 0 0 0 0 0 0 0 0 0 0 0 0 127 0" result="hardAlpha"/>
<feOffset dx="8" dy="8"/>
<feGaussianBlur stdDeviation="8"/>
<feComposite in2="hardAlpha" operator="out"/>
<feColorMatrix type="matrix" values="0 0 0 0 0 0 0 0 0 0 0 0 0 0 0 0 0 0 0.08 0"/>
<feBlend mode="normal" in2="BackgroundImageFix" result="effect1_dropShadow_412_9747"/>
<feBlend mode="normal" in="SourceGraphic" in2="effect1_dropShadow_412_9747" result="shape"/>
</filter>
</defs>
</svg>
