<svg width="63" height="63" viewBox="0 0 63 63" fill="none" xmlns="http://www.w3.org/2000/svg">
<g clip-path="url(#clip0_412_10551)">
<path d="M61.5767 8.16528L61.6516 8.24019L61.5767 8.3151L61.5018 8.24019L61.5767 8.16528ZM60.865 15.0571C60.865 15.4691 61.2021 15.7687 61.5767 15.7687C61.9513 15.7687 62.2883 15.4316 62.2883 15.0571C62.2883 14.6825 61.9513 14.3454 61.5767 14.3454C61.2021 14.3454 60.865 14.6825 60.865 15.0571ZM60.3032 21.9114C60.3032 22.6231 60.865 23.1849 61.5767 23.1849C62.2884 23.1849 62.8502 22.6231 62.8502 21.9114C62.8502 21.1998 62.2884 20.6379 61.5767 20.6379C60.865 20.6379 60.3032 21.1998 60.3032 21.9114ZM60.1908 28.7658C60.1908 29.5523 60.8276 30.1516 61.5767 30.1516C62.3258 30.1516 62.9625 29.5149 62.9625 28.7658C62.9625 28.0166 62.3258 27.3799 61.5767 27.3799C60.8276 27.3799 60.1908 28.0166 60.1908 28.7658ZM60.3032 35.6201C60.3032 36.3317 60.865 36.8936 61.5767 36.8936C62.2884 36.8936 62.8502 36.3317 62.8502 35.6201C62.8502 34.9084 62.2884 34.3466 61.5767 34.3466C60.865 34.3466 60.3032 34.9084 60.3032 35.6201ZM60.865 42.4744C60.865 42.8864 61.2021 43.1861 61.5767 43.1861C61.9513 43.1861 62.2883 42.849 62.2883 42.4744C62.2883 42.0999 61.9513 41.7628 61.5767 41.7628C61.2021 41.7628 60.865 42.0999 60.865 42.4744ZM54.6849 1.38585L54.7598 1.46076L54.8347 1.38585L54.7598 1.31094L54.6849 1.38585ZM53.5987 8.24019C53.5987 8.87693 54.1231 9.40131 54.7598 9.40131C55.3966 9.40131 55.9209 8.87693 55.9209 8.24019C55.9209 7.60345 55.3966 7.07907 54.7598 7.07907C54.1231 7.07907 53.5987 7.60345 53.5987 8.24019ZM53.1867 15.0945C53.1867 15.956 53.8609 16.6302 54.7224 16.6302C55.5838 16.6302 56.258 15.956 56.258 15.0945C56.258 14.2331 55.5838 13.5589 54.7224 13.5589C53.8609 13.5589 53.1867 14.2331 53.1867 15.0945ZM53.1867 21.9489C53.1867 22.8103 53.8609 23.4845 54.7224 23.4845C55.5838 23.4845 56.258 22.8103 56.258 21.9489C56.258 21.0874 55.5838 20.4132 54.7224 20.4132C53.8609 20.4132 53.1867 21.0874 53.1867 21.9489ZM53.1867 28.8032C53.1867 29.6647 53.8609 30.3389 54.7224 30.3389C55.5838 30.3389 56.258 29.6647 56.258 28.8032C56.258 27.9417 55.5838 27.2675 54.7224 27.2675C53.8609 27.2675 53.1867 27.9417 53.1867 28.8032ZM53.1867 35.6576C53.1867 36.519 53.8609 37.1932 54.7224 37.1932C55.5838 37.1932 56.258 36.519 56.258 35.6576C56.258 34.7961 55.5838 34.1219 54.7224 34.1219C53.8609 34.1219 53.1867 34.7961 53.1867 35.6576ZM53.1867 42.5119C53.1867 43.3734 53.8609 44.0476 54.7224 44.0476C55.5838 44.0476 56.258 43.3734 56.258 42.5119C56.258 41.6504 55.5838 40.9762 54.7224 40.9762C53.8609 40.9762 53.1867 41.6504 53.1867 42.5119ZM53.6362 49.3662C53.6362 49.9655 54.1231 50.4899 54.7598 50.4899C55.3966 50.4899 55.8835 50.003 55.8835 49.3662C55.8835 48.7295 55.3966 48.2426 54.7598 48.2426C54.1231 48.2426 53.6362 48.7295 53.6362 49.3662ZM47.1938 1.38585C47.1938 1.79786 47.5309 2.0975 47.9055 2.0975C48.28 2.0975 48.6171 1.7604 48.6171 1.38585C48.6171 1.0113 48.28 0.674197 47.9055 0.674197C47.5309 0.674197 47.1938 1.0113 47.1938 1.38585ZM46.3698 8.24019C46.3698 9.10167 47.044 9.77586 47.9055 9.77586C48.7669 9.77586 49.4411 9.06421 49.4411 8.24019C49.4411 7.41617 48.7295 6.70452 47.9055 6.70452C47.0815 6.70452 46.3698 7.37872 46.3698 8.24019ZM46.3698 15.0945C46.3698 15.956 47.044 16.6302 47.9055 16.6302C48.7669 16.6302 49.4411 15.956 49.4411 15.0945C49.4411 14.2331 48.7295 13.5589 47.9055 13.5589C47.0815 13.5589 46.3698 14.2331 46.3698 15.0945ZM46.3698 21.9489C46.3698 22.8103 47.044 23.4845 47.9055 23.4845C48.7669 23.4845 49.4411 22.8103 49.4411 21.9489C49.4411 21.0874 48.7295 20.4132 47.9055 20.4132C47.0815 20.4132 46.3698 21.0874 46.3698 21.9489ZM46.3698 28.8032C46.3698 29.6647 47.044 30.3389 47.9055 30.3389C48.7669 30.3389 49.4411 29.6647 49.4411 28.8032C49.4411 27.9417 48.7295 27.2675 47.9055 27.2675C47.0815 27.2675 46.3698 27.9417 46.3698 28.8032ZM46.3698 35.6576C46.3698 36.519 47.044 37.1932 47.9055 37.1932C48.7669 37.1932 49.4411 36.519 49.4411 35.6576C49.4411 34.7961 48.7295 34.1219 47.9055 34.1219C47.0815 34.1219 46.3698 34.7961 46.3698 35.6576ZM46.3698 42.5119C46.3698 43.3734 47.044 44.0476 47.9055 44.0476C48.7669 44.0476 49.4411 43.3734 49.4411 42.5119C49.4411 41.6504 48.7295 40.9762 47.9055 40.9762C47.0815 40.9762 46.3698 41.6504 46.3698 42.5119ZM46.3698 49.3662C46.3698 50.2277 47.044 50.9019 47.9055 50.9019C48.7669 50.9019 49.4411 50.2277 49.4411 49.3662C49.4411 48.5048 48.7295 47.8306 47.9055 47.8306C47.0815 47.8306 46.3698 48.5048 46.3698 49.3662ZM47.2313 56.2206C47.2313 56.5951 47.5309 56.9322 47.9429 56.9322C48.3549 56.9322 48.6546 56.6326 48.6546 56.2206C48.6546 55.8086 48.3549 55.5089 47.9429 55.5089C47.5309 55.5089 47.2313 55.8086 47.2313 56.2206ZM39.8151 1.38585C39.8151 2.0975 40.3769 2.65933 41.0886 2.65933C41.8002 2.65933 42.3621 2.0975 42.3621 1.38585C42.3621 0.674197 41.8002 0.112366 41.0886 0.112366C40.3769 0.112366 39.8151 0.674197 39.8151 1.38585ZM39.5529 8.24019C39.5529 9.10167 40.2271 9.77586 41.0886 9.77586C41.9501 9.77586 42.6243 9.06421 42.6243 8.24019C42.6243 7.41617 41.9501 6.70452 41.0886 6.70452C40.2271 6.70452 39.5529 7.37872 39.5529 8.24019ZM39.5529 15.0945C39.5529 15.956 40.2271 16.6302 41.0886 16.6302C41.9501 16.6302 42.6243 15.956 42.6243 15.0945C42.6243 14.2331 41.9501 13.5589 41.0886 13.5589C40.2271 13.5589 39.5529 14.2331 39.5529 15.0945ZM39.5529 21.9489C39.5529 22.8103 40.2271 23.4845 41.0886 23.4845C41.9501 23.4845 42.6243 22.8103 42.6243 21.9489C42.6243 21.0874 41.9501 20.4132 41.0886 20.4132C40.2271 20.4132 39.5529 21.0874 39.5529 21.9489ZM39.5529 28.8032C39.5529 29.6647 40.2271 30.3389 41.0886 30.3389C41.9501 30.3389 42.6243 29.6647 42.6243 28.8032C42.6243 27.9417 41.9501 27.2675 41.0886 27.2675C40.2271 27.2675 39.5529 27.9417 39.5529 28.8032ZM39.5529 35.6576C39.5529 36.519 40.2271 37.1932 41.0886 37.1932C41.9501 37.1932 42.6243 36.519 42.6243 35.6576C42.6243 34.7961 41.9501 34.1219 41.0886 34.1219C40.2271 34.1219 39.5529 34.7961 39.5529 35.6576ZM39.5529 42.5119C39.5529 43.3734 40.2271 44.0476 41.0886 44.0476C41.9501 44.0476 42.6243 43.3734 42.6243 42.5119C42.6243 41.6504 41.9501 40.9762 41.0886 40.9762C40.2271 40.9762 39.5529 41.6504 39.5529 42.5119ZM39.5529 49.3662C39.5529 50.2277 40.2271 50.9019 41.0886 50.9019C41.9501 50.9019 42.6243 50.2277 42.6243 49.3662C42.6243 48.5048 41.9501 47.8306 41.0886 47.8306C40.2271 47.8306 39.5529 48.5048 39.5529 49.3662ZM39.8526 56.2206C39.8526 56.8948 40.4144 57.4566 41.0886 57.4566C41.7628 57.4566 42.3246 56.8948 42.3246 56.2206C42.3246 55.5464 41.7628 54.9845 41.0886 54.9845C40.4144 54.9845 39.8526 55.5464 39.8526 56.2206ZM32.8484 1.38585C32.8484 2.17241 33.4851 2.7717 34.2342 2.7717C34.9834 2.7717 35.6201 2.13496 35.6201 1.38585C35.6201 0.636742 34.9834 0 34.2342 0C33.4851 0 32.8484 0.636742 32.8484 1.38585ZM32.6986 8.24019C32.6986 9.10167 33.4102 9.77586 34.2342 9.77586C35.0583 9.77586 35.7699 9.06421 35.7699 8.24019C35.7699 7.41617 35.0957 6.70452 34.2342 6.70452C33.3728 6.70452 32.6986 7.37872 32.6986 8.24019ZM32.6986 15.0945C32.6986 15.956 33.4102 16.6302 34.2342 16.6302C35.0583 16.6302 35.7699 15.956 35.7699 15.0945C35.7699 14.2331 35.0957 13.5589 34.2342 13.5589C33.3728 13.5589 32.6986 14.2331 32.6986 15.0945ZM32.6986 21.9489C32.6986 22.8103 33.4102 23.4845 34.2342 23.4845C35.0583 23.4845 35.7699 22.8103 35.7699 21.9489C35.7699 21.0874 35.0957 20.4132 34.2342 20.4132C33.3728 20.4132 32.6986 21.0874 32.6986 21.9489ZM32.6986 28.8032C32.6986 29.6647 33.4102 30.3389 34.2342 30.3389C35.0583 30.3389 35.7699 29.6647 35.7699 28.8032C35.7699 27.9417 35.0957 27.2675 34.2342 27.2675C33.3728 27.2675 32.6986 27.9417 32.6986 28.8032ZM32.6986 35.6576C32.6986 36.519 33.4102 37.1932 34.2342 37.1932C35.0583 37.1932 35.7699 36.519 35.7699 35.6576C35.7699 34.7961 35.0957 34.1219 34.2342 34.1219C33.3728 34.1219 32.6986 34.7961 32.6986 35.6576ZM32.6986 42.5119C32.6986 43.3734 33.4102 44.0476 34.2342 44.0476C35.0583 44.0476 35.7699 43.3734 35.7699 42.5119C35.7699 41.6504 35.0957 40.9762 34.2342 40.9762C33.3728 40.9762 32.6986 41.6504 32.6986 42.5119ZM32.6986 49.3662C32.6986 50.2277 33.4102 50.9019 34.2342 50.9019C35.0583 50.9019 35.7699 50.2277 35.7699 49.3662C35.7699 48.5048 35.0957 47.8306 34.2342 47.8306C33.3728 47.8306 32.6986 48.5048 32.6986 49.3662ZM32.8484 56.2206C32.8484 56.9697 33.4851 57.6064 34.2342 57.6064C34.9834 57.6064 35.6201 56.9697 35.6201 56.2206C35.6201 55.4715 34.9834 54.8347 34.2342 54.8347C33.4851 54.8347 32.8484 55.4715 32.8484 56.2206ZM26.1439 1.38585C26.1439 2.0975 26.7057 2.65933 27.4174 2.65933C28.129 2.65933 28.6908 2.0975 28.6908 1.38585C28.6908 0.674197 28.129 0.112366 27.4174 0.112366C26.7057 0.112366 26.1439 0.674197 26.1439 1.38585ZM25.8817 8.24019C25.8817 9.10167 26.5559 9.77586 27.4174 9.77586C28.2788 9.77586 28.953 9.06421 28.953 8.24019C28.953 7.41617 28.2788 6.70452 27.4174 6.70452C26.5559 6.70452 25.8817 7.37872 25.8817 8.24019ZM25.8817 15.0945C25.8817 15.956 26.5559 16.6302 27.4174 16.6302C28.2788 16.6302 28.953 15.956 28.953 15.0945C28.953 14.2331 28.2788 13.5589 27.4174 13.5589C26.5559 13.5589 25.8817 14.2331 25.8817 15.0945ZM25.8817 21.9489C25.8817 22.8103 26.5559 23.4845 27.4174 23.4845C28.2788 23.4845 28.953 22.8103 28.953 21.9489C28.953 21.0874 28.2788 20.4132 27.4174 20.4132C26.5559 20.4132 25.8817 21.0874 25.8817 21.9489ZM25.8817 28.8032C25.8817 29.6647 26.5559 30.3389 27.4174 30.3389C28.2788 30.3389 28.953 29.6647 28.953 28.8032C28.953 27.9417 28.2788 27.2675 27.4174 27.2675C26.5559 27.2675 25.8817 27.9417 25.8817 28.8032ZM25.8817 35.6576C25.8817 36.519 26.5559 37.1932 27.4174 37.1932C28.2788 37.1932 28.953 36.519 28.953 35.6576C28.953 34.7961 28.2788 34.1219 27.4174 34.1219C26.5559 34.1219 25.8817 34.7961 25.8817 35.6576ZM25.8817 42.5119C25.8817 43.3734 26.5559 44.0476 27.4174 44.0476C28.2788 44.0476 28.953 43.3734 28.953 42.5119C28.953 41.6504 28.2788 40.9762 27.4174 40.9762C26.5559 40.9762 25.8817 41.6504 25.8817 42.5119ZM25.8817 49.3662C25.8817 50.2277 26.5559 50.9019 27.4174 50.9019C28.2788 50.9019 28.953 50.2277 28.953 49.3662C28.953 48.5048 28.2788 47.8306 27.4174 47.8306C26.5559 47.8306 25.8817 48.5048 25.8817 49.3662ZM26.1813 56.2206C26.1813 56.8948 26.7432 57.4566 27.4174 57.4566C28.0916 57.4566 28.6534 56.8948 28.6534 56.2206C28.6534 55.5464 28.0916 54.9845 27.4174 54.9845C26.7432 54.9845 26.1813 55.5464 26.1813 56.2206ZM19.8514 1.38585C19.8514 1.79786 20.1885 2.0975 20.563 2.0975C20.9376 2.0975 21.2747 1.7604 21.2747 1.38585C21.2747 1.0113 20.9376 0.674197 20.563 0.674197C20.1885 0.674197 19.8514 1.0113 19.8514 1.38585ZM19.0273 8.24019C19.0273 9.10167 19.7015 9.77586 20.563 9.77586C21.4245 9.77586 22.0987 9.06421 22.0987 8.24019C22.0987 7.41617 21.4245 6.70452 20.563 6.70452C19.7015 6.70452 19.0273 7.37872 19.0273 8.24019ZM19.0273 15.0945C19.0273 15.956 19.7015 16.6302 20.563 16.6302C21.4245 16.6302 22.0987 15.956 22.0987 15.0945C22.0987 14.2331 21.4245 13.5589 20.563 13.5589C19.7015 13.5589 19.0273 14.2331 19.0273 15.0945ZM19.0273 21.9489C19.0273 22.8103 19.7015 23.4845 20.563 23.4845C21.4245 23.4845 22.0987 22.8103 22.0987 21.9489C22.0987 21.0874 21.4245 20.4132 20.563 20.4132C19.7015 20.4132 19.0273 21.0874 19.0273 21.9489ZM19.0273 28.8032C19.0273 29.6647 19.7015 30.3389 20.563 30.3389C21.4245 30.3389 22.0987 29.6647 22.0987 28.8032C22.0987 27.9417 21.4245 27.2675 20.563 27.2675C19.7015 27.2675 19.0273 27.9417 19.0273 28.8032ZM19.0273 35.6576C19.0273 36.519 19.7015 37.1932 20.563 37.1932C21.4245 37.1932 22.0987 36.519 22.0987 35.6576C22.0987 34.7961 21.4245 34.1219 20.563 34.1219C19.7015 34.1219 19.0273 34.7961 19.0273 35.6576ZM19.0273 42.5119C19.0273 43.3734 19.7015 44.0476 20.563 44.0476C21.4245 44.0476 22.0987 43.3734 22.0987 42.5119C22.0987 41.6504 21.4245 40.9762 20.563 40.9762C19.7015 40.9762 19.0273 41.6504 19.0273 42.5119ZM19.0273 49.3662C19.0273 50.2277 19.7015 50.9019 20.563 50.9019C21.4245 50.9019 22.0987 50.2277 22.0987 49.3662C22.0987 48.5048 21.4245 47.8306 20.563 47.8306C19.7015 47.8306 19.0273 48.5048 19.0273 49.3662ZM19.8888 56.2206C19.8888 56.5951 20.1885 56.8948 20.563 56.8948C20.9376 56.8948 21.2372 56.5951 21.2372 56.2206C21.2372 55.846 20.9376 55.5464 20.563 55.5464C20.1885 55.5464 19.8888 55.846 19.8888 56.2206ZM12.6225 8.24019C12.6225 8.83948 13.1094 9.36385 13.7461 9.36385C14.3829 9.36385 14.8698 8.87693 14.8698 8.24019C14.8698 7.60345 14.3829 7.11653 13.7461 7.11653C13.1094 7.11653 12.6225 7.60345 12.6225 8.24019ZM12.2105 15.0945C12.2105 15.956 12.8847 16.6302 13.7461 16.6302C14.6076 16.6302 15.2818 15.956 15.2818 15.0945C15.2818 14.2331 14.6076 13.5589 13.7461 13.5589C12.8847 13.5589 12.2105 14.2331 12.2105 15.0945ZM12.2105 21.9489C12.2105 22.8103 12.8847 23.4845 13.7461 23.4845C14.6076 23.4845 15.2818 22.8103 15.2818 21.9489C15.2818 21.0874 14.6076 20.4132 13.7461 20.4132C12.8847 20.4132 12.2105 21.0874 12.2105 21.9489ZM12.2105 28.8032C12.2105 29.6647 12.8847 30.3389 13.7461 30.3389C14.6076 30.3389 15.2818 29.6647 15.2818 28.8032C15.2818 27.9417 14.6076 27.2675 13.7461 27.2675C12.8847 27.2675 12.2105 27.9417 12.2105 28.8032ZM12.2105 35.6576C12.2105 36.519 12.8847 37.1932 13.7461 37.1932C14.6076 37.1932 15.2818 36.519 15.2818 35.6576C15.2818 34.7961 14.6076 34.1219 13.7461 34.1219C12.8847 34.1219 12.2105 34.7961 12.2105 35.6576ZM12.2105 42.5119C12.2105 43.3734 12.8847 44.0476 13.7461 44.0476C14.6076 44.0476 15.2818 43.3734 15.2818 42.5119C15.2818 41.6504 14.6076 40.9762 13.7461 40.9762C12.8847 40.9762 12.2105 41.6504 12.2105 42.5119ZM12.6974 49.3662C12.6974 49.9655 13.1843 50.4524 13.7836 50.4524C14.3829 50.4524 14.8698 49.9655 14.8698 49.3662C14.8698 48.7669 14.3829 48.28 13.7836 48.28C13.1843 48.28 12.6974 48.7669 12.6974 49.3662ZM6.18014 15.0945C6.18014 15.4691 6.47979 15.8062 6.8918 15.8062C7.30381 15.8062 7.60345 15.5065 7.60345 15.0945C7.60345 14.6825 7.30381 14.3829 6.8918 14.3829C6.47979 14.3829 6.18014 14.6825 6.18014 15.0945ZM5.65577 21.9489C5.65577 22.6231 6.2176 23.1849 6.8918 23.1849C7.56599 23.1849 8.12782 22.6231 8.12782 21.9489C8.12782 21.2747 7.56599 20.7128 6.8918 20.7128C6.2176 20.7128 5.65577 21.2747 5.65577 21.9489ZM5.50595 28.8032C5.50595 29.5523 6.14269 30.1891 6.8918 30.1891C7.6409 30.1891 8.27765 29.5523 8.27765 28.8032C8.27765 28.0541 7.6409 27.4174 6.8918 27.4174C6.14269 27.4174 5.50595 28.0541 5.50595 28.8032ZM5.65577 35.6576C5.65577 36.3317 6.2176 36.8936 6.8918 36.8936C7.56599 36.8936 8.12782 36.3317 8.12782 35.6576C8.12782 34.9834 7.56599 34.4215 6.8918 34.4215C6.2176 34.4215 5.65577 34.9834 5.65577 35.6576ZM6.2176 42.5119C6.2176 42.8864 6.51724 43.1861 6.8918 43.1861C7.26635 43.1861 7.56599 42.8864 7.56599 42.5119C7.56599 42.1373 7.26635 41.8377 6.8918 41.8377C6.51724 41.8377 6.2176 42.1373 6.2176 42.5119Z" fill="white"/>
</g>
<defs>
<clipPath id="clip0_412_10551">
<rect width="63" height="63" fill="white"/>
</clipPath>
</defs>
</svg>
