<svg width="65" height="13" viewBox="0 0 65 13" fill="none" xmlns="http://www.w3.org/2000/svg">
<path d="M58.7148 4.70089V1.68304C58.7148 1.68304 58.7148 1.56696 58.8306 1.50893L61.3784 0C61.3784 0 61.4943 0 61.6101 0L64.1579 1.50893C64.1579 1.50893 64.2737 1.625 64.2737 1.68304V4.64286C64.2737 4.64286 64.2737 4.75893 64.1579 4.81696L61.6101 6.32589C61.6101 6.32589 61.4943 6.32589 61.3784 6.32589L58.8306 4.81696C58.8306 4.81696 58.7148 4.70089 58.7148 4.64286V4.70089ZM59.1202 1.85714V4.58482L61.4943 5.97768L63.8683 4.58482V1.85714L61.4943 0.464286L59.1202 1.85714Z" fill="white"/>
<path d="M51.8242 4.70089V1.68304C51.8242 1.68304 51.8242 1.56696 51.94 1.50893L54.4878 0C54.4878 0 54.6036 0 54.7194 0L57.2672 1.50893C57.2672 1.50893 57.383 1.625 57.383 1.68304V4.64286C57.383 4.64286 57.383 4.75893 57.2672 4.81696L54.7194 6.32589C54.7194 6.32589 54.6036 6.32589 54.4878 6.32589L51.94 4.81696C51.94 4.81696 51.8242 4.70089 51.8242 4.64286V4.70089ZM52.2296 1.85714V4.58482L54.6036 5.97768L56.9777 4.58482V1.85714L54.6036 0.464286L52.2296 1.85714Z" fill="white"/>
<path d="M44.9336 4.70089V1.68304C44.9336 1.68304 44.9336 1.56696 45.0494 1.50893L47.5972 0C47.5972 0 47.713 0 47.8288 0L50.3766 1.50893C50.3766 1.50893 50.4924 1.625 50.4924 1.68304V4.64286C50.4924 4.64286 50.4924 4.75893 50.3766 4.81696L47.8288 6.32589C47.8288 6.32589 47.713 6.32589 47.5972 6.32589L45.0494 4.81696C45.0494 4.81696 44.9336 4.70089 44.9336 4.64286V4.70089ZM45.3389 1.85714V4.58482L47.713 5.97768L50.0871 4.58482V1.85714L47.713 0.464286L45.3389 1.85714Z" fill="white"/>
<path d="M38.043 4.70089V1.68304C38.043 1.68304 38.043 1.56696 38.1588 1.50893L40.7066 0C40.7066 0 40.8224 0 40.9382 0L43.486 1.50893C43.486 1.50893 43.6018 1.625 43.6018 1.68304V4.64286C43.6018 4.64286 43.6018 4.75893 43.486 4.81696L40.9382 6.32589C40.9382 6.32589 40.8224 6.32589 40.7066 6.32589L38.1588 4.81696C38.1588 4.81696 38.043 4.70089 38.043 4.64286V4.70089ZM38.4483 1.85714V4.58482L40.8224 5.97768L43.1965 4.58482V1.85714L40.8224 0.464286L38.4483 1.85714Z" fill="white"/>
<path d="M31.1523 4.70089V1.68304C31.1523 1.68304 31.1523 1.56696 31.2682 1.50893L33.8159 0C33.8159 0 33.9318 0 34.0476 0L36.5954 1.50893C36.5954 1.50893 36.7112 1.625 36.7112 1.68304V4.64286C36.7112 4.64286 36.7112 4.75893 36.5954 4.81696L34.0476 6.32589C34.0476 6.32589 33.9318 6.32589 33.8159 6.32589L31.2682 4.81696C31.2682 4.81696 31.1523 4.70089 31.1523 4.64286V4.70089ZM31.5577 1.85714V4.58482L33.9318 5.97768L36.3058 4.58482V1.85714L33.9318 0.464286L31.5577 1.85714Z" fill="white"/>
<path d="M24.2031 4.70089V1.68304C24.2031 1.68304 24.2031 1.56696 24.3189 1.50893L26.9246 0C26.9246 0 27.0404 0 27.1563 0L29.704 1.50893C29.704 1.50893 29.8199 1.625 29.8199 1.68304V4.64286C29.8199 4.64286 29.8199 4.75893 29.704 4.81696L27.1563 6.32589C27.1563 6.32589 27.0404 6.32589 26.9246 6.32589L24.3768 4.81696C24.3768 4.81696 24.261 4.70089 24.261 4.64286L24.2031 4.70089ZM24.6085 1.85714V4.58482L26.9825 5.97768L29.3566 4.58482V1.85714L26.9825 0.464286L24.6085 1.85714Z" fill="white"/>
<path d="M34.5117 11.0268V8.06695C34.5117 8.06695 34.5117 7.95088 34.6275 7.89284L37.1753 6.38391C37.1753 6.38391 37.2911 6.38391 37.4069 6.38391L39.9547 7.89284C39.9547 7.89284 40.0705 8.00891 40.0705 8.06695V11.0268C40.0705 11.0268 40.0705 11.1428 39.9547 11.2009L37.4069 12.7098C37.4069 12.7098 37.2911 12.7098 37.1753 12.7098L34.6275 11.2009C34.6275 11.2009 34.5117 11.0848 34.5117 11.0268ZM34.9171 8.18302V10.9107L37.2911 12.3036L39.6652 10.9107V8.18302L37.2911 6.79016L34.9171 8.18302Z" fill="white"/>
<path d="M27.6211 11.0268V8.06695C27.6211 8.06695 27.6211 7.95088 27.7369 7.89284L30.2847 6.38391C30.2847 6.38391 30.4005 6.38391 30.5163 6.38391L33.0641 7.89284C33.0641 7.89284 33.1799 8.00891 33.1799 8.06695V11.0268C33.1799 11.0268 33.1799 11.1428 33.0641 11.2009L30.5163 12.7098C30.5163 12.7098 30.4005 12.7098 30.2847 12.7098L27.7369 11.2009C27.7369 11.2009 27.6211 11.0848 27.6211 11.0268ZM28.0264 8.18302V10.9107L30.4005 12.3036L32.7746 10.9107V8.18302L30.4005 6.79016L28.0264 8.18302Z" fill="white"/>
<path d="M20.7305 11.0268V8.06695C20.7305 8.06695 20.7305 7.95088 20.8463 7.89284L23.3941 6.38391C23.3941 6.38391 23.5099 6.38391 23.6257 6.38391L26.1735 7.89284C26.1735 7.89284 26.2893 8.00891 26.2893 8.06695V11.0268C26.2893 11.0268 26.2893 11.1428 26.1735 11.2009L23.6257 12.7098C23.6257 12.7098 23.5099 12.7098 23.3941 12.7098L20.8463 11.2009C20.8463 11.2009 20.7305 11.0848 20.7305 11.0268ZM21.1358 8.18302V10.9107L23.5099 12.3036L25.884 10.9107V8.18302L23.5099 6.79016L21.1358 8.18302Z" fill="white"/>
<path d="M13.7812 11.0268V8.06695C13.7812 8.06695 13.7812 7.95088 13.8971 7.89284L16.4449 6.38391C16.4449 6.38391 16.5607 6.38391 16.6765 6.38391L19.2243 7.89284C19.2243 7.89284 19.3401 8.00891 19.3401 8.06695V11.0268C19.3401 11.0268 19.3401 11.1428 19.2243 11.2009L16.6765 12.7098C16.6765 12.7098 16.5607 12.7098 16.4449 12.7098L13.8971 11.2009C13.8971 11.2009 13.7812 11.0848 13.7812 11.0268ZM14.1866 8.18302V10.9107L16.5607 12.3036L18.9347 10.9107V8.18302L16.5607 6.79016L14.1866 8.18302Z" fill="white"/>
<path d="M6.89062 11.0268V8.06695C6.89062 8.06695 6.89062 7.95088 7.00643 7.89284L9.55423 6.38391C9.55423 6.38391 9.67004 6.38391 9.78585 6.38391L12.3336 7.89284C12.3336 7.89284 12.4494 8.00891 12.4494 8.06695V11.0268C12.4494 11.0268 12.4494 11.1428 12.3336 11.2009L9.78585 12.7098C9.78585 12.7098 9.67004 12.7098 9.55423 12.7098L7.00643 11.2009C7.00643 11.2009 6.89062 11.0848 6.89062 11.0268ZM7.29596 8.18302V10.9107L9.67004 12.3036L12.0441 10.9107V8.18302L9.67004 6.79016L7.29596 8.18302Z" fill="white"/>
<path d="M0 11.0268V8.06695C0 8.06695 0 7.95088 0.115809 7.89284L2.6636 6.38391C2.6636 6.38391 2.77941 6.38391 2.89522 6.38391L5.44301 7.89284C5.44301 7.89284 5.55882 8.00891 5.55882 8.06695V11.0268C5.55882 11.0268 5.55882 11.1428 5.44301 11.2009L2.89522 12.7098C2.89522 12.7098 2.77941 12.7098 2.6636 12.7098L0.115809 11.2009C0.115809 11.2009 0 11.0848 0 11.0268ZM0.405331 8.18302V10.9107L2.77941 12.3036L5.15349 10.9107V8.18302L2.77941 6.79016L0.405331 8.18302Z" fill="white"/>
</svg>
