<svg width="25" height="24" viewBox="0 0 25 24" fill="none" xmlns="http://www.w3.org/2000/svg">
<path d="M22.8566 6.62364L22.8389 6.59293C22.8142 6.54189 22.7858 6.493 22.7542 6.44654L19.4153 0.674064C19.1748 0.258282 18.727 0 18.2467 0H6.75587C6.27479 0 5.82666 0.258891 5.58624 0.675798L2.19295 6.56265C2.16239 6.61572 2.14036 6.67122 2.1248 6.72761C2.07703 6.85656 2.05078 6.99592 2.05078 7.14133V22.346C2.05078 23.258 2.79277 24 3.70477 24H21.2972C22.2092 24 22.9512 23.258 22.9512 22.346V7.08559C22.9512 7.0652 22.9506 7.04495 22.9495 7.02479C22.959 6.88947 22.9297 6.74992 22.8566 6.62364ZM13.2284 1.40677H18.214L20.8405 5.9477H13.2284V1.40677ZM6.78864 1.40677H11.8217V5.9477H4.17113L6.78864 1.40677ZM21.5444 22.346C21.5444 22.4823 21.4335 22.5932 21.2972 22.5932H3.70477C3.56846 22.5932 3.45755 22.4823 3.45755 22.346V7.35447H21.5444V22.346Z" fill="#031230"/>
<path d="M15.6923 12.6572C15.4177 12.3825 14.9723 12.3825 14.6976 12.6572L11.5569 15.7979L10.3492 14.5902C10.0745 14.3155 9.62914 14.3155 9.35445 14.5902C9.07977 14.8648 9.07977 15.3102 9.35445 15.5849L11.0596 17.29C11.1969 17.4273 11.377 17.496 11.5569 17.496C11.7369 17.496 11.917 17.4273 12.0543 17.29L15.6923 13.6519C15.967 13.3772 15.967 12.9318 15.6923 12.6572Z" fill="#031230"/>
</svg>
