<svg width="16" height="14" viewBox="0 0 16 14" fill="none" xmlns="http://www.w3.org/2000/svg">
<path d="M14.6555 6.14875L11.8367 8.60875L12.6811 12.2712C12.7258 12.4627 12.713 12.6631 12.6445 12.8474C12.5759 13.0316 12.4545 13.1916 12.2955 13.3072C12.1365 13.4229 11.9469 13.4891 11.7505 13.4976C11.5541 13.5061 11.3595 13.4565 11.1911 13.355L7.99673 11.4175L4.80923 13.355C4.64084 13.4565 4.44627 13.5061 4.24984 13.4976C4.05342 13.4891 3.86385 13.4229 3.70485 13.3072C3.54586 13.1916 3.42447 13.0316 3.35589 12.8474C3.2873 12.6631 3.27455 12.4627 3.31923 12.2712L4.16236 8.6125L1.34298 6.14875C1.19386 6.02014 1.08603 5.85036 1.03302 5.66072C0.980001 5.47107 0.984157 5.26999 1.04497 5.08269C1.10577 4.8954 1.22052 4.73022 1.37483 4.60788C1.52914 4.48555 1.71613 4.41149 1.91236 4.395L5.62861 4.07312L7.07923 0.613124C7.15499 0.431572 7.28276 0.276491 7.44647 0.16741C7.61018 0.058329 7.80251 0.000123978 7.99923 0.000123978C8.19596 0.000123978 8.38828 0.058329 8.55199 0.16741C8.7157 0.276491 8.84348 0.431572 8.91923 0.613124L10.3742 4.07312L14.0892 4.395C14.2855 4.41149 14.4725 4.48555 14.6268 4.60788C14.7811 4.73022 14.8958 4.8954 14.9566 5.08269C15.0174 5.26999 15.0216 5.47107 14.9686 5.66072C14.9156 5.85036 14.8077 6.02014 14.6586 6.14875H14.6555Z" fill="#ABB0BA"/>
</svg>
