<svg width="101" height="100" viewBox="0 0 101 100" fill="none" xmlns="http://www.w3.org/2000/svg">
<path d="M90.7188 22.5586C91.7969 22.5586 92.6719 23.4336 92.6719 24.5117C92.6719 25.5898 91.7969 26.4648 90.7188 26.4648C89.6406 26.4648 88.7656 25.5898 88.7656 24.5117C88.7656 23.4336 89.6406 22.5586 90.7188 22.5586Z" fill="#94D4FF"/>
<path d="M90.7188 73.3398C91.7969 73.3398 92.6719 74.2148 92.6719 75.293C92.6719 76.3711 91.7969 77.2461 90.7188 77.2461C89.6406 77.2461 88.7656 76.3711 88.7656 75.293C88.7656 74.2148 89.6406 73.3398 90.7188 73.3398Z" fill="#94D4FF"/>
<path d="M80.9531 85.0586C83.1113 85.0586 84.8594 86.8066 84.8594 88.9648C84.8594 91.123 83.1113 92.8711 80.9531 92.8711C78.7949 92.8711 77.0469 91.123 77.0469 88.9648C77.0469 86.8066 78.7949 85.0586 80.9531 85.0586Z" fill="#3256C1"/>
<path d="M77.0469 4.98047C78.125 4.98047 79 5.85547 79 6.93359C79 8.01172 78.125 8.88672 77.0469 8.88672C75.9688 8.88672 75.0938 8.01172 75.0938 6.93359C75.0938 5.85547 75.9688 4.98047 77.0469 4.98047Z" fill="#94D4FF"/>
<path d="M49.7031 10.8398C28.1289 10.8398 10.6406 28.3281 10.6406 49.9023C10.6406 71.4766 28.1289 88.9648 49.7031 88.9648C71.2773 88.9648 88.7656 71.4766 88.7656 49.9023C88.7656 28.3281 71.2773 10.8398 49.7031 10.8398Z" fill="#FFD400"/>
<path d="M49.7031 79.1992C33.5234 79.1992 20.4062 66.082 20.4062 49.9023C20.4062 33.7227 33.5234 20.6055 49.7031 20.6055C65.8828 20.6055 79 33.7227 79 49.9023C79 66.082 65.8828 79.1992 49.7031 79.1992Z" fill="white"/>
<path d="M64.2244 40.668C65.75 42.1934 65.75 44.666 64.2244 46.1914L50.4139 60.0039L44.8904 65.5273L39.365 60.0039L35.2225 55.8594C34.4609 55.0977 34.0781 54.0977 34.0781 53.0977C34.0781 52.0977 34.4609 51.0977 35.2225 50.3357C36.748 48.8103 39.2207 48.8103 40.7459 50.3357L44.8904 54.4783L58.7012 40.668C59.4648 39.9063 60.4629 39.5234 61.4629 39.5234C62.4629 39.5234 63.4609 39.9063 64.2244 40.668Z" fill="#07CC66"/>
<path d="M20.4062 88.9648C21.4844 88.9648 22.3594 89.8398 22.3594 90.918C22.3594 91.9961 21.4844 92.8711 20.4062 92.8711C19.3279 92.8711 18.4531 91.9961 18.4531 90.918C18.4531 89.8398 19.3279 88.9648 20.4062 88.9648Z" fill="#94D4FF"/>
<path d="M15.5234 8.88672C18.2207 8.88672 20.4062 11.0723 20.4062 13.7695C20.4062 16.4668 18.2207 18.6523 15.5234 18.6523C12.826 18.6523 10.6406 16.4668 10.6406 13.7695C10.6406 11.0723 12.826 8.88672 15.5234 8.88672Z" fill="#3256C1"/>
<path d="M8.6875 24.5117C9.76562 24.5117 10.6406 25.3867 10.6406 26.4648C10.6406 27.543 9.76562 28.418 8.6875 28.418C7.60918 28.418 6.73438 27.543 6.73438 26.4648C6.73438 25.3867 7.60918 24.5117 8.6875 24.5117Z" fill="#94D4FF"/>
<path d="M8.6875 73.3398C9.76562 73.3398 10.6406 74.2148 10.6406 75.293C10.6406 76.3711 9.76562 77.2461 8.6875 77.2461C7.60918 77.2461 6.73438 76.3711 6.73438 75.293C6.73438 74.2148 7.60918 73.3398 8.6875 73.3398Z" fill="#94D4FF"/>
<path d="M73.1406 49.9023C73.1406 48.8236 72.266 47.9492 71.1875 47.9492C70.109 47.9492 69.2344 48.8236 69.2344 49.9023C69.2344 60.6721 60.4729 69.4336 49.7031 69.4336C48.6244 69.4336 47.75 70.3082 47.75 71.3867V79.1328C48.3957 79.1754 49.0467 79.1992 49.7031 79.1992C50.3596 79.1992 51.0104 79.1754 51.6562 79.1328V73.2592C63.6691 72.2633 73.1406 62.168 73.1406 49.9023Z" fill="#D0DCE7"/>
<path d="M26.2656 49.9023C26.2656 50.9809 27.14 51.8555 28.2188 51.8555C29.2973 51.8555 30.1719 50.9809 30.1719 49.9023C30.1719 39.1328 38.9334 30.3711 49.7031 30.3711C50.7816 30.3711 51.6562 29.4967 51.6562 28.418V20.6719C51.0104 20.6293 50.3596 20.6055 49.7031 20.6055C49.0467 20.6055 48.3957 20.6293 47.75 20.6719V26.5455C35.7371 27.5414 26.2656 37.6367 26.2656 49.9023Z" fill="#D0DCE7"/>
</svg>
