<svg width="16" height="15" viewBox="0 0 16 15" fill="none" xmlns="http://www.w3.org/2000/svg">
<path d="M15.2367 14.4687C15.1873 14.5542 15.1163 14.6253 15.0307 14.6746C14.9452 14.724 14.8482 14.75 14.7494 14.75H1.24942C1.15073 14.7499 1.05381 14.7238 0.968375 14.6744C0.882945 14.625 0.812018 14.554 0.762717 14.4685C0.713415 14.383 0.687475 14.286 0.6875 14.1873C0.687525 14.0886 0.713516 13.9917 0.762861 13.9062C1.83372 12.0549 3.48395 10.7274 5.40981 10.0981C4.4572 9.53098 3.71707 8.66686 3.3031 7.63841C2.88913 6.60996 2.8242 5.47405 3.11829 4.40513C3.41237 3.33621 4.04921 2.39338 4.931 1.72142C5.8128 1.04947 6.89078 0.685547 7.99942 0.685547C9.10806 0.685547 10.1861 1.04947 11.0678 1.72142C11.9496 2.39338 12.5865 3.33621 12.8806 4.40513C13.1746 5.47405 13.1097 6.60996 12.6957 7.63841C12.2818 8.66686 11.5416 9.53098 10.589 10.0981C12.5149 10.7274 14.1651 12.0549 15.236 13.9062C15.2855 13.9917 15.3116 14.0886 15.3117 14.1874C15.3118 14.2861 15.286 14.3831 15.2367 14.4687Z" fill="#182951"/>
</svg>
