<svg width="18" height="18" viewBox="0 0 18 18" fill="none" xmlns="http://www.w3.org/2000/svg">
<path d="M16.2367 15.4687C16.1873 15.5542 16.1163 15.6253 16.0307 15.6746C15.9452 15.724 15.8482 15.75 15.7494 15.75H2.24942C2.15073 15.7499 2.05381 15.7238 1.96838 15.6744C1.88294 15.625 1.81202 15.554 1.76272 15.4685C1.71342 15.383 1.68747 15.286 1.6875 15.1873C1.68753 15.0886 1.71352 14.9917 1.76286 14.9062C2.83372 13.0549 4.48395 11.7274 6.40981 11.0981C5.4572 10.531 4.71707 9.66686 4.3031 8.63841C3.88913 7.60996 3.8242 6.47405 4.11829 5.40513C4.41237 4.33621 5.04921 3.39338 5.931 2.72142C6.8128 2.04947 7.89078 1.68555 8.99942 1.68555C10.1081 1.68555 11.1861 2.04947 12.0678 2.72142C12.9496 3.39338 13.5865 4.33621 13.8806 5.40513C14.1746 6.47405 14.1097 7.60996 13.6957 8.63841C13.2818 9.66686 12.5416 10.531 11.589 11.0981C13.5149 11.7274 15.1651 13.0549 16.236 14.9062C16.2855 14.9917 16.3116 15.0886 16.3117 15.1874C16.3118 15.2861 16.286 15.3831 16.2367 15.4687Z" fill="#F7F9FD"/>
</svg>
