<svg width="40" height="40" viewBox="0 0 40 40" fill="none" xmlns="http://www.w3.org/2000/svg">
<g clip-path="url(#clip0_412_3587)">
<path d="M31.7413 7.04443H29.393C28.744 7.04443 28.2188 7.56959 28.2188 8.21865C28.2188 8.86763 28.7439 9.39287 29.393 9.39287H31.7413C32.3903 9.39287 32.9155 8.86771 32.9155 8.21865C32.9155 7.56959 32.3903 7.04443 31.7413 7.04443Z" fill="#F37224"/>
<path d="M19.8757 2.99679L18.7016 0.648439C18.4092 0.0682054 17.7063 -0.164529 17.126 0.123283C16.5458 0.413361 16.3107 1.11859 16.6009 1.69883L17.7751 4.04718C18.0648 4.62507 18.7665 4.86249 19.3506 4.57234C19.9307 4.28226 20.1658 3.57703 19.8757 2.99679Z" fill="#F37224"/>
<path d="M27.5693 0.123391C26.9914 -0.164421 26.2839 0.0683916 25.9938 0.648547L24.8196 2.9969C24.5295 3.57714 24.7646 4.28229 25.3447 4.57245C25.9306 4.86338 26.6314 4.62323 26.9203 4.04729L28.0945 1.69894C28.3846 1.1187 28.1495 0.413469 27.5693 0.123391Z" fill="#F37224"/>
<path d="M15.3038 7.04443H12.9555C12.3065 7.04443 11.7812 7.56959 11.7812 8.21865C11.7812 8.86763 12.3064 9.39287 12.9555 9.39287H15.3038C15.9528 9.39287 16.478 8.86771 16.478 8.21865C16.478 7.56959 15.9528 7.04443 15.3038 7.04443Z" fill="#F37224"/>
<path d="M8.25772 18.8647H3.56094C2.9125 18.8647 2.38672 19.3904 2.38672 20.039V38.8258C2.38672 39.4742 2.91242 40 3.56094 40H8.25765C8.90608 40 9.43186 39.4743 9.43186 38.8258V20.0389C9.43186 19.3904 8.90624 18.8647 8.25772 18.8647Z" fill="#F37224"/>
<path d="M37.5899 21.9772C37.3828 20.1557 35.6813 18.8647 33.8481 18.8647H24.6938C25.4718 17.4716 25.8893 13.5315 25.8708 11.922C25.8401 9.2578 23.6338 7.1228 20.9695 7.1228H20.0006C19.3516 7.1228 18.8264 7.64796 18.8264 8.29702C18.8264 11.0122 17.7691 15.9132 15.7751 17.9072C14.433 19.2493 13.2857 19.7357 11.7812 20.4875V38.1061C14.0846 38.8738 17.0091 40 21.4667 40H29.1476C31.6785 40 33.6496 37.656 32.6689 35.1795C34.163 34.7724 35.2649 33.4021 35.2649 31.7807C35.2649 31.3231 35.1766 30.8852 35.0172 30.4827C37.5351 29.7967 38.4619 26.6877 36.7143 24.7356C37.3564 24.0183 37.7104 23.0372 37.5899 21.9772Z" fill="#F37224"/>
</g>
<defs>
<clipPath id="clip0_412_3587">
<rect width="40" height="40" fill="white"/>
</clipPath>
</defs>
</svg>
