<svg width="40" height="40" viewBox="0 0 40 40" fill="none" xmlns="http://www.w3.org/2000/svg">
<g clip-path="url(#clip0_412_3618)">
<path fill-rule="evenodd" clip-rule="evenodd" d="M8.41964 0H14.7481C16.6859 0 18.2637 1.57776 18.2637 3.51562V5.62438H20.0605C20.7078 5.62438 21.2324 6.14928 21.2324 6.79625C21.2324 7.44353 20.7078 7.96812 20.0605 7.96812H18.2383C17.9402 11.3968 15.0615 14.0622 11.584 14.0622C7.89505 14.0622 4.90402 11.0711 4.90402 7.38219C4.90402 6.09465 4.90402 4.80437 4.90402 3.51562C4.90402 1.57776 6.48178 0 8.41964 0Z" fill="#F37224"/>
<path fill-rule="evenodd" clip-rule="evenodd" d="M14.3143 16.9946C15.1694 17.3807 15.929 17.9401 16.5467 18.627L22.8467 25.0778H31.6406C33.5767 25.0778 35.1562 26.6577 35.1562 28.5937C35.1562 30.5294 33.5764 32.1093 31.6406 32.1093H21.7966C20.7166 32.1093 19.646 31.838 18.8419 31.0281L17.7942 29.9734V38.8275C17.7942 39.3951 17.3911 39.8919 16.8555 39.9999L6.07397 39.9993C5.42761 39.9987 4.90362 39.4741 4.90362 38.8275V23.0856C4.90362 18.2733 9.90239 15.0034 14.3143 16.9946Z" fill="#F37224"/>
<path fill-rule="evenodd" clip-rule="evenodd" d="M31.9355 22.734H23.4978C22.8505 22.734 22.3259 22.2094 22.3259 21.5621V13.2028C22.3259 12.5555 22.8505 12.0309 23.4978 12.0309H26.5446V14.0438C26.5446 14.6911 27.0695 15.2157 27.7165 15.2157C28.3638 15.2157 28.8884 14.6911 28.8884 14.0438V12.0309H31.9355C32.5825 12.0309 33.1074 12.5555 33.1074 13.2028V21.5621C33.1074 22.2094 32.5825 22.734 31.9355 22.734Z" fill="#F37224"/>
</g>
<defs>
<clipPath id="clip0_412_3618">
<rect width="40" height="40" fill="white" transform="matrix(-1 0 0 1 40 0)"/>
</clipPath>
</defs>
</svg>
