<svg width="40" height="40" viewBox="0 0 40 40" fill="none" xmlns="http://www.w3.org/2000/svg">
<path d="M20.0006 21.8596C22.6748 21.8596 28.9622 18.6413 28.9622 10.9297C28.9622 9.85404 28.936 8.81495 28.8473 7.83317C28.7018 5.90099 28.3061 4.18861 27.3207 2.87628C26.0568 1.09041 23.8456 0 20.0006 0C16.1561 0 13.945 1.08997 12.6812 2.87528C11.6952 4.18794 11.2992 5.90076 11.1538 7.83362C11.0652 8.81529 11.0391 9.85426 11.0391 10.9298C11.039 18.6413 17.3264 21.8596 20.0006 21.8596ZM22.9257 4.00416C22.6648 4.66381 22.534 4.9937 22.2728 5.65324C20.5869 5.17693 19.4139 5.17693 17.7281 5.65324C17.467 4.9937 17.3362 4.66381 17.0751 4.00416C19.1835 3.3659 20.8176 3.36601 22.9257 4.00416ZM12.3721 9.25768C12.4754 9.48348 12.9141 10.3517 13.593 10.4331C14.3735 10.5268 15.669 7.66912 20.0006 7.66214C24.332 7.66912 25.6276 10.5268 26.4081 10.4331C27.0871 10.3516 27.5257 9.48348 27.629 9.25768C27.6499 9.81103 27.6577 10.3713 27.6577 10.9298C27.6577 14.6992 25.9933 17.0348 24.597 18.3302C22.8377 19.9627 20.8843 20.5552 20.0007 20.5552C19.117 20.5552 17.1636 19.9627 15.4044 18.3302C14.0079 17.0348 12.3436 14.6992 12.3436 10.9298C12.3435 10.3713 12.3512 9.81103 12.3721 9.25768Z" fill="#F37224"/>
<path d="M36.6381 33.0689C36.1806 30.2241 35.2388 26.5594 33.3495 25.2572C32.0592 24.3675 27.5579 21.9627 25.6357 20.9358L25.6032 20.9185C25.3835 20.8011 25.1152 20.8247 24.9194 20.9785C23.9125 21.7689 22.8095 22.3017 21.6412 22.5618C21.4348 22.6078 21.2653 22.7545 21.1905 22.9521L20.0008 26.0881L18.8109 22.9521C18.7361 22.7545 18.5667 22.6078 18.3602 22.5618C17.192 22.3017 16.0891 21.7689 15.0822 20.9785C14.886 20.8246 14.6179 20.8011 14.3982 20.9185C12.4989 21.9334 7.94251 24.3874 6.65779 25.2534C4.48284 26.7185 3.53199 32.0209 3.36339 33.069C3.34676 33.1729 3.35641 33.2792 3.39143 33.3786C3.43755 33.5087 4.15684 35.3718 7.75407 36.8698C7.96147 36.6085 8.2377 36.4103 8.54841 36.2987C8.16244 36.1617 7.82745 35.8932 7.61319 35.5327C7.29394 34.9955 7.28208 34.3214 7.58148 33.7749C8.50374 32.0866 10.27 31.0362 12.1932 31.0337C13.9821 31.0337 15.6037 31.9226 16.5666 33.3674H23.431C23.6194 33.0859 23.8355 32.8227 24.0781 32.5794C25.0702 31.5844 26.39 31.0355 27.7947 31.0335H27.7958H27.7969C29.7186 31.0335 31.487 32.0781 32.4125 33.7605C32.7125 34.3066 32.7024 34.9793 32.385 35.5183C32.172 35.8789 31.8379 36.1483 31.4523 36.2866C31.7685 36.3985 32.049 36.5997 32.258 36.8656C35.846 35.3684 36.5642 33.5087 36.6103 33.3788C36.6452 33.2791 36.6549 33.1727 36.6381 33.0689Z" fill="#F37224"/>
<path d="M30.8624 37.7364H30.8619L27.5547 37.7409C27.496 37.6017 27.3834 37.2151 27.3823 36.2927C27.3807 35.3702 27.492 34.9829 27.5506 34.8434L30.8569 34.8385C30.936 34.8381 31.0089 34.7965 31.0489 34.7285C31.0892 34.6604 31.0903 34.5766 31.0524 34.5074C30.4 33.3216 29.1552 32.5851 27.7969 32.5851C26.8065 32.5865 25.8763 32.9736 25.1772 33.6748C24.8169 34.036 24.542 34.459 24.3588 34.9191H15.6386C15.0911 33.554 13.7551 32.5854 12.1933 32.5854C10.839 32.5873 9.59376 33.328 8.94342 34.5187C8.90551 34.5879 8.90706 34.672 8.9473 34.7397C8.98753 34.8075 9.06047 34.8488 9.13928 34.8488H9.13951L12.4468 34.8436C12.5056 34.9828 12.618 35.3695 12.6191 36.2922C12.6207 37.2148 12.5094 37.6018 12.4509 37.7412L9.14449 37.7462C9.06568 37.7463 8.99274 37.7882 8.95251 37.8559C8.91249 37.9238 8.91116 38.008 8.94929 38.0771C9.60141 39.2629 10.8467 39.9999 12.1991 39.9999H12.2046C13.1951 39.9984 14.1251 39.6113 14.8244 38.9099C15.1847 38.5486 15.4595 38.1255 15.6426 37.6653H24.3626C24.9102 39.0309 26.2452 39.9994 27.8032 39.9996C27.8032 39.9996 27.8082 39.9996 27.8084 39.9996C29.1624 39.9977 30.4079 39.2566 31.0582 38.0666C31.0961 37.9973 31.0946 37.9131 31.0543 37.8455C31.0141 37.7777 30.9412 37.7364 30.8624 37.7364Z" fill="#F37224"/>
</svg>
