<svg width="20" height="20" viewBox="0 0 20 20" fill="none" xmlns="http://www.w3.org/2000/svg">
<g clip-path="url(#clip0_1102_437)">
<path d="M10 20C15.5228 20 20 15.5228 20 10C20 4.47715 15.5228 0 10 0C4.47715 0 0 4.47715 0 10C0 15.5228 4.47715 20 10 20Z" fill="white"/>
<path d="M13.2738 6.23828H6.72907C6.46753 6.23828 6.20854 6.28982 5.96692 6.38995C5.72531 6.49008 5.50578 6.63683 5.3209 6.82184C5.13603 7.00684 4.98941 7.22645 4.88944 7.46814C4.78947 7.70983 4.73811 7.96884 4.73828 8.23039V11.7699C4.73811 12.0314 4.78947 12.2904 4.88944 12.5321C4.98941 12.7738 5.13603 12.9934 5.3209 13.1784C5.50578 13.3634 5.72531 13.5102 5.96692 13.6103C6.20854 13.7104 6.46753 13.762 6.72907 13.762H13.2738C13.5354 13.762 13.7943 13.7104 14.036 13.6103C14.2776 13.5102 14.4971 13.3634 14.682 13.1784C14.8669 12.9934 15.0135 12.7738 15.1134 12.5321C15.2134 12.2904 15.2648 12.0314 15.2646 11.7699V8.23039C15.2648 7.96884 15.2134 7.70983 15.1134 7.46814C15.0135 7.22645 14.8669 7.00684 14.682 6.82184C14.4971 6.63683 14.2776 6.49008 14.036 6.38995C13.7943 6.28982 13.5354 6.23828 13.2738 6.23828ZM8.6146 11.6133V8.38697L11.3883 10.0001L8.6146 11.6133Z" fill="#182951"/>
</g>
<defs>
<clipPath id="clip0_1102_437">
<rect width="20" height="20" fill="white"/>
</clipPath>
</defs>
</svg>
