<svg width="40" height="40" viewBox="0 0 40 40" fill="none" xmlns="http://www.w3.org/2000/svg">
<g filter="url(#filter0_d_412_4883)">
<path d="M16 28C22.6274 28 28 22.6274 28 16C28 9.37258 22.6274 4 16 4C9.37258 4 4 9.37258 4 16C4 22.6274 9.37258 28 16 28Z" fill="white"/>
</g>
<path opacity="0.12" fill-rule="evenodd" clip-rule="evenodd" d="M27.55 16.2998L8.875 23.7623L12.1375 27.2498C13.3 27.6248 14.5375 27.8498 15.8125 27.8498C22.2625 27.8498 27.475 22.7123 27.55 16.2998Z" fill="url(#paint0_linear_412_4883)"/>
<path fill-rule="evenodd" clip-rule="evenodd" d="M24.3621 24.0998C26.3496 21.9998 27.6996 19.2248 27.6996 16.1123C27.6996 9.58731 22.4121 4.2998 15.8871 4.2998C13.2996 4.2998 11.0496 5.27481 9.09957 6.66231C6.84957 10.8623 6.96207 17.0498 9.73707 20.7623C9.73707 20.7623 9.73707 20.7623 9.73707 20.7998C10.2621 21.5498 9.73707 22.8998 8.98707 23.6498C8.87457 23.7623 8.91207 23.8373 9.09957 23.8748C10.1871 23.9873 11.5746 23.6873 12.5496 23.1998C15.8871 25.0373 20.4996 25.2998 24.3621 24.0998Z" fill="#2960F9"/>
<path d="M15.0254 13H11.2004V13.825H13.8629L11.2379 17.05C11.1629 17.1625 11.0879 17.275 11.0879 17.5375V17.7625H14.6879C14.8754 17.7625 15.0254 17.6125 15.0254 17.425V16.975H12.2504L14.6879 13.9C14.7254 13.8625 14.8004 13.7875 14.8379 13.75V13.7125C14.9879 13.4875 15.0254 13.3375 15.0254 13.1125V13Z" fill="white"/>
<path d="M19.8996 17.725H20.4246V13H19.5996V17.4625C19.6371 17.6125 19.7496 17.725 19.8996 17.725Z" fill="white"/>
<path d="M17.0879 14.0498C16.0754 14.0498 15.2129 14.8748 15.2129 15.9248C15.2129 16.9748 16.0379 17.7998 17.0879 17.7998C18.1379 17.7998 18.9629 16.9748 18.9629 15.9248C18.9629 14.8748 18.1379 14.0498 17.0879 14.0498ZM17.0879 17.0123C16.4879 17.0123 16.0004 16.5248 16.0004 15.9248C16.0004 15.3248 16.4879 14.8373 17.0879 14.8373C17.6879 14.8373 18.1754 15.3248 18.1754 15.9248C18.1754 16.5248 17.7254 17.0123 17.0879 17.0123Z" fill="white"/>
<path d="M22.8633 14.0127C21.8133 14.0127 20.9883 14.8377 20.9883 15.8877C20.9883 16.9377 21.8133 17.7627 22.8633 17.7627C23.9133 17.7627 24.7383 16.9377 24.7383 15.8877C24.7383 14.8377 23.8758 14.0127 22.8633 14.0127ZM22.8633 17.0127C22.2633 17.0127 21.7758 16.5252 21.7758 15.9252C21.7758 15.3252 22.2633 14.8377 22.8633 14.8377C23.4633 14.8377 23.9508 15.3252 23.9508 15.9252C23.9508 16.4877 23.4633 17.0127 22.8633 17.0127Z" fill="white"/>
<path d="M18.5129 17.725H18.9629V14.125H18.2129V17.3875C18.2129 17.575 18.3629 17.725 18.5129 17.725Z" fill="white"/>
<defs>
<filter id="filter0_d_412_4883" x="0" y="0" width="40" height="40" filterUnits="userSpaceOnUse" color-interpolation-filters="sRGB">
<feFlood flood-opacity="0" result="BackgroundImageFix"/>
<feColorMatrix in="SourceAlpha" type="matrix" values="0 0 0 0 0 0 0 0 0 0 0 0 0 0 0 0 0 0 127 0" result="hardAlpha"/>
<feOffset dx="4" dy="4"/>
<feGaussianBlur stdDeviation="4"/>
<feComposite in2="hardAlpha" operator="out"/>
<feColorMatrix type="matrix" values="0 0 0 0 0 0 0 0 0 0 0 0 0 0 0 0 0 0 0.16 0"/>
<feBlend mode="normal" in2="BackgroundImageFix" result="effect1_dropShadow_412_4883"/>
<feBlend mode="normal" in="SourceGraphic" in2="effect1_dropShadow_412_4883" result="shape"/>
</filter>
<linearGradient id="paint0_linear_412_4883" x1="18.1106" y1="19.8519" x2="19.6868" y2="22.3913" gradientUnits="userSpaceOnUse">
<stop/>
<stop offset="0.9379" stop-opacity="0.062076"/>
<stop offset="1" stop-opacity="0"/>
</linearGradient>
</defs>
</svg>
