<svg width="24" height="25" viewBox="0 0 24 25" fill="none" xmlns="http://www.w3.org/2000/svg">
<path d="M6.54022 9.75468C6.53936 9.60565 6.58289 9.45974 6.66528 9.33554C6.74766 9.21135 6.86517 9.11451 7.00281 9.05736C7.14045 9.00021 7.29199 8.98534 7.43811 9.01466C7.58424 9.04397 7.71832 9.11614 7.82327 9.22196L11.7924 13.1986L15.7616 9.22196C15.9052 9.09903 16.0898 9.0348 16.2786 9.0421C16.4675 9.04939 16.6466 9.12767 16.7802 9.2613C16.9139 9.39493 16.9921 9.57406 16.9994 9.76289C17.0067 9.95173 16.9425 10.1364 16.8196 10.2799L12.3177 14.7818C12.1771 14.9216 11.9869 15 11.7887 15C11.5905 15 11.4003 14.9216 11.2597 14.7818L6.75782 10.2799C6.6192 10.1401 6.54105 9.95152 6.54022 9.75468Z" fill="#595959"/>
</svg>
