<svg width="12" height="25" viewBox="0 0 12 25" fill="none" xmlns="http://www.w3.org/2000/svg">
<path d="M5.14888 0.683183C5.1486 0.683464 5.14828 0.683698 5.14799 0.684026L0.272996 5.58265C-0.0922069 5.94963 -0.0908479 6.54321 0.276183 6.90851C0.643168 7.27376 1.23675 7.27235 1.602 6.90537L4.87499 3.61643L4.87499 23.4707C4.87499 23.9885 5.29471 24.4082 5.81249 24.4082C6.33028 24.4082 6.74999 23.9885 6.74999 23.4707L6.74999 3.61648L10.023 6.90532C10.3882 7.27231 10.9818 7.27371 11.3488 6.90846C11.7159 6.54316 11.7171 5.94954 11.352 5.5826L6.47699 0.683979C6.47671 0.683698 6.47638 0.683464 6.4761 0.683136C6.10963 0.315963 5.51413 0.317137 5.14888 0.683183Z" fill="#E65725"/>
</svg>
