<svg width="60" height="60" viewBox="0 0 60 60" fill="none" xmlns="http://www.w3.org/2000/svg">
<path fill-rule="evenodd" clip-rule="evenodd" d="M30 6.875C17.2284 6.875 6.875 17.2284 6.875 30C6.875 42.7716 17.2284 53.125 30 53.125C42.7716 53.125 53.125 42.7716 53.125 30C53.125 17.2284 42.7716 6.875 30 6.875ZM3.125 30C3.125 15.1573 15.1573 3.125 30 3.125C44.8427 3.125 56.875 15.1573 56.875 30C56.875 44.8427 44.8427 56.875 30 56.875C15.1573 56.875 3.125 44.8427 3.125 30ZM30 13.125C31.0355 13.125 31.875 13.9645 31.875 15V15.7918C35.9511 16.5217 39.375 19.584 39.375 23.75C39.375 24.7855 38.5355 25.625 37.5 25.625C36.4645 25.625 35.625 24.7855 35.625 23.75C35.625 21.6393 33.4412 19.375 30 19.375C26.5588 19.375 24.375 21.6393 24.375 23.75C24.375 25.8607 26.5588 28.125 30 28.125C34.8431 28.125 39.375 31.4571 39.375 36.25C39.375 40.416 35.9511 43.4783 31.875 44.2082V45C31.875 46.0355 31.0355 46.875 30 46.875C28.9645 46.875 28.125 46.0355 28.125 45V44.2082C24.0489 43.4783 20.625 40.416 20.625 36.25C20.625 35.2145 21.4645 34.375 22.5 34.375C23.5355 34.375 24.375 35.2145 24.375 36.25C24.375 38.3607 26.5588 40.625 30 40.625C33.4412 40.625 35.625 38.3607 35.625 36.25C35.625 34.1393 33.4412 31.875 30 31.875C25.1569 31.875 20.625 28.5429 20.625 23.75C20.625 19.584 24.0489 16.5217 28.125 15.7918V15C28.125 13.9645 28.9645 13.125 30 13.125Z" fill="#1C274C"/>
</svg>
