<svg width="14" height="20" viewBox="0 0 14 20" fill="none" xmlns="http://www.w3.org/2000/svg">
<path d="M7 20C6.4 20 6 19.6 6 19V5C6 4.4 6.4 4 7 4C7.6 4 8 4.4 8 5V19C8 19.6 7.6 20 7 20Z" fill="#F0B64F"/>
<path d="M13 12C12.7 12 12.5 11.9 12.3 11.7L7 6.4L1.7 11.7C1.3 12.1 0.7 12.1 0.3 11.7C-0.1 11.3 -0.1 10.7 0.3 10.3L6.3 4.3C6.7 3.9 7.3 3.9 7.7 4.3L13.7 10.3C14.1 10.7 14.1 11.3 13.7 11.7C13.5 11.9 13.3 12 13 12Z" fill="#F0B64F"/>
<path d="M13 2H1C0.4 2 0 1.6 0 1C0 0.4 0.4 0 1 0H13C13.6 0 14 0.4 14 1C14 1.6 13.6 2 13 2Z" fill="#F0B64F"/>
</svg>
