<svg width="48" height="48" viewBox="0 0 48 48" fill="none" xmlns="http://www.w3.org/2000/svg">
<rect width="48" height="48" rx="24" fill="#F0B64F"/>
<path d="M23.9947 25.1227L12 19.1387V31.0284C12.0016 31.6312 12.2418 32.2088 12.668 32.6351C13.0943 33.0613 13.6719 33.3015 14.2747 33.3031H33.7253C34.3281 33.3015 34.9057 33.0613 35.332 32.6351C35.7582 32.2088 35.9984 31.6312 36 31.0284V19.264L23.9947 25.1227Z" fill="white"/>
<path d="M24.0053 22.8767L36 17.0225V16.971C35.9984 16.3682 35.7582 15.7906 35.332 15.3643C34.9057 14.9381 34.3281 14.6979 33.7253 14.6963H14.2747C13.6858 14.6975 13.1201 14.9264 12.6961 15.3351C12.2722 15.7438 12.0227 16.3007 12 16.8892L24.0053 22.8767Z" fill="white"/>
</svg>
