<svg width="28" height="21" viewBox="0 0 28 21" fill="none" xmlns="http://www.w3.org/2000/svg">
<path d="M27.8607 2.67785C26.5605 3.38255 25.5158 4.06376 24.7264 4.72148C23.9834 5.33221 23.403 5.94295 22.9851 6.55369C22.5672 7.11745 22.2886 7.65772 22.1493 8.17449C22.0564 8.69127 22.0099 9.18457 22.0099 9.65436C22.0099 10.5 22.3814 10.9228 23.1244 10.9228C26.3748 10.9228 28 12.4732 28 15.5738C28 17.3121 27.5124 18.651 26.5373 19.5906C25.5622 20.5302 24.2156 21 22.4975 21C20.408 21 18.806 20.3893 17.6915 19.1678C16.5771 17.8993 16.0199 16.0671 16.0199 13.6711C16.0199 10.4765 16.9022 7.82215 18.6667 5.70806C20.4312 3.54698 22.9619 1.6443 26.2587 0L27.8607 2.67785ZM11.7711 2.67785C10.471 3.38255 9.4262 4.06376 8.63682 4.72148C7.89386 5.33221 7.31343 5.94295 6.89552 6.55369C6.47761 7.11745 6.199 7.65772 6.0597 8.17449C5.96683 8.69127 5.9204 9.18457 5.9204 9.65436C5.9204 10.5 6.29187 10.9228 7.03483 10.9228C10.2852 10.9228 11.9104 12.4732 11.9104 15.5738C11.9104 17.3121 11.4229 18.651 10.4478 19.5906C9.47264 20.5302 8.12604 21 6.40796 21C4.31841 21 2.71642 20.3893 1.60199 19.1678C0.533997 17.8993 0 16.0671 0 13.6711C0 10.4765 0.859038 7.82215 2.57711 5.70806C4.34163 3.54698 6.8723 1.6443 10.1692 0L11.7711 2.67785Z" fill="#2E368F"/>
</svg>
