<svg width="24" height="24" viewBox="0 0 24 24" fill="none" xmlns="http://www.w3.org/2000/svg">
<path fill-rule="evenodd" clip-rule="evenodd" d="M14.8608 2.36031C14.4478 2.30831 14.0778 2.61131 14.0328 3.02231C13.9868 3.43431 14.2838 3.80431 14.6948 3.85031C18.0718 4.22531 20.6938 6.84531 21.0728 10.2213C21.1158 10.6043 21.4398 10.8873 21.8168 10.8873C21.8448 10.8873 21.8738 10.8853 21.9018 10.8823C22.3128 10.8373 22.6088 10.4653 22.5628 10.0533C22.1058 5.97731 18.9388 2.81331 14.8608 2.36031Z" fill="white"/>
<path fill-rule="evenodd" clip-rule="evenodd" d="M17.5415 10.2914C17.6115 10.6494 17.9255 10.8974 18.2765 10.8974C18.3245 10.8974 18.3725 10.8934 18.4215 10.8844C18.8275 10.8054 19.0935 10.4104 19.0145 10.0044C18.6075 7.92235 17.0005 6.31535 14.9205 5.91135C14.5235 5.83235 14.1205 6.09835 14.0415 6.50535C13.9625 6.91135 14.2285 7.30535 14.6355 7.38435C16.1115 7.67135 17.2535 8.81235 17.5415 10.2914Z" fill="white"/>
<path fill-rule="evenodd" clip-rule="evenodd" d="M15.7759 14.4516C14.7779 14.9376 13.9139 15.3596 11.6669 13.1126C9.42088 10.8656 9.84088 10.0026 10.3279 9.00362C11.0329 7.55562 11.3179 6.23862 8.11588 3.60162C7.35088 2.97662 6.52088 2.73662 5.65388 2.90462C3.82088 3.24762 2.52588 5.28762 2.52788 5.28762C1.71588 6.42362 0.603873 9.83962 7.77088 17.0076C12.4849 21.7226 15.5769 22.8536 17.4529 22.8536C18.4289 22.8536 19.0759 22.5476 19.4499 22.2786C19.4699 22.2666 21.5279 20.9916 21.8759 19.1226C22.0379 18.2536 21.8019 17.4266 21.1759 16.6616C18.5399 13.4626 17.2229 13.7466 15.7759 14.4516Z" fill="white"/>
</svg>
