<svg width="48" height="48" viewBox="0 0 48 48" fill="none" xmlns="http://www.w3.org/2000/svg">
<path d="M45.42 42.5801L37.42 34.5801C40.6651 30.6065 42.2591 25.5379 41.8725 20.4222C41.4858 15.3065 39.1481 10.535 35.3427 7.09429C31.5373 3.65358 26.5551 1.80679 21.4265 1.93577C16.2978 2.06476 11.4149 4.15966 7.78719 7.78732C4.15954 11.415 2.06464 16.298 1.93565 21.4266C1.80666 26.5553 3.65346 31.5374 7.09417 35.3428C10.5349 39.1482 15.3064 41.4859 20.4221 41.8726C25.5378 42.2592 30.6064 40.6652 34.58 37.4201L42.58 45.4201C42.7659 45.6076 42.9871 45.7564 43.2308 45.8579C43.4746 45.9594 43.736 46.0117 44 46.0117C44.264 46.0117 44.5254 45.9594 44.7692 45.8579C45.0129 45.7564 45.2341 45.6076 45.42 45.4201C45.6075 45.2342 45.7562 45.013 45.8578 44.7693C45.9593 44.5256 46.0116 44.2641 46.0116 44.0001C46.0116 43.7361 45.9593 43.4747 45.8578 43.231C45.7562 42.9872 45.6075 42.766 45.42 42.5801ZM22 38.0001C18.8355 38.0001 15.7421 37.0617 13.1109 35.3036C10.4797 33.5455 8.42892 31.0467 7.21792 28.1231C6.00692 25.1994 5.69006 21.9824 6.30743 18.8787C6.92479 15.775 8.44864 12.924 10.6863 10.6864C12.9239 8.44877 15.7749 6.92491 18.8785 6.30755C21.9822 5.69019 25.1993 6.00704 28.1229 7.21804C31.0465 8.42904 33.5454 10.4798 35.3035 13.111C37.0616 15.7422 38 18.8356 38 22.0001C38 26.2436 36.3143 30.3132 33.3137 33.3138C30.3131 36.3144 26.2435 38.0001 22 38.0001Z" fill="white"/>
<path d="M28 20L24 20L24 16C24 15.4696 23.7893 14.9609 23.4142 14.5858C23.0391 14.2107 22.5304 14 22 14C21.4696 14 20.9609 14.2107 20.5858 14.5858C20.2107 14.9609 20 15.4696 20 16L20 20L16 20C15.4696 20 14.9609 20.2107 14.5858 20.5858C14.2107 20.9609 14 21.4696 14 22C14 22.5304 14.2107 23.0391 14.5858 23.4142C14.9609 23.7893 15.4696 24 16 24L20 24L20 28C20 28.5304 20.2107 29.0391 20.5858 29.4142C20.9609 29.7893 21.4696 30 22 30C22.5304 30 23.0391 29.7893 23.4142 29.4142C23.7893 29.0391 24 28.5304 24 28L24 24L28 24C28.5304 24 29.0391 23.7893 29.4142 23.4142C29.7893 23.0391 30 22.5304 30 22C30 21.4696 29.7893 20.9609 29.4142 20.5858C29.0391 20.2107 28.5304 20 28 20Z" fill="white"/>
</svg>
