<svg width="24" height="25" viewBox="0 0 24 25" fill="none" xmlns="http://www.w3.org/2000/svg">
<path fill-rule="evenodd" clip-rule="evenodd" d="M3.25 7.5C3.25 7.08579 3.58579 6.75 4 6.75H20C20.4142 6.75 20.75 7.08579 20.75 7.5C20.75 7.91421 20.4142 8.25 20 8.25H4C3.58579 8.25 3.25 7.91421 3.25 7.5ZM3.25 12.5C3.25 12.0858 3.58579 11.75 4 11.75H15C15.4142 11.75 15.75 12.0858 15.75 12.5C15.75 12.9142 15.4142 13.25 15 13.25H4C3.58579 13.25 3.25 12.9142 3.25 12.5ZM3.25 17.5C3.25 17.0858 3.58579 16.75 4 16.75H9C9.41421 16.75 9.75 17.0858 9.75 17.5C9.75 17.9142 9.41421 18.25 9 18.25H4C3.58579 18.25 3.25 17.9142 3.25 17.5Z" fill="#101436"/>
</svg>
