<svg width="22" height="22" viewBox="0 0 22 22" fill="none" xmlns="http://www.w3.org/2000/svg">
<path fill-rule="evenodd" clip-rule="evenodd" d="M10.4043 1.75C5.57181 1.75 1.6543 5.66751 1.6543 10.5C1.6543 15.3325 5.57181 19.25 10.4043 19.25C15.2368 19.25 19.1543 15.3325 19.1543 10.5C19.1543 5.66751 15.2368 1.75 10.4043 1.75ZM0.154297 10.5C0.154297 4.83908 4.74338 0.25 10.4043 0.25C16.0652 0.25 20.6543 4.83908 20.6543 10.5C20.6543 16.1609 16.0652 20.75 10.4043 20.75C4.74338 20.75 0.154297 16.1609 0.154297 10.5ZM18.374 18.4697C18.6669 18.1768 19.1417 18.1768 19.4346 18.4697L21.4346 20.4697C21.7275 20.7626 21.7275 21.2374 21.4346 21.5303C21.1417 21.8232 20.6669 21.8232 20.374 21.5303L18.374 19.5303C18.0811 19.2374 18.0811 18.7626 18.374 18.4697Z" fill="white"/>
</svg>
