<svg width="21" height="21" viewBox="0 0 21 21" fill="none" xmlns="http://www.w3.org/2000/svg">
<g clip-path="url(#clip0_684_20295)">
<path d="M17.3936 8.66011C17.1882 8.52221 17.0027 8.35681 16.8423 8.16847C16.8542 7.90625 16.9069 7.6475 16.9985 7.40155C17.1707 6.81856 17.3852 6.093 16.9719 5.52525C16.5555 4.95299 15.795 4.93378 15.1839 4.91817C14.9269 4.92843 14.6698 4.90079 14.4208 4.83612C14.2839 4.62138 14.1793 4.38766 14.1106 4.14245C13.9067 3.56182 13.6527 2.83915 12.9725 2.61811C12.3125 2.4036 11.7202 2.81114 11.1979 3.16953C10.9881 3.3371 10.7524 3.46957 10.5002 3.56179C10.2478 3.46967 10.012 3.33718 9.80213 3.16953C9.27984 2.81083 8.68737 2.40457 8.02753 2.61811C7.34754 2.83915 7.09364 3.56145 6.88952 4.14221C6.82087 4.38619 6.71748 4.61904 6.58256 4.8336C6.33278 4.90024 6.07436 4.92866 5.81608 4.91793C5.20508 4.93352 4.44451 4.95276 4.02818 5.52499C3.61483 6.09305 3.82929 6.81861 4.00151 7.40166C4.09206 7.64632 4.14523 7.90321 4.15922 8.16372C3.99954 8.35471 3.81336 8.5219 3.60633 8.66013C3.11333 9.0361 2.5 9.50416 2.5 10.2285C2.5 10.9528 3.11333 11.4208 3.60644 11.7968C3.81181 11.9347 3.99731 12.1001 4.1577 12.2885C4.14578 12.5507 4.09308 12.8094 4.00146 13.0554C3.82926 13.6384 3.61478 14.364 4.02812 14.9317C4.44446 15.5039 5.20503 15.5231 5.81605 15.5388C6.0731 15.5285 6.33023 15.5562 6.57922 15.6208C6.71612 15.8356 6.82066 16.0693 6.88945 16.3145C7.09356 16.8952 7.34746 17.6178 8.02761 17.8389C8.14811 17.8784 8.27414 17.8985 8.40096 17.8985C8.91285 17.8985 9.38028 17.5772 9.80218 17.2875C10.0121 17.1199 10.2477 16.9874 10.5 16.8951C10.7524 16.9873 10.9881 17.1197 11.1981 17.2874C11.7203 17.6461 12.3127 18.052 12.9727 17.8388C13.6526 17.6178 13.9065 16.8955 14.1107 16.3147C14.1793 16.0707 14.2827 15.8379 14.4176 15.6233C14.6674 15.5567 14.9258 15.5283 15.1841 15.539C15.7951 15.5234 16.5557 15.5042 16.972 14.9319C17.3853 14.3639 17.1709 13.6383 16.9987 13.0553C16.9081 12.8106 16.855 12.5537 16.841 12.2932C17.0006 12.1022 17.1868 11.935 17.3939 11.7968C17.8866 11.4208 18.5 10.9528 18.5 10.2285C18.5 9.50416 17.8867 9.0361 17.3936 8.66011ZM13.4714 9.03316L10.138 12.3665C9.87777 12.6268 9.45577 12.6269 9.19544 12.3666C9.19538 12.3666 9.19533 12.3665 9.19528 12.3665L7.5286 10.6998C7.26497 10.4428 7.25961 10.0207 7.51664 9.75707C7.77366 9.49343 8.19574 9.48808 8.45938 9.7451C8.46342 9.74904 8.46741 9.75303 8.47135 9.75707L9.66665 10.9524L12.5286 8.09039C12.7857 7.82676 13.2077 7.82143 13.4714 8.07845C13.735 8.33547 13.7403 8.75756 13.4833 9.02119C13.4794 9.02526 13.4754 9.02922 13.4714 9.03316Z" fill="#059669"/>
</g>
<defs>
<clipPath id="clip0_684_20295">
<rect width="16" height="16" fill="white" transform="translate(2.5 2.23047)"/>
</clipPath>
</defs>
</svg>
