<svg width="32" height="33" viewBox="0 0 32 33" fill="none" xmlns="http://www.w3.org/2000/svg">
<path d="M16 0.5C7.17764 0.5 0 7.67764 0 16.5C0 25.3217 7.17764 32.5 16 32.5C24.8217 32.5 32 25.3217 32 16.5C32 7.67764 24.823 0.5 16 0.5ZM19.9791 17.0633H17.376V26.3413H13.5187C13.5187 26.3413 13.5187 21.2718 13.5187 17.0633H11.6852V13.7841H13.5187V11.6631C13.5187 10.1441 14.2406 7.77044 17.4114 7.77044L20.2697 7.7814V10.9645C20.2697 10.9645 18.5328 10.9645 18.1951 10.9645C17.8574 10.9645 17.3773 11.1334 17.3773 11.8578V13.7848H20.3161L19.9791 17.0633Z" fill="#AEADAD"/>
</svg>
