<svg width="32" height="33" viewBox="0 0 32 33" fill="none" xmlns="http://www.w3.org/2000/svg">
<g clip-path="url(#clip0_627_15323)">
<path d="M16 0.5C7.16481 0.5 0 7.66481 0 16.5C0 25.3352 7.16481 32.5 16 32.5C24.8352 32.5 32 25.3352 32 16.5C32 7.66481 24.8352 0.5 16 0.5ZM24.0269 12.7421V14.9085C23.0053 14.9089 22.0128 14.7087 21.0766 14.3138C20.4747 14.0596 19.9139 13.7322 19.4009 13.3365L19.4163 20.0048C19.4099 21.5064 18.8158 22.9172 17.7406 23.9799C16.8656 24.8449 15.7569 25.3949 14.5551 25.573C14.2727 25.6148 13.9854 25.6362 13.6947 25.6362C12.4083 25.6362 11.187 25.2195 10.1879 24.4506C9.99994 24.3059 9.82012 24.1489 9.64894 23.9799C8.48369 22.8282 7.88281 21.2673 7.984 19.6252C8.06119 18.3753 8.56162 17.1833 9.39587 16.2489C10.4996 15.0126 12.0437 14.3263 13.6947 14.3263C13.9854 14.3263 14.2727 14.3481 14.5551 14.3899V15.1909V17.4192C14.2874 17.3309 14.0014 17.2823 13.7037 17.2823C12.1953 17.2823 10.975 18.5129 10.9976 20.0224C11.0119 20.9883 11.5394 21.8325 12.3176 22.2979C12.6832 22.5166 13.1039 22.6521 13.5529 22.6768C13.9046 22.6961 14.2424 22.6471 14.5551 22.5438C15.6328 22.1878 16.4102 21.1756 16.4102 19.9817L16.4138 15.5162V7.36375H19.3973C19.4002 7.65938 19.4302 7.94781 19.4859 8.22731C19.7111 9.35863 20.3488 10.3401 21.2363 11.0092C22.0102 11.5929 22.9738 11.9389 24.0182 11.9389C24.0189 11.9389 24.0276 11.9389 24.0268 11.9382V12.7421H24.0269Z" fill="#AEADAD"/>
</g>
<defs>
<clipPath id="clip0_627_15323">
<rect width="32" height="32" fill="white" transform="translate(0 0.5)"/>
</clipPath>
</defs>
</svg>
