<svg width="32" height="33" viewBox="0 0 32 33" fill="none" xmlns="http://www.w3.org/2000/svg">
<path fill-rule="evenodd" clip-rule="evenodd" d="M15.9094 1.00391C7.36402 1.00391 0.421875 7.94623 0.421875 16.4916C0.421875 25.0369 7.36404 31.9788 15.9094 31.9788C24.4547 31.9788 31.3969 25.0369 31.3969 16.4916C31.3969 7.94621 24.4547 1.00391 15.9094 1.00391ZM25.1807 21.4976C25.0748 21.7548 24.5757 22.1175 22.8213 22.3901C22.67 22.42 22.6247 22.6016 22.5339 22.9951C22.5057 23.1379 22.4704 23.2792 22.428 23.4185C22.3826 23.5544 22.307 23.6151 22.1709 23.6151H22.1558C22.0226 23.6119 21.8904 23.5916 21.7626 23.5544C21.4131 23.4907 21.059 23.4554 20.7038 23.4489C20.4505 23.447 20.1975 23.4671 19.9476 23.5091C19.4182 23.6001 18.9796 23.9175 18.4956 24.2503C17.815 24.7344 17.1042 25.2334 16.0001 25.2334H15.7581C14.654 25.2334 13.9432 24.7344 13.2626 24.2503C12.7937 23.9175 12.34 23.6001 11.8106 23.5091C11.5608 23.4671 11.3077 23.447 11.0544 23.4489C10.6984 23.455 10.3439 23.4955 9.99567 23.5698C9.86659 23.6013 9.73499 23.6215 9.60239 23.63C9.54073 23.6368 9.47876 23.6204 9.42847 23.5841C9.37818 23.5478 9.34315 23.4941 9.33018 23.4335C9.28479 23.2822 9.25456 23.131 9.22427 22.9951C9.14865 22.632 9.0882 22.42 8.93696 22.3901C7.18247 22.1175 6.68339 21.7548 6.57749 21.4976C6.56038 21.4594 6.55014 21.4185 6.54726 21.3767C6.54623 21.3293 6.56258 21.2831 6.59322 21.2469C6.62386 21.2107 6.66668 21.187 6.71362 21.1802C9.4058 20.7264 10.6158 17.9737 10.6611 17.8528H10.6763C10.8426 17.52 10.8729 17.2175 10.767 16.9906C10.5855 16.5518 9.98051 16.3553 9.58729 16.2344C9.49508 16.2086 9.40423 16.1782 9.31508 16.1433C8.51346 15.8259 8.45295 15.5085 8.48321 15.3418C8.54366 15.0547 8.90666 14.8578 9.22426 14.8578C9.2974 14.8567 9.36981 14.8724 9.43602 14.9035C9.79902 15.0697 10.1166 15.1603 10.3889 15.1603C10.7821 15.1603 10.9485 14.9941 10.9636 14.9791C10.9636 14.7975 10.9485 14.601 10.9334 14.404C10.8577 13.1338 10.7519 11.5457 11.1602 10.6383C12.3702 7.93082 14.9262 7.71933 15.6825 7.71933H16.0606C16.8168 7.71933 19.388 7.93082 20.5979 10.6383C21.0063 11.5458 20.9004 13.1338 20.8248 14.404V14.4647C20.8097 14.6309 20.7945 14.8125 20.7945 14.9791C20.8097 14.9941 20.961 15.1453 21.3088 15.1603C21.5811 15.1453 21.8835 15.0547 22.2163 14.9035C22.3071 14.8644 22.4048 14.8438 22.5036 14.8428C22.6138 14.8446 22.7221 14.8704 22.8212 14.9184H22.8364C23.0935 15.009 23.275 15.206 23.275 15.4025C23.2901 15.5841 23.1388 15.8712 22.4431 16.1433C22.3675 16.1737 22.2767 16.204 22.186 16.2344C21.7776 16.3553 21.1726 16.5518 20.9912 16.9906C20.8853 17.2175 20.9155 17.52 21.0819 17.8528H21.097C21.1424 17.9737 22.3524 20.7264 25.0445 21.1802C25.0915 21.187 25.1343 21.2107 25.1649 21.2469C25.1956 21.2831 25.2119 21.3293 25.2109 21.3767C25.208 21.4185 25.1978 21.4594 25.1807 21.4976Z" fill="#AEADAD"/>
</svg>
