<svg width="32" height="33" viewBox="0 0 32 33" fill="none" xmlns="http://www.w3.org/2000/svg">
<g clip-path="url(#clip0_627_15332)">
<path d="M19.0625 16.5C19.0625 18.1914 17.6914 19.5625 16 19.5625C14.3086 19.5625 12.9375 18.1914 12.9375 16.5C12.9375 14.8086 14.3086 13.4375 16 13.4375C17.6914 13.4375 19.0625 14.8086 19.0625 16.5Z" fill="#AEADAD"/>
<path d="M23.1631 11.0823C23.0159 10.6833 22.781 10.3223 22.4758 10.0259C22.1794 9.7207 21.8186 9.48584 21.4194 9.33862C21.0957 9.21289 20.6094 9.06323 19.7136 9.02246C18.7446 8.97827 18.4541 8.96875 16.001 8.96875C13.5476 8.96875 13.2571 8.97803 12.2883 9.02222C11.3926 9.06323 10.906 9.21289 10.5825 9.33862C10.1833 9.48584 9.82227 9.7207 9.52612 10.0259C9.22095 10.3223 8.98608 10.6831 8.83862 11.0823C8.71289 11.406 8.56323 11.8926 8.52246 12.7883C8.47827 13.7571 8.46875 14.0476 8.46875 16.501C8.46875 18.9541 8.47827 19.2446 8.52246 20.2136C8.56323 21.1094 8.71289 21.5957 8.83862 21.9194C8.98608 22.3186 9.2207 22.6794 9.52588 22.9758C9.82227 23.281 10.1831 23.5159 10.5823 23.6631C10.906 23.7891 11.3926 23.9387 12.2883 23.9795C13.2571 24.0237 13.5474 24.033 16.0007 24.033C18.4543 24.033 18.7449 24.0237 19.7134 23.9795C20.6091 23.9387 21.0957 23.7891 21.4194 23.6631C22.2207 23.354 22.854 22.7207 23.1631 21.9194C23.2888 21.5957 23.4385 21.1094 23.4795 20.2136C23.5237 19.2446 23.533 18.9541 23.533 16.501C23.533 14.0476 23.5237 13.7571 23.4795 12.7883C23.4387 11.8926 23.2891 11.406 23.1631 11.0823ZM16.001 21.2185C13.3953 21.2185 11.283 19.1064 11.283 16.5007C11.283 13.895 13.3953 11.783 16.001 11.783C18.6064 11.783 20.7188 13.895 20.7188 16.5007C20.7188 19.1064 18.6064 21.2185 16.001 21.2185ZM20.9053 12.699C20.2964 12.699 19.8027 12.2053 19.8027 11.5964C19.8027 10.9875 20.2964 10.4939 20.9053 10.4939C21.5142 10.4939 22.0078 10.9875 22.0078 11.5964C22.0076 12.2053 21.5142 12.699 20.9053 12.699Z" fill="#AEADAD"/>
<path d="M16 0.5C7.16479 0.5 0 7.66479 0 16.5C0 25.3352 7.16479 32.5 16 32.5C24.8352 32.5 32 25.3352 32 16.5C32 7.66479 24.8352 0.5 16 0.5ZM25.1321 20.2878C25.0876 21.2659 24.9321 21.9336 24.7051 22.5181C24.2278 23.7522 23.2522 24.7278 22.0181 25.2051C21.4338 25.4321 20.7659 25.5874 19.7881 25.6321C18.8083 25.6768 18.4954 25.6875 16.0002 25.6875C13.5049 25.6875 13.1921 25.6768 12.2122 25.6321C11.2344 25.5874 10.5664 25.4321 9.98218 25.2051C9.3689 24.9744 8.81372 24.6128 8.35474 24.1453C7.88745 23.6865 7.52588 23.1311 7.29517 22.5181C7.06812 21.9338 6.9126 21.2659 6.86816 20.2881C6.823 19.3081 6.8125 18.9951 6.8125 16.5C6.8125 14.0049 6.823 13.6919 6.86792 12.7122C6.91235 11.7341 7.06763 11.0664 7.29468 10.4819C7.52539 9.8689 7.88721 9.31348 8.35474 8.85474C8.81348 8.38721 9.3689 8.02563 9.98193 7.79492C10.5664 7.56787 11.2341 7.4126 12.2122 7.36792C13.1919 7.32324 13.5049 7.3125 16 7.3125C18.4951 7.3125 18.8081 7.32324 19.7878 7.36816C20.7659 7.4126 21.4336 7.56787 22.0181 7.79468C22.6311 8.02539 23.1865 8.38721 23.6455 8.85474C24.1128 9.31372 24.4746 9.8689 24.7051 10.4819C24.9324 11.0664 25.0876 11.7341 25.1323 12.7122C25.177 13.6919 25.1875 14.0049 25.1875 16.5C25.1875 18.9951 25.177 19.3081 25.1321 20.2878Z" fill="#AEADAD"/>
</g>
<defs>
<clipPath id="clip0_627_15332">
<rect width="32" height="32" fill="white" transform="translate(0 0.5)"/>
</clipPath>
</defs>
</svg>
