<svg width="20" height="21" viewBox="0 0 20 21" fill="none" xmlns="http://www.w3.org/2000/svg">
<path fill-rule="evenodd" clip-rule="evenodd" d="M9.99935 18.4987C6.07098 18.4987 4.10679 18.4987 2.8864 17.2783C1.66602 16.0579 1.66602 14.0937 1.66602 10.1654C1.66602 6.23699 1.66602 4.27281 2.8864 3.05242C4.10679 1.83203 6.07098 1.83203 9.99935 1.83203C13.9277 1.83203 15.8919 1.83203 17.1123 3.05242C18.3327 4.27281 18.3327 6.23699 18.3327 10.1654C18.3327 14.0937 18.3327 16.0579 17.1123 17.2783C15.8919 18.4987 13.9277 18.4987 9.99935 18.4987ZM12.0613 7.1812C12.3286 7.39948 12.3685 7.7932 12.1502 8.0606L7.38827 13.8939C7.26958 14.0393 7.09181 14.1237 6.90411 14.1237C6.71641 14.1237 6.53865 14.0393 6.41995 13.8939L4.51519 11.5606C4.2969 11.2932 4.33672 10.8995 4.60411 10.6812C4.87151 10.4629 5.26523 10.5027 5.48351 10.7701L6.90411 12.5104L11.1819 7.27013C11.4001 7.00273 11.7939 6.96292 12.0613 7.1812ZM15.3946 7.18121C15.662 7.39949 15.7018 7.79321 15.4835 8.06061L10.7215 13.8939C10.5954 14.0484 10.4032 14.1334 10.2041 14.1228C10.005 14.1122 9.82289 14.0073 9.71392 13.8403L9.47596 13.4757C9.2873 13.1867 9.36869 12.7994 9.65775 12.6107C9.82761 12.4999 10.0314 12.4823 10.2088 12.5452L14.5152 7.27012C14.7335 7.00273 15.1272 6.96292 15.3946 7.18121Z" fill="#6E360E"/>
</svg>
