<svg width="34" height="34" viewBox="0 0 34 34" fill="none" xmlns="http://www.w3.org/2000/svg">
<path fill-rule="evenodd" clip-rule="evenodd" d="M12.988 2.06686C12.5821 2.41275 12.3792 2.5857 12.1624 2.73097C11.6656 3.06398 11.1076 3.2951 10.5208 3.41094C10.2648 3.46148 9.99904 3.48269 9.46745 3.52511C8.13181 3.6317 7.46399 3.68499 6.90683 3.88179C5.61817 4.33696 4.60454 5.35059 4.14937 6.63925C3.95257 7.19641 3.89928 7.86423 3.79269 9.19987C3.75027 9.73146 3.72906 9.99726 3.67852 10.2532C3.56268 10.84 3.33156 11.398 2.99855 11.8948C2.85328 12.1116 2.68033 12.3145 2.33444 12.7204C1.46538 13.7402 1.03083 14.2501 0.77601 14.7833C0.186642 16.0163 0.186642 17.4498 0.77601 18.6829C1.03083 19.216 1.46536 19.7259 2.33444 20.7457C2.68029 21.1516 2.85329 21.3546 2.99855 21.5713C3.33156 22.0681 3.56268 22.6261 3.67852 23.2129C3.72906 23.4689 3.75027 23.7347 3.79269 24.2663C3.89928 25.6019 3.95257 26.2697 4.14937 26.8269C4.60454 28.1156 5.61817 29.1292 6.90683 29.5844C7.46399 29.7812 8.13181 29.8344 9.46745 29.941C9.99904 29.9835 10.2648 30.0047 10.5208 30.0552C11.1076 30.1711 11.6656 30.4022 12.1624 30.7352C12.3792 30.8804 12.5821 31.0534 12.988 31.3993C14.0078 32.2684 14.5177 32.7029 15.0508 32.9577C16.2839 33.5471 17.7174 33.5471 18.9505 32.9577C19.4836 32.7029 19.9935 32.2684 21.0133 31.3993C21.4192 31.0534 21.6221 30.8804 21.8389 30.7352C22.3357 30.4022 22.8937 30.1711 23.4805 30.0552C23.7365 30.0047 24.0023 29.9835 24.5339 29.941C25.8695 29.8344 26.5373 29.7812 27.0945 29.5844C28.3831 29.1292 29.3968 28.1156 29.8519 26.8269C30.0487 26.2697 30.102 25.6019 30.2086 24.2663C30.251 23.7347 30.2722 23.4689 30.3228 23.2129C30.4386 22.6261 30.6697 22.0681 31.0028 21.5713C31.148 21.3546 31.321 21.1516 31.6669 20.7457C32.5359 19.7259 32.9705 19.216 33.2253 18.6829C33.8147 17.4498 33.8147 16.0163 33.2253 14.7833C32.9705 14.2501 32.5359 13.7402 31.6669 12.7204C31.321 12.3145 31.148 12.1116 31.0028 11.8948C30.6697 11.398 30.4386 10.84 30.3228 10.2532C30.2722 9.99726 30.251 9.73146 30.2086 9.19987C30.102 7.86423 30.0487 7.19641 29.8519 6.63925C29.3968 5.35059 28.3831 4.33696 27.0945 3.88179C26.5373 3.68499 25.8695 3.6317 24.5339 3.52511C24.0023 3.48269 23.7365 3.46148 23.4805 3.41094C22.8937 3.2951 22.3357 3.06398 21.8389 2.73097C21.6221 2.5857 21.4192 2.41275 21.0133 2.06686C19.9935 1.19779 19.4836 0.763249 18.9505 0.508432C17.7174 -0.0809358 16.2839 -0.0809358 15.0508 0.508432C14.5177 0.763247 14.0078 1.19779 12.988 2.06686ZM24.2898 13.1716C24.8195 12.6419 24.8195 11.7831 24.2898 11.2533C23.7601 10.7236 22.9012 10.7236 22.3715 11.2533L14.2878 19.3371L11.6298 16.6791C11.1 16.1494 10.2412 16.1494 9.71146 16.6791C9.18174 17.2088 9.18174 18.0676 9.71146 18.5974L13.3286 22.2145C13.8583 22.7442 14.7172 22.7442 15.2469 22.2145L24.2898 13.1716Z" fill="#934710"/>
</svg>
