<svg width="40" height="41" viewBox="0 0 40 41" fill="none" xmlns="http://www.w3.org/2000/svg">
<path fill-rule="evenodd" clip-rule="evenodd" d="M20.0007 27.3997C26.444 27.3997 31.6673 22.1764 31.6673 15.7331C31.6673 9.28975 26.444 4.06641 20.0007 4.06641C13.5573 4.06641 8.33398 9.28975 8.33398 15.7331C8.33398 22.1764 13.5573 27.3997 20.0007 27.3997ZM20.0007 10.7331C19.5272 10.7331 19.2106 11.3011 18.5772 12.4373L18.4134 12.7312C18.2334 13.054 18.1434 13.2155 18.0031 13.322C17.8628 13.4285 17.6881 13.468 17.3386 13.5471L17.0204 13.6191C15.7906 13.8974 15.1757 14.0365 15.0294 14.5069C14.8831 14.9774 15.3023 15.4676 16.1407 16.448L16.3576 16.7017C16.5959 16.9803 16.715 17.1196 16.7686 17.2919C16.8222 17.4643 16.8042 17.6501 16.7681 18.0218L16.7353 18.3603C16.6086 19.6684 16.5452 20.3224 16.9282 20.6132C17.3112 20.9039 17.887 20.6388 19.0385 20.1087L19.3364 19.9715C19.6636 19.8208 19.8272 19.7455 20.0007 19.7455C20.1741 19.7455 20.3377 19.8208 20.6649 19.9715L20.9628 20.1087C22.1143 20.6388 22.6901 20.9039 23.0731 20.6132C23.4561 20.3224 23.3927 19.6684 23.266 18.3603L23.2332 18.0218C23.1971 17.6501 23.1791 17.4643 23.2327 17.2919C23.2863 17.1196 23.4054 16.9803 23.6437 16.7017L23.8606 16.448C24.699 15.4676 25.1182 14.9774 24.9719 14.5069C24.8256 14.0365 24.2107 13.8973 22.9809 13.6191L22.6627 13.5471C22.3132 13.468 22.1385 13.4285 21.9982 13.322C21.8579 13.2155 21.7679 13.054 21.5879 12.7312L21.4241 12.4373C20.7907 11.3011 20.4741 10.7331 20.0007 10.7331Z" fill="#934710"/>
<path d="M7.49261 22.3906L4.98741 24.9845C4.08722 25.9166 3.63712 26.3826 3.48137 26.7773C3.12644 27.6766 3.43018 28.6742 4.20295 29.1473C4.54208 29.3549 5.15377 29.4196 6.37713 29.549C7.06782 29.6221 7.41323 29.6586 7.70249 29.7695C8.35008 30.0177 8.85384 30.5393 9.09357 31.2098C9.20066 31.5093 9.23593 31.8669 9.30649 32.5821C9.43145 33.8488 9.49394 34.4821 9.69444 34.8332C10.1514 35.6334 11.1148 35.9479 11.9834 35.5804C12.3646 35.4191 12.8147 34.9531 13.7149 34.021L17.8516 29.7378C13.3558 29.0536 9.5544 26.2562 7.49261 22.3906Z" fill="#934710"/>
<path d="M22.1497 29.7378L26.2864 34.021C27.1866 34.9531 27.6367 35.4191 28.0179 35.5804C28.8865 35.9479 29.85 35.6334 30.3069 34.8332C30.5074 34.4821 30.5699 33.8488 30.6948 32.5821C30.7654 31.8669 30.8007 31.5093 30.9077 31.2098C31.1475 30.5393 31.6512 30.0177 32.2988 29.7695C32.5881 29.6586 32.9334 29.6221 33.6242 29.549C34.8475 29.4196 35.4592 29.3549 35.7984 29.1473C36.5711 28.6742 36.8749 27.6766 36.5199 26.7773C36.3642 26.3826 35.9141 25.9166 35.0139 24.9845L32.5087 22.3906C30.4469 26.2562 26.6455 29.0536 22.1497 29.7378Z" fill="#934710"/>
</svg>
