<svg width="40" height="41" viewBox="0 0 40 41" fill="none" xmlns="http://www.w3.org/2000/svg">
<path fill-rule="evenodd" clip-rule="evenodd" d="M3.33398 20.7331V14.0664C3.33398 9.35236 3.33398 6.99534 4.79845 5.53087C6.26292 4.06641 8.61994 4.06641 13.334 4.06641H26.6673C31.3814 4.06641 33.7384 4.06641 35.2029 5.53087C36.6673 6.99534 36.6673 9.35236 36.6673 14.0664V20.7331C36.6673 25.4471 36.6673 27.8041 35.2029 29.2686C34.409 30.0625 33.3528 30.426 31.801 30.5925C31.6777 30.426 31.5609 30.2948 31.4777 30.2032C31.2841 29.9903 31.0386 29.7484 30.8007 29.5138L28.3123 27.06L27.3934 26.1292C26.7895 22.5916 23.7098 19.8997 20.0008 19.8997C16.2917 19.8997 13.212 22.5916 12.6081 26.1292L11.6892 27.06L9.20098 29.5136C8.96296 29.7483 8.71746 29.9903 8.52385 30.2032C8.44056 30.2948 8.32381 30.426 8.20048 30.5925C6.6486 30.426 5.59237 30.0625 4.79845 29.2686C3.33398 27.8041 3.33398 25.4471 3.33398 20.7331ZM15.0007 9.48307C14.3103 9.48307 13.7507 10.0427 13.7507 10.7331C13.7507 11.4234 14.3103 11.9831 15.0007 11.9831H25.0007C25.691 11.9831 26.2507 11.4234 26.2507 10.7331C26.2507 10.0427 25.691 9.48307 25.0007 9.48307H15.0007ZM10.4173 16.5664C10.4173 15.8761 10.977 15.3164 11.6673 15.3164H28.334C29.0243 15.3164 29.584 15.8761 29.584 16.5664C29.584 17.2568 29.0243 17.8164 28.334 17.8164H11.6673C10.977 17.8164 10.4173 17.2568 10.4173 16.5664Z" fill="#934710"/>
<path d="M25.0007 27.3997C25.0007 30.1612 22.7621 32.3997 20.0007 32.3997C17.2392 32.3997 15.0007 30.1612 15.0007 27.3997C15.0007 24.6383 17.2392 22.3997 20.0007 22.3997C22.7621 22.3997 25.0007 24.6383 25.0007 27.3997Z" fill="#934710"/>
<path d="M15.0025 27.2621C15.0013 27.3078 15.0007 27.3537 15.0007 27.3997C15.0007 30.1612 17.2392 32.3997 20.0007 32.3997C22.7621 32.3997 25.0007 30.1612 25.0007 27.3997C25.0007 27.3537 25 27.3078 24.9988 27.2621C24.9259 24.5643 22.7161 22.3997 20.0007 22.3997C17.4118 22.3997 15.2825 24.3672 15.0265 26.8885C15.0139 27.0118 15.0059 27.1364 15.0025 27.2621Z" fill="#934710"/>
<path d="M12.7935 29.482L10.9927 31.2578C10.4526 31.7904 10.1825 32.0567 10.0891 32.2822C9.87613 32.7961 10.0584 33.3662 10.522 33.6365C10.7255 33.7551 11.0925 33.7921 11.8265 33.866C12.241 33.9078 12.4482 33.9287 12.6218 33.992C13.0103 34.1339 13.3126 34.4319 13.4564 34.8151C13.5207 34.9862 13.5418 35.1905 13.5842 35.5992C13.6591 36.323 13.6966 36.685 13.8169 36.8856C14.0911 37.3428 14.6692 37.5225 15.1903 37.3125C15.419 37.2204 15.6891 36.9541 16.2292 36.4215L18.0299 34.6381C15.5091 33.9534 13.5159 31.987 12.7935 29.482Z" fill="#934710"/>
<path d="M21.9714 34.6381L23.7721 36.4215C24.3122 36.9541 24.5823 37.2204 24.811 37.3125C25.3321 37.5225 25.9102 37.3428 26.1844 36.8856C26.3047 36.685 26.3422 36.323 26.4171 35.5992C26.4595 35.1905 26.4806 34.9862 26.5449 34.8151C26.6887 34.4319 26.991 34.1339 27.3795 33.992C27.5531 33.9287 27.7603 33.9078 28.1748 33.866C28.9088 33.7921 29.2758 33.7551 29.4793 33.6365C29.9429 33.3662 30.1252 32.7961 29.9122 32.2822C29.8188 32.0567 29.5487 31.7904 29.0086 31.2578L27.2078 29.482C26.4854 31.9871 24.4922 33.9534 21.9714 34.6381Z" fill="#934710"/>
</svg>
