<svg width="40" height="41" viewBox="0 0 40 41" fill="none" xmlns="http://www.w3.org/2000/svg">
<path d="M25.8327 13.2357C25.8327 16.4573 23.221 19.069 19.9993 19.069C16.7777 19.069 14.166 16.4573 14.166 13.2357C14.166 10.014 16.7777 7.40234 19.9993 7.40234C23.221 7.40234 25.8327 10.014 25.8327 13.2357Z" fill="#934710"/>
<path d="M30 28.2357C30 31.4573 25.5228 34.069 20 34.069C14.4772 34.069 10 31.4573 10 28.2357C10 25.014 14.4772 22.4023 20 22.4023C25.5228 22.4023 30 25.014 30 28.2357Z" fill="#934710"/>
<path d="M11.8707 9.06641C12.1665 9.06641 12.4552 9.09543 12.7341 9.15068C12.0548 10.3572 11.6673 11.7499 11.6673 13.2331C11.6673 14.6802 12.0362 16.0411 12.685 17.227C12.4214 17.2761 12.1492 17.3018 11.8707 17.3018C9.51337 17.3018 7.60236 15.4583 7.60236 13.1841C7.60236 10.91 9.51337 9.06641 11.8707 9.06641Z" fill="#934710"/>
<path d="M9.07955 32.3764C8.13302 31.2449 7.50065 29.8564 7.50065 28.2331C7.50065 26.6593 8.09494 25.3064 8.99362 24.1943C5.81915 24.4405 3.33398 26.1768 3.33398 28.282C3.33398 30.4071 5.86282 32.1561 9.07955 32.3764Z" fill="#934710"/>
<path d="M28.3324 13.2331C28.3324 14.6802 27.9635 16.0411 27.3147 17.227C27.5783 17.2761 27.8505 17.3018 28.129 17.3018C30.4863 17.3018 32.3973 15.4583 32.3973 13.1841C32.3973 10.91 30.4863 9.06641 28.129 9.06641C27.8332 9.06641 27.5444 9.09543 27.2656 9.15068C27.9449 10.3572 28.3324 11.7499 28.3324 13.2331Z" fill="#934710"/>
<path d="M30.9202 32.3764C34.1369 32.1561 36.6657 30.4071 36.6657 28.282C36.6657 26.1768 34.1806 24.4405 31.0061 24.1943C31.9048 25.3064 32.499 26.6593 32.499 28.2331C32.499 29.8564 31.8667 31.2449 30.9202 32.3764Z" fill="#934710"/>
</svg>
