<svg width="40" height="41" viewBox="0 0 40 41" fill="none" xmlns="http://www.w3.org/2000/svg">
<path fill-rule="evenodd" clip-rule="evenodd" d="M20.0873 2.81641H19.914C18.4165 2.81636 17.1678 2.81632 16.1765 2.9496C15.1302 3.09027 14.1855 3.39972 13.4264 4.15884C12.6673 4.91796 12.3578 5.86262 12.2172 6.90895C12.1216 7.61955 12.0946 9.31886 12.087 10.7758C8.71655 10.8859 6.69292 11.2794 5.28661 12.6857C3.33398 14.6383 3.33398 17.781 3.33398 24.0664C3.33398 30.3518 3.33398 33.4945 5.28661 35.4471C7.23922 37.3997 10.3819 37.3997 16.6673 37.3997H23.334C29.6194 37.3997 32.7621 37.3997 34.7147 35.4471C36.6673 33.4945 36.6673 30.3518 36.6673 24.0664C36.6673 17.781 36.6673 14.6383 34.7147 12.6857C33.3084 11.2794 31.2848 10.8859 27.9143 10.7758C27.9067 9.31886 27.8797 7.61955 27.7841 6.90895C27.6435 5.86262 27.334 4.91796 26.5749 4.15884C25.8158 3.39972 24.8711 3.09027 23.8248 2.9496C22.8335 2.81632 21.5848 2.81636 20.0873 2.81641ZM25.4139 10.7362C25.4063 9.32513 25.3823 7.80653 25.3064 7.24207C25.203 6.47296 25.0243 6.1438 24.8071 5.92661C24.5899 5.70941 24.2608 5.53071 23.4917 5.4273C22.6866 5.31907 21.6073 5.31641 20.0007 5.31641C18.394 5.31641 17.3147 5.31907 16.5096 5.4273C15.7405 5.53071 15.4114 5.70941 15.1942 5.92661C14.977 6.1438 14.7983 6.47296 14.6949 7.24207C14.619 7.80653 14.595 9.32513 14.5874 10.7362C15.2398 10.7331 15.9321 10.7331 16.6673 10.7331H23.334C24.0692 10.7331 24.7615 10.7331 25.4139 10.7362ZM20.0007 16.1497C20.691 16.1497 21.2507 16.7094 21.2507 17.3997V17.4168C23.0653 17.874 24.584 19.3047 24.584 21.2886C24.584 21.979 24.0243 22.5386 23.334 22.5386C22.6436 22.5386 22.084 21.979 22.084 21.2886C22.084 20.6486 21.3743 19.7609 20.0007 19.7609C18.627 19.7609 17.9173 20.6486 17.9173 21.2886C17.9173 21.9287 18.627 22.8164 20.0007 22.8164C22.3089 22.8164 24.584 24.416 24.584 26.8442C24.584 28.8281 23.0653 30.2588 21.2507 30.716V30.7331C21.2507 31.4234 20.691 31.9831 20.0007 31.9831C19.3103 31.9831 18.7507 31.4234 18.7507 30.7331V30.716C16.936 30.2588 15.4173 28.8281 15.4173 26.8442C15.4173 26.1538 15.977 25.5942 16.6673 25.5942C17.3577 25.5942 17.9173 26.1538 17.9173 26.8442C17.9173 27.4842 18.627 28.372 20.0007 28.372C21.3743 28.372 22.084 27.4842 22.084 26.8442C22.084 26.2041 21.3743 25.3164 20.0007 25.3164C17.6924 25.3164 15.4173 23.7168 15.4173 21.2886C15.4173 19.3047 16.936 17.874 18.7507 17.4168V17.3997C18.7507 16.7094 19.3103 16.1497 20.0007 16.1497Z" fill="#934710"/>
</svg>
