<svg width="80" height="81" viewBox="0 0 80 81" fill="none" xmlns="http://www.w3.org/2000/svg">
<path d="M37.1532 24.174C38.4198 21.9018 39.0531 20.7656 40 20.7656C40.9469 20.7656 41.5802 21.9017 42.8468 24.174L43.1745 24.7619C43.5345 25.4076 43.7144 25.7304 43.9951 25.9434C44.2757 26.1565 44.6251 26.2355 45.3241 26.3937L45.9605 26.5377C48.4201 27.0942 49.65 27.3724 49.9426 28.3134C50.2352 29.2543 49.3968 30.2347 47.7199 32.1955L47.2861 32.7028C46.8096 33.2601 46.5713 33.5387 46.4641 33.8833C46.357 34.228 46.393 34.5997 46.465 35.3432L46.5306 36.02C46.7841 38.6362 46.9109 39.9443 46.1449 40.5258C45.3788 41.1074 44.2273 40.5772 41.9243 39.5168L41.3285 39.2425C40.6741 38.9411 40.3469 38.7905 40 38.7905C39.6531 38.7905 39.3259 38.9411 38.6715 39.2425L38.0757 39.5168C35.7727 40.5772 34.6212 41.1074 33.8551 40.5258C33.0891 39.9443 33.2159 38.6362 33.4694 36.02L33.535 35.3432C33.607 34.5997 33.643 34.228 33.5359 33.8833C33.4287 33.5387 33.1904 33.2601 32.7139 32.7028L32.2801 32.1956C30.6032 30.2347 29.7648 29.2543 30.0574 28.3134C30.35 27.3724 31.5799 27.0942 34.0395 26.5377L34.6759 26.3937C35.3749 26.2355 35.7243 26.1565 36.0049 25.9434C36.2856 25.7304 36.4655 25.4076 36.8255 24.7619L37.1532 24.174Z" stroke="#FA6900" stroke-width="4"/>
<path d="M63.3327 30.7669C63.3327 43.6536 52.886 54.1003 39.9994 54.1003C27.1127 54.1003 16.666 43.6536 16.666 30.7669C16.666 17.8803 27.1127 7.43359 39.9994 7.43359C52.886 7.43359 63.3327 17.8803 63.3327 30.7669Z" stroke="#FA6900" stroke-width="4"/>
<path d="M39.9994 54.3251L27.4278 67.3417C25.6274 69.2058 24.7273 70.1379 23.9649 70.4604C22.2277 71.1954 20.3008 70.5664 19.3869 68.9662C18.9859 68.2639 18.861 66.9972 18.611 64.4638C18.4699 63.0335 18.3994 62.3183 18.1852 61.7193C17.7057 60.3782 16.6982 59.335 15.403 58.8386C14.8245 58.6168 14.1338 58.5438 12.7523 58.3977C10.3056 58.1389 9.08221 58.0095 8.40395 57.5943C6.85841 56.6481 6.25094 54.6529 6.96078 52.8542C7.27229 52.0649 8.17248 51.1328 9.97287 49.2687L18.1852 40.7656" stroke="#FA6900" stroke-width="4"/>
<path d="M40.0006 54.3251L52.5722 67.3417C54.3726 69.2058 55.2727 70.1379 56.0351 70.4604C57.7723 71.1954 59.6992 70.5664 60.6131 68.9662C61.0141 68.2639 61.139 66.9972 61.389 64.4638C61.5301 63.0335 61.6006 62.3183 61.8148 61.7193C62.2943 60.3782 63.3018 59.335 64.597 58.8386C65.1755 58.6168 65.8662 58.5438 67.2477 58.3977C69.6944 58.1389 70.9178 58.0095 71.596 57.5943C73.1416 56.6481 73.7491 54.6529 73.0392 52.8542C72.7277 52.0649 71.8275 51.1328 70.0271 49.2687L61.8148 40.7656" stroke="#FA6900" stroke-width="4"/>
</svg>
