<svg width="87" height="81" viewBox="0 0 87 81" fill="none" xmlns="http://www.w3.org/2000/svg">
<g clip-path="url(#clip0_838_3429)">
<path d="M26.7731 53.608L26.7731 53.608C26.4078 53.2721 25.9207 53.0898 25.4207 53.0898H16.6059C16.1059 53.0898 15.6188 53.2721 15.2535 53.608C14.8868 53.9452 14.6719 54.412 14.6719 54.9085C14.6719 55.405 14.8868 55.8718 15.2535 56.209L15.5919 55.841L15.2535 56.209C15.6188 56.5449 16.1059 56.7272 16.6059 56.7272H25.4207C25.9207 56.7272 26.4078 56.5449 26.7731 56.209L26.4347 55.841L26.7731 56.209C27.1398 55.8718 27.3547 55.405 27.3547 54.9085C27.3547 54.412 27.1398 53.9452 26.7731 53.608Z" fill="#FA6900" stroke="#FA6900"/>
<path d="M62.5393 53.608L62.5393 53.608C62.174 53.2721 61.6869 53.0898 61.1868 53.0898H41.9321C41.4321 53.0898 40.9449 53.2721 40.5796 53.608C40.2129 53.9452 39.998 54.412 39.998 54.9085C39.998 55.405 40.2129 55.8718 40.5796 56.209L40.9181 55.841L40.5796 56.209C40.9449 56.5449 41.4321 56.7272 41.9321 56.7272H61.1868C61.6869 56.7272 62.174 56.5449 62.5393 56.209L62.2069 55.8476L62.5393 56.209C62.906 55.8718 63.1209 55.405 63.1209 54.9085C63.1209 54.412 62.906 53.9452 62.5393 53.608Z" fill="#FA6900" stroke="#FA6900"/>
<path d="M82.6736 43.3773V43.3784V53.0938H77.6764C77.1763 53.0938 76.6892 53.2761 76.3239 53.612C75.9572 53.9492 75.7423 54.416 75.7423 54.9125C75.7423 55.409 75.9572 55.8758 76.3239 56.213C76.6892 56.5489 77.1763 56.7312 77.6764 56.7312H84.5747C84.8246 56.7352 85.0738 56.6937 85.308 56.6082C85.5438 56.5222 85.7612 56.3928 85.9464 56.2258C86.1318 56.0587 86.2816 55.8569 86.3847 55.631C86.4879 55.405 86.5418 55.1605 86.5417 54.9125V43.3784V43.3768C86.5378 42.1934 86.219 41.031 85.6161 39.9915C85.0136 38.9527 84.1467 38.0696 83.0944 37.416C83.094 37.4157 83.0936 37.4155 83.0932 37.4152L79.0695 34.8855L68.851 20.3671C68.8509 20.3669 68.8508 20.3667 68.8506 20.3665C68.1065 19.3001 67.0851 18.4279 65.8843 17.8268C64.6836 17.2258 63.34 16.914 61.9774 16.918H21.9868C21.4868 16.918 20.9996 17.1003 20.6343 17.4362C20.2676 17.7734 20.0527 18.2402 20.0527 18.7367C20.0527 19.2332 20.2676 19.7 20.6343 20.0372C20.9996 20.3731 21.4868 20.5554 21.9868 20.5554L61.9781 20.5554L61.9804 20.5554C62.7106 20.552 63.4279 20.7188 64.0652 21.038C64.7024 21.3572 65.2364 21.8172 65.621 22.3712L65.6229 22.374L76.0629 37.2047L76.0628 37.2048L76.0686 37.2127C76.2106 37.4063 76.3878 37.5725 76.5903 37.7048L76.5903 37.7049L76.5997 37.7108L80.9936 40.4424C80.9942 40.4427 80.9948 40.4431 80.9954 40.4435C81.5195 40.7766 81.9434 41.2189 82.2342 41.7296C82.525 42.2404 82.6749 42.8058 82.6736 43.3773Z" fill="#FA6900" stroke="#FA6900"/>
<path d="M28.0272 63.0374C29.7021 64.0666 31.6674 64.6137 33.6748 64.6137C36.3655 64.6137 38.9537 63.6312 40.8681 61.8708C42.7839 60.1092 43.869 57.7104 43.869 55.1994C43.869 53.3277 43.2652 51.5018 42.1398 49.953C41.0147 48.4048 39.4203 47.204 37.5626 46.4965C35.705 45.7889 33.6631 45.6044 31.6935 45.9646C29.7239 46.3249 27.9094 47.215 26.4814 48.528C25.053 49.8415 24.0749 51.5203 23.678 53.3546C23.2811 55.1895 23.4853 57.0908 24.2625 58.8161C25.0394 60.5408 26.3519 62.0081 28.0272 63.0374ZM30.1441 50.4064C31.1858 49.7663 32.4145 49.4226 33.6745 49.4225C35.3645 49.4248 36.977 50.0435 38.1603 51.1316C39.3424 52.2185 39.9986 53.6826 40.0009 55.2002C40.0008 56.3327 39.6357 57.4437 38.946 58.3928C38.2557 59.3428 37.27 60.0891 36.109 60.5313C34.9479 60.9736 33.6681 61.0898 32.433 60.8639C31.198 60.638 30.0688 60.0813 29.1864 59.2698C28.3044 58.4588 27.7091 57.4307 27.4685 56.3183C27.2279 55.2063 27.3509 54.0532 27.8241 53.0027C28.2976 51.9516 29.1026 51.0463 30.1441 50.4064Z" fill="#FA6900" stroke="#FA6900"/>
<path d="M69.4209 64.6137H69.4213C72.1112 64.6113 74.6977 63.628 76.6114 61.8683C78.5265 60.1072 79.6125 57.7101 79.6151 55.2V55.1994C79.6151 53.3277 79.0113 51.5018 77.8858 49.953C76.7608 48.4048 75.1664 47.204 73.3087 46.4965C71.4511 45.7889 69.4092 45.6044 67.4396 45.9646C65.47 46.3249 63.6555 47.215 62.2275 48.528C60.7991 49.8415 59.8209 51.5203 59.4241 53.3546C59.0272 55.1895 59.2314 57.0908 60.0086 58.8161C60.7855 60.5408 62.0979 62.0081 63.7732 63.0374C65.4482 64.0666 67.4135 64.6137 69.4209 64.6137ZM65.8902 50.4064C66.9318 49.7664 68.1604 49.4226 69.4202 49.4225C71.1096 49.427 72.7208 50.0465 73.9037 51.1342C75.0852 52.2206 75.7422 53.6834 75.747 55.2003C75.7468 56.3328 75.3818 57.4437 74.6921 58.3928C74.0018 59.3428 73.0161 60.0891 71.8551 60.5313C70.694 60.9736 69.4142 61.0898 68.1791 60.8639C66.9441 60.638 65.8149 60.0813 64.9325 59.2698C64.0505 58.4588 63.4552 57.4307 63.2146 56.3183C62.974 55.2063 63.097 54.0532 63.5702 53.0027C64.0437 51.9516 64.8487 51.0463 65.8902 50.4064Z" fill="#FA6900" stroke="#FA6900"/>
<path d="M77.6787 38.0147H54.4204C53.9204 38.0147 53.4332 37.8324 53.0679 37.4965C52.7012 37.1593 52.4863 36.6925 52.4863 36.196V18.7367C52.4863 18.2401 52.7012 17.7734 53.0679 17.4362C53.4332 17.1003 53.9204 16.918 54.4204 16.918H61.7432H61.7437V17.418L77.6787 38.0147ZM77.6787 38.0147C78.019 38.0176 78.356 37.9357 78.6541 37.7749C78.9533 37.6136 79.2047 37.3774 79.3768 37.0872C79.5493 36.7965 79.6343 36.4645 79.619 36.1275C79.6037 35.7914 79.4895 35.4689 79.2933 35.1945C79.2928 35.1939 79.2924 35.1932 79.2919 35.1926L68.989 20.551C68.989 20.551 68.9889 20.5509 68.9889 20.5509L77.6787 38.0147Z" fill="#FA6900" stroke="#FA6900"/>
<path d="M28.5527 27.0612L28.5527 27.0612C28.1874 26.7252 27.7003 26.543 27.2002 26.543H12.2095C11.7094 26.543 11.2223 26.7252 10.857 27.0612C10.4903 27.3984 10.2754 27.8651 10.2754 28.3617C10.2754 28.8582 10.4903 29.3249 10.857 29.6621L11.183 29.3076L10.857 29.6622C11.2223 29.9981 11.7094 30.1803 12.2095 30.1803H27.2002C27.7003 30.1803 28.1874 29.9981 28.5527 29.6622L28.2203 29.3007L28.5527 29.6621C28.9194 29.3249 29.1343 28.8582 29.1343 28.3617C29.1343 27.8651 28.9194 27.3984 28.5527 27.0612Z" fill="#FA6900" stroke="#FA6900"/>
<path d="M1.28472 39.2325L1.62315 38.8644L1.28472 39.2325C1.65002 39.5684 2.13715 39.7506 2.63719 39.7506H20.4483C20.9483 39.7506 21.4355 39.5684 21.8008 39.2325C22.1675 38.8953 22.3824 38.4285 22.3824 37.932C22.3824 37.4354 22.1675 36.9687 21.8008 36.6315C21.4355 36.2956 20.9483 36.1133 20.4483 36.1133H2.63719C2.13715 36.1133 1.65002 36.2956 1.28472 36.6315C0.918005 36.9687 0.703125 37.4354 0.703125 37.932C0.703125 38.4285 0.918005 38.8953 1.28472 39.2325Z" fill="#FA6900" stroke="#FA6900"/>
<path d="M20.1605 44.6237L20.1605 44.6237C19.7952 44.2877 19.308 44.1055 18.808 44.1055H8.10985C7.6098 44.1055 7.12268 44.2877 6.75737 44.6237C6.39066 44.9609 6.17578 45.4276 6.17578 45.9242C6.17578 46.4207 6.39066 46.8874 6.75737 47.2246L7.09581 46.8566L6.75737 47.2247C7.12268 47.5606 7.60981 47.7428 8.10985 47.7428H18.808C19.308 47.7428 19.7951 47.5606 20.1605 47.2247L19.822 46.8566L20.1605 47.2246C20.5272 46.8874 20.742 46.4207 20.742 45.9242C20.742 45.4276 20.5272 44.9609 20.1605 44.6237Z" fill="#FA6900" stroke="#FA6900"/>
</g>
<defs>
<clipPath id="clip0_838_3429">
<rect width="87" height="80" fill="white" transform="translate(0 0.765625)"/>
</clipPath>
</defs>
</svg>
