<svg width="80" height="81" viewBox="0 0 80 81" fill="none" xmlns="http://www.w3.org/2000/svg">
<path d="M10 35.4891C10 24.8305 10 19.5012 11.2584 17.7083C12.5168 15.9154 17.5277 14.2001 27.5497 10.7696L29.4591 10.116C34.6833 8.32772 37.2954 7.43359 40 7.43359C42.7046 7.43359 45.3167 8.32772 50.5409 10.116L52.4503 10.7696C62.4723 14.2001 67.4832 15.9154 68.7416 17.7083C70 19.5012 70 24.8305 70 35.4891C70 37.0991 70 38.845 70 40.7381C70 59.5317 55.8701 68.6519 47.0048 72.5245C44.6 73.575 43.3975 74.1003 40 74.1003C36.6025 74.1003 35.4 73.575 32.9952 72.5245C24.1299 68.6519 10 59.5317 10 40.7381C10 38.845 10 37.0991 10 35.4891Z" stroke="#FA6900" stroke-width="5"/>
<path d="M31.666 42.0977L36.4279 47.431L48.3327 34.0977" stroke="#FA6900" stroke-width="5" stroke-linecap="round" stroke-linejoin="round"/>
</svg>
