<svg width="80" height="81" viewBox="0 0 80 81" fill="none" xmlns="http://www.w3.org/2000/svg">
<g clip-path="url(#clip0_838_3450)">
<path d="M40 80.7656C29.3156 80.7656 19.2706 76.605 11.7156 69.05C4.16063 61.495 0 51.45 0 40.7656C0 30.0813 4.16078 20.0364 11.7156 12.4813C19.2705 4.92609 29.3156 0.765625 40 0.765625C50.6844 0.765625 60.7294 4.92625 68.2844 12.4813C75.8394 20.0363 80 30.0813 80 40.7656C80 51.45 75.8392 61.4948 68.2844 69.05C60.7295 76.6052 50.6844 80.7656 40 80.7656ZM40 5.76562C20.7009 5.76562 5 21.4666 5 40.7656C5 60.0647 20.7009 75.7656 40 75.7656C59.2991 75.7656 75 60.0647 75 40.7656C75 21.4666 59.2991 5.76562 40 5.76562Z" fill="#FA6900"/>
<path d="M40 38.2656C36.5538 38.2656 33.75 35.4619 33.75 32.0156C33.75 28.5694 36.5538 25.7656 40 25.7656C43.4462 25.7656 46.25 28.5694 46.25 32.0156C46.25 33.3962 47.3692 34.5156 48.75 34.5156C50.1308 34.5156 51.25 33.3962 51.25 32.0156C51.25 26.6717 47.5034 22.1894 42.5 21.0491V18.2656C42.5 16.885 41.3808 15.7656 40 15.7656C38.6192 15.7656 37.5 16.885 37.5 18.2656V21.0491C32.4966 22.1894 28.75 26.6717 28.75 32.0156C28.75 38.2189 33.7967 43.2656 40 43.2656C43.4462 43.2656 46.25 46.0694 46.25 49.5156C46.25 52.9619 43.4462 55.7656 40 55.7656C36.5538 55.7656 33.75 52.9619 33.75 49.5156C33.75 48.135 32.6308 47.0156 31.25 47.0156C29.8692 47.0156 28.75 48.135 28.75 49.5156C28.75 54.8595 32.4966 59.3419 37.5 60.4822V63.2656C37.5 64.6463 38.6192 65.7656 40 65.7656C41.3808 65.7656 42.5 64.6463 42.5 63.2656V60.4822C47.5034 59.3419 51.25 54.8595 51.25 49.5156C51.25 43.3123 46.2033 38.2656 40 38.2656Z" fill="#FA6900"/>
</g>
<defs>
<clipPath id="clip0_838_3450">
<rect width="80" height="80" fill="white" transform="translate(0 0.765625)"/>
</clipPath>
</defs>
</svg>
