<svg width="25" height="25" viewBox="0 0 25 25" fill="none" xmlns="http://www.w3.org/2000/svg">
<path opacity="0.5" d="M13.3324 22.5679C16.4583 21.9413 20.5 19.6926 20.5 13.8778C20.5 8.5862 16.6267 5.06253 13.8415 3.44345C13.2235 3.08418 12.5 3.55666 12.5 4.27152V6.1C12.5 7.54186 11.8938 10.1737 10.2093 11.2684C9.34932 11.8273 8.42052 10.9908 8.316 9.97048L8.23017 9.13264C8.1304 8.15863 7.13841 7.56736 6.35996 8.1612C4.96147 9.22804 3.5 11.0962 3.5 13.8778C3.5 20.9889 8.78889 22.7667 11.4333 22.7667C11.5871 22.7667 11.7488 22.7621 11.9171 22.7524C12.363 22.6962 11.9171 22.8516 13.3324 22.5679Z" fill="#FB6D00"/>
<path d="M8.5 19.2113C8.5 21.8311 10.6113 22.6413 11.9171 22.7529C12.363 22.6967 11.9171 22.8521 13.3324 22.5684C14.371 22.2014 15.5 21.2593 15.5 19.2113C15.5 17.9136 14.6814 17.113 14.0401 16.7382C13.8439 16.6235 13.6161 16.7679 13.5985 16.9944C13.5429 17.7125 12.8534 18.2845 12.3836 17.7385C11.9685 17.256 11.7941 16.5511 11.7941 16.1002V15.511C11.7941 15.1558 11.4365 14.9204 11.131 15.1017C9.99507 15.7756 8.5 17.162 8.5 19.2113Z" fill="#FB6D00"/>
</svg>
