<svg width="21" height="21" viewBox="0 0 21 21" fill="none" xmlns="http://www.w3.org/2000/svg">
<path d="M16.6983 4.74766L11.3728 1.82781C11.2767 1.77681 11.1691 1.75142 11.0603 1.7541C10.9515 1.75677 10.8452 1.78742 10.7518 1.84309C10.6583 1.89875 10.5807 1.97756 10.5265 2.07192C10.4723 2.16627 10.4433 2.27299 10.4424 2.3818V3.28773C6.06891 3.29352 3.31281 6.28558 3.09375 8.83354L3.12135 9.67527C4.98462 7.57357 7.85854 6.68949 10.1853 6.79527L10.1853 7.98274C10.1862 8.08666 10.2127 8.18877 10.2624 8.28004C10.3121 8.37131 10.3835 8.44895 10.4703 8.50611C10.5571 8.56327 10.6566 8.59819 10.7601 8.6078C10.8636 8.6174 10.9679 8.6014 11.0637 8.56119L16.6249 6.17391C16.7603 6.11416 16.8766 6.01797 16.9606 5.89605C17.0446 5.77413 17.0931 5.63128 17.1008 5.4834C17.1084 5.33553 17.0748 5.18844 17.0037 5.05854C16.9327 4.92863 16.8269 4.82101 16.6983 4.74766Z" fill="#0F25EC"/>
<path d="M3.88003 9.8358C3.67659 10.0504 3.46689 10.2721 3.30469 10.4433C3.57732 11.2169 4.0197 11.9196 4.59938 12.5C4.64335 12.5414 4.69851 12.569 4.75804 12.5794C4.81756 12.5898 4.87881 12.5825 4.93421 12.5583C4.98961 12.5342 5.03671 12.4944 5.06967 12.4437C5.10263 12.3931 5.12001 12.3339 5.11964 12.2735C5.04926 10.9918 5.36667 9.14656 5.7012 8.41406C5.62543 8.45466 5.54862 8.49792 5.47078 8.54385C4.88295 8.89831 4.34752 9.33317 3.88003 9.8358Z" fill="#0F25EC"/>
<path d="M3.49726 16.2518L8.82277 19.1717C8.91888 19.2227 9.02651 19.2481 9.13529 19.2454C9.24406 19.2427 9.35032 19.2121 9.44381 19.1564C9.5373 19.1007 9.61487 19.0219 9.66906 18.9276C9.72325 18.8332 9.75222 18.7265 9.75318 18.6177V17.7118C14.1267 17.706 16.8828 14.7139 17.1018 12.166L17.0742 11.3242C15.211 13.4259 12.337 14.31 10.0103 14.2042L10.0103 13.0168C10.0094 12.9128 9.98288 12.8107 9.93318 12.7195C9.88347 12.6282 9.81207 12.5505 9.72527 12.4934C9.63847 12.4362 9.53894 12.4013 9.43546 12.3917C9.33197 12.3821 9.22772 12.3981 9.13188 12.4383L3.57071 14.8256C3.43523 14.8853 3.319 14.9815 3.23498 15.1035C3.15095 15.2254 3.10242 15.3682 3.09481 15.5161C3.08719 15.664 3.12079 15.8111 3.19184 15.941C3.2629 16.0709 3.36863 16.1785 3.49726 16.2518Z" fill="#0F25EC"/>
<path d="M16.3153 11.1642C16.5188 10.9496 16.7285 10.7279 16.8907 10.5568C16.618 9.78313 16.1756 9.08036 15.596 8.50002C15.552 8.45859 15.4968 8.43097 15.4373 8.4206C15.3778 8.41023 15.3165 8.41755 15.2611 8.44167C15.2057 8.46578 15.1586 8.50563 15.1257 8.55626C15.0927 8.6069 15.0753 8.66609 15.0757 8.72651C15.1461 10.0082 14.8287 11.8534 14.4941 12.5859C14.5699 12.5453 14.6467 12.5021 14.7246 12.4562C15.3124 12.1017 15.8478 11.6668 16.3153 11.1642Z" fill="#0F25EC"/>
</svg>
