<svg width="21" height="20" viewBox="0 0 21 20" fill="none" xmlns="http://www.w3.org/2000/svg">
<path fill-rule="evenodd" clip-rule="evenodd" d="M13.0129 16.3727C12.5523 16.5443 12.0464 16.551 11.5814 16.3916L12.9307 19.5704L14.1807 16.9613L16.9258 17.8745L15.1724 13.7436C14.9941 13.7862 14.8316 13.8788 14.7041 14.0105C14.5765 14.1422 14.4892 14.3075 14.4523 14.4871L14.3809 14.811C14.3063 15.1669 14.1412 15.4976 13.9016 15.7712C13.662 16.0447 13.3559 16.2519 13.0129 16.3727ZM5.02466 13.7436L3.27103 17.8745L6.01618 16.9613L7.26646 19.5704L8.61572 16.3916C8.32836 16.4882 8.02389 16.5233 7.72209 16.4946C7.42029 16.4659 7.1279 16.374 6.86392 16.2249C6.59993 16.0759 6.37024 15.873 6.18976 15.6294C6.00928 15.3858 5.88206 15.107 5.81634 14.811L5.74493 14.4871C5.70804 14.3075 5.62068 14.1422 5.4931 14.0105C5.36553 13.8788 5.203 13.7862 5.02466 13.7436ZM10.0985 3.82919C9.23885 3.82919 8.39852 4.0841 7.68375 4.56169C6.96899 5.03927 6.41189 5.71808 6.08292 6.51228C5.75394 7.30648 5.66785 8.18039 5.83555 9.02352C6.00324 9.86664 6.41718 10.6411 7.02502 11.249C7.63286 11.8568 8.40731 12.2708 9.25042 12.4385C10.0935 12.6063 10.9675 12.5202 11.7617 12.1913C12.5559 11.8623 13.2347 11.3053 13.7123 10.5905C14.1899 9.87579 14.4449 9.03547 14.4449 8.17583C14.445 7.60503 14.3326 7.03982 14.1141 6.51246C13.8957 5.9851 13.5756 5.50593 13.172 5.10231C12.7684 4.69868 12.2892 4.37851 11.7618 4.16006C11.2345 3.94162 10.6693 3.82919 10.0985 3.82919ZM12.6469 7.10443L10.0727 10.1074C10.0114 10.1864 9.93362 10.251 9.8447 10.2966C9.75579 10.3423 9.65794 10.3679 9.55806 10.3716C9.45818 10.3754 9.35869 10.3572 9.2666 10.3183C9.17451 10.2795 9.09206 10.2209 9.02505 10.1467L7.56072 8.51568C7.50075 8.44905 7.4545 8.37126 7.4246 8.28676C7.39469 8.20226 7.38173 8.11269 7.38644 8.02318C7.39115 7.93366 7.41345 7.84595 7.45206 7.76505C7.49067 7.68416 7.54483 7.61166 7.61146 7.55169C7.67809 7.49173 7.75587 7.44547 7.84038 7.41557C7.92488 7.38567 8.01445 7.3727 8.10396 7.37742C8.19347 7.38213 8.28118 7.40442 8.36208 7.44303C8.44298 7.48164 8.51548 7.53581 8.57544 7.60243L9.52122 8.65568L11.6109 6.21783C11.6691 6.1498 11.7401 6.0939 11.82 6.05333C11.8998 6.01276 11.9868 5.98832 12.0761 5.98138C12.1654 5.97445 12.2551 5.98517 12.3403 6.01292C12.4254 6.04068 12.5042 6.08493 12.5723 6.14316C12.6403 6.20138 12.6962 6.27243 12.7368 6.35226C12.7773 6.43208 12.8018 6.51911 12.8087 6.60839C12.8156 6.69766 12.8049 6.78742 12.7772 6.87255C12.7494 6.95769 12.7051 7.03652 12.6469 7.10454V7.10443ZM17.9134 6.98724C17.8711 6.7256 17.7616 6.47942 17.5956 6.27282C17.4296 6.06622 17.2128 5.90627 16.9664 5.80865L16.6599 5.68212C16.3381 5.55243 16.069 5.31871 15.8955 5.01823C15.722 4.71775 15.6542 4.36784 15.7028 4.02431L15.7465 3.69544C15.7813 3.43347 15.7494 3.16696 15.6538 2.92061C15.5581 2.67426 15.4018 2.45604 15.1994 2.28618C14.9969 2.11633 14.7548 2.00033 14.4956 1.94895C14.2364 1.89756 13.9684 1.91245 13.7165 1.99224L13.4001 2.09236C13.0702 2.19988 12.7138 2.19381 12.3878 2.07513C12.0617 1.95644 11.7849 1.73198 11.6013 1.43755L11.4235 1.15771C11.2818 0.934632 11.086 0.750946 10.8544 0.62368C10.6228 0.496414 10.3628 0.429688 10.0985 0.429688C9.83423 0.429688 9.57422 0.496414 9.3426 0.62368C9.11098 0.750946 8.91524 0.934632 8.77353 1.15771L8.59572 1.43755C8.41214 1.73199 8.13523 1.95646 7.80917 2.07513C7.48311 2.1938 7.1267 2.19984 6.79681 2.09228L6.4806 1.99224C6.22865 1.91246 5.96064 1.89758 5.70142 1.94898C5.44219 2.00038 5.20013 2.11639 4.99769 2.28626C4.79524 2.45614 4.63896 2.67437 4.54333 2.92074C4.4477 3.16711 4.41582 3.43363 4.45064 3.6956L4.49435 4.02439C4.54299 4.36792 4.47517 4.71785 4.30171 5.01834C4.12824 5.31883 3.85913 5.55256 3.53732 5.68224L3.23072 5.8088C2.98643 5.90961 2.77154 6.07046 2.60598 6.27645C2.44042 6.48243 2.32955 6.72688 2.28363 6.98714C2.23772 7.24739 2.25826 7.51503 2.34335 7.76523C2.42843 8.01543 2.57531 8.2401 2.77036 8.41841L3.01521 8.64224C3.27329 8.87414 3.44625 9.1858 3.50651 9.52749C3.56676 9.86918 3.51083 10.2212 3.34763 10.5274L3.19415 10.8213C3.07183 11.0556 3.01062 11.317 3.01622 11.5812C3.02182 11.8454 3.09403 12.1039 3.22617 12.3328C3.35831 12.5617 3.54609 12.7535 3.77211 12.8905C3.99813 13.0274 4.25507 13.1051 4.51911 13.1163L4.85048 13.1304C5.19725 13.1421 5.53007 13.2697 5.79587 13.4927C6.06166 13.7158 6.2451 14.0214 6.31693 14.3608L6.38833 14.6847C6.44522 14.9428 6.56634 15.1824 6.74046 15.3812C6.91459 15.5799 7.13609 15.7316 7.38443 15.8219C7.63277 15.9123 7.8999 15.9385 8.16107 15.8982C8.42225 15.8578 8.669 15.7521 8.87845 15.591L9.14134 15.3887C9.41454 15.1748 9.75152 15.0586 10.0985 15.0586C10.4455 15.0586 10.7824 15.1748 11.0556 15.3887L11.3185 15.591C11.528 15.7521 11.7747 15.8578 12.0359 15.8981C12.2971 15.9385 12.5642 15.9123 12.8126 15.8219C13.0609 15.7315 13.2824 15.5799 13.4565 15.3811C13.6307 15.1823 13.7518 14.9428 13.8087 14.6847L13.8801 14.3608C13.9519 14.0214 14.1353 13.7157 14.4011 13.4927C14.667 13.2697 14.9998 13.1421 15.3466 13.1304L15.6778 13.1163C15.9419 13.1051 16.1988 13.0274 16.4248 12.8905C16.6509 12.7535 16.8387 12.5617 16.9708 12.3329C17.103 12.104 17.1752 11.8455 17.1808 11.5812C17.1864 11.317 17.1252 11.0556 17.0029 10.8214L16.8494 10.5274C16.6862 10.2212 16.6302 9.86914 16.6905 9.52744C16.7507 9.18574 16.9237 8.87407 17.1818 8.64216L17.4266 8.41833C17.6247 8.24237 17.7737 8.01796 17.8591 7.76709C17.9444 7.51622 17.9631 7.24752 17.9134 6.98724ZM10.0985 13.108C9.12295 13.108 8.16931 12.8187 7.35818 12.2767C6.54705 11.7348 5.91486 10.9644 5.54154 10.0631C5.16823 9.16185 5.07056 8.1701 5.2609 7.21331C5.45123 6.25651 5.92101 5.37765 6.61084 4.68785C7.30066 3.99805 8.17955 3.5283 9.13635 3.33801C10.0932 3.14771 11.0849 3.24542 11.9862 3.61877C12.8874 3.99212 13.6578 4.62434 14.1997 5.43549C14.7417 6.24665 15.0309 7.20029 15.0309 8.17583C15.0308 9.48394 14.5111 10.7384 13.5861 11.6634C12.6611 12.5883 11.4066 13.108 10.0985 13.108Z" fill="#0F25EC"/>
</svg>
