<svg width="21" height="21" viewBox="0 0 21 21" fill="none" xmlns="http://www.w3.org/2000/svg">
<g clip-path="url(#clip0_2501_16262)">
<path fill-rule="evenodd" clip-rule="evenodd" d="M13.704 18.459V11.0707L20.0977 7.37937V14.4848C20.0977 14.6642 20.008 14.8194 19.8527 14.9091L13.704 18.459ZM6.01297 14.787H0.854297C0.436445 14.787 0.0976562 14.4482 0.0976562 14.0303C0.0976562 13.6125 0.436445 13.2737 0.854297 13.2737H5.98605C6.8734 13.2737 6.8734 11.8566 5.98605 11.8566H2.90223C2.48438 11.8566 2.14555 11.5178 2.14555 11.0999C2.14555 10.6821 2.48438 10.3433 2.90223 10.3433H5.31418C6.20152 10.3433 6.20152 8.92617 5.31418 8.92617H0.854336C0.436484 8.92617 0.0976953 8.58738 0.0976953 8.16953C0.0976953 7.75168 0.436484 7.41289 0.854336 7.41289H6.03746L12.3732 11.0709V18.459L6.01297 14.787ZM6.6402 6.22805L13.0386 9.92215L19.437 6.22801L13.0509 2.54102H8.86086C8.44301 2.54102 8.10422 2.8798 8.10422 3.29766C8.10422 3.71551 8.44301 4.0543 8.86086 4.0543H9.74633C9.82766 4.0543 9.89582 4.1066 9.91687 4.18516C9.93789 4.26371 9.90504 4.34309 9.83461 4.38379L6.6402 6.22805ZM6.27598 2.54102C6.69383 2.54102 7.03262 2.8798 7.03262 3.29766C7.03262 3.71551 6.69383 4.0543 6.27598 4.0543H1.67688C1.25902 4.0543 0.920195 3.71551 0.920195 3.29766C0.920195 2.8798 1.25898 2.54102 1.67688 2.54102H6.27598Z" fill="#0F25EC"/>
</g>
<defs>
<clipPath id="clip0_2501_16262">
<rect width="20" height="20" fill="white" transform="translate(0.0976562 0.5)"/>
</clipPath>
</defs>
</svg>
