<svg width="31" height="30" viewBox="0 0 31 30" fill="none" xmlns="http://www.w3.org/2000/svg">
<path d="M20.3495 18.1846L19.7802 18.784C19.7802 18.784 18.427 20.2087 14.7332 16.3199C11.0394 12.431 12.3927 11.0063 12.3927 11.0063L12.7512 10.6289C13.6344 9.69905 13.7176 8.20621 12.9471 7.11638L11.3709 4.88702C10.4172 3.53812 8.57424 3.35994 7.48111 4.5108L5.51911 6.57642C4.97708 7.14707 4.61386 7.88681 4.65791 8.70742C4.77059 10.8068 5.66769 15.3238 10.6735 20.594C15.982 26.1828 20.9628 26.4049 22.9996 26.2039C23.6439 26.1403 24.2042 25.7928 24.6557 25.3175L26.4314 23.448C27.63 22.1861 27.2921 20.0227 25.7585 19.14L23.3703 17.7654C22.3634 17.1858 21.1365 17.3561 20.3495 18.1846Z" fill="#B2B9F1"/>
<path d="M17.4787 2.34979C17.5614 1.83868 18.0446 1.49196 18.5557 1.57471C18.5873 1.58076 18.6891 1.59979 18.7425 1.61167C18.8491 1.63542 18.9979 1.67199 19.1834 1.72602C19.5544 1.83408 20.0726 2.01208 20.6947 2.29725C21.94 2.8682 23.5973 3.86695 25.317 5.5867C27.0368 7.30645 28.0355 8.96372 28.6065 10.2091C28.8916 10.8311 29.0696 11.3493 29.1777 11.7203C29.2317 11.9058 29.2683 12.0546 29.2921 12.1613C29.3039 12.2146 29.3126 12.2574 29.3187 12.2891L29.3259 12.3281C29.4086 12.8392 29.065 13.3423 28.5539 13.4251C28.0443 13.5076 27.5642 13.1625 27.4794 12.6538C27.4768 12.6402 27.4696 12.6035 27.4619 12.5689C27.4465 12.4996 27.4198 12.3898 27.3775 12.2447C27.2929 11.9542 27.146 11.5226 26.9021 10.9905C26.4148 9.92759 25.5385 8.45986 23.9912 6.91253C22.4439 5.3652 20.9761 4.48896 19.9132 4.00167C19.3812 3.75772 18.9495 3.61081 18.6591 3.52622C18.5139 3.48393 18.3314 3.44204 18.2622 3.42662C17.7534 3.34184 17.3961 2.85944 17.4787 2.34979Z" fill="#B2B9F1"/>
<path fill-rule="evenodd" clip-rule="evenodd" d="M17.7615 6.66162C17.9037 6.16378 18.4226 5.8755 18.9204 6.01774L18.6629 6.91917C18.9204 6.01774 18.9204 6.01774 18.9204 6.01774L18.9222 6.01826L18.9242 6.01881L18.9283 6.02003L18.938 6.02292L18.9628 6.03063C18.9816 6.03665 19.0051 6.0445 19.0332 6.05446C19.0893 6.07438 19.1635 6.10272 19.2545 6.14172C19.4367 6.21976 19.6855 6.34029 19.9911 6.52118C20.603 6.88328 21.4382 7.48475 22.4194 8.46597C23.4006 9.44718 24.0021 10.2824 24.3642 10.8942C24.5451 11.1999 24.6656 11.4487 24.7437 11.6308C24.7827 11.7218 24.811 11.796 24.8309 11.8522C24.8409 11.8802 24.8487 11.9038 24.8547 11.9226L24.8624 11.9473L24.8653 11.957L24.8666 11.9612L24.8671 11.9631C24.8671 11.9631 24.8676 11.9649 23.9662 12.2225L24.8676 11.9649C25.0099 12.4628 24.7216 12.9817 24.2237 13.1239C23.7301 13.2649 23.2158 12.9827 23.0685 12.4927L23.0639 12.4792C23.0572 12.4604 23.0434 12.4234 23.0203 12.3694C22.974 12.2615 22.8901 12.085 22.7506 11.8492C22.4719 11.3783 21.9685 10.6667 21.0936 9.79179C20.2186 8.91685 19.5071 8.41347 19.0361 8.13476C18.8004 7.99524 18.6239 7.91137 18.5159 7.86512C18.4619 7.84197 18.425 7.82818 18.4062 7.82151L18.3927 7.8169C17.9026 7.66955 17.6204 7.15524 17.7615 6.66162Z" fill="#B2B9F1"/>
</svg>
