<svg width="29" height="28" viewBox="0 0 29 28" fill="none" xmlns="http://www.w3.org/2000/svg">
<path fill-rule="evenodd" clip-rule="evenodd" d="M14.9036 2.33398C9.74899 2.33398 5.57031 7.00366 5.57031 12.2507C5.57031 17.4565 8.54919 23.1151 13.1969 25.2875C14.2803 25.7939 15.5269 25.7939 16.6104 25.2875C21.2581 23.1151 24.237 17.4565 24.237 12.2507C24.237 7.00366 20.0583 2.33398 14.9036 2.33398ZM14.9036 14.0007C16.1923 14.0007 17.237 12.956 17.237 11.6673C17.237 10.3787 16.1923 9.33398 14.9036 9.33398C13.615 9.33398 12.5703 10.3787 12.5703 11.6673C12.5703 12.956 13.615 14.0007 14.9036 14.0007Z" fill="#B2B9F1"/>
</svg>
