<svg width="29" height="28" viewBox="0 0 29 28" fill="none" xmlns="http://www.w3.org/2000/svg">
<path fill-rule="evenodd" clip-rule="evenodd" d="M10.5302 8.18237C10.5302 8.17714 10.5301 8.17191 10.5301 8.16667V7C10.5301 4.58375 12.4889 2.625 14.9051 2.625C17.3214 2.625 19.2801 4.58375 19.2801 7V8.16667C19.2801 8.17191 19.2801 8.17714 19.28 8.18237C20.7936 8.22471 21.7155 8.38125 22.4214 8.95997C23.3891 9.75327 23.6584 11.1001 24.1972 13.7939L24.8972 17.2939C25.672 21.1677 26.0593 23.1046 25.0091 24.3856C23.9589 25.6667 21.9837 25.6667 18.0331 25.6667H11.777C7.82651 25.6667 5.85124 25.6667 4.80104 24.3856C3.75083 23.1046 4.13822 21.1677 4.91298 17.2939L5.61298 13.7939C6.15173 11.1001 6.4211 9.75327 7.38877 8.95997C8.09471 8.38124 9.01663 8.22471 10.5302 8.18237ZM12.2801 7C12.2801 5.55025 13.4554 4.375 14.9051 4.375C16.3549 4.375 17.5301 5.55025 17.5301 7V8.16667C17.5301 8.16666 17.5301 8.16667 17.5301 8.16667C17.4652 8.16666 17.3996 8.16667 17.3331 8.16667H12.477C12.4106 8.16667 12.345 8.16667 12.2801 8.16668C12.2801 8.16667 12.2801 8.16668 12.2801 8.16668V7ZM18.4051 12.8333C19.0494 12.8333 19.5718 12.311 19.5718 11.6667C19.5718 11.0223 19.0494 10.5 18.4051 10.5C17.7608 10.5 17.2384 11.0223 17.2384 11.6667C17.2384 12.311 17.7608 12.8333 18.4051 12.8333ZM12.5718 11.6667C12.5718 12.311 12.0494 12.8333 11.4051 12.8333C10.7608 12.8333 10.2384 12.311 10.2384 11.6667C10.2384 11.0223 10.7608 10.5 11.4051 10.5C12.0494 10.5 12.5718 11.0223 12.5718 11.6667Z" fill="#B2B9F1"/>
</svg>
