<svg width="49" height="48" viewBox="0 0 49 48" fill="none" xmlns="http://www.w3.org/2000/svg">
<path fill-rule="evenodd" clip-rule="evenodd" d="M7.56363 10.1648C6.80859 11.2406 6.80859 14.4381 6.80859 20.8333V23.9827C6.80859 35.2589 15.2865 40.731 20.6057 43.0545C22.0486 43.6848 22.7701 44 24.8086 44C26.8471 44 27.5686 43.6849 29.0115 43.0546C34.3307 40.731 42.8086 35.2589 42.8086 23.9827V20.8333C42.8086 14.4381 42.8086 11.2406 42.0536 10.1648C41.2985 9.08908 38.2919 8.05991 32.2788 6.00159L31.1332 5.60943C27.9986 4.53648 26.4314 4 24.8086 4C23.1858 4 21.6186 4.53648 18.484 5.60943L17.3384 6.00158C11.3252 8.05991 8.31866 9.08908 7.56363 10.1648ZM22.5311 16.7267L22.269 17.197C21.981 17.7135 21.837 17.9718 21.6125 18.1422C21.3881 18.3127 21.1085 18.3759 20.5493 18.5024L20.0402 18.6176C18.0725 19.0628 17.0886 19.2855 16.8545 20.0382C16.6205 20.7909 17.2912 21.5753 18.6327 23.1439L18.9797 23.5498C19.3609 23.9955 19.5515 24.2184 19.6373 24.4942C19.723 24.7699 19.6942 25.0673 19.6366 25.662L19.5841 26.2035C19.3813 28.2965 19.2799 29.343 19.8927 29.8082C20.5055 30.2734 21.4267 29.8492 23.2691 29.0009L23.7458 28.7815C24.2693 28.5404 24.5311 28.4199 24.8086 28.4199C25.0861 28.4199 25.3479 28.5404 25.8714 28.7815L26.3481 29.0009C28.1905 29.8492 29.1117 30.2734 29.7245 29.8082C30.3373 29.343 30.2359 28.2965 30.0331 26.2035L29.9806 25.662C29.923 25.0673 29.8942 24.7699 29.9799 24.4942C30.0657 24.2184 30.2563 23.9955 30.6375 23.5498L30.9845 23.1439C32.326 21.5753 32.9967 20.7909 32.7627 20.0382C32.5286 19.2855 31.5447 19.0628 29.577 18.6176L29.0679 18.5024C28.5087 18.3759 28.2291 18.3127 28.0046 18.1422C27.7802 17.9718 27.6362 17.7136 27.3482 17.197L27.0861 16.7267C26.0727 14.9089 25.5661 14 24.8086 14C24.0511 14 23.5444 14.9089 22.5311 16.7267Z" fill="#FA6900"/>
</svg>
