<svg width="49" height="48" viewBox="0 0 49 48" fill="none" xmlns="http://www.w3.org/2000/svg">
<path d="M10.7663 19.3702C6.79448 17.7815 4.80859 16.9871 4.80859 16C4.80859 15.0129 6.79448 14.2185 10.7663 12.6298L16.3832 10.3831C20.355 8.79435 22.3409 8 24.8086 8C27.2763 8 29.2622 8.79435 33.234 10.3831L38.8509 12.6298C42.8227 14.2185 44.8086 15.0129 44.8086 16C44.8086 16.9871 42.8227 17.7815 38.8509 19.3702L33.234 21.6169C29.2622 23.2056 27.2763 24 24.8086 24C22.3409 24 20.355 23.2056 16.3832 21.6169L10.7663 19.3702Z" fill="#1C274C"/>
<path fill-rule="evenodd" clip-rule="evenodd" d="M4.80859 16C4.80859 16.9871 6.79448 17.7815 10.7663 19.3702L16.3832 21.6169C20.355 23.2056 22.3409 24 24.8086 24C27.2763 24 29.2622 23.2056 33.234 21.6169L38.8509 19.3702C42.8227 17.7815 44.8086 16.9871 44.8086 16C44.8086 15.0129 42.8227 14.2185 38.8509 12.6298L33.234 10.3831C29.2622 8.79435 27.2763 8 24.8086 8C22.3409 8 20.355 8.79435 16.3832 10.3831L10.7663 12.6298C6.79448 14.2185 4.80859 15.0129 4.80859 16Z" fill="#FA6900"/>
<path opacity="0.7" d="M12.3408 20L10.7663 20.6298C6.79448 22.2185 4.80859 23.0129 4.80859 24C4.80859 24.9871 6.79448 25.7815 10.7663 27.3702L16.3832 29.6169C20.355 31.2056 22.3409 32 24.8086 32C27.2763 32 29.2622 31.2056 33.234 29.6169L38.8509 27.3702C42.8227 25.7815 44.8086 24.9871 44.8086 24C44.8086 23.0129 42.8227 22.2185 38.8509 20.6298L37.2763 20L33.234 21.6169C29.2622 23.2056 27.2763 24 24.8086 24C22.3409 24 20.355 23.2056 16.3832 21.6169L12.3408 20Z" fill="#FA6900"/>
<path opacity="0.4" d="M12.3408 28L10.7663 28.6298C6.79448 30.2185 4.80859 31.0129 4.80859 32C4.80859 32.9871 6.79448 33.7815 10.7663 35.3702L16.3832 37.6169C20.355 39.2056 22.3409 40 24.8086 40C27.2763 40 29.2622 39.2056 33.234 37.6169L38.8509 35.3702C42.8227 33.7815 44.8086 32.9871 44.8086 32C44.8086 31.0129 42.8227 30.2185 38.8509 28.6298L37.2763 28L33.234 29.6169C29.2622 31.2056 27.2763 32 24.8086 32C22.3409 32 20.355 31.2056 16.3832 29.6169L12.3408 28Z" fill="#FA6900"/>
</svg>
