<svg width="63" height="60" viewBox="0 0 63 60" fill="none" xmlns="http://www.w3.org/2000/svg">
<path d="M50.0402 50.4397L50.5174 51.0986C50.5493 51.2827 50.6122 51.4591 50.706 51.6277C50.789 51.7772 50.8213 51.9203 50.8031 52.057C50.7979 52.0943 50.7795 52.1285 50.7512 52.1535C50.7229 52.1786 50.6866 52.1928 50.6486 52.1937C50.2594 52.2037 49.8876 52.2078 49.533 52.206C49.2368 52.2042 48.993 52.0921 48.8016 51.8697C48.2456 51.2226 47.5443 50.7609 46.6976 50.4848C45.1623 49.9858 43.7295 50.5244 42.6755 51.6769C41.4355 53.0304 41.3261 54.928 42.3433 56.4305C42.5301 56.7066 42.763 56.9791 43.0419 57.248C43.1285 57.3319 43.2305 57.3788 43.3481 57.3888C43.7336 57.7096 44.1228 57.9215 44.5156 58.0245C45.5328 58.2907 46.4738 58.2164 47.3388 57.8017C48.057 57.4581 48.5997 56.9869 48.967 56.3881C48.9971 56.3398 49.0399 56.3115 49.0955 56.3033C49.6342 56.2304 50.1979 56.2336 50.7867 56.3129C50.806 56.3154 50.8244 56.3224 50.8405 56.3334C50.8566 56.3443 50.8699 56.3589 50.8794 56.3759C50.8888 56.3929 50.8941 56.4119 50.8949 56.4314C50.8956 56.4508 50.8918 56.4702 50.8838 56.4879L50.6541 56.9896C50.5921 57.0844 50.5894 57.1063 50.6459 57.0552C50.5702 57.2147 50.4303 57.4244 50.2262 57.6841C48.9429 59.3192 47.2677 60.0834 45.2006 59.9768C43.91 59.9112 42.7894 59.4473 41.8388 58.5851C41.3047 58.102 40.8362 57.5255 40.4334 56.8556C40.0396 56.1229 39.8464 55.2538 39.8537 54.2485C39.8647 52.6941 40.365 51.4308 41.4013 50.3385C42.5834 49.0944 44.0823 48.4933 45.8978 48.5353C46.1922 48.5416 46.4748 48.5813 46.7454 48.6542C47.1255 48.7581 47.511 48.8073 47.8706 48.9727C48.6736 49.3419 49.3968 49.8308 50.0402 50.4397Z" fill="#FA6900"/>
<path d="M61.7101 50.7563C62.1777 51.4809 62.4584 51.9735 62.5523 52.2342C62.9005 53.2012 62.9501 54.3601 62.7013 55.7108C62.663 55.9145 62.525 56.0526 62.4785 56.259C62.4457 56.4021 62.3964 56.5393 62.3308 56.6705C61.5124 58.3093 60.23 59.3633 58.4837 59.8327C58.1683 59.9175 57.7974 59.9681 57.3709 59.9845C56.8131 60.0063 56.4362 60.005 56.2402 59.9804C54.7254 59.7926 53.4248 59.0302 52.3384 57.6931C52.0231 57.4188 51.8207 57.16 51.7314 56.9166C51.6111 56.5849 51.509 56.2554 51.4252 55.9282C51.4006 55.8343 51.37 55.7427 51.3336 55.6534C51.2671 55.4911 51.2256 55.3207 51.2092 55.1421C51.093 53.924 51.2324 52.5978 51.8531 51.5656C52.4751 50.5321 53.6112 49.3769 54.7706 48.9654C56.6244 48.3091 58.3351 48.4003 59.9028 49.2388C60.518 49.5687 61.1204 50.0746 61.7101 50.7563ZM54.6762 57.4484C55.1103 57.7544 55.6015 57.9723 56.1213 58.0896C56.6817 58.2157 57.2635 58.2222 57.8275 58.1088C58.459 57.9803 59.0497 57.7046 59.5501 57.3049C60.1829 56.7984 60.6432 56.1144 60.8694 55.3444C61.0766 54.6402 61.0794 53.8935 60.8776 53.1884C60.7035 52.5794 60.3829 52.0205 59.943 51.5588C59.503 51.0972 58.9565 50.7465 58.3497 50.5362C57.6809 50.3043 56.961 50.251 56.2635 50.3817C55.5542 50.5145 54.8947 50.8329 54.3545 51.3034C53.8143 51.7738 53.4135 52.3788 53.1943 53.0545C52.9316 53.8647 52.9436 54.7372 53.2284 55.5413C53.4887 56.2776 53.9654 56.9217 54.5983 57.3924C54.6238 57.4115 54.6498 57.4302 54.6762 57.4484Z" fill="#FA6900"/>
<path d="M8.31515 50.46C8.30968 50.5447 8.34614 50.6632 8.42452 50.8154C8.57855 51.1162 8.67562 51.4612 8.71572 51.8503C8.75127 52.1967 8.7262 52.5526 8.64053 52.9181C8.29328 54.3937 7.33036 55.2705 5.75177 55.5484C4.76926 55.7207 3.8592 55.7754 3.0216 55.7125C2.94869 55.707 2.9136 55.7403 2.91634 55.8123C2.94824 56.7884 2.96145 57.9086 2.95598 59.1727C2.95325 59.5938 2.97786 59.9985 2.46245 59.9356C1.97757 59.8772 1.59842 59.8618 1.32499 59.8891C1.2776 59.8991 1.23203 59.854 1.18828 59.7537C1.11354 59.5851 1.07617 59.3883 1.07617 59.1631C1.08893 55.7025 1.09349 52.2523 1.08984 48.8126C1.08984 48.7874 1.09974 48.7633 1.11739 48.7454C1.13504 48.7275 1.15903 48.7172 1.18418 48.7169C2.39728 48.7068 3.57165 48.7064 4.70728 48.7155C5.39769 48.721 6.25898 48.8399 6.85642 49.1311C7.45522 49.4237 7.94147 49.8666 8.31515 50.46ZM3.5835 53.8655C3.76305 53.9329 3.96903 53.9452 4.20144 53.9024C4.56784 53.9544 4.97889 53.9348 5.4346 53.8436C6.24485 53.6805 6.71013 53.2307 6.83044 52.4943C6.90427 52.3876 6.93024 52.234 6.90837 52.0335C6.79718 51.3609 6.43078 50.8956 5.80919 50.6377C5.43369 50.4818 4.98846 50.4162 4.4735 50.4408C3.97769 50.4645 3.49236 50.4659 3.0175 50.4449C3.00213 50.4444 2.98681 50.4469 2.97241 50.4524C2.95802 50.4579 2.94485 50.4662 2.93366 50.4769C2.92246 50.4876 2.91348 50.5004 2.90722 50.5147C2.90096 50.5289 2.89755 50.5442 2.8972 50.5598C2.88079 51.5468 2.88352 52.5804 2.9054 53.6604C2.90722 53.7671 2.95689 53.8509 3.05442 53.912C3.18475 53.9931 3.36111 53.9776 3.5835 53.8655Z" fill="#FA6900"/>
<path d="M15.0831 49.4222C15.2599 49.6656 15.4554 49.8852 15.6696 50.0812C15.7626 50.166 15.8077 50.3364 15.805 50.5925C15.8041 50.6454 15.8168 50.6977 15.8419 50.7443C15.9585 50.9594 16.0465 51.1621 16.1057 51.3526C16.1495 51.4939 16.2247 51.6356 16.3313 51.7778C16.4361 51.9163 16.5063 52.0494 16.5419 52.177C16.6038 52.3958 16.6781 52.6154 16.7647 52.836C16.8048 52.9362 16.849 53.0301 16.8973 53.1176C16.9484 53.2078 16.9866 53.3035 17.0122 53.4047C17.0158 53.422 17.014 53.4229 17.0067 53.4074C16.8672 53.1244 16.7196 52.8606 16.6335 52.5557C16.5997 52.4336 16.5378 52.3233 16.4475 52.2249C16.4138 52.1884 16.3906 52.146 16.3778 52.0977C16.3158 51.8726 16.2069 51.6844 16.0511 51.5331L15.4044 50.0402C15.4017 50.0338 15.3976 50.032 15.3921 50.0347L15.3593 50.0498C15.3383 50.0589 15.3319 50.0739 15.3401 50.0949C15.5534 50.6691 15.892 51.4903 16.3559 52.5584C16.4553 52.7854 16.6786 53.3491 17.0258 54.2496C17.0823 54.3963 17.1575 54.5508 17.2514 54.7131C17.3416 54.8689 17.4159 55.0229 17.4742 55.1751C17.7932 56.0018 18.1501 56.7988 18.5447 57.5663C18.6222 57.7166 18.711 57.945 18.8113 58.2512C18.9644 58.7188 19.1586 59.0756 19.3937 59.4734C19.4111 59.5027 19.4223 59.5352 19.4268 59.5689C19.4313 59.6026 19.429 59.6369 19.4199 59.6697C19.4109 59.7026 19.3953 59.7332 19.3741 59.7598C19.3529 59.7865 19.3266 59.8086 19.2966 59.8248C19.2091 59.8722 19.0774 59.8963 18.9015 59.8972C18.5834 59.8991 18.2212 59.9004 17.8147 59.9013C17.6743 59.864 17.5595 59.791 17.4701 59.6826C17.3416 59.5267 17.2304 59.3308 17.1366 59.0947C16.7747 58.1824 16.4061 57.3133 16.0305 56.4876C16.0122 56.4476 15.9829 56.4138 15.9461 56.39C15.9093 56.3663 15.8665 56.3536 15.8227 56.3536C15.1077 56.3522 14.4242 56.3632 13.701 56.3126C13.0921 56.2698 12.4865 56.2661 11.884 56.3017C11.8422 56.3042 11.8019 56.3178 11.7673 56.3411C11.7327 56.3645 11.705 56.3966 11.6872 56.4343L11.4794 56.8827C11.0966 57.7294 10.737 58.5962 10.4007 59.483C10.1915 60.0339 9.68704 59.9519 9.12925 59.9341L8.45389 59.863C8.42914 59.8605 8.40534 59.8521 8.38438 59.8388C8.36341 59.8254 8.34586 59.8073 8.33312 59.7859C8.32037 59.7645 8.31279 59.7405 8.31097 59.7157C8.30916 59.6908 8.31315 59.6659 8.32264 59.6429C8.81663 58.4417 9.4282 57.0057 10.1573 55.3351C10.8564 53.7337 11.5887 52.0544 12.3543 50.2972C12.5922 49.7494 12.7827 49.2714 12.9258 48.8631C12.9372 48.8301 12.958 48.801 12.9856 48.7794C13.0133 48.7579 13.0466 48.7447 13.0816 48.7414C13.5724 48.6963 14.3203 48.6457 14.7208 48.8316C14.7618 48.8508 14.7928 48.8804 14.8138 48.9205L15.0831 49.4222ZM13.8049 54.6242L15.1036 54.6105C15.1131 54.6103 15.1225 54.6078 15.1308 54.6032C15.1391 54.5986 15.1462 54.5921 15.1514 54.5842C15.1567 54.5762 15.1599 54.5671 15.1609 54.5577C15.1618 54.5482 15.1605 54.5387 15.1569 54.5299L14.5089 52.9481C14.4506 52.7111 14.3677 52.4814 14.2601 52.259C14.1307 51.9902 14.0405 51.7591 13.9894 51.5659C13.9247 51.3198 13.8418 51.3139 13.7406 51.5481L12.5334 54.3713C12.4632 54.5344 12.517 54.6169 12.6947 54.6187L13.8049 54.6242Z" fill="#FA6900"/>
<path d="M22.4399 49.7282C23.1007 50.8337 23.792 51.9023 24.5139 52.9341C24.6287 53.0995 24.6984 53.2936 24.8324 53.444C25.1605 53.809 25.4258 54.278 25.6964 54.6895C25.9029 55.0026 26.2939 55.5002 26.5263 55.9623C26.571 56.0516 26.6352 56.1131 26.7191 56.1468C26.7856 56.1742 26.8179 56.1514 26.8161 56.0785L26.7792 54.7319C26.8047 53.383 26.7956 52.0322 26.7519 50.6797C26.7327 50.0727 26.8038 49.452 26.8284 48.8381C26.8294 48.8108 26.8407 48.7848 26.8599 48.7653C26.8791 48.7458 26.905 48.7342 26.9323 48.7329C27.4172 48.7083 27.888 48.7037 28.3446 48.7192C28.4284 48.7228 28.5055 48.7502 28.5756 48.8012C28.6449 48.8523 28.7092 48.9079 28.7684 48.968L28.7944 49.2893C28.7689 49.961 28.7447 50.6236 28.7219 51.2771C28.6371 53.7124 28.6335 55.9719 28.711 58.0554C28.7274 58.5106 28.659 58.9604 28.6795 59.4211C28.6923 59.721 28.5497 59.8819 28.2516 59.9037C27.7649 59.9393 27.1265 59.942 26.8148 59.4909C25.825 58.0627 24.8165 56.5543 23.7893 54.9656C23.6772 54.7925 23.5569 54.6216 23.4284 54.453C23.3017 54.288 23.1814 54.1212 23.0674 53.9526C22.5971 53.2513 22.0776 52.6155 21.6743 51.8718C21.6114 51.7552 21.5668 51.762 21.5404 51.8923C21.4952 52.1138 21.5486 52.379 21.5431 52.6237C21.4993 54.9629 21.5636 57.2638 21.554 59.5743C21.5531 59.834 21.421 59.9539 21.1576 59.9338C20.6763 59.8983 20.2019 59.9994 19.7426 59.8477C19.71 59.8373 19.6814 59.817 19.6611 59.7895C19.6407 59.762 19.6295 59.7288 19.6291 59.6946L19.5977 58.0116L19.6141 48.9024C19.614 48.8579 19.6312 48.8151 19.6621 48.7829C19.6929 48.7508 19.735 48.7319 19.7795 48.7301C20.1623 48.7137 20.5815 48.7042 21.0372 48.7014C21.3982 48.6987 21.6484 48.7124 21.9081 49.0077C22.1177 49.2446 22.295 49.4848 22.4399 49.7282Z" fill="#FA6900"/>
<path d="M35.7773 49.4732C35.7709 49.4896 35.7641 49.506 35.7568 49.5224C35.9536 50.1841 36.2015 50.8153 36.5005 51.4159C36.6399 51.6962 36.6851 52.0366 36.7944 52.269C37.1007 52.9143 37.3796 53.4981 37.6749 54.2254C37.8243 54.5936 37.9879 54.9645 38.1657 55.3382C38.3516 55.7292 38.5115 56.1002 38.6455 56.4511C38.7923 56.8348 38.9559 57.2162 39.1363 57.5954C39.2931 57.9226 39.4316 58.2493 39.5519 58.5756C39.6795 58.921 39.8194 59.2569 39.9716 59.5832C39.9878 59.6177 39.9948 59.6559 39.9919 59.694C39.989 59.732 39.9763 59.7686 39.9551 59.8002C39.9338 59.8318 39.9048 59.8572 39.8708 59.8741C39.8368 59.8909 39.799 59.8986 39.7611 59.8963L38.1041 59.8047L37.128 57.5626L36.7028 56.5563C36.6722 56.4839 36.6203 56.4224 36.554 56.3799C36.4876 56.3375 36.4098 56.316 36.331 56.3185C35.847 56.3321 35.3845 56.3239 34.9433 56.2939C34.1376 56.2392 33.3447 56.2355 32.5645 56.2829C32.4917 56.2874 32.4218 56.3125 32.3627 56.355C32.3037 56.3976 32.258 56.4561 32.2309 56.5235C31.8828 57.3903 31.5209 58.2839 31.1454 59.2045C31.0771 59.3713 30.9918 59.5267 30.8898 59.6707C30.784 59.8211 30.6368 59.9072 30.4482 59.9291C30.2404 59.9537 30.0112 59.945 29.7605 59.9031L28.8828 59.8211C28.9393 59.708 28.9439 59.6155 28.8965 59.5435C28.9721 59.4232 29.01 59.3376 29.01 59.2865C29.7418 57.7644 30.2149 56.7382 30.429 56.2077C30.7262 55.4713 31.093 54.6118 31.5296 53.6293C31.9999 52.5721 32.457 51.5102 32.9008 50.4439C33.1264 49.9011 33.4299 49.3707 33.6035 48.8047C33.6111 48.78 33.6263 48.7584 33.6469 48.7429C33.6675 48.7274 33.6926 48.7189 33.7184 48.7186L35.0746 48.709C35.1192 48.709 35.1593 48.7222 35.1949 48.7486C35.4455 48.9355 35.6396 49.177 35.7773 49.4732ZM33.8455 54.5822L35.6843 54.6369C35.6988 54.6373 35.7132 54.634 35.7262 54.6275C35.7391 54.6209 35.7502 54.6112 35.7585 54.5993C35.7668 54.5873 35.772 54.5735 35.7736 54.5591C35.7752 54.5446 35.7732 54.53 35.7677 54.5166L35.0281 52.712L34.5947 51.4679C34.5273 51.2737 34.4639 51.2746 34.4047 51.4706C34.3103 51.7768 34.1463 52.053 34.0246 52.3497C33.7284 53.0724 33.4244 53.8029 33.1127 54.5412C33.0909 54.5913 33.1077 54.6155 33.1633 54.6136L33.8455 54.5822Z" fill="#FA6900"/>
<path d="M53.0109 0.488531C52.9407 1.8028 52.9106 3.11799 52.9207 4.43408C52.922 4.58584 52.9808 4.72392 52.9794 4.8784C52.9703 6.55451 52.9448 8.24383 52.9029 9.94637C52.9022 9.96887 52.9074 9.99116 52.918 10.011C52.9286 10.0309 52.9443 10.0476 52.9634 10.0595C52.9825 10.0714 53.0044 10.0781 53.0269 10.0789C53.0494 10.0796 53.0717 10.0745 53.0915 10.0639L53.8257 9.68115L62.5426 5.14363C62.5673 5.13081 62.595 5.12447 62.6229 5.1252C62.6507 5.12594 62.6779 5.13372 62.7019 5.14782C62.7259 5.16192 62.7458 5.18186 62.7597 5.20577C62.7737 5.22968 62.7813 5.25675 62.7818 5.28444L62.7845 5.43483L62.7435 5.42662C62.7153 5.42115 62.6998 5.43255 62.697 5.4608C62.6711 5.7561 62.7722 6.03773 62.7804 6.33303C62.8251 7.91618 62.8324 9.53395 62.8023 11.1864C62.7982 11.3778 62.8625 11.5678 62.8324 11.7633C62.8105 11.9 62.8005 12.0354 62.8023 12.1693C62.878 17.4538 62.8903 22.7391 62.8392 28.0254L62.805 33.6826C62.4113 33.9724 61.9661 34.2367 61.4694 34.4755C60.7931 34.7991 60.4527 34.9622 60.4481 34.965C56.5044 36.9901 53.9756 38.2985 52.8619 38.89C51.266 39.7358 49.6746 40.567 48.0878 41.3836C46.5703 42.1643 44.9612 43.042 43.3589 43.839C42.8326 44.1015 42.3459 44.3968 41.8277 44.6689C41.7867 44.6898 41.7439 44.6958 41.6992 44.6866C41.5598 44.6566 41.4067 44.5991 41.2399 44.5144C38.4855 43.1026 36.1988 41.9168 34.3796 40.9571C33.6459 40.5707 32.9204 40.1915 32.2031 39.8196C32.009 39.6492 31.7775 39.6383 31.5086 39.7868C30.8952 40.125 30.0294 40.5811 28.911 41.1553C27.1657 42.0513 25.4968 42.9121 23.9046 43.7379C23.3368 44.0322 22.7817 44.333 22.2394 44.6402C22.2003 44.6624 22.1555 44.6724 22.1109 44.6689C21.9022 44.6552 21.7222 44.6078 21.5709 44.5267C20.9611 44.1968 20.3578 43.8787 19.7608 43.5724C17.8195 42.5753 15.9046 41.5796 14.0161 40.5852C12.4576 39.7636 10.8539 38.9761 9.31453 38.1162C9.09123 37.9913 8.85471 37.8733 8.60498 37.7621C8.0636 37.5229 7.56323 37.2153 7.04235 36.9459C5.17484 35.9807 3.30779 35.0151 1.4412 34.049C1.43664 34.0462 1.43345 34.0471 1.43163 34.0517C1.42525 34.0617 1.41932 34.0718 1.41385 34.0818C1.09668 33.9487 0.938546 33.7199 0.939457 33.3955C0.952217 24.0078 0.954951 14.6206 0.94766 5.23386C0.947662 5.18624 0.965157 5.14008 0.996877 5.10398C1.0224 5.07664 1.0543 5.07254 1.09258 5.09168C1.5893 5.34414 2.08466 5.59934 2.57865 5.85727C5.26917 7.26451 7.95332 8.64942 10.6311 10.012C10.6415 10.0174 10.653 10.02 10.6647 10.0196C10.6764 10.0192 10.6878 10.0159 10.6978 10.0098C10.7078 10.0038 10.7161 9.99531 10.7219 9.98516C10.7277 9.975 10.7308 9.96353 10.7309 9.95184L10.7322 0.066086C10.7322 0.0547917 10.735 0.0436682 10.7405 0.0337913C10.746 0.0239145 10.7539 0.0156193 10.7635 0.00970749C10.7731 0.00379571 10.7841 0.000467604 10.7954 4.57915e-05C10.8067 -0.00037602 10.8179 0.00212215 10.8279 0.0072991C11.3803 0.290296 11.9504 0.528178 12.4999 0.812542C13.9847 1.58087 15.4639 2.36059 16.9377 3.15171C17.058 3.21642 17.1719 3.27475 17.2795 3.3267C18.0286 3.69127 18.421 3.88358 18.4566 3.90364C18.8986 4.15245 19.3361 4.38304 19.769 4.59541C20.6987 5.05112 21.5946 5.49544 22.4568 5.92836C22.841 6.11976 23.195 6.39456 23.5915 6.53674C23.828 6.6215 23.9894 6.80606 24.2354 6.86348C24.2783 6.87351 24.3134 6.89538 24.3407 6.92911C24.3799 6.97559 24.4277 7.0043 24.4843 7.01524C24.5162 7.02162 24.5467 7.03255 24.5759 7.04805L31.6617 10.7544C31.7298 10.7899 31.8054 10.8087 31.8822 10.8092C31.959 10.8097 32.0348 10.7918 32.1033 10.7571C32.7987 10.4044 33.5042 10.0393 34.2196 9.66201C36.7224 8.34318 39.134 7.08268 41.4545 5.88051C42.622 5.27624 43.873 4.67743 45.0446 4.06496C47.5492 2.75706 50.0201 1.47241 52.4572 0.211002C52.5812 0.146291 52.7097 0.10072 52.8427 0.0742884C52.8874 0.0651742 52.9147 0.0824919 52.9248 0.12624L53.0109 0.488531ZM33.8601 35.4052L49.9813 27.026C50.0163 27.0079 50.0456 26.9804 50.0661 26.9464C50.0866 26.9124 50.0975 26.8733 50.0975 26.8332L50.0579 5.42662L50.1071 4.69931C50.1078 4.68869 50.1056 4.67808 50.1009 4.66856C50.0962 4.65904 50.089 4.65095 50.0801 4.64511C50.0712 4.63928 50.0609 4.6359 50.0503 4.63533C50.0396 4.63477 50.0291 4.63703 50.0196 4.64189C44.5137 7.49738 39.0105 10.3729 33.5101 13.2685C33.223 13.4189 33.3064 13.989 33.3488 14.2597C33.387 14.5049 33.4066 14.7464 33.4075 14.9843C33.4258 19.9005 33.4253 24.8226 33.4062 29.7507C33.3993 31.6524 33.3214 33.6484 33.3036 35.5993C33.3035 35.6118 33.3064 35.6241 33.3121 35.6352C33.3178 35.6464 33.3262 35.6559 33.3364 35.663C33.3466 35.6702 33.3585 35.6747 33.3709 35.6762C33.3833 35.6778 33.3959 35.6762 33.4075 35.6718C33.5698 35.6098 33.7206 35.5209 33.8601 35.4052ZM14.2731 27.3377L15.0141 27.6521C15.0515 27.6676 15.0838 27.6895 15.1112 27.7178C15.1713 27.777 15.247 27.7939 15.3381 27.7683C15.3536 27.7638 15.3614 27.7693 15.3614 27.7848C15.3614 27.7966 15.3586 27.808 15.3532 27.8189C15.3504 27.8253 15.3522 27.8303 15.3586 27.834C16.0896 28.2468 16.8251 28.6506 17.5652 29.0453C17.6404 29.0849 17.7101 29.0685 17.7867 29.1054C18.1777 29.2922 18.5618 29.5174 18.9392 29.7808C19.0349 29.8482 19.1447 29.8961 19.2686 29.9243C19.2759 29.9261 19.2828 29.9248 19.2891 29.9202C19.2983 29.9129 19.3069 29.9043 19.3151 29.8942C19.3242 29.8815 19.3356 29.8797 19.3493 29.8888C19.7777 30.175 20.1637 30.3946 20.5073 30.5477C21.0249 30.7792 21.5107 31.0317 21.9646 31.3051C22.125 31.4017 22.4527 31.5567 22.9476 31.77C23.1609 31.862 23.355 31.9727 23.53 32.1022C23.7177 32.2416 23.9105 32.3537 24.1083 32.4385C24.3289 32.5342 24.543 32.6376 24.7508 32.7488C25.1136 32.9439 25.4695 33.1266 25.8186 33.297C26.3098 33.5358 26.7856 33.7874 27.2459 34.0517C28.248 34.6259 29.261 35.0716 30.2877 35.6335C30.3022 35.6413 30.3184 35.6453 30.3348 35.6449C30.3512 35.6446 30.3672 35.64 30.3813 35.6316C30.3954 35.6232 30.407 35.6112 30.4151 35.5969C30.4231 35.5826 30.4273 35.5665 30.4272 35.5501V14.5003L30.4381 13.8386C30.4618 13.5597 30.3438 13.3528 30.084 13.2179C27.0946 11.6722 24.1179 10.1232 21.1539 8.57104C19.9034 7.91572 18.555 7.21484 17.1086 6.46838C15.9766 5.88416 14.8373 5.28307 13.6907 4.66513C13.681 4.65997 13.6701 4.6574 13.6591 4.65767C13.6481 4.65794 13.6373 4.66104 13.6278 4.66667C13.6183 4.6723 13.6105 4.68027 13.605 4.68982C13.5995 4.69936 13.5965 4.71016 13.5964 4.72118C13.6064 5.71281 13.6246 6.72586 13.6511 7.76032C13.6638 8.28622 13.6493 8.94289 13.6073 9.73036C13.5763 10.3064 13.5709 10.9635 13.5909 11.7018C13.6256 12.9395 13.6315 14.3075 13.6087 15.8059C13.6087 15.8296 13.6133 15.8519 13.6224 15.8729C13.637 15.9066 13.6447 15.9417 13.6456 15.9782C13.6565 16.9415 13.6606 17.9582 13.6579 19.0283C13.6561 19.391 13.6342 19.9224 13.5923 20.6223C13.5504 21.3278 13.549 21.86 13.5882 22.2191C13.652 22.8015 13.6812 23.3407 13.6757 23.8365C13.6666 24.6622 13.6479 25.5714 13.6196 26.5639C13.6114 26.8168 13.6921 27.0055 13.9122 27.1313C14.048 27.2087 14.1683 27.2775 14.2731 27.3377ZM3.87606 24.7784L3.86923 28.8443C3.82821 29.7903 3.81682 30.7364 3.83505 31.6825C3.83869 31.8392 3.87242 31.9636 3.93622 32.0557C4.02554 32.1824 4.13536 32.2639 4.2657 32.3004C4.90005 32.603 5.48199 32.896 6.01153 33.1795C6.17741 33.2688 6.34329 33.3467 6.50916 33.4133C6.6796 33.4816 6.84639 33.5623 7.00954 33.6552C7.19273 33.7605 7.38823 33.781 7.54955 33.93C7.65893 34.0312 7.77832 34.1169 7.90774 34.187C8.0481 34.2627 8.18892 34.3383 8.33019 34.414C8.39399 34.4486 8.54164 34.5051 8.77314 34.5835C8.95269 34.6437 9.109 34.7458 9.24207 34.8898C9.29675 34.9481 9.36192 34.9786 9.43757 34.9814C9.48132 34.9841 9.52187 34.9973 9.55924 35.021C9.63398 35.0693 9.71099 35.1176 9.79029 35.1659C9.87049 35.2151 9.95343 35.2543 10.0391 35.2835C10.2105 35.3418 10.37 35.4229 10.5176 35.5268C10.5546 35.553 10.5964 35.572 10.6406 35.5829C10.7227 35.6011 10.8011 35.6321 10.8758 35.6759C11.182 35.8563 11.4819 36.029 11.7754 36.194C12.047 36.3471 12.3555 36.5002 12.7009 36.6534C13.2013 36.8748 13.7067 37.1387 14.2171 37.4449C14.3775 37.5415 14.542 37.6213 14.7106 37.6842C14.8965 37.7544 15.0583 37.8542 15.1959 37.9836C15.2014 37.9891 15.2073 37.9913 15.2137 37.9904C15.2265 37.9904 15.2392 37.9904 15.252 37.9904C15.2821 37.9913 15.3099 37.9995 15.3354 38.015C15.8367 38.3085 16.1971 38.5031 16.4168 38.5988C16.7212 38.7319 17.0229 38.8813 17.3218 39.0472C17.8596 39.3471 18.1307 39.4984 18.1353 39.5011C18.6147 39.7435 19.08 39.986 19.5311 40.2284C19.9057 40.4289 20.289 40.6171 20.6809 40.793C21.0974 40.979 21.4743 41.1991 21.8115 41.4534C21.9209 41.5354 22.0252 41.5518 22.1246 41.5026C22.6924 41.2237 23.267 40.9279 23.8485 40.6153C24.9655 40.0124 26.2137 39.4081 27.3785 38.7683L28.438 38.2146C28.5519 38.1672 28.6207 38.1103 28.6444 38.0437C28.6609 37.9982 28.6463 37.9654 28.6007 37.9453C28.0466 37.7001 27.4888 37.4171 26.9273 37.0963C26.4825 36.842 25.6217 36.3982 24.3448 35.7647C22.573 34.8857 20.8039 33.9205 19.1046 33.0537C18.092 32.5378 17.1241 32.0315 16.2008 31.5348C14.6135 30.6803 12.9046 29.8546 11.3105 28.981C11.2732 28.96 11.2312 28.965 11.1848 28.996C11.2203 28.9751 11.2003 28.9619 11.1246 28.9564L10.8156 28.7199C10.7792 28.6907 10.7605 28.6529 10.7596 28.6064L10.7254 14.5919L10.7377 13.9165C10.8225 13.552 10.7354 13.3045 10.4766 13.1742C8.31561 12.0841 6.10951 10.9348 3.85829 9.72626C3.8479 9.72073 3.83624 9.71804 3.82448 9.71844C3.81272 9.71885 3.80128 9.72235 3.7913 9.72859C3.78132 9.73482 3.77316 9.74358 3.76764 9.75397C3.76212 9.76436 3.75944 9.77603 3.75986 9.78779C3.79084 11.3645 3.8355 12.9677 3.89384 14.5974C3.91206 15.1005 3.91662 15.5813 3.90751 16.0397C3.84872 18.9503 3.88016 21.8664 3.87606 24.7784ZM36.2184 37.3943L35.1042 37.9193C35.0849 37.9284 35.0686 37.9426 35.0569 37.9604C35.0453 37.9782 35.0388 37.9989 35.0383 38.0202C35.0377 38.0414 35.043 38.0624 35.0537 38.0808C35.0644 38.0993 35.08 38.1143 35.0987 38.1244L36.5219 38.8873C37.5755 39.4013 38.6186 39.9363 39.6512 40.4923C39.8117 40.5779 39.9707 40.6559 40.1284 40.7261C40.2888 40.7962 40.4519 40.8687 40.6178 40.9434C40.7846 41.0182 40.9464 41.1102 41.1031 41.2196C41.2599 41.329 41.4294 41.4247 41.6117 41.5067C41.6522 41.5248 41.6963 41.5327 41.7402 41.5299C41.7841 41.527 41.8263 41.5134 41.8633 41.4903C42.5332 41.0706 43.2714 40.7329 43.9523 40.3761C49.4199 37.516 54.5252 34.862 59.2683 32.4139C59.4938 32.2977 59.9136 32.1186 59.9149 31.8233C59.9441 25.4096 59.9432 18.9959 59.9122 12.5822C59.9085 11.7975 59.8944 11.0191 59.8698 10.2471C59.9254 10.0776 59.9464 9.91447 59.9327 9.75771C59.9318 9.74807 59.9285 9.73879 59.9232 9.73071C59.9179 9.72263 59.9106 9.716 59.9021 9.7114C59.8936 9.7068 59.884 9.70438 59.8743 9.70435C59.8647 9.70432 59.8551 9.70668 59.8466 9.71123L53.2037 13.1755C53.1242 13.217 53.0585 13.2805 53.0143 13.3584C52.9702 13.4363 52.9495 13.5252 52.9548 13.6144C53.0314 14.9068 53.077 16.2953 53.0915 17.7801C53.0915 17.7946 53.0874 17.8074 53.0792 17.8183C53.0692 17.832 53.0642 17.8475 53.0642 17.8648L53.056 24.7839C53.056 24.8049 53.0624 24.824 53.0751 24.8413C53.0861 24.8568 53.0915 24.8732 53.0915 24.8905C53.0988 25.9496 53.0888 27.0228 53.0615 28.1101C53.0505 28.5421 52.9507 28.7472 52.5461 28.9455C51.0203 29.6956 49.64 30.3905 48.405 31.0303C45.781 32.3893 43.0463 33.8125 40.2008 35.2999C39.5765 35.6271 38.9089 35.9689 38.198 36.3252C37.5263 36.6625 36.8664 37.0188 36.2184 37.3943Z" fill="#FA6900"/>
</svg>
