<svg width="154" height="154" viewBox="0 0 154 154" fill="none" xmlns="http://www.w3.org/2000/svg">
<path d="M122.096 129.1L123.283 130.78C123.362 131.25 123.519 131.699 123.752 132.129C123.958 132.51 124.039 132.875 123.993 133.224C123.981 133.319 123.935 133.406 123.864 133.47C123.794 133.534 123.704 133.57 123.609 133.573C122.642 133.598 121.717 133.609 120.835 133.604C120.099 133.599 119.492 133.313 119.016 132.746C117.634 131.096 115.89 129.919 113.784 129.215C109.967 127.942 106.404 129.316 103.783 132.255C100.699 135.706 100.427 140.545 102.957 144.376C103.421 145.08 104 145.775 104.694 146.461C104.909 146.675 105.163 146.795 105.455 146.82C106.414 147.638 107.382 148.179 108.359 148.441C110.888 149.12 113.228 148.93 115.379 147.873C117.165 146.997 118.514 145.795 119.428 144.268C119.503 144.145 119.609 144.073 119.747 144.052C121.087 143.866 122.489 143.874 123.953 144.076C124.001 144.083 124.046 144.101 124.087 144.129C124.127 144.157 124.16 144.194 124.183 144.237C124.207 144.281 124.22 144.329 124.222 144.379C124.224 144.428 124.214 144.478 124.194 144.523L123.623 145.802C123.469 146.044 123.462 146.1 123.602 145.969C123.414 146.376 123.066 146.911 122.559 147.573C119.368 151.743 115.202 153.691 110.062 153.419C106.853 153.252 104.066 152.069 101.702 149.871C100.374 148.639 99.2093 147.169 98.2075 145.46C97.2285 143.592 96.748 141.376 96.7661 138.812C96.7933 134.849 98.0376 131.627 100.614 128.842C103.554 125.669 107.281 124.137 111.796 124.244C112.528 124.26 113.23 124.361 113.903 124.547C114.849 124.812 115.807 124.937 116.701 125.359C118.698 126.3 120.496 127.547 122.096 129.1Z" fill="#FA6900"/>
<path d="M151.115 129.903C152.278 131.751 152.976 133.007 153.209 133.672C154.075 136.138 154.199 139.093 153.58 142.537C153.485 143.057 153.141 143.409 153.026 143.935C152.944 144.3 152.822 144.65 152.659 144.985C150.623 149.163 147.435 151.851 143.092 153.048C142.308 153.264 141.386 153.393 140.325 153.435C138.938 153.491 138.001 153.487 137.513 153.425C133.747 152.946 130.513 151.002 127.811 147.592C127.027 146.893 126.524 146.233 126.302 145.612C126.002 144.766 125.749 143.926 125.54 143.092C125.479 142.852 125.403 142.619 125.312 142.391C125.147 141.977 125.044 141.543 125.003 141.087C124.714 137.981 125.061 134.599 126.604 131.967C128.151 129.332 130.976 126.386 133.859 125.336C138.469 123.663 142.723 123.895 146.621 126.034C148.151 126.875 149.649 128.165 151.115 129.903ZM133.624 146.968C134.704 147.748 135.925 148.304 137.218 148.603C138.611 148.925 140.058 148.941 141.46 148.652C143.031 148.324 144.5 147.621 145.744 146.602C147.318 145.311 148.462 143.566 149.024 141.603C149.54 139.807 149.547 137.903 149.045 136.105C148.612 134.552 147.815 133.127 146.721 131.95C145.627 130.773 144.268 129.878 142.759 129.342C141.096 128.751 139.306 128.615 137.571 128.948C135.808 129.287 134.168 130.099 132.824 131.298C131.481 132.498 130.484 134.041 129.939 135.764C129.286 137.83 129.316 140.055 130.024 142.105C130.671 143.982 131.857 145.625 133.43 146.825C133.494 146.874 133.559 146.922 133.624 146.968Z" fill="#FA6900"/>
<path d="M18.3407 129.149C18.3271 129.365 18.4177 129.667 18.6126 130.055C18.9957 130.822 19.237 131.702 19.3368 132.694C19.4251 133.577 19.3628 134.485 19.1498 135.417C18.2863 139.18 15.8918 141.415 11.9664 142.124C9.52327 142.563 7.26028 142.703 5.17746 142.543C4.99615 142.529 4.9089 142.613 4.91569 142.797C4.99502 145.286 5.02788 148.143 5.01428 151.366C5.00748 152.44 5.06868 153.472 3.78703 153.311C2.58131 153.163 1.63849 153.123 0.958569 153.193C0.840717 153.218 0.727397 153.103 0.61861 152.848C0.432766 152.418 0.339844 151.916 0.339844 151.342C0.371573 142.517 0.382906 133.719 0.37384 124.948C0.373834 124.884 0.398439 124.822 0.442334 124.776C0.48623 124.731 0.545889 124.705 0.608412 124.704C3.62498 124.678 6.54523 124.677 9.36916 124.7C11.086 124.714 13.2277 125.017 14.7133 125.76C16.2023 126.506 17.4115 127.636 18.3407 129.149ZM6.57469 137.833C7.02117 138.005 7.53338 138.036 8.11131 137.927C9.0224 138.059 10.0445 138.009 11.1777 137.777C13.1926 137.361 14.3496 136.214 14.6487 134.336C14.8323 134.064 14.8969 133.672 14.8425 133.161C14.566 131.446 13.6549 130.26 12.1092 129.602C11.1755 129.204 10.0683 129.037 8.78783 129.1C7.55491 129.16 6.34805 129.164 5.16726 129.11C5.12904 129.109 5.09093 129.115 5.05514 129.129C5.01935 129.143 4.98659 129.165 4.95876 129.192C4.93093 129.219 4.90859 129.252 4.89303 129.288C4.87747 129.324 4.86899 129.363 4.8681 129.403C4.82731 131.92 4.8341 134.556 4.8885 137.31C4.89303 137.582 5.01655 137.796 5.25905 137.951C5.58315 138.158 6.02169 138.119 6.57469 137.833Z" fill="#FA6900"/>
<path d="M35.1692 126.5C35.6089 127.12 36.095 127.681 36.6276 128.18C36.8588 128.396 36.971 128.831 36.9642 129.484C36.9619 129.619 36.9935 129.752 37.056 129.871C37.3461 130.42 37.5648 130.937 37.7121 131.422C37.8209 131.783 38.0078 132.144 38.273 132.507C38.5336 132.86 38.7082 133.199 38.7965 133.525C38.9507 134.082 39.1354 134.643 39.3507 135.205C39.4504 135.461 39.5603 135.7 39.6804 135.923C39.8074 136.153 39.9025 136.397 39.966 136.655C39.9751 136.699 39.9705 136.702 39.9524 136.662C39.6056 135.941 39.2385 135.268 39.0243 134.49C38.9405 134.179 38.7863 133.898 38.562 133.647C38.4781 133.554 38.4203 133.446 38.3886 133.322C38.2345 132.748 37.9636 132.268 37.5761 131.883L35.9681 128.076C35.9613 128.059 35.9511 128.055 35.9375 128.062L35.8559 128.1C35.8038 128.123 35.7879 128.162 35.8083 128.215C36.3386 129.679 37.1806 131.773 38.3342 134.497C38.5812 135.076 39.1365 136.513 40 138.81C40.1405 139.184 40.3275 139.578 40.5609 139.992C40.7853 140.389 40.97 140.782 41.1151 141.17C41.9083 143.278 42.7956 145.31 43.7769 147.267C43.9696 147.651 44.1906 148.233 44.4399 149.014C44.8206 150.206 45.3034 151.116 45.8881 152.13C45.9313 152.205 45.9593 152.288 45.9705 152.374C45.9817 152.46 45.9758 152.547 45.9533 152.631C45.9308 152.715 45.892 152.793 45.8393 152.861C45.7866 152.929 45.7211 152.985 45.6467 153.026C45.4291 153.147 45.1017 153.209 44.6642 153.211C43.8733 153.216 42.9724 153.219 41.9616 153.222C41.6125 153.126 41.327 152.94 41.1049 152.664C40.7853 152.266 40.5088 151.767 40.2754 151.165C39.3756 148.838 38.4589 146.622 37.5251 144.517C37.4796 144.415 37.4067 144.328 37.3151 144.268C37.2235 144.207 37.117 144.175 37.0084 144.175C35.2304 144.171 33.5306 144.199 31.7322 144.07C30.2182 143.961 28.7122 143.952 27.2141 144.042C27.1102 144.049 27.01 144.084 26.9239 144.143C26.8377 144.203 26.7689 144.285 26.7246 144.381L26.2079 145.524C25.256 147.683 24.3619 149.893 23.5256 152.155C23.0054 153.56 21.751 153.351 20.364 153.305L18.6846 153.124C18.623 153.117 18.5638 153.096 18.5117 153.062C18.4596 153.028 18.4159 152.982 18.3842 152.927C18.3526 152.873 18.3337 152.811 18.3292 152.748C18.3247 152.685 18.3346 152.621 18.3582 152.563C19.5866 149.5 21.1073 145.838 22.9205 141.578C24.6588 137.494 26.4798 133.212 28.3836 128.731C28.9751 127.334 29.4488 126.115 29.8046 125.074C29.8331 124.99 29.8847 124.916 29.9535 124.861C30.0222 124.806 30.1051 124.772 30.1922 124.764C31.4126 124.649 33.2722 124.52 34.2683 124.994C34.3703 125.043 34.4473 125.118 34.4995 125.221L35.1692 126.5ZM31.9906 139.765L35.2202 139.73C35.2438 139.73 35.267 139.723 35.2877 139.711C35.3084 139.7 35.326 139.683 35.339 139.663C35.3521 139.643 35.3601 139.619 35.3625 139.595C35.3649 139.571 35.3616 139.547 35.3528 139.524L33.7414 135.491C33.5963 134.887 33.3901 134.301 33.1226 133.734C32.8008 133.048 32.5764 132.459 32.4495 131.966C32.2886 131.339 32.0824 131.324 31.8308 131.921L28.8289 139.12C28.6544 139.536 28.7882 139.746 29.2301 139.751L31.9906 139.765Z" fill="#FA6900"/>
<path d="M53.4662 127.283C55.1093 130.102 56.8284 132.827 58.6234 135.458C58.9089 135.88 59.0823 136.375 59.4155 136.758C60.2314 137.689 60.8909 138.885 61.564 139.934C62.0774 140.733 63.0496 142.002 63.6276 143.18C63.7386 143.408 63.8984 143.565 64.1069 143.651C64.2724 143.72 64.3528 143.662 64.3483 143.476L64.2565 140.042C64.3199 136.603 64.2973 133.158 64.1885 129.709C64.1409 128.161 64.3177 126.579 64.3789 125.013C64.3813 124.944 64.4093 124.877 64.4571 124.828C64.5049 124.778 64.5692 124.748 64.6372 124.745C65.843 124.682 67.0136 124.671 68.149 124.71C68.3575 124.719 68.549 124.789 68.7236 124.919C68.8958 125.049 69.0556 125.191 69.2029 125.345L69.2675 126.164C69.204 127.877 69.144 129.566 69.0873 131.233C68.8765 137.443 68.8675 143.204 69.0601 148.517C69.1009 149.678 68.9309 150.825 68.9819 152C69.0136 152.765 68.659 153.175 67.9178 153.231C66.7076 153.321 65.12 153.328 64.3449 152.178C61.8836 148.536 59.3758 144.689 56.8216 140.638C56.5428 140.197 56.2436 139.761 55.9241 139.331C55.6091 138.91 55.3099 138.485 55.0266 138.055C53.8571 136.267 52.5653 134.646 51.5624 132.749C51.406 132.452 51.295 132.469 51.2293 132.802C51.1171 133.366 51.2497 134.043 51.2361 134.667C51.1273 140.631 51.287 146.499 51.2633 152.39C51.261 153.053 50.9324 153.358 50.2774 153.307C49.0807 153.217 47.9011 153.475 46.7588 153.088C46.6777 153.061 46.6068 153.009 46.5561 152.939C46.5055 152.869 46.4776 152.784 46.4766 152.697L46.3984 148.406L46.4392 125.177C46.4391 125.064 46.4819 124.954 46.5586 124.873C46.6353 124.791 46.7399 124.742 46.8506 124.738C47.8025 124.696 48.845 124.672 49.9782 124.665C50.8757 124.658 51.4978 124.693 52.1437 125.446C52.665 126.05 53.1058 126.662 53.4662 127.283Z" fill="#FA6900"/>
<path d="M86.6285 126.628C86.6126 126.67 86.5957 126.712 86.5775 126.754C87.0671 128.441 87.6835 130.051 88.4269 131.582C88.7737 132.297 88.8858 133.165 89.1578 133.758C89.9193 135.403 90.6128 136.892 91.3471 138.746C91.7188 139.685 92.1257 140.631 92.5676 141.584C93.0299 142.581 93.4277 143.527 93.7609 144.422C94.1257 145.4 94.5326 146.373 94.9813 147.34C95.3711 148.174 95.7156 149.008 96.0148 149.84C96.3321 150.72 96.68 151.577 97.0585 152.409C97.0987 152.497 97.1161 152.594 97.1089 152.691C97.1016 152.788 97.0701 152.882 97.0173 152.962C96.9645 153.043 96.8922 153.108 96.8077 153.151C96.7231 153.194 96.6291 153.213 96.5349 153.207L92.4146 152.974L89.9873 147.256L88.93 144.69C88.8539 144.506 88.7249 144.349 88.5599 144.241C88.3948 144.132 88.2015 144.078 88.0053 144.084C86.8019 144.119 85.6517 144.098 84.5548 144.021C82.5513 143.882 80.5795 143.872 78.6395 143.993C78.4585 144.005 78.2845 144.069 78.1377 144.177C77.9908 144.286 77.8772 144.435 77.81 144.607C76.9442 146.817 76.0445 149.096 75.1107 151.443C74.9407 151.869 74.7288 152.265 74.475 152.632C74.2121 153.015 73.846 153.235 73.3769 153.291C72.8602 153.354 72.2902 153.332 71.6669 153.225L69.4844 153.015C69.6249 152.727 69.6362 152.491 69.5184 152.308C69.7065 152.001 69.8005 151.783 69.8005 151.652C71.6205 147.771 72.7967 145.154 73.3293 143.801C74.0682 141.924 74.9804 139.732 76.066 137.227C77.2354 134.531 78.372 131.823 79.4758 129.104C80.0367 127.72 80.7914 126.367 81.2232 124.924C81.2419 124.861 81.2797 124.806 81.331 124.766C81.3823 124.727 81.4446 124.705 81.5087 124.704L84.8811 124.68C84.9922 124.68 85.0919 124.713 85.1803 124.781C85.8035 125.257 86.2863 125.873 86.6285 126.628ZM81.8249 139.656L86.3973 139.796C86.4334 139.797 86.4692 139.789 86.5014 139.772C86.5336 139.755 86.5613 139.73 86.5819 139.7C86.6024 139.669 86.6153 139.634 86.6193 139.597C86.6233 139.561 86.6183 139.523 86.6047 139.489L84.7655 134.887L83.6879 131.715C83.5202 131.22 83.3626 131.222 83.2153 131.722C82.9807 132.503 82.5728 133.207 82.2702 133.963C81.5337 135.806 80.7778 137.669 80.0027 139.552C79.9483 139.68 79.9902 139.741 80.1285 139.737L81.8249 139.656Z" fill="#FA6900"/>
<path d="M129.484 1.71841C129.309 5.06981 129.234 8.42353 129.259 11.7796C129.263 12.1665 129.409 12.5186 129.405 12.9126C129.383 17.1867 129.319 21.4944 129.215 25.8359C129.213 25.8933 129.226 25.9501 129.253 26.0007C129.279 26.0514 129.318 26.094 129.365 26.1243C129.413 26.1547 129.467 26.1717 129.523 26.1737C129.579 26.1757 129.635 26.1626 129.684 26.1357L131.51 25.1596L153.186 13.5889C153.247 13.5562 153.316 13.5401 153.385 13.5419C153.455 13.5438 153.522 13.5636 153.582 13.5996C153.641 13.6355 153.691 13.6864 153.726 13.7474C153.76 13.8083 153.779 13.8774 153.781 13.948L153.787 14.3315L153.685 14.3105C153.615 14.2966 153.577 14.3257 153.57 14.3977C153.505 15.1507 153.757 15.8689 153.777 16.6219C153.888 20.6589 153.906 24.7842 153.832 28.9979C153.821 29.486 153.981 29.9705 153.906 30.4691C153.852 30.8177 153.827 31.1628 153.832 31.5045C154.02 44.9798 154.05 58.4574 153.923 71.9373L153.838 86.3632C152.859 87.1023 151.752 87.7763 150.517 88.3852C148.835 89.2103 147.989 89.6263 147.977 89.6333C138.171 94.7975 131.883 98.1338 129.113 99.6421C125.145 101.799 121.188 103.919 117.242 106.001C113.468 107.992 109.467 110.23 105.483 112.262C104.174 112.932 102.963 113.685 101.675 114.378C101.573 114.432 101.466 114.447 101.355 114.424C101.009 114.347 100.628 114.2 100.213 113.984C93.3641 110.384 87.6777 107.361 83.154 104.913C81.3296 103.928 79.5255 102.961 77.7419 102.013C77.2591 101.578 76.6834 101.55 76.0149 101.929C74.4896 102.791 72.3365 103.955 69.5556 105.419C65.2155 107.703 61.0657 109.899 57.1063 112.004C55.6944 112.755 54.3141 113.522 52.9656 114.305C52.8683 114.362 52.757 114.387 52.6461 114.378C52.1271 114.343 51.6795 114.223 51.3032 114.016C49.787 113.174 48.2867 112.363 46.8022 111.582C41.9748 109.04 37.2131 106.501 32.5171 103.965C28.6416 101.87 24.6538 99.8618 20.8259 97.6689C20.2706 97.3505 19.6825 97.0496 19.0615 96.766C17.7153 96.1559 16.471 95.3715 15.1758 94.6848C10.5319 92.2235 5.88924 89.7611 1.24766 87.2975C1.23633 87.2906 1.2284 87.2929 1.22386 87.3045C1.208 87.3301 1.19327 87.3556 1.17967 87.3812C0.390963 87.0419 -0.00225665 86.4585 9.74094e-06 85.6311C0.0317393 61.6926 0.0385389 37.7552 0.0204078 13.819C0.0204121 13.6976 0.0639167 13.5798 0.142793 13.4878C0.206252 13.4181 0.285575 13.4076 0.380764 13.4564C1.61595 14.1002 2.84773 14.751 4.07612 15.4087C10.7665 18.9972 17.441 22.5287 24.0997 26.0032C24.1255 26.017 24.1543 26.0237 24.1834 26.0227C24.2124 26.0217 24.2408 26.0131 24.2657 25.9978C24.2906 25.9824 24.3112 25.9607 24.3256 25.9348C24.34 25.9089 24.3477 25.8797 24.3479 25.8499L24.3513 0.641175C24.3511 0.612375 24.3581 0.58401 24.3718 0.558824C24.3854 0.533638 24.4051 0.512485 24.429 0.49741C24.453 0.482335 24.4803 0.473849 24.5084 0.472773C24.5364 0.471697 24.5643 0.478068 24.5893 0.491269C25.9627 1.21291 27.3803 1.81951 28.747 2.54464C32.4389 4.50388 36.1173 6.49217 39.782 8.50952C40.0812 8.67453 40.3645 8.82327 40.6319 8.95575C42.4949 9.8854 43.4706 10.3758 43.559 10.4269C44.6582 11.0614 45.746 11.6494 46.8226 12.1909C49.1343 13.353 51.3622 14.486 53.5062 15.59C54.4615 16.078 55.342 16.7788 56.3278 17.1413C56.916 17.3575 57.3171 17.8281 57.929 17.9745C58.0356 18.0001 58.1228 18.0559 58.1908 18.1419C58.2883 18.2604 58.4073 18.3336 58.5478 18.3615C58.6271 18.3778 58.703 18.4057 58.7755 18.4452L76.3956 27.8962C76.5649 27.9869 76.7528 28.0349 76.9438 28.0361C77.1348 28.0373 77.3233 27.9917 77.4937 27.9032C79.2229 27.0038 80.9771 26.073 82.7563 25.1108C88.9798 21.7478 94.9766 18.5335 100.747 15.468C103.65 13.9271 106.761 12.4001 109.674 10.8383C115.902 7.50317 122.046 4.22731 128.107 1.01071C128.415 0.845698 128.735 0.729492 129.065 0.662092C129.177 0.63885 129.245 0.683011 129.269 0.794569L129.484 1.71841ZM81.8622 90.7558L121.95 69.3889C122.037 69.3429 122.11 69.2726 122.161 69.186C122.212 69.0993 122.239 68.9995 122.239 68.8974L122.141 14.3105L122.263 12.4559C122.265 12.4288 122.259 12.4018 122.247 12.3775C122.236 12.3532 122.218 12.3326 122.196 12.3177C122.174 12.3028 122.148 12.2942 122.122 12.2928C122.095 12.2913 122.069 12.2971 122.045 12.3095C108.354 19.591 94.6696 26.9236 80.9919 34.3074C80.278 34.6908 80.4853 36.1446 80.5907 36.8349C80.6859 37.46 80.7346 38.0759 80.7369 38.6825C80.7822 51.2189 80.7811 63.7704 80.7335 76.3369C80.7165 81.1862 80.5227 86.2761 80.4785 91.2509C80.4781 91.2827 80.4854 91.3142 80.4996 91.3425C80.5138 91.3708 80.5345 91.3952 80.56 91.4134C80.5855 91.4316 80.6149 91.4432 80.6458 91.4471C80.6766 91.4509 80.7079 91.447 80.7369 91.4356C81.1403 91.2776 81.5154 91.051 81.8622 90.7558ZM33.1562 70.1838L34.9988 70.9856C35.0917 71.0251 35.1722 71.0809 35.2402 71.153C35.3898 71.304 35.5779 71.347 35.8045 71.2819C35.843 71.2703 35.8623 71.2843 35.8623 71.3238C35.8623 71.354 35.8555 71.383 35.8419 71.4109C35.8351 71.4272 35.8396 71.44 35.8555 71.4493C37.6731 72.5021 39.5021 73.5317 41.3424 74.538C41.5294 74.6391 41.7028 74.5973 41.8932 74.6914C42.8655 75.1679 43.8207 75.742 44.759 76.4136C44.997 76.5856 45.2701 76.7076 45.5783 76.7797C45.5965 76.7843 45.6135 76.7808 45.6293 76.7692C45.652 76.7506 45.6735 76.7285 45.6939 76.703C45.7166 76.6704 45.7449 76.6658 45.7789 76.689C46.8441 77.4188 47.8039 77.9789 48.6584 78.3694C49.9457 78.9597 51.1537 79.6035 52.2823 80.3007C52.6812 80.5471 53.496 80.9422 54.7266 81.486C55.257 81.7208 55.7397 82.0032 56.1749 82.3332C56.6417 82.6888 57.1211 82.9746 57.6129 83.1908C58.1614 83.4348 58.694 83.6986 59.2107 83.9821C60.1127 84.4795 60.9977 84.9455 61.8658 85.3801C63.0874 85.989 64.2704 86.6305 65.4149 87.3045C67.9068 88.7687 70.4259 89.9052 72.979 91.338C73.0149 91.358 73.0552 91.3681 73.0959 91.3673C73.1367 91.3664 73.1766 91.3547 73.2116 91.3332C73.2466 91.3117 73.2756 91.2813 73.2956 91.2448C73.3156 91.2084 73.326 91.1672 73.3258 91.1254V37.4484L73.353 35.7611C73.4119 35.0499 73.1184 34.5223 72.4725 34.1784C65.0387 30.2366 57.6367 26.2868 50.2664 22.3288C47.1569 20.6577 43.8037 18.8705 40.207 16.967C37.3921 15.4773 34.5591 13.9445 31.708 12.3687C31.6838 12.3556 31.6567 12.349 31.6293 12.3497C31.6019 12.3504 31.5751 12.3583 31.5516 12.3727C31.528 12.387 31.5085 12.4073 31.4948 12.4317C31.4811 12.456 31.4737 12.4836 31.4734 12.5117C31.4984 15.0403 31.5437 17.6236 31.6094 20.2615C31.6411 21.6025 31.6049 23.277 31.5006 25.2851C31.4236 26.7539 31.41 28.4296 31.4598 30.3122C31.5459 33.4684 31.5607 36.9569 31.504 40.7777C31.504 40.8382 31.5154 40.8951 31.538 40.9486C31.5743 41.0346 31.5935 41.124 31.5958 41.217C31.623 43.6736 31.6332 46.2662 31.6264 48.9947C31.6219 49.9197 31.5675 51.2747 31.4632 53.0596C31.359 54.8585 31.3556 56.2158 31.453 57.1315C31.6117 58.6166 31.6842 59.9913 31.6706 61.2556C31.6479 63.3613 31.6015 65.6796 31.5312 68.2106C31.5108 68.8556 31.7114 69.3366 32.2587 69.6574C32.5964 69.8549 32.8956 70.0304 33.1562 70.1838ZM7.30233 63.6576L7.28533 74.0256C7.18335 76.438 7.15502 78.8505 7.20034 81.2629C7.20941 81.6627 7.29327 81.9799 7.45191 82.2147C7.67402 82.5377 7.94712 82.7457 8.27122 82.8387C9.84863 83.6103 11.2957 84.3575 12.6125 85.0803C13.025 85.3081 13.4375 85.5068 13.8499 85.6764C14.2738 85.8508 14.6885 86.0564 15.0942 86.2935C15.5497 86.5619 16.0359 86.6142 16.437 86.9942C16.709 87.2522 17.0059 87.4707 17.3277 87.6496C17.6768 87.8425 18.0269 88.0354 18.3782 88.2283C18.5368 88.3167 18.904 88.4608 19.4797 88.6606C19.9261 88.814 20.3148 89.0743 20.6457 89.4415C20.7817 89.5903 20.9438 89.6681 21.1319 89.6751C21.2407 89.6821 21.3415 89.7158 21.4344 89.7762C21.6203 89.8994 21.8118 90.0226 22.009 90.1457C22.2084 90.2712 22.4146 90.3712 22.6277 90.4455C23.0538 90.5943 23.4504 90.8011 23.8175 91.0661C23.9096 91.1329 24.0134 91.1814 24.1235 91.209C24.3275 91.2555 24.5224 91.3345 24.7082 91.4461C25.4697 91.9063 26.2154 92.3467 26.9452 92.7674C27.6206 93.1578 28.3877 93.5483 29.2467 93.9387C30.4909 94.5035 31.7477 95.1763 33.0168 95.9572C33.4157 96.2036 33.8248 96.4069 34.2441 96.5673C34.7064 96.7463 35.1087 97.0008 35.4509 97.3308C35.4645 97.3447 35.4793 97.3505 35.4951 97.3482C35.5269 97.3482 35.5586 97.3482 35.5903 97.3482C35.6651 97.3505 35.7342 97.3715 35.7977 97.411C37.0442 98.1593 37.9406 98.6555 38.4868 98.8996C39.2438 99.2389 39.9939 99.6201 40.7373 100.043C42.0745 100.808 42.7487 101.193 42.7601 101.2C43.9522 101.819 45.1092 102.437 46.2311 103.055C47.1625 103.566 48.1156 104.046 49.0901 104.495C50.1258 104.969 51.063 105.53 51.9016 106.179C52.1735 106.388 52.433 106.43 52.6801 106.304C54.092 105.593 55.521 104.839 56.967 104.042C59.7444 102.504 62.8483 100.963 65.7447 99.3319L68.3794 97.92C68.6627 97.7991 68.8338 97.6538 68.8927 97.4842C68.9335 97.368 68.8973 97.2843 68.7839 97.2332C67.406 96.608 66.0189 95.8863 64.6228 95.0682C63.5168 94.4198 61.3762 93.288 58.201 91.6727C53.7951 89.4311 49.3961 86.9698 45.1704 84.7596C42.6524 83.4441 40.2455 82.1531 37.9496 80.8864C34.0027 78.7075 29.7532 76.6019 25.7893 74.3742C25.6964 74.3207 25.5921 74.3335 25.4765 74.4126C25.5649 74.3591 25.5151 74.3254 25.327 74.3114L24.5587 73.7083C24.468 73.634 24.4215 73.5375 24.4193 73.419L24.3343 37.682L24.3649 35.9598C24.5757 35.0302 24.3592 34.3992 23.7156 34.0668C18.3419 31.2872 12.8561 28.3564 7.25814 25.2746C7.23231 25.2605 7.20331 25.2536 7.17407 25.2547C7.14483 25.2557 7.11637 25.2646 7.09155 25.2805C7.06674 25.2965 7.04645 25.3188 7.03272 25.3453C7.019 25.3718 7.01232 25.4015 7.01337 25.4315C7.09042 29.4523 7.20148 33.5404 7.34653 37.6959C7.39185 38.9789 7.40319 40.2048 7.38052 41.3739C7.23434 48.796 7.31253 56.232 7.30233 63.6576ZM87.7265 95.8282L84.9558 97.1669C84.9079 97.19 84.8673 97.2263 84.8383 97.2717C84.8094 97.3171 84.7933 97.3699 84.7919 97.4241C84.7905 97.4783 84.8038 97.5319 84.8303 97.5788C84.8569 97.6257 84.8956 97.6642 84.9422 97.6899L88.4812 99.6352C91.1011 100.946 93.695 102.31 96.2628 103.728C96.6617 103.946 97.0572 104.145 97.4493 104.324C97.8482 104.503 98.2539 104.688 98.6663 104.878C99.0811 105.069 99.4834 105.304 99.8732 105.583C100.263 105.862 100.685 106.106 101.138 106.315C101.239 106.361 101.348 106.381 101.457 106.374C101.566 106.367 101.672 106.332 101.763 106.273C103.429 105.203 105.265 104.342 106.958 103.432C120.554 96.1385 133.249 89.3707 145.044 83.128C145.604 82.8317 146.648 82.375 146.652 81.622C146.724 65.2671 146.722 48.9122 146.645 32.5573C146.636 30.5562 146.601 28.5714 146.539 26.6029C146.678 26.1706 146.73 25.7546 146.696 25.3548C146.694 25.3302 146.685 25.3066 146.672 25.286C146.659 25.2654 146.641 25.2485 146.62 25.2367C146.598 25.225 146.575 25.2188 146.551 25.2187C146.527 25.2187 146.503 25.2247 146.482 25.2363L129.963 34.0703C129.765 34.1761 129.602 34.338 129.492 34.5366C129.382 34.7351 129.331 34.9618 129.344 35.1894C129.535 38.485 129.648 42.0258 129.684 45.8118C129.684 45.849 129.674 45.8815 129.654 45.9094C129.629 45.9443 129.616 45.9838 129.616 46.0279L129.596 63.6716C129.596 63.725 129.612 63.7738 129.643 63.818C129.671 63.8575 129.684 63.8993 129.684 63.9435C129.702 66.6441 129.677 69.3808 129.609 72.1535C129.582 73.2551 129.334 73.7781 128.328 74.2836C124.534 76.1963 121.101 77.9685 118.03 79.6C111.505 83.0653 104.705 86.6944 97.6295 90.4874C96.077 91.3217 94.4169 92.1933 92.6491 93.102C90.9787 93.962 89.3379 94.8707 87.7265 95.8282Z" fill="#FA6900"/>
</svg>
