<svg width="18" height="19" viewBox="0 0 18 19" fill="none" xmlns="http://www.w3.org/2000/svg">
<g clip-path="url(#clip0_2501_19106)">
<path d="M2.61133 9.30078C2.61133 6.47235 2.61133 5.05814 3.49001 4.17946C4.36869 3.30078 5.7829 3.30078 8.61133 3.30078H11.6113C14.4398 3.30078 15.854 3.30078 16.7326 4.17946C17.6113 5.05814 17.6113 6.47235 17.6113 9.30078C17.6113 12.1292 17.6113 13.5434 16.7326 14.4221C15.854 15.3008 14.4398 15.3008 11.6113 15.3008H8.61133C5.7829 15.3008 4.36869 15.3008 3.49001 14.4221C2.61133 13.5434 2.61133 12.1292 2.61133 9.30078Z" stroke="#64748B"/>
<path d="M5.61133 6.30078L7.2305 7.65009C8.60798 8.79799 9.29672 9.37194 10.1113 9.37194C10.9259 9.37194 11.6147 8.79799 12.9922 7.65009L14.6113 6.30078" stroke="#64748B" stroke-linecap="round"/>
</g>
<defs>
<clipPath id="clip0_2501_19106">
<rect width="18" height="18" fill="white" transform="translate(0 0.300781)"/>
</clipPath>
</defs>
</svg>
