<svg width="24" height="25" viewBox="0 0 24 25" fill="none" xmlns="http://www.w3.org/2000/svg">
<g clip-path="url(#clip0_2501_19125)">
<path d="M22.2283 0.300781H1.77167C1.30179 0.300781 0.851161 0.487439 0.518909 0.819691C0.186657 1.15194 0 1.60257 0 2.07245V22.5291C0 22.999 0.186657 23.4496 0.518909 23.7819C0.851161 24.1141 1.30179 24.3008 1.77167 24.3008H22.2283C22.6982 24.3008 23.1488 24.1141 23.4811 23.7819C23.8133 23.4496 24 22.999 24 22.5291V2.07245C24 1.60257 23.8133 1.15194 23.4811 0.819691C23.1488 0.487439 22.6982 0.300781 22.2283 0.300781ZM7.15333 20.7458H3.545V9.28411H7.15333V20.7458ZM5.34667 7.69578C4.93736 7.69348 4.53792 7.56998 4.19873 7.34087C3.85955 7.11176 3.59584 6.78731 3.44088 6.40847C3.28591 6.02963 3.24665 5.61337 3.32803 5.21224C3.40941 4.8111 3.6078 4.44306 3.89816 4.15456C4.18851 3.86607 4.55782 3.67005 4.95947 3.59124C5.36112 3.51244 5.77711 3.55437 6.15495 3.71177C6.53279 3.86916 6.85554 4.13495 7.08247 4.47559C7.30939 4.81624 7.43032 5.21647 7.43 5.62578C7.43386 5.89982 7.38251 6.17182 7.27901 6.42559C7.17551 6.67935 7.02198 6.90968 6.82757 7.10285C6.63316 7.29601 6.40185 7.44806 6.14742 7.54993C5.893 7.6518 5.62067 7.7014 5.34667 7.69578ZM20.4533 20.7558H16.8467V14.4941C16.8467 12.6474 16.0617 12.0774 15.0483 12.0774C13.9783 12.0774 12.9283 12.8841 12.9283 14.5408V20.7558H9.32V9.29245H12.79V10.8808H12.8367C13.185 10.1758 14.405 8.97078 16.2667 8.97078C18.28 8.97078 20.455 10.1658 20.455 13.6658L20.4533 20.7558Z" fill="#0A66C2"/>
</g>
<defs>
<clipPath id="clip0_2501_19125">
<rect width="24" height="24" fill="white" transform="translate(0 0.300781)"/>
</clipPath>
</defs>
</svg>
