<svg width="24" height="25" viewBox="0 0 24 25" fill="none" xmlns="http://www.w3.org/2000/svg">
<g clip-path="url(#clip0_2501_19129)">
<path d="M24 12.3008C24 5.67342 18.6274 0.300781 12 0.300781C5.37264 0.300781 0 5.67342 0 12.3008C0 17.9283 3.87456 22.6505 9.10128 23.9475V15.968H6.62688V12.3008H9.10128V10.7206C9.10128 6.6363 10.9498 4.74318 14.9597 4.74318C15.72 4.74318 17.0318 4.89246 17.5685 5.04126V8.36526C17.2853 8.3355 16.7933 8.32062 16.1822 8.32062C14.2147 8.32062 13.4544 9.06606 13.4544 11.0038V12.3008H17.3741L16.7006 15.968H13.4544V24.2129C19.3963 23.4953 24.0005 18.4361 24.0005 12.3008H24Z" fill="#0866FF"/>
<path d="M16.7007 15.967L17.3742 12.2998H13.4545V11.0028C13.4545 9.06507 14.2148 8.31963 16.1823 8.31963C16.7934 8.31963 17.2854 8.33451 17.5686 8.36427V5.04027C17.0319 4.89099 15.7201 4.74219 14.9598 4.74219C10.9498 4.74219 9.10135 6.63531 9.10135 10.7196V12.2998H6.62695V15.967H9.10135V23.9465C10.0297 24.1769 11.0007 24.2998 12.0001 24.2998C12.4921 24.2998 12.9774 24.2695 13.454 24.2119V15.967H16.7002H16.7007Z" fill="white"/>
</g>
<defs>
<clipPath id="clip0_2501_19129">
<rect width="24" height="24" fill="white" transform="translate(0 0.300781)"/>
</clipPath>
</defs>
</svg>
