<svg width="24" height="25" viewBox="0 0 24 25" fill="none" xmlns="http://www.w3.org/2000/svg">
<path d="M13.875 6.07227C13.6163 6.07227 13.4062 6.28227 13.4062 6.54102C13.4062 6.79977 13.6163 7.00977 13.875 7.00977C14.1337 7.00977 14.3438 6.79977 14.3438 6.54102C14.3438 6.28227 14.1337 6.07227 13.875 6.07227Z" fill="#666666"/>
<path d="M23.5312 3.25977H0.46875C0.209859 3.25977 0 3.46967 0 3.72852V6.54102C0 7.77022 0.951328 8.78066 2.15625 8.87661V11.2285C2.15625 14.8631 4.12908 18.0492 7.0777 19.7549C7.08136 19.757 7.08506 19.7591 7.08877 19.7612C7.08891 19.7613 7.08905 19.7614 7.08919 19.7614C8.57578 20.6189 10.2735 21.0723 12 21.0723C13.7867 21.0723 15.4921 20.5855 16.9223 19.7549L16.9222 19.7549C18.3915 18.905 19.6238 17.6828 20.4859 16.2204C21.3742 14.7134 21.8438 12.9873 21.8438 11.2285V8.87661C23.0487 8.7807 24 7.77022 24 6.54102V3.72852C24 3.46967 23.7901 3.25977 23.5312 3.25977ZM16.2188 19.0737C14.9289 19.7684 13.4763 20.1348 12 20.1348C10.5237 20.1348 9.07111 19.7684 7.78125 19.0737V14.9785C7.78125 12.6523 9.67378 10.7598 12 10.7598C14.3262 10.7598 16.2188 12.6523 16.2188 14.9785V19.0737ZM20.9062 11.2285C20.9062 14.1179 19.4878 16.8293 17.1562 18.49V14.9785C17.1562 12.1354 14.8432 9.82227 12 9.82227C9.15684 9.82227 6.84375 12.1354 6.84375 14.9785V18.49C4.51219 16.8293 3.09375 14.1179 3.09375 11.2285V8.88477H20.9062V11.2285ZM23.0625 6.07227H15.75C15.4911 6.07227 15.2812 6.28217 15.2812 6.54102C15.2812 6.79986 15.4911 7.00508 15.75 7.00508H22.9819C22.7884 7.55066 22.2673 7.94727 21.6562 7.94727C19.9423 7.94727 4.71562 7.94727 2.34375 7.94727C1.56834 7.94727 0.9375 7.31642 0.9375 6.54102V4.19727H23.0625V6.07227Z" fill="#666666"/>
<path d="M12 11.6973C10.1907 11.6973 8.71875 13.1692 8.71875 14.9785C8.71875 16.7878 10.1907 18.2598 12 18.2598C13.8093 18.2598 15.2812 16.7878 15.2812 14.9785C15.2812 13.1692 13.8093 11.6973 12 11.6973ZM12 17.3223C10.7077 17.3223 9.65625 16.2709 9.65625 14.9785C9.65625 13.6862 10.7077 12.6348 12 12.6348C13.2923 12.6348 14.3438 13.6862 14.3438 14.9785C14.3438 16.2709 13.2923 17.3223 12 17.3223Z" fill="#666666"/>
<path d="M12 13.5723C11.2246 13.5723 10.5938 14.2031 10.5938 14.9785C10.5938 15.7539 11.2246 16.3848 12 16.3848C12.7754 16.3848 13.4062 15.7539 13.4062 14.9785C13.4062 14.2031 12.7754 13.5723 12 13.5723ZM12 15.4473C11.7415 15.4473 11.5312 15.237 11.5312 14.9785C11.5312 14.72 11.7415 14.5098 12 14.5098C12.2585 14.5098 12.4688 14.72 12.4688 14.9785C12.4688 15.237 12.2585 15.4473 12 15.4473Z" fill="#666666"/>
</svg>
