<svg width="24" height="25" viewBox="0 0 24 25" fill="none" xmlns="http://www.w3.org/2000/svg">
<g clip-path="url(#clip0_627_19048)">
<path d="M12.803 21.6469C12.839 21.6586 12.8756 21.6642 12.9116 21.6642C13.0598 21.6642 13.1976 21.5697 13.2459 21.421C13.647 20.1851 13.8504 18.8908 13.8504 17.5742C13.8504 14.7957 11.5898 12.5352 8.81131 12.5352C6.03279 12.5352 3.77225 14.7957 3.77225 17.5742C3.77225 18.1103 3.59487 18.6143 3.25925 19.0316C3.13756 19.1829 3.16161 19.4042 3.31292 19.5258C3.46428 19.6475 3.68553 19.6235 3.80722 19.4722C4.23809 18.9364 4.47542 18.2623 4.47542 17.5742C4.47542 15.1834 6.4205 13.2383 8.81136 13.2383C11.2022 13.2383 13.1473 15.1834 13.1473 17.5742C13.1473 18.8171 12.9555 20.0383 12.5772 21.204C12.5172 21.3886 12.6183 21.587 12.803 21.6469Z" fill="#666666"/>
<path d="M11.2898 22.2395C11.3355 22.2594 11.3831 22.2688 11.4299 22.2688C11.5656 22.2688 11.6949 22.1898 11.7525 22.0575C12.3669 20.6457 12.6784 19.1373 12.6784 17.5742C12.6784 15.4418 10.9436 13.707 8.81122 13.707C6.67888 13.707 4.94404 15.4418 4.94404 17.5742C4.94404 18.4342 4.62801 19.2619 4.05416 19.9046C3.92483 20.0495 3.93744 20.2717 4.08229 20.401C4.22718 20.5303 4.44941 20.5177 4.57869 20.3729C5.26771 19.6011 5.64721 18.6072 5.64721 17.5742C5.64721 15.8295 7.06658 14.4102 8.81127 14.4102C10.556 14.4102 11.9753 15.8295 11.9753 17.5742C11.9753 19.0402 11.6834 20.4542 11.1078 21.7769C11.0303 21.9549 11.1118 22.1621 11.2898 22.2395Z" fill="#666666"/>
<path d="M9.83822 22.4832C9.89124 22.5118 9.94829 22.5253 10.0045 22.5253C10.1297 22.5253 10.251 22.4582 10.3144 22.3402C11.0947 20.8905 11.5072 19.2425 11.5072 17.5742C11.5072 16.088 10.2981 14.8789 8.81185 14.8789C7.32563 14.8789 6.11653 16.088 6.11653 17.5742C6.11653 18.706 5.70521 19.7988 4.95821 20.6515C4.83028 20.7975 4.84496 21.0196 4.99097 21.1475C5.13713 21.2755 5.35918 21.2608 5.4871 21.1147C6.34641 20.1338 6.81966 18.8765 6.81966 17.5742C6.81966 16.4757 7.71333 15.582 8.81185 15.582C9.91036 15.582 10.804 16.4757 10.804 17.5742C10.804 19.1265 10.4206 20.6593 9.69525 22.0069C9.60328 22.178 9.66727 22.3912 9.83822 22.4832Z" fill="#666666"/>
<path d="M8.46573 22.4546C8.52428 22.4919 8.58976 22.5097 8.6544 22.5097C8.77051 22.5097 8.88409 22.4523 8.95117 22.3471C9.85656 20.9272 10.3352 19.2768 10.3352 17.5742C10.3352 16.7342 9.65176 16.0508 8.81171 16.0508C7.97167 16.0508 7.28828 16.7342 7.28828 17.5742C7.28828 18.9126 6.82271 20.2215 5.97737 21.2598C5.85479 21.4103 5.87748 21.6318 6.02804 21.7544C6.1787 21.877 6.40014 21.8543 6.52267 21.7037C7.46978 20.5404 7.9914 19.0738 7.9914 17.5742C7.9914 17.1219 8.35942 16.7539 8.81171 16.7539C9.26401 16.7539 9.63203 17.1219 9.63203 17.5742C9.63203 19.1426 9.19159 20.6623 8.35825 21.9691C8.2539 22.1328 8.30204 22.3502 8.46573 22.4546Z" fill="#666666"/>
<path d="M8.81076 17.2227C8.61656 17.2227 8.4592 17.3801 8.4592 17.5742C8.4592 19.0742 7.9942 20.5043 7.11445 21.71C7.00003 21.8668 7.03439 22.0867 7.19123 22.2012C7.25376 22.2468 7.32628 22.2687 7.39818 22.2687C7.50661 22.2687 7.61362 22.2187 7.68243 22.1244C8.65059 20.7976 9.16232 19.2241 9.16232 17.5742C9.16232 17.3801 9.00492 17.2227 8.81076 17.2227Z" fill="#666666"/>
<path d="M21.0945 3.31311H15.5086V1.33414C15.5086 0.690031 14.9848 0.166016 14.3409 0.166016H5.77734C5.58314 0.166016 5.42578 0.323422 5.42578 0.517578C5.42578 0.711734 5.58314 0.869141 5.77734 0.869141H14.3409C14.5971 0.869141 14.8054 1.07773 14.8054 1.33414V3.31311H10.876C10.3253 2.56091 9.45717 2.11742 8.5162 2.11742C6.90258 2.11742 5.5898 3.4302 5.5898 5.04383C5.5898 6.65745 6.90258 7.97023 8.5162 7.97023C9.45727 7.97023 10.3255 7.52666 10.8761 6.77441H14.8054V9.21838H2.22656V1.33414C2.22656 1.07773 2.43516 0.869141 2.69156 0.869141H4.13672C4.33092 0.869141 4.48828 0.711734 4.48828 0.517578C4.48828 0.323422 4.33092 0.166016 4.13672 0.166016H2.69156C2.04745 0.166016 1.52344 0.690031 1.52344 1.33414V22.9979C1.52344 23.642 2.04745 24.166 2.69156 24.166H14.3409C14.9848 24.166 15.5086 23.642 15.5086 22.9979V19.7654C15.5086 19.5712 15.3512 19.4138 15.157 19.4138C14.9628 19.4138 14.8055 19.5712 14.8055 19.7654V22.9979C14.8055 23.2543 14.5971 23.4629 14.3409 23.4629H2.69156C2.43516 23.4629 2.22656 23.2543 2.22656 22.9979V11.5979H14.8055V18.1248C14.8055 18.3189 14.9628 18.4763 15.157 18.4763C15.3512 18.4763 15.5086 18.3189 15.5086 18.1248V6.77441H21.0945C21.857 6.77441 22.4773 6.15411 22.4773 5.39159V4.69592C22.4773 3.93345 21.857 3.31311 21.0945 3.31311ZM2.22656 10.8948V9.9215H14.8055V10.8948H2.22656ZM8.51625 7.26711C7.29037 7.26711 6.29297 6.26975 6.29297 5.04383C6.29297 3.81791 7.29033 2.82055 8.51625 2.82055C9.03445 2.82055 9.52327 2.99806 9.91256 3.31311H8.56383C8.16319 3.31311 7.83727 3.63903 7.83727 4.03967V6.04784C7.83727 6.44848 8.16319 6.77441 8.56383 6.77441H9.91275C9.52336 7.08955 9.0345 7.26711 8.51625 7.26711ZM21.7742 5.39159C21.7742 5.76636 21.4693 6.07128 21.0945 6.07128H8.56383C8.55094 6.07128 8.54039 6.06078 8.54039 6.04784V4.03967C8.54039 4.02673 8.55094 4.01623 8.56383 4.01623H21.0945C21.4693 4.01623 21.7742 4.32116 21.7742 4.69592V5.39159Z" fill="#666666"/>
</g>
<defs>
<clipPath id="clip0_627_19048">
<rect width="24" height="24" fill="white" transform="translate(0 0.166016)"/>
</clipPath>
</defs>
</svg>
