<svg width="24" height="25" viewBox="0 0 24 25" fill="none" xmlns="http://www.w3.org/2000/svg">
<path d="M12.9844 13.2754H13.8222" stroke="#666666" stroke-miterlimit="10" stroke-linecap="round" stroke-linejoin="round"/>
<path d="M15.3691 13.2754H16.207" stroke="#666666" stroke-miterlimit="10" stroke-linecap="round" stroke-linejoin="round"/>
<path d="M17.7559 13.2754H18.5937" stroke="#666666" stroke-miterlimit="10" stroke-linecap="round" stroke-linejoin="round"/>
<path d="M20.1426 13.2754H20.9805" stroke="#666666" stroke-miterlimit="10" stroke-linecap="round" stroke-linejoin="round"/>
<path d="M12.9844 14.9023H13.8222" stroke="#666666" stroke-miterlimit="10" stroke-linecap="round" stroke-linejoin="round"/>
<path d="M15.3691 14.9023H16.207" stroke="#666666" stroke-miterlimit="10" stroke-linecap="round" stroke-linejoin="round"/>
<path d="M17.7559 14.9023H18.5937" stroke="#666666" stroke-miterlimit="10" stroke-linecap="round" stroke-linejoin="round"/>
<path d="M20.1426 14.9023H20.9805" stroke="#666666" stroke-miterlimit="10" stroke-linecap="round" stroke-linejoin="round"/>
<mask id="mask0_2501_6053" style="mask-type:luminance" maskUnits="userSpaceOnUse" x="0" y="0" width="24" height="25">
<path d="M23.5 23.666V0.666018H0.5V23.666H23.5Z" fill="white" stroke="white"/>
</mask>
<g mask="url(#mask0_2501_6053)">
<path d="M17.8272 8.52117C18.9594 8.82417 19.849 9.72061 20.1416 10.8571M13.8218 10.8571C14.1143 9.72061 15.004 8.82417 16.1362 8.52117M10.3672 17.9531H22.6323C23.1935 17.9531 23.6484 17.4982 23.6484 16.937V3.01177C23.6484 2.45063 23.1935 1.99566 22.6323 1.99566H10.3672" stroke="#666666" stroke-miterlimit="10" stroke-linecap="round" stroke-linejoin="round"/>
<path d="M7.04883 11.0645C7.77253 11.0389 8.35148 10.4445 8.35148 9.71459V7.46455C8.35148 6.71834 7.74656 6.11342 7.00036 6.11342H5.42925C4.68305 6.11342 4.07812 6.71834 4.07812 7.46455V9.71459C4.07812 10.4423 4.65361 11.0354 5.37431 11.0643" stroke="#666666" stroke-miterlimit="10" stroke-linecap="round" stroke-linejoin="round"/>
<path d="M0.351562 17.5267C0.351562 17.9815 0.444 18.4316 0.62325 18.8495C1.35581 20.5904 1.344 20.5331 1.41183 20.7383" stroke="#666666" stroke-miterlimit="10" stroke-linecap="round" stroke-linejoin="round"/>
<path d="M7.01545 20.75C7.43775 19.8332 8.26556 19.3957 8.40431 17.9538C8.41453 17.8473 8.42034 17.7402 8.42034 17.6324V15.1896C8.42034 14.7348 8.04867 14.3378 7.59384 14.3322C7.50305 14.331 7.41553 14.3444 7.3335 14.37C7.19297 14.414 7.04953 14.3135 7.04953 14.1663V11.0635V9.44595C7.04953 8.99197 6.69651 8.6053 6.24281 8.58917C5.76647 8.57225 5.37501 8.95335 5.37501 9.42585V11.0634V13.4827C5.37501 13.0102 4.98356 12.6291 4.50727 12.6461C4.05356 12.6622 3.70055 13.0488 3.70055 13.5028V14.3096C3.70055 13.8371 3.30909 13.456 2.8328 13.4729C2.54639 13.4831 2.30034 13.6411 2.15766 13.8703C2.07431 14.0043 2.02608 14.1623 2.02608 14.3297V14.7935C2.02608 14.321 1.63458 13.9398 1.15828 13.9568C0.704578 13.9729 0.351562 14.3595 0.351562 14.8135V15.8713" stroke="#666666" stroke-miterlimit="10" stroke-linecap="round" stroke-linejoin="round"/>
<path d="M1.41234 20.7391C1.13498 20.7524 0.914062 20.9808 0.914062 21.2615V21.8103C0.914062 22.0995 1.14853 22.334 1.4377 22.334H6.90422C7.19344 22.334 7.42786 22.0995 7.42786 21.8103V21.2615C7.42786 21.0107 7.25142 20.8013 7.01592 20.75C6.97992 20.7422 6.94261 20.7378 6.90422 20.7378C5.72461 20.738 1.45336 20.7371 1.41234 20.7391Z" stroke="#666666" stroke-miterlimit="10" stroke-linecap="round" stroke-linejoin="round"/>
<path d="M17.827 8.52286C18.2409 8.2485 18.5138 7.77872 18.5138 7.24509C18.5138 6.39881 17.8278 5.7128 16.9815 5.7128C16.1353 5.7128 15.4492 6.39881 15.4492 7.24509C15.4492 7.77872 15.7222 8.2485 16.136 8.52286C16.3784 8.68355 16.669 8.77734 16.9815 8.77734C17.2941 8.77734 17.5847 8.68355 17.827 8.52286Z" stroke="#666666" stroke-miterlimit="10" stroke-linecap="round" stroke-linejoin="round"/>
<path d="M8.40486 17.9531H10.3678V1.9957H3.17436C2.61434 1.9957 2.1582 2.44936 2.1582 3.01177V13.8697" stroke="#666666" stroke-miterlimit="10" stroke-linecap="round" stroke-linejoin="round"/>
<path d="M21.8106 8.06541V10.317C21.8106 10.6155 21.5686 10.8574 21.2701 10.8574H12.6948C12.3963 10.8574 12.1543 10.6155 12.1543 10.317V8.06616" stroke="#666666" stroke-miterlimit="10" stroke-linecap="round" stroke-linejoin="round"/>
<path d="M12.1543 6.42188V4.39083C12.1543 4.09228 12.3963 3.85031 12.6948 3.85031H21.2702C21.5687 3.85031 21.8106 4.09228 21.8106 4.39083V6.41873" stroke="#666666" stroke-miterlimit="10" stroke-linecap="round" stroke-linejoin="round"/>
</g>
</svg>
