<svg width="25" height="24" viewBox="0 0 25 24" fill="none" xmlns="http://www.w3.org/2000/svg">
<g clip-path="url(#clip0_2523_196)">
<path d="M6.70898 0C6.17875 0.000635143 5.67041 0.211553 5.29547 0.586488C4.92054 0.961423 4.70962 1.46976 4.70898 2V22C4.70962 22.5302 4.92054 23.0386 5.29547 23.4135C5.67041 23.7884 6.17875 23.9994 6.70898 24H17.909C18.4392 23.9994 18.9476 23.7884 19.3225 23.4135C19.6974 23.0386 19.9083 22.5302 19.909 22V2C19.9083 1.46976 19.6974 0.961423 19.3225 0.586488C18.9476 0.211553 18.4392 0.000635143 17.909 0L6.70898 0ZM17.909 23.2H6.70898C6.39072 23.2 6.0855 23.0736 5.86046 22.8485C5.63541 22.6235 5.50898 22.3183 5.50898 22V9.6H19.109V22C19.109 22.3183 18.9826 22.6235 18.7575 22.8485C18.5325 23.0736 18.2272 23.2 17.909 23.2ZM19.109 2V8.8H5.50898V2C5.50898 1.68174 5.63541 1.37652 5.86046 1.15147C6.0855 0.926428 6.39072 0.8 6.70898 0.8H17.909C18.2272 0.8 18.5325 0.926428 18.7575 1.15147C18.9826 1.37652 19.109 1.68174 19.109 2Z" fill="#666666"/>
<path d="M12.3094 11.1992C11.2809 11.1992 10.2755 11.5042 9.42041 12.0756C8.56528 12.647 7.89878 13.4591 7.5052 14.4093C7.11163 15.3594 7.00865 16.405 7.20929 17.4137C7.40994 18.4224 7.90519 19.3489 8.63242 20.0762C9.35965 20.8034 10.2862 21.2987 11.2949 21.4993C12.3036 21.6999 13.3492 21.597 14.2993 21.2034C15.2495 20.8098 16.0616 20.1433 16.633 19.2882C17.2044 18.433 17.5094 17.4277 17.5094 16.3992C17.5078 15.0206 16.9594 13.6989 15.9846 12.724C15.0097 11.7492 13.688 11.2008 12.3094 11.1992ZM12.3094 20.7992C11.4391 20.7992 10.5884 20.5412 9.86487 20.0577C9.14129 19.5742 8.57733 18.887 8.24431 18.083C7.91128 17.279 7.82415 16.3943 7.99392 15.5408C8.1637 14.6873 8.58276 13.9033 9.19811 13.2879C9.81346 12.6726 10.5975 12.2535 11.451 12.0838C12.3045 11.914 13.1892 12.0011 13.9932 12.3341C14.7972 12.6672 15.4844 13.2311 15.9678 13.9547C16.4513 14.6783 16.7094 15.529 16.7094 16.3992C16.708 17.5657 16.244 18.6841 15.4191 19.509C14.5943 20.3338 13.4759 20.7978 12.3094 20.7992Z" fill="#666666"/>
<path d="M12.309 12.8008C11.597 12.8008 10.901 13.0119 10.3089 13.4075C9.71692 13.8031 9.2555 14.3653 8.98302 15.0231C8.71054 15.6809 8.63925 16.4048 8.77816 17.1031C8.91707 17.8014 9.25993 18.4429 9.7634 18.9464C10.2669 19.4498 10.9083 19.7927 11.6067 19.9316C12.305 20.0705 13.0288 19.9992 13.6866 19.7267C14.3445 19.4543 14.9067 18.9929 15.3023 18.4008C15.6979 17.8088 15.909 17.1128 15.909 16.4008C15.9079 15.4463 15.5283 14.5313 14.8534 13.8564C14.1785 13.1815 13.2634 12.8018 12.309 12.8008ZM12.309 19.2008C11.7552 19.2008 11.2138 19.0366 10.7534 18.7289C10.2929 18.4212 9.93405 17.9839 9.72212 17.4723C9.5102 16.9607 9.45475 16.3977 9.56279 15.8545C9.67083 15.3114 9.9375 14.8125 10.3291 14.4209C10.7207 14.0293 11.2196 13.7626 11.7627 13.6546C12.3059 13.5465 12.8689 13.602 13.3805 13.8139C13.8921 14.0258 14.3294 14.3847 14.6371 14.8452C14.9448 15.3056 15.109 15.847 15.109 16.4008C15.1081 17.1431 14.8129 17.8548 14.288 18.3797C13.763 18.9047 13.0513 19.1999 12.309 19.2008Z" fill="#666666"/>
<path d="M3.46934 13.824C3.36633 13.7988 3.25752 13.8155 3.16684 13.8705C3.07615 13.9254 3.01101 14.0142 2.98574 14.1172C2.61934 15.6173 2.61934 17.1835 2.98574 18.6836C3.00703 18.7704 3.05681 18.8477 3.12715 18.9029C3.19748 18.9582 3.2843 18.9883 3.37374 18.9884C3.40596 18.9884 3.43807 18.9845 3.46934 18.9768C3.52038 18.9643 3.56846 18.9418 3.61082 18.9107C3.65318 18.8796 3.689 18.8405 3.71623 18.7955C3.74346 18.7506 3.76156 18.7007 3.76951 18.6488C3.77746 18.5968 3.77509 18.5438 3.76254 18.4928C3.42693 17.118 3.42693 15.6827 3.76254 14.308C3.77509 14.2569 3.77746 14.2039 3.76951 14.152C3.76156 14.1 3.74346 14.0502 3.71623 14.0052C3.689 13.9603 3.65318 13.9211 3.61082 13.89C3.56846 13.8589 3.52038 13.8365 3.46934 13.824Z" fill="#666666"/>
<path d="M21.1489 18.977C21.1802 18.9848 21.2123 18.9887 21.2445 18.9886C21.334 18.9886 21.4209 18.9586 21.4913 18.9033C21.5617 18.8481 21.6116 18.7708 21.6329 18.6838C21.9989 17.1837 21.9989 15.6176 21.6329 14.1174C21.6076 14.0143 21.5424 13.9255 21.4516 13.8705C21.3608 13.8154 21.2518 13.7987 21.1487 13.824C21.0456 13.8493 20.9567 13.9146 20.9017 14.0054C20.8467 14.0962 20.83 14.2051 20.8553 14.3082C21.1909 15.683 21.1909 17.1183 20.8553 18.493C20.8428 18.5441 20.8404 18.5971 20.8484 18.6491C20.8563 18.7011 20.8745 18.751 20.9018 18.7959C20.929 18.8409 20.9649 18.88 21.0073 18.9111C21.0497 18.9422 21.0978 18.9646 21.1489 18.977Z" fill="#666666"/>
<path d="M2.03047 13.0559C1.92843 13.0273 1.81923 13.0402 1.72659 13.0916C1.63395 13.1431 1.56535 13.229 1.53567 13.3307C0.962069 15.3372 0.962069 17.4642 1.53567 19.4707C1.55956 19.5542 1.60999 19.6277 1.67934 19.68C1.74869 19.7324 1.83319 19.7607 1.92007 19.7607C1.95739 19.7608 1.99454 19.7556 2.03047 19.7455C2.13239 19.7163 2.21855 19.6478 2.27 19.5551C2.32145 19.4624 2.33399 19.3531 2.30487 19.2511C1.77248 17.3881 1.77248 15.4133 2.30487 13.5503C2.33399 13.4484 2.32145 13.339 2.27 13.2463C2.21855 13.1536 2.13239 13.0851 2.03047 13.0559Z" fill="#666666"/>
<path d="M22.589 19.7442C22.6395 19.7587 22.6924 19.7631 22.7446 19.7571C22.7969 19.7511 22.8474 19.7349 22.8933 19.7094C22.9393 19.6839 22.9798 19.6495 23.0124 19.6084C23.0451 19.5672 23.0694 19.52 23.0838 19.4694C23.657 17.4629 23.657 15.336 23.0838 13.3294C23.0547 13.2274 22.9862 13.1411 22.8934 13.0895C22.8007 13.0379 22.6912 13.0253 22.5892 13.0544C22.4871 13.0835 22.4008 13.152 22.3493 13.2448C22.2977 13.3375 22.2851 13.447 22.3142 13.549C22.847 15.4119 22.847 17.3869 22.3142 19.2498C22.2851 19.3518 22.2977 19.4612 22.3492 19.5539C22.4007 19.6466 22.487 19.7151 22.589 19.7442Z" fill="#666666"/>
<path d="M12.3078 2C11.754 2 11.2127 2.16422 10.7522 2.47189C10.2918 2.77955 9.93288 3.21685 9.72095 3.72849C9.50903 4.24012 9.45358 4.80311 9.56161 5.34625C9.66965 5.8894 9.93633 6.38831 10.3279 6.7799C10.7195 7.17149 11.2184 7.43816 11.7616 7.5462C12.3047 7.65424 12.8677 7.59879 13.3793 7.38686C13.891 7.17494 14.3283 6.81605 14.6359 6.3556C14.9436 5.89514 15.1078 5.35379 15.1078 4.8C15.107 4.05765 14.8117 3.34595 14.2868 2.82104C13.7619 2.29612 13.0502 2.00085 12.3078 2ZM12.3078 6.8C11.9123 6.8 11.5256 6.6827 11.1967 6.46294C10.8678 6.24318 10.6114 5.93082 10.4601 5.56537C10.3087 5.19991 10.2691 4.79778 10.3462 4.40982C10.4234 4.02186 10.6139 3.66549 10.8936 3.38579C11.1733 3.10608 11.5297 2.9156 11.9176 2.83843C12.3056 2.76126 12.7077 2.80087 13.0732 2.95224C13.4386 3.10362 13.751 3.35996 13.9708 3.68886C14.1905 4.01776 14.3078 4.40444 14.3078 4.8C14.3072 5.33024 14.0963 5.83858 13.7213 6.21351C13.3464 6.58845 12.8381 6.79936 12.3078 6.8Z" fill="#666666"/>
<path d="M8.3082 4C8.20212 4 8.10037 4.04214 8.02536 4.11716C7.95035 4.19217 7.9082 4.29391 7.9082 4.4V5.2C7.9082 5.30609 7.95035 5.40783 8.02536 5.48284C8.10037 5.55786 8.20212 5.6 8.3082 5.6C8.41429 5.6 8.51603 5.55786 8.59105 5.48284C8.66606 5.40783 8.7082 5.30609 8.7082 5.2V4.4C8.7082 4.29391 8.66606 4.19217 8.59105 4.11716C8.51603 4.04214 8.41429 4 8.3082 4Z" fill="#666666"/>
<path d="M7.10898 4C7.0029 4 6.90116 4.04214 6.82614 4.11716C6.75113 4.19217 6.70898 4.29391 6.70898 4.4V5.2C6.70898 5.30609 6.75113 5.40783 6.82614 5.48284C6.90116 5.55786 7.0029 5.6 7.10898 5.6C7.21507 5.6 7.31681 5.55786 7.39183 5.48284C7.46684 5.40783 7.50898 5.30609 7.50898 5.2V4.4C7.50898 4.29391 7.46684 4.19217 7.39183 4.11716C7.31681 4.04214 7.21507 4 7.10898 4Z" fill="#666666"/>
<path d="M17.5094 4C17.4033 4 17.3015 4.04214 17.2265 4.11716C17.1515 4.19217 17.1094 4.29391 17.1094 4.4V5.2C17.1094 5.30609 17.1515 5.40783 17.2265 5.48284C17.3015 5.55786 17.4033 5.6 17.5094 5.6C17.6155 5.6 17.7172 5.55786 17.7922 5.48284C17.8672 5.40783 17.9094 5.30609 17.9094 5.2V4.4C17.9094 4.29391 17.8672 4.19217 17.7922 4.11716C17.7172 4.04214 17.6155 4 17.5094 4Z" fill="#666666"/>
<path d="M16.3082 4C16.2021 4 16.1004 4.04214 16.0254 4.11716C15.9503 4.19217 15.9082 4.29391 15.9082 4.4V5.2C15.9082 5.30609 15.9503 5.40783 16.0254 5.48284C16.1004 5.55786 16.2021 5.6 16.3082 5.6C16.4143 5.6 16.516 5.55786 16.591 5.48284C16.6661 5.40783 16.7082 5.30609 16.7082 5.2V4.4C16.7082 4.29391 16.6661 4.19217 16.591 4.11716C16.516 4.04214 16.4143 4 16.3082 4Z" fill="#666666"/>
</g>
<defs>
<clipPath id="clip0_2523_196">
<rect width="24" height="24" fill="white" transform="translate(0.308594)"/>
</clipPath>
</defs>
</svg>
