<svg width="25" height="24" viewBox="0 0 25 24" fill="none" xmlns="http://www.w3.org/2000/svg">
<path fill-rule="evenodd" clip-rule="evenodd" d="M4.29995 22.2763H20.3175V10.2042H4.29995V22.2763ZM20.5642 22.7696H4.0533C3.91713 22.7696 3.80664 22.6591 3.80664 22.523L3.80665 9.95759C3.80665 9.82144 3.91712 9.71098 4.05329 9.71098L20.5642 9.71094C20.7007 9.71094 20.8108 9.82145 20.8108 9.95761L20.8108 22.5229C20.8108 22.6591 20.7007 22.7696 20.5642 22.7696Z" fill="#666666"/>
<path fill-rule="evenodd" clip-rule="evenodd" d="M12.1007 13.8693H18.4061V11.9343H12.1007V13.8693ZM18.6527 14.3626H11.8541C11.7179 14.3626 11.6074 14.2522 11.6074 14.116V11.6876C11.6074 11.5515 11.7179 11.4414 11.8541 11.4414L18.6527 11.4414C18.7889 11.4414 18.8994 11.5515 18.8994 11.6877L18.8994 14.116C18.8994 14.2522 18.7889 14.3627 18.6527 14.3626Z" fill="#666666"/>
<path fill-rule="evenodd" clip-rule="evenodd" d="M12.8293 18.4003H14.2788V17.8312H12.8293V18.4003ZM14.5254 18.8931H12.5826C12.4464 18.8931 12.3359 18.7831 12.3359 18.6469L12.336 17.5845C12.336 17.4479 12.4464 17.3379 12.5826 17.3379H14.5254C14.6616 17.3379 14.772 17.4479 14.772 17.5845L14.772 18.6469C14.772 18.7831 14.6615 18.8931 14.5254 18.8931Z" fill="#666666"/>
<path fill-rule="evenodd" clip-rule="evenodd" d="M16.2277 18.4003H17.6768V17.8312H16.2277V18.4003ZM17.9234 18.8931H15.9811C15.8449 18.8931 15.7344 18.7831 15.7344 18.6469L15.7344 17.5845C15.7344 17.4479 15.8449 17.3379 15.981 17.3379H17.9234C18.0596 17.3379 18.17 17.4479 18.17 17.5845L18.1701 18.6469C18.1701 18.7831 18.0596 18.8931 17.9234 18.8931Z" fill="#666666"/>
<path fill-rule="evenodd" clip-rule="evenodd" d="M12.8293 20.5468H14.2788V19.9777H12.8293V20.5468ZM14.5254 21.0401H12.5826C12.4464 21.0401 12.3359 20.9296 12.3359 20.7935L12.336 19.731C12.336 19.5949 12.4464 19.4844 12.5826 19.4844L14.5254 19.4844C14.6616 19.4844 14.772 19.5949 14.772 19.7311L14.772 20.7934C14.772 20.9296 14.6615 21.0401 14.5254 21.0401Z" fill="#666666"/>
<path fill-rule="evenodd" clip-rule="evenodd" d="M16.2277 20.5468H17.6768V19.9777H16.2277V20.5468ZM17.9234 21.0401H15.9811C15.8449 21.0401 15.7344 20.9296 15.7344 20.7935L15.7344 19.731C15.7344 19.5949 15.8449 19.4844 15.981 19.4844L17.9234 19.4844C18.0596 19.4844 18.17 19.5949 18.17 19.7311L18.1701 20.7934C18.1701 20.9296 18.0596 21.0401 17.9234 21.0401Z" fill="#666666"/>
<path fill-rule="evenodd" clip-rule="evenodd" d="M6.21207 20.5464H10.5747V11.9343H6.21207V20.5464ZM10.8213 21.0397H5.96543C5.82924 21.0397 5.71875 20.9292 5.71875 20.7931L5.71878 11.6876C5.71878 11.5515 5.82923 11.4414 5.9654 11.4414L10.8213 11.4414C10.9579 11.4414 11.0679 11.5515 11.0679 11.6877L11.068 20.7931C11.068 20.9292 10.9579 21.0397 10.8213 21.0397Z" fill="#666666"/>
<path fill-rule="evenodd" clip-rule="evenodd" d="M12.8293 16.2518H14.2788V15.6827H12.8293V16.2518ZM14.5254 16.7451H12.5826C12.4464 16.7451 12.3359 16.6347 12.3359 16.4985L12.336 15.4361C12.336 15.2999 12.4464 15.1895 12.5826 15.1895L14.5254 15.1895C14.6616 15.1895 14.772 15.2999 14.772 15.4361L14.772 16.4985C14.772 16.6347 14.6615 16.7451 14.5254 16.7451Z" fill="#666666"/>
<path fill-rule="evenodd" clip-rule="evenodd" d="M16.2277 16.2518H17.6768V15.6827H16.2277V16.2518ZM17.9234 16.7451H15.9811C15.8449 16.7451 15.7344 16.6347 15.7344 16.4985L15.7344 15.4361C15.7344 15.2999 15.8449 15.1895 15.981 15.1895L17.9234 15.1895C18.0596 15.1895 18.17 15.2999 18.17 15.4361L18.1701 16.4985C18.1701 16.6347 18.0596 16.7451 17.9234 16.7451Z" fill="#666666"/>
<path fill-rule="evenodd" clip-rule="evenodd" d="M9.31895 15.0011H7.46736C7.33118 15.0011 7.2207 14.8906 7.2207 14.7545C7.22072 14.6183 7.33118 14.5078 7.46735 14.5078L9.31895 14.5078C9.4551 14.5078 9.56556 14.6183 9.56556 14.7545C9.5656 14.8906 9.45508 15.0011 9.31895 15.0011Z" fill="#666666"/>
<path fill-rule="evenodd" clip-rule="evenodd" d="M9.31895 17.1398H7.46736C7.33118 17.1398 7.2207 17.0293 7.2207 16.8931C7.22072 16.757 7.33118 16.6465 7.46735 16.6465L9.31895 16.6465C9.4551 16.6465 9.56556 16.757 9.56556 16.8931C9.5656 17.0293 9.45508 17.1398 9.31895 17.1398Z" fill="#666666"/>
<path fill-rule="evenodd" clip-rule="evenodd" d="M9.31895 19.2805H7.46736C7.33118 19.2805 7.2207 19.17 7.2207 19.0338C7.22072 18.8976 7.33118 18.7872 7.46735 18.7872L9.31895 18.7871C9.4551 18.7871 9.56556 18.8976 9.56556 19.0338C9.5656 19.17 9.45508 19.2805 9.31895 19.2805Z" fill="#666666"/>
<path fill-rule="evenodd" clip-rule="evenodd" d="M10.0176 13.2101H6.77009C6.63392 13.2101 6.52344 13.1 6.52344 12.9634C6.52344 12.8272 6.63392 12.7168 6.77009 12.7168H10.0176C10.1538 12.7168 10.2643 12.8273 10.2643 12.9634C10.2643 13.1 10.1538 13.2101 10.0176 13.2101Z" fill="#666666"/>
<path fill-rule="evenodd" clip-rule="evenodd" d="M8.46932 10.2037C8.33312 10.2037 8.22266 10.0936 8.22266 9.95703L8.22267 7.96928C8.22267 7.83309 8.33312 7.72266 8.4693 7.72266C8.60549 7.72263 8.71595 7.83312 8.71595 7.9693L8.71597 9.95701C8.71597 10.0936 8.60547 10.2037 8.46932 10.2037Z" fill="#666666"/>
<path fill-rule="evenodd" clip-rule="evenodd" d="M8.46979 7.20031C8.3255 7.20031 8.20814 7.31809 8.20814 7.46239C8.20815 7.6067 8.32547 7.72403 8.46978 7.72403C8.61411 7.724 8.73184 7.6067 8.73184 7.46239C8.73186 7.31805 8.61407 7.20033 8.46979 7.20031ZM8.46979 8.2173C8.05358 8.2173 7.71484 7.87861 7.71484 7.46239C7.71486 7.04572 8.05356 6.70703 8.46978 6.70703C8.88644 6.70702 9.22514 7.04575 9.22514 7.46239C9.22515 7.8786 8.88642 8.21733 8.46979 8.2173Z" fill="#666666"/>
<path fill-rule="evenodd" clip-rule="evenodd" d="M12.3321 3.32199C12.2687 3.32199 12.2057 3.29762 12.1574 3.24966C11.1721 2.26435 9.86217 1.72181 8.46877 1.72181C7.07542 1.72177 5.76549 2.26435 4.78018 3.24966C4.68385 3.34598 4.52797 3.34601 4.43163 3.24966C4.33531 3.15328 4.33528 2.997 4.43163 2.90067C5.50987 1.82241 6.94392 1.22852 8.46877 1.22852C9.99405 1.22847 11.4277 1.82244 12.5063 2.90067C12.6027 2.99698 12.6027 3.15331 12.5063 3.24966C12.458 3.29762 12.395 3.32202 12.3321 3.32199Z" fill="#666666"/>
<path fill-rule="evenodd" clip-rule="evenodd" d="M11.3032 4.35212C11.2403 4.35212 11.1769 4.32816 11.1289 4.28019C10.4186 3.56978 9.47475 3.17884 8.47018 3.17884C7.46607 3.1788 6.52183 3.5698 5.81186 4.28019C5.71554 4.37654 5.55921 4.37654 5.46288 4.28019C5.36657 4.18384 5.36651 4.02755 5.46288 3.9312C6.2662 3.12789 7.33415 2.68555 8.47018 2.68555C9.60621 2.68551 10.6742 3.12789 11.4775 3.9312C11.5738 4.02752 11.5738 4.18384 11.4775 4.28019C11.4295 4.32812 11.3661 4.35214 11.3032 4.35212Z" fill="#666666"/>
<path fill-rule="evenodd" clip-rule="evenodd" d="M10.272 5.38267C10.2091 5.38267 10.1457 5.3587 10.0977 5.31031C9.66264 4.87564 9.08455 4.63587 8.46922 4.63587C7.85435 4.63585 7.27579 4.87568 6.84117 5.31031C6.74486 5.40661 6.58853 5.40666 6.49218 5.31031C6.39584 5.21392 6.39583 5.0581 6.49218 4.96175C7.02017 4.43332 7.72241 4.14258 8.46922 4.14258C9.216 4.14255 9.91827 4.43334 10.4467 4.96175C10.5426 5.05808 10.5426 5.21396 10.4467 5.31031C10.3983 5.35868 10.3353 5.38267 10.272 5.38267Z" fill="#666666"/>
<path fill-rule="evenodd" clip-rule="evenodd" d="M9.24314 6.41242C9.17975 6.41242 9.11678 6.38806 9.06841 6.3401C8.73871 6.01038 8.20214 6.01038 7.87199 6.3401C7.77564 6.43642 7.61977 6.43645 7.52341 6.3401C7.42711 6.24372 7.42708 6.08744 7.52341 5.99111C8.04541 5.4691 8.89496 5.46912 9.41738 5.99111C9.51374 6.08744 9.51374 6.24375 9.41738 6.3401C9.36902 6.38806 9.30606 6.41246 9.24314 6.41242Z" fill="#666666"/>
</svg>
