<svg width="25" height="24" viewBox="0 0 25 24" fill="none" xmlns="http://www.w3.org/2000/svg">
<g clip-path="url(#clip0_2523_10043)">
<path d="M18.6611 15.5238V13.7747H20.763C20.963 13.7747 21.1266 13.6111 21.1266 13.4111V2.8402C21.1266 2.6402 20.963 2.47656 20.763 2.47656H3.85387C3.65387 2.47656 3.49023 2.6402 3.49023 2.8402V13.4075C3.49023 13.6075 3.65387 13.7711 3.85387 13.7711H5.95569V15.5202C5.95569 15.7202 6.11933 15.8838 6.31933 15.8838H18.2975C18.4975 15.8875 18.6611 15.7238 18.6611 15.5238ZM18.9921 3.20384V6.0002H18.3084V3.20384H18.9921ZM15.8211 3.20384V6.0002H15.1375V3.20384H15.8211ZM12.6502 3.20384V6.0002H11.9666V3.20384H12.6502ZM9.47933 3.20384V6.0002H8.79569V3.20384H9.47933ZM6.30842 3.20384V6.0002H5.62478V3.20384H6.30842ZM17.9339 13.4111V15.1602H6.68296V13.4111C6.68296 13.2111 6.51933 13.0475 6.31933 13.0475H4.21751V3.20384H4.90114V6.36384C4.90114 6.56384 5.06478 6.72747 5.26478 6.72747H6.67569C6.87569 6.72747 7.03933 6.56384 7.03933 6.36384V3.20384H8.07205V6.36384C8.07205 6.56384 8.23569 6.72747 8.43569 6.72747H9.8466C10.0466 6.72747 10.2102 6.56384 10.2102 6.36384V3.20384H11.243V6.36384C11.243 6.56384 11.4066 6.72747 11.6066 6.72747H13.0175C13.2175 6.72747 13.3811 6.56384 13.3811 6.36384V3.20384H14.4139V6.36384C14.4139 6.56384 14.5775 6.72747 14.7775 6.72747H16.1884C16.3884 6.72747 16.5521 6.56384 16.5521 6.36384V3.20384H17.5848V6.36384C17.5848 6.56384 17.7484 6.72747 17.9484 6.72747H19.3593C19.5593 6.72747 19.723 6.56384 19.723 6.36384V3.20384H20.403V13.0438H18.3011C18.0939 13.0475 17.9339 13.2075 17.9339 13.4111Z" fill="#666666"/>
<path d="M22.1737 20.0906C21.3191 20.0906 20.6064 20.6978 20.4391 21.5015H14.7846V21.2578C14.7846 20.6178 14.261 20.0942 13.621 20.0942H12.6719V17.9996H22.8791C23.0791 17.9996 23.2428 17.836 23.2428 17.636V0.726918C23.2428 0.526918 23.0791 0.363281 22.8791 0.363281H1.74097C1.54097 0.363281 1.37733 0.526918 1.37733 0.726918V17.636C1.37733 17.836 1.54097 17.9996 1.74097 17.9996H11.9446V20.0906H10.9955C10.3519 20.0906 9.83188 20.6142 9.83188 21.2542V21.4978H4.18097C4.01369 20.6942 3.30097 20.0869 2.44642 20.0869C1.46824 20.0906 0.671875 20.8869 0.671875 21.8651C0.671875 22.8433 1.46824 23.636 2.44642 23.636C3.29733 23.636 4.01369 23.0324 4.18097 22.2287H9.83188V22.4724C9.83188 23.1124 10.3555 23.636 10.9955 23.636H13.621C14.2646 23.636 14.7846 23.1124 14.7846 22.4724V22.2287H20.4355C20.6028 23.0324 21.3155 23.636 22.1701 23.636C23.1482 23.636 23.9446 22.8396 23.9446 21.8615C23.9446 20.8833 23.1482 20.0906 22.1737 20.0906ZM2.1046 1.09055H22.5155V17.2724H2.1046V1.09055ZM2.44642 22.9087C1.86824 22.9087 1.39915 22.4396 1.39915 21.8651C1.39915 21.2906 1.86824 20.8178 2.44642 20.8178C3.02097 20.8178 3.49006 21.2833 3.49006 21.8578V21.8615V21.8651C3.48642 22.4433 3.02097 22.9087 2.44642 22.9087ZM14.0573 22.4724C14.0573 22.7124 13.861 22.9087 13.621 22.9087H10.9955C10.7555 22.9087 10.5591 22.7124 10.5591 22.4724V21.2542C10.5591 21.0142 10.7555 20.8178 10.9955 20.8178H13.621C13.861 20.8178 14.0573 21.0142 14.0573 21.2542V22.4724ZM22.1737 22.9087C21.6028 22.9087 21.141 22.4506 21.1301 21.8833C21.1301 21.876 21.1337 21.8724 21.1337 21.8651C21.1337 21.8578 21.1301 21.8542 21.1301 21.8469C21.141 21.2796 21.6028 20.8215 22.1737 20.8215C22.7519 20.8215 23.221 21.2906 23.221 21.8687C23.221 22.4469 22.7482 22.9087 22.1737 22.9087Z" fill="#666666"/>
</g>
<defs>
<clipPath id="clip0_2523_10043">
<rect width="24" height="24" fill="white" transform="translate(0.308594)"/>
</clipPath>
</defs>
</svg>
