<svg width="25" height="24" viewBox="0 0 25 24" fill="none" xmlns="http://www.w3.org/2000/svg">
<path d="M16.0586 9.819V9.375C16.0586 9.07663 15.9401 8.79048 15.7291 8.5795C15.5181 8.36853 15.232 8.25 14.9336 8.25C14.6352 8.25 14.3491 8.36853 14.1381 8.5795C13.9271 8.79048 13.8086 9.07663 13.8086 9.375V9.75H12.3086V9.375C12.3076 9.14315 12.2351 8.91726 12.1008 8.72824C11.9666 8.53921 11.7772 8.39628 11.5586 8.319V4.125C11.5586 4.02554 11.5191 3.93016 11.4488 3.85984C11.3784 3.78951 11.283 3.75 11.1836 3.75C11.0841 3.75 10.9888 3.78951 10.9184 3.85984C10.8481 3.93016 10.8086 4.02554 10.8086 4.125V8.25H10.0586V1.125C10.0586 1.02554 10.0981 0.930161 10.1684 0.859835C10.2388 0.789509 10.3341 0.75 10.4336 0.75C10.533 0.75 10.6284 0.789509 10.6988 0.859835C10.7691 0.930161 10.8086 1.02554 10.8086 1.125V2.625C10.8086 2.72446 10.8481 2.81984 10.9184 2.89016C10.9888 2.96049 11.0841 3 11.1836 3C11.283 3 11.3784 2.96049 11.4488 2.89016C11.5191 2.81984 11.5586 2.72446 11.5586 2.625V1.125C11.5586 0.826631 11.4401 0.540483 11.2291 0.329505C11.0181 0.118526 10.732 0 10.4336 0C10.1352 0 9.84908 0.118526 9.6381 0.329505C9.42712 0.540483 9.30859 0.826631 9.30859 1.125V8.319C9.09 8.39628 8.90063 8.53921 8.76638 8.72824C8.63213 8.91726 8.55955 9.14315 8.55859 9.375V9.819C8.34 9.89628 8.15063 10.0392 8.01638 10.2282C7.88213 10.4173 7.80955 10.6432 7.80859 10.875V22.875C7.80859 23.1734 7.92712 23.4595 8.1381 23.6705C8.34908 23.8815 8.63523 24 8.93359 24H15.6836C15.982 24 16.2681 23.8815 16.4791 23.6705C16.6901 23.4595 16.8086 23.1734 16.8086 22.875V10.875C16.8076 10.6432 16.7351 10.4173 16.6008 10.2282C16.4666 10.0392 16.2772 9.89628 16.0586 9.819ZM14.5586 9.375C14.5586 9.27554 14.5981 9.18016 14.6684 9.10983C14.7388 9.03951 14.8341 9 14.9336 9C15.033 9 15.1284 9.03951 15.1988 9.10983C15.2691 9.18016 15.3086 9.27554 15.3086 9.375V9.75H14.5586V9.375ZM9.30859 9.375C9.30859 9.27554 9.3481 9.18016 9.41843 9.10983C9.48875 9.03951 9.58414 9 9.68359 9H11.1836C11.283 9 11.3784 9.03951 11.4488 9.10983C11.5191 9.18016 11.5586 9.27554 11.5586 9.375V9.75H9.30859V9.375ZM16.0586 22.875C16.0586 22.9745 16.0191 23.0698 15.9488 23.1402C15.8784 23.2105 15.783 23.25 15.6836 23.25H8.93359C8.83414 23.25 8.73875 23.2105 8.66843 23.1402C8.5981 23.0698 8.55859 22.9745 8.55859 22.875V10.875C8.55859 10.7755 8.5981 10.6802 8.66843 10.6098C8.73875 10.5395 8.83414 10.5 8.93359 10.5H15.6836C15.783 10.5 15.8784 10.5395 15.9488 10.6098C16.0191 10.6802 16.0586 10.7755 16.0586 10.875V22.875Z" fill="#666666"/>
<path d="M14.9336 13.875H9.68359C9.58414 13.875 9.48875 13.9145 9.41843 13.9848C9.3481 14.0552 9.30859 14.1505 9.30859 14.25C9.30859 14.3495 9.3481 14.4448 9.41843 14.5152C9.48875 14.5855 9.58414 14.625 9.68359 14.625H14.9336C15.033 14.625 15.1284 14.5855 15.1988 14.5152C15.2691 14.4448 15.3086 14.3495 15.3086 14.25C15.3086 14.1505 15.2691 14.0552 15.1988 13.9848C15.1284 13.9145 15.033 13.875 14.9336 13.875Z" fill="#666666"/>
<path d="M14.9336 15H9.68359C9.58414 15 9.48875 15.0395 9.41843 15.1098C9.3481 15.1802 9.30859 15.2755 9.30859 15.375C9.30859 15.4745 9.3481 15.5698 9.41843 15.6402C9.48875 15.7105 9.58414 15.75 9.68359 15.75H14.9336C15.033 15.75 15.1284 15.7105 15.1988 15.6402C15.2691 15.5698 15.3086 15.4745 15.3086 15.375C15.3086 15.2755 15.2691 15.1802 15.1988 15.1098C15.1284 15.0395 15.033 15 14.9336 15Z" fill="#666666"/>
<path d="M14.9336 16.125H9.68359C9.58414 16.125 9.48875 16.1645 9.41843 16.2348C9.3481 16.3052 9.30859 16.4005 9.30859 16.5C9.30859 16.5995 9.3481 16.6948 9.41843 16.7652C9.48875 16.8355 9.58414 16.875 9.68359 16.875H14.9336C15.033 16.875 15.1284 16.8355 15.1988 16.7652C15.2691 16.6948 15.3086 16.5995 15.3086 16.5C15.3086 16.4005 15.2691 16.3052 15.1988 16.2348C15.1284 16.1645 15.033 16.125 14.9336 16.125Z" fill="#666666"/>
<path d="M14.9336 17.25H9.68359C9.58414 17.25 9.48875 17.2895 9.41843 17.3598C9.3481 17.4302 9.30859 17.5255 9.30859 17.625C9.30859 17.7245 9.3481 17.8198 9.41843 17.8902C9.48875 17.9605 9.58414 18 9.68359 18H14.9336C15.033 18 15.1284 17.9605 15.1988 17.8902C15.2691 17.8198 15.3086 17.7245 15.3086 17.625C15.3086 17.5255 15.2691 17.4302 15.1988 17.3598C15.1284 17.2895 15.033 17.25 14.9336 17.25Z" fill="#666666"/>
<path d="M14.9336 11.25H9.68359C9.58414 11.25 9.48875 11.2895 9.41843 11.3598C9.3481 11.4302 9.30859 11.5255 9.30859 11.625V13.125C9.30859 13.2245 9.3481 13.3198 9.41843 13.3902C9.48875 13.4605 9.58414 13.5 9.68359 13.5H10.4336C10.533 13.5 10.6284 13.4605 10.6988 13.3902C10.7691 13.3198 10.8086 13.2245 10.8086 13.125C10.8086 13.0255 10.7691 12.9302 10.6988 12.8598C10.6284 12.7895 10.533 12.75 10.4336 12.75H10.0586V12H14.5586V12.75H11.9336C11.8341 12.75 11.7388 12.7895 11.6684 12.8598C11.5981 12.9302 11.5586 13.0255 11.5586 13.125C11.5586 13.2245 11.5981 13.3198 11.6684 13.3902C11.7388 13.4605 11.8341 13.5 11.9336 13.5H14.9336C15.033 13.5 15.1284 13.4605 15.1988 13.3902C15.2691 13.3198 15.3086 13.2245 15.3086 13.125V11.625C15.3086 11.5255 15.2691 11.4302 15.1988 11.3598C15.1284 11.2895 15.033 11.25 14.9336 11.25Z" fill="#666666"/>
<path d="M10.4336 18.75H9.68359C9.58414 18.75 9.48875 18.7895 9.41843 18.8598C9.3481 18.9302 9.30859 19.0255 9.30859 19.125C9.30859 19.2245 9.3481 19.3198 9.41843 19.3902C9.48875 19.4605 9.58414 19.5 9.68359 19.5H10.4336C10.533 19.5 10.6284 19.4605 10.6988 19.3902C10.7691 19.3198 10.8086 19.2245 10.8086 19.125C10.8086 19.0255 10.7691 18.9302 10.6988 18.8598C10.6284 18.7895 10.533 18.75 10.4336 18.75Z" fill="#666666"/>
<path d="M12.6836 18.75H11.9336C11.8341 18.75 11.7388 18.7895 11.6684 18.8598C11.5981 18.9302 11.5586 19.0255 11.5586 19.125C11.5586 19.2245 11.5981 19.3198 11.6684 19.3902C11.7388 19.4605 11.8341 19.5 11.9336 19.5H12.6836C12.783 19.5 12.8784 19.4605 12.9488 19.3902C13.0191 19.3198 13.0586 19.2245 13.0586 19.125C13.0586 19.0255 13.0191 18.9302 12.9488 18.8598C12.8784 18.7895 12.783 18.75 12.6836 18.75Z" fill="#666666"/>
<path d="M14.934 18.75H14.1465C14.047 18.75 13.9516 18.7895 13.8813 18.8598C13.811 18.9302 13.7715 19.0255 13.7715 19.125C13.7715 19.2245 13.811 19.3198 13.8813 19.3902C13.9516 19.4605 14.047 19.5 14.1465 19.5H14.934C15.0334 19.5 15.1288 19.4605 15.1991 19.3902C15.2695 19.3198 15.309 19.2245 15.309 19.125C15.309 19.0255 15.2695 18.9302 15.1991 18.8598C15.1288 18.7895 15.0334 18.75 14.934 18.75Z" fill="#666666"/>
<path d="M10.4336 20.25H9.68359C9.58414 20.25 9.48875 20.2895 9.41843 20.3598C9.3481 20.4302 9.30859 20.5255 9.30859 20.625C9.30859 20.7245 9.3481 20.8198 9.41843 20.8902C9.48875 20.9605 9.58414 21 9.68359 21H10.4336C10.533 21 10.6284 20.9605 10.6988 20.8902C10.7691 20.8198 10.8086 20.7245 10.8086 20.625C10.8086 20.5255 10.7691 20.4302 10.6988 20.3598C10.6284 20.2895 10.533 20.25 10.4336 20.25Z" fill="#666666"/>
<path d="M12.6836 20.25H11.9336C11.8341 20.25 11.7388 20.2895 11.6684 20.3598C11.5981 20.4302 11.5586 20.5255 11.5586 20.625C11.5586 20.7245 11.5981 20.8198 11.6684 20.8902C11.7388 20.9605 11.8341 21 11.9336 21H12.6836C12.783 21 12.8784 20.9605 12.9488 20.8902C13.0191 20.8198 13.0586 20.7245 13.0586 20.625C13.0586 20.5255 13.0191 20.4302 12.9488 20.3598C12.8784 20.2895 12.783 20.25 12.6836 20.25Z" fill="#666666"/>
<path d="M14.934 20.25H14.1465C14.047 20.25 13.9516 20.2895 13.8813 20.3598C13.811 20.4302 13.7715 20.5255 13.7715 20.625C13.7715 20.7245 13.811 20.8198 13.8813 20.8902C13.9516 20.9605 14.047 21 14.1465 21H14.934C15.0334 21 15.1288 20.9605 15.1991 20.8902C15.2695 20.8198 15.309 20.7245 15.309 20.625C15.309 20.5255 15.2695 20.4302 15.1991 20.3598C15.1288 20.2895 15.0334 20.25 14.934 20.25Z" fill="#666666"/>
<path d="M10.4336 21.75H9.68359C9.58414 21.75 9.48875 21.7895 9.41843 21.8598C9.3481 21.9302 9.30859 22.0255 9.30859 22.125C9.30859 22.2245 9.3481 22.3198 9.41843 22.3902C9.48875 22.4605 9.58414 22.5 9.68359 22.5H10.4336C10.533 22.5 10.6284 22.4605 10.6988 22.3902C10.7691 22.3198 10.8086 22.2245 10.8086 22.125C10.8086 22.0255 10.7691 21.9302 10.6988 21.8598C10.6284 21.7895 10.533 21.75 10.4336 21.75Z" fill="#666666"/>
<path d="M12.6836 21.75H11.9336C11.8341 21.75 11.7388 21.7895 11.6684 21.8598C11.5981 21.9302 11.5586 22.0255 11.5586 22.125C11.5586 22.2245 11.5981 22.3198 11.6684 22.3902C11.7388 22.4605 11.8341 22.5 11.9336 22.5H12.6836C12.783 22.5 12.8784 22.4605 12.9488 22.3902C13.0191 22.3198 13.0586 22.2245 13.0586 22.125C13.0586 22.0255 13.0191 21.9302 12.9488 21.8598C12.8784 21.7895 12.783 21.75 12.6836 21.75Z" fill="#666666"/>
<path d="M14.934 21.75H14.1465C14.047 21.75 13.9516 21.7895 13.8813 21.8598C13.811 21.9302 13.7715 22.0255 13.7715 22.125C13.7715 22.2245 13.811 22.3198 13.8813 22.3902C13.9516 22.4605 14.047 22.5 14.1465 22.5H14.934C15.0334 22.5 15.1288 22.4605 15.1991 22.3902C15.2695 22.3198 15.309 22.2245 15.309 22.125C15.309 22.0255 15.2695 21.9302 15.1991 21.8598C15.1288 21.7895 15.0334 21.75 14.934 21.75Z" fill="#666666"/>
<path d="M19.6604 0.147686C19.6258 0.11187 19.5844 0.0833016 19.5386 0.0636482C19.4929 0.0439948 19.4437 0.03365 19.3939 0.0332173C19.3441 0.0327846 19.2947 0.0422727 19.2486 0.0611281C19.2025 0.0799834 19.1607 0.107828 19.1255 0.143038C19.0902 0.178248 19.0624 0.220117 19.0435 0.266203C19.0247 0.31229 19.0152 0.361669 19.0156 0.411462C19.0161 0.461254 19.0264 0.510461 19.0461 0.556213C19.0657 0.601964 19.0943 0.643344 19.1301 0.677936C20.0443 1.59216 20.5578 2.83208 20.5578 4.12494C20.5578 5.4178 20.0443 6.65771 19.1301 7.57194C19.0943 7.60653 19.0657 7.64791 19.0461 7.69366C19.0264 7.73941 19.0161 7.78862 19.0156 7.83841C19.0152 7.8882 19.0247 7.93758 19.0435 7.98367C19.0624 8.02975 19.0902 8.07162 19.1255 8.10683C19.1607 8.14204 19.2025 8.16989 19.2486 8.18874C19.2947 8.2076 19.3441 8.21709 19.3939 8.21666C19.4437 8.21622 19.4929 8.20588 19.5386 8.18622C19.5844 8.16657 19.6258 8.138 19.6604 8.10219C20.7151 7.04731 21.3077 5.61667 21.3077 4.12494C21.3077 2.6332 20.7151 1.20256 19.6604 0.147686Z" fill="#666666"/>
<path d="M18.5998 1.20878C18.5291 1.14047 18.4344 1.10268 18.336 1.10353C18.2377 1.10438 18.1437 1.14382 18.0741 1.21335C18.0046 1.28288 17.9652 1.37693 17.9643 1.47526C17.9635 1.57358 18.0013 1.66831 18.0696 1.73903C18.383 2.05243 18.6316 2.42449 18.8012 2.83397C18.9708 3.24344 19.0581 3.68232 19.0581 4.12553C19.0581 4.56875 18.9708 5.00762 18.8012 5.4171C18.6316 5.82658 18.383 6.19863 18.0696 6.51203C18.0337 6.54663 18.0052 6.588 17.9855 6.63376C17.9659 6.67951 17.9555 6.72871 17.9551 6.77851C17.9547 6.8283 17.9641 6.87768 17.983 6.92377C18.0019 6.96985 18.0297 7.01172 18.0649 7.04693C18.1001 7.08214 18.142 7.10999 18.1881 7.12884C18.2342 7.1477 18.2835 7.15718 18.3333 7.15675C18.3831 7.15632 18.4323 7.14597 18.4781 7.12632C18.5238 7.10667 18.5652 7.0781 18.5998 7.04228C19.3734 6.2687 19.8079 5.21952 19.8079 4.12553C19.8079 3.03155 19.3734 1.98236 18.5998 1.20878Z" fill="#666666"/>
<path d="M17.5393 2.26878C17.5047 2.23296 17.4633 2.2044 17.4175 2.18474C17.3718 2.16509 17.3226 2.15474 17.2728 2.15431C17.223 2.15388 17.1736 2.16337 17.1275 2.18222C17.0814 2.20108 17.0396 2.22892 17.0044 2.26413C16.9692 2.29934 16.9413 2.34121 16.9225 2.3873C16.9036 2.43338 16.8941 2.48276 16.8945 2.53256C16.895 2.58235 16.9053 2.63156 16.925 2.67731C16.9446 2.72306 16.9732 2.76444 17.009 2.79903C17.1832 2.97315 17.3213 3.17987 17.4156 3.40738C17.5098 3.6349 17.5584 3.87876 17.5584 4.12503C17.5584 4.3713 17.5098 4.61516 17.4156 4.84268C17.3213 5.07019 17.1832 5.27691 17.009 5.45103C16.9732 5.48562 16.9446 5.527 16.925 5.57275C16.9053 5.6185 16.895 5.66771 16.8945 5.7175C16.8941 5.7673 16.9036 5.81668 16.9225 5.86276C16.9413 5.90885 16.9692 5.95072 17.0044 5.98593C17.0396 6.02114 17.0814 6.04898 17.1275 6.06784C17.1736 6.08669 17.223 6.09618 17.2728 6.09575C17.3226 6.09532 17.3718 6.08497 17.4175 6.06532C17.4633 6.04566 17.5047 6.0171 17.5393 5.98128C17.783 5.73752 17.9764 5.44813 18.1084 5.12964C18.2403 4.81114 18.3082 4.46977 18.3082 4.12503C18.3082 3.78029 18.2403 3.43892 18.1084 3.12042C17.9764 2.80193 17.783 2.51254 17.5393 2.26878Z" fill="#666666"/>
<path d="M4.05814 4.12549C4.05633 3.48503 4.18161 2.85058 4.42674 2.25889C4.67186 1.6672 5.03195 1.13003 5.48614 0.678486C5.55445 0.60776 5.59225 0.513034 5.59139 0.41471C5.59054 0.316386 5.5511 0.222332 5.48157 0.152804C5.41205 0.0832757 5.31799 0.0438373 5.21967 0.0429829C5.12134 0.0421285 5.02662 0.0799264 4.95589 0.148236C3.90114 1.20311 3.30859 2.63375 3.30859 4.12549C3.30859 5.61722 3.90114 7.04786 4.95589 8.10274C5.02662 8.17104 5.12134 8.20884 5.21967 8.20799C5.31799 8.20713 5.41205 8.16769 5.48157 8.09817C5.5511 8.02864 5.59054 7.93458 5.59139 7.83626C5.59225 7.73794 5.55445 7.64321 5.48614 7.57248C5.03198 7.12092 4.67191 6.58374 4.42679 5.99205C4.18167 5.40037 4.05637 4.76593 4.05814 4.12549Z" fill="#666666"/>
<path d="M5.55846 4.12553C5.55725 3.68214 5.64399 3.24291 5.81366 2.83327C5.98334 2.42362 6.23258 2.0517 6.54696 1.73903C6.61527 1.66831 6.65307 1.57358 6.65222 1.47526C6.65136 1.37693 6.61192 1.28288 6.5424 1.21335C6.47287 1.14382 6.37881 1.10438 6.28049 1.10353C6.18216 1.10268 6.08744 1.14047 6.01671 1.20878C5.24317 1.98236 4.80859 3.03155 4.80859 4.12553C4.80859 5.21952 5.24317 6.2687 6.01671 7.04228C6.08744 7.11059 6.18216 7.14839 6.28049 7.14754C6.37881 7.14668 6.47287 7.10724 6.5424 7.03771C6.61192 6.96819 6.65136 6.87413 6.65222 6.77581C6.65307 6.67748 6.61527 6.58276 6.54696 6.51203C6.23258 6.19936 5.98334 5.82744 5.81366 5.4178C5.64399 5.00815 5.55725 4.56892 5.55846 4.12553Z" fill="#666666"/>
<path d="M7.60778 2.268C7.53746 2.1977 7.44209 2.1582 7.34266 2.1582C7.24322 2.1582 7.14786 2.1977 7.07753 2.268C6.83375 2.51176 6.64037 2.80114 6.50844 3.11964C6.3765 3.43814 6.30859 3.77951 6.30859 4.12425C6.30859 4.46899 6.3765 4.81036 6.50844 5.12885C6.64037 5.44735 6.83375 5.73674 7.07753 5.9805C7.14826 6.04881 7.24298 6.08661 7.34131 6.08575C7.43963 6.0849 7.53369 6.04546 7.60322 5.97593C7.67274 5.9064 7.71218 5.81235 7.71304 5.71402C7.71389 5.6157 7.67609 5.52097 7.60778 5.45025C7.43362 5.27613 7.29547 5.06941 7.20121 4.84189C7.10695 4.61438 7.05843 4.37052 7.05843 4.12425C7.05843 3.87798 7.10695 3.63412 7.20121 3.4066C7.29547 3.17908 7.43362 2.97236 7.60778 2.79825C7.67808 2.72793 7.71758 2.63256 7.71758 2.53312C7.71758 2.43369 7.67808 2.33832 7.60778 2.268Z" fill="#666666"/>
</svg>
