<svg width="20" height="21" viewBox="0 0 20 21" fill="none" xmlns="http://www.w3.org/2000/svg">
<g clip-path="url(#clip0_627_16840)">
<path d="M16.8936 9.19526C16.6882 9.05737 16.5027 8.89197 16.3423 8.70363C16.3542 8.44141 16.4069 8.18265 16.4985 7.93671C16.6707 7.35371 16.8852 6.62815 16.4719 6.06041C16.0555 5.48815 15.295 5.46894 14.6839 5.45332C14.4269 5.46358 14.1698 5.43595 13.9208 5.37128C13.7839 5.15654 13.6793 4.92282 13.6106 4.67761C13.4067 4.09698 13.1527 3.3743 12.4725 3.15326C11.8125 2.93876 11.2202 3.3463 10.6979 3.70468C10.4881 3.87226 10.2524 4.00472 10.0002 4.09695C9.74781 4.00483 9.51204 3.87234 9.30213 3.70468C8.77984 3.34598 8.18737 2.93973 7.52753 3.15326C6.84754 3.3743 6.59364 4.09661 6.38952 4.67737C6.32087 4.92135 6.21748 5.1542 6.08256 5.36876C5.83278 5.4354 5.57436 5.46382 5.31608 5.45309C4.70508 5.46868 3.94451 5.48791 3.52818 6.06015C3.11483 6.62821 3.32929 7.35377 3.50151 7.93681C3.59206 8.18147 3.64523 8.43837 3.65922 8.69888C3.49954 8.88987 3.31336 9.05705 3.10633 9.19529C2.61333 9.57126 2 10.0393 2 10.7636C2 11.4879 2.61333 11.956 3.10644 12.332C3.31181 12.4699 3.49731 12.6353 3.6577 12.8236C3.64578 13.0858 3.59308 13.3446 3.50146 13.5905C3.32926 14.1735 3.11478 14.8991 3.52812 15.4668C3.94446 16.0391 4.70503 16.0583 5.31605 16.0739C5.5731 16.0637 5.83023 16.0913 6.07922 16.156C6.21612 16.3707 6.32066 16.6045 6.38945 16.8497C6.59356 17.4304 6.84746 18.153 7.52761 18.3741C7.64811 18.4136 7.77414 18.4337 7.90096 18.4337C8.41285 18.4337 8.88028 18.1124 9.30218 17.8227C9.51207 17.655 9.7477 17.5225 9.99997 17.4303C10.2524 17.5224 10.4881 17.6549 10.6981 17.8226C11.2203 18.1813 11.8127 18.5872 12.4727 18.374C13.1526 18.1529 13.4065 17.4306 13.6107 16.8499C13.6793 16.6059 13.7827 16.373 13.9176 16.1585C14.1674 16.0918 14.4258 16.0634 14.6841 16.0742C15.2951 16.0586 16.0557 16.0393 16.472 15.4671C16.8853 14.8991 16.6709 14.1734 16.4987 13.5904C16.4081 13.3458 16.355 13.0889 16.341 12.8284C16.5006 12.6374 16.6868 12.4702 16.8939 12.332C17.3866 11.956 18 11.4879 18 10.7636C18 10.0393 17.3867 9.57126 16.8936 9.19526ZM12.9714 9.56832L9.63802 12.9016C9.37777 13.162 8.95577 13.162 8.69544 12.9018C8.69538 12.9017 8.69533 12.9017 8.69528 12.9016L7.0286 11.235C6.76497 10.9779 6.75961 10.5559 7.01664 10.2922C7.27366 10.0286 7.69574 10.0232 7.95938 10.2803C7.96342 10.2842 7.96741 10.2882 7.97135 10.2922L9.16665 11.4876L12.0286 8.62555C12.2857 8.36191 12.7077 8.35658 12.9714 8.61361C13.235 8.87063 13.2403 9.29271 12.9833 9.55635C12.9794 9.56042 12.9754 9.56438 12.9714 9.56832Z" fill="#059669"/>
</g>
<defs>
<clipPath id="clip0_627_16840">
<rect width="16" height="16" fill="white" transform="translate(2 2.76562)"/>
</clipPath>
</defs>
</svg>
