<svg width="19" height="19" viewBox="0 0 19 19" fill="none" xmlns="http://www.w3.org/2000/svg">
<path fill-rule="evenodd" clip-rule="evenodd" d="M8.24284 1.45313H9.82747C11.2058 1.45311 12.2975 1.4531 13.1519 1.56798C14.0312 1.6862 14.743 1.93529 15.3042 2.49656C15.8655 3.05783 16.1146 3.76954 16.2328 4.64886C16.3477 5.50327 16.3477 6.595 16.3477 7.97332V11.0579C16.3477 12.4363 16.3477 13.528 16.2328 14.3824C16.1146 15.2617 15.8655 15.9734 15.3042 16.5347C14.743 17.096 14.0312 17.3451 13.1519 17.4633C12.2975 17.5781 11.2058 17.5781 9.82747 17.5781H8.24285C6.86453 17.5781 5.7728 17.5781 4.91839 17.4633C4.03907 17.3451 3.32736 17.096 2.76609 16.5347C2.20482 15.9734 1.95573 15.2617 1.83751 14.3824C1.72264 13.528 1.72264 12.4363 1.72266 11.0579V7.97331C1.72264 6.59499 1.72264 5.50327 1.83751 4.64886C1.95573 3.76954 2.20482 3.05783 2.76609 2.49656C3.32736 1.93529 4.03907 1.6862 4.91839 1.56798C5.7728 1.4531 6.86452 1.45311 8.24284 1.45313ZM5.06829 2.68294C4.31373 2.78439 3.87899 2.97465 3.56158 3.29205C3.24418 3.60946 3.05392 4.04419 2.95248 4.79876C2.84885 5.56951 2.84766 6.58551 2.84766 8.01562V11.0156C2.84766 12.4457 2.84885 13.4617 2.95248 14.2325C3.05392 14.9871 3.24418 15.4218 3.56158 15.7392C3.87899 16.0566 4.31373 16.2469 5.06829 16.3483C5.83904 16.4519 6.85504 16.4531 8.28516 16.4531H9.78516C11.2153 16.4531 12.2313 16.4519 13.002 16.3483C13.7566 16.2469 14.1913 16.0566 14.5087 15.7392C14.8261 15.4218 15.0164 14.9871 15.1178 14.2325C15.2215 13.4617 15.2227 12.4457 15.2227 11.0156V8.01563C15.2227 6.58551 15.2215 5.56951 15.1178 4.79876C15.0164 4.0442 14.8261 3.60946 14.5087 3.29205C14.1913 2.97465 13.7566 2.78439 13.002 2.68294C12.2313 2.57932 11.2153 2.57813 9.78516 2.57813H8.28516C6.85504 2.57813 5.83904 2.57932 5.06829 2.68294ZM5.47266 6.51563C5.47266 6.20497 5.7245 5.95313 6.03516 5.95313H12.0352C12.3458 5.95313 12.5977 6.20497 12.5977 6.51563C12.5977 6.82629 12.3458 7.07813 12.0352 7.07813H6.03516C5.7245 7.07813 5.47266 6.82629 5.47266 6.51563ZM5.47266 9.51563C5.47266 9.20497 5.7245 8.95313 6.03516 8.95313H12.0352C12.3458 8.95313 12.5977 9.20497 12.5977 9.51563C12.5977 9.82629 12.3458 10.0781 12.0352 10.0781H6.03516C5.7245 10.0781 5.47266 9.82629 5.47266 9.51563ZM5.47266 12.5156C5.47266 12.205 5.7245 11.9531 6.03516 11.9531H9.78516C10.0958 11.9531 10.3477 12.205 10.3477 12.5156C10.3477 12.8263 10.0958 13.0781 9.78516 13.0781H6.03516C5.7245 13.0781 5.47266 12.8263 5.47266 12.5156Z" fill="#64748B"/>
</svg>
