<svg width="211" height="97" viewBox="0 0 211 97" fill="none" xmlns="http://www.w3.org/2000/svg">
<g clip-path="url(#clip0_627_17181)">
<path d="M2.18088 0.917969C0.954134 0.917969 0 1.87116 0 3.09669C0 4.32222 0.954134 5.27542 2.18088 5.27542C3.40762 5.27542 4.36176 4.32222 4.36176 3.09669C4.36176 1.87116 3.54393 0.917969 2.18088 0.917969Z" fill="#DCB79C"/>
<path d="M20.1731 0.917969C18.9463 0.917969 17.9922 1.87116 17.9922 3.09669C17.9922 4.32222 18.9463 5.27542 20.1731 5.27542C21.3998 5.27542 22.3539 4.32222 22.3539 3.09669C22.3539 1.87116 21.3998 0.917969 20.1731 0.917969Z" fill="#DCB79C"/>
<path d="M38.1653 0.917969C36.9385 0.917969 35.9844 1.87116 35.9844 3.09669C35.9844 4.32222 36.8022 5.41159 38.1653 5.41159C39.392 5.41159 40.3461 4.45839 40.3461 3.23286C40.3461 2.00733 39.392 0.917969 38.1653 0.917969Z" fill="#DCB79C"/>
<path d="M56.0207 0.917969C54.794 0.917969 53.8398 1.87116 53.8398 3.09669C53.8398 4.32222 54.794 5.27542 56.0207 5.27542C57.2475 5.27542 58.2016 4.32222 58.2016 3.09669C58.2016 1.87116 57.2475 0.917969 56.0207 0.917969Z" fill="#DCB79C"/>
<path d="M74.0129 0.917969C72.7862 0.917969 71.832 1.87116 71.832 3.09669C71.832 4.32222 72.7862 5.27542 74.0129 5.27542C75.2397 5.27542 76.1938 4.32222 76.1938 3.09669C76.1938 1.87116 75.2397 0.917969 74.0129 0.917969Z" fill="#DCB79C"/>
<path d="M91.8703 0.917969C90.6436 0.917969 89.6895 1.87116 89.6895 3.09669C89.6895 4.32222 90.6436 5.27542 91.8703 5.27542C93.0971 5.27542 94.0512 4.32222 94.0512 3.09669C94.0512 1.87116 93.0971 0.917969 91.8703 0.917969Z" fill="#DCB79C"/>
<path d="M109.863 0.917969C108.636 0.917969 107.682 1.87116 107.682 3.09669C107.682 4.32222 108.636 5.27542 109.863 5.27542C111.089 5.27542 112.043 4.32222 112.043 3.09669C112.043 1.87116 111.089 0.917969 109.863 0.917969Z" fill="#DCB79C"/>
<path d="M127.718 0.917969C126.491 0.917969 125.537 1.87116 125.537 3.09669C125.537 4.32222 126.491 5.27542 127.718 5.27542C128.945 5.27542 129.899 4.32222 129.899 3.09669C129.899 1.87116 128.945 0.917969 127.718 0.917969Z" fill="#DCB79C"/>
<path d="M145.71 0.917969C144.483 0.917969 143.529 1.87116 143.529 3.09669C143.529 4.32222 144.483 5.27542 145.71 5.27542C146.937 5.27542 147.891 4.32222 147.891 3.09669C147.891 1.87116 146.937 0.917969 145.71 0.917969Z" fill="#DCB79C"/>
<path d="M163.566 0.917969C162.339 0.917969 161.385 1.87116 161.385 3.09669C161.385 4.32222 162.339 5.27542 163.566 5.27542C164.792 5.27542 165.747 4.32222 165.747 3.09669C165.747 1.87116 164.929 0.917969 163.566 0.917969Z" fill="#DCB79C"/>
<path d="M181.558 0.917969C180.331 0.917969 179.377 1.87116 179.377 3.09669C179.377 4.32222 180.331 5.27542 181.558 5.27542C182.785 5.27542 183.739 4.32222 183.739 3.09669C183.739 1.87116 182.785 0.917969 181.558 0.917969Z" fill="#DCB79C"/>
<path d="M199.55 0.917969C198.323 0.917969 197.369 1.87116 197.369 3.09669C197.369 4.32222 198.323 5.27542 199.55 5.27542C200.777 5.27542 201.731 4.32222 201.731 3.09669C201.731 1.87116 200.777 0.917969 199.55 0.917969Z" fill="#DCB79C"/>
<path d="M11.4504 14.125C10.2237 14.125 9.26953 15.0782 9.26953 16.3037C9.26953 17.5293 10.2237 18.6186 11.4504 18.6186C12.6772 18.6186 13.6313 17.6654 13.6313 16.4399C13.6313 15.2144 12.6772 14.125 11.4504 14.125Z" fill="#DCB79C"/>
<path d="M29.4426 14.125C28.2159 14.125 27.2617 15.0782 27.2617 16.3037C27.2617 17.5293 28.2159 18.4824 29.4426 18.4824C30.6693 18.4824 31.6235 17.5293 31.6235 16.3037C31.6235 15.0782 30.6693 14.125 29.4426 14.125Z" fill="#DCB79C"/>
<path d="M47.2981 18.4824C48.5025 18.4824 49.4789 17.507 49.4789 16.3037C49.4789 15.1004 48.5025 14.125 47.2981 14.125C46.0936 14.125 45.1172 15.1004 45.1172 16.3037C45.1172 17.507 46.0936 18.4824 47.2981 18.4824Z" fill="#DCB79C"/>
<path d="M65.2903 18.4824C66.4947 18.4824 67.4711 17.507 67.4711 16.3037C67.4711 15.1004 66.4947 14.125 65.2903 14.125C64.0858 14.125 63.1094 15.1004 63.1094 16.3037C63.1094 17.507 64.0858 18.4824 65.2903 18.4824Z" fill="#DCB79C"/>
<path d="M83.1457 14.125C81.919 14.125 80.9648 15.0782 80.9648 16.3037C80.9648 17.5293 81.919 18.6186 83.1457 18.6186C84.3725 18.6186 85.3266 17.6654 85.3266 16.4399C85.3266 15.2144 84.3725 14.125 83.1457 14.125Z" fill="#DCB79C"/>
<path d="M101.138 18.4824C102.342 18.4824 103.319 17.507 103.319 16.3037C103.319 15.1004 102.342 14.125 101.138 14.125C99.9334 14.125 98.957 15.1004 98.957 16.3037C98.957 17.507 99.9334 18.4824 101.138 18.4824Z" fill="#DCB79C"/>
<path d="M118.993 14.125C117.767 14.125 116.812 15.0782 116.812 16.3037C116.812 17.5293 117.767 18.4824 118.993 18.4824C120.22 18.4824 121.174 17.5293 121.174 16.3037C121.174 15.0782 120.356 14.125 118.993 14.125Z" fill="#DCB79C"/>
<path d="M136.986 18.4824C138.19 18.4824 139.166 17.507 139.166 16.3037C139.166 15.1004 138.19 14.125 136.986 14.125C135.781 14.125 134.805 15.1004 134.805 16.3037C134.805 17.507 135.781 18.4824 136.986 18.4824Z" fill="#DCB79C"/>
<path d="M154.978 14.125C153.751 14.125 152.797 15.0782 152.797 16.3037C152.797 17.5293 153.751 18.4824 154.978 18.4824C156.204 18.4824 157.159 17.5293 157.159 16.3037C157.159 15.0782 156.204 14.125 154.978 14.125Z" fill="#DCB79C"/>
<path d="M172.835 14.125C171.608 14.125 170.654 15.0782 170.654 16.3037C170.654 17.5293 171.608 18.4824 172.835 18.4824C174.062 18.4824 175.016 17.5293 175.016 16.3037C175.016 15.0782 174.062 14.125 172.835 14.125Z" fill="#DCB79C"/>
<path d="M190.827 14.125C189.601 14.125 188.646 15.0782 188.646 16.3037C188.646 17.5293 189.601 18.4824 190.827 18.4824C192.054 18.4824 193.008 17.5293 193.008 16.3037C193.008 15.0782 192.054 14.125 190.827 14.125Z" fill="#DCB79C"/>
<path d="M208.683 14.125C207.456 14.125 206.502 15.0782 206.502 16.3037C206.502 17.5293 207.456 18.4824 208.683 18.4824C209.91 18.4824 210.864 17.5293 210.864 16.3037C210.864 15.0782 209.91 14.125 208.683 14.125Z" fill="#DCB79C"/>
<path d="M2.18088 26.5195C0.954134 26.5195 0 27.4727 0 28.6983C0 29.9238 0.954134 30.877 2.18088 30.877C3.40762 30.877 4.36176 29.9238 4.36176 28.6983C4.36176 27.4727 3.54393 26.5195 2.18088 26.5195Z" fill="#DCB79C"/>
<path d="M20.1731 26.5195C18.9463 26.5195 17.9922 27.4727 17.9922 28.6983C17.9922 29.9238 18.9463 30.877 20.1731 30.877C21.3998 30.877 22.3539 29.9238 22.3539 28.6983C22.3539 27.4727 21.3998 26.5195 20.1731 26.5195Z" fill="#DCB79C"/>
<path d="M38.1653 26.5195C36.9385 26.5195 35.9844 27.4727 35.9844 28.6983C35.9844 29.9238 36.9385 30.877 38.1653 30.877C39.392 30.877 40.3461 29.9238 40.3461 28.6983C40.3461 27.4727 39.392 26.5195 38.1653 26.5195Z" fill="#DCB79C"/>
<path d="M56.0207 26.5195C54.794 26.5195 53.8398 27.4727 53.8398 28.6983C53.8398 29.9238 54.794 30.877 56.0207 30.877C57.2475 30.877 58.2016 29.9238 58.2016 28.6983C58.2016 27.4727 57.2475 26.5195 56.0207 26.5195Z" fill="#DCB79C"/>
<path d="M74.0129 26.5195C72.7862 26.5195 71.832 27.4727 71.832 28.6983C71.832 29.9238 72.7862 30.877 74.0129 30.877C75.2397 30.877 76.1938 29.9238 76.1938 28.6983C76.1938 27.4727 75.2397 26.5195 74.0129 26.5195Z" fill="#DCB79C"/>
<path d="M91.8703 26.5195C90.6436 26.5195 89.6895 27.4727 89.6895 28.6983C89.6895 29.9238 90.6436 30.877 91.8703 30.877C93.0971 30.877 94.0512 29.9238 94.0512 28.6983C94.0512 27.4727 93.0971 26.5195 91.8703 26.5195Z" fill="#DCB79C"/>
<path d="M109.863 26.5195C108.636 26.5195 107.682 27.4727 107.682 28.6983C107.682 29.9238 108.636 30.877 109.863 30.877C111.089 30.877 112.043 29.9238 112.043 28.6983C112.043 27.4727 111.089 26.5195 109.863 26.5195Z" fill="#DCB79C"/>
<path d="M127.718 26.5195C126.491 26.5195 125.537 27.4727 125.537 28.6983C125.537 29.9238 126.491 30.877 127.718 30.877C128.945 30.877 129.899 29.9238 129.899 28.6983C129.899 27.4727 128.945 26.5195 127.718 26.5195Z" fill="#DCB79C"/>
<path d="M145.71 26.5195C144.483 26.5195 143.529 27.4727 143.529 28.6983C143.529 29.9238 144.483 30.877 145.71 30.877C146.937 30.877 147.891 29.9238 147.891 28.6983C147.891 27.4727 146.937 26.5195 145.71 26.5195Z" fill="#DCB79C"/>
<path d="M163.566 26.5195C162.339 26.5195 161.385 27.4727 161.385 28.6983C161.385 29.9238 162.339 30.877 163.566 30.877C164.792 30.877 165.747 29.9238 165.747 28.6983C165.747 27.4727 164.929 26.5195 163.566 26.5195Z" fill="#DCB79C"/>
<path d="M181.558 26.5195C180.331 26.5195 179.377 27.4727 179.377 28.6983C179.377 29.9238 180.331 30.877 181.558 30.877C182.785 30.877 183.739 29.9238 183.739 28.6983C183.739 27.4727 182.785 26.5195 181.558 26.5195Z" fill="#DCB79C"/>
<path d="M199.55 26.5195C198.323 26.5195 197.369 27.4727 197.369 28.6983C197.369 29.9238 198.323 30.877 199.55 30.877C200.777 30.877 201.731 29.9238 201.731 28.6983C201.731 27.4727 200.777 26.5195 199.55 26.5195Z" fill="#DCB79C"/>
<path d="M11.4504 39.7266C10.2237 39.7266 9.26953 40.6798 9.26953 41.9053C9.26953 43.1308 10.2237 44.084 11.4504 44.084C12.6772 44.084 13.6313 43.1308 13.6313 41.9053C13.6313 40.6798 12.6772 39.7266 11.4504 39.7266Z" fill="#DCB79C"/>
<path d="M29.4426 39.7266C28.2159 39.7266 27.2617 40.6798 27.2617 41.9053C27.2617 43.1308 28.2159 44.084 29.4426 44.084C30.6693 44.084 31.6235 43.1308 31.6235 41.9053C31.6235 40.6798 30.6693 39.7266 29.4426 39.7266Z" fill="#DCB79C"/>
<path d="M47.2981 44.2207C48.5025 44.2207 49.4789 43.2453 49.4789 42.042C49.4789 40.8387 48.5025 39.8633 47.2981 39.8633C46.0936 39.8633 45.1172 40.8387 45.1172 42.042C45.1172 43.2453 46.0936 44.2207 47.2981 44.2207Z" fill="#DCB79C"/>
<path d="M65.2903 44.2207C66.4947 44.2207 67.4711 43.2453 67.4711 42.042C67.4711 40.8387 66.4947 39.8633 65.2903 39.8633C64.0858 39.8633 63.1094 40.8387 63.1094 42.042C63.1094 43.2453 64.0858 44.2207 65.2903 44.2207Z" fill="#DCB79C"/>
<path d="M83.1457 39.7266C81.919 39.7266 80.9648 40.6798 80.9648 41.9053C80.9648 43.1308 81.919 44.084 83.1457 44.084C84.3725 44.084 85.3266 43.1308 85.3266 41.9053C85.3266 40.6798 84.3725 39.7266 83.1457 39.7266Z" fill="#DCB79C"/>
<path d="M101.138 44.2207C102.342 44.2207 103.319 43.2453 103.319 42.042C103.319 40.8387 102.342 39.8633 101.138 39.8633C99.9334 39.8633 98.957 40.8387 98.957 42.042C98.957 43.2453 99.9334 44.2207 101.138 44.2207Z" fill="#DCB79C"/>
<path d="M118.993 39.7266C117.767 39.7266 116.812 40.6798 116.812 41.9053C116.812 43.1308 117.767 44.084 118.993 44.084C120.22 44.084 121.174 43.1308 121.174 41.9053C121.174 40.6798 120.356 39.7266 118.993 39.7266Z" fill="#DCB79C"/>
<path d="M136.986 44.2207C138.19 44.2207 139.166 43.2453 139.166 42.042C139.166 40.8387 138.19 39.8633 136.986 39.8633C135.781 39.8633 134.805 40.8387 134.805 42.042C134.805 43.2453 135.781 44.2207 136.986 44.2207Z" fill="#DCB79C"/>
<path d="M154.978 39.7266C153.751 39.7266 152.797 40.6798 152.797 41.9053C152.797 43.1308 153.751 44.084 154.978 44.084C156.204 44.084 157.159 43.1308 157.159 41.9053C157.159 40.6798 156.204 39.7266 154.978 39.7266Z" fill="#DCB79C"/>
<path d="M172.835 39.7266C171.608 39.7266 170.654 40.6798 170.654 41.9053C170.654 43.1308 171.608 44.084 172.835 44.084C174.062 44.084 175.016 43.1308 175.016 41.9053C175.016 40.6798 174.062 39.7266 172.835 39.7266Z" fill="#DCB79C"/>
<path d="M190.827 39.7266C189.601 39.7266 188.646 40.6798 188.646 41.9053C188.646 43.1308 189.601 44.084 190.827 44.084C192.054 44.084 193.008 43.1308 193.008 41.9053C193.008 40.6798 192.054 39.7266 190.827 39.7266Z" fill="#DCB79C"/>
<path d="M208.683 39.7266C207.456 39.7266 206.502 40.6798 206.502 41.9053C206.502 43.1308 207.456 44.084 208.683 44.084C209.91 44.084 210.864 43.1308 210.864 41.9053C210.864 40.6798 209.91 39.7266 208.683 39.7266Z" fill="#DCB79C"/>
<path d="M2.18088 53.6172C0.954134 53.6172 0 54.5704 0 55.7959C0 57.0214 0.954134 58.1108 2.18088 58.1108C3.40762 58.1108 4.36176 57.1576 4.36176 55.9321C4.36176 54.7066 3.54393 53.6172 2.18088 53.6172Z" fill="#DCB79C"/>
<path d="M20.1731 53.6172C18.9463 53.6172 17.9922 54.5704 17.9922 55.7959C17.9922 57.0214 18.9463 57.9746 20.1731 57.9746C21.3998 57.9746 22.3539 57.0214 22.3539 55.7959C22.3539 54.5704 21.3998 53.6172 20.1731 53.6172Z" fill="#DCB79C"/>
<path d="M38.1653 53.6172C36.9385 53.6172 35.9844 54.5704 35.9844 55.7959C35.9844 57.0214 36.8022 58.1108 38.1653 58.1108C39.392 58.1108 40.3461 57.1576 40.3461 55.9321C40.3461 54.7066 39.392 53.6172 38.1653 53.6172Z" fill="#DCB79C"/>
<path d="M56.0207 53.6172C54.794 53.6172 53.8398 54.5704 53.8398 55.7959C53.8398 57.0214 54.794 57.9746 56.0207 57.9746C57.2475 57.9746 58.2016 57.0214 58.2016 55.7959C58.2016 54.5704 57.2475 53.6172 56.0207 53.6172Z" fill="#DCB79C"/>
<path d="M74.0129 53.6172C72.7862 53.6172 71.832 54.5704 71.832 55.7959C71.832 57.0214 72.7862 57.9746 74.0129 57.9746C75.2397 57.9746 76.1938 57.0214 76.1938 55.7959C76.1938 54.5704 75.2397 53.6172 74.0129 53.6172Z" fill="#DCB79C"/>
<path d="M91.8703 58.1114C93.0748 58.1114 94.0512 57.1359 94.0512 55.9326C94.0512 54.7294 93.0748 53.7539 91.8703 53.7539C90.6659 53.7539 89.6895 54.7294 89.6895 55.9326C89.6895 57.1359 90.6659 58.1114 91.8703 58.1114Z" fill="#DCB79C"/>
<path d="M109.863 58.1114C111.067 58.1114 112.043 57.1359 112.043 55.9326C112.043 54.7294 111.067 53.7539 109.863 53.7539C108.658 53.7539 107.682 54.7294 107.682 55.9326C107.682 57.1359 108.658 58.1114 109.863 58.1114Z" fill="#DCB79C"/>
<path d="M127.718 53.6172C126.491 53.6172 125.537 54.5704 125.537 55.7959C125.537 57.0214 126.491 57.9746 127.718 57.9746C128.945 57.9746 129.899 57.0214 129.899 55.7959C129.899 54.5704 128.945 53.6172 127.718 53.6172Z" fill="#DCB79C"/>
<path d="M145.71 53.6172C144.483 53.6172 143.529 54.5704 143.529 55.7959C143.529 57.0214 144.483 57.9746 145.71 57.9746C146.937 57.9746 147.891 57.0214 147.891 55.7959C147.891 54.5704 146.937 53.6172 145.71 53.6172Z" fill="#DCB79C"/>
<path d="M163.566 53.6172C162.339 53.6172 161.385 54.5704 161.385 55.7959C161.385 57.0214 162.339 57.9746 163.566 57.9746C164.792 57.9746 165.747 57.0214 165.747 55.7959C165.747 54.5704 164.929 53.6172 163.566 53.6172Z" fill="#DCB79C"/>
<path d="M181.558 53.6172C180.331 53.6172 179.377 54.5704 179.377 55.7959C179.377 57.0214 180.331 57.9746 181.558 57.9746C182.785 57.9746 183.739 57.0214 183.739 55.7959C183.739 54.5704 182.785 53.6172 181.558 53.6172Z" fill="#DCB79C"/>
<path d="M199.55 53.6172C198.323 53.6172 197.369 54.5704 197.369 55.7959C197.369 57.0214 198.323 57.9746 199.55 57.9746C200.777 57.9746 201.731 57.0214 201.731 55.7959C201.731 54.5704 200.777 53.6172 199.55 53.6172Z" fill="#DCB79C"/>
<path d="M11.4504 66.8242C10.2237 66.8242 9.26953 67.7774 9.26953 69.0029C9.26953 70.2285 10.2237 71.1817 11.4504 71.1817C12.6772 71.1817 13.6313 70.2285 13.6313 69.0029C13.6313 67.7774 12.6772 66.8242 11.4504 66.8242Z" fill="#DCB79C"/>
<path d="M29.4426 66.8242C28.2159 66.8242 27.2617 67.7774 27.2617 69.0029C27.2617 70.2285 28.2159 71.1817 29.4426 71.1817C30.6693 71.1817 31.6235 70.2285 31.6235 69.0029C31.6235 67.7774 30.6693 66.8242 29.4426 66.8242Z" fill="#DCB79C"/>
<path d="M47.2981 66.8242C46.0713 66.8242 45.1172 67.7774 45.1172 69.0029C45.1172 70.2285 46.0713 71.1817 47.2981 71.1817C48.5248 71.1817 49.4789 70.2285 49.4789 69.0029C49.4789 67.7774 48.5248 66.8242 47.2981 66.8242Z" fill="#DCB79C"/>
<path d="M65.2903 66.8242C64.0635 66.8242 63.1094 67.7774 63.1094 69.0029C63.1094 70.2285 64.0635 71.1817 65.2903 71.1817C66.517 71.1817 67.4711 70.2285 67.4711 69.0029C67.4711 67.7774 66.517 66.8242 65.2903 66.8242Z" fill="#DCB79C"/>
<path d="M83.1457 66.8242C81.919 66.8242 80.9648 67.7774 80.9648 69.0029C80.9648 70.2285 81.919 71.1817 83.1457 71.1817C84.3725 71.1817 85.3266 70.2285 85.3266 69.0029C85.3266 67.7774 84.3725 66.8242 83.1457 66.8242Z" fill="#DCB79C"/>
<path d="M101.138 66.8242C99.9112 66.8242 98.957 67.7774 98.957 69.0029C98.957 70.2285 99.9112 71.1817 101.138 71.1817C102.365 71.1817 103.319 70.2285 103.319 69.0029C103.319 67.7774 102.365 66.8242 101.138 66.8242Z" fill="#DCB79C"/>
<path d="M118.993 66.8242C117.767 66.8242 116.812 67.7774 116.812 69.0029C116.812 70.2285 117.767 71.1817 118.993 71.1817C120.22 71.1817 121.174 70.2285 121.174 69.0029C121.174 67.7774 120.356 66.8242 118.993 66.8242Z" fill="#DCB79C"/>
<path d="M136.986 66.8242C135.759 66.8242 134.805 67.7774 134.805 69.0029C134.805 70.2285 135.759 71.1817 136.986 71.1817C138.212 71.1817 139.166 70.2285 139.166 69.0029C139.166 67.7774 138.212 66.8242 136.986 66.8242Z" fill="#DCB79C"/>
<path d="M154.978 66.8242C153.751 66.8242 152.797 67.7774 152.797 69.0029C152.797 70.2285 153.751 71.1817 154.978 71.1817C156.204 71.1817 157.159 70.2285 157.159 69.0029C157.159 67.7774 156.204 66.8242 154.978 66.8242Z" fill="#DCB79C"/>
<path d="M172.835 66.8242C171.608 66.8242 170.654 67.7774 170.654 69.0029C170.654 70.2285 171.608 71.1817 172.835 71.1817C174.062 71.1817 175.016 70.2285 175.016 69.0029C175.016 67.7774 174.062 66.8242 172.835 66.8242Z" fill="#DCB79C"/>
<path d="M190.827 66.8242C189.601 66.8242 188.646 67.7774 188.646 69.0029C188.646 70.2285 189.601 71.1817 190.827 71.1817C192.054 71.1817 193.008 70.2285 193.008 69.0029C193.008 67.7774 192.054 66.8242 190.827 66.8242Z" fill="#DCB79C"/>
<path d="M208.683 66.8242C207.456 66.8242 206.502 67.7774 206.502 69.0029C206.502 70.2285 207.456 71.1817 208.683 71.1817C209.91 71.1817 210.864 70.2285 210.864 69.0029C210.864 67.7774 209.91 66.8242 208.683 66.8242Z" fill="#DCB79C"/>
<path d="M2.18088 79.3516C0.954134 79.3516 0 80.3048 0 81.5303C0 82.7558 0.954134 83.709 2.18088 83.709C3.40762 83.709 4.36176 82.7558 4.36176 81.5303C4.36176 80.3048 3.54393 79.3516 2.18088 79.3516Z" fill="#DCB79C"/>
<path d="M20.1731 79.3516C18.9463 79.3516 17.9922 80.3048 17.9922 81.5303C17.9922 82.7558 18.9463 83.709 20.1731 83.709C21.3998 83.709 22.3539 82.7558 22.3539 81.5303C22.3539 80.3048 21.3998 79.3516 20.1731 79.3516Z" fill="#DCB79C"/>
<path d="M38.1653 79.3516C36.9385 79.3516 35.9844 80.3048 35.9844 81.5303C35.9844 82.7558 36.9385 83.709 38.1653 83.709C39.392 83.709 40.3461 82.7558 40.3461 81.5303C40.3461 80.3048 39.392 79.3516 38.1653 79.3516Z" fill="#DCB79C"/>
<path d="M56.0207 79.3516C54.794 79.3516 53.8398 80.3048 53.8398 81.5303C53.8398 82.7558 54.794 83.709 56.0207 83.709C57.2475 83.709 58.2016 82.7558 58.2016 81.5303C58.2016 80.3048 57.2475 79.3516 56.0207 79.3516Z" fill="#DCB79C"/>
<path d="M74.0129 79.3516C72.7862 79.3516 71.832 80.3048 71.832 81.5303C71.832 82.7558 72.7862 83.709 74.0129 83.709C75.2397 83.709 76.1938 82.7558 76.1938 81.5303C76.1938 80.3048 75.2397 79.3516 74.0129 79.3516Z" fill="#DCB79C"/>
<path d="M91.8703 79.3516C90.6436 79.3516 89.6895 80.3048 89.6895 81.5303C89.6895 82.7558 90.6436 83.709 91.8703 83.709C93.0971 83.709 94.0512 82.7558 94.0512 81.5303C94.0512 80.3048 93.0971 79.3516 91.8703 79.3516Z" fill="#DCB79C"/>
<path d="M109.863 79.3516C108.636 79.3516 107.682 80.3048 107.682 81.5303C107.682 82.7558 108.636 83.709 109.863 83.709C111.089 83.709 112.043 82.7558 112.043 81.5303C112.043 80.3048 111.089 79.3516 109.863 79.3516Z" fill="#DCB79C"/>
<path d="M127.718 79.3516C126.491 79.3516 125.537 80.3048 125.537 81.5303C125.537 82.7558 126.491 83.709 127.718 83.709C128.945 83.709 129.899 82.7558 129.899 81.5303C129.899 80.3048 128.945 79.3516 127.718 79.3516Z" fill="#DCB79C"/>
<path d="M145.71 79.3516C144.483 79.3516 143.529 80.3048 143.529 81.5303C143.529 82.7558 144.483 83.709 145.71 83.709C146.937 83.709 147.891 82.7558 147.891 81.5303C147.891 80.3048 146.937 79.3516 145.71 79.3516Z" fill="#DCB79C"/>
<path d="M163.566 79.3516C162.339 79.3516 161.385 80.3048 161.385 81.5303C161.385 82.7558 162.339 83.709 163.566 83.709C164.792 83.709 165.747 82.7558 165.747 81.5303C165.747 80.3048 164.929 79.3516 163.566 79.3516Z" fill="#DCB79C"/>
<path d="M181.558 79.3516C180.331 79.3516 179.377 80.3048 179.377 81.5303C179.377 82.7558 180.331 83.709 181.558 83.709C182.785 83.709 183.739 82.7558 183.739 81.5303C183.739 80.3048 182.785 79.3516 181.558 79.3516Z" fill="#DCB79C"/>
<path d="M199.55 79.3516C198.323 79.3516 197.369 80.3048 197.369 81.5303C197.369 82.7558 198.323 83.709 199.55 83.709C200.777 83.709 201.731 82.7558 201.731 81.5303C201.731 80.3048 200.777 79.3516 199.55 79.3516Z" fill="#DCB79C"/>
<path d="M11.4504 92.4258C10.2237 92.4258 9.26953 93.379 9.26953 94.6045C9.26953 95.83 10.2237 96.7832 11.4504 96.7832C12.6772 96.7832 13.6313 95.83 13.6313 94.6045C13.7676 93.5152 12.6772 92.4258 11.4504 92.4258Z" fill="#DCB79C"/>
<path d="M29.4426 92.4258C28.2159 92.4258 27.2617 93.379 27.2617 94.6045C27.2617 95.83 28.2159 96.7832 29.4426 96.7832C30.6693 96.7832 31.6235 95.83 31.6235 94.6045C31.6235 93.5152 30.6693 92.4258 29.4426 92.4258Z" fill="#DCB79C"/>
<path d="M47.2981 96.916C48.5025 96.916 49.4789 95.9406 49.4789 94.7373C49.4789 93.534 48.5025 92.5586 47.2981 92.5586C46.0936 92.5586 45.1172 93.534 45.1172 94.7373C45.1172 95.9406 46.0936 96.916 47.2981 96.916Z" fill="#DCB79C"/>
<path d="M65.2903 96.916C66.4947 96.916 67.4711 95.9406 67.4711 94.7373C67.4711 93.534 66.4947 92.5586 65.2903 92.5586C64.0858 92.5586 63.1094 93.534 63.1094 94.7373C63.1094 95.9406 64.0858 96.916 65.2903 96.916Z" fill="#DCB79C"/>
<path d="M83.1457 92.4258C81.919 92.4258 80.9648 93.379 80.9648 94.6045C80.9648 95.83 81.919 96.7832 83.1457 96.7832C84.3725 96.7832 85.3266 95.83 85.3266 94.6045C85.4629 93.5152 84.3725 92.4258 83.1457 92.4258Z" fill="#DCB79C"/>
<path d="M101.138 96.916C102.342 96.916 103.319 95.9406 103.319 94.7373C103.319 93.534 102.342 92.5586 101.138 92.5586C99.9334 92.5586 98.957 93.534 98.957 94.7373C98.957 95.9406 99.9334 96.916 101.138 96.916Z" fill="#DCB79C"/>
<path d="M118.993 92.4258C117.767 92.4258 116.812 93.379 116.812 94.6045C116.812 95.83 117.767 96.7832 118.993 96.7832C120.22 96.7832 121.174 95.83 121.174 94.6045C121.311 93.5152 120.356 92.4258 118.993 92.4258Z" fill="#DCB79C"/>
<path d="M136.986 96.916C138.19 96.916 139.166 95.9406 139.166 94.7373C139.166 93.534 138.19 92.5586 136.986 92.5586C135.781 92.5586 134.805 93.534 134.805 94.7373C134.805 95.9406 135.781 96.916 136.986 96.916Z" fill="#DCB79C"/>
<path d="M154.978 92.4258C153.751 92.4258 152.797 93.379 152.797 94.6045C152.797 95.83 153.751 96.7832 154.978 96.7832C156.204 96.7832 157.159 95.83 157.159 94.6045C157.159 93.5152 156.204 92.4258 154.978 92.4258Z" fill="#DCB79C"/>
<path d="M172.835 92.4258C171.608 92.4258 170.654 93.379 170.654 94.6045C170.654 95.83 171.608 96.7832 172.835 96.7832C174.062 96.7832 175.016 95.83 175.016 94.6045C175.152 93.5152 174.062 92.4258 172.835 92.4258Z" fill="#DCB79C"/>
<path d="M190.827 92.4258C189.601 92.4258 188.646 93.379 188.646 94.6045C188.646 95.83 189.601 96.7832 190.827 96.7832C192.054 96.7832 193.008 95.83 193.008 94.6045C193.008 93.5152 192.054 92.4258 190.827 92.4258Z" fill="#DCB79C"/>
<path d="M208.683 92.4258C207.456 92.4258 206.502 93.379 206.502 94.6045C206.502 95.83 207.456 96.7832 208.683 96.7832C209.91 96.7832 210.864 95.83 210.864 94.6045C211 93.5152 209.91 92.4258 208.683 92.4258Z" fill="#DCB79C"/>
</g>
<defs>
<clipPath id="clip0_627_17181">
<rect width="211" height="96" fill="white" transform="translate(0 0.917969)"/>
</clipPath>
</defs>
</svg>
