<svg width="20" height="21" viewBox="0 0 20 21" fill="none" xmlns="http://www.w3.org/2000/svg">
<path d="M12.9635 12.2871L12.5839 12.6867C12.5839 12.6867 11.6818 13.6365 9.21927 11.044C6.75676 8.45143 7.65892 7.50162 7.65892 7.50162L7.89793 7.24999C8.48673 6.6301 8.54223 5.63487 8.02853 4.90831L6.97771 3.42207C6.3419 2.52281 5.1133 2.40402 4.38454 3.17126L3.07654 4.54834C2.71519 4.92878 2.47304 5.42194 2.50241 5.96901C2.57753 7.36861 3.1756 10.3799 6.5128 13.8934C10.0518 17.6193 13.3724 17.7673 14.7302 17.6333C15.1597 17.5909 15.5333 17.3593 15.8343 17.0424L17.0181 15.7961C17.8171 14.9548 17.5918 13.5125 16.5694 12.924L14.9774 12.0077C14.306 11.6213 13.4881 11.7348 12.9635 12.2871Z" fill="#6E360E"/>
<path d="M11.0489 1.73189C11.1041 1.39115 11.4262 1.16 11.7669 1.21517C11.788 1.21921 11.8559 1.23189 11.8915 1.23981C11.9626 1.25564 12.0618 1.28003 12.1854 1.31605C12.4327 1.38808 12.7782 1.50675 13.1929 1.69687C14.0232 2.0775 15.128 2.74333 16.2745 3.88983C17.421 5.03633 18.0868 6.14118 18.4675 6.97141C18.6576 7.38609 18.7762 7.73159 18.8483 7.97891C18.8843 8.10258 18.9087 8.20177 18.9245 8.27288C18.9324 8.30843 18.9382 8.33698 18.9423 8.35808L18.9471 8.38407C19.0022 8.72481 18.7732 9.06024 18.4324 9.11541C18.0927 9.17042 17.7726 8.94039 17.7161 8.60124C17.7143 8.59214 17.7096 8.56767 17.7044 8.5446C17.6941 8.49845 17.6763 8.42526 17.6482 8.32847C17.5918 8.13486 17.4938 7.84708 17.3312 7.49235C17.0063 6.78376 16.4222 5.80527 15.3906 4.77372C14.3591 3.74217 13.3806 3.158 12.672 2.83314C12.3173 2.67051 12.0295 2.57257 11.8359 2.51618C11.7391 2.48798 11.6174 2.46006 11.5713 2.44978C11.2321 2.39326 10.9939 2.07166 11.0489 1.73189Z" fill="#1C274C"/>
<path fill-rule="evenodd" clip-rule="evenodd" d="M11.2375 4.60645C11.3323 4.27455 11.6782 4.08237 12.0101 4.17719L11.8384 4.77815C12.0101 4.17719 12.0101 4.17719 12.0101 4.17719L12.0113 4.17754L12.0126 4.17791L12.0154 4.17872L12.0218 4.18065L12.0383 4.18578C12.0509 4.1898 12.0666 4.19503 12.0853 4.20167C12.1227 4.21495 12.1722 4.23384 12.2328 4.25984C12.3543 4.31187 12.5201 4.39222 12.7239 4.51282C13.1318 4.75422 13.6886 5.1552 14.3428 5.80934C14.9969 6.46349 15.3979 7.02031 15.6393 7.4282C15.7599 7.63196 15.8402 7.79784 15.8923 7.91925C15.9183 7.97992 15.9371 8.02938 15.9504 8.06681C15.9571 8.08552 15.9623 8.10121 15.9663 8.11378L15.9714 8.13026L15.9734 8.13672L15.9742 8.1395L15.9746 8.14078C15.9746 8.14078 15.9749 8.14198 15.3739 8.31368L15.9749 8.14198C16.0697 8.47388 15.8775 8.8198 15.5457 8.91463C15.2166 9.00865 14.8737 8.82052 14.7755 8.4938L14.7724 8.48482C14.7679 8.4723 14.7587 8.44765 14.7433 8.41164C14.7125 8.3397 14.6566 8.22201 14.5636 8.06485C14.3777 7.75089 14.0422 7.27652 13.4589 6.69323C12.8756 6.10993 12.4012 5.77435 12.0872 5.58854C11.9301 5.49552 11.8124 5.43961 11.7405 5.40877C11.7044 5.39335 11.6798 5.38415 11.6673 5.37971L11.6583 5.37663C11.3316 5.2784 11.1434 4.93552 11.2375 4.60645Z" fill="#1C274C"/>
</svg>
