<svg width="18" height="19" viewBox="0 0 18 19" fill="none" xmlns="http://www.w3.org/2000/svg">
<path d="M7.52819 4.28791L8.01495 5.16011C8.45423 5.94722 8.27789 6.97977 7.58604 7.67163C7.58603 7.67163 7.58603 7.67163 7.58603 7.67163C7.58592 7.67175 6.74694 8.51094 8.26839 10.0324C9.78918 11.5532 10.6283 10.7156 10.6291 10.7148C10.6292 10.7147 10.6292 10.7147 10.6292 10.7147C11.321 10.0229 12.3536 9.84656 13.1407 10.2858L14.0129 10.7726C15.2014 11.4359 15.3418 13.1027 14.2971 14.1474C13.6693 14.7752 12.9003 15.2636 12.0502 15.2959C10.6191 15.3501 8.18871 14.9879 5.75078 12.55C3.31285 10.1121 2.95066 7.6817 3.00491 6.2506C3.03714 5.40048 3.5256 4.63146 4.15335 4.0037C5.19807 2.95899 6.86488 3.09936 7.52819 4.28791Z" stroke="#64748B" stroke-linecap="round"/>
</svg>
