<svg width="15" height="15" viewBox="0 0 15 15" fill="none" xmlns="http://www.w3.org/2000/svg">
<path d="M4.24972 9.71787L3.78905 9.68056L4.10787 9.36998L1.06453 6.24587L5.24841 5.60511L5.51212 5.56473L5.6254 5.32319L7.49771 1.33119L9.37001 5.32415L9.48332 5.5658L9.74715 5.60613L13.931 6.24576L10.8876 9.36998L10.7117 9.55055L10.7522 9.79935L11.4717 14.2113L7.73997 12.1445L7.49777 12.0103L7.25555 12.1444L3.52375 14.2103L4.08345 10.778L4.24972 10.9487V9.71887V9.71787ZM11.4922 14.3374C11.4922 14.3374 11.4922 14.3373 11.4922 14.3372L11.4922 14.3373L11.4922 14.3374ZM3.50318 14.3364L3.5032 14.3363C3.50319 14.3364 3.50319 14.3364 3.50318 14.3364Z" stroke="#FDC300"/>
</svg>
