<svg width="54" height="55" viewBox="0 0 54 55" fill="none" xmlns="http://www.w3.org/2000/svg">
<path d="M50.2658 21.7586C49.5726 21.2932 48.9466 20.735 48.4053 20.0994C48.4455 19.2144 48.6233 18.3411 48.9326 17.511C49.5137 15.5434 50.2376 13.0946 48.8426 11.1785C47.4375 9.24711 44.8705 9.18227 42.8083 9.12957C41.9408 9.1642 41.073 9.07093 40.2326 8.85267C39.7706 8.12792 39.4178 7.33913 39.1856 6.51153C38.4975 4.5519 37.6404 2.11288 35.3447 1.36687C33.1173 0.642915 31.1182 2.01837 29.3556 3.22791C28.6472 3.79349 27.852 4.24055 27.0006 4.55181C26.1488 4.2409 25.3531 3.79376 24.6447 3.22791C22.882 2.01731 20.8824 0.646193 18.6554 1.36687C16.3604 2.11288 15.5035 4.55066 14.8146 6.51074C14.5829 7.33417 14.234 8.12004 13.7786 8.84417C12.9356 9.06907 12.0635 9.165 11.1918 9.12877C9.12965 9.18139 6.56272 9.24632 5.15759 11.1776C3.76257 13.0948 4.48634 15.5436 5.0676 17.5113C5.3732 18.3371 5.55266 19.2041 5.59987 20.0833C5.06096 20.7279 4.43258 21.2922 3.73387 21.7587C2.07 23.0276 0 24.6073 0 27.0518C0 29.4963 2.07 31.0761 3.73422 32.345C4.42735 32.8104 5.05343 33.3687 5.59473 34.0043C5.55452 34.8893 5.37665 35.7625 5.06742 36.5927C4.48626 38.5603 3.76239 41.0092 5.15742 42.9252C6.56254 44.8565 9.12947 44.9214 11.1917 44.9742C12.0592 44.9395 12.927 45.0328 13.7674 45.2511C14.2294 45.9758 14.5822 46.7647 14.8144 47.5922C15.5033 49.5522 16.3602 51.9909 18.6557 52.7371C19.0624 52.8704 19.4877 52.9383 19.9157 52.9382C21.6434 52.9382 23.221 51.8538 24.6449 50.8761C25.3532 50.3103 26.1485 49.8632 26.9999 49.5518C27.8517 49.8627 28.6474 50.3099 29.356 50.8757C31.1187 52.0863 33.1177 53.4564 35.3452 52.7368C37.6402 51.9908 38.4971 49.553 39.186 47.5929C39.4177 46.7695 39.7666 45.9836 40.222 45.2595C41.065 45.0346 41.9371 44.9387 42.8089 44.9749C44.871 44.9223 47.4379 44.8573 48.843 42.926C50.238 41.0089 49.5143 38.56 48.933 36.5923C48.6274 35.7666 48.448 34.8996 48.4007 34.0203C48.9397 33.3757 49.568 32.8115 50.2668 32.3449C51.9299 31.0761 53.9999 29.4963 53.9999 27.0518C54 24.6073 51.93 23.0276 50.2658 21.7586ZM37.0284 23.0177L25.7783 34.2676C24.9 35.1463 23.4757 35.1465 22.5971 34.2682C22.5969 34.268 22.5967 34.2678 22.5966 34.2676L16.9715 28.6426C16.0818 27.7752 16.0637 26.3506 16.9311 25.4609C17.7986 24.5711 19.2231 24.553 20.1129 25.4205C20.1265 25.4338 20.14 25.4472 20.1533 25.4609L24.1874 29.4951L33.8466 19.8358C34.7141 18.9461 36.1386 18.9281 37.0284 19.7955C37.9181 20.663 37.9361 22.0875 37.0687 22.9773C37.0554 22.991 37.0419 23.0044 37.0284 23.0177Z" fill="#059669"/>
</svg>
