<svg width="33" height="33" viewBox="0 0 33 33" fill="none" xmlns="http://www.w3.org/2000/svg">
<path fill-rule="evenodd" clip-rule="evenodd" d="M14.232 5.49609H19.5752C24.6129 5.49609 27.1317 5.49609 28.6966 7.05819C29.8682 8.22754 30.1627 9.93039 30.2368 12.822C30.2463 13.1927 29.942 13.489 29.5826 13.583C28.436 13.8828 27.59 14.9242 27.59 16.1628C27.59 17.4013 28.436 18.4427 29.5826 18.7425C29.942 18.8365 30.2463 19.1328 30.2368 19.5035C30.1627 22.3951 29.8682 24.098 28.6966 25.2673C27.1317 26.8294 24.6129 26.8294 19.5752 26.8294H14.232C9.19443 26.8294 6.67563 26.8294 5.11064 25.2673C3.93913 24.098 3.64458 22.3951 3.57053 19.5035C3.56103 19.1328 3.86525 18.8365 4.22466 18.7425C5.3713 18.4427 6.21725 17.4013 6.21725 16.1628C6.21725 14.9242 5.3713 13.8828 4.22466 13.583C3.86525 13.489 3.56103 13.1927 3.57053 12.822C3.64458 9.93039 3.93913 8.22754 5.11064 7.05819C6.67563 5.49609 9.19443 5.49609 14.232 5.49609ZM18.1758 13.7613L18.0445 13.5261C17.5369 12.6172 17.2831 12.1628 16.9036 12.1628C16.5242 12.1628 16.2704 12.6172 15.7628 13.5261L15.6315 13.7613C15.4872 14.0195 15.4151 14.1487 15.3027 14.2339C15.1902 14.3191 15.0502 14.3507 14.7701 14.414L14.5151 14.4716C13.5294 14.6942 13.0365 14.8055 12.9193 15.1819C12.802 15.5582 13.138 15.9504 13.81 16.7347L13.9838 16.9376C14.1748 17.1605 14.2703 17.272 14.3132 17.4098C14.3562 17.5477 14.3417 17.6964 14.3129 17.9938L14.2866 18.2645C14.185 19.311 14.1342 19.8342 14.4412 20.0668C14.7481 20.2995 15.2096 20.0874 16.1325 19.6632L16.3713 19.5535C16.6335 19.433 16.7646 19.3727 16.9036 19.3727C17.0426 19.3727 17.1738 19.433 17.436 19.5535L17.6748 19.6632C18.5977 20.0874 19.0592 20.2995 19.3661 20.0668C19.6731 19.8342 19.6223 19.311 19.5207 18.2645L19.4944 17.9938C19.4656 17.6964 19.4511 17.5477 19.4941 17.4098C19.537 17.272 19.6325 17.1605 19.8235 16.9376L19.9973 16.7347C20.6693 15.9504 21.0053 15.5582 20.888 15.1819C20.7708 14.8055 20.2779 14.6942 19.2922 14.4716L19.0372 14.414C18.7571 14.3507 18.6171 14.3191 18.5046 14.2339C18.3922 14.1487 18.3201 14.0195 18.1758 13.7613Z" fill="#6E360E"/>
</svg>
