<svg width="40" height="40" viewBox="0 0 40 40" fill="none" xmlns="http://www.w3.org/2000/svg">
<mask id="mask0_941_20300" style="mask-type:luminance" maskUnits="userSpaceOnUse" x="0" y="0" width="40" height="40">
<path d="M0 40H40V0H0V40Z" fill="white"/>
</mask>
<g mask="url(#mask0_941_20300)">
<path d="M34.7326 32.4471C33.7563 31.4708 32.1734 31.4708 31.1971 32.4471C30.2208 33.4234 30.2208 35.0063 31.1971 35.9826C32.1734 36.959 33.7563 36.959 34.7326 35.9826C35.709 35.0063 35.709 33.4234 34.7326 32.4471Z" stroke="#B8B4B4" stroke-width="2" stroke-miterlimit="10" stroke-linecap="round" stroke-linejoin="round"/>
<path d="M8.80295 4.0174C7.82662 3.04107 6.24373 3.04107 5.2674 4.0174C4.29107 4.99373 4.29107 6.57662 5.2674 7.55295C6.24373 8.52928 7.82662 8.52928 8.80295 7.55295C9.77928 6.57662 9.77928 4.99373 8.80295 4.0174Z" stroke="#B8B4B4" stroke-width="2" stroke-miterlimit="10" stroke-linecap="round" stroke-linejoin="round"/>
<path d="M16.2109 1.15492C17.4363 0.909844 18.7036 0.78125 20.001 0.78125C30.6152 0.78125 39.2198 9.38578 39.2198 20C39.2198 24.6335 37.5798 28.8838 34.8489 32.2028" stroke="#B8B4B4" stroke-width="2" stroke-miterlimit="10" stroke-linecap="round" stroke-linejoin="round"/>
<path d="M23.8266 38.8374C22.5899 39.0873 21.3103 39.2184 20 39.2184C9.38578 39.2184 0.78125 30.6139 0.78125 19.9997C0.78125 15.3662 2.42125 11.1159 5.15211 7.79688" stroke="#B8B4B4" stroke-width="2" stroke-miterlimit="10" stroke-linecap="round" stroke-linejoin="round"/>
<path d="M19.9994 14.3258C16.8656 14.3258 14.3252 16.8662 14.3252 20C14.3252 23.1337 16.8656 25.6741 19.9994 25.6741C23.1331 25.6741 25.6736 23.1337 25.6736 20C25.6736 16.8662 23.1331 14.3258 19.9994 14.3258ZM31.3146 22.4495C31.017 23.8348 30.4719 25.1281 29.7271 26.2805L31.224 27.7775L27.7686 31.2304L26.2729 29.7347C25.1205 30.4795 23.8272 31.0245 22.4419 31.3221V33.4375H17.5569V31.3221C16.1716 31.0245 14.8783 30.4795 13.7259 29.7347L12.2302 31.2304L8.77477 27.7775L10.2716 26.2805C9.52687 25.1281 8.9818 23.8348 8.68414 22.4495H6.5632L6.56055 17.5645H8.68406C8.98172 16.1792 9.5268 14.8859 10.2716 13.7334L8.76898 12.2308L12.2219 8.77531L13.7257 10.2792C14.8782 9.53438 16.1716 8.9893 17.5569 8.69164V6.5625H22.4419V8.69164C23.8272 8.9893 25.1205 9.53438 26.273 10.2792L27.7769 8.77531L31.2298 12.2308L29.7272 13.7334C30.472 14.8859 31.017 16.1792 31.3147 17.5645H33.4382V22.4495H31.3146Z" stroke="#B8B4B4" stroke-width="2" stroke-miterlimit="10" stroke-linecap="round" stroke-linejoin="round"/>
</g>
</svg>
