<svg width="46" height="40" viewBox="0 0 46 40" fill="none" xmlns="http://www.w3.org/2000/svg">
<path d="M9.81002 26.104C9.81002 24.9762 8.89227 24.0586 7.76419 24.0586H2.04583C0.917752 24.0587 0 24.9762 0 26.104C0 27.2319 0.917752 28.1495 2.04583 28.1495H7.76428C8.89236 28.1495 9.81002 27.2319 9.81002 26.104ZM7.76428 26.8021H2.04583C1.66085 26.8021 1.34765 26.489 1.34765 26.104C1.34765 25.719 1.66076 25.406 2.04583 25.406H7.76428C8.14926 25.406 8.46246 25.719 8.46246 26.104C8.46246 26.489 8.14926 26.8021 7.76428 26.8021Z" fill="#B8B4B4"/>
<path d="M31.9619 7.49013V4.51596H32.3478C33.3144 4.51596 34.1008 3.7297 34.1008 2.76325V1.75261C34.1008 0.786255 33.3144 0 32.3478 0H26.9728C26.0063 0 25.2199 0.786255 25.2199 1.75261V2.76325C25.2199 3.7297 26.0063 4.51596 26.9728 4.51596H27.3592V7.48824C23.9006 7.97312 20.7098 9.54914 18.1816 12.05H11.1641C10.036 12.05 9.11822 12.9676 9.11822 14.0955C9.11822 15.2233 10.036 16.1409 11.1641 16.1409H15.1606C14.8378 16.7604 14.5539 17.3996 14.3139 18.0544H2.04583C0.917752 18.0543 0 18.9719 0 20.0997C0 21.2274 0.917752 22.1451 2.04583 22.1451H16.3161C16.2588 22.6473 16.2285 23.154 16.2285 23.6632C16.2285 30.4159 21.2737 36.1439 27.9641 36.9871C27.9927 36.9907 28.021 36.9925 28.0492 36.9925C28.3837 36.9925 28.6738 36.7436 28.7169 36.403C28.7634 36.0339 28.5018 35.6969 28.1325 35.6503C22.1145 34.8919 17.5762 29.7386 17.5762 23.6633C17.5762 20.9298 18.5076 18.2712 20.2044 16.1409H21.9956C23.1237 16.1409 24.0414 15.2233 24.0414 14.0955C24.0414 13.7361 23.948 13.3984 23.7846 13.1047C25.5749 12.1061 27.5899 11.5806 29.6602 11.5806C36.3238 11.5806 41.745 17.0008 41.745 23.6633C41.745 29.7684 37.1814 34.9247 31.1297 35.6575C30.7603 35.7022 30.497 36.0379 30.5418 36.4073C30.5832 36.7493 30.8738 37.0001 31.2099 37.0001C31.2369 37.0001 31.2642 36.9984 31.2917 36.9951C38.0194 36.1806 43.0928 30.4491 43.0928 23.6633C43.0928 16.2579 37.067 10.2332 29.6602 10.2332C27.1936 10.2332 24.797 10.9046 22.7025 12.176C22.4821 12.0947 22.244 12.0501 21.9957 12.0501H20.1928C22.4609 10.1913 25.1883 9.05401 28.1019 8.7548H28.1021C28.6162 8.70198 29.136 8.67476 29.6602 8.67476C30.1846 8.67476 30.7028 8.70207 31.2135 8.75489C31.2166 8.75525 31.2196 8.75561 31.2226 8.75588C38.7577 9.53953 44.6523 15.9259 44.6523 23.6632C44.6523 31.9284 37.9268 38.6526 29.6601 38.6526C21.7544 38.6526 15.1819 32.4769 14.6973 24.593C14.6745 24.2216 14.3548 23.9409 13.9834 23.9619C13.6119 23.9848 13.3294 24.3043 13.3522 24.6756C13.3677 24.9288 13.3896 25.1804 13.4165 25.4302H12.0208C11.6486 25.4302 11.347 25.7317 11.347 26.1039C11.347 26.476 11.6486 26.7776 12.0208 26.7776H13.6197C13.8408 27.9206 14.1815 29.0197 14.6271 30.0627H11.1641C10.0361 30.0627 9.11831 30.9803 9.11831 32.1082C9.11831 33.236 10.0361 34.1536 11.1641 34.1536H14.1751C15.0678 34.1536 15.8284 33.5787 16.107 32.7799C19.0545 37.1446 24.0488 40 29.6602 40C38.6699 40 46 32.6713 46 23.6632C45.9999 15.4366 39.8855 8.61206 31.9619 7.49013ZM2.04583 20.7977C1.66094 20.7977 1.34765 20.4846 1.34765 20.0997C1.34765 19.7148 1.66085 19.4016 2.04583 19.4016H15.8939C16.2788 19.4016 16.592 19.7148 16.592 20.0997C16.592 20.4846 16.2788 20.7977 15.8939 20.7977H2.04583ZM17.2373 18.5591C16.9387 18.2906 16.332 18.0226 15.7587 18.0543C16.0254 17.3959 16.3394 16.7558 16.6981 16.1408H18.5338C18.0188 16.9025 17.5847 17.7132 17.2373 18.5591ZM21.9955 13.3974C22.3804 13.3974 22.6937 13.7105 22.6937 14.0955C22.6937 14.4804 22.3805 14.7935 21.9955 14.7935H11.164C10.779 14.7935 10.4658 14.4804 10.4658 14.0955C10.4658 13.7105 10.7789 13.3974 11.164 13.3974H21.9955ZM30.6142 7.35583C30.2983 7.3376 29.9804 7.32727 29.6601 7.32727C29.3407 7.32727 29.023 7.33742 28.7068 7.35547V4.51596H30.6142V7.35583ZM26.9728 3.16855C26.7494 3.16855 26.5676 2.98674 26.5676 2.76325V1.75261C26.5676 1.52921 26.7493 1.3474 26.9728 1.3474H32.3478C32.5713 1.3474 32.7531 1.52912 32.7531 1.75261V2.76325C32.7531 2.98665 32.5714 3.16855 32.3478 3.16855H26.9728ZM14.1749 32.8062H11.164C10.7791 32.8062 10.4658 32.4932 10.4658 32.1082C10.4658 31.7232 10.779 31.4101 11.164 31.4101H14.1749C14.5598 31.4101 14.8731 31.7232 14.8731 32.1082C14.8731 32.4932 14.5599 32.8062 14.1749 32.8062Z" fill="#B8B4B4"/>
<path d="M0.673827 15.0076H6.78121C7.15343 15.0076 7.45504 14.706 7.45504 14.3339C7.45504 13.9617 7.15343 13.6602 6.78121 13.6602H0.673827C0.301605 13.6602 0 13.9617 0 14.3339C0 14.706 0.301605 15.0076 0.673827 15.0076Z" fill="#B8B4B4"/>
<path d="M6.78034 31.4336H3.72656C3.35434 31.4336 3.05273 31.7351 3.05273 32.1073C3.05273 32.4794 3.35434 32.781 3.72656 32.781H6.78025C7.15248 32.781 7.45408 32.4794 7.45408 32.1073C7.45408 31.7351 7.15248 31.4336 6.78034 31.4336Z" fill="#B8B4B4"/>
<path d="M35.4922 19.1328C35.12 19.1328 34.8184 19.4344 34.8184 19.8065V24.7544C34.8184 25.1265 35.12 25.4281 35.4922 25.4281C35.8644 25.4281 36.166 25.1265 36.166 24.7544V23.056C36.166 22.5122 36.4021 22.1324 36.7403 22.1324C36.8293 22.1324 36.9452 22.1421 36.9915 22.1887C37.019 22.2163 37.1557 22.3876 37.1522 23.0586L37.1585 24.757C37.16 25.1282 37.4613 25.4282 37.8323 25.4282H37.8349C38.207 25.4267 38.5075 25.124 38.5062 24.7519L38.4999 23.0596C38.5044 22.2008 38.3287 21.6222 37.947 21.2385C37.6476 20.9376 37.2416 20.7851 36.7403 20.7851C36.5377 20.7851 36.3453 20.8171 36.166 20.8767V19.8067C36.166 19.4345 35.8644 19.1328 35.4922 19.1328Z" fill="#B8B4B4"/>
<path d="M32.4877 20.2536C32.444 19.7279 32.1328 19.3008 31.6951 19.1652C31.4877 19.1012 30.9516 19.0176 30.454 19.6281C30.0293 20.1489 27.9252 23.9499 27.5076 24.7066C27.3925 24.9152 27.3962 25.1693 27.5174 25.3746C27.6386 25.5798 27.8593 25.7058 28.0976 25.7058H31.1358C31.1319 26.2422 31.1279 26.7582 31.1238 27.2194C31.1207 27.5914 31.4197 27.8956 31.7919 27.8988H31.7977C32.1672 27.8988 32.4682 27.6011 32.4715 27.2309C32.4738 26.954 32.4785 26.394 32.4836 25.7057H32.7645C33.1367 25.7057 33.4383 25.4042 33.4383 25.032C33.4383 24.6599 33.1367 24.3583 32.7645 24.3583H32.4927C32.5036 22.5345 32.5101 20.5222 32.4877 20.2536ZM31.1447 24.3583H29.242C29.9877 23.0212 30.7254 21.7276 31.1544 21.0158C31.1573 21.7628 31.1525 23.0379 31.1447 24.3583Z" fill="#B8B4B4"/>
<path d="M24.5021 23.3197C23.3231 25.0039 22.6193 25.9254 22.2411 26.4205C21.7859 27.0165 21.6154 27.2394 21.7337 27.6235C21.8019 27.8451 21.9703 28.0153 22.1957 28.0905C22.2851 28.1202 22.3899 28.1552 23.8243 28.1552C24.3869 28.1552 25.154 28.1498 26.2046 28.1366C26.5767 28.132 26.8745 27.8266 26.8698 27.4545C26.8651 27.0824 26.5597 26.7807 26.1875 26.7894C25.3006 26.8004 24.3515 26.8072 23.6407 26.8063C24.0597 26.2515 24.6928 25.3972 25.6062 24.0923C26.0973 23.3576 26.5096 22.6204 26.5549 21.8055C26.5549 20.3856 25.3995 19.2305 23.9793 19.2305C22.7513 19.2305 21.6886 20.1039 21.4522 21.3072C21.3805 21.6722 21.6184 22.0264 21.9835 22.0981C22.3485 22.1692 22.7028 21.9319 22.7746 21.5669C22.8872 20.9938 23.3939 20.5779 23.9793 20.5779C24.6436 20.5779 25.1864 21.1079 25.2066 21.7672C25.1662 22.2319 24.9065 22.7114 24.5021 23.3197Z" fill="#B8B4B4"/>
</svg>
