<svg width="37" height="40" viewBox="0 0 37 40" fill="none" xmlns="http://www.w3.org/2000/svg">
<path d="M27.9045 7.32586C27.6594 7.09977 27.2664 7.10383 27.0268 7.33484C26.787 7.56578 26.7913 7.93633 27.0363 8.16242C29.3805 10.3257 30.6859 13.2155 30.7117 16.2994C30.7632 22.6004 25.1816 27.9049 18.499 27.9049C15.6559 27.9048 13.0331 26.9821 10.9531 25.4359C11.216 25.3679 11.4092 25.1409 11.4092 24.8714V23.7193C12.1918 23.7853 13.3042 23.9323 13.792 24.2855C14.1895 24.5731 14.6803 24.7318 15.1742 24.7321L23.6504 24.737C25.1508 24.6051 26.1799 23.1461 25.3056 21.8745C26.1626 21.3232 26.4176 20.106 25.8208 19.2895C26.6289 18.7229 26.851 17.5473 26.2731 16.7526C27.7073 15.7541 27.0347 13.4041 25.1081 13.4028L19.7935 13.3998C20.2871 11.7472 20.2125 10.0202 19.5717 8.035C18.9806 6.20422 15.9254 6.66227 16.032 8.62562C16.1464 10.7269 14.8099 11.557 13.1178 12.6079C12.5475 12.9621 11.9655 13.3236 11.4092 13.7505V12.7786C11.4092 12.4553 11.1314 12.1934 10.7886 12.1934H7.12372C8.91874 7.87586 13.493 4.90969 18.4057 4.87398C20.7517 4.85617 23.038 5.47203 25.0146 6.65352C25.3043 6.82648 25.6875 6.74555 25.8711 6.4725C26.0546 6.19945 25.9687 5.83789 25.6792 5.66484C23.5302 4.38055 21.0508 3.70312 18.5018 3.70312C11.1437 3.70312 4.99035 9.54906 5.04727 16.4874C5.10435 23.3566 11.208 29.0757 18.4989 29.0753C25.8662 29.0753 32.0098 23.2403 31.9529 16.2902C31.9244 12.8923 30.4867 9.70867 27.9045 7.32586ZM11.4095 15.3414C12.118 14.6305 12.9724 14.0999 13.8006 13.5855C15.5812 12.4796 17.4224 11.336 17.2716 8.56578C17.2419 8.01898 18.168 7.70664 18.3841 8.37601C19.0431 10.4174 19.0332 12.1319 18.3529 13.7713C18.2473 14.2292 18.4398 14.4954 18.9304 14.5698L25.1073 14.5734C25.508 14.5736 25.8339 14.8812 25.8336 15.2591C25.8334 15.6369 25.5073 15.9441 25.1069 15.9441H25.1064L23.4302 15.943H23.4298C23.0872 15.943 22.8094 16.2048 22.8092 16.5279C22.8089 16.8512 23.0867 17.1133 23.4294 17.1135L24.6566 17.1143C25.054 17.1183 25.3759 17.4245 25.3756 17.8C25.3754 18.1777 25.0493 18.4849 24.6488 18.4849H24.6484L23.4283 18.4842H23.428C23.0854 18.4842 22.8075 18.746 22.8074 19.0691C22.8072 19.3923 23.0849 19.6545 23.4276 19.6547L24.2088 19.6552C24.6053 19.6599 24.9262 19.9659 24.926 20.3409C24.9257 20.7186 24.5996 21.0258 24.1992 21.0258H24.1987L22.9788 21.0251H22.9784C22.6358 21.0251 22.358 21.2869 22.3577 21.6099C22.3575 21.9332 22.6353 22.1953 22.978 22.1955L23.6518 22.1959C24.0946 22.2355 24.3367 22.464 24.378 22.8816C24.3777 23.2877 24.022 23.512 23.6509 23.5666L15.1747 23.5617C14.9523 23.5616 14.7296 23.489 14.5475 23.3571C13.8211 22.8312 12.604 22.638 11.4092 22.5449V15.3414H11.4095ZM6.71337 13.364H10.1679V24.2862H9.62056C7.57732 22.2446 6.3137 19.5002 6.2886 16.4784C6.27982 15.4123 6.42472 14.3666 6.71337 13.364Z" fill="#B8B4B4"/>
<path d="M35.9795 15.0676L33.9849 12.3904C33.7878 12.1259 33.6865 11.8152 33.6919 11.4919L33.747 8.22039C33.7667 7.05094 32.9915 6.01047 31.8181 5.6314L28.5356 4.57117C28.2127 4.46687 27.9382 4.27297 27.7414 4.01031L25.7508 1.23906C25.0359 0.359061 23.7131 -0.15383 22.5537 0.210545L19.2452 1.26781C18.92 1.36055 18.5782 1.35461 18.2616 1.25234L14.9246 0.142967C13.7659 -0.231252 12.4369 0.145467 11.7101 1.08226L9.67955 3.74062C9.474 3.99687 9.19322 4.18219 8.86721 4.27672L5.55075 5.23828C4.36517 5.58203 3.5554 6.59875 3.53568 7.76812L3.48059 11.0396C3.47512 11.363 3.36344 11.6704 3.15748 11.9289L1.07381 14.545C0.328831 15.4802 0.307372 16.7516 1.02046 17.7087L3.01506 20.386C3.21216 20.6505 3.31348 20.9611 3.30801 21.2845L3.253 24.5559C3.23328 25.7254 4.00842 26.7659 5.18182 27.1448L8.4644 28.2052C8.8576 28.3541 9.15578 28.588 9.35909 28.907L8.49331 30.3211C8.3219 30.601 8.42364 30.9589 8.72048 31.1205C9.03432 31.2739 9.31692 31.2025 9.56828 30.9063L10.13 29.9889L11.2476 31.5574C11.8872 32.4622 13.3465 32.9457 14.4497 32.5866L16.3991 31.9508L12.5883 38.1752L11.0486 35.2384C10.9375 35.0266 10.7038 34.8986 10.4523 34.9137L6.98537 35.1244L8.21361 33.1186C8.38503 32.8387 8.28337 32.4808 7.98644 32.3191C7.68959 32.1575 7.31006 32.2534 7.13864 32.5334L5.33053 35.4859C5.07362 35.9912 5.29085 36.3618 5.90791 36.3626L10.1192 36.1067L11.9896 39.6742C12.2109 40.0961 12.8375 40.1094 13.0835 39.7074L18.1419 31.4449C18.4137 31.4418 18.6724 31.4884 18.918 31.5849L23.8916 39.7074C24.1377 40.1092 24.7641 40.0962 24.9855 39.6742L26.8559 36.1067L31.0671 36.3626C31.6315 36.3911 31.9108 35.9716 31.6445 35.4859L29.8414 32.5416C29.67 32.2618 29.2905 32.1659 28.9935 32.3275C28.6966 32.4892 28.595 32.8471 28.7664 33.127L29.9896 35.1241L26.5228 34.9135C26.2735 34.8983 26.0377 35.0263 25.9266 35.2381L24.3867 38.1752L20.728 32.2C21.3578 32.4726 22.2448 32.7872 22.9534 32.7872C23.8331 32.7872 24.6827 32.4017 25.2364 31.7065L26.7273 29.7957L27.4127 30.9154C27.664 31.2116 27.9466 31.283 28.2604 31.1297C28.5574 30.9681 28.6591 30.6102 28.4877 30.3303L27.5522 28.802C27.7199 28.6649 27.9164 28.5621 28.1328 28.4995L31.4493 27.5379C32.6349 27.1941 33.4447 26.1774 33.4644 25.008L33.5195 21.7365C33.5249 21.4133 33.6365 21.1059 33.8426 20.8473L35.9263 18.2311C36.6712 17.2959 36.6926 16.0246 35.9795 15.0676ZM34.9337 17.5283L32.85 20.1444C32.4856 20.6019 32.2878 21.1461 32.2783 21.718L32.2232 24.9895C32.212 25.6505 31.7545 26.2249 31.0845 26.4191L27.768 27.3807C27.0992 27.5214 26.6112 27.9339 26.2766 28.3984L24.2403 31.0082C23.8204 31.5355 23.0944 31.7471 22.4324 31.5351L19.1553 30.4213C18.5622 30.2266 17.7864 30.2461 17.3618 30.3981L14.0551 31.4766C13.3897 31.6653 12.676 31.4341 12.2741 30.899L10.2846 28.1067C9.94939 27.6459 9.47682 27.3096 8.86688 27.0977L5.5843 26.0373C4.92126 25.8231 4.48315 25.2352 4.49433 24.5742L4.54935 21.3028C4.55904 20.7308 4.37975 20.1809 4.03096 19.7128L2.03619 17.0357C1.63321 16.4948 1.64531 15.7764 2.06635 15.2479L4.15001 12.6318C4.51438 12.1745 4.71206 11.6302 4.72176 11.0581L4.77685 7.78664C4.78804 7.1257 5.24553 6.55125 5.91553 6.35703L9.232 5.39547C9.8479 5.20148 10.3316 4.87961 10.6828 4.42984L12.7133 1.77148C13.1349 1.24617 13.8611 1.03687 14.5171 1.24859L17.8541 2.35789C18.4763 2.54633 19.0699 2.55344 19.6347 2.37922L22.9431 1.32195C23.6092 1.13226 24.3244 1.36383 24.7262 1.89992L26.7168 4.67117C27.0534 5.13008 27.5256 5.46586 28.1333 5.67844L31.4158 6.73867C32.0789 6.95297 32.517 7.54094 32.5058 8.2018L32.4507 11.4734C32.4412 12.0455 32.6204 12.5952 32.9692 13.0633L34.9638 15.7405C35.3668 16.2812 35.3547 16.9997 34.9337 17.5283Z" fill="#B8B4B4"/>
<path d="M8.21828 16.9752C7.87553 16.9752 7.59766 16.7131 7.59766 16.3899C7.59766 16.0667 7.87553 15.8047 8.21828 15.8047C8.56103 15.8047 8.83891 16.0667 8.83891 16.3899C8.83891 16.7132 8.56111 16.9752 8.21828 16.9752Z" fill="#B8B4B4"/>
</svg>
