<svg width="40" height="41" viewBox="0 0 40 41" fill="none" xmlns="http://www.w3.org/2000/svg">
<rect x="0.5" y="1" width="39" height="39" stroke="#DDDADA"/>
<path d="M23.1071 12.4375C22.7965 12.4375 22.5446 12.6893 22.5446 13C22.5446 13.3107 22.7965 13.5625 23.1071 13.5625H26.142L21.8523 17.8523C21.6326 18.0719 21.6326 18.4281 21.8523 18.6477C22.0719 18.8674 22.4281 18.8674 22.6477 18.6477L26.9375 14.358V17.3929C26.9375 17.7035 27.1893 17.9554 27.5 17.9554C27.8107 17.9554 28.0625 17.7035 28.0625 17.3929V13C28.0625 12.6893 27.8107 12.4375 27.5 12.4375H23.1071Z" fill="white"/>
<path d="M16.8929 28.5625C17.2035 28.5625 17.4554 28.3107 17.4554 28C17.4554 27.6893 17.2035 27.4375 16.8929 27.4375H13.858L18.1477 23.1477C18.3674 22.9281 18.3674 22.5719 18.1477 22.3523C17.9281 22.1326 17.5719 22.1326 17.3523 22.3523L13.0625 26.642V23.6071C13.0625 23.2965 12.8107 23.0446 12.5 23.0446C12.1893 23.0446 11.9375 23.2965 11.9375 23.6071V28C11.9375 28.3107 12.1893 28.5625 12.5 28.5625H16.8929Z" fill="white"/>
</svg>
