<svg width="40" height="41" viewBox="0 0 40 41" fill="none" xmlns="http://www.w3.org/2000/svg">
<rect x="0.5" y="0.666016" width="39" height="39" stroke="#DDDADA"/>
<path d="M23.1071 12.1035C22.7965 12.1035 22.5446 12.3554 22.5446 12.666C22.5446 12.9767 22.7965 13.2285 23.1071 13.2285H26.142L21.8523 17.5183C21.6326 17.7379 21.6326 18.0941 21.8523 18.3138C22.0719 18.5334 22.4281 18.5334 22.6477 18.3138L26.9375 14.024V17.0589C26.9375 17.3695 27.1893 17.6214 27.5 17.6214C27.8107 17.6214 28.0625 17.3695 28.0625 17.0589V12.666C28.0625 12.3554 27.8107 12.1035 27.5 12.1035H23.1071Z" fill="#666666"/>
<path d="M16.8929 28.2285C17.2035 28.2285 17.4554 27.9767 17.4554 27.666C17.4554 27.3554 17.2035 27.1035 16.8929 27.1035H13.858L18.1477 22.8138C18.3674 22.5941 18.3674 22.2379 18.1477 22.0183C17.9281 21.7986 17.5719 21.7986 17.3523 22.0183L13.0625 26.308V23.2732C13.0625 22.9625 12.8107 22.7107 12.5 22.7107C12.1893 22.7107 11.9375 22.9625 11.9375 23.2732V27.666C11.9375 27.9767 12.1893 28.2285 12.5 28.2285H16.8929Z" fill="#666666"/>
</svg>
