<svg width="16" height="16" viewBox="0 0 16 16" fill="none" xmlns="http://www.w3.org/2000/svg">
<path d="M9.63751 2.40264C9.6502 2.35502 9.67216 2.31037 9.70212 2.27124C9.73209 2.23212 9.76947 2.19928 9.81214 2.17461C9.8548 2.14994 9.90191 2.13392 9.95077 2.12747C9.99963 2.12102 10.0493 2.12426 10.0969 2.13702C11.0026 2.37328 11.829 2.84674 12.4909 3.50863C13.1528 4.17052 13.6262 4.9969 13.8625 5.90264C13.8753 5.95025 13.8785 5.9999 13.8721 6.04876C13.8656 6.09762 13.8496 6.14472 13.8249 6.18739C13.8002 6.23005 13.7674 6.26743 13.7283 6.2974C13.6892 6.32736 13.6445 6.34932 13.5969 6.36202C13.5653 6.37043 13.5327 6.37463 13.5 6.37452C13.4174 6.37457 13.3371 6.34733 13.2715 6.29704C13.206 6.24674 13.1589 6.17621 13.1375 6.09639C12.9347 5.31838 12.528 4.60854 11.9595 4.04001C11.391 3.47149 10.6811 3.06485 9.90313 2.86202C9.85551 2.84932 9.81086 2.82736 9.77173 2.7974C9.73261 2.76743 9.69977 2.73005 9.6751 2.68739C9.65043 2.64472 9.63441 2.59762 9.62796 2.54876C9.62151 2.4999 9.62475 2.45025 9.63751 2.40264ZM9.40313 4.86202C10.3125 5.10452 10.895 5.68702 11.1375 6.59639C11.1589 6.67621 11.206 6.74674 11.2715 6.79704C11.3371 6.84733 11.4174 6.87457 11.5 6.87452C11.5327 6.87463 11.5653 6.87043 11.5969 6.86202C11.6445 6.84932 11.6892 6.82736 11.7283 6.7974C11.7674 6.76743 11.8002 6.73005 11.8249 6.68739C11.8496 6.64472 11.8656 6.59762 11.8721 6.54876C11.8785 6.4999 11.8753 6.45025 11.8625 6.40264C11.55 5.23327 10.7663 4.44952 9.59688 4.13702C9.54928 4.12429 9.49963 4.12107 9.45078 4.12754C9.40194 4.134 9.35484 4.15002 9.31218 4.17469C9.22603 4.2245 9.1632 4.3065 9.13751 4.40264C9.11181 4.49878 9.12536 4.60119 9.17518 4.68734C9.22499 4.77349 9.30699 4.83632 9.40313 4.86202ZM14.3681 10.9245C14.2611 11.7415 13.8601 12.4916 13.2402 13.0345C12.6204 13.5774 11.824 13.876 11 13.8745C6.10626 13.8745 2.12501 9.89327 2.12501 4.99952C2.12343 4.17579 2.42177 3.37966 2.9643 2.75984C3.50683 2.14002 4.25645 1.73889 5.07313 1.63139C5.26113 1.60855 5.45147 1.64731 5.61556 1.74186C5.77964 1.83642 5.90863 1.98166 5.98313 2.15577L7.30188 5.09952C7.36011 5.23278 7.3842 5.37846 7.37198 5.52338C7.35976 5.6683 7.31161 5.80788 7.23188 5.92952C7.22384 5.9419 7.21508 5.95379 7.20563 5.96514L5.88876 7.53139C5.88076 7.54763 5.8766 7.56548 5.8766 7.58358C5.8766 7.60168 5.88076 7.61953 5.88876 7.63577C6.36751 8.61577 7.39501 9.63577 8.38876 10.1139C8.40535 10.1215 8.42347 10.1251 8.4417 10.1244C8.45992 10.1238 8.47775 10.1189 8.49376 10.1101L10.0369 8.79764C10.0479 8.78805 10.0596 8.77928 10.0719 8.77139C10.193 8.69066 10.3323 8.6414 10.4772 8.62809C10.6221 8.61478 10.7681 8.63782 10.9019 8.69514L13.8544 10.0183C14.0262 10.0944 14.1689 10.2238 14.2614 10.3874C14.3539 10.5509 14.3914 10.7399 14.3681 10.9264V10.9245ZM13.625 10.832C13.6271 10.8059 13.6209 10.7798 13.6074 10.7573C13.5938 10.7349 13.5735 10.7173 13.5494 10.707L10.5963 9.38389C10.5801 9.37767 10.5628 9.375 10.5456 9.37608C10.5283 9.37716 10.5115 9.38196 10.4963 9.39014L8.95376 10.7026C8.94251 10.712 8.93063 10.7208 8.91876 10.7289C8.79293 10.8128 8.64752 10.8627 8.49668 10.8736C8.34585 10.8846 8.19475 10.8562 8.05813 10.7914C6.91063 10.237 5.76688 9.10389 5.21251 7.96702C5.1473 7.83119 5.11828 7.68082 5.12824 7.53048C5.13821 7.38015 5.18682 7.23493 5.26938 7.10889C5.27743 7.09636 5.28641 7.08445 5.29626 7.07327L6.61251 5.50702C6.62003 5.49065 6.62392 5.47284 6.62392 5.45483C6.62392 5.43681 6.62003 5.41901 6.61251 5.40264L5.29626 2.45639C5.28757 2.43275 5.27194 2.41228 5.25142 2.39767C5.2309 2.38306 5.20644 2.37499 5.18126 2.37452H5.16688C4.53122 2.45907 3.94807 2.77211 3.52632 3.25516C3.10456 3.73821 2.87305 4.35826 2.87501 4.99952C2.87501 9.47952 6.52001 13.1245 11 13.1245C11.6414 13.1265 12.2615 12.8949 12.7445 12.473C13.2276 12.0511 13.5406 11.4678 13.625 10.832Z" fill="#E6EBFF"/>
</svg>
