<svg width="24" height="24" viewBox="0 0 24 24" fill="none" xmlns="http://www.w3.org/2000/svg">
<path d="M2.88874 16.5335V6.68555C2.54142 6.77749 2.19406 6.88988 1.86719 6.99202V19.4245C4.60928 18.6666 7.5231 18.8171 10.1725 19.8536C8.37207 18.0331 5.91911 17.007 3.35869 17.0034C3.1014 16.998 2.8942 16.7907 2.88874 16.5335Z" fill="white"/>
<path d="M3.84901 4L3.81836 16.1158C6.8255 16.2715 9.63009 17.6793 11.5516 19.9977V8.44382C9.79731 5.8641 6.96035 4.22741 3.84901 4Z" fill="white"/>
<path d="M21.1149 6.70703V16.5447C21.1095 16.802 20.9022 17.0092 20.645 17.0146C18.0903 17.0169 15.6432 18.0436 13.8516 19.8648V19.875C16.4923 18.8349 19.3987 18.6772 22.1365 19.4255V7.01345C21.8096 6.90111 21.4725 6.78877 21.1149 6.70703Z" fill="white"/>
<path d="M20.1938 4C17.07 4.20481 14.2176 5.84605 12.4707 8.44382V19.9977C14.3899 17.6819 17.1902 16.2743 20.1938 16.1158V4Z" fill="white"/>
</svg>
