<svg width="16" height="16" viewBox="0 0 16 16" fill="none" xmlns="http://www.w3.org/2000/svg">
<path d="M7 7.375C7 7.27554 7.03951 7.18016 7.10984 7.10984C7.18016 7.03951 7.27554 7 7.375 7H9.375C9.47446 7 9.56984 7.03951 9.64017 7.10984C9.71049 7.18016 9.75 7.27554 9.75 7.375C9.75 7.47446 9.71049 7.56984 9.64017 7.64016C9.56984 7.71049 9.47446 7.75 9.375 7.75H7.375C7.27554 7.75 7.18016 7.71049 7.10984 7.64016C7.03951 7.56984 7 7.47446 7 7.375ZM14.75 4.875V12.875C14.75 13.1071 14.6578 13.3296 14.4937 13.4937C14.3296 13.6578 14.1071 13.75 13.875 13.75H2.875C2.64294 13.75 2.42038 13.6578 2.25628 13.4937C2.09219 13.3296 2 13.1071 2 12.875V4.875C2 4.64294 2.09219 4.42038 2.25628 4.25628C2.42038 4.09219 2.64294 4 2.875 4H5.5V3.375C5.5 3.01033 5.64487 2.66059 5.90273 2.40273C6.16059 2.14487 6.51033 2 6.875 2H9.875C10.2397 2 10.5894 2.14487 10.8473 2.40273C11.1051 2.66059 11.25 3.01033 11.25 3.375V4H13.875C14.1071 4 14.3296 4.09219 14.4937 4.25628C14.6578 4.42038 14.75 4.64294 14.75 4.875ZM6.25 4H10.5V3.375C10.5 3.20924 10.4342 3.05027 10.3169 2.93306C10.1997 2.81585 10.0408 2.75 9.875 2.75H6.875C6.70924 2.75 6.55027 2.81585 6.43306 2.93306C6.31585 3.05027 6.25 3.20924 6.25 3.375V4ZM2.75 4.875V7.54938C4.47203 8.50114 6.40745 9.00027 8.375 9C10.3426 9.00032 12.2781 8.50097 14 7.54875V4.875C14 4.84185 13.9868 4.81005 13.9634 4.78661C13.9399 4.76317 13.9082 4.75 13.875 4.75H2.875C2.84185 4.75 2.81005 4.76317 2.78661 4.78661C2.76317 4.81005 2.75 4.84185 2.75 4.875ZM14 12.875V8.39812C12.258 9.28658 10.3304 9.74985 8.375 9.75C6.41959 9.75021 4.49195 9.28714 2.75 8.39875V12.875C2.75 12.9082 2.76317 12.9399 2.78661 12.9634C2.81005 12.9868 2.84185 13 2.875 13H13.875C13.9082 13 13.9399 12.9868 13.9634 12.9634C13.9868 12.9399 14 12.9082 14 12.875Z" fill="#E6EBFF"/>
</svg>
