<svg width="20" height="20" viewBox="0 0 20 20" fill="none" xmlns="http://www.w3.org/2000/svg">
<path d="M15.7435 12.7266L16.3261 9.56387C16.3388 9.49734 16.335 9.42872 16.3151 9.36399C16.2952 9.29926 16.2597 9.2404 16.2117 9.19256C16.1638 9.14471 16.1049 9.10934 16.0401 9.08954C15.9753 9.06973 15.9067 9.0661 15.8402 9.07895C15.5638 9.13721 15.2821 9.16661 14.9997 9.16668C13.9606 9.16664 12.959 8.77838 12.1913 8.07805C11.4237 7.37771 10.9453 6.41584 10.8502 5.38109C10.8414 5.27738 10.7941 5.18072 10.7176 5.11017C10.6411 5.03962 10.5409 5.00031 10.4368 5H4.57L4.50969 4.72859C4.448 4.45104 4.29351 4.20282 4.07173 4.02491C3.84995 3.847 3.57413 3.75002 3.28981 3.75H2.10516C1.89758 3.75 1.70524 3.8918 1.67188 4.09668C1.66174 4.15647 1.66477 4.21775 1.68076 4.27626C1.69674 4.33476 1.72529 4.38907 1.76441 4.4354C1.80354 4.48174 1.8523 4.51898 1.9073 4.54453C1.9623 4.57009 2.02221 4.58334 2.08286 4.58336H3.2895C3.38441 4.58293 3.47659 4.61508 3.55065 4.67443C3.62471 4.73379 3.67617 4.81676 3.69641 4.90949L5.95586 15.0775C5.62586 15.181 5.33617 15.3845 5.12683 15.6598C4.91749 15.9351 4.79883 16.2686 4.78727 16.6143C4.7757 16.9599 4.8718 17.3007 5.06227 17.5894C5.25274 17.878 5.52818 18.1004 5.85052 18.2258C6.17286 18.3511 6.52618 18.3733 6.86165 18.2891C7.19711 18.205 7.49815 18.0187 7.72316 17.756C7.94817 17.4934 8.08603 17.1673 8.11769 16.8229C8.14935 16.4785 8.07324 16.1328 7.89989 15.8335H13.1412C12.958 16.1511 12.8847 16.5203 12.9327 16.8839C12.9808 17.2474 13.1474 17.5849 13.4068 17.8441C13.6662 18.1033 14.0039 18.2696 14.3675 18.3173C14.7311 18.3649 15.1002 18.2913 15.4177 18.1078C15.7352 17.9243 15.9832 17.6411 16.1233 17.3023C16.2635 16.9634 16.2879 16.5878 16.1928 16.2336C16.0977 15.8795 15.8883 15.5666 15.5973 15.3436C15.3062 15.1205 14.9497 14.9998 14.583 15H6.79231L6.51454 13.75H14.5143C14.8065 13.75 15.0894 13.6476 15.314 13.4606C15.5386 13.2737 15.6906 13.0139 15.7435 12.7266ZM6.45801 17.2917C6.3344 17.2917 6.21356 17.255 6.11078 17.1863C6.008 17.1177 5.92789 17.0201 5.88059 16.9059C5.83328 16.7917 5.82091 16.666 5.84502 16.5447C5.86914 16.4235 5.92866 16.3121 6.01607 16.2247C6.10348 16.1373 6.21484 16.0778 6.33608 16.0537C6.45732 16.0296 6.58299 16.042 6.69719 16.0893C6.81139 16.1366 6.90901 16.2167 6.97768 16.3194C7.04636 16.4222 7.08301 16.5431 7.08301 16.6667C7.08301 16.8324 7.01717 16.9914 6.89995 17.1086C6.78274 17.2258 6.62377 17.2917 6.45801 17.2917ZM15.208 16.6667C15.208 16.7903 15.1714 16.9111 15.1027 17.0139C15.034 17.1167 14.9364 17.1968 14.8222 17.2441C14.708 17.2914 14.5823 17.3038 14.4611 17.2797C14.3398 17.2556 14.2285 17.196 14.1411 17.1086C14.0537 17.0212 13.9941 16.9098 13.97 16.7886C13.9459 16.6674 13.9583 16.5417 14.0056 16.4275C14.0529 16.3133 14.133 16.2157 14.2358 16.147C14.3386 16.0783 14.4594 16.0417 14.583 16.0417C14.7488 16.0417 14.9077 16.1075 15.025 16.2247C15.1422 16.3419 15.208 16.5009 15.208 16.6667Z" fill="#1A1A1A"/>
<path d="M14.9993 1.66602C14.3401 1.66602 13.6956 1.86151 13.1474 2.22778C12.5993 2.59405 12.172 3.11464 11.9198 3.72373C11.6675 4.33281 11.6014 5.00303 11.7301 5.64963C11.8587 6.29624 12.1762 6.89018 12.6423 7.35635C13.1085 7.82252 13.7024 8.13999 14.349 8.26861C14.9956 8.39722 15.6659 8.33121 16.2749 8.07892C16.884 7.82663 17.4046 7.39939 17.7709 6.85123C18.1372 6.30307 18.3327 5.6586 18.3327 4.99934C18.3326 4.11529 17.9815 3.26745 17.3563 2.64233C16.7312 2.01722 15.8834 1.66603 14.9993 1.66602ZM16.4577 5.41602H15.416V6.4577C15.4166 6.51275 15.4062 6.56737 15.3855 6.61839C15.3648 6.66941 15.3342 6.71582 15.2954 6.75494C15.2567 6.79406 15.2106 6.82511 15.1597 6.8463C15.1089 6.8675 15.0544 6.87841 14.9994 6.87841C14.9443 6.87841 14.8898 6.8675 14.839 6.8463C14.7882 6.82511 14.742 6.79406 14.7033 6.75494C14.6646 6.71582 14.6339 6.66941 14.6132 6.61839C14.5925 6.56737 14.5822 6.51275 14.5827 6.4577V5.41602H13.541C13.486 5.41655 13.4313 5.40617 13.3803 5.38546C13.3293 5.36476 13.2829 5.33416 13.2438 5.29542C13.2047 5.25667 13.1736 5.21056 13.1524 5.15974C13.1312 5.10893 13.1203 5.05441 13.1203 4.99936C13.1203 4.9443 13.1312 4.88978 13.1524 4.83897C13.1736 4.78815 13.2047 4.74204 13.2438 4.7033C13.2829 4.66455 13.3293 4.63395 13.3803 4.61325C13.4313 4.59255 13.486 4.58216 13.541 4.5827H14.5827V3.54102C14.5822 3.48596 14.5925 3.43134 14.6132 3.38032C14.6339 3.32931 14.6646 3.28289 14.7033 3.24377C14.742 3.20465 14.7882 3.1736 14.839 3.15241C14.8898 3.13121 14.9443 3.1203 14.9994 3.1203C15.0544 3.1203 15.1089 3.13121 15.1597 3.15241C15.2106 3.1736 15.2567 3.20465 15.2954 3.24377C15.3342 3.28289 15.3648 3.32931 15.3855 3.38032C15.4062 3.43134 15.4166 3.48596 15.416 3.54102V4.5827H16.4577C16.5675 4.58376 16.6725 4.62812 16.7497 4.70615C16.827 4.78417 16.8703 4.88954 16.8703 4.99936C16.8703 5.10917 16.827 5.21454 16.7497 5.29256C16.6725 5.37059 16.5675 5.41495 16.4577 5.41602H16.4577Z" fill="#1A1A1A"/>
</svg>
