<svg width="16" height="16" viewBox="0 0 16 16" fill="none" xmlns="http://www.w3.org/2000/svg">
<path d="M8 1.625C6.73915 1.625 5.50661 1.99889 4.45824 2.69938C3.40988 3.39988 2.59278 4.39551 2.11027 5.56039C1.62776 6.72527 1.50152 8.00707 1.7475 9.2437C1.99348 10.4803 2.60064 11.6162 3.4922 12.5078C4.38376 13.3994 5.51967 14.0065 6.7563 14.2525C7.99293 14.4985 9.27473 14.3722 10.4396 13.8897C11.6045 13.4072 12.6001 12.5901 13.3006 11.5418C14.0011 10.4934 14.375 9.26086 14.375 8C14.373 6.30985 13.7007 4.6895 12.5056 3.49439C11.3105 2.29927 9.69015 1.62698 8 1.625ZM8 13.625C6.88748 13.625 5.79995 13.2951 4.87492 12.677C3.94989 12.0589 3.22892 11.1804 2.80318 10.1526C2.37744 9.12476 2.26604 7.99376 2.48309 6.90262C2.70013 5.81147 3.23586 4.80919 4.02253 4.02252C4.8092 3.23585 5.81148 2.70012 6.90262 2.48308C7.99376 2.26604 9.12476 2.37743 10.1526 2.80318C11.1804 3.22892 12.0589 3.94989 12.677 4.87492C13.2951 5.79994 13.625 6.88748 13.625 8C13.6233 9.49134 13.0302 10.9211 11.9757 11.9756C10.9211 13.0302 9.49134 13.6233 8 13.625ZM10.375 9.25C10.375 9.68098 10.2038 10.0943 9.89905 10.399C9.59431 10.7038 9.18098 10.875 8.75 10.875H8.375V11.5C8.375 11.5995 8.33549 11.6948 8.26517 11.7652C8.19484 11.8355 8.09946 11.875 8 11.875C7.90055 11.875 7.80516 11.8355 7.73484 11.7652C7.66451 11.6948 7.625 11.5995 7.625 11.5V10.875H6.5C6.40055 10.875 6.30516 10.8355 6.23484 10.7652C6.16451 10.6948 6.125 10.5995 6.125 10.5C6.125 10.4005 6.16451 10.3052 6.23484 10.2348C6.30516 10.1645 6.40055 10.125 6.5 10.125H8.75C8.98207 10.125 9.20463 10.0328 9.36872 9.86872C9.53282 9.70462 9.625 9.48206 9.625 9.25C9.625 9.01794 9.53282 8.79538 9.36872 8.63128C9.20463 8.46719 8.98207 8.375 8.75 8.375H7.25C6.81903 8.375 6.4057 8.20379 6.10095 7.89905C5.79621 7.5943 5.625 7.18098 5.625 6.75C5.625 6.31902 5.79621 5.9057 6.10095 5.60095C6.4057 5.29621 6.81903 5.125 7.25 5.125H7.625V4.5C7.625 4.40054 7.66451 4.30516 7.73484 4.23484C7.80516 4.16451 7.90055 4.125 8 4.125C8.09946 4.125 8.19484 4.16451 8.26517 4.23484C8.33549 4.30516 8.375 4.40054 8.375 4.5V5.125H9.5C9.59946 5.125 9.69484 5.16451 9.76517 5.23484C9.83549 5.30516 9.875 5.40054 9.875 5.5C9.875 5.59946 9.83549 5.69484 9.76517 5.76516C9.69484 5.83549 9.59946 5.875 9.5 5.875H7.25C7.01794 5.875 6.79538 5.96719 6.63128 6.13128C6.46719 6.29538 6.375 6.51794 6.375 6.75C6.375 6.98206 6.46719 7.20462 6.63128 7.36872C6.79538 7.53281 7.01794 7.625 7.25 7.625H8.75C9.18098 7.625 9.59431 7.7962 9.89905 8.10095C10.2038 8.4057 10.375 8.81902 10.375 9.25Z" fill="#E6EBFF"/>
</svg>
