<svg width="12" height="13" viewBox="0 0 12 13" fill="none" xmlns="http://www.w3.org/2000/svg">
<path d="M6.82651 9.21988C6.05267 9.16003 5.72752 8.77631 5.12064 8.40791C4.78709 10.1579 4.37946 11.8355 3.17208 12.7119C2.79894 10.0669 3.71912 8.0802 4.14645 5.97144C3.41805 4.74526 4.23403 2.27723 5.7704 2.88539C7.6613 3.63313 4.13331 7.44467 6.50172 7.92072C8.97432 8.41776 9.98373 3.6304 8.45028 2.07323C6.23478 -0.174936 2.00138 2.02214 2.52195 5.24048C2.64877 6.02727 3.46184 6.26612 2.84674 7.35179C1.4288 7.03777 1.00584 5.91943 1.06022 4.4285C1.14798 1.98802 3.2531 0.279222 5.3646 0.0427461C8.03499 -0.256133 10.5413 1.02332 10.8873 3.53515C11.2765 6.37012 9.68174 9.4403 6.82651 9.21988Z" fill="#F1F2F2"/>
</svg>
