<svg width="16" height="16" viewBox="0 0 16 16" fill="none" xmlns="http://www.w3.org/2000/svg">
<path d="M14.2642 13.7352L11.0529 10.5239C11.9687 9.47081 12.4398 8.1033 12.3669 6.70965C12.294 5.31599 11.6829 4.00507 10.6623 3.05322C9.64171 2.10137 8.29143 1.58296 6.89608 1.60726C5.50073 1.63156 4.16933 2.19668 3.18252 3.18349C2.19571 4.1703 1.63059 5.50171 1.60629 6.89706C1.58198 8.29241 2.1004 9.64269 3.05225 10.6633C4.00409 11.6838 5.31501 12.295 6.70867 12.3679C8.10233 12.4407 9.46984 11.9696 10.5229 11.0539L13.7342 14.2652C13.8053 14.3314 13.8993 14.3675 13.9965 14.3658C14.0936 14.364 14.1863 14.3247 14.255 14.256C14.3237 14.1873 14.3631 14.0946 14.3648 13.9974C14.3665 13.9003 14.3304 13.8063 14.2642 13.7352ZM2.37419 7.00017C2.37419 6.08543 2.64544 5.19123 3.15364 4.43065C3.66184 3.67008 4.38417 3.07728 5.22928 2.72722C6.07439 2.37717 7.00432 2.28558 7.90148 2.46403C8.79864 2.64249 9.62274 3.08298 10.2696 3.7298C10.9164 4.37661 11.3569 5.20071 11.5353 6.09787C11.7138 6.99504 11.6222 7.92497 11.2721 8.77008C10.9221 9.61518 10.3293 10.3375 9.5687 10.8457C8.80812 11.3539 7.91393 11.6252 6.99919 11.6252C5.77302 11.6237 4.5975 11.1359 3.73046 10.2689C2.86343 9.40186 2.37568 8.22634 2.37419 7.00017Z" fill="#808080"/>
</svg>
