<svg width="16" height="16" viewBox="0 0 16 16" fill="none" xmlns="http://www.w3.org/2000/svg">
<path d="M12.5 14.125H9.07625C9.6852 13.6031 10.2556 13.0379 10.7831 12.4338C12.4788 10.4838 13.375 8.43375 13.375 6.5C13.375 5.07446 12.8087 3.70731 11.8007 2.6993C10.7927 1.69129 9.42554 1.125 8 1.125C6.57446 1.125 5.20731 1.69129 4.1993 2.6993C3.19129 3.70731 2.625 5.07446 2.625 6.5C2.625 8.43188 3.52125 10.4838 5.21688 12.4338C5.74435 13.0379 6.3148 13.6031 6.92375 14.125H3.5C3.40054 14.125 3.30516 14.1645 3.23483 14.2348C3.16451 14.3052 3.125 14.4005 3.125 14.5C3.125 14.5995 3.16451 14.6948 3.23483 14.7652C3.30516 14.8355 3.40054 14.875 3.5 14.875H12.5C12.5995 14.875 12.6948 14.8355 12.7652 14.7652C12.8355 14.6948 12.875 14.5995 12.875 14.5C12.875 14.4005 12.8355 14.3052 12.7652 14.2348C12.6948 14.1645 12.5995 14.125 12.5 14.125ZM3.375 6.5C3.375 5.27337 3.86228 4.09699 4.72963 3.22963C5.59699 2.36228 6.77337 1.875 8 1.875C9.22663 1.875 10.403 2.36228 11.2704 3.22963C12.1377 4.09699 12.625 5.27337 12.625 6.5C12.625 10.2262 8.9375 13.3081 8 14.0319C7.0625 13.3081 3.375 10.2262 3.375 6.5ZM10.375 6.5C10.375 6.03027 10.2357 5.57109 9.97474 5.18052C9.71377 4.78995 9.34285 4.48554 8.90887 4.30579C8.4749 4.12603 7.99737 4.07899 7.53666 4.17063C7.07596 4.26227 6.65277 4.48847 6.32062 4.82062C5.98847 5.15277 5.76227 5.57596 5.67063 6.03666C5.57899 6.49737 5.62603 6.9749 5.80579 7.40887C5.98554 7.84285 6.28995 8.21377 6.68052 8.47474C7.07109 8.73571 7.53027 8.875 8 8.875C8.62989 8.875 9.23398 8.62478 9.67938 8.17938C10.1248 7.73398 10.375 7.12989 10.375 6.5ZM6.375 6.5C6.375 6.17861 6.4703 5.86443 6.64886 5.5972C6.82742 5.32997 7.08121 5.12169 7.37814 4.9987C7.67507 4.8757 8.0018 4.84352 8.31702 4.90622C8.63224 4.96892 8.92179 5.12369 9.14905 5.35095C9.37631 5.57821 9.53107 5.86776 9.59378 6.18298C9.65648 6.4982 9.6243 6.82493 9.5013 7.12186C9.37831 7.41879 9.17003 7.67258 8.9028 7.85114C8.63557 8.0297 8.32139 8.125 8 8.125C7.56902 8.125 7.1557 7.95379 6.85095 7.64905C6.54621 7.3443 6.375 6.93098 6.375 6.5Z" fill="#E6EBFF"/>
</svg>
