<svg width="32" height="32" viewBox="0 0 32 32" fill="none" xmlns="http://www.w3.org/2000/svg">
<rect width="32" height="32" rx="16" fill="#1A1A1A"/>
<path d="M22.2654 12.7654L14.2654 20.7654C14.1951 20.8356 14.0998 20.8751 14.0004 20.8751C13.901 20.8751 13.8057 20.8356 13.7354 20.7654L10.2354 17.2654C10.1692 17.1943 10.1331 17.1003 10.1348 17.0032C10.1365 16.906 10.1759 16.8133 10.2446 16.7446C10.3133 16.6759 10.406 16.6365 10.5032 16.6348C10.6003 16.6331 10.6943 16.6692 10.7654 16.7354L14.0004 19.9698L21.7354 12.2354C21.8065 12.1692 21.9005 12.1331 21.9977 12.1348C22.0948 12.1365 22.1875 12.1759 22.2562 12.2446C22.3249 12.3133 22.3643 12.406 22.366 12.5032C22.3677 12.6003 22.3317 12.6943 22.2654 12.7654Z" fill="#CCCCCC"/>
</svg>
