<svg width="20" height="20" viewBox="0 0 20 20" fill="none" xmlns="http://www.w3.org/2000/svg">
<path d="M11.3843 4.09976H13.5921L10.2129 0.544922V2.92376C10.2129 3.56814 10.7355 4.09976 11.3843 4.09976Z" fill="white"/>
<path d="M13.6321 9.23242C10.6631 9.23242 8.24805 11.6473 8.24805 14.6165C8.24805 17.5855 10.6631 20.0005 13.6321 20.0005C16.6013 20.0005 19.0163 17.5855 19.0163 14.6165C19.0163 11.6473 16.6013 9.23242 13.6321 9.23242ZM16.5247 15.0761L13.8845 17.9099C13.8169 17.9821 13.7223 18.0227 13.6187 18.0227C13.5151 18.0227 13.4249 17.9821 13.3573 17.9099L10.7216 15.0761C10.5865 14.9319 10.5955 14.7021 10.7397 14.5669C10.8838 14.4317 11.1181 14.4407 11.2533 14.5849L13.2717 16.7475V11.5977C13.2717 11.3995 13.4339 11.2373 13.6321 11.2373C13.8305 11.2373 13.9927 11.3995 13.9927 11.5977V16.7475L16.0021 14.5849C16.1373 14.4407 16.3625 14.4317 16.5067 14.5669C16.6553 14.7021 16.6599 14.9273 16.5247 15.0761Z" fill="white"/>
<path d="M7.72139 13.0659H3.806C3.60778 13.0659 3.44558 12.9039 3.44558 12.7055C3.44558 12.5073 3.60778 12.3451 3.806 12.3451H7.96019C8.18984 11.7595 8.49623 11.2637 8.8748 10.7681H3.806C3.60778 10.7681 3.44558 10.6061 3.44558 10.4077C3.44558 10.2095 3.60778 10.0473 3.806 10.0473H9.55962C10.6409 9.10109 12.0737 8.49745 13.6371 8.49745C13.7857 8.49745 13.9074 8.51088 14.0877 8.52446V4.82086H11.3843C10.339 4.82086 9.49202 3.96484 9.49202 2.92404V0H2.58056C1.68838 0 0.976562 0.729827 0.976562 1.62643V15.3773C0.976562 16.2739 1.68838 16.9858 2.58056 16.9858H8.00963C7.69881 16.2649 7.52761 15.4539 7.52761 14.6069C7.52303 14.0753 7.5952 13.5615 7.72139 13.0659ZM3.806 7.79448H8.3702C8.56841 7.79448 8.73061 7.95668 8.73061 8.15505C8.73061 8.35326 8.56841 8.51546 8.3702 8.51546H3.806C3.60778 8.51546 3.44558 8.35326 3.44558 8.15505C3.44558 7.95668 3.60778 7.79448 3.806 7.79448Z" fill="white"/>
</svg>
