<svg width="20" height="20" viewBox="0 0 20 20" fill="none" xmlns="http://www.w3.org/2000/svg">
<path d="M10 0C4.47713 0 0 4.47713 0 10C0 15.5227 4.47713 20 10 20C15.5229 20 20 15.5227 20 10C20 4.47713 15.5229 0 10 0ZM13.0472 10.6773C12.9985 10.726 12.945 10.7672 12.8893 10.803L9.13633 14.556C8.95407 14.7384 8.71513 14.8295 8.4762 14.8295C8.23727 14.8295 7.99847 14.7384 7.81607 14.556C7.4514 14.1913 7.4514 13.6 7.81607 13.2355L11.05 10.0011L7.83233 6.7834C7.46767 6.41853 7.46767 5.8274 7.83233 5.46287C8.197 5.0982 8.7882 5.0984 9.15287 5.46267L12.8893 9.19887C12.9449 9.23467 12.9984 9.2758 13.0469 9.3246C13.2333 9.511 13.3233 9.75653 13.3191 10.001C13.3235 10.2453 13.2337 10.4907 13.0472 10.6773Z" fill="white"/>
</svg>
