<svg width="188" height="188" viewBox="0 0 188 188" fill="none" xmlns="http://www.w3.org/2000/svg">
<path d="M24.8915 88.2743C24.7881 89.2716 24.5746 90.1153 24.251 90.8054C23.9135 91.4782 23.518 92.0266 23.0646 92.4507C22.5955 92.873 22.1206 93.2002 21.6398 93.4322C21.1589 93.6642 20.7088 93.8286 20.2892 93.9254C19.8541 94.0205 19.5095 94.0781 19.2554 94.0981C18.9874 94.1008 18.8533 94.1022 18.8533 94.1022L19.0957 91.7647C19.0957 91.7647 19.2071 91.753 19.4301 91.7297C19.653 91.7063 19.9353 91.6421 20.2769 91.537C20.6202 91.4162 20.9785 91.2262 21.3519 90.9669C21.7098 90.706 22.0236 90.3378 22.2933 89.8626C22.5631 89.3873 22.7376 88.7679 22.8167 88.0043C22.9363 86.8512 22.7582 85.9103 22.2825 85.1817C21.7912 84.4515 21.1015 84.0387 20.2136 83.9434C19.4504 83.8615 18.8318 84.0551 18.3579 84.5242C17.8856 84.9777 17.4842 85.6594 17.1536 86.5693L16.3553 88.7999C16.0688 89.5884 15.7101 90.3141 15.2791 90.9769C14.8341 91.6225 14.2939 92.1238 13.6583 92.481C13.0088 92.821 12.2323 92.9425 11.3289 92.8455C10.3163 92.7369 9.47765 92.3947 8.81279 91.8192C8.14794 91.2436 7.67301 90.5072 7.38801 89.61C7.08744 88.7112 6.99369 87.7163 7.10678 86.6255C7.21664 85.5658 7.47148 84.7029 7.8713 84.0368C8.27112 83.3707 8.73428 82.8532 9.2608 82.4842C9.77173 82.1137 10.2791 81.853 10.783 81.7022C11.2714 81.5498 11.6823 81.46 12.0159 81.4328C12.3495 81.4055 12.5163 81.3919 12.5163 81.3919L12.2836 83.6359C12.2836 83.6359 12.1402 83.652 11.8534 83.6842C11.5665 83.7165 11.2318 83.8303 10.8493 84.0256C10.4512 84.2192 10.0869 84.5425 9.75648 84.9955C9.42601 85.4484 9.21796 86.0879 9.13234 86.9138C9.01602 88.0358 9.19278 88.9135 9.66264 89.5469C10.1341 90.1647 10.7125 90.5104 11.3979 90.584C12.021 90.6509 12.5507 90.4793 12.987 90.0691C13.4077 89.6574 13.7605 89.065 14.0454 88.292L14.9098 85.8794C15.2199 85.0146 15.6225 84.2463 16.1174 83.5747C16.5967 82.9013 17.1853 82.3894 17.8831 82.0388C18.5654 81.6866 19.3739 81.5607 20.3085 81.661C21.2431 81.7613 22.0834 82.0878 22.8294 82.6406C23.577 83.1778 24.1454 83.9242 24.5346 84.8798C24.9098 85.8182 25.0288 86.9497 24.8915 88.2743Z" fill="#D33A27"/>
<path d="M26.0472 79.4094L14.09 75.9233L14.6952 73.7744L16.1842 74.2086L16.2097 74.1181C15.8307 73.7302 15.5383 73.237 15.3325 72.6385C15.1267 72.04 15.1512 71.2883 15.406 70.3835C15.4782 70.1271 15.5591 69.8978 15.6486 69.6954C15.7231 69.4887 15.7603 69.3853 15.7603 69.3853L17.8134 69.9839C17.8134 69.9839 17.7719 70.1023 17.6889 70.3392C17.5951 70.5567 17.5121 70.7936 17.4399 71.0499C17.1469 72.0904 17.2205 72.9849 17.6607 73.7334C18.0902 74.4623 18.9742 75.022 20.3128 75.4122L26.6524 77.2605L26.0472 79.4094Z" fill="#D33A27"/>
<path d="M15.7939 63.038C15.6348 63.43 15.3723 63.702 15.0063 63.8541C14.6461 63.9916 14.2855 63.9845 13.9244 63.8328C13.5489 63.6751 13.2812 63.4182 13.1214 63.0621C12.9674 62.6916 12.97 62.3104 13.129 61.9184C13.2822 61.541 13.5418 61.2762 13.9078 61.1242C14.2739 60.9721 14.6447 60.9749 15.0202 61.1327C15.3813 61.2844 15.6388 61.5455 15.7927 61.9161C15.9467 62.2866 15.9471 62.6606 15.7939 63.038ZM29.0495 69.8051L17.5668 64.9808L18.4063 62.9122L29.889 67.7365L29.0495 69.8051Z" fill="#D33A27"/>
<path d="M38.4004 61.7061C37.8732 62.5955 37.3137 63.263 36.7218 63.7085C36.1433 64.1622 35.566 64.4604 34.9897 64.6031C34.4349 64.7404 33.9319 64.7902 33.4809 64.7524C33.0298 64.7146 32.6682 64.6489 32.3958 64.5553C32.1369 64.4699 32.0074 64.4272 32.0074 64.4272L33.1457 62.5067C33.1457 62.5067 33.2592 62.5304 33.4861 62.5777C33.713 62.625 34.0025 62.6281 34.3547 62.5869C34.7149 62.5322 35.1043 62.3668 35.5229 62.0907C35.9415 61.8146 36.3465 61.3463 36.7379 60.686C37.2013 59.9043 37.4112 59.1969 37.3677 58.5637C37.3375 57.9387 37.138 57.3843 36.7691 56.9007C36.4082 56.4036 35.9607 55.9911 35.4266 55.6634L34.2047 54.9137L34.1448 55.0148C34.292 55.2888 34.4245 55.6642 34.5426 56.141C34.6552 56.5961 34.6786 57.125 34.6126 57.7278C34.5334 58.3224 34.29 58.9634 33.8826 59.6507C33.4033 60.4593 32.8304 61.0726 32.1638 61.4906C31.4972 61.9087 30.7836 62.1601 30.0232 62.2448C29.2708 62.3161 28.5142 62.2562 27.7534 62.065C26.9926 61.8739 26.2784 61.5735 25.6107 61.1638C24.943 60.7541 24.3486 60.2516 23.8275 59.6561C23.3064 59.0607 22.9013 58.4078 22.6121 57.6974C22.331 56.9735 22.2166 56.2141 22.269 55.4192C22.3213 54.6243 22.5871 53.8225 23.0664 53.0139C23.4739 52.3266 23.9242 51.8126 24.4174 51.472C24.8973 51.1232 25.3613 50.8933 25.8095 50.7824C26.2657 50.658 26.6539 50.6021 26.9741 50.6148L27.034 50.5137L25.4116 49.5182L26.55 47.5977L36.5449 53.7306C38.0271 54.6401 38.9426 55.7991 39.2913 57.2077C39.648 58.6028 39.351 60.1023 38.4004 61.7061ZM32.4759 58.2913C32.8992 57.577 33.0705 56.8734 32.9895 56.1805C32.9032 55.4659 32.6409 54.8179 32.2025 54.2364C31.7721 53.6415 31.2364 53.1474 30.5954 52.7541C29.9545 52.3608 29.275 52.1093 28.557 51.9996C27.8337 51.8682 27.1479 51.9345 26.4998 52.1984C25.8597 52.4489 25.3279 52.9313 24.9046 53.6455C24.4812 54.3598 24.306 55.0702 24.3789 55.7766C24.4519 56.483 24.7102 57.1377 25.154 57.7408C25.5924 58.3223 26.1321 58.8096 26.773 59.2029C27.414 59.5962 28.0894 59.8545 28.7994 59.9777C29.5174 60.0874 30.2071 60.0144 30.8686 59.7586C31.5167 59.4947 32.0525 59.0056 32.4759 58.2913Z" fill="#D33A27"/>
<path d="M39.3208 51.2259L26.2586 39.0457L27.7528 37.3869L33.0292 42.3071L33.1236 42.2023C33.0595 41.9926 32.991 41.6824 32.9182 41.2718C32.8558 40.8496 32.8955 40.3725 33.0372 39.8407C33.1675 39.2982 33.479 38.7534 33.9718 38.2063C34.58 37.5312 35.2537 37.0992 35.9929 36.9104C36.7208 36.711 37.4526 36.7294 38.1884 36.9658C38.9347 37.1905 39.6286 37.602 40.2703 38.2003L46.1311 43.6654L44.6369 45.3242L38.8792 39.9552C38.272 39.389 37.6105 39.0935 36.8949 39.0687C36.1898 39.0323 35.5437 39.3401 34.9565 39.992C34.4847 40.5158 34.2337 41.0635 34.2036 41.6352C34.1621 42.1962 34.28 42.7558 34.5571 43.3141C34.8333 43.8501 35.2063 44.3371 35.676 44.7752L40.815 49.5671L39.3208 51.2259Z" fill="#D33A27"/>
<path d="M52.5488 38.6645C51.5451 39.4664 50.5852 39.8122 49.6691 39.702C48.7653 39.582 47.9496 39.0507 47.2222 38.1081L42.8863 32.4896L41.1421 33.883L40.0222 32.4319L41.7664 31.0384L39.8569 28.5641L41.6011 27.1706L43.5107 29.645L45.8792 27.7528L46.999 29.204L44.6305 31.0961L48.9664 36.7146C49.3493 37.2107 49.7663 37.469 50.2174 37.4896C50.659 37.4977 51.1369 37.2964 51.6509 36.8857C51.9202 36.6706 52.1629 36.4466 52.379 36.2138C52.5951 35.9811 52.7031 35.8647 52.7031 35.8647L53.8661 37.3716C53.8661 37.3716 53.7445 37.5089 53.5012 37.7834C53.258 38.0579 52.9405 38.3516 52.5488 38.6645Z" fill="#D33A27"/>
<path d="M62.8121 36.7971L56.11 21.1076L58.1518 20.2047L58.9273 22.02L59.0562 21.963C59.1112 21.6132 59.2143 21.2165 59.3655 20.7728C59.531 20.3228 59.8112 19.882 60.206 19.4505C60.5947 19.0046 61.1473 18.6232 61.8637 18.3064C62.7234 17.9262 63.5495 17.7665 64.3419 17.8271C65.1283 17.8734 65.8594 18.0896 66.5354 18.4758C67.2053 18.8476 67.7985 19.339 68.315 19.9499C68.8315 20.5608 69.2466 21.2337 69.5605 21.9685C69.8744 22.7032 70.0746 23.4711 70.1613 24.2721C70.2479 25.0731 70.1994 25.8568 70.0157 26.6231C69.8259 27.3751 69.4824 28.0665 68.9853 28.6974C68.4821 29.3139 67.8006 29.8122 66.941 30.1924C66.2245 30.5092 65.5735 30.66 64.9879 30.645C64.4023 30.6299 63.8913 30.5304 63.455 30.3465C63.033 30.1562 62.6807 29.9694 62.398 29.7862L62.269 29.8432L64.8538 35.8942L62.8121 36.7971ZM60.6411 25.9126C60.9365 26.6041 61.3445 27.2202 61.865 27.7608C62.3937 28.2807 62.9981 28.6387 63.678 28.8347C64.3662 29.01 65.0899 28.9298 65.8493 28.594C66.6231 28.2518 67.1745 27.7682 67.5037 27.143C67.841 26.4971 67.9961 25.8033 67.9689 25.0617C67.9498 24.2993 67.7926 23.5724 67.4972 22.8808C67.1957 22.1749 66.7805 21.562 66.2518 21.0421C65.7375 20.5159 65.1362 20.1651 64.4481 19.9898C63.7681 19.7938 63.0413 19.8668 62.2675 20.2089C61.5081 20.5448 60.9598 21.0356 60.6224 21.6815C60.2933 22.3067 60.1351 22.9932 60.148 23.7412C60.1752 24.4828 60.3396 25.2066 60.6411 25.9126Z" fill="#D33A27"/>
<path d="M74.9364 26.9834L71.9933 14.8811L74.1582 14.3361L74.5247 15.8432L74.6159 15.8202C74.7631 15.2985 75.0448 14.7995 75.461 14.3232C75.8772 13.8468 76.5411 13.4939 77.4527 13.2644C77.7109 13.1994 77.9501 13.1553 78.1702 13.1322C78.3866 13.0939 78.4948 13.0747 78.4948 13.0747L79.0002 15.1527C79.0002 15.1527 78.8768 15.1757 78.63 15.2216C78.3947 15.2486 78.1479 15.2945 77.8896 15.3596C76.8413 15.6235 76.1026 16.1325 75.6733 16.8868C75.2556 17.622 75.2115 18.667 75.5409 20.0219L77.1014 26.4384L74.9364 26.9834Z" fill="#D33A27"/>
<path d="M88.5712 24.7304C87.5567 24.8184 86.6598 24.7153 85.8805 24.4212C85.1156 24.1101 84.465 23.6633 83.9289 23.0807C83.4083 22.4968 82.9996 21.8403 82.7027 21.1113C82.4046 20.3666 82.2221 19.5961 82.1555 18.7999C82.0901 18.0193 82.1346 17.237 82.2891 16.4531C82.4591 15.6678 82.7521 14.9426 83.1681 14.2776C83.5996 13.6111 84.1594 13.0673 84.8473 12.646C85.5495 12.2077 86.4 11.9452 87.399 11.8586C88.4603 11.7666 89.4171 11.9274 90.2692 12.341C91.1214 12.7546 91.8214 13.4173 92.3694 14.3291C92.9174 15.2408 93.2516 16.4148 93.3719 17.8511L93.4268 18.5068L84.4599 19.2842C84.5656 19.9827 84.7837 20.6164 85.1143 21.1853C85.4593 21.7372 85.9121 22.1697 86.4728 22.4828C87.0323 22.7802 87.6788 22.8972 88.4124 22.8336C89.0523 22.7781 89.5589 22.632 89.9321 22.3952C90.3196 22.1414 90.6186 21.8639 90.8292 21.5626C91.0398 21.2613 91.1756 21.0058 91.2367 20.796C91.312 20.5694 91.3497 20.456 91.3497 20.456L93.4334 20.2754C93.4334 20.2754 93.4061 20.4193 93.3516 20.707C93.2958 20.9792 93.1828 21.3192 93.0126 21.7271C92.8423 22.135 92.5791 22.5588 92.2229 22.9986C91.8654 23.4227 91.394 23.8017 90.8089 24.1355C90.2224 24.4536 89.4765 24.652 88.5712 24.7304ZM84.3382 17.5492L91.1043 16.9627C91.0051 16.1535 90.7785 15.5127 90.4245 15.0402C90.0692 14.5521 89.6392 14.2041 89.1344 13.9962C88.6296 13.7884 88.1041 13.7081 87.5578 13.7555C86.5745 13.8407 85.7975 14.2305 85.2268 14.9247C84.6547 15.6033 84.3585 16.4781 84.3382 17.5492Z" fill="#D33A27"/>
<path d="M101.551 24.8694C100.6 24.7757 99.8253 24.5655 99.2269 24.2389C98.644 23.9139 98.1919 23.5387 97.8704 23.1135C97.5504 22.6726 97.3232 22.2488 97.1889 21.842C97.056 21.4196 96.9788 21.0735 96.9572 20.8038C96.9357 20.534 96.9249 20.3991 96.9249 20.3991L99.17 20.6204C99.17 20.6204 99.183 20.7319 99.209 20.9548C99.2521 21.1637 99.346 21.417 99.4908 21.7146C99.6526 21.9982 99.9103 22.2676 100.264 22.5228C100.634 22.764 101.139 22.9161 101.778 22.9791C102.511 23.0513 103.096 22.9358 103.534 22.6327C103.974 22.3139 104.218 21.8972 104.267 21.3825C104.31 20.9302 104.181 20.5554 103.879 20.258C103.592 19.9621 103.159 19.7148 102.58 19.516L100.934 18.9524C100.325 18.735 99.7606 18.4668 99.2402 18.1479C98.7197 17.829 98.3095 17.4265 98.0096 16.9404C97.7267 16.4402 97.618 15.847 97.6833 15.1608C97.7843 14.1003 98.2642 13.2739 99.1232 12.6816C99.9837 12.0737 101.053 11.8328 102.332 11.9588C103.189 12.0433 103.887 12.238 104.424 12.5428C104.963 12.8321 105.379 13.1722 105.673 13.5632C105.981 13.9557 106.197 14.339 106.319 14.7131C106.456 15.0887 106.536 15.4036 106.559 15.6577C106.584 15.8963 106.596 16.0156 106.596 16.0156L104.444 15.8035C104.444 15.8035 104.429 15.7154 104.399 15.5393C104.37 15.3475 104.28 15.134 104.129 14.8987C103.995 14.6494 103.773 14.4229 103.462 14.219C103.152 13.9996 102.725 13.863 102.179 13.8092C101.431 13.7355 100.869 13.8533 100.493 14.1626C100.117 14.4719 99.9102 14.8293 99.8716 15.2348C99.8345 15.6247 99.96 15.9598 100.248 16.24C100.553 16.5063 100.957 16.7271 101.46 16.9026L103.129 17.4685C104.166 17.8226 104.999 18.3219 105.63 18.9666C106.278 19.5972 106.552 20.4428 106.451 21.5033C106.386 22.1895 106.146 22.8113 105.731 23.3686C105.317 23.9103 104.759 24.3197 104.056 24.5967C103.353 24.8738 102.518 24.9647 101.551 24.8694Z" fill="#D33A27"/>
<path d="M114.178 27.4194C113.201 27.1323 112.394 26.7073 111.756 26.1443C111.122 25.5662 110.64 24.9104 110.311 24.1769C110.001 23.4328 109.823 22.6539 109.777 21.8403C109.746 21.0312 109.84 20.2423 110.058 19.4736C110.276 18.705 110.608 17.9942 111.054 17.3415C111.504 16.6736 112.055 16.1089 112.707 15.6473C113.374 15.1902 114.125 14.8965 114.96 14.7662C115.799 14.6208 116.715 14.6938 117.707 14.9853C118.669 15.2679 119.425 15.6451 119.975 16.1169C120.525 16.5887 120.926 17.0983 121.178 17.6458C121.449 18.1826 121.612 18.6961 121.669 19.1861C121.745 19.6655 121.772 20.0572 121.751 20.3613C121.729 20.6653 121.719 20.8173 121.719 20.8173L119.645 20.2079C119.645 20.2079 119.641 20.0763 119.634 19.8131C119.632 19.5348 119.57 19.2065 119.45 18.8282C119.329 18.4499 119.093 18.0783 118.74 17.7135C118.392 17.3337 117.872 17.0422 117.181 16.8391C116.354 16.5962 115.595 16.6019 114.904 16.8561C114.233 17.0997 113.66 17.5111 113.186 18.0903C112.727 18.674 112.391 19.3426 112.177 20.0962C111.963 20.8498 111.898 21.5979 111.98 22.3405C112.078 23.0876 112.344 23.7538 112.781 24.3392C113.237 24.9139 113.878 25.3227 114.705 25.5655C115.396 25.7687 115.986 25.8115 116.476 25.694C116.969 25.5614 117.366 25.3677 117.666 25.1131C117.967 24.8584 118.189 24.6215 118.332 24.4024C118.48 24.1683 118.554 24.0512 118.554 24.0512L120.628 24.6606C120.628 24.6606 120.558 24.7949 120.416 25.0636C120.275 25.3323 120.044 25.6565 119.725 26.0362C119.425 26.4052 119.017 26.7508 118.503 27.0731C118.007 27.3847 117.403 27.591 116.69 27.6919C115.978 27.7928 115.141 27.7019 114.178 27.4194Z" fill="#D33A27"/>
<path d="M122.414 30.0834L130.557 14.1875L132.529 15.2334L129.24 21.6545L129.365 21.7206C129.547 21.6046 129.824 21.459 130.196 21.2836C130.581 21.1155 131.045 21.0337 131.589 21.0382C132.139 21.0286 132.74 21.1964 133.39 21.5413C134.193 21.967 134.782 22.5186 135.156 23.196C135.538 23.8594 135.714 24.5819 135.683 25.3635C135.666 26.1525 135.458 26.9374 135.058 27.7182L131.404 34.8505L129.432 33.8046L133.021 26.7978C133.4 26.0588 133.506 25.3352 133.341 24.627C133.19 23.9261 132.726 23.3702 131.951 22.9591C131.328 22.6289 130.741 22.5213 130.189 22.6365C129.645 22.7378 129.143 22.995 128.685 23.4082C128.248 23.8147 127.883 24.3038 127.59 24.8755L124.387 31.1293L122.414 30.0834Z" fill="#D33A27"/>
<path d="M138.51 40.6168C137.483 39.7683 136.81 38.8159 136.491 37.7595C136.182 36.6908 136.154 35.6211 136.408 34.5504C136.662 33.4797 137.131 32.5159 137.815 31.6589C138.509 30.7897 139.34 30.1253 140.309 29.6658C141.287 29.194 142.317 29.0088 143.398 29.1103C144.49 29.1996 145.549 29.6685 146.575 30.517C147.601 31.3654 148.269 32.324 148.578 33.3926C148.897 34.449 148.93 35.5126 148.677 36.5833C148.433 37.6418 147.964 38.6056 147.27 39.4748C146.585 40.3318 145.754 40.9961 144.776 41.4679C143.798 41.9397 142.763 42.131 141.672 42.0417C140.59 41.9402 139.536 41.4652 138.51 40.6168ZM139.727 39.0926C140.379 39.6316 141.054 39.9156 141.753 39.9444C142.473 39.9709 143.157 39.8047 143.805 39.4457C144.464 39.0967 145.034 38.6223 145.513 38.0224C146.001 37.4103 146.341 36.7462 146.532 36.0302C146.745 35.3118 146.76 34.6027 146.577 33.9028C146.416 33.2007 146.01 32.5801 145.358 32.0411C144.718 31.5121 144.038 31.2343 143.317 31.2077C142.606 31.1689 141.921 31.324 141.262 31.673C140.624 32.0198 140.061 32.4992 139.572 33.1113C139.093 33.7112 138.747 34.3703 138.534 35.0886C138.333 35.8169 138.319 36.5371 138.493 37.2492C138.675 37.9491 139.087 38.5636 139.727 39.0926Z" fill="#D33A27"/>
<path d="M148.839 51.2976C148.013 50.2533 147.554 49.1813 147.463 48.0815C147.384 46.9719 147.58 45.92 148.052 44.926C148.524 43.932 149.184 43.0875 150.032 42.3926C150.893 41.6878 151.845 41.2119 152.888 40.9649C153.943 40.7081 154.989 40.7423 156.025 41.0677C157.074 41.3832 158.011 42.0631 158.838 43.1073C159.664 44.1516 160.117 45.2286 160.196 46.3383C160.287 47.438 160.097 48.4849 159.625 49.4789C159.165 50.463 158.505 51.3075 157.644 52.0123C156.796 52.7073 155.844 53.1832 154.789 53.44C153.734 53.6969 152.682 53.6676 151.633 53.3521C150.597 53.0267 149.665 52.3419 148.839 51.2976ZM150.348 50.0616C150.873 50.725 151.474 51.1439 152.151 51.3181C152.85 51.4947 153.554 51.4752 154.262 51.2595C154.98 51.0561 155.636 50.7112 156.23 50.2248C156.836 49.7284 157.307 49.15 157.643 48.4897C158.002 47.8318 158.165 47.1415 158.132 46.4189C158.122 45.6986 157.854 45.0068 157.329 44.3433C156.814 43.6922 156.206 43.2783 155.507 43.1017C154.82 42.9152 154.118 42.9236 153.4 43.127C152.704 43.3327 152.053 43.6838 151.447 44.1802C150.853 44.6666 150.377 45.2388 150.019 45.8968C149.67 46.567 149.506 47.2684 149.526 48.001C149.559 48.7236 149.833 49.4105 150.348 50.0616Z" fill="#D33A27"/>
<path d="M154.35 58.9553L169.707 49.8374L170.808 51.7522L155.463 60.8904L154.35 58.9553Z" fill="#D33A27"/>
<path d="M163.109 99.7257C163.212 98.7284 163.425 97.8847 163.749 97.1946C164.086 96.5218 164.482 95.9734 164.935 95.5493C165.404 95.127 165.879 94.7998 166.36 94.5678C166.841 94.3358 167.291 94.1714 167.711 94.0746C168.146 93.9795 168.491 93.9219 168.745 93.9019C169.013 93.8992 169.147 93.8978 169.147 93.8978L168.904 96.2353C168.904 96.2353 168.793 96.247 168.57 96.2703C168.347 96.2937 168.065 96.3579 167.723 96.463C167.38 96.5838 167.021 96.7738 166.648 97.0331C166.29 97.294 165.976 97.6622 165.707 98.1374C165.437 98.6127 165.262 99.2321 165.183 99.9957C165.064 101.149 165.242 102.09 165.718 102.818C166.209 103.549 166.898 103.961 167.786 104.057C168.55 104.139 169.168 103.945 169.642 103.476C170.114 103.022 170.516 102.341 170.846 101.431L171.645 99.2001C171.931 98.4116 172.29 97.6859 172.721 97.0231C173.166 96.3775 173.706 95.8762 174.342 95.519C174.991 95.179 175.768 95.0575 176.671 95.1545C177.684 95.2631 178.522 95.6053 179.187 96.1808C179.852 96.7564 180.327 97.4928 180.612 98.39C180.913 99.2888 181.006 100.284 180.893 101.375C180.783 102.434 180.529 103.297 180.129 103.963C179.729 104.629 179.266 105.147 178.739 105.516C178.228 105.886 177.721 106.147 177.217 106.298C176.729 106.45 176.318 106.54 175.984 106.567C175.651 106.594 175.484 106.608 175.484 106.608L175.716 104.364C175.716 104.364 175.86 104.348 176.147 104.316C176.433 104.284 176.768 104.17 177.151 103.974C177.549 103.781 177.913 103.458 178.244 103.005C178.574 102.552 178.782 101.912 178.868 101.086C178.984 99.9642 178.807 99.0865 178.337 98.4531C177.866 97.8353 177.287 97.4896 176.602 97.416C175.979 97.3491 175.449 97.5207 175.013 97.9309C174.592 98.3426 174.24 98.935 173.955 99.708L173.09 102.121C172.78 102.985 172.378 103.754 171.883 104.425C171.403 105.099 170.815 105.611 170.117 105.961C169.435 106.313 168.626 106.439 167.691 106.339C166.757 106.239 165.917 105.912 165.171 105.359C164.423 104.822 163.855 104.076 163.465 103.12C163.09 102.182 162.971 101.05 163.109 99.7257Z" fill="#D33A27"/>
<path d="M161.953 108.591L173.91 112.077L173.305 114.226L171.816 113.791L171.79 113.882C172.169 114.27 172.462 114.763 172.668 115.362C172.873 115.96 172.849 116.712 172.594 117.616C172.522 117.873 172.441 118.102 172.351 118.305C172.277 118.511 172.24 118.615 172.24 118.615L170.187 118.016C170.187 118.016 170.228 117.898 170.311 117.661C170.405 117.443 170.488 117.206 170.56 116.95C170.853 115.91 170.78 115.015 170.339 114.267C169.91 113.538 169.026 112.978 167.687 112.588L161.348 110.739L161.953 108.591Z" fill="#D33A27"/>
<path d="M172.206 124.961C172.365 124.569 172.628 124.297 172.994 124.145C173.354 124.007 173.714 124.014 174.076 124.166C174.451 124.324 174.719 124.581 174.879 124.937C175.033 125.307 175.03 125.689 174.871 126.081C174.718 126.458 174.458 126.723 174.092 126.875C173.726 127.027 173.355 127.024 172.98 126.866C172.619 126.715 172.361 126.453 172.207 126.083C172.053 125.712 172.053 125.338 172.206 124.961ZM158.95 118.194L170.433 123.018L169.594 125.087L158.111 120.263L158.95 118.194Z" fill="#D33A27"/>
<path d="M149.6 126.294C150.127 125.404 150.686 124.737 151.278 124.291C151.857 123.838 152.434 123.54 153.01 123.397C153.565 123.26 154.068 123.21 154.519 123.248C154.97 123.285 155.332 123.351 155.604 123.445C155.863 123.53 155.993 123.573 155.993 123.573L154.854 125.493C154.854 125.493 154.741 125.47 154.514 125.422C154.287 125.375 153.997 125.372 153.645 125.413C153.285 125.468 152.896 125.633 152.477 125.909C152.058 126.185 151.653 126.654 151.262 127.314C150.799 128.096 150.589 128.803 150.632 129.436C150.662 130.061 150.862 130.616 151.231 131.099C151.592 131.596 152.039 132.009 152.573 132.337L153.795 133.086L153.855 132.985C153.708 132.711 153.575 132.336 153.457 131.859C153.345 131.404 153.321 130.875 153.387 130.272C153.467 129.678 153.71 129.037 154.117 128.349C154.597 127.541 155.17 126.927 155.836 126.509C156.503 126.091 157.216 125.84 157.977 125.755C158.729 125.684 159.486 125.744 160.247 125.935C161.007 126.126 161.722 126.427 162.389 126.836C163.057 127.246 163.651 127.748 164.172 128.344C164.694 128.939 165.099 129.592 165.388 130.303C165.669 131.026 165.783 131.786 165.731 132.581C165.679 133.376 165.413 134.177 164.934 134.986C164.526 135.673 164.076 136.187 163.583 136.528C163.103 136.877 162.639 137.107 162.19 137.218C161.734 137.342 161.346 137.398 161.026 137.385L160.966 137.486L162.588 138.482L161.45 140.402L151.455 134.269C149.973 133.36 149.057 132.201 148.709 130.792C148.352 129.397 148.649 127.898 149.6 126.294ZM155.524 129.709C155.101 130.423 154.93 131.127 155.01 131.82C155.097 132.534 155.359 133.182 155.798 133.764C156.228 134.358 156.764 134.853 157.405 135.246C158.046 135.639 158.725 135.891 159.443 136C160.166 136.132 160.852 136.066 161.5 135.802C162.14 135.551 162.672 135.069 163.095 134.354C163.519 133.64 163.694 132.93 163.621 132.223C163.548 131.517 163.29 130.862 162.846 130.259C162.408 129.678 161.868 129.19 161.227 128.797C160.586 128.404 159.911 128.146 159.201 128.022C158.483 127.913 157.793 127.986 157.131 128.241C156.483 128.505 155.948 128.994 155.524 129.709Z" fill="#D33A27"/>
<path d="M148.679 136.774L161.741 148.954L160.247 150.613L154.971 145.693L154.876 145.798C154.94 146.007 155.009 146.318 155.082 146.728C155.144 147.15 155.105 147.627 154.963 148.159C154.833 148.702 154.521 149.247 154.028 149.794C153.42 150.469 152.746 150.901 152.007 151.09C151.279 151.289 150.547 151.271 149.812 151.034C149.065 150.81 148.371 150.398 147.73 149.8L141.869 144.335L143.363 142.676L149.121 148.045C149.728 148.611 150.389 148.907 151.105 148.931C151.81 148.968 152.456 148.66 153.044 148.008C153.515 147.484 153.766 146.936 153.796 146.365C153.838 145.804 153.72 145.244 153.443 144.686C153.167 144.15 152.794 143.663 152.324 143.225L147.185 138.433L148.679 136.774Z" fill="#D33A27"/>
<path d="M135.451 149.337C136.455 148.536 137.415 148.19 138.331 148.3C139.235 148.42 140.05 148.951 140.778 149.894L145.114 155.512L146.858 154.119L147.978 155.57L146.234 156.964L148.143 159.438L146.399 160.831L144.489 158.357L142.121 160.249L141.001 158.798L143.369 156.906L139.034 151.287C138.651 150.791 138.234 150.533 137.783 150.512C137.341 150.504 136.863 150.706 136.349 151.116C136.08 151.331 135.837 151.555 135.621 151.788C135.405 152.021 135.297 152.137 135.297 152.137L134.134 150.63C134.134 150.63 134.256 150.493 134.499 150.219C134.742 149.944 135.059 149.65 135.451 149.337Z" fill="#D33A27"/>
<path d="M125.188 151.203L131.89 166.892L129.848 167.795L129.073 165.98L128.944 166.037C128.889 166.387 128.786 166.783 128.635 167.227C128.469 167.677 128.189 168.118 127.794 168.549C127.405 168.995 126.853 169.377 126.136 169.694C125.277 170.074 124.451 170.234 123.658 170.173C122.872 170.127 122.141 169.91 121.465 169.524C120.795 169.152 120.202 168.661 119.685 168.05C119.169 167.439 118.753 166.766 118.44 166.032C118.126 165.297 117.925 164.529 117.839 163.728C117.752 162.927 117.801 162.143 117.984 161.377C118.174 160.625 118.518 159.933 119.015 159.303C119.518 158.686 120.199 158.188 121.059 157.808C121.775 157.491 122.426 157.34 123.012 157.355C123.598 157.37 124.109 157.47 124.545 157.654C124.967 157.844 125.319 158.031 125.602 158.214L125.731 158.157L123.146 152.106L125.188 151.203ZM127.359 162.087C127.063 161.396 126.655 160.78 126.135 160.239C125.606 159.719 125.002 159.361 124.322 159.165C123.634 158.99 122.91 159.07 122.151 159.406C121.377 159.748 120.825 160.232 120.496 160.857C120.159 161.503 120.004 162.197 120.031 162.938C120.05 163.701 120.207 164.428 120.503 165.119C120.804 165.825 121.219 166.438 121.748 166.958C122.263 167.484 122.864 167.835 123.552 168.01C124.232 168.206 124.959 168.133 125.732 167.791C126.492 167.455 127.04 166.964 127.378 166.318C127.707 165.693 127.865 165.007 127.852 164.259C127.825 163.517 127.66 162.793 127.359 162.087Z" fill="#D33A27"/>
<path d="M113.064 161.017L116.007 173.119L113.842 173.664L113.475 172.157L113.384 172.18C113.237 172.701 112.955 173.201 112.539 173.677C112.123 174.153 111.459 174.506 110.547 174.736C110.289 174.801 110.05 174.845 109.83 174.868C109.613 174.906 109.505 174.925 109.505 174.925L109 172.847C109 172.847 109.123 172.824 109.37 172.778C109.605 172.751 109.852 172.705 110.11 172.64C111.159 172.377 111.897 171.867 112.327 171.113C112.744 170.378 112.789 169.333 112.459 167.978L110.899 161.562L113.064 161.017Z" fill="#D33A27"/>
<path d="M99.4288 163.27C100.443 163.182 101.34 163.285 102.119 163.579C102.884 163.89 103.535 164.337 104.071 164.919C104.592 165.503 105 166.16 105.297 166.889C105.595 167.633 105.778 168.404 105.845 169.2C105.91 169.981 105.865 170.763 105.711 171.547C105.541 172.332 105.248 173.057 104.832 173.722C104.4 174.389 103.841 174.933 103.153 175.354C102.451 175.792 101.6 176.055 100.601 176.141C99.5397 176.233 98.5829 176.073 97.7308 175.659C96.8786 175.245 96.1786 174.583 95.6306 173.671C95.0826 172.759 94.7484 171.585 94.6281 170.149L94.5732 169.493L103.54 168.716C103.434 168.017 103.216 167.384 102.886 166.815C102.541 166.263 102.088 165.83 101.527 165.517C100.968 165.22 100.321 165.103 99.5876 165.166C98.9477 165.222 98.4411 165.368 98.0679 165.605C97.6804 165.859 97.3814 166.136 97.1708 166.437C96.9602 166.739 96.8244 166.994 96.7633 167.204C96.688 167.431 96.6503 167.544 96.6503 167.544L94.5666 167.725C94.5666 167.725 94.5939 167.581 94.6484 167.293C94.7042 167.021 94.8172 166.681 94.9874 166.273C95.1577 165.865 95.4209 165.441 95.7771 165.001C96.1346 164.577 96.606 164.198 97.1911 163.865C97.7776 163.546 98.5235 163.348 99.4288 163.27ZM103.662 170.451L96.8957 171.037C96.9949 171.846 97.2215 172.487 97.5755 172.96C97.9308 173.448 98.3608 173.796 98.8656 174.004C99.3704 174.212 99.8959 174.292 100.442 174.245C101.426 174.159 102.203 173.77 102.773 173.075C103.345 172.397 103.641 171.522 103.662 170.451Z" fill="#D33A27"/>
<path d="M86.449 163.131C87.4 163.224 88.1747 163.434 88.7731 163.761C89.356 164.086 89.8081 164.461 90.1296 164.887C90.4496 165.327 90.6768 165.751 90.8111 166.158C90.944 166.58 91.0212 166.926 91.0428 167.196C91.0643 167.466 91.0751 167.601 91.0751 167.601L88.83 167.38C88.83 167.38 88.817 167.268 88.791 167.045C88.7479 166.836 88.654 166.583 88.5092 166.285C88.3474 166.002 88.0897 165.732 87.7363 165.477C87.3659 165.236 86.861 165.084 86.2218 165.021C85.489 164.949 84.9036 165.064 84.4655 165.367C84.026 165.686 83.7818 166.103 83.7328 166.617C83.6897 167.07 83.8193 167.445 84.1214 167.742C84.408 168.038 84.8409 168.285 85.42 168.484L87.0659 169.048C87.6747 169.265 88.2394 169.533 88.7598 169.852C89.2803 170.171 89.6905 170.574 89.9904 171.06C90.2733 171.56 90.382 172.153 90.3167 172.839C90.2157 173.9 89.7358 174.726 88.8768 175.318C88.0163 175.926 86.9468 176.167 85.6683 176.041C84.8108 175.957 84.1133 175.762 83.5758 175.457C83.0368 175.168 82.6206 174.828 82.3274 174.437C82.0185 174.044 81.8032 173.661 81.6814 173.287C81.5441 172.911 81.4639 172.596 81.4409 172.342C81.4164 172.104 81.4041 171.984 81.4041 171.984L83.5557 172.196C83.5557 172.196 83.5709 172.285 83.6014 172.461C83.6303 172.653 83.7202 172.866 83.8709 173.101C84.0045 173.351 84.2269 173.577 84.538 173.781C84.8476 174 85.2752 174.137 85.8209 174.191C86.5693 174.265 87.1313 174.147 87.507 173.837C87.8826 173.528 88.0898 173.171 88.1284 172.765C88.1655 172.375 88.04 172.04 87.752 171.76C87.4468 171.494 87.0429 171.273 86.5403 171.097L84.8709 170.531C83.8345 170.177 83.0007 169.678 82.3697 169.033C81.7215 168.403 81.4479 167.557 81.5489 166.497C81.6142 165.81 81.8544 165.189 82.2694 164.631C82.683 164.09 83.2413 163.68 83.9443 163.403C84.6474 163.126 85.4823 163.035 86.449 163.131Z" fill="#D33A27"/>
<path d="M73.8215 160.581C74.7986 160.868 75.6062 161.293 76.2444 161.856C76.8783 162.434 77.3598 163.09 77.6891 163.823C77.999 164.567 78.177 165.346 78.2229 166.16C78.2539 166.969 78.1603 167.758 77.9422 168.526C77.7241 169.295 77.3921 170.006 76.9463 170.659C76.4963 171.326 75.9452 171.891 75.2931 172.353C74.626 172.81 73.875 173.104 73.0401 173.234C72.2009 173.379 71.2852 173.306 70.2932 173.015C69.3311 172.732 68.5751 172.355 68.025 171.883C67.475 171.411 67.0741 170.902 66.8223 170.354C66.5512 169.817 66.3875 169.304 66.3312 168.814C66.2555 168.334 66.2282 167.943 66.2494 167.639C66.2705 167.335 66.2811 167.183 66.2811 167.183L68.3554 167.792C68.3554 167.792 68.3588 167.924 68.3655 168.187C68.368 168.465 68.4295 168.793 68.5501 169.172C68.6708 169.55 68.9073 169.922 69.2598 170.286C69.6079 170.666 70.1278 170.958 70.8192 171.161C71.6459 171.404 72.4048 171.398 73.0957 171.144C73.7674 170.9 74.3401 170.489 74.8139 169.91C75.2726 169.326 75.6089 168.657 75.8227 167.904C76.0366 167.15 76.1023 166.402 76.0199 165.659C75.9225 164.912 75.6556 164.246 75.2192 163.661C74.7634 163.086 74.1222 162.677 73.2955 162.434C72.604 162.231 72.0136 162.189 71.5243 162.306C71.0307 162.439 70.6338 162.632 70.3336 162.887C70.0333 163.142 69.8114 163.379 69.6678 163.598C69.5199 163.832 69.446 163.949 69.446 163.949L67.3717 163.339C67.3717 163.339 67.4423 163.205 67.5837 162.936C67.7251 162.668 67.9555 162.344 68.275 161.964C68.5751 161.595 68.9826 161.249 69.4974 160.927C69.993 160.615 70.597 160.409 71.3096 160.308C72.0222 160.207 72.8595 160.298 73.8215 160.581Z" fill="#D33A27"/>
<path d="M65.5856 157.917L57.443 173.812L55.4707 172.767L58.7598 166.345L58.6353 166.279C58.4527 166.395 58.1756 166.541 57.8042 166.716C57.4189 166.884 56.9546 166.966 56.4112 166.962C55.8607 166.971 55.2602 166.804 54.6097 166.459C53.8069 166.033 53.2182 165.481 52.8435 164.804C52.4618 164.141 52.2863 163.418 52.317 162.636C52.3339 161.848 52.5424 161.063 52.9424 160.282L56.5958 153.15L58.5681 154.195L54.979 161.202C54.6004 161.941 54.4938 162.665 54.659 163.373C54.8104 164.074 55.2737 164.63 56.0488 165.041C56.6716 165.371 57.259 165.479 57.8108 165.363C58.3555 165.262 58.8568 165.005 59.3149 164.592C59.752 164.185 60.1169 163.696 60.4098 163.124L63.6132 156.871L65.5856 157.917Z" fill="#D33A27"/>
<path d="M49.4904 147.383C50.5168 148.232 51.1895 149.184 51.5086 150.241C51.8179 151.309 51.8457 152.379 51.5921 153.45C51.3384 154.52 50.8694 155.484 50.1851 156.341C49.491 157.21 48.6598 157.875 47.6914 158.334C46.7133 158.806 45.6834 158.991 44.6018 158.89C43.5104 158.8 42.4515 158.332 41.4251 157.483C40.3987 156.635 39.7309 155.676 39.4216 154.607C39.1025 153.551 39.0698 152.487 39.3235 151.417C39.5673 150.358 40.0363 149.394 40.7304 148.525C41.4148 147.668 42.246 147.004 43.2241 146.532C44.2023 146.06 45.2371 145.869 46.3285 145.958C47.4101 146.06 48.4641 146.535 49.4904 147.383ZM48.2733 148.907C47.6213 148.368 46.9459 148.084 46.2473 148.056C45.5267 148.029 44.8427 148.195 44.1952 148.554C43.5357 148.903 42.9664 149.378 42.4873 149.978C41.9985 150.59 41.6587 151.254 41.4677 151.97C41.2549 152.688 41.2399 153.397 41.4227 154.097C41.5837 154.799 41.9902 155.42 42.6422 155.959C43.2822 156.488 43.9625 156.766 44.683 156.792C45.3937 156.831 46.0788 156.676 46.7384 156.327C47.3761 155.98 47.9394 155.501 48.4282 154.889C48.9072 154.289 49.2532 153.63 49.466 152.911C49.6667 152.183 49.6805 151.463 49.5075 150.751C49.3247 150.051 48.9133 149.436 48.2733 148.907Z" fill="#D33A27"/>
<path d="M39.1611 136.702C39.9874 137.747 40.4461 138.819 40.5373 139.918C40.6164 141.028 40.4199 142.08 39.948 143.074C39.4761 144.068 38.816 144.912 37.9676 145.607C37.1071 146.312 36.1553 146.788 35.1123 147.035C34.0571 147.292 33.0112 147.258 31.9747 146.932C30.9261 146.617 29.9886 145.937 29.1623 144.893C28.336 143.848 27.8833 142.771 27.8043 141.662C27.7131 140.562 27.9034 139.515 28.3753 138.521C28.8351 137.537 29.4953 136.693 30.3558 135.988C31.2042 135.293 32.1559 134.817 33.2111 134.56C34.2663 134.303 35.3182 134.332 36.3668 134.648C37.4033 134.973 38.3348 135.658 39.1611 136.702ZM37.6522 137.938C37.1272 137.275 36.5261 136.856 35.8489 136.682C35.1499 136.505 34.4462 136.525 33.738 136.74C33.02 136.944 32.3641 137.289 31.7702 137.775C31.1642 138.272 30.693 138.85 30.3566 139.51C29.9983 140.168 29.8354 140.859 29.8679 141.581C29.8785 142.301 30.1463 142.993 30.6712 143.657C31.1864 144.308 31.7936 144.722 32.4926 144.898C33.1796 145.085 33.882 145.076 34.6 144.873C35.2961 144.667 35.9472 144.316 36.5532 143.82C37.147 143.333 37.6231 142.761 37.9814 142.103C38.3299 141.433 38.4941 140.732 38.4737 139.999C38.4413 139.276 38.1674 138.59 37.6522 137.938Z" fill="#D33A27"/>
<path d="M33.6499 129.045L18.2931 138.163L17.1916 136.248L32.5367 127.11L33.6499 129.045Z" fill="#D33A27"/>
<circle cx="19.9375" cy="110.113" r="6" transform="rotate(-90 19.9375 110.113)" fill="#D33A27"/>
<circle cx="170.234" cy="74.6682" r="6" transform="rotate(-90 170.234 74.6682)" fill="#D33A27"/>
<g clip-path="url(#clip0_477_16417)">
<mask id="mask0_477_16417" style="mask-type:luminance" maskUnits="userSpaceOnUse" x="60" y="53" width="68" height="82">
<path d="M111.454 53.2145L60.707 64.5168L76.3595 134.791L127.106 123.489L111.454 53.2145Z" fill="white"/>
</mask>
<g mask="url(#mask0_477_16417)">
<path d="M66.0178 83.8953C67.4776 84.9492 69.3198 84.8941 70.1308 83.7605C70.9418 82.6269 70.4262 80.856 68.9762 79.778C67.5246 78.7005 65.6886 78.776 64.8703 79.9146C64.0523 81.0549 64.5877 82.8467 66.0178 83.8953Z" fill="#D23B27"/>
<path d="M77.1259 69.2298C78.2137 72.1496 80.9207 73.8466 83.2082 73.0105C85.4957 72.1744 86.4324 69.1119 85.3809 66.1588C84.331 63.2053 81.5832 61.5291 79.313 62.3749C77.0431 63.2222 76.074 66.3357 77.1259 69.2298Z" fill="#D23B27"/>
<path d="M69.607 76.3194C71.1819 78.4488 73.7899 79.2031 75.4579 77.9729C77.1258 76.7427 77.178 74.0304 75.6243 71.8677C74.0707 69.705 71.4418 68.9856 69.7706 70.2013C68.101 71.4167 68.0666 74.2009 69.607 76.3194Z" fill="#D23B27"/>
<path d="M87.3954 64.6763C87.7286 68.3181 90.2863 71.0671 93.1195 70.8149C95.9507 70.5615 97.9674 67.3914 97.685 63.7282C97.4009 60.0654 94.8149 57.3328 91.9657 57.5886C89.1149 57.8447 87.097 61.0773 87.3954 64.6763Z" fill="#D23B27"/>
<path d="M109.249 113.158L109.279 113.295C110.328 118.001 106.925 122.497 100.174 124.001C96.5102 124.817 94.3488 125.086 90.7823 124.1C84.3011 122.503 79.8017 113.341 85.985 105.857C88.3764 106.22 90.7938 106.375 93.2122 106.323C105.014 106.143 108.177 108.346 109.249 113.158Z" fill="white"/>
<path d="M108.178 102.65C104.896 101.1 100.386 100.517 94.4963 100.54C83.276 100.596 80.1501 98.5446 79.0932 93.7995L79.0621 93.6599C77.9413 88.6277 81.6363 83.9793 88.4646 82.4585C91.7005 81.6873 95.0583 81.5843 98.3359 82.1559C101.612 82.7278 104.737 83.9612 107.52 85.7811L108.806 83.3161C108.959 83.5159 109.121 83.7258 109.284 83.9437C115.018 91.5566 112.05 98.6697 108.178 102.65Z" fill="white"/>
<path d="M79.0618 93.6628L79.0921 93.7992C80.1483 98.5409 83.2726 100.593 94.48 100.54C100.382 100.513 104.88 101.099 108.162 102.65C111.711 104.321 113.852 107.112 114.821 111.462L114.852 111.598C116.622 119.545 110.899 127.088 101.236 129.24C94.744 130.873 87.0218 129.68 81.8991 127.095L84.2585 121.739C89.1153 124.392 94.77 125.195 100.174 123.996C106.919 122.494 110.328 117.997 109.28 113.291L109.249 113.154C108.177 108.342 105.014 106.139 93.2275 106.318C90.7601 106.323 88.2962 106.178 85.8465 105.886C79.9993 105.284 74.7663 101.561 73.4343 95.5812L73.4018 95.4353C71.456 86.6993 77.4604 79.3866 87.569 77.1352C95.2741 75.3198 103.386 76.6229 110.132 80.7624L108.803 83.3178L107.518 85.7828C104.735 83.963 101.611 82.7308 98.3339 82.1593C95.0584 81.5891 91.7005 81.6921 88.4643 82.4617C81.636 83.9825 77.9409 88.6308 79.0618 93.6628Z" fill="#D23B27"/>
<path d="M99.8349 62.4885C98.9373 67.1924 101.143 71.5722 104.819 72.2789C108.495 72.9856 112.145 69.7263 113.126 65.0071C114.108 60.2878 111.836 55.9195 108.143 55.2199C104.448 54.5207 100.762 57.8555 99.8349 62.4885Z" fill="#D23B27"/>
</g>
</g>
<defs>
<clipPath id="clip0_477_16417">
<rect width="51.9999" height="71.9979" fill="white" transform="matrix(0.976084 -0.217395 0.217407 0.976081 60.707 64.5151)"/>
</clipPath>
</defs>
</svg>
