<svg width="188" height="189" viewBox="0 0 188 189" fill="none" xmlns="http://www.w3.org/2000/svg">
<path d="M24.8915 88.7743C24.7881 89.7716 24.5746 90.6153 24.251 91.3054C23.9135 91.9782 23.518 92.5266 23.0646 92.9507C22.5955 93.373 22.1206 93.7002 21.6398 93.9322C21.1589 94.1642 20.7088 94.3286 20.2892 94.4254C19.8541 94.5205 19.5095 94.5781 19.2554 94.5981C18.9874 94.6008 18.8533 94.6022 18.8533 94.6022L19.0957 92.2647C19.0957 92.2647 19.2071 92.253 19.4301 92.2297C19.653 92.2063 19.9353 92.1421 20.2769 92.037C20.6202 91.9162 20.9785 91.7262 21.3519 91.4669C21.7098 91.206 22.0236 90.8378 22.2933 90.3626C22.5631 89.8873 22.7376 89.2679 22.8167 88.5043C22.9363 87.3512 22.7582 86.4103 22.2825 85.6817C21.7912 84.9515 21.1015 84.5387 20.2136 84.4434C19.4504 84.3615 18.8318 84.5551 18.3579 85.0242C17.8856 85.4777 17.4842 86.1594 17.1536 87.0693L16.3553 89.2999C16.0688 90.0884 15.7101 90.8141 15.2791 91.4769C14.8341 92.1225 14.2939 92.6238 13.6583 92.981C13.0088 93.321 12.2323 93.4425 11.3289 93.3455C10.3163 93.2369 9.47765 92.8947 8.81279 92.3192C8.14794 91.7436 7.67301 91.0072 7.38801 90.11C7.08744 89.2112 6.99369 88.2163 7.10678 87.1255C7.21664 86.0658 7.47148 85.2029 7.8713 84.5368C8.27112 83.8707 8.73428 83.3532 9.2608 82.9842C9.77173 82.6137 10.2791 82.353 10.783 82.2022C11.2714 82.0498 11.6823 81.96 12.0159 81.9328C12.3495 81.9055 12.5163 81.8919 12.5163 81.8919L12.2836 84.1359C12.2836 84.1359 12.1402 84.152 11.8534 84.1842C11.5665 84.2165 11.2318 84.3303 10.8493 84.5256C10.4512 84.7192 10.0869 85.0425 9.75648 85.4955C9.42601 85.9484 9.21796 86.5879 9.13234 87.4138C9.01602 88.5358 9.19278 89.4135 9.66264 90.0469C10.1341 90.6647 10.7125 91.0104 11.3979 91.084C12.021 91.1509 12.5507 90.9793 12.987 90.5691C13.4077 90.1574 13.7605 89.565 14.0454 88.792L14.9098 86.3794C15.2199 85.5146 15.6225 84.7463 16.1174 84.0747C16.5967 83.4013 17.1853 82.8894 17.8831 82.5388C18.5654 82.1866 19.3739 82.0607 20.3085 82.161C21.2431 82.2613 22.0834 82.5878 22.8294 83.1406C23.577 83.6778 24.1454 84.4242 24.5346 85.3798C24.9098 86.3182 25.0288 87.4497 24.8915 88.7743Z" fill="#19A39E"/>
<path d="M26.0472 79.9094L14.09 76.4233L14.6952 74.2744L16.1842 74.7086L16.2097 74.6181C15.8307 74.2302 15.5383 73.737 15.3325 73.1385C15.1267 72.54 15.1512 71.7883 15.406 70.8835C15.4782 70.6271 15.5591 70.3978 15.6486 70.1954C15.7231 69.9887 15.7603 69.8853 15.7603 69.8853L17.8134 70.4839C17.8134 70.4839 17.7719 70.6023 17.6889 70.8392C17.5951 71.0567 17.5121 71.2936 17.4399 71.5499C17.1469 72.5904 17.2205 73.4849 17.6607 74.2334C18.0902 74.9623 18.9742 75.522 20.3128 75.9122L26.6524 77.7605L26.0472 79.9094Z" fill="#19A39E"/>
<path d="M15.7939 63.538C15.6348 63.93 15.3723 64.202 15.0063 64.3541C14.6461 64.4916 14.2855 64.4845 13.9244 64.3328C13.5489 64.1751 13.2812 63.9182 13.1214 63.5621C12.9674 63.1916 12.97 62.8104 13.129 62.4184C13.2822 62.041 13.5418 61.7762 13.9078 61.6242C14.2739 61.4721 14.6447 61.4749 15.0202 61.6327C15.3813 61.7844 15.6388 62.0455 15.7927 62.4161C15.9467 62.7866 15.9471 63.1606 15.7939 63.538ZM29.0495 70.3051L17.5668 65.4808L18.4063 63.4122L29.889 68.2365L29.0495 70.3051Z" fill="#19A39E"/>
<path d="M38.4004 62.2058C37.8732 63.0953 37.3137 63.7628 36.7218 64.2083C36.1433 64.662 35.566 64.9602 34.9897 65.1028C34.4349 65.2402 33.9319 65.29 33.4809 65.2521C33.0298 65.2143 32.6682 65.1486 32.3958 65.055C32.1369 64.9696 32.0074 64.927 32.0074 64.927L33.1457 63.0065C33.1457 63.0065 33.2592 63.0301 33.4861 63.0775C33.713 63.1248 34.0025 63.1279 34.3547 63.0867C34.7149 63.032 35.1043 62.8666 35.5229 62.5905C35.9415 62.3143 36.3465 61.8461 36.7379 61.1857C37.2013 60.404 37.4112 59.6966 37.3677 59.0634C37.3375 58.4384 37.138 57.8841 36.7691 57.4004C36.4082 56.9033 35.9607 56.4909 35.4266 56.1631L34.2047 55.4134L34.1448 55.5145C34.292 55.7886 34.4245 56.164 34.5426 56.6407C34.6552 57.0958 34.6786 57.6248 34.6126 58.2276C34.5334 58.8222 34.29 59.4631 33.8826 60.1504C33.4033 60.9591 32.8304 61.5724 32.1638 61.9904C31.4972 62.4084 30.7836 62.6598 30.0232 62.7446C29.2708 62.8159 28.5142 62.7559 27.7534 62.5648C26.9926 62.3737 26.2784 62.0733 25.6107 61.6636C24.943 61.2539 24.3486 60.7513 23.8275 60.1559C23.3064 59.5604 22.9013 58.9075 22.6121 58.1971C22.331 57.4733 22.2166 56.7139 22.269 55.919C22.3213 55.1241 22.5871 54.3223 23.0664 53.5137C23.4739 52.8263 23.9242 52.3124 24.4174 51.9718C24.8973 51.623 25.3613 51.3931 25.8095 51.2821C26.2657 51.1577 26.6539 51.1019 26.9741 51.1146L27.034 51.0135L25.4116 50.018L26.55 48.0975L36.5449 54.2304C38.0271 55.1399 38.9426 56.2989 39.2913 57.7075C39.648 59.1026 39.351 60.602 38.4004 62.2058ZM32.4759 58.791C32.8992 58.0768 33.0705 57.3732 32.9895 56.6802C32.9032 55.9656 32.6409 55.3176 32.2025 54.7362C31.7721 54.1413 31.2364 53.6472 30.5954 53.2539C29.9545 52.8606 29.275 52.6091 28.557 52.4994C27.8337 52.3679 27.1479 52.4342 26.4998 52.6982C25.8597 52.9486 25.3279 53.431 24.9046 54.1453C24.4812 54.8596 24.306 55.5699 24.3789 56.2763C24.4519 56.9827 24.7102 57.6375 25.154 58.2406C25.5924 58.822 26.1321 59.3094 26.773 59.7027C27.414 60.096 28.0894 60.3542 28.7994 60.4774C29.5174 60.5872 30.2071 60.5141 30.8686 60.2584C31.5167 59.9944 32.0525 59.5053 32.4759 58.791Z" fill="#19A39E"/>
<path d="M39.3208 51.7261L26.2586 39.5459L27.7528 37.8871L33.0292 42.8073L33.1236 42.7025C33.0595 42.4928 32.991 42.1827 32.9182 41.7721C32.8558 41.3498 32.8955 40.8728 33.0372 40.341C33.1675 39.7985 33.479 39.2537 33.9718 38.7066C34.58 38.0314 35.2537 37.5995 35.9929 37.4107C36.7208 37.2112 37.4526 37.2297 38.1884 37.466C38.9347 37.6907 39.6286 38.1022 40.2703 38.7006L46.1311 44.1656L44.6369 45.8244L38.8792 40.4555C38.272 39.8892 37.6105 39.5937 36.8949 39.569C36.1898 39.5326 35.5437 39.8403 34.9565 40.4922C34.4847 41.016 34.2337 41.5638 34.2036 42.1354C34.1621 42.6964 34.28 43.2561 34.5571 43.8144C34.8333 44.3503 35.2063 44.8373 35.676 45.2754L40.815 50.0674L39.3208 51.7261Z" fill="#19A39E"/>
<path d="M52.5488 39.1643C51.5451 39.9661 50.5852 40.3119 49.6691 40.2017C48.7653 40.0817 47.9496 39.5504 47.2222 38.6078L42.8863 32.9893L41.1421 34.3828L40.0222 32.9316L41.7664 31.5382L39.8569 29.0638L41.6011 27.6704L43.5107 30.1447L45.8792 28.2526L46.999 29.7037L44.6305 31.5959L48.9664 37.2144C49.3493 37.7105 49.7663 37.9688 50.2174 37.9893C50.659 37.9974 51.1369 37.7962 51.6509 37.3855C51.9202 37.1703 52.1629 36.9464 52.379 36.7136C52.5951 36.4808 52.7031 36.3644 52.7031 36.3644L53.8661 37.8714C53.8661 37.8714 53.7445 38.0086 53.5012 38.2831C53.258 38.5577 52.9405 38.8514 52.5488 39.1643Z" fill="#19A39E"/>
<path d="M62.8121 37.2971L56.11 21.6076L58.1518 20.7047L58.9273 22.52L59.0562 22.463C59.1112 22.1132 59.2143 21.7165 59.3655 21.2728C59.531 20.8228 59.8112 20.382 60.206 19.9505C60.5947 19.5046 61.1473 19.1232 61.8637 18.8064C62.7234 18.4262 63.5495 18.2665 64.3419 18.3271C65.1283 18.3734 65.8594 18.5896 66.5354 18.9758C67.2053 19.3476 67.7985 19.839 68.315 20.4499C68.8315 21.0608 69.2466 21.7337 69.5605 22.4685C69.8744 23.2032 70.0746 23.9711 70.1613 24.7721C70.2479 25.5731 70.1994 26.3568 70.0157 27.1231C69.8259 27.8751 69.4824 28.5665 68.9853 29.1974C68.4821 29.8139 67.8006 30.3122 66.941 30.6924C66.2245 31.0092 65.5735 31.16 64.9879 31.145C64.4023 31.1299 63.8913 31.0304 63.455 30.8465C63.033 30.6562 62.6807 30.4694 62.398 30.2862L62.269 30.3432L64.8538 36.3942L62.8121 37.2971ZM60.6411 26.4126C60.9365 27.1041 61.3445 27.7202 61.865 28.2608C62.3937 28.7807 62.9981 29.1387 63.678 29.3347C64.3662 29.51 65.0899 29.4298 65.8493 29.094C66.6231 28.7518 67.1745 28.2682 67.5037 27.643C67.841 26.9971 67.9961 26.3033 67.9689 25.5617C67.9498 24.7993 67.7926 24.0724 67.4972 23.3808C67.1957 22.6749 66.7805 22.062 66.2518 21.5421C65.7375 21.0159 65.1362 20.6651 64.4481 20.4898C63.7681 20.2938 63.0413 20.3668 62.2675 20.7089C61.5081 21.0448 60.9598 21.5356 60.6224 22.1815C60.2933 22.8067 60.1351 23.4932 60.148 24.2412C60.1752 24.9828 60.3396 25.7066 60.6411 26.4126Z" fill="#19A39E"/>
<path d="M74.9364 27.4832L71.9933 15.3809L74.1582 14.8359L74.5247 16.3429L74.6159 16.32C74.7631 15.7983 75.0448 15.2993 75.461 14.8229C75.8772 14.3466 76.5411 13.9936 77.4527 13.7642C77.7109 13.6991 77.9501 13.6551 78.1702 13.632C78.3866 13.5937 78.4948 13.5745 78.4948 13.5745L79.0002 15.6524C79.0002 15.6524 78.8768 15.6754 78.63 15.7214C78.3947 15.7483 78.1479 15.7943 77.8896 15.8593C76.8413 16.1232 76.1026 16.6323 75.6733 17.3866C75.2556 18.1218 75.2115 19.1668 75.5409 20.5216L77.1014 26.9381L74.9364 27.4832Z" fill="#19A39E"/>
<path d="M88.5712 25.2307C87.5567 25.3186 86.6598 25.2155 85.8805 24.9214C85.1156 24.6103 84.465 24.1635 83.9289 23.581C83.4083 22.9971 82.9996 22.3406 82.7027 21.6115C82.4046 20.8668 82.2221 20.0964 82.1555 19.3002C82.0901 18.5196 82.1346 17.7373 82.2891 16.9534C82.4591 16.1681 82.7521 15.4429 83.1681 14.7778C83.5996 14.1114 84.1594 13.5675 84.8473 13.1462C85.5495 12.7079 86.4 12.4455 87.399 12.3589C88.4603 12.2669 89.4171 12.4277 90.2692 12.8413C91.1214 13.2549 91.8214 13.9176 92.3694 14.8293C92.9174 15.741 93.2516 16.9151 93.3719 18.3514L93.4268 19.0071L84.4599 19.7844C84.5656 20.4829 84.7837 21.1166 85.1143 21.6855C85.4593 22.2374 85.9121 22.6699 86.4728 22.983C87.0323 23.2805 87.6788 23.3974 88.4124 23.3338C89.0523 23.2783 89.5589 23.1322 89.9321 22.8954C90.3196 22.6417 90.6186 22.3641 90.8292 22.0628C91.0398 21.7615 91.1756 21.506 91.2367 21.2963C91.312 21.0696 91.3497 20.9563 91.3497 20.9563L93.4334 20.7756C93.4334 20.7756 93.4061 20.9195 93.3516 21.2073C93.2958 21.4795 93.1828 21.8195 93.0126 22.2274C92.8423 22.6353 92.5791 23.0591 92.2229 23.4988C91.8654 23.923 91.394 24.3019 90.8089 24.6357C90.2224 24.9539 89.4765 25.1522 88.5712 25.2307ZM84.3382 18.0495L91.1043 17.4629C91.0051 16.6538 90.7785 16.013 90.4245 15.5404C90.0692 15.0523 89.6392 14.7043 89.1344 14.4965C88.6296 14.2886 88.1041 14.2084 87.5578 14.2557C86.5745 14.341 85.7975 14.7307 85.2268 15.4249C84.6547 16.1035 84.3585 16.9784 84.3382 18.0495Z" fill="#19A39E"/>
<path d="M101.551 25.3697C100.6 25.2759 99.8253 25.0658 99.2269 24.7392C98.644 24.4141 98.1919 24.0389 97.8704 23.6137C97.5504 23.1729 97.3232 22.749 97.1889 22.3422C97.056 21.9198 96.9788 21.5738 96.9572 21.304C96.9357 21.0343 96.9249 20.8994 96.9249 20.8994L99.17 21.1207C99.17 21.1207 99.183 21.2321 99.209 21.4551C99.2521 21.664 99.346 21.9173 99.4908 22.2149C99.6526 22.4985 99.9103 22.7679 100.264 23.0231C100.634 23.2642 101.139 23.4163 101.778 23.4793C102.511 23.5515 103.096 23.4361 103.534 23.1329C103.974 22.8142 104.218 22.3974 104.267 21.8828C104.31 21.4305 104.181 21.0556 103.879 20.7582C103.592 20.4624 103.159 20.215 102.58 20.0163L100.934 19.4526C100.325 19.2352 99.7606 18.967 99.2402 18.6481C98.7197 18.3292 98.3095 17.9267 98.0096 17.4406C97.7267 16.9405 97.618 16.3473 97.6833 15.661C97.7843 14.6005 98.2642 13.7741 99.1232 13.1818C99.9837 12.574 101.053 12.333 102.332 12.459C103.189 12.5435 103.887 12.7382 104.424 13.0431C104.963 13.3323 105.379 13.6725 105.673 14.0634C105.981 14.456 106.197 14.8393 106.319 15.2133C106.456 15.5889 106.536 15.9038 106.559 16.158C106.584 16.3965 106.596 16.5158 106.596 16.5158L104.444 16.3038C104.444 16.3038 104.429 16.2157 104.399 16.0395C104.37 15.8477 104.28 15.6342 104.129 15.399C103.995 15.1497 103.773 14.9231 103.462 14.7193C103.152 14.4999 102.725 14.3633 102.179 14.3095C101.431 14.2357 100.869 14.3535 100.493 14.6628C100.117 14.9721 99.9102 15.3295 99.8716 15.735C99.8345 16.1249 99.96 16.46 100.248 16.7403C100.553 17.0065 100.957 17.2273 101.46 17.4028L103.129 17.9688C104.166 18.3228 104.999 18.8222 105.63 19.4668C106.278 20.0974 106.552 20.943 106.451 22.0035C106.386 22.6898 106.146 23.3115 105.731 23.8689C105.317 24.4106 104.759 24.8199 104.056 25.097C103.353 25.374 102.518 25.4649 101.551 25.3697Z" fill="#19A39E"/>
<path d="M114.178 27.9196C113.201 27.6326 112.394 27.2076 111.756 26.6446C111.122 26.0665 110.64 25.4107 110.311 24.6772C110.001 23.933 109.823 23.1542 109.777 22.3406C109.746 21.5314 109.84 20.7425 110.058 19.9739C110.276 19.2052 110.608 18.4945 111.054 17.8417C111.504 17.1738 112.055 16.6091 112.707 16.1476C113.374 15.6904 114.125 15.3967 114.96 15.2664C115.799 15.1211 116.715 15.1941 117.707 15.4855C118.669 15.7681 119.425 16.1453 119.975 16.6171C120.525 17.0889 120.926 17.5986 121.178 18.1461C121.449 18.6829 121.612 19.1963 121.669 19.6864C121.745 20.1658 121.772 20.5575 121.751 20.8615C121.729 21.1655 121.719 21.3175 121.719 21.3175L119.645 20.7082C119.645 20.7082 119.641 20.5766 119.634 20.3134C119.632 20.0351 119.57 19.7068 119.45 19.3284C119.329 18.9501 119.093 18.5786 118.74 18.2138C118.392 17.8339 117.872 17.5424 117.181 17.3393C116.354 17.0965 115.595 17.1021 114.904 17.3564C114.233 17.5999 113.66 18.0113 113.186 18.5906C112.727 19.1743 112.391 19.8429 112.177 20.5965C111.963 21.35 111.898 22.0981 111.98 22.8408C112.078 23.5878 112.344 24.254 112.781 24.8394C113.237 25.4141 113.878 25.8229 114.705 26.0658C115.396 26.2689 115.986 26.3117 116.476 26.1942C116.969 26.0616 117.366 25.868 117.666 25.6133C117.967 25.3586 118.189 25.1217 118.332 24.9027C118.48 24.6685 118.554 24.5515 118.554 24.5515L120.628 25.1608C120.628 25.1608 120.558 25.2952 120.416 25.5639C120.275 25.8325 120.044 26.1567 119.725 26.5364C119.425 26.9054 119.017 27.2511 118.503 27.5733C118.007 27.885 117.403 28.0912 116.69 28.1921C115.978 28.293 115.141 28.2022 114.178 27.9196Z" fill="#19A39E"/>
<path d="M122.414 30.5832L130.557 14.6873L132.529 15.7332L129.24 22.1543L129.365 22.2203C129.547 22.1044 129.824 21.9587 130.196 21.7833C130.581 21.6153 131.045 21.5335 131.589 21.5379C132.139 21.5284 132.74 21.6961 133.39 22.0411C134.193 22.4668 134.782 23.0183 135.156 23.6957C135.538 24.3592 135.714 25.0817 135.683 25.8633C135.666 26.6522 135.458 27.4371 135.058 28.218L131.404 35.3502L129.432 34.3043L133.021 27.2976C133.4 26.5586 133.506 25.835 133.341 25.1267C133.19 24.4259 132.726 23.8699 131.951 23.4589C131.328 23.1286 130.741 23.0211 130.189 23.1363C129.645 23.2375 129.143 23.4947 128.685 23.9079C128.248 24.3145 127.883 24.8036 127.59 25.3753L124.387 31.6291L122.414 30.5832Z" fill="#19A39E"/>
<path d="M138.51 41.117C137.483 40.2685 136.81 39.3161 136.491 38.2597C136.182 37.1911 136.154 36.1214 136.408 35.0507C136.662 33.9799 137.131 33.0161 137.815 32.1591C138.509 31.29 139.34 30.6256 140.309 30.166C141.287 29.6942 142.317 29.5091 143.398 29.6106C144.49 29.6999 145.549 30.1687 146.575 31.0172C147.601 31.8657 148.269 32.8242 148.578 33.8929C148.897 34.9493 148.93 36.0128 148.677 37.0835C148.433 38.142 147.964 39.1059 147.27 39.9751C146.585 40.832 145.754 41.4964 144.776 41.9682C143.798 42.44 142.763 42.6312 141.672 42.542C140.59 42.4405 139.536 41.9655 138.51 41.117ZM139.727 39.5929C140.379 40.1319 141.054 40.4158 141.753 40.4446C142.473 40.4712 143.157 40.305 143.805 39.946C144.464 39.597 145.034 39.1225 145.513 38.5227C146.001 37.9106 146.341 37.2465 146.532 36.5304C146.745 35.8121 146.76 35.103 146.577 34.4031C146.416 33.701 146.01 33.0804 145.358 32.5414C144.718 32.0123 144.038 31.7345 143.317 31.708C142.606 31.6692 141.921 31.8243 141.262 32.1733C140.624 32.52 140.061 32.9994 139.572 33.6115C139.093 34.2114 138.747 34.8705 138.534 35.5888C138.333 36.3171 138.319 37.0374 138.493 37.7495C138.675 38.4493 139.087 39.0638 139.727 39.5929Z" fill="#19A39E"/>
<path d="M148.839 51.7976C148.013 50.7533 147.554 49.6813 147.463 48.5815C147.384 47.4719 147.58 46.42 148.052 45.426C148.524 44.432 149.184 43.5875 150.032 42.8926C150.893 42.1878 151.845 41.7119 152.888 41.4649C153.943 41.2081 154.989 41.2423 156.025 41.5677C157.074 41.8832 158.011 42.5631 158.838 43.6073C159.664 44.6516 160.117 45.7286 160.196 46.8383C160.287 47.938 160.097 48.9849 159.625 49.9789C159.165 50.963 158.505 51.8075 157.644 52.5123C156.796 53.2073 155.844 53.6832 154.789 53.94C153.734 54.1969 152.682 54.1676 151.633 53.8521C150.597 53.5267 149.665 52.8419 148.839 51.7976ZM150.348 50.5616C150.873 51.225 151.474 51.6439 152.151 51.8181C152.85 51.9947 153.554 51.9752 154.262 51.7595C154.98 51.5561 155.636 51.2112 156.23 50.7248C156.836 50.2284 157.307 49.65 157.643 48.9897C158.002 48.3318 158.165 47.6415 158.132 46.9189C158.122 46.1986 157.854 45.5068 157.329 44.8433C156.814 44.1922 156.206 43.7783 155.507 43.6017C154.82 43.4152 154.118 43.4236 153.4 43.627C152.704 43.8327 152.053 44.1838 151.447 44.6802C150.853 45.1666 150.377 45.7388 150.019 46.3968C149.67 47.067 149.506 47.7684 149.526 48.501C149.559 49.2236 149.833 49.9105 150.348 50.5616Z" fill="#19A39E"/>
<path d="M154.35 59.4553L169.707 50.3374L170.808 52.2522L155.463 61.3904L154.35 59.4553Z" fill="#19A39E"/>
<path d="M163.109 100.226C163.212 99.2284 163.425 98.3847 163.749 97.6946C164.086 97.0218 164.482 96.4734 164.935 96.0493C165.404 95.627 165.879 95.2998 166.36 95.0678C166.841 94.8358 167.291 94.6714 167.711 94.5746C168.146 94.4795 168.491 94.4219 168.745 94.4019C169.013 94.3992 169.147 94.3978 169.147 94.3978L168.904 96.7353C168.904 96.7353 168.793 96.747 168.57 96.7703C168.347 96.7937 168.065 96.8579 167.723 96.963C167.38 97.0838 167.021 97.2738 166.648 97.5331C166.29 97.794 165.976 98.1622 165.707 98.6374C165.437 99.1127 165.262 99.7321 165.183 100.496C165.064 101.649 165.242 102.59 165.718 103.318C166.209 104.049 166.898 104.461 167.786 104.557C168.55 104.639 169.168 104.445 169.642 103.976C170.114 103.522 170.516 102.841 170.846 101.931L171.645 99.7001C171.931 98.9116 172.29 98.1859 172.721 97.5231C173.166 96.8775 173.706 96.3762 174.342 96.019C174.991 95.679 175.768 95.5575 176.671 95.6545C177.684 95.7631 178.522 96.1053 179.187 96.6808C179.852 97.2564 180.327 97.9928 180.612 98.89C180.913 99.7888 181.006 100.784 180.893 101.875C180.783 102.934 180.529 103.797 180.129 104.463C179.729 105.129 179.266 105.647 178.739 106.016C178.228 106.386 177.721 106.647 177.217 106.798C176.729 106.95 176.318 107.04 175.984 107.067C175.651 107.094 175.484 107.108 175.484 107.108L175.716 104.864C175.716 104.864 175.86 104.848 176.147 104.816C176.433 104.784 176.768 104.67 177.151 104.474C177.549 104.281 177.913 103.958 178.244 103.505C178.574 103.052 178.782 102.412 178.868 101.586C178.984 100.464 178.807 99.5865 178.337 98.9531C177.866 98.3353 177.287 97.9896 176.602 97.916C175.979 97.8491 175.449 98.0207 175.013 98.4309C174.592 98.8426 174.24 99.435 173.955 100.208L173.09 102.621C172.78 103.485 172.378 104.254 171.883 104.925C171.403 105.599 170.815 106.111 170.117 106.461C169.435 106.813 168.626 106.939 167.691 106.839C166.757 106.739 165.917 106.412 165.171 105.859C164.423 105.322 163.855 104.576 163.465 103.62C163.09 102.682 162.971 101.55 163.109 100.226Z" fill="#19A39E"/>
<path d="M161.953 109.091L173.91 112.577L173.305 114.726L171.816 114.291L171.79 114.382C172.169 114.77 172.462 115.263 172.668 115.862C172.873 116.46 172.849 117.212 172.594 118.116C172.522 118.373 172.441 118.602 172.351 118.805C172.277 119.011 172.24 119.115 172.24 119.115L170.187 118.516C170.187 118.516 170.228 118.398 170.311 118.161C170.405 117.943 170.488 117.706 170.56 117.45C170.853 116.41 170.78 115.515 170.339 114.767C169.91 114.038 169.026 113.478 167.687 113.088L161.348 111.239L161.953 109.091Z" fill="#19A39E"/>
<path d="M172.206 125.461C172.365 125.069 172.628 124.797 172.994 124.645C173.354 124.507 173.714 124.514 174.076 124.666C174.451 124.824 174.719 125.081 174.879 125.437C175.033 125.807 175.03 126.189 174.871 126.581C174.718 126.958 174.458 127.223 174.092 127.375C173.726 127.527 173.355 127.524 172.98 127.366C172.619 127.215 172.361 126.953 172.207 126.583C172.053 126.212 172.053 125.838 172.206 125.461ZM158.95 118.694L170.433 123.518L169.594 125.587L158.111 120.763L158.95 118.694Z" fill="#19A39E"/>
<path d="M149.6 126.794C150.127 125.905 150.686 125.237 151.278 124.792C151.857 124.338 152.434 124.04 153.01 123.897C153.565 123.76 154.068 123.71 154.519 123.748C154.97 123.786 155.332 123.851 155.604 123.945C155.863 124.03 155.993 124.073 155.993 124.073L154.854 125.994C154.854 125.994 154.741 125.97 154.514 125.923C154.287 125.875 153.997 125.872 153.645 125.913C153.285 125.968 152.896 126.133 152.477 126.41C152.058 126.686 151.653 127.154 151.262 127.814C150.799 128.596 150.589 129.303 150.632 129.937C150.662 130.562 150.862 131.116 151.231 131.6C151.592 132.097 152.039 132.509 152.573 132.837L153.795 133.587L153.855 133.485C153.708 133.211 153.575 132.836 153.457 132.359C153.345 131.904 153.321 131.375 153.387 130.772C153.467 130.178 153.71 129.537 154.117 128.85C154.597 128.041 155.17 127.428 155.836 127.01C156.503 126.592 157.216 126.34 157.977 126.255C158.729 126.184 159.486 126.244 160.247 126.435C161.007 126.626 161.722 126.927 162.389 127.336C163.057 127.746 163.651 128.249 164.172 128.844C164.694 129.44 165.099 130.092 165.388 130.803C165.669 131.527 165.783 132.286 165.731 133.081C165.679 133.876 165.413 134.678 164.934 135.486C164.526 136.174 164.076 136.688 163.583 137.028C163.103 137.377 162.639 137.607 162.19 137.718C161.734 137.842 161.346 137.898 161.026 137.885L160.966 137.987L162.588 138.982L161.45 140.903L151.455 134.77C149.973 133.86 149.057 132.701 148.709 131.293C148.352 129.897 148.649 128.398 149.6 126.794ZM155.524 130.209C155.101 130.923 154.93 131.627 155.01 132.32C155.097 133.034 155.359 133.682 155.798 134.264C156.228 134.859 156.764 135.353 157.405 135.746C158.046 136.139 158.725 136.391 159.443 136.501C160.166 136.632 160.852 136.566 161.5 136.302C162.14 136.051 162.672 135.569 163.095 134.855C163.519 134.14 163.694 133.43 163.621 132.724C163.548 132.017 163.29 131.363 162.846 130.759C162.408 130.178 161.868 129.691 161.227 129.297C160.586 128.904 159.911 128.646 159.201 128.523C158.483 128.413 157.793 128.486 157.131 128.742C156.483 129.006 155.948 129.495 155.524 130.209Z" fill="#19A39E"/>
<path d="M148.679 137.274L161.741 149.454L160.247 151.113L154.971 146.193L154.876 146.297C154.94 146.507 155.009 146.817 155.082 147.228C155.144 147.65 155.105 148.127 154.963 148.659C154.833 149.202 154.521 149.746 154.028 150.293C153.42 150.969 152.746 151.401 152.007 151.589C151.279 151.789 150.547 151.77 149.812 151.534C149.065 151.309 148.371 150.898 147.73 150.299L141.869 144.834L143.363 143.176L149.121 148.545C149.728 149.111 150.389 149.406 151.105 149.431C151.81 149.467 152.456 149.16 153.044 148.508C153.515 147.984 153.766 147.436 153.796 146.865C153.838 146.304 153.72 145.744 153.443 145.186C153.167 144.65 152.794 144.163 152.324 143.725L147.185 138.933L148.679 137.274Z" fill="#19A39E"/>
<path d="M135.451 149.838C136.455 149.036 137.415 148.69 138.331 148.8C139.235 148.92 140.05 149.452 140.778 150.394L145.114 156.013L146.858 154.619L147.978 156.07L146.234 157.464L148.143 159.938L146.399 161.332L144.489 158.857L142.121 160.749L141.001 159.298L143.369 157.406L139.034 151.788C138.651 151.291 138.234 151.033 137.783 151.013C137.341 151.005 136.863 151.206 136.349 151.616C136.08 151.832 135.837 152.056 135.621 152.288C135.405 152.521 135.297 152.638 135.297 152.638L134.134 151.131C134.134 151.131 134.256 150.993 134.499 150.719C134.742 150.444 135.059 150.151 135.451 149.838Z" fill="#19A39E"/>
<path d="M125.188 151.703L131.89 167.392L129.848 168.295L129.073 166.48L128.944 166.537C128.889 166.887 128.786 167.283 128.635 167.727C128.469 168.177 128.189 168.618 127.794 169.049C127.405 169.495 126.853 169.877 126.136 170.194C125.277 170.574 124.451 170.734 123.658 170.673C122.872 170.627 122.141 170.41 121.465 170.024C120.795 169.652 120.202 169.161 119.685 168.55C119.169 167.939 118.753 167.266 118.44 166.532C118.126 165.797 117.925 165.029 117.839 164.228C117.752 163.427 117.801 162.643 117.984 161.877C118.174 161.125 118.518 160.433 119.015 159.803C119.518 159.186 120.199 158.688 121.059 158.308C121.775 157.991 122.426 157.84 123.012 157.855C123.598 157.87 124.109 157.97 124.545 158.154C124.967 158.344 125.319 158.531 125.602 158.714L125.731 158.657L123.146 152.606L125.188 151.703ZM127.359 162.587C127.063 161.896 126.655 161.28 126.135 160.739C125.606 160.219 125.002 159.861 124.322 159.665C123.634 159.49 122.91 159.57 122.151 159.906C121.377 160.248 120.825 160.732 120.496 161.357C120.159 162.003 120.004 162.697 120.031 163.438C120.05 164.201 120.207 164.928 120.503 165.619C120.804 166.325 121.219 166.938 121.748 167.458C122.263 167.984 122.864 168.335 123.552 168.51C124.232 168.706 124.959 168.633 125.732 168.291C126.492 167.955 127.04 167.464 127.378 166.818C127.707 166.193 127.865 165.507 127.852 164.759C127.825 164.017 127.66 163.293 127.359 162.587Z" fill="#19A39E"/>
<path d="M113.064 161.517L116.007 173.619L113.842 174.164L113.475 172.657L113.384 172.68C113.237 173.202 112.955 173.701 112.539 174.177C112.123 174.653 111.459 175.006 110.547 175.236C110.289 175.301 110.05 175.345 109.83 175.368C109.613 175.406 109.505 175.426 109.505 175.426L109 173.348C109 173.348 109.123 173.325 109.37 173.279C109.605 173.252 109.852 173.206 110.11 173.141C111.159 172.877 111.897 172.368 112.327 171.613C112.744 170.878 112.789 169.833 112.459 168.478L110.899 162.062L113.064 161.517Z" fill="#19A39E"/>
<path d="M99.4288 163.769C100.443 163.681 101.34 163.784 102.119 164.079C102.884 164.39 103.535 164.836 104.071 165.419C104.592 166.003 105 166.659 105.297 167.388C105.595 168.133 105.778 168.904 105.845 169.7C105.91 170.48 105.865 171.263 105.711 172.047C105.541 172.832 105.248 173.557 104.832 174.222C104.4 174.889 103.841 175.432 103.153 175.854C102.451 176.292 101.6 176.555 100.601 176.641C99.5397 176.733 98.5829 176.572 97.7308 176.159C96.8786 175.745 96.1786 175.082 95.6306 174.171C95.0826 173.259 94.7484 172.085 94.6281 170.649L94.5732 169.993L103.54 169.216C103.434 168.517 103.216 167.883 102.886 167.314C102.541 166.763 102.088 166.33 101.527 166.017C100.968 165.72 100.321 165.603 99.5876 165.666C98.9477 165.722 98.4411 165.868 98.0679 166.105C97.6804 166.358 97.3814 166.636 97.1708 166.937C96.9602 167.238 96.8244 167.494 96.7633 167.704C96.688 167.93 96.6503 168.044 96.6503 168.044L94.5666 168.224C94.5666 168.224 94.5939 168.08 94.6484 167.793C94.7042 167.521 94.8172 167.181 94.9874 166.773C95.1577 166.365 95.4209 165.941 95.7771 165.501C96.1346 165.077 96.606 164.698 97.1911 164.364C97.7776 164.046 98.5235 163.848 99.4288 163.769ZM103.662 170.951L96.8957 171.537C96.9949 172.346 97.2215 172.987 97.5755 173.46C97.9308 173.948 98.3608 174.296 98.8656 174.504C99.3704 174.711 99.8959 174.792 100.442 174.744C101.426 174.659 102.203 174.269 102.773 173.575C103.345 172.896 103.641 172.022 103.662 170.951Z" fill="#19A39E"/>
<path d="M86.449 163.63C87.4 163.724 88.1747 163.934 88.7731 164.261C89.356 164.586 89.8081 164.961 90.1296 165.386C90.4496 165.827 90.6768 166.251 90.8111 166.658C90.944 167.08 91.0212 167.426 91.0428 167.696C91.0643 167.966 91.0751 168.101 91.0751 168.101L88.83 167.879C88.83 167.879 88.817 167.768 88.791 167.545C88.7479 167.336 88.654 167.083 88.5092 166.785C88.3474 166.502 88.0897 166.232 87.7363 165.977C87.3659 165.736 86.861 165.584 86.2218 165.521C85.489 165.448 84.9036 165.564 84.4655 165.867C84.026 166.186 83.7818 166.603 83.7328 167.117C83.6897 167.57 83.8193 167.944 84.1214 168.242C84.408 168.538 84.8409 168.785 85.42 168.984L87.0659 169.547C87.6747 169.765 88.2394 170.033 88.7598 170.352C89.2803 170.671 89.6905 171.073 89.9904 171.559C90.2733 172.06 90.382 172.653 90.3167 173.339C90.2157 174.399 89.7358 175.226 88.8768 175.818C88.0163 176.426 86.9468 176.667 85.6683 176.541C84.8108 176.456 84.1133 176.262 83.5758 175.957C83.0368 175.668 82.6206 175.328 82.3274 174.937C82.0185 174.544 81.8032 174.161 81.6814 173.787C81.5441 173.411 81.4639 173.096 81.4409 172.842C81.4164 172.603 81.4041 172.484 81.4041 172.484L83.5557 172.696C83.5557 172.696 83.5709 172.784 83.6014 172.96C83.6303 173.152 83.7202 173.366 83.8709 173.601C84.0045 173.85 84.2269 174.077 84.538 174.281C84.8476 174.5 85.2752 174.637 85.8209 174.691C86.5693 174.764 87.1313 174.646 87.507 174.337C87.8826 174.028 88.0898 173.67 88.1284 173.265C88.1655 172.875 88.04 172.54 87.752 172.26C87.4468 171.993 87.0429 171.773 86.5403 171.597L84.8709 171.031C83.8345 170.677 83.0007 170.178 82.3697 169.533C81.7215 168.903 81.4479 168.057 81.5489 166.996C81.6142 166.31 81.8544 165.688 82.2694 165.131C82.683 164.589 83.2413 164.18 83.9443 163.903C84.6474 163.626 85.4823 163.535 86.449 163.63Z" fill="#19A39E"/>
<path d="M73.8215 161.08C74.7986 161.367 75.6062 161.792 76.2444 162.355C76.8783 162.934 77.3598 163.589 77.6891 164.323C77.999 165.067 78.177 165.846 78.2229 166.659C78.2539 167.469 78.1603 168.257 77.9422 169.026C77.7241 169.795 77.3921 170.506 76.9463 171.158C76.4963 171.826 75.9452 172.391 75.2931 172.852C74.626 173.31 73.875 173.603 73.0401 173.734C72.2009 173.879 71.2852 173.806 70.2932 173.514C69.3311 173.232 68.5751 172.855 68.025 172.383C67.475 171.911 67.0741 171.401 66.8223 170.854C66.5512 170.317 66.3875 169.804 66.3312 169.314C66.2555 168.834 66.2282 168.443 66.2494 168.138C66.2705 167.834 66.2811 167.682 66.2811 167.682L68.3554 168.292C68.3554 168.292 68.3588 168.423 68.3655 168.687C68.368 168.965 68.4295 169.293 68.5501 169.672C68.6708 170.05 68.9073 170.421 69.2598 170.786C69.6079 171.166 70.1278 171.458 70.8192 171.661C71.6459 171.904 72.4048 171.898 73.0957 171.644C73.7674 171.4 74.3401 170.989 74.8139 170.409C75.2726 169.826 75.6089 169.157 75.8227 168.404C76.0366 167.65 76.1023 166.902 76.0199 166.159C75.9225 165.412 75.6556 164.746 75.2192 164.161C74.7634 163.586 74.1222 163.177 73.2955 162.934C72.604 162.731 72.0136 162.688 71.5243 162.806C71.0307 162.938 70.6338 163.132 70.3336 163.387C70.0333 163.641 69.8114 163.878 69.6678 164.097C69.5199 164.331 69.446 164.449 69.446 164.449L67.3717 163.839C67.3717 163.839 67.4423 163.705 67.5837 163.436C67.7251 163.167 67.9555 162.843 68.275 162.464C68.5751 162.095 68.9826 161.749 69.4974 161.427C69.993 161.115 70.597 160.909 71.3096 160.808C72.0222 160.707 72.8595 160.798 73.8215 161.08Z" fill="#19A39E"/>
<path d="M65.5856 158.417L57.443 174.313L55.4707 173.267L58.7598 166.846L58.6353 166.78C58.4527 166.896 58.1756 167.041 57.8042 167.217C57.4189 167.385 56.9546 167.467 56.4112 167.462C55.8607 167.472 55.2602 167.304 54.6097 166.959C53.8069 166.533 53.2182 165.982 52.8435 165.304C52.4618 164.641 52.2863 163.918 52.317 163.137C52.3339 162.348 52.5424 161.563 52.9424 160.782L56.5958 153.65L58.5681 154.696L54.979 161.702C54.6004 162.441 54.4938 163.165 54.659 163.873C54.8104 164.574 55.2737 165.13 56.0488 165.541C56.6716 165.871 57.259 165.979 57.8108 165.864C58.3555 165.762 58.8568 165.505 59.3149 165.092C59.752 164.686 60.1169 164.196 60.4098 163.625L63.6132 157.371L65.5856 158.417Z" fill="#19A39E"/>
<path d="M49.4904 147.883C50.5168 148.731 51.1895 149.684 51.5086 150.74C51.8179 151.809 51.8457 152.879 51.5921 153.949C51.3384 155.02 50.8694 155.984 50.1851 156.841C49.491 157.71 48.6598 158.374 47.6914 158.834C46.7133 159.306 45.6834 159.491 44.6018 159.389C43.5104 159.3 42.4515 158.831 41.4251 157.983C40.3987 157.134 39.7309 156.176 39.4216 155.107C39.1025 154.051 39.0698 152.987 39.3235 151.916C39.5673 150.858 40.0363 149.894 40.7304 149.025C41.4148 148.168 42.246 147.504 43.2241 147.032C44.2023 146.56 45.2371 146.369 46.3285 146.458C47.4101 146.56 48.4641 147.035 49.4904 147.883ZM48.2733 149.407C47.6213 148.868 46.9459 148.584 46.2473 148.555C45.5267 148.529 44.8427 148.695 44.1952 149.054C43.5357 149.403 42.9664 149.877 42.4873 150.477C41.9985 151.089 41.6587 151.754 41.4677 152.47C41.2549 153.188 41.2399 153.897 41.4227 154.597C41.5837 155.299 41.9902 155.92 42.6422 156.459C43.2822 156.988 43.9625 157.265 44.683 157.292C45.3937 157.331 46.0788 157.176 46.7384 156.827C47.3761 156.48 47.9394 156.001 48.4282 155.388C48.9072 154.789 49.2532 154.13 49.466 153.411C49.6667 152.683 49.6805 151.963 49.5075 151.251C49.3247 150.551 48.9133 149.936 48.2733 149.407Z" fill="#19A39E"/>
<path d="M39.1611 137.202C39.9874 138.247 40.4461 139.319 40.5373 140.418C40.6164 141.528 40.4199 142.58 39.948 143.574C39.4761 144.568 38.816 145.412 37.9676 146.107C37.1071 146.812 36.1553 147.288 35.1123 147.535C34.0571 147.792 33.0112 147.758 31.9747 147.432C30.9261 147.117 29.9886 146.437 29.1623 145.393C28.336 144.348 27.8833 143.271 27.8043 142.162C27.7131 141.062 27.9034 140.015 28.3753 139.021C28.8351 138.037 29.4953 137.193 30.3558 136.488C31.2042 135.793 32.1559 135.317 33.2111 135.06C34.2663 134.803 35.3182 134.832 36.3668 135.148C37.4033 135.473 38.3348 136.158 39.1611 137.202ZM37.6522 138.438C37.1272 137.775 36.5261 137.356 35.8489 137.182C35.1499 137.005 34.4462 137.025 33.738 137.24C33.02 137.444 32.3641 137.789 31.7702 138.275C31.1642 138.772 30.693 139.35 30.3566 140.01C29.9983 140.668 29.8354 141.359 29.8679 142.081C29.8785 142.801 30.1463 143.493 30.6712 144.157C31.1864 144.808 31.7936 145.222 32.4926 145.398C33.1796 145.585 33.882 145.576 34.6 145.373C35.2961 145.167 35.9472 144.816 36.5532 144.32C37.147 143.833 37.6231 143.261 37.9814 142.603C38.3299 141.933 38.4941 141.232 38.4737 140.499C38.4413 139.776 38.1674 139.09 37.6522 138.438Z" fill="#19A39E"/>
<path d="M33.6499 129.545L18.2931 138.663L17.1916 136.748L32.5367 127.61L33.6499 129.545Z" fill="#19A39E"/>
<circle cx="19.9375" cy="110.612" r="6" transform="rotate(-90 19.9375 110.612)" fill="#19A39E"/>
<circle cx="170.234" cy="75.168" r="6" transform="rotate(-90 170.234 75.168)" fill="#19A39E"/>
<g clip-path="url(#clip0_477_18766)">
<mask id="mask0_477_18766" style="mask-type:luminance" maskUnits="userSpaceOnUse" x="60" y="53" width="68" height="83">
<path d="M111.454 53.7142L60.707 65.0166L76.3595 135.291L127.106 123.988L111.454 53.7142Z" fill="white"/>
</mask>
<g mask="url(#mask0_477_18766)">
<path d="M66.0178 84.3948C67.4776 85.4487 69.3198 85.3937 70.1308 84.26C70.9418 83.1264 70.4262 81.3555 68.9762 80.2776C67.5246 79.2 65.6886 79.2755 64.8703 80.4142C64.0523 81.5544 64.5877 83.3462 66.0178 84.3948Z" fill="#D23B27"/>
<path d="M77.1259 69.7293C78.2137 72.6491 80.9207 74.3462 83.2082 73.51C85.4957 72.6739 86.4324 69.6114 85.3809 66.6583C84.331 63.7048 81.5832 62.0286 79.313 62.8744C77.0431 63.7217 76.074 66.8352 77.1259 69.7293Z" fill="#D23B27"/>
<path d="M69.607 76.8189C71.1819 78.9483 73.7899 79.7026 75.4579 78.4724C77.1258 77.2422 77.178 74.5299 75.6243 72.3672C74.0707 70.2045 71.4418 69.4851 69.7706 70.7008C68.101 71.9162 68.0666 74.7004 69.607 76.8189Z" fill="#D23B27"/>
<path d="M87.3954 65.1756C87.7286 68.8173 90.2863 71.5663 93.1195 71.3141C95.9507 71.0607 97.9674 67.8907 97.685 64.2275C97.4009 60.5647 94.8149 57.8321 91.9657 58.0878C89.1149 58.3439 87.097 61.5766 87.3954 65.1756Z" fill="#D23B27"/>
<path d="M109.249 113.658L109.279 113.794C110.328 118.501 106.925 122.996 100.174 124.5C96.5102 125.316 94.3488 125.585 90.7823 124.6C84.3011 123.002 79.8017 113.84 85.985 106.356C88.3764 106.719 90.7938 106.874 93.2122 106.822C105.014 106.642 108.177 108.845 109.249 113.658Z" fill="#FCB247"/>
<path d="M108.178 103.15C104.896 101.599 100.386 101.016 94.4963 101.04C83.276 101.096 80.1501 99.0441 79.0932 94.299L79.0621 94.1595C77.9413 89.1272 81.6363 84.4788 88.4646 82.958C91.7005 82.1868 95.0583 82.0838 98.3359 82.6554C101.612 83.2273 104.737 84.4607 107.52 86.2806L108.806 83.8156C108.959 84.0154 109.121 84.2253 109.284 84.4432C115.018 92.0562 112.05 99.1692 108.178 103.15Z" fill="#FCB247"/>
<path d="M79.0618 94.1626L79.0921 94.2989C80.1483 99.0407 83.2726 101.093 94.48 101.039C100.382 101.013 104.88 101.599 108.162 103.149C111.711 104.82 113.852 107.612 114.821 111.962L114.852 112.098C116.622 120.045 110.899 127.588 101.236 129.74C94.744 131.373 87.0218 130.18 81.8991 127.595L84.2585 122.239C89.1153 124.892 94.77 125.695 100.174 124.496C106.919 122.994 110.328 118.497 109.28 113.79L109.249 113.654C108.177 108.842 105.014 106.639 93.2275 106.817C90.7601 106.823 88.2962 106.678 85.8465 106.385C79.9993 105.783 74.7663 102.061 73.4343 96.081L73.4018 95.935C71.456 87.1991 77.4604 79.8864 87.569 77.635C95.2741 75.8196 103.386 77.1226 110.132 81.2621L108.803 83.8176L107.518 86.2825C104.735 84.4627 101.611 83.2306 98.3339 82.6591C95.0584 82.0888 91.7005 82.1918 88.4643 82.9614C81.636 84.4822 77.9409 89.1305 79.0618 94.1626Z" fill="#D23B27"/>
<path d="M99.8349 62.9878C98.9373 67.6917 101.143 72.0714 104.819 72.7781C108.495 73.4848 112.145 70.2256 113.126 65.5063C114.108 60.7871 111.836 56.4187 108.143 55.7192C104.448 55.02 100.762 58.3548 99.8349 62.9878Z" fill="#D23B27"/>
</g>
</g>
<defs>
<clipPath id="clip0_477_18766">
<rect width="51.9999" height="71.9979" fill="white" transform="matrix(0.976084 -0.217395 0.217407 0.976081 60.707 65.0151)"/>
</clipPath>
</defs>
</svg>
