<svg width="265" height="96" viewBox="0 0 265 96" fill="none" xmlns="http://www.w3.org/2000/svg">
<path d="M82.3933 25.6905L81.6765 18.7303C81.4915 16.9341 81.2709 15.2323 81.0393 13.6451C80.8402 12.3723 80.6849 11.526 80.5991 11.3533L80.5651 11.2434C81.131 11.2305 81.6048 11.2044 81.9641 11.1674L85.1523 10.839C87.0608 10.6425 88.5664 10.9412 89.6693 11.7353C90.7721 12.5293 91.3771 13.5562 91.5066 14.8135C91.6708 16.4076 91.1693 17.7073 89.982 18.7372C88.797 19.7895 87.3838 20.3889 85.7223 20.56C85.2508 20.6085 84.8444 20.6277 84.5006 20.595C84.7751 23.04 85.1203 25.0693 85.4912 26.6876C84.5643 26.9418 84.0773 27.0601 84.01 27.067C83.0445 27.1664 82.4974 26.7009 82.3933 25.6905ZM84.1961 17.8581L84.3695 19.5421C84.5514 19.546 84.8232 19.5407 85.16 19.5061C86.3949 19.3789 87.321 18.8978 87.9384 18.0627C88.5581 17.2501 88.8249 16.315 88.7208 15.3046C88.6191 14.3167 88.1944 13.4982 87.4492 12.8715C86.6815 12.2472 85.679 11.9874 84.3992 12.1192L83.7032 12.1909C83.8971 14.7349 84.0689 16.6233 84.1961 17.8581Z" fill="white"/>
<path d="M96.7088 24.1197C96.6734 23.647 96.6469 22.9926 96.6261 22.1114C96.5828 21.2319 96.558 20.6 96.5276 20.1949C96.3233 17.4714 95.9429 15.4175 95.7431 14.8667C95.6536 14.5791 95.5743 14.4266 95.5259 14.385C95.9884 14.2145 96.3435 14.12 96.6136 14.0997C97.694 14.0186 98.4773 14.5031 98.5448 15.4034L98.4497 16.2481L98.5414 16.2638C98.7834 15.5666 99.2364 14.9668 99.857 14.4902C100.478 14.0135 101.115 13.762 101.768 13.713C102.511 13.6573 102.893 13.9229 102.937 14.5081C102.981 15.0933 102.931 15.6403 102.786 16.1264L102.677 16.1799C101.812 15.8147 101.189 15.6577 100.829 15.6848C99.3213 15.7979 98.6866 17.2941 98.9028 20.1751C99.1003 22.8086 99.4638 24.6373 99.631 25.0549C99.7154 25.2749 99.7688 25.384 99.8155 25.4032C98.9045 25.6299 98.3694 25.738 98.2569 25.7464C97.334 25.8157 96.8085 25.4477 96.7088 24.1197Z" fill="white"/>
<path d="M107.738 23.6046C106.692 22.5957 106.126 21.2459 106.042 19.6004C105.958 17.9548 106.379 16.4643 107.307 15.1514C108.234 13.8384 109.487 13.1417 111.065 13.0612C113.837 12.9198 115.288 14.3374 115.377 16.0732C115.443 18.262 113.215 19.3249 111.183 19.3608C110.394 19.401 109.456 19.1777 109.017 18.9966L108.671 18.8561L108.583 18.9058C108.724 21.6784 110.123 23.3925 112.399 23.2764C113.481 23.2212 114.808 22.6338 115.417 22.1733L115.873 21.811L115.991 21.918C115.977 22.0769 115.941 22.2595 115.524 22.9363C115.315 23.2859 115.06 23.5927 114.779 23.8556C114.197 24.4051 113.004 24.9406 111.584 25.013C110.074 25.0901 108.784 24.6135 107.738 23.6046ZM108.55 17.8226C108.558 17.9804 109.728 18.305 110.674 18.2567C111.824 18.198 112.759 17.4723 112.693 16.1874C112.632 14.9927 112.019 14.0522 110.825 14.1131C110.351 14.1373 109.913 14.4082 109.531 14.9023C109.151 15.4189 108.884 15.9523 108.753 16.4788C108.6 17.029 108.533 17.4845 108.55 17.8226Z" fill="white"/>
<path d="M119.435 23.0601C119.427 22.7668 119.573 22.3338 119.853 21.807L119.966 21.804C120.175 22.0467 120.387 22.3571 121.622 22.9336C122.239 23.2105 122.875 23.3515 123.529 23.3339C124.883 23.2975 125.496 22.6036 125.473 21.7236C125.437 20.3924 123.278 19.8634 121.608 19.0503C120.441 18.4946 119.488 17.4816 119.45 16.0601C119.423 15.0447 119.806 14.199 120.625 13.5673C121.443 12.9357 122.406 12.6163 123.534 12.586C124.188 12.5684 124.936 12.6612 125.753 12.8424C126.549 13.0468 126.964 13.3518 126.975 13.7579C126.989 14.2768 126.732 14.8256 126.206 15.4043L126.093 15.4073C126.093 15.3847 125.669 14.7413 124.977 14.1955C124.562 13.8679 123.854 13.5708 123.222 13.5878C122.207 13.6151 121.481 14.3572 121.508 15.3499C121.543 16.636 123.701 17.1425 125.37 17.8879C126.536 18.4211 127.489 19.4566 127.53 20.9684C127.558 22.0288 127.153 22.8978 126.312 23.53C125.449 24.1854 124.464 24.528 123.314 24.5589C122.479 24.5814 121.617 24.4465 120.751 24.1537C119.886 23.8834 119.447 23.5113 119.435 23.0601Z" fill="white"/>
<path d="M131.019 18.7688C131.011 16.9857 131.591 15.4933 132.737 14.2467C133.882 13.0226 135.347 12.4065 137.13 12.3985C137.92 12.3949 139.026 12.5253 140.022 13.0399C140.519 13.3085 140.769 13.6234 140.771 13.9845C140.773 14.4359 140.504 14.9337 139.988 15.5003L139.875 15.5009C139.807 15.3883 139.738 15.2532 139.307 14.7811C139.081 14.5565 138.854 14.3543 138.627 14.1748C138.152 13.8158 137.36 13.4583 136.638 13.4615C135.261 13.4678 134.25 14.601 133.895 15.8666C133.717 16.5219 133.63 17.1995 133.633 17.8992C133.64 19.276 133.983 20.403 134.687 21.3253C135.391 22.2475 136.296 22.6948 137.425 22.6897C138.395 22.6853 139.859 22.0241 140.557 21.5695L141.074 21.206L141.165 21.2959C141.098 21.4542 141.099 21.6573 140.606 22.3593C140.359 22.699 140.067 23.0163 139.752 23.2886C139.123 23.8331 137.861 24.358 136.484 24.3643C134.972 24.3711 133.706 23.8351 132.64 22.7566C131.574 21.678 131.026 20.3487 131.019 18.7688Z" fill="white"/>
<path d="M145.062 24.0454C145.108 24.0014 145.156 23.8896 145.227 23.7332C145.276 23.5763 145.358 22.9913 145.496 21.9334C145.611 20.8749 145.688 19.4995 145.728 17.8072L145.825 13.7229C145.923 9.54839 145.818 7.31074 145.487 6.96429L145.557 6.87562C147.001 6.90965 147.671 7.21895 148.087 7.77061C148.328 8.09237 148.423 8.86224 148.432 9.4269C148.448 9.72077 148.438 10.1269 148.426 10.6459C148.392 12.0675 148.272 13.329 148.066 14.4079L148.156 14.4326C148.417 13.8743 148.948 13.4127 149.723 13.0697C150.499 12.7268 151.316 12.5654 152.15 12.5851C153.572 12.6186 154.489 13.0014 154.903 13.6433C155.316 14.3078 155.392 14.8966 155.371 15.7992C155.358 16.3408 155.316 17.1752 155.267 18.2803C155.219 19.3855 155.175 20.2875 155.158 20.987C155.142 21.6866 155.158 21.9804 155.28 22.5252C155.402 23.0925 155.712 23.3707 156.231 23.383C156.502 23.3893 156.821 23.2614 156.981 23.1523L157.096 23.0873L157.184 23.1571C157.184 23.1571 156.61 24.5433 154.647 24.4971C153.496 24.47 152.629 23.8851 152.659 22.6215C152.674 21.9896 152.718 21.0876 152.769 19.8922C152.819 18.7193 152.842 17.7265 152.861 16.9141C152.879 16.1695 152.887 15.831 152.765 15.2411C152.704 14.9462 152.597 14.7179 152.465 14.5567C152.202 14.2344 151.689 13.9514 150.945 13.9339C150.268 13.9179 149.652 14.1969 149.074 14.7477C148.496 15.3211 148.184 16.104 148.161 17.0969C148.145 17.7512 148.146 18.6995 148.14 19.896C148.134 21.115 148.134 22.0858 148.117 22.8079C148.093 23.8233 147.607 24.3312 146.659 24.3088C146.32 24.3009 145.78 24.2204 145.062 24.0454Z" fill="white"/>
<path d="M160.151 19.0829C160.242 17.3699 160.839 15.9325 161.964 14.7493C163.089 13.5886 164.563 13.0569 166.434 13.1566C168.215 13.2514 169.607 13.8455 170.565 14.9589C171.523 16.0723 171.951 17.3609 171.873 18.8259C171.778 20.6066 171.177 22.1341 170.049 23.3624C168.92 24.6133 167.421 25.1888 165.572 25.0904C163.769 24.9943 162.402 24.3563 161.448 23.1753C160.492 22.0169 160.068 20.6381 160.151 19.0829ZM162.921 18.8462C162.848 20.2211 163.077 21.4313 163.588 22.4531C164.099 23.4748 164.839 24.0115 165.853 24.0656C166.8 24.116 167.571 23.6372 168.143 22.6506C168.716 21.6639 169.027 20.4826 169.102 19.0851C169.17 17.8004 168.96 16.659 168.446 15.7049C167.931 14.7508 167.145 14.2342 166.131 14.1802C165.184 14.1297 164.438 14.5646 163.869 15.4836C163.3 16.4027 162.992 17.5164 162.921 18.8462Z" fill="white"/>
<path d="M175.464 19.9511C175.609 18.2418 176.25 16.8239 177.412 15.6766C178.573 14.5518 180.063 14.0667 181.93 14.2251C183.707 14.3758 185.08 15.0133 186.002 16.1563C186.925 17.2992 187.313 18.6006 187.189 20.0625C187.038 21.8392 186.389 23.3472 185.223 24.5395C184.055 25.7542 182.538 26.2824 180.694 26.1259C178.895 25.9732 177.548 25.2927 176.631 24.0823C175.713 22.8944 175.332 21.503 175.464 19.9511ZM178.24 19.8016C178.124 21.1735 178.315 22.3903 178.793 23.4276C179.272 24.4649 179.994 25.0246 181.007 25.1104C181.951 25.1906 182.737 24.7363 183.34 23.7681C183.943 22.7999 184.292 21.6289 184.41 20.2345C184.519 18.9526 184.345 17.8051 183.861 16.8353C183.377 15.8655 182.607 15.3245 181.595 15.2386C180.65 15.1585 179.891 15.5697 179.293 16.4704C178.696 17.3711 178.353 18.4747 178.24 19.8016Z" fill="white"/>
<path d="M191.188 25.0486C191.25 24.4878 191.395 23.3911 191.624 21.7361C191.829 20.101 191.996 18.8024 192.099 17.8826C192.333 15.774 192.496 13.907 192.606 12.3068C192.676 11.0655 192.616 10.1732 192.554 9.91645L192.481 9.74943L192.559 9.66719C194.351 9.88934 195.408 10.393 195.268 11.6492C195.185 12.3895 195.033 13.5535 194.838 15.0989C194.644 16.6443 194.489 17.8307 194.399 18.6383C194.147 20.904 193.947 22.903 193.82 24.6602C193.732 25.6498 194.014 26.1807 194.665 26.2531C194.934 26.2831 195.263 26.1834 195.432 26.0888L195.552 26.0339L195.634 26.1112C195.634 26.1112 194.941 27.4421 192.989 27.225C191.845 27.0976 191.035 26.417 191.188 25.0486Z" fill="white"/>
<mask id="mask0_2001_7834" style="mask-type:luminance" maskUnits="userSpaceOnUse" x="10" y="21" width="51" height="71">
<path d="M60.6433 21.8262H10V91.9206H60.6433V21.8262Z" fill="white"/>
</mask>
<g mask="url(#mask0_2001_7834)">
<path d="M10.9468 41.3665C12.1116 42.6769 13.8748 43.0146 14.886 42.109C15.8972 41.2034 15.782 39.4114 14.6316 38.0802C13.4796 36.749 11.718 36.4321 10.6988 37.3409C9.6796 38.2513 9.8092 40.0673 10.9468 41.3665Z" fill="white"/>
<path d="M24.615 29.7822C25.031 32.787 27.2454 34.9726 29.5974 34.6622C31.9494 34.3518 33.4886 31.6398 33.1142 28.611C32.7414 25.5822 30.4838 23.4078 28.1462 23.731C25.8086 24.0558 24.2278 26.8094 24.615 29.7822Z" fill="white"/>
<path d="M15.9646 34.9266C17.011 37.2834 19.331 38.5522 21.1774 37.7362C23.0238 36.9202 23.6478 34.3554 22.6286 31.9714C21.6094 29.5874 19.2622 28.3458 17.4158 29.1474C15.5694 29.949 14.9486 32.5874 15.9646 34.9266Z" fill="white"/>
<path d="M35.344 27.6267C34.8896 31.1579 36.7392 34.3115 39.4864 34.6715C42.232 35.0299 44.8208 32.4443 45.328 28.9035C45.8336 25.3627 43.9536 22.2187 41.1904 21.8587C38.4272 21.5003 35.824 24.1451 35.3456 27.6267H35.344Z" fill="white"/>
<path d="M45.8529 78.3233V78.4593C45.8529 83.1537 41.6657 86.7057 34.9281 86.7057C31.2721 86.7057 29.1601 86.5041 25.9777 84.8129C20.1537 81.9233 17.8161 72.2641 25.2801 66.4609C27.4769 67.3121 29.7425 67.9713 32.0529 68.4337C43.3121 70.7585 45.8529 73.5233 45.8529 78.3217V78.3233Z" fill="#FCB247"/>
<path d="M47.0605 68.1107C44.2685 65.9427 40.1037 64.4339 34.4989 63.2099C23.8189 60.8883 21.2812 58.2771 21.2812 53.5443V53.4051C21.2812 48.3859 25.7789 44.7507 32.5933 44.7507C35.8333 44.7027 39.0477 45.3155 42.0429 46.5523C45.0365 47.7891 47.7469 49.6227 50.0077 51.9411L51.7517 49.8707C51.8557 50.0931 51.9645 50.3267 52.0733 50.5683C55.9117 59.0179 51.5853 65.1491 47.0589 68.1107H47.0605Z" fill="#FCB247"/>
<path d="M21.2822 53.4117V53.5477C21.2822 58.2773 23.8182 60.8885 34.4854 63.2101C40.103 64.4341 44.255 65.9429 47.047 68.1109C50.0678 70.4501 51.5126 73.5557 51.5126 77.8949V78.0309C51.5126 85.9573 44.4742 91.9141 34.831 91.9141C28.3126 92.0917 21.223 89.3237 16.8998 85.7829L20.2774 81.1925C24.3334 84.7413 29.5398 86.7013 34.9318 86.7061C41.663 86.7061 45.8566 83.1541 45.8566 78.4597V78.3237C45.8566 73.5237 43.3158 70.7605 32.071 68.4357C29.7238 67.9189 27.4118 67.2597 25.1446 66.4629C19.7126 64.6533 15.5254 60.0085 15.5254 54.0437V53.8981C15.5254 45.1845 22.783 39.5061 32.871 39.5061C40.5814 39.4117 48.0182 42.3669 53.5558 47.7285L51.751 49.8757L50.007 51.9461C47.7462 49.6277 45.0374 47.7957 42.0422 46.5589C39.0486 45.3237 35.8342 44.7109 32.5942 44.7573C25.7798 44.7573 21.2822 48.3925 21.2822 53.4117Z" fill="white"/>
<path d="M47.6336 28.1821C45.784 32.4621 46.9536 37.0909 50.2992 38.5405C53.6448 39.9901 57.8048 37.6653 59.7376 33.3885C61.6704 29.1117 60.4352 24.4797 57.072 23.0333C53.7088 21.5869 49.496 23.9741 47.6336 28.1821Z" fill="white"/>
</g>
<mask id="mask1_2001_7834" style="mask-type:luminance" maskUnits="userSpaceOnUse" x="60" y="42" width="192" height="51">
<path d="M251.475 42.2852H60.6426V92.258H251.475V42.2852Z" fill="white"/>
</mask>
<g mask="url(#mask1_2001_7834)">
<path d="M60.6422 42.2852H79.2198C88.7527 42.2852 95.0167 48.1716 95.0167 57.1732V57.2452C95.0167 64.1684 91.2375 69.538 85.0583 71.5076L96.5271 92.258H89.2791L78.6839 72.4788H66.823V92.258H60.6406V42.2852H60.6422ZM78.6855 66.9732C85.0391 66.9732 88.6439 63.5092 88.6439 57.3828V57.314C88.6439 51.3588 84.7623 47.826 78.4102 47.826H66.8358V66.9732H78.687H78.6855Z" fill="white"/>
<path d="M103.906 42.2852H110.279V92.258H103.906V42.2852Z" fill="white"/>
<path d="M118.326 67.0192V66.9856C118.326 51.8704 126.949 42.2832 140.438 42.2832C151.544 42.2832 158.2 48.6864 160.441 57.2352L160.608 57.8704H154.286L154.15 57.5024C151.912 51.3712 147.225 47.8656 140.438 47.8656C130.489 47.8656 124.481 55.0736 124.481 67.0048V67.0384C124.481 79.2064 130.603 86.7136 140.438 86.7136C149.001 86.7136 154.888 81.152 154.888 73.04V72.1456H141.275V66.8528H160.92V71.4448C160.92 84.5136 153.326 92.256 140.449 92.256C127.573 92.256 118.326 82.4368 118.326 67.0192Z" fill="white"/>
<path d="M167.965 42.2852H174.152V63.8899H201.354V42.2852H207.541V92.258H201.354V69.4995H174.142V92.258H167.966V42.2852H167.965Z" fill="white"/>
<path d="M230.254 47.8928H214.584V42.2832H252.147V47.8928H236.474V92.256H230.256V47.8928H230.254Z" fill="white"/>
</g>
<mask id="mask2_2001_7834" style="mask-type:luminance" maskUnits="userSpaceOnUse" x="246" y="81" width="11" height="12">
<path d="M256.835 81.5977H246.275V92.1577H256.835V81.5977Z" fill="white"/>
</mask>
<g mask="url(#mask2_2001_7834)">
<path d="M251.556 81.5973C250.335 81.5973 249.151 82.0213 248.206 82.7957C247.262 83.5701 246.615 84.6485 246.377 85.8469C246.139 87.0453 246.323 88.2885 246.899 89.3653C247.475 90.4421 248.406 91.2869 249.535 91.7541C250.663 92.2213 251.919 92.2837 253.089 91.9285C254.259 91.5733 255.268 90.8245 255.947 89.8085C256.625 88.7925 256.931 87.5733 256.811 86.3573C256.691 85.1413 256.153 84.0053 255.289 83.1413C254.299 82.1509 252.956 81.5957 251.556 81.5957V81.5973ZM251.556 91.1013C250.579 91.1013 249.631 90.7621 248.876 90.1429C248.121 89.5237 247.603 88.6597 247.412 87.7013C247.222 86.7429 247.369 85.7477 247.83 84.8853C248.291 84.0229 249.036 83.3477 249.939 82.9733C250.841 82.5989 251.846 82.5493 252.782 82.8341C253.718 83.1173 254.526 83.7173 255.068 84.5301C255.611 85.3429 255.855 86.3189 255.759 87.2917C255.663 88.2645 255.233 89.1733 254.542 89.8645C254.15 90.2565 253.684 90.5685 253.172 90.7797C252.66 90.9925 252.11 91.1013 251.556 91.1013Z" fill="white"/>
<path d="M253.667 85.8203C253.667 85.3995 253.501 84.9979 253.203 84.7003C252.906 84.4027 252.504 84.2363 252.083 84.2363H249.443V89.5163H250.499V87.4043H251.271L252.682 89.5163H253.949L252.498 87.3403C252.832 87.2507 253.128 87.0523 253.341 86.7771C253.552 86.5019 253.669 86.1659 253.671 85.8187L253.667 85.8203ZM252.083 86.3483H250.499V85.2923H252.083C252.221 85.2955 252.352 85.3515 252.45 85.4507C252.546 85.5499 252.6 85.6811 252.6 85.8203C252.6 85.9595 252.546 86.0907 252.45 86.1899C252.354 86.2891 252.223 86.3451 252.083 86.3483Z" fill="white"/>
</g>
</svg>
