<svg width="40" height="41" fill="none" xmlns="http://www.w3.org/2000/svg"><g clip-path="url(#clip0_829_1039)" fill-rule="evenodd" clip-rule="evenodd"><path d="M20 .989c-11.267 0-20 8.253-20 19.4 0 5.83 2.39 10.869 6.281 14.349.327.292.524.702.537 1.14l.11 3.558a1.6 1.6 0 002.245 1.415l3.97-1.753a1.597 1.597 0 011.067-.078 21.81 21.81 0 005.79.769c11.267 0 20-8.253 20-19.4 0-11.147-8.733-19.4-20-19.4z" fill="url(#paint0_radial_829_1039)"/><path d="M7.99 26.062l5.875-9.32a3 3 0 014.338-.8l4.673 3.504a1.2 1.2 0 001.445-.005l6.311-4.789c.842-.64 1.942.369 1.378 1.264l-5.875 9.32a3 3 0 01-4.338.8l-4.672-3.504a1.2 1.2 0 00-1.446.004l-6.31 4.79c-.843.639-1.942-.37-1.379-1.264z" fill="#fff"/></g><defs><radialGradient id="paint0_radial_829_1039" cx="0" cy="0" r="1" gradientUnits="userSpaceOnUse" gradientTransform="matrix(43.5625 0 0 43.5624 7.703 40.503)"><stop stop-color="#09F"/><stop offset=".61" stop-color="#A033FF"/><stop offset=".935" stop-color="#FF5280"/><stop offset="1" stop-color="#FF7061"/></radialGradient><clipPath id="clip0_829_1039"><path fill="#fff" transform="translate(0 .989)" d="M0 0h40v40H0z"/></clipPath></defs></svg>