<svg width="37" height="38" viewBox="0 0 37 38" fill="none" xmlns="http://www.w3.org/2000/svg">
<g clip-path="url(#clip0_477_20369)">
<rect width="37" height="37" rx="18.5" transform="matrix(-1 0 0 1 37 0.5)" fill="#19A39E"/>
<path d="M18.4755 37.4994C15.2187 37.5207 12.0173 36.6575 9.21259 35.0019C6.41256 33.3773 4.0892 31.0447 2.47582 28.2383C0.835372 25.4284 -0.018964 22.2289 0.00236737 18.9753C-0.0196288 15.7204 0.83473 12.5196 2.47582 9.70866C4.08532 6.9062 6.41013 4.58139 9.21259 2.97189C12.0225 1.33144 15.2219 0.477105 18.4755 0.498437C21.7292 0.477105 24.9286 1.33144 27.7385 2.97189C30.545 4.58527 32.8776 6.90863 34.5021 9.70866C36.1577 12.5133 37.0209 15.7148 36.9996 18.9716C37.0209 22.2284 36.1577 25.4299 34.5021 28.2346C32.8738 31.0389 30.5426 33.3704 27.7385 34.9991C24.9341 36.6557 21.7326 37.5198 18.4755 37.4994ZM13.265 8.49969C12.999 8.4948 12.7348 8.54617 12.49 8.65041C12.2452 8.75466 12.0251 8.90945 11.8442 9.10464C11.6567 9.29557 11.5089 9.52186 11.4095 9.77037C11.3101 10.0189 11.261 10.2846 11.2652 10.5523C11.2596 10.8161 11.308 11.0782 11.4076 11.3226C11.5072 11.567 11.6558 11.7883 11.8442 11.9731C12.029 12.1615 12.2503 12.3101 12.4947 12.4096C12.739 12.5092 13.0012 12.5577 13.265 12.5521C13.5288 12.5577 13.791 12.5092 14.0354 12.4096C14.2797 12.3101 14.5011 12.1615 14.6858 11.9731C14.8742 11.7883 15.0228 11.567 15.1224 11.3226C15.222 11.0782 15.2705 10.8161 15.2649 10.5523C15.2691 10.2846 15.22 10.0188 15.1206 9.77034C15.0212 9.52182 14.8734 9.29554 14.6858 9.10464C14.5049 8.90945 14.2849 8.75466 14.04 8.65041C13.7952 8.54617 13.5311 8.4948 13.265 8.49969ZM14.8967 13.7629H11.6333V25.0785H14.8967V13.7629ZM16.4757 25.0785H19.7391V17.8154C20.2174 17.3397 20.8552 17.0585 21.529 17.0263C21.8233 17.021 22.1137 17.0938 22.3707 17.2372C22.4577 17.2698 22.5373 17.3193 22.6051 17.3828C22.6729 17.4463 22.7275 17.5226 22.7657 17.6072C22.8774 17.7805 22.9412 17.9803 22.9507 18.1863V25.0812H26.1614V18.1863C26.1529 17.4181 25.9444 16.6654 25.5564 16.0024C25.191 15.3212 24.6327 14.7629 23.9515 14.3975C23.2489 14.0465 22.4734 13.8662 21.6881 13.8712C21.0143 13.8492 20.3455 13.9938 19.7409 14.292V13.7657H16.4775L16.4757 25.0785Z" fill="white"/>
</g>
<defs>
<clipPath id="clip0_477_20369">
<rect width="37" height="37" rx="18.5" transform="matrix(-1 0 0 1 37 0.5)" fill="white"/>
</clipPath>
</defs>
</svg>
