<svg width="37" height="38" viewBox="0 0 37 38" fill="none" xmlns="http://www.w3.org/2000/svg">
<g clip-path="url(#clip0_477_20364)">
<path d="M18.5 37.5C28.7173 37.5 37 29.2173 37 19C37 8.78273 28.7173 0.5 18.5 0.5C8.28273 0.5 0 8.78273 0 19C0 29.2173 8.28273 37.5 18.5 37.5Z" fill="white"/>
<path d="M28.5648 13.9111C28.4462 13.4641 28.2121 13.0568 27.8861 12.7287C27.5601 12.4006 27.1536 12.1637 26.7073 12.0422C25.0692 11.5991 18.5008 11.5986 18.5008 11.5986C18.5008 11.5986 11.9333 11.5991 10.2932 12.0413C9.84702 12.163 9.44067 12.3995 9.11485 12.7278C8.78902 13.056 8.5552 13.464 8.43679 13.9111C7.8518 17.2776 7.8518 20.7197 8.43679 24.0861C8.55542 24.5332 8.78942 24.9414 9.11541 25.2695C9.4414 25.5976 9.84787 25.8345 10.2941 25.956C11.9314 26.3991 18.5008 26.3986 18.5008 26.3986C18.5008 26.3986 25.0682 26.3991 26.7083 25.9569C27.1545 25.8352 27.5609 25.5977 27.8867 25.2695C28.2126 24.9412 28.4464 24.5332 28.5648 24.0861C29.1498 20.7197 29.1498 17.2776 28.5648 13.9111Z" fill="#19A39E"/>
<path d="M16.3223 22.1543L21.8723 18.999L16.3223 15.8438V22.1543Z" fill="white"/>
</g>
<defs>
<clipPath id="clip0_477_20364">
<rect width="37" height="37" fill="white" transform="matrix(-1 0 0 1 37 0.5)"/>
</clipPath>
</defs>
</svg>
