<svg width="64" height="64" viewBox="0 0 64 64" fill="none" xmlns="http://www.w3.org/2000/svg">
<g filter="url(#filter0_b_477_15631)">
<rect width="64" height="64" rx="32" fill="#D33A27"/>
<path d="M25 22C25 18.134 28.134 15 32 15C35.866 15 39 18.134 39 22V28C39 31.866 35.866 35 32 35C28.134 35 25 31.866 25 28V22Z" stroke="white" stroke-width="1.5"/>
<path d="M30.5 21.5C30.5 20.6716 31.1716 20 32 20C32.8284 20 33.5 20.6716 33.5 21.5V23.5C33.5 24.3284 32.8284 25 32 25C31.1716 25 30.5 24.3284 30.5 23.5V21.5Z" stroke="white" stroke-width="1.5"/>
<path d="M32 15V20" stroke="white" stroke-width="1.5" stroke-linecap="round"/>
<path d="M36.6673 48L32.0007 52L27.334 48" stroke="white" stroke-width="1.5" stroke-linecap="round" stroke-linejoin="round"/>
</g>
<defs>
<filter id="filter0_b_477_15631" x="-2" y="-2" width="68" height="68" filterUnits="userSpaceOnUse" color-interpolation-filters="sRGB">
<feFlood flood-opacity="0" result="BackgroundImageFix"/>
<feGaussianBlur in="BackgroundImageFix" stdDeviation="1"/>
<feComposite in2="SourceAlpha" operator="in" result="effect1_backgroundBlur_477_15631"/>
<feBlend mode="normal" in="SourceGraphic" in2="effect1_backgroundBlur_477_15631" result="shape"/>
</filter>
</defs>
</svg>
