<svg width="37" height="37" viewBox="0 0 37 37" fill="none" xmlns="http://www.w3.org/2000/svg">
<rect width="37.0008" height="36.999" rx="18.4995" fill="white"/>
<path d="M18.5004 36.9985C15.2414 37.0206 12.0364 36.1663 9.22081 34.5251C6.41533 32.9164 4.08734 30.5916 2.47478 27.7883C0.832965 24.9786 -0.0217535 21.7786 0.000420726 18.5244C-0.0207457 15.2703 0.834921 12.0706 2.47755 9.26149C4.09398 6.45421 6.42053 4.12161 9.22359 2.49788C12.033 0.842208 15.2386 -0.0209029 18.4995 0.000384446C21.7604 -0.0209029 24.966 0.842208 27.7754 2.49788C30.5784 4.12161 32.905 6.45421 34.5214 9.26149C36.1647 12.0704 37.021 15.2702 37.0004 18.5244C37.0216 21.7785 36.1659 24.9782 34.5233 27.7874C32.9098 30.5915 30.5805 32.9166 27.7735 34.5251C24.9598 36.1652 21.7572 37.0194 18.5004 36.9985ZM13.7043 19.1562H16.4451V27.472H19.8676V19.1562H23.2901V15.7337H19.8676V13.9966C19.8613 13.7342 19.9348 13.4762 20.0785 13.2566C20.1242 13.168 20.1918 13.0925 20.2748 13.0373C20.3579 12.9822 20.4536 12.949 20.553 12.9411H23.2938V9.57783H20.553C20.0035 9.57495 19.4599 9.69102 18.9595 9.91807C18.4591 10.1451 18.0137 10.4778 17.654 10.8932C16.8542 11.7479 16.4192 12.8808 16.4414 14.0511V15.7356H13.7006L13.7043 19.1562Z" fill="#475569"/>
</svg>
