<svg width="37" height="37" viewBox="0 0 37 37" fill="none" xmlns="http://www.w3.org/2000/svg">
<g clip-path="url(#clip0_574_10709)">
<path d="M18.5 37C28.7173 37 37 28.7173 37 18.5C37 8.28273 28.7173 0 18.5 0C8.28273 0 0 8.28273 0 18.5C0 28.7173 8.28273 37 18.5 37Z" fill="#475569"/>
<path d="M18.5008 11.6751C20.7208 11.6751 20.9871 11.6834 21.865 11.7232C22.3928 11.7295 22.9157 11.8266 23.4107 12.01C23.7697 12.1485 24.0957 12.3606 24.3678 12.6327C24.64 12.9048 24.8521 13.2309 24.9906 13.5899C25.174 14.0849 25.2711 14.6078 25.2774 15.1356C25.3172 16.0134 25.3255 16.277 25.3255 18.4998C25.3255 20.7226 25.3172 20.9862 25.2774 21.864C25.2711 22.3918 25.174 22.9148 24.9906 23.4098C24.8521 23.7688 24.64 24.0948 24.3678 24.3669C24.0957 24.639 23.7697 24.8512 23.4107 24.9897C22.9157 25.1732 22.3928 25.27 21.865 25.2763C20.9871 25.3161 20.7245 25.3244 18.5008 25.3244C16.2771 25.3244 16.0144 25.3161 15.1366 25.2763C14.6087 25.27 14.0859 25.1732 13.5909 24.9897C13.2319 24.8512 12.9058 24.639 12.6337 24.3669C12.3616 24.0948 12.1495 23.7688 12.011 23.4098C11.8275 22.9148 11.7305 22.3918 11.7242 21.864C11.6844 20.9862 11.6761 20.7198 11.6761 18.4998C11.6761 16.2798 11.6844 16.0134 11.7242 15.1356C11.7305 14.6078 11.8275 14.0849 12.011 13.5899C12.1495 13.2309 12.3616 12.9048 12.6337 12.6327C12.9058 12.3606 13.2319 12.1485 13.5909 12.01C14.0859 11.8266 14.6087 11.7295 15.1366 11.7232C16.0144 11.6834 16.278 11.6751 18.5008 11.6751ZM18.5008 10.1748C16.2401 10.1748 15.9561 10.184 15.0681 10.2247C14.3761 10.238 13.6914 10.3688 13.0433 10.6114C12.4914 10.8254 11.9903 11.152 11.5719 11.5705C11.1535 11.9891 10.827 12.4904 10.6133 13.0423C10.3711 13.6893 10.2404 14.3727 10.2267 15.0635C10.1851 15.9552 10.1758 16.2391 10.1758 18.4998C10.1758 20.7605 10.185 21.0444 10.2257 21.9324C10.2393 22.6244 10.3704 23.3091 10.6133 23.9572C10.827 24.5091 11.1535 25.0104 11.5719 25.4289C11.9903 25.8475 12.4914 26.1744 13.0433 26.3883C13.6903 26.6305 14.3737 26.7612 15.0644 26.7749C15.9524 26.8156 16.2354 26.8248 18.4971 26.8248C20.7587 26.8248 21.0418 26.8156 21.9298 26.7749C22.6205 26.7612 23.3038 26.6305 23.9509 26.3883C24.5042 26.1753 25.007 25.8489 25.4269 25.4303C25.8468 25.0117 26.1745 24.5099 26.3891 23.9572C26.6313 23.3102 26.7622 22.627 26.7759 21.9363C26.8166 21.0446 26.8258 20.7605 26.8258 18.4998C26.8258 16.2391 26.8166 15.9551 26.7759 15.0671C26.7626 14.3751 26.6318 13.6905 26.3891 13.0423C26.1752 12.4905 25.8486 11.9893 25.43 11.5709C25.0115 11.1525 24.5102 10.8261 23.9583 10.6124C23.3113 10.3701 22.6278 10.2394 21.9371 10.2257C21.0454 10.1841 20.7615 10.1748 18.5008 10.1748ZM18.5008 14.2245C17.6552 14.2245 16.8286 14.4752 16.1255 14.945C15.4224 15.4148 14.8745 16.0824 14.5509 16.8637C14.2273 17.6449 14.1426 18.5045 14.3076 19.3338C14.4725 20.1631 14.8798 20.9251 15.4777 21.523C16.0756 22.1209 16.8373 22.5281 17.6667 22.693C18.496 22.858 19.3557 22.7734 20.1369 22.4498C20.9181 22.1262 21.5858 21.5782 22.0556 20.8751C22.5254 20.172 22.7761 19.3454 22.7761 18.4998C22.7761 17.3659 22.3256 16.2785 21.5239 15.4767C20.7221 14.6749 19.6347 14.2245 18.5008 14.2245ZM18.5008 21.2748C17.9519 21.2748 17.4154 21.112 16.959 20.8071C16.5027 20.5022 16.1471 20.0687 15.937 19.5617C15.727 19.0546 15.672 18.4968 15.7791 17.9585C15.8862 17.4202 16.1505 16.9257 16.5385 16.5376C16.9266 16.1495 17.4211 15.8852 17.9594 15.7781C18.4977 15.671 19.0557 15.7259 19.5627 15.936C20.0698 16.146 20.5032 16.5017 20.8081 16.9581C21.113 17.4144 21.2758 17.951 21.2758 18.4998C21.2758 19.2358 20.9834 19.9416 20.463 20.462C19.9426 20.9825 19.2368 21.2748 18.5008 21.2748ZM22.9408 13.0571C22.7432 13.0571 22.55 13.1157 22.3857 13.2254C22.2215 13.3352 22.0935 13.4913 22.0179 13.6738C21.9422 13.8564 21.9224 14.0573 21.9609 14.251C21.9995 14.4448 22.0947 14.6228 22.2344 14.7625C22.3741 14.9023 22.5521 14.9974 22.7459 15.0359C22.9397 15.0745 23.1405 15.0547 23.323 14.9791C23.5056 14.9035 23.6617 14.7754 23.7714 14.6111C23.8812 14.4468 23.9398 14.2537 23.9398 14.0561C23.9398 13.7912 23.8346 13.5371 23.6472 13.3497C23.4599 13.1624 23.2058 13.0571 22.9408 13.0571Z" fill="white"/>
</g>
<defs>
<clipPath id="clip0_574_10709">
<rect width="37" height="37" fill="white"/>
</clipPath>
</defs>
</svg>
