<svg width="37" height="37" viewBox="0 0 37 37" fill="none" xmlns="http://www.w3.org/2000/svg">
<g clip-path="url(#clip0_574_10718)">
<rect width="37" height="37" rx="18.5" transform="matrix(-1 0 0 1 37 0)" fill="white"/>
<path d="M18.4755 36.9999C15.2187 37.0212 12.0173 36.158 9.21259 34.5023C6.41256 32.8778 4.0892 30.5452 2.47582 27.7388C0.835372 24.9289 -0.018964 21.7294 0.00236737 18.4758C-0.0196288 15.2209 0.83473 12.0201 2.47582 9.20915C4.08532 6.40669 6.41013 4.08188 9.21259 2.47238C12.0225 0.83193 15.2219 -0.0224063 18.4755 -0.00107496C21.7292 -0.0224063 24.9286 0.83193 27.7385 2.47238C30.545 4.08576 32.8776 6.40911 34.5021 9.20915C36.1577 12.0138 37.0209 15.2153 36.9996 18.4721C37.0209 21.7289 36.1577 24.9304 34.5021 27.735C32.8738 30.5394 30.5426 32.8709 27.7385 34.4996C24.9341 36.1562 21.7326 37.0203 18.4755 36.9999ZM13.265 8.00018C12.999 7.99529 12.7348 8.04665 12.49 8.1509C12.2452 8.25515 12.0251 8.40994 11.8442 8.60513C11.6567 8.79606 11.5089 9.02235 11.4095 9.27085C11.3101 9.51936 11.261 9.78513 11.2652 10.0528C11.2596 10.3166 11.308 10.5787 11.4076 10.8231C11.5072 11.0674 11.6558 11.2888 11.8442 11.4736C12.029 11.662 12.2503 11.8105 12.4947 11.9101C12.739 12.0097 13.0012 12.0582 13.265 12.0526C13.5288 12.0582 13.791 12.0097 14.0354 11.9101C14.2797 11.8105 14.5011 11.662 14.6858 11.4736C14.8742 11.2888 15.0228 11.0674 15.1224 10.8231C15.222 10.5787 15.2705 10.3166 15.2649 10.0528C15.2691 9.78513 15.22 9.51934 15.1206 9.27083C15.0212 9.02231 14.8734 8.79603 14.6858 8.60513C14.5049 8.40994 14.2849 8.25515 14.04 8.1509C13.7952 8.04665 13.5311 7.99529 13.265 8.00018ZM14.8967 13.2634H11.6333V24.579H14.8967V13.2634ZM16.4757 24.579H19.7391V17.3158C20.2174 16.8402 20.8552 16.559 21.529 16.5268C21.8233 16.5215 22.1137 16.5943 22.3707 16.7377C22.4577 16.7703 22.5373 16.8198 22.6051 16.8833C22.6729 16.9468 22.7275 17.0231 22.7657 17.1077C22.8774 17.281 22.9412 17.4808 22.9507 17.6868V24.5817H26.1614V17.6868C26.1529 16.9186 25.9444 16.1659 25.5564 15.5028C25.191 14.8216 24.6327 14.2634 23.9515 13.898C23.2489 13.547 22.4734 13.3667 21.6881 13.3717C21.0143 13.3497 20.3455 13.4942 19.7409 13.7925V13.2662H16.4775L16.4757 24.579Z" fill="#475569"/>
</g>
<defs>
<clipPath id="clip0_574_10718">
<rect width="37" height="37" rx="18.5" transform="matrix(-1 0 0 1 37 0)" fill="white"/>
</clipPath>
</defs>
</svg>
