<svg width="37" height="37" viewBox="0 0 37 37" fill="none" xmlns="http://www.w3.org/2000/svg">
<g clip-path="url(#clip0_574_10706)">
<rect width="37" height="37" rx="18.5" fill="white"/>
<path d="M18.5 37C28.7521 37 37 28.7521 37 18.5C37 8.24792 28.7521 0 18.5 0C8.24792 0 0 8.24792 0 18.5C0 28.7521 8.24792 37 18.5 37Z" fill="#475569"/>
<path d="M23.3549 10.7915H25.9758L20.2716 17.3436L26.9779 26.2082H21.7362L17.6508 20.8123L12.9487 26.2082H10.3279L16.4174 19.1936L10.0195 10.7915H15.4154L19.1154 15.7248L23.3549 10.7915ZM22.4299 24.6665H23.8945L14.5674 12.3332H13.0258L22.4299 24.6665Z" fill="white"/>
</g>
<defs>
<clipPath id="clip0_574_10706">
<rect width="37" height="37" rx="18.5" fill="white"/>
</clipPath>
</defs>
</svg>
