<svg width="37" height="37" viewBox="0 0 37 37" fill="none" xmlns="http://www.w3.org/2000/svg">
<g clip-path="url(#clip0_574_10713)">
<path d="M18.5 37C28.7173 37 37 28.7173 37 18.5C37 8.28273 28.7173 0 18.5 0C8.28273 0 0 8.28273 0 18.5C0 28.7173 8.28273 37 18.5 37Z" fill="#475569"/>
<path d="M28.5648 13.4116C28.4462 12.9646 28.2121 12.5573 27.8861 12.2292C27.5601 11.9011 27.1536 11.6642 26.7073 11.5427C25.0692 11.0996 18.5008 11.0991 18.5008 11.0991C18.5008 11.0991 11.9333 11.0996 10.2932 11.5417C9.84702 11.6635 9.44067 11.9 9.11485 12.2283C8.78902 12.5565 8.5552 12.9645 8.43679 13.4116C7.8518 16.7781 7.8518 20.2202 8.43679 23.5866C8.55542 24.0337 8.78942 24.4419 9.11541 24.77C9.4414 25.0981 9.84787 25.335 10.2941 25.4565C11.9314 25.8996 18.5008 25.8991 18.5008 25.8991C18.5008 25.8991 25.0682 25.8995 26.7083 25.4574C27.1545 25.3357 27.5609 25.0982 27.8867 24.77C28.2126 24.4417 28.4464 24.0337 28.5648 23.5866C29.1498 20.2202 29.1498 16.7781 28.5648 13.4116Z" fill="white"/>
<path d="M16.3223 21.6543L21.8723 18.499L16.3223 15.3438V21.6543Z" fill="#475569"/>
</g>
<defs>
<clipPath id="clip0_574_10713">
<rect width="37" height="37" fill="white" transform="matrix(-1 0 0 1 37 0)"/>
</clipPath>
</defs>
</svg>
