<svg width="37" height="38" viewBox="0 0 37 38" fill="none" xmlns="http://www.w3.org/2000/svg">
<rect y="0.5" width="37.0008" height="36.999" rx="18.4995" fill="white"/>
<path d="M18.5004 37.4985C15.2414 37.5206 12.0364 36.6663 9.22081 35.0251C6.41533 33.4164 4.08734 31.0916 2.47478 28.2883C0.832965 25.4786 -0.0217535 22.2786 0.000420726 19.0244C-0.0207457 15.7703 0.834921 12.5706 2.47755 9.76149C4.09398 6.95421 6.42053 4.62161 9.22359 2.99788C12.033 1.34221 15.2386 0.479097 18.4995 0.500384C21.7604 0.479097 24.966 1.34221 27.7754 2.99788C30.5784 4.62161 32.905 6.95421 34.5214 9.76149C36.1647 12.5704 37.021 15.7702 37.0004 19.0244C37.0216 22.2785 36.1659 25.4782 34.5233 28.2874C32.9098 31.0915 30.5805 33.4166 27.7735 35.0251C24.9598 36.6652 21.7572 37.5194 18.5004 37.4985ZM13.7043 19.6562H16.4451V27.972H19.8676V19.6562H23.2901V16.2337H19.8676V14.4966C19.8613 14.2342 19.9348 13.9762 20.0785 13.7566C20.1242 13.668 20.1918 13.5925 20.2748 13.5373C20.3579 13.4822 20.4536 13.449 20.553 13.4411H23.2938V10.0778H20.553C20.0035 10.075 19.4599 10.191 18.9595 10.4181C18.4591 10.6451 18.0137 10.9778 17.654 11.3932C16.8542 12.2479 16.4192 13.3808 16.4414 14.5511V16.2356H13.7006L13.7043 19.6562Z" fill="#19A39E"/>
</svg>
