<svg width="37" height="38" viewBox="0 0 37 38" fill="none" xmlns="http://www.w3.org/2000/svg">
<g clip-path="url(#clip0_477_25944)">
<path d="M18.5 37.5C28.7173 37.5 37 29.2173 37 19C37 8.78273 28.7173 0.5 18.5 0.5C8.28273 0.5 0 8.78273 0 19C0 29.2173 8.28273 37.5 18.5 37.5Z" fill="#19A39E"/>
<path d="M18.5008 12.1751C20.7208 12.1751 20.9871 12.1834 21.865 12.2232C22.3928 12.2295 22.9157 12.3266 23.4107 12.51C23.7697 12.6485 24.0957 12.8606 24.3678 13.1327C24.64 13.4048 24.8521 13.7309 24.9906 14.0899C25.174 14.5849 25.2711 15.1078 25.2774 15.6356C25.3172 16.5134 25.3255 16.777 25.3255 18.9998C25.3255 21.2226 25.3172 21.4862 25.2774 22.364C25.2711 22.8918 25.174 23.4148 24.9906 23.9098C24.8521 24.2688 24.64 24.5948 24.3678 24.8669C24.0957 25.139 23.7697 25.3512 23.4107 25.4897C22.9157 25.6732 22.3928 25.77 21.865 25.7763C20.9871 25.8161 20.7245 25.8244 18.5008 25.8244C16.2771 25.8244 16.0144 25.8161 15.1366 25.7763C14.6087 25.77 14.0859 25.6732 13.5909 25.4897C13.2319 25.3512 12.9058 25.139 12.6337 24.8669C12.3616 24.5948 12.1495 24.2688 12.011 23.9098C11.8275 23.4148 11.7305 22.8918 11.7242 22.364C11.6844 21.4862 11.6761 21.2198 11.6761 18.9998C11.6761 16.7798 11.6844 16.5134 11.7242 15.6356C11.7305 15.1078 11.8275 14.5849 12.011 14.0899C12.1495 13.7309 12.3616 13.4048 12.6337 13.1327C12.9058 12.8606 13.2319 12.6485 13.5909 12.51C14.0859 12.3266 14.6087 12.2295 15.1366 12.2232C16.0144 12.1834 16.278 12.1751 18.5008 12.1751ZM18.5008 10.6748C16.2401 10.6748 15.9561 10.684 15.0681 10.7247C14.3761 10.738 13.6914 10.8688 13.0433 11.1114C12.4914 11.3254 11.9903 11.652 11.5719 12.0705C11.1535 12.4891 10.827 12.9904 10.6133 13.5423C10.3711 14.1893 10.2404 14.8727 10.2267 15.5635C10.1851 16.4552 10.1758 16.7391 10.1758 18.9998C10.1758 21.2605 10.185 21.5444 10.2257 22.4324C10.2393 23.1244 10.3704 23.8091 10.6133 24.4572C10.827 25.0091 11.1535 25.5104 11.5719 25.9289C11.9903 26.3475 12.4914 26.6744 13.0433 26.8883C13.6903 27.1305 14.3737 27.2612 15.0644 27.2749C15.9524 27.3156 16.2354 27.3248 18.4971 27.3248C20.7587 27.3248 21.0418 27.3156 21.9298 27.2749C22.6205 27.2612 23.3038 27.1305 23.9509 26.8883C24.5042 26.6753 25.007 26.3489 25.4269 25.9303C25.8468 25.5117 26.1745 25.0099 26.3891 24.4572C26.6313 23.8102 26.7622 23.127 26.7759 22.4363C26.8166 21.5446 26.8258 21.2605 26.8258 18.9998C26.8258 16.7391 26.8166 16.4551 26.7759 15.5671C26.7626 14.8751 26.6318 14.1905 26.3891 13.5423C26.1752 12.9905 25.8486 12.4893 25.43 12.0709C25.0115 11.6525 24.5102 11.3261 23.9583 11.1124C23.3113 10.8701 22.6278 10.7394 21.9371 10.7257C21.0454 10.6841 20.7615 10.6748 18.5008 10.6748ZM18.5008 14.7245C17.6552 14.7245 16.8286 14.9752 16.1255 15.445C15.4224 15.9148 14.8745 16.5824 14.5509 17.3637C14.2273 18.1449 14.1426 19.0045 14.3076 19.8338C14.4725 20.6631 14.8798 21.4251 15.4777 22.023C16.0756 22.6209 16.8373 23.0281 17.6667 23.193C18.496 23.358 19.3557 23.2734 20.1369 22.9498C20.9181 22.6262 21.5858 22.0782 22.0556 21.3751C22.5254 20.672 22.7761 19.8454 22.7761 18.9998C22.7761 17.8659 22.3256 16.7785 21.5239 15.9767C20.7221 15.1749 19.6347 14.7245 18.5008 14.7245ZM18.5008 21.7748C17.9519 21.7748 17.4154 21.612 16.959 21.3071C16.5027 21.0022 16.1471 20.5687 15.937 20.0617C15.727 19.5546 15.672 18.9968 15.7791 18.4585C15.8862 17.9202 16.1505 17.4257 16.5385 17.0376C16.9266 16.6495 17.4211 16.3852 17.9594 16.2781C18.4977 16.171 19.0557 16.2259 19.5627 16.436C20.0698 16.646 20.5032 17.0017 20.8081 17.4581C21.113 17.9144 21.2758 18.451 21.2758 18.9998C21.2758 19.7358 20.9834 20.4416 20.463 20.962C19.9426 21.4825 19.2368 21.7748 18.5008 21.7748ZM22.9408 13.5571C22.7432 13.5571 22.55 13.6157 22.3857 13.7254C22.2215 13.8352 22.0935 13.9913 22.0179 14.1738C21.9422 14.3564 21.9224 14.5573 21.9609 14.751C21.9995 14.9448 22.0947 15.1228 22.2344 15.2625C22.3741 15.4023 22.5521 15.4974 22.7459 15.5359C22.9397 15.5745 23.1405 15.5547 23.323 15.4791C23.5056 15.4035 23.6617 15.2754 23.7714 15.1111C23.8812 14.9468 23.9398 14.7537 23.9398 14.5561C23.9398 14.2912 23.8346 14.0371 23.6472 13.8497C23.4599 13.6624 23.2058 13.5571 22.9408 13.5571Z" fill="white"/>
</g>
<defs>
<clipPath id="clip0_477_25944">
<rect width="37" height="37" fill="white" transform="translate(0 0.5)"/>
</clipPath>
</defs>
</svg>
