<svg width="37" height="38" viewBox="0 0 37 38" fill="none" xmlns="http://www.w3.org/2000/svg">
<g clip-path="url(#clip0_477_25953)">
<rect width="37" height="37" rx="18.5" transform="matrix(-1 0 0 1 37 0.5)" fill="white"/>
<path d="M18.4736 37.4994C15.2168 37.5207 12.0153 36.6575 9.21064 35.0019C6.4106 33.3773 4.08725 31.0447 2.47386 28.2383C0.833419 25.4284 -0.0209171 22.2289 0.000414249 18.9753C-0.0215819 15.7204 0.832777 12.5196 2.47386 9.70866C4.08337 6.9062 6.40818 4.58139 9.21064 2.97189C12.0205 1.33144 15.22 0.477105 18.4736 0.498437C21.7272 0.477105 24.9267 1.33144 27.7365 2.97189C30.543 4.58527 32.8756 6.90863 34.5001 9.70866C36.1557 12.5133 37.0189 15.7148 36.9976 18.9716C37.0189 22.2284 36.1557 25.4299 34.5001 28.2346C32.8719 31.0389 30.5407 33.3704 27.7365 34.9991C24.9322 36.6557 21.7306 37.5198 18.4736 37.4994ZM13.2631 8.49969C12.997 8.4948 12.7329 8.54617 12.4881 8.65041C12.2432 8.75466 12.0231 8.90945 11.8423 9.10464C11.6547 9.29557 11.5069 9.52186 11.4075 9.77037C11.3081 10.0189 11.2591 10.2846 11.2632 10.5523C11.2576 10.8161 11.3061 11.0782 11.4057 11.3226C11.5053 11.567 11.6539 11.7883 11.8423 11.9731C12.027 12.1615 12.2484 12.3101 12.4927 12.4096C12.7371 12.5092 12.9993 12.5577 13.2631 12.5521C13.5269 12.5577 13.789 12.5092 14.0334 12.4096C14.2778 12.3101 14.4991 12.1615 14.6839 11.9731C14.8723 11.7883 15.0209 11.567 15.1204 11.3226C15.22 11.0782 15.2685 10.8161 15.2629 10.5523C15.2671 10.2846 15.2181 10.0188 15.1187 9.77034C15.0193 9.52182 14.8715 9.29554 14.6839 9.10464C14.503 8.90945 14.2829 8.75466 14.0381 8.65041C13.7932 8.54617 13.5291 8.4948 13.2631 8.49969ZM14.8948 13.7629H11.6314V25.0785H14.8948V13.7629ZM16.4737 25.0785H19.7371V17.8154C20.2154 17.3397 20.8532 17.0585 21.527 17.0263C21.8213 17.021 22.1118 17.0938 22.3688 17.2372C22.4557 17.2698 22.5354 17.3193 22.6032 17.3828C22.671 17.4463 22.7255 17.5226 22.7637 17.6072C22.8754 17.7805 22.9392 17.9803 22.9487 18.1863V25.0812H26.1594V18.1863C26.1509 17.4181 25.9424 16.6654 25.5545 16.0024C25.1891 15.3212 24.6308 14.7629 23.9496 14.3975C23.247 14.0465 22.4715 13.8662 21.6861 13.8712C21.0123 13.8492 20.3435 13.9938 19.739 14.292V13.7657H16.4756L16.4737 25.0785Z" fill="#19A39E"/>
</g>
<defs>
<clipPath id="clip0_477_25953">
<rect width="37" height="37" rx="18.5" transform="matrix(-1 0 0 1 37 0.5)" fill="white"/>
</clipPath>
</defs>
</svg>
