<svg width="37" height="38" viewBox="0 0 37 38" fill="none" xmlns="http://www.w3.org/2000/svg">
<g clip-path="url(#clip0_477_25941)">
<rect y="0.5" width="37" height="37" rx="18.5" fill="#19A39E"/>
<path d="M18.5 37.5C28.7521 37.5 37 29.2521 37 19C37 8.74792 28.7521 0.5 18.5 0.5C8.24792 0.5 0 8.74792 0 19C0 29.2521 8.24792 37.5 18.5 37.5Z" fill="#19A39E"/>
<path d="M23.3549 11.291H25.9758L20.2716 17.8431L26.9779 26.7077H21.7362L17.6508 21.3118L12.9487 26.7077H10.3279L16.4174 19.6931L10.0195 11.291H15.4154L19.1154 16.2243L23.3549 11.291ZM22.4299 25.166H23.8945L14.5674 12.8327H13.0258L22.4299 25.166Z" fill="white"/>
</g>
<defs>
<clipPath id="clip0_477_25941">
<rect y="0.5" width="37" height="37" rx="18.5" fill="white"/>
</clipPath>
</defs>
</svg>
