<svg width="37" height="38" viewBox="0 0 37 38" fill="none" xmlns="http://www.w3.org/2000/svg">
<g clip-path="url(#clip0_477_25948)">
<path d="M18.5 37.5C28.7173 37.5 37 29.2173 37 19C37 8.78273 28.7173 0.5 18.5 0.5C8.28273 0.5 0 8.78273 0 19C0 29.2173 8.28273 37.5 18.5 37.5Z" fill="#19A39E"/>
<path d="M28.5668 13.9111C28.4481 13.4641 28.214 13.0568 27.888 12.7287C27.562 12.4006 27.1556 12.1637 26.7093 12.0422C25.0711 11.5991 18.5027 11.5986 18.5027 11.5986C18.5027 11.5986 11.9352 11.5991 10.2952 12.0413C9.84898 12.163 9.44263 12.3995 9.1168 12.7278C8.79097 13.056 8.55715 13.464 8.43874 13.9111C7.85375 17.2776 7.85375 20.7197 8.43874 24.0861C8.55738 24.5332 8.79138 24.9414 9.11736 25.2695C9.44335 25.5976 9.84982 25.8345 10.2961 25.956C11.9333 26.3991 18.5027 26.3986 18.5027 26.3986C18.5027 26.3986 25.0702 26.3991 26.7102 25.9569C27.1564 25.8352 27.5629 25.5977 27.8887 25.2695C28.2145 24.9412 28.4483 24.5332 28.5668 24.0861C29.1517 20.7197 29.1517 17.2776 28.5668 13.9111Z" fill="white"/>
<path d="M16.3203 22.1543L21.8703 18.999L16.3203 15.8438V22.1543Z" fill="#19A39E"/>
</g>
<defs>
<clipPath id="clip0_477_25948">
<rect width="37" height="37" fill="white" transform="matrix(-1 0 0 1 37 0.5)"/>
</clipPath>
</defs>
</svg>
