<svg width="56" height="57" viewBox="0 0 56 57" fill="none" xmlns="http://www.w3.org/2000/svg">
<rect y="0.5" width="56" height="56" rx="28" fill="#19A39E"/>
<path d="M30.8862 19.7148H22.2866C21.4696 19.7148 20.8066 19.0518 20.8066 18.2349V15.9799C20.8066 15.163 21.4696 14.5 22.2866 14.5H30.8862C31.7032 14.5 32.3662 15.163 32.3662 15.9799V18.2349C32.3662 19.0528 31.7032 19.7148 30.8862 19.7148Z" fill="white"/>
<path d="M40.8322 30.4908C39.9123 29.5708 38.4123 29.5708 37.4923 30.4908L36.4004 31.5887L39.7423 34.9296L40.8322 33.8396C41.7622 32.9107 41.7622 31.4207 40.8322 30.4908Z" fill="white"/>
<path d="M35.3426 32.6484L29.5129 38.4682C29.3929 38.5982 29.3129 38.7582 29.2829 38.9282L28.8429 41.5181C28.7429 42.0881 29.2429 42.578 29.8129 42.488L32.4028 42.0481C32.5728 42.0181 32.7327 41.9381 32.8527 41.8181L38.6825 35.9883L35.3426 32.6484Z" fill="white"/>
<path d="M35.1118 17.1094H33.8669V18.2343C33.8669 19.8773 32.5299 21.2142 30.887 21.2142H22.2873C20.6434 21.2142 19.3075 19.8773 19.3075 18.2343V17.1094H18.0425C16.0726 17.1094 14.4727 18.7093 14.4727 20.6792V38.9285C14.4727 40.8984 16.0726 42.4984 18.0425 42.4984H27.4991C27.3471 42.1074 27.2901 41.6834 27.3641 41.2604L27.8031 38.6775C27.8811 38.2195 28.0911 37.7966 28.4071 37.4516L34.7719 31.0958L36.4268 29.4319C37.0418 28.8159 37.8307 28.4509 38.6797 28.3459V20.6892C38.6817 18.6993 37.0918 17.1094 35.1118 17.1094ZM25.0302 31.9418H20.6914C20.1944 31.9418 19.7914 31.5388 19.7914 31.0418C19.7914 30.5448 20.1944 30.1419 20.6914 30.1419H25.0302C25.5272 30.1419 25.9302 30.5448 25.9302 31.0418C25.9302 31.5388 25.5272 31.9418 25.0302 31.9418ZM30.342 26.834H20.6924C20.1954 26.834 19.7924 26.431 19.7924 25.934C19.7924 25.437 20.1954 25.0341 20.6924 25.0341H30.342C30.839 25.0341 31.242 25.437 31.242 25.934C31.242 26.431 30.839 26.834 30.342 26.834Z" fill="white"/>
</svg>
