<svg width="56" height="57" viewBox="0 0 56 57" fill="none" xmlns="http://www.w3.org/2000/svg">
<rect y="0.5" width="56" height="56" rx="28" fill="#19A39E"/>
<path d="M19.5854 41.0423H18.6673C16.898 41.0423 15.459 39.6034 15.459 37.834V19.1673C15.459 17.398 16.898 15.959 18.6673 15.959H19.5854C18.8419 16.8263 18.3757 17.9382 18.3757 19.1673V37.834C18.3757 39.0631 18.8419 40.175 19.5854 41.0423ZM35.8757 16.4717V20.6257H40.0296L35.8757 16.4717ZM40.5423 22.3757V37.834C40.5423 39.6034 39.1034 41.0423 37.334 41.0423H23.334C21.5646 41.0423 20.1257 39.6034 20.1257 37.834V19.1673C20.1257 17.398 21.5646 15.959 23.334 15.959H34.1257V21.5007C34.1257 21.9838 34.5175 22.3757 35.0007 22.3757H40.5423ZM35.6193 30.2153L33.286 27.882C32.9442 27.5401 32.3905 27.5401 32.0488 27.882C31.707 28.2238 31.7069 28.7775 32.0488 29.1192L32.8884 29.9589H25.6673C25.1842 29.9589 24.7923 30.3508 24.7923 30.8339C24.7923 31.317 25.1842 31.7089 25.6673 31.7089H32.8884L32.0488 32.5485C31.7069 32.8904 31.7069 33.4441 32.0488 33.7858C32.2197 33.9567 32.443 34.0421 32.6674 34.0421C32.8919 34.0421 33.1152 33.9567 33.2861 33.7858L35.6195 31.4524C35.9613 31.1106 35.9612 30.557 35.6193 30.2153Z" fill="white"/>
</svg>
