<svg width="56" height="57" viewBox="0 0 56 57" fill="none" xmlns="http://www.w3.org/2000/svg">
<rect y="0.5" width="56" height="56" rx="28" fill="#19A39E"/>
<g clip-path="url(#clip0_477_38043)">
<path d="M35.6426 18.3714H39.0826L35.6426 14.9316V18.3714Z" fill="white"/>
<path d="M34.8126 20.0311C34.3543 20.0311 33.9828 19.6596 33.9828 19.2012V14.4453H20.1266C19.6684 14.4453 19.2969 14.8168 19.2969 15.2752V30.0663C20.1608 29.7055 21.1082 29.5058 22.1015 29.5058C22.5922 29.5058 23.0716 29.5547 23.5354 29.6474C23.4798 29.5361 23.4478 29.4111 23.4478 29.2783C23.4478 28.82 23.8195 28.4485 24.2777 28.4485H34.2732C34.7314 28.4485 35.1031 28.82 35.1031 29.2783C35.1031 29.7367 34.7314 30.1082 34.2732 30.1082H25.004C27.5891 31.2329 29.4013 33.8113 29.4013 36.8055C29.4013 37.9678 29.1278 39.0671 28.6425 40.0436H38.7507C39.2091 40.0436 39.5806 39.6719 39.5806 39.2137V20.0311H34.8126ZM31.2854 22.7497C31.2854 23.2081 30.9139 23.5796 30.4555 23.5796H24.2777C23.8195 23.5796 23.4478 23.2081 23.4478 22.7497C23.4478 22.2915 23.8195 21.9198 24.2777 21.9198H30.4555C30.9139 21.9198 31.2854 22.2913 31.2854 22.7497ZM34.2732 26.844H24.2777C23.8195 26.844 23.4478 26.4723 23.4478 26.0141C23.4478 25.5557 23.8195 25.1842 24.2777 25.1842H34.2732C34.7314 25.1842 35.1031 25.5557 35.1031 26.0141C35.1031 26.4723 34.7314 26.844 34.2732 26.844Z" fill="white"/>
<path d="M27.7409 36.8059C27.7409 33.696 25.2107 31.166 22.1008 31.166C18.9911 31.166 16.4609 33.696 16.4609 36.8059C16.4609 39.9156 18.9909 42.4458 22.1008 42.4458C25.2107 42.4458 27.7409 39.9156 27.7409 36.8059ZM21.6509 39.0579C21.4973 39.1831 21.3119 39.2442 21.1273 39.2442C20.8949 39.2442 20.6638 39.1468 20.4999 38.9579L18.7884 36.9841C18.488 36.6378 18.5254 36.1137 18.8717 35.8134C19.218 35.5133 19.742 35.5504 20.0423 35.8967L21.2269 37.2628L24.0476 34.9664C24.403 34.6771 24.9258 34.7305 25.215 35.086C25.5045 35.4415 25.4509 35.9642 25.0954 36.2537L21.6509 39.0579Z" fill="white"/>
</g>
<defs>
<clipPath id="clip0_477_38043">
<rect width="28" height="28" fill="white" transform="translate(14 14.5)"/>
</clipPath>
</defs>
</svg>
