<svg width="56" height="57" viewBox="0 0 56 57" fill="none" xmlns="http://www.w3.org/2000/svg">
<rect y="0.5" width="56" height="56" rx="28" fill="#19A39E"/>
<path fill-rule="evenodd" clip-rule="evenodd" d="M23.9688 38.8334C25.7953 40.2064 28.0658 41.0203 30.5267 41.0203C32.134 41.0203 33.6604 40.6731 35.0347 40.0498L40.5132 40.8782C40.712 40.9082 40.8976 40.8353 41.0228 40.6779C41.148 40.5206 41.1774 40.3233 41.1034 40.1363L39.5618 36.2394C40.7551 34.4883 41.4531 32.3727 41.4531 30.0938C41.4531 25.8854 39.0734 22.2334 35.5865 20.4082C36.7931 22.2821 37.4934 24.5126 37.4934 26.9068C37.4934 33.545 32.1114 38.927 25.4733 38.927C24.9687 38.927 24.4664 38.8957 23.9688 38.8334ZM25.4733 15.9805C31.5078 15.9805 36.3997 20.8724 36.3997 26.9069C36.3997 32.9414 31.5078 37.8333 25.4733 37.8333C23.866 37.8333 22.3396 37.4861 20.9653 36.8628L15.4868 37.6911C15.288 37.7212 15.1024 37.6483 14.9772 37.4909C14.8519 37.3335 14.8226 37.1363 14.8966 36.9492L16.4382 33.0524C15.2449 31.3013 14.5469 29.1857 14.5469 26.9069C14.5469 20.8724 19.4388 15.9805 25.4733 15.9805ZM27.1109 22.1217C27.2615 22.1217 27.3843 22.2445 27.3843 22.3951V24.9959H29.985C30.1357 24.9959 30.2585 25.1187 30.2585 25.2693V28.5445C30.2585 28.6951 30.1357 28.818 29.985 28.818H27.3843V31.4187C27.3843 31.5693 27.2615 31.6921 27.1109 31.6921H23.8357C23.685 31.6921 23.5622 31.5693 23.5622 31.4187V28.818H20.9615C20.8109 28.818 20.6881 28.6951 20.6881 28.5445V25.2693C20.6881 25.1187 20.8109 24.9959 20.9615 24.9959H23.5622V22.3951C23.5622 22.2445 23.685 22.1217 23.8357 22.1217H27.1109Z" fill="white"/>
</svg>
