<svg width="56" height="57" viewBox="0 0 56 57" fill="none" xmlns="http://www.w3.org/2000/svg">
<rect y="0.5" width="56" height="56" rx="28" fill="#19A39E"/>
<path d="M28 27.4286C26.8628 27.4286 25.7511 27.7428 24.8055 28.3314C23.8599 28.9201 23.1229 29.7567 22.6877 30.7356C22.2525 31.7145 22.1386 32.7917 22.3605 33.8308C22.5823 34.87 23.13 35.8246 23.9341 36.5738C24.7383 37.323 25.7628 37.8332 26.8782 38.0399C27.9936 38.2466 29.1498 38.1405 30.2004 37.7351C31.2511 37.3296 32.1491 36.643 32.781 35.762C33.4128 34.881 33.75 33.8453 33.75 32.7857C33.7482 31.3654 33.1418 30.0038 32.0639 28.9995C30.9859 27.9952 29.5244 27.4302 28 27.4286ZM31.7948 31.2858L28.3448 35.5715C28.2452 35.6934 28.119 35.7941 27.9744 35.867C27.8298 35.9398 27.6701 35.9831 27.5062 35.9939C27.3422 36.0048 27.1776 35.9829 27.0234 35.9298C26.8692 35.8768 26.729 35.7937 26.6119 35.6861L24.312 33.5432C24.0995 33.3417 23.9811 33.0702 23.9825 32.7877C23.9839 32.5053 24.1049 32.2348 24.3193 32.035C24.5336 31.8353 24.824 31.7226 25.1272 31.7213C25.4303 31.72 25.7217 31.8303 25.938 32.0282L27.3003 33.2974L29.9552 29.9999C30.1382 29.7726 30.4107 29.6224 30.7126 29.5823C31.0145 29.5422 31.3211 29.6154 31.5651 29.786C31.809 29.9565 31.9703 30.2103 32.0133 30.4916C32.0564 30.7729 31.9778 31.0585 31.7948 31.2858ZM35.8908 16.7143C36.0451 17.4189 36.0986 18.1394 36.05 18.8571C36.0486 19.9934 35.5635 21.0827 34.7012 21.8862C33.8388 22.6896 32.6696 23.1416 31.45 23.1429H24.55C23.3304 23.1416 22.1612 22.6896 21.2988 21.8862C20.4365 21.0827 19.9514 19.9934 19.95 18.8571C19.9014 18.1394 19.955 17.4189 20.1092 16.7143C19.6434 16.6959 19.1784 16.7654 18.7421 16.9186C18.3058 17.0717 17.9071 17.3054 17.5701 17.6055C17.2331 17.9057 16.9646 18.2662 16.7807 18.6653C16.5968 19.0645 16.5013 19.4942 16.5 19.9286V40.2857C16.501 41.1379 16.8648 41.9549 17.5116 42.5575C18.1584 43.1601 19.0353 43.4991 19.95 43.5H36.05C36.9647 43.4991 37.8416 43.1601 38.4884 42.5575C39.1352 41.9549 39.499 41.1379 39.5 40.2857V19.9286C39.4987 19.4942 39.4032 19.0645 39.2193 18.6653C39.0354 18.2662 38.7669 17.9057 38.4299 17.6055C38.0929 17.3054 37.6942 17.0717 37.2579 16.9186C36.8216 16.7654 36.3566 16.6959 35.8908 16.7143ZM28 40.2857C26.4079 40.2857 24.8515 39.8458 23.5277 39.0217C22.2038 38.1976 21.1721 37.0263 20.5628 35.6558C19.9535 34.2854 19.7941 32.7774 20.1047 31.3225C20.4153 29.8677 21.182 28.5313 22.3078 27.4824C23.4336 26.4335 24.868 25.7192 26.4295 25.4298C27.9911 25.1404 29.6097 25.289 31.0806 25.8566C32.5515 26.4243 33.8088 27.3856 34.6933 28.6189C35.5779 29.8523 36.05 31.3024 36.05 32.7857C36.0475 34.7741 35.1986 36.6804 33.6895 38.0865C32.1803 39.4925 30.1342 40.2834 28 40.2857ZM33.75 17.7857V18.8571C33.7494 19.4253 33.5069 19.97 33.0757 20.3717C32.6445 20.7735 32.0598 20.9994 31.45 21H24.55C23.9402 20.9994 23.3555 20.7735 22.9243 20.3717C22.4931 19.97 22.2506 19.4253 22.25 18.8571V17.7857C22.2518 17.489 22.3192 17.1958 22.448 16.9244C22.5767 16.6531 22.764 16.4093 22.9983 16.2082C23.2325 16.0072 23.5087 15.8533 23.8095 15.756C24.1104 15.6588 24.4296 15.6202 24.7471 15.6429C24.985 15.0162 25.4255 14.4736 26.0081 14.0898C26.5906 13.7061 27.2865 13.5 28 13.5C28.7135 13.5 29.4094 13.7061 29.9919 14.0898C30.5745 14.4736 31.015 15.0162 31.2529 15.6429C31.5704 15.6202 31.8896 15.6588 32.1905 15.756C32.4913 15.8533 32.7675 16.0072 33.0017 16.2082C33.236 16.4093 33.4233 16.6531 33.552 16.9244C33.6808 17.1958 33.7482 17.489 33.75 17.7857Z" fill="white"/>
</svg>
