<svg width="56" height="57" viewBox="0 0 56 57" fill="none" xmlns="http://www.w3.org/2000/svg">
<rect y="0.5" width="56" height="56" rx="28" fill="#19A39E"/>
<path d="M42.1856 33.9212C42.4298 33.7416 42.6224 33.5007 42.7438 33.2229C42.8652 32.9451 42.9112 32.6402 42.8772 32.339C42.8431 32.0377 42.7302 31.7508 42.5498 31.5071C42.3694 31.2634 42.1279 31.0716 41.8497 30.9511V28.582L40.4647 29.1707V30.9511C40.1864 31.0716 39.9448 31.2634 39.7643 31.5071C39.5838 31.7508 39.4708 32.0379 39.4367 32.3393C39.4026 32.6406 39.4487 32.9457 39.5702 33.2236C39.6917 33.5014 39.8844 33.7423 40.1289 33.9219C39.9115 34.0816 39.7346 34.2902 39.6125 34.5307C39.4904 34.7713 39.4265 35.0372 39.426 35.3069V37.0375C39.426 37.2212 39.4989 37.3973 39.6288 37.5272C39.7587 37.657 39.9348 37.73 40.1185 37.73H42.196C42.3796 37.73 42.5558 37.657 42.6857 37.5272C42.8155 37.3973 42.8885 37.2212 42.8885 37.0375V35.3062C42.8879 35.0365 42.824 34.7706 42.702 34.53C42.5799 34.2895 42.403 34.0809 42.1856 33.9212Z" fill="white"/>
<path d="M38.3904 30.0508V35.1753C38.3941 35.771 38.2429 36.3575 37.9515 36.8771C37.6601 37.3968 37.2386 37.8317 36.7284 38.1392C34.0805 39.6857 31.0692 40.5006 28.0028 40.5006C24.9365 40.5006 21.9252 39.6857 19.2773 38.1392C18.7671 37.8317 18.3456 37.3968 18.0542 36.8771C17.7628 36.3575 17.6116 35.771 17.6153 35.1753V30.0508L26.1123 33.6449C26.7109 33.8963 27.3536 34.0258 28.0028 34.0258C28.6521 34.0258 29.2948 33.8963 29.8934 33.6449L38.3904 30.0508Z" fill="white"/>
<path d="M43.2616 22.6587L29.3506 16.7725C28.9232 16.5926 28.464 16.5 28.0003 16.5C27.5365 16.5 27.0774 16.5926 26.6499 16.7725L12.7389 22.6587C12.3629 22.8178 12.0421 23.0841 11.8165 23.4244C11.591 23.7647 11.4707 24.1639 11.4707 24.5721C11.4707 24.9804 11.591 25.3796 11.8165 25.7199C12.0421 26.0602 12.3629 26.3265 12.7389 26.4855L26.6499 32.3718C27.0773 32.5518 27.5365 32.6445 28.0003 32.6445C28.4641 32.6445 28.9232 32.5518 29.3506 32.3718L43.2616 26.4855C43.6376 26.3265 43.9585 26.0602 44.184 25.7199C44.4095 25.3796 44.5298 24.9804 44.5298 24.5721C44.5298 24.1639 44.4095 23.7647 44.184 23.4244C43.9585 23.0841 43.6376 22.8178 43.2616 22.6587Z" fill="white"/>
</svg>
