<svg width="231" height="231" viewBox="0 0 231 231" fill="none" xmlns="http://www.w3.org/2000/svg">
<g clip-path="url(#clip0_500_19519)">
<path d="M113.084 216.978C96.6736 216.978 82.2259 214.08 69.7463 208.284C57.2613 202.493 46.7824 194.734 38.3148 185.012C29.8419 175.295 23.5102 164.373 19.3197 152.239C15.1238 140.111 13.0312 127.718 13.0312 115.049C13.0312 102.38 15.1238 90.0359 19.3197 77.9997C23.5102 65.9635 29.8419 55.1277 38.3148 45.4976C46.7824 35.8676 57.2613 28.1571 69.7463 22.3553C82.2259 16.5588 96.6736 13.6606 113.084 13.6606C129.495 13.6606 144.202 16.5588 156.692 22.3553C169.172 28.1517 179.608 35.8622 187.994 45.4976C196.375 55.1277 202.664 65.9635 206.854 77.9997C211.045 90.0359 213.143 102.391 213.143 115.049C213.143 127.707 211.18 139.484 207.26 151.433C203.334 163.383 197.359 174.084 189.335 183.535L216.89 214.302H173.016L164.187 204.401C157.049 208.327 149.247 211.404 140.779 213.631C132.306 215.859 123.076 216.973 113.09 216.973L113.084 216.978ZM113.084 179.794C121.822 179.794 129.76 178.101 136.892 174.711C136.892 174.711 144.456 171.532 151.961 163.875C159.466 156.213 160.969 151.974 160.969 151.974C167.209 141.095 170.335 128.794 170.335 115.055C170.335 104.181 168.193 93.8317 163.916 84.0232C159.634 74.2147 153.216 66.1906 144.656 59.9454C136.097 53.7056 125.569 50.5803 113.09 50.5803C100.61 50.5803 90.1256 53.7056 81.6581 59.9454C73.1852 66.1906 66.8102 74.2147 62.5278 84.0232C58.2454 93.8317 56.1096 104.181 56.1096 115.055C56.1096 125.928 58.2508 136.321 62.5278 146.221C66.8102 156.121 73.1852 164.189 81.6581 170.434C90.1256 176.679 100.605 179.799 113.09 179.799L113.084 179.794Z" fill="#20B2A8"/>
<path d="M144.573 168.157C147.131 167.135 148.764 165.329 150.683 163.94C152.062 162.94 151.078 161.869 150.726 160.852C148.169 153.51 148.245 146.242 151.337 139.067C152.803 135.666 154.122 135.207 157.469 136.872C160.751 138.505 163.249 140.981 165.266 144.463C167.224 141.614 167.851 138.57 168.819 135.682C169.3 134.244 167.926 133.947 167.196 133.33C163.666 130.319 161.584 126.598 161.351 121.905C161.259 120.11 161.773 118.596 163.736 118.509C165.618 118.423 166.504 119.71 166.51 121.597C166.515 124.473 167.678 126.798 169.911 128.864C171.209 124.641 171.073 121.343 168.159 117.709C161.665 109.62 160.8 100.342 164.515 90.6845C165.866 87.1645 167.602 86.7643 170.419 89.3489C178.881 97.1027 183.585 109.258 176.253 120.478C176.161 120.618 176.243 120.867 176.243 121.478C179.444 118.672 182.407 115.946 186.094 114.254C189.868 112.524 191.572 113.497 191.858 117.65C192.61 128.545 187.03 137.488 176.497 140.495C172.095 141.755 170.944 144.485 169.619 148.259C174.41 147.302 178.897 146.632 183.558 147.189C191.783 148.167 193.091 150.438 188.76 157.576C184.191 165.108 176.902 168.406 168.559 169.352C163.893 169.882 159.102 169.893 154.42 168.968C153.219 168.731 152.413 169.217 151.559 169.861C141.659 177.312 130.488 181.535 118.181 182.54C115.359 182.773 116.11 184.395 115.932 185.941C115.678 188.137 116.927 188.288 118.608 188.245C121.55 188.169 124.502 188.288 127.444 188.207C129.806 188.142 131.007 189.164 131.018 191.527C131.028 194.576 131.045 197.626 131.018 200.681C130.996 202.947 129.936 204.196 127.541 204.19C118.176 204.169 108.811 204.174 99.451 204.19C97.0502 204.19 96.0012 202.882 95.958 200.665C95.8985 197.615 95.931 194.566 95.9418 191.511C95.9472 189.072 97.1584 187.812 99.6294 187.818C102.468 187.818 105.312 187.818 108.151 187.818C109.514 187.818 110.936 188.104 110.871 185.882C110.817 184 110.979 182.308 108.329 182.232C103.041 182.086 97.9586 180.842 92.9679 179.128C86.7713 176.998 80.8776 174.257 75.7517 170.147C73.9403 168.698 72.21 168.806 70.1769 169.06C61.6824 170.109 53.4149 169.617 45.7423 165.205C41.1841 162.588 37.9344 158.895 35.9662 154.056C34.4252 150.265 35.2038 148.892 39.124 148.027C45.061 146.713 50.9601 146.875 56.9079 148.486C55.859 144.382 54.0854 141.857 49.6732 140.495C39.6214 137.396 33.9386 128.404 34.5712 118.315C34.8632 113.627 36.7773 112.48 40.8705 114.649C42.5359 115.53 44.1364 116.568 45.6504 117.688C47.1643 118.801 48.5323 120.11 50.5005 121.792C49.1487 118.05 47.4347 115.135 46.8453 111.745C45.3746 103.288 50.8358 93.4367 57.4432 88.4405C59.3736 86.9806 60.947 87.8079 61.8662 90.041C66.1649 100.504 64.878 110.269 57.7514 118.985C55.0911 122.235 56.0158 125.214 56.5997 128.805C59.1357 126.858 59.8278 124.495 60.1576 121.948C60.3955 120.094 61.0444 118.52 63.2991 118.964C65.4782 119.391 65.5809 121.186 65.3322 122.949C64.7536 127.058 63.045 130.659 59.7088 133.173C57.9245 134.52 57.6649 135.736 58.5301 137.678C59.5412 139.938 60.2766 142.317 61.266 145.015C63.3207 141.344 65.7593 138.667 69.1712 136.969C72.5236 135.298 73.8862 135.715 75.2921 139.1C78.0497 145.74 78.6985 152.617 76.2113 159.371C74.9947 162.675 75.7409 164.394 78.5471 165.876C79.5529 166.405 80.445 167.157 81.7427 168.049C82.0239 164.67 82.4402 161.615 83.3324 158.673C84.3706 155.251 85.8738 154.726 88.9071 156.678C95.4497 160.89 100.267 166.346 101.143 174.435C101.316 176.046 102.138 176.63 103.512 176.733C112.141 177.382 110.627 179.848 110.806 170.926C110.833 169.531 110.611 168.336 109.687 167.135C96.45 150 83.3162 132.784 70.0364 115.681C68.1655 113.275 67.7383 111.388 69.4686 108.674C72.7994 103.456 75.8382 98.0435 78.8607 92.6364C79.953 90.6845 81.2345 89.8139 83.5811 89.8247C103.463 89.9167 123.35 89.9059 143.238 89.8356C145.4 89.8302 146.66 90.4682 147.682 92.458C150.759 98.4328 153.987 104.332 157.318 110.166C158.61 112.426 158.388 114.173 156.82 116.168C143.914 132.627 131.174 149.222 118.111 165.551C115.24 169.136 116.235 172.835 116.002 176.587C115.953 177.409 116.532 177.647 117.257 177.544C119.538 177.209 121.815 176.83 124.102 176.522C125.205 176.376 125.34 175.684 125.443 174.759C126.389 166.281 131.45 160.679 138.42 156.483C140.859 155.018 142.151 155.586 143.13 158.392C144.195 161.458 144.535 164.659 144.573 168.152V168.157Z" fill="#00A19D"/>
<path d="M113.12 158.5C108.794 144.966 104.582 131.605 100.219 118.293C99.3319 115.584 99.9375 114.984 102.722 115.054C110.168 115.243 117.624 115.114 125.08 115.124C126.275 115.124 127.881 114.751 127.151 116.974C122.658 130.578 118.17 144.182 113.672 157.786C113.612 157.97 113.428 158.111 113.12 158.5Z" fill="#FFF8E6"/>
<path d="M113.393 109.977C109.197 109.977 105.006 109.939 100.816 109.998C99.2639 110.02 98.707 109.474 99.0963 107.938C100.048 104.197 101.027 100.455 101.854 96.6862C102.168 95.2533 102.854 94.8964 104.217 94.9126C110.192 94.9721 116.166 94.9775 122.141 94.9126C123.504 94.8964 124.288 95.2533 124.612 96.6375C125.515 100.498 126.435 104.359 127.446 108.198C127.83 109.658 127.37 110.025 125.97 110.009C121.779 109.95 117.583 109.988 113.393 109.988V109.977Z" fill="#FFF8E6"/>
<path d="M150.877 115.12C140.799 128.08 131.174 140.463 121.544 152.839C121.344 152.753 121.149 152.666 120.949 152.58C122.177 148.687 123.399 144.788 124.637 140.895C127.048 133.32 129.503 125.761 131.855 118.169C132.515 116.033 133.445 114.919 135.981 115.049C140.685 115.293 145.416 115.12 150.872 115.12H150.877Z" fill="#FFF8E6"/>
<path d="M75.771 115.125C81.8108 115.125 87.0448 115.157 92.2735 115.098C93.4955 115.082 93.9497 115.763 94.2471 116.698C97.9077 128.07 101.563 139.446 105.196 150.828C105.315 151.201 105.213 151.65 105.213 152.948C95.2636 140.165 85.7742 127.972 75.7656 115.12L75.771 115.125Z" fill="#FFF8E6"/>
<path d="M96.9663 94.9401C95.8686 99.6605 94.8359 104.024 93.8572 108.398C93.6085 109.512 93.0299 109.983 91.9052 109.983C86.3846 109.961 80.8585 109.972 74.7539 109.972C77.6467 104.911 80.28 100.315 82.9024 95.7133C83.2593 95.0915 83.8216 94.9293 84.4921 94.9347C88.5636 94.9401 92.6352 94.9347 96.9609 94.9347L96.9663 94.9401Z" fill="#FFF8E6"/>
<path d="M142.304 109.977C140.941 109.977 139.579 109.977 138.216 109.977C134.806 109.977 132.712 108.364 131.933 105.138C131.3 102.499 130.781 99.8279 130.078 97.2054C129.662 95.6428 129.83 94.8534 131.706 94.902C134.956 94.9939 138.205 94.9615 141.455 94.9074C142.623 94.8912 143.428 95.2319 144.018 96.2862C146.219 100.212 148.446 104.121 150.717 108.003C151.593 109.501 151.236 110.031 149.533 109.982C147.121 109.918 144.71 109.966 142.298 109.966L142.304 109.977Z" fill="#FFF8E6"/>
<path d="M158.703 163.783C164.494 154.52 172.708 150.941 183.332 152.347C185.625 152.649 185.355 153.379 184.446 154.823C181.083 160.203 175.903 162.717 169.934 163.739C166.246 164.372 162.483 164.751 158.709 163.783H158.703Z" fill="#FFF8E6"/>
<path d="M68.2256 163.707C58.509 165.93 47.4191 162.328 42.8339 155.71C42.2661 154.894 41.2117 154.029 41.7578 152.958C42.2337 152.023 43.4557 152.466 44.3478 152.39C49.4359 151.941 54.2969 152.52 59.0119 154.791C63.0456 156.732 64.9002 160.604 68.2256 163.713V163.707Z" fill="#FFF8E6"/>
<path d="M113.188 199.103C109.938 199.103 106.683 198.957 103.444 199.151C101.114 199.292 100.897 198.129 100.968 196.313C101.027 194.685 100.773 193.252 103.282 193.306C109.987 193.452 116.697 193.447 123.396 193.312C126.132 193.258 125.348 195.042 125.478 196.459C125.63 198.108 125.473 199.265 123.24 199.146C119.898 198.967 116.535 199.097 113.182 199.097L113.188 199.103Z" fill="#FEF8E6"/>
<path d="M58.2544 95.2803C59.9414 102.093 58.9195 108.182 55.2048 113.783C54.8047 114.389 54.583 115.546 53.5124 115.303C52.6959 115.119 52.7013 114.14 52.4905 113.481C50.5223 107.425 52.896 99.7628 58.2598 95.2857L58.2544 95.2803Z" fill="#FCF7E5"/>
<path d="M168.719 95.2534C174.867 101.931 176.402 109.382 173.045 115.433C168.124 110.847 166.042 101.45 168.719 95.2534Z" fill="#FEF7E6"/>
<path d="M155.659 158.987C153.782 153.618 153.826 148.827 155.085 143.983C155.545 142.214 156.21 142.004 157.627 143.166C161.704 146.508 162.261 150.931 158.995 155.078C158.043 156.289 156.994 157.43 155.659 158.987Z" fill="#FCF7E5"/>
<path d="M70.9592 158.571C68.8774 156.738 67.2445 154.575 65.8603 152.293C64.3895 149.882 67.5743 143.133 70.2671 142.468C71.4945 142.166 71.3593 143.215 71.5756 143.755C73.0625 147.497 72.7705 154.505 70.9646 158.571H70.9592Z" fill="#FDF7E6"/>
<path d="M39.9893 120.207C45.5856 123.603 49.376 128.361 52.0471 134.055C52.7879 135.639 51.5659 135.509 50.5656 135.244C44.661 133.671 39.6054 126.631 39.9893 120.207Z" fill="#FCF7E5"/>
<path d="M186.529 120.137C186.837 127.523 181.413 134.19 174.098 135.537C176.525 129.026 180.602 124.16 186.529 120.137Z" fill="#FCF7E5"/>
<path d="M130.816 174.738C131.773 169.087 134.428 165.092 138.619 162.788C141.149 169.347 138.889 172.926 130.816 174.738Z" fill="#FCF7E5"/>
<path d="M87.9719 162.42C92.011 164.837 94.3956 168.384 95.6824 172.716C96.1583 174.321 95.5365 174.738 93.8657 174.202C87.4637 172.164 86.1011 169.606 87.9719 162.42Z" fill="#FEF7E6"/>
</g>
<defs>
<clipPath id="clip0_500_19519">
<rect width="203.853" height="203.318" fill="white" transform="translate(13.0312 13.6606)"/>
</clipPath>
</defs>
</svg>
