<svg width="129" height="129" viewBox="0 0 129 129" fill="none" xmlns="http://www.w3.org/2000/svg">
<g clip-path="url(#clip0_500_19552)">
<path d="M48.9648 121.484V7.87891H72.9355V121.484H48.9648Z" fill="#20B2A8"/>
<path d="M58.5859 60.9048H54.9712C53.9947 60.9048 53.2031 61.6855 53.2031 62.6485V69.6027C53.2031 70.5657 53.9947 71.3464 54.9712 71.3464H58.5859C59.5624 71.3464 60.3539 70.5657 60.3539 69.6027V62.6485C60.3539 61.6855 59.5624 60.9048 58.5859 60.9048Z" fill="#FFF8E6"/>
<path d="M66.9257 60.9048H63.311C62.3345 60.9048 61.543 61.6855 61.543 62.6485V69.6027C61.543 70.5657 62.3345 71.3464 63.311 71.3464H66.9257C67.9022 71.3464 68.6938 70.5657 68.6938 69.6027V62.6485C68.6938 61.6855 67.9022 60.9048 66.9257 60.9048Z" fill="#FFF8E6"/>
<path d="M58.5859 72.5107H54.9712C53.9947 72.5107 53.2031 73.2914 53.2031 74.2545V81.2086C53.2031 82.1717 53.9947 82.9523 54.9712 82.9523H58.5859C59.5624 82.9523 60.3539 82.1717 60.3539 81.2086V74.2545C60.3539 73.2914 59.5624 72.5107 58.5859 72.5107Z" fill="#FFF8E6"/>
<path d="M66.9257 72.5107H63.311C62.3345 72.5107 61.543 73.2914 61.543 74.2545V81.2086C61.543 82.1717 62.3345 82.9523 63.311 82.9523H66.9257C67.9022 82.9523 68.6938 82.1717 68.6938 81.2086V74.2545C68.6938 73.2914 67.9022 72.5107 66.9257 72.5107Z" fill="#FFF8E6"/>
<path d="M58.5859 84.1162H54.9712C53.9947 84.1162 53.2031 84.8969 53.2031 85.8599V92.8141C53.2031 93.7771 53.9947 94.5578 54.9712 94.5578H58.5859C59.5624 94.5578 60.3539 93.7771 60.3539 92.8141V85.8599C60.3539 84.8969 59.5624 84.1162 58.5859 84.1162Z" fill="#FFF8E6"/>
<path d="M66.9257 84.1162H63.311C62.3345 84.1162 61.543 84.8969 61.543 85.8599V92.8141C61.543 93.7771 62.3345 94.5578 63.311 94.5578H66.9257C67.9022 94.5578 68.6938 93.7771 68.6938 92.8141V85.8599C68.6938 84.8969 67.9022 84.1162 66.9257 84.1162Z" fill="#FFF8E6"/>
<path d="M55.5248 17.3584H57.2823C58.7723 17.3584 59.9789 18.5485 59.9789 20.018V34.4799C59.9789 34.868 59.6589 35.1836 59.2654 35.1836H53.5416C53.1482 35.1836 52.8281 34.868 52.8281 34.4799V20.018C52.8281 18.5485 54.0348 17.3584 55.5248 17.3584Z" fill="#FFF8E6"/>
<path d="M65.6654 17.3584H67.4229C68.9129 17.3584 70.1196 18.5485 70.1196 20.018V34.4799C70.1196 34.868 69.7995 35.1836 69.406 35.1836H63.6823C63.2888 35.1836 62.9688 34.868 62.9688 34.4799V20.018C62.9688 18.5485 64.1754 17.3584 65.6654 17.3584Z" fill="#FFF8E6"/>
<path d="M55.5248 38.4692H57.2823C58.7723 38.4692 59.9789 39.6593 59.9789 41.1288V51.2962C59.9789 51.6842 59.6589 51.9999 59.2654 51.9999H53.5416C53.1482 51.9999 52.8281 51.6842 52.8281 51.2962V41.1288C52.8281 39.6593 54.0348 38.4692 55.5248 38.4692Z" fill="#FFF8E6"/>
<path d="M65.6654 38.4692H67.4229C68.9129 38.4692 70.1196 39.6593 70.1196 41.1288V51.2962C70.1196 51.6842 69.7995 51.9999 69.406 51.9999H63.6823C63.2888 51.9999 62.9688 51.6842 62.9688 51.2962V41.1288C62.9688 39.6593 64.1754 38.4692 65.6654 38.4692Z" fill="#FFF8E6"/>
<path d="M61.0602 53.9188C61.0602 53.9188 59.3708 39.9898 69.1763 33.8014C78.9818 27.613 77.0354 32.5492 77.0354 32.5492C77.0354 32.5492 76.5055 46.1626 72.3084 50.5556C68.1113 54.9537 61.8419 54.3017 61.8419 54.3017C61.8419 54.3017 64.6434 43.7773 69.4753 40.8487" fill="#FFF8E6"/>
<path d="M61.0581 53.9192C60.2554 48.4448 61.0004 42.5307 64.0432 37.7807C66.4146 34.1225 70.234 31.7786 74.2474 30.1022C76.0942 29.3467 78.4865 29.652 78.135 32.2081C78.093 32.4513 78.0511 32.6375 77.9514 32.9066L78.0196 32.591C77.7258 37.76 77.1172 42.8411 75.1656 47.7153C73.1772 52.9413 67.1806 55.518 61.7663 54.9903C61.3361 54.9696 61.0318 54.5349 61.1682 54.1313C61.5722 52.8429 62.0391 51.6115 62.548 50.38C64.1219 46.8253 65.9897 42.9239 69.4732 40.8491C65.6067 43.8915 63.7704 49.9091 62.5113 54.478L61.9132 53.6191C62.4693 53.6449 63.1041 53.6243 63.7022 53.5673C67.8364 53.1948 71.9285 51.0061 73.366 46.9702C75.2075 42.3444 75.6482 37.1236 76.1151 32.1977C76.1729 32.0477 76.2253 31.7527 76.2043 31.6544C76.1991 31.5975 76.1886 31.5975 76.2148 31.6286C76.2358 31.6648 76.2778 31.6855 76.262 31.6751C75.9368 31.6079 75.2757 31.7372 74.8718 31.8821C71.2727 33.2947 67.5321 35.3747 65.2342 38.5776C62.0706 42.9446 60.9899 48.5742 61.0633 53.9192H61.0581Z" fill="#20B2A8"/>
<path d="M58.9902 72.0082C58.9902 72.0082 59.987 65.7939 53.0198 62.1409C46.0526 58.4879 47.4849 60.9094 47.4849 60.9094C47.4849 60.9094 48.041 67.1702 51.0471 69.5297C54.0533 71.8892 58.4498 72.122 58.4498 72.122C58.4498 72.122 56.3407 67.0823 52.9096 65.3386" fill="#FFF8E6"/>
<path d="M58.9922 72.0083C59.0867 66.922 55.5296 63.595 51.0335 61.7892C50.0105 61.3494 49.0136 60.8578 47.9172 60.7492C47.8332 60.744 47.8962 60.7647 47.8227 60.7544C47.8437 60.7544 47.8647 60.7388 47.8752 60.7233C47.9801 60.6819 48.0011 60.4853 48.0011 60.5112C48.0011 60.5215 48.0326 60.594 48.0326 60.5991C48.5362 63.3259 49.0031 66.3684 50.8971 68.5416C52.833 70.4923 55.7815 71.3408 58.4676 71.6875L58.0374 72.2877C56.9199 69.6489 55.388 66.9479 52.9012 65.3336C53.5832 65.6388 54.2285 66.0476 54.8109 66.5288C56.5527 68.0138 57.8433 69.9179 58.8506 71.9514C58.9975 72.2412 58.7404 72.593 58.4204 72.5516C56.8884 72.4688 55.4142 72.1894 53.9662 71.7082C52.534 71.1908 51.1332 70.5337 49.9737 69.3695C47.8962 66.9841 47.2246 63.9727 46.8521 60.9613L46.9361 61.2252C46.4482 60.4129 46.8731 59.4711 47.9119 59.5074C48.3683 59.5177 48.8458 59.6522 49.2655 59.7919C51.2014 60.5163 52.9956 61.427 54.6902 62.5809C57.7016 64.6557 59.648 68.376 58.9922 72.0083Z" fill="#20B2A8"/>
<path d="M67.5764 94.8063C67.5764 94.8063 66.0706 87.8107 73.7566 83.2626C81.4425 78.7144 79.963 81.5395 79.963 81.5395C79.963 81.5395 79.7112 88.6696 76.4427 91.5258C73.1742 94.382 68.2007 94.8994 68.2007 94.8994C68.2007 94.8994 70.2887 89.0577 74.0819 86.8794" fill="#FFF8E6"/>
<path d="M67.573 94.8066C66.7598 91.2105 68.2131 87.3608 70.873 84.8255C72.9243 82.9472 75.3481 81.5708 77.8979 80.4532C78.4802 80.2411 79.199 79.9358 79.9335 80.1065C80.7152 80.2825 80.8778 81.2035 80.5211 81.8296L80.5893 81.5657C80.5001 83.2784 80.2587 84.9289 79.8181 86.5743C79.3511 88.2353 78.7058 89.8755 77.5779 91.2415C75.1173 93.8493 71.6914 94.8997 68.2446 95.3395C67.9245 95.3964 67.6517 95.0549 67.7829 94.76C68.4544 93.1663 69.2781 91.6761 70.3064 90.2946C71.3294 88.939 72.5466 87.6661 74.0785 86.8848C71.3242 88.8355 69.745 91.9918 68.6171 95.0497L68.1554 94.4702C70.5162 94.0822 72.8876 93.2698 74.8865 91.9607C76.9535 90.6775 77.9818 88.5043 78.5642 86.2432C78.9681 84.7013 79.2357 83.0817 79.3249 81.5036C79.3249 81.3639 79.4088 81.2604 79.4351 81.131C79.4456 81.0948 79.4246 81.1103 79.4613 81.188C79.5662 81.3587 79.6764 81.2914 79.4561 81.3018C77.4152 81.6847 75.4321 82.9627 73.6221 83.9769C69.787 86.1449 67.1428 90.3619 67.573 94.8117V94.8066Z" fill="#20B2A8"/>
<path d="M60.4697 107.147H54.279L51.1836 112.435L54.279 117.718H60.4697L63.565 112.435L60.4697 107.147Z" fill="#FFF8E6" stroke="#0FA597" stroke-width="2.33582" stroke-miterlimit="10"/>
<path d="M67.6453 101.305H63.0232L60.7148 105.248L63.0232 109.196H67.6453L69.9537 105.248L67.6453 101.305Z" fill="#FFF8E6" stroke="#0FA597" stroke-width="2.33582" stroke-miterlimit="10"/>
<path d="M58.1663 99.6753H55.4487L54.0898 101.999L55.4487 104.322H58.1663L59.5251 101.999L58.1663 99.6753Z" fill="#FFF8E6" stroke="#0FA597" stroke-width="2.33582" stroke-miterlimit="10"/>
</g>
<defs>
<clipPath id="clip0_500_19552">
<rect width="33.9755" height="113.606" fill="white" transform="translate(46.7344 7.87891)"/>
</clipPath>
</defs>
</svg>
