<svg width="129" height="129" viewBox="0 0 129 129" fill="none" xmlns="http://www.w3.org/2000/svg">
<g clip-path="url(#clip0_500_19583)">
<path d="M19.8555 120.937V7.33154H66.6803C75.9931 7.33154 83.7459 9.17323 89.9388 12.8566C96.1316 16.54 100.785 21.2772 103.911 27.058C107.03 32.8387 108.59 38.8542 108.59 45.094C108.59 51.3338 107.03 57.6571 103.911 63.4378C100.785 69.2238 96.1316 73.9558 89.9388 77.6392C83.7459 81.3225 75.9931 83.1642 66.6803 83.1642H43.5V120.932H19.8555V120.937ZM66.6803 28.0545H43.5V62.5978H66.6803C70.6715 62.5978 73.9948 61.7527 76.6609 60.0623C79.3217 58.3719 81.3407 56.2224 82.7233 53.6137C84.1059 51.0051 84.7945 48.2191 84.7945 45.2453C84.7945 42.2715 84.1059 39.6159 82.7233 36.9551C81.3407 34.2943 79.3217 32.1448 76.6609 30.5066C74.0001 28.8683 70.6715 28.0492 66.6803 28.0492V28.0545Z" fill="#20B2A8"/>
<path d="M49.5978 47.014C42.7267 44.0453 35.4695 51.7617 35.5634 59.9214C35.7825 79.387 70.1068 84.6564 74.8388 67.7108C77.1449 59.431 65.0304 57.6258 62.2705 56.8328C56.2289 55.1007 54.5646 49.153 49.603 47.0087L49.5978 47.014Z" fill="#00A29D" stroke="#FFF8E6" stroke-width="1.86256" stroke-miterlimit="10"/>
<path d="M71.2238 30.5066C77.0358 25.3363 72.9507 15.1157 65.2188 11.6201C46.781 3.28297 26.7572 33.3187 40.6455 45.2036C47.4332 51.0104 54.4504 40.388 56.4068 38.129C60.6902 33.1935 67.0187 34.2369 71.2186 30.5014L71.2238 30.5066Z" fill="#00A29D" stroke="#FFF8E6" stroke-width="1.86256" stroke-miterlimit="10"/>
<path d="M71.2124 57.0621C71.948 64.601 82.3356 67.2462 89.5197 63.1663C106.648 53.4414 94.5022 20.4579 77.1809 24.5743C68.7186 26.583 73.0541 38.1966 73.7063 41.0295C75.1306 47.2276 70.6803 51.6101 71.2124 57.0621Z" fill="#00A29D" stroke="#FFF8E6" stroke-width="1.86256" stroke-miterlimit="10"/>
<path d="M48.9705 23.7358V28.2891H48.437L45.9558 24.7141H45.9113V28.2891H45.36V23.7358H45.8935L48.3836 27.3197H48.4281V23.7358H48.9705ZM50.0738 28.2891V23.7358H50.6252V25.7634H53.053V23.7358H53.6044V28.2891H53.053V26.2526H50.6252V28.2891H50.0738ZM54.895 28.2891H54.3169L55.9888 23.7358H56.558L58.2299 28.2891H57.6518L56.2912 24.4562H56.2556L54.895 28.2891ZM55.1084 26.5105H57.4384V26.9996H55.1084V26.5105ZM56.7358 23.3267L56.2734 22.7042L55.8109 23.3267H55.3129V23.2912L56.0333 22.3663H56.5135L57.2338 23.2912V23.3267H56.7358ZM62.5496 23.7358V28.2891H62.0161L59.5349 24.7141H59.4904V28.2891H58.9391V23.7358H59.4727L61.9627 27.3197H62.0072V23.7358H62.5496Z" fill="white"/>
<path d="M80.2701 46.1011V41.5478H80.8215V45.612H82.938V46.1011H80.2701ZM87.8381 41.2722H88.3539C88.3539 41.5627 88.3102 41.8072 88.2227 42.0058C88.1367 42.203 87.9974 42.3527 87.8047 42.4549C87.6135 42.5557 87.3608 42.6061 87.0466 42.6061V42.1704C87.2541 42.1704 87.4149 42.1363 87.5291 42.0681C87.6447 41.9999 87.7247 41.8991 87.7692 41.7657C87.8151 41.6323 87.8381 41.4678 87.8381 41.2722ZM86.7798 41.5478H87.3312V44.5626C87.3312 44.8738 87.2578 45.1517 87.1111 45.3963C86.9658 45.6394 86.7606 45.8313 86.4952 45.9721C86.2299 46.1114 85.9187 46.1811 85.5615 46.1811C85.2043 46.1811 84.893 46.1114 84.6277 45.9721C84.3624 45.8313 84.1564 45.6394 84.0096 45.3963C83.8644 45.1517 83.7918 44.8738 83.7918 44.5626V41.5478H84.3431V44.5181C84.3431 44.7404 84.392 44.9383 84.4899 45.1117C84.5877 45.2837 84.727 45.4193 84.9078 45.5186C85.0901 45.6164 85.308 45.6653 85.5615 45.6653C85.8149 45.6653 86.0328 45.6164 86.2151 45.5186C86.3974 45.4193 86.5367 45.2837 86.6331 45.1117C86.7309 44.9383 86.7798 44.7404 86.7798 44.5181V41.5478ZM85.5615 47.2927C85.4592 47.2927 85.371 47.2579 85.2969 47.1882C85.2243 47.1186 85.188 47.0348 85.188 46.937C85.188 46.8392 85.2243 46.7555 85.2969 46.6858C85.371 46.6161 85.4592 46.5813 85.5615 46.5813C85.6637 46.5813 85.7512 46.6161 85.8238 46.6858C85.8979 46.7555 85.935 46.8392 85.935 46.937C85.935 47.0348 85.8979 47.1186 85.8238 47.1882C85.7512 47.2579 85.6637 47.2927 85.5615 47.2927ZM92.6831 42.9707H92.1318C92.0992 42.8121 92.0421 42.6728 91.9606 42.5528C91.8805 42.4327 91.7827 42.3319 91.6671 42.2504C91.553 42.1674 91.4262 42.1051 91.2869 42.0636C91.1476 42.0221 91.0023 42.0014 90.8512 42.0014C90.5755 42.0014 90.3257 42.071 90.1019 42.2104C89.8796 42.3497 89.7025 42.555 89.5706 42.8262C89.4401 43.0975 89.3749 43.4302 89.3749 43.8245C89.3749 44.2187 89.4401 44.5515 89.5706 44.8227C89.7025 45.0939 89.8796 45.2992 90.1019 45.4385C90.3257 45.5779 90.5755 45.6475 90.8512 45.6475C91.0023 45.6475 91.1476 45.6268 91.2869 45.5853C91.4262 45.5438 91.553 45.4823 91.6671 45.4007C91.7827 45.3177 91.8805 45.2162 91.9606 45.0962C92.0421 44.9746 92.0992 44.8353 92.1318 44.6782H92.6831C92.6416 44.9109 92.566 45.1191 92.4564 45.3029C92.3467 45.4867 92.2103 45.6431 92.0473 45.772C91.8842 45.8995 91.7012 45.9966 91.4981 46.0633C91.2966 46.13 91.0809 46.1633 90.8512 46.1633C90.4628 46.1633 90.1175 46.0685 89.8151 45.8787C89.5128 45.689 89.2749 45.4193 89.1015 45.0695C88.928 44.7197 88.8413 44.3047 88.8413 43.8245C88.8413 43.3442 88.928 42.9292 89.1015 42.5794C89.2749 42.2296 89.5128 41.9599 89.8151 41.7702C90.1175 41.5804 90.4628 41.4856 90.8512 41.4856C91.0809 41.4856 91.2966 41.5189 91.4981 41.5856C91.7012 41.6523 91.8842 41.7502 92.0473 41.8791C92.2103 42.0066 92.3467 42.1622 92.4564 42.346C92.566 42.5283 92.6416 42.7365 92.6831 42.9707Z" fill="white"/>
<path d="M48.1813 62.4784V61.9892H51.5962V62.4784H50.1644V66.5425H49.613V62.4784H48.1813ZM52.4471 66.5425V61.9892H53.9856C54.3414 61.9892 54.6334 62.05 54.8616 62.1716C55.0899 62.2916 55.2588 62.4569 55.3685 62.6673C55.4782 62.8778 55.533 63.1172 55.533 63.3855C55.533 63.6537 55.4782 63.8916 55.3685 64.0991C55.2588 64.3066 55.0906 64.4697 54.8638 64.5882C54.6371 64.7053 54.3473 64.7639 53.9945 64.7639H52.7495V64.2659H53.9767C54.2198 64.2659 54.4155 64.2303 54.5637 64.1591C54.7134 64.088 54.8216 63.9872 54.8883 63.8568C54.9565 63.7249 54.9906 63.5678 54.9906 63.3855C54.9906 63.2031 54.9565 63.0438 54.8883 62.9075C54.8201 62.7711 54.7112 62.6659 54.5615 62.5917C54.4118 62.5162 54.2139 62.4784 53.9679 62.4784H52.9985V66.5425H52.4471ZM54.5904 64.4971L55.7109 66.5425H55.0706L53.9679 64.4971H54.5904ZM57.0032 61.9892V66.5425H56.4518V61.9892H57.0032ZM56.4874 61.5268L57.0298 60.4952H57.6435L56.9498 61.5268H56.4874Z" fill="white"/>
</g>
<defs>
<clipPath id="clip0_500_19583">
<rect width="88.7349" height="113.606" fill="white" transform="translate(19.8555 7.33154)"/>
</clipPath>
</defs>
</svg>
