<svg width="129" height="129" viewBox="0 0 129 129" fill="none" xmlns="http://www.w3.org/2000/svg">
<g clip-path="url(#clip0_500_19609)">
<path d="M75.4132 8.1582H54.0013C35.8248 8.1582 21.0898 22.8932 21.0898 41.0696V88.325C21.0898 106.501 35.8248 121.236 54.0013 121.236H75.4132C93.5897 121.236 108.325 106.501 108.325 88.325V41.0696C108.325 22.8932 93.5897 8.1582 75.4132 8.1582Z" fill="#FFF8E6"/>
<path d="M27.2578 31.0456C27.2578 31.0456 36.3489 8.78688 67.3184 9.88714C88.4312 10.6375 96.4372 26.9792 96.4372 26.9792" stroke="#138C80" stroke-width="1.72391" stroke-linecap="round" stroke-linejoin="round"/>
<path d="M22.9492 66.112C22.9492 66.112 28.5976 72.8859 34.3524 61.9442C40.1021 51.0024 36.203 32.7645 61.0577 31.0457C85.9175 29.3268 85.1975 58.8158 90.4352 72.3637C95.6728 85.9116 103.892 84.3499 103.892 84.3499" stroke="#138C80" stroke-width="1.72391" stroke-linecap="round" stroke-linejoin="round"/>
<path d="M22.9492 71.0251C22.9492 71.0251 32.6031 75.1219 38.3579 64.1802C44.1077 53.2384 39.6762 37.1655 61.8538 37.1402C81.6027 37.1148 81.4962 62.2534 86.7389 75.8013C91.9765 89.3492 103.892 89.263 103.892 89.263" stroke="#138C80" stroke-width="1.72391" stroke-linecap="round" stroke-linejoin="round"/>
<path d="M43.5938 60.2759C45.2061 52.1076 46.3672 42.1546 61.852 42.1343C81.6009 42.1089 77.2607 62.9327 82.6251 76.4299C89.9162 94.7693 105.426 94.3535 105.426 94.3535" stroke="#138C80" stroke-width="1.72391" stroke-linecap="round" stroke-linejoin="round"/>
<path d="M104.813 63.2015C104.813 63.2015 103.718 51.8795 101.031 44.8216C98.3435 37.7637 91.5138 18.3799 69.4782 15.936C52.7005 14.0853 41.2264 19.7641 34.5031 28.698C27.0852 38.5547 25.412 51.053 21.5586 51.7578" stroke="#138C80" stroke-width="1.72391" stroke-linecap="round" stroke-linejoin="round"/>
<path d="M22.4062 61.1331C22.4062 61.1331 26.9493 63.2423 29.2613 60.2711C35.3001 52.5135 33.2821 37.9668 44.67 31.0407C73.8903 13.2642 90.3282 41.2016 93.9231 63.4857C97.1275 83.336 106.361 80.6944 106.361 80.6944" stroke="#138C80" stroke-width="1.72391" stroke-linecap="round" stroke-linejoin="round"/>
<path d="M22.0195 55.5861C22.0195 55.5861 23.637 58.1669 26.0251 55.2718C28.4132 52.3817 30.492 36.9831 41.7431 27.7602C52.989 18.5373 69.6298 19.4753 78.4116 24.0082C87.1934 28.541 96.4366 39.4219 99.4433 57.1478C103.347 80.167 106.359 74.2398 106.359 74.2398" stroke="#138C80" stroke-width="1.72391" stroke-linecap="round" stroke-linejoin="round"/>
<path d="M28.6471 92.8724C38.3822 91.3716 46.3324 83.5886 50.1706 74.817C52.1379 70.3298 53.2635 65.4927 55.4286 61.0916C56.4223 59.0736 57.6494 57.1571 59.3581 55.6613C60.869 54.338 63.5563 53.111 65.2853 54.7487C66.7658 56.1481 66.8875 58.6477 66.5072 60.5238C66.0103 62.9778 64.5095 65.0465 62.7552 66.7704C59.1654 70.2892 54.2472 72.7939 52.6145 77.8693C51.2253 82.1791 51.9148 86.8996 52.1734 91.326C52.2748 93.0144 52.361 94.8295 52.0467 96.3963C51.8438 97.3951 51.5802 98.3838 51.2151 99.3371C51.1695 99.4587 51.1239 99.5754 51.0732 99.697C50.9667 99.9556 51.134 99.5602 51.063 99.7173C51.0326 99.7832 51.0022 99.8492 50.9718 99.9151C50.8501 100.184 50.7182 100.453 50.5763 100.716C50.2974 101.238 49.983 101.74 49.6332 102.217C49.5977 102.268 49.5571 102.318 49.5166 102.374C49.329 102.623 49.5926 102.278 49.476 102.425C49.3847 102.541 49.2884 102.653 49.1921 102.77C48.969 103.028 48.7408 103.277 48.4974 103.515C47.9853 104.022 47.5493 104.382 47.0473 104.732C43.9595 106.892 40.1162 107.647 36.3895 107.84C35.051 107.911 33.7073 107.906 32.3637 107.855C31.02 107.804 30.9795 109.954 32.3637 110.01C39.6751 110.289 48.4467 109.006 52.3458 101.969C53.5323 99.8238 54.2573 97.2988 54.3841 94.8498C54.6173 90.3524 53.6185 85.8804 54.0799 81.3729C54.2979 79.2434 54.9215 77.195 56.2753 75.5066C58.0347 73.306 60.362 71.6785 62.5017 69.8886C64.6413 68.0988 66.4717 66.2076 67.643 63.7789C68.7331 61.5125 69.1438 58.9063 68.5505 56.4371C67.9573 53.9678 66.1928 52.0259 63.607 51.8332C61.011 51.6406 58.5924 53.2326 56.8888 55.0478C53.4461 58.7137 51.9148 63.7434 50.3075 68.3878C49.476 70.7861 48.6343 73.1894 47.4884 75.4609C46.3426 77.7324 44.8874 79.9482 43.1939 81.9053C40.0401 85.5509 35.9991 88.5525 31.375 90.0178C30.295 90.3626 29.1897 90.6161 28.0691 90.7885C27.4962 90.8747 27.1767 91.5998 27.3187 92.1119C27.486 92.7254 28.0641 92.9535 28.6421 92.8623L28.6471 92.8724Z" fill="#138C80"/>
<path d="M52.767 76.2413C53.6036 74.0763 54.4452 71.9163 55.2818 69.7513C55.9968 67.9108 56.6458 66.0196 57.6345 64.3058C58.2987 63.1599 59.3685 61.5678 60.8339 61.4715C62.6794 61.3498 61.5995 63.9306 61.0874 64.7165C60.6006 65.4618 59.8654 66.339 58.9477 66.5317C58.3393 66.6635 57.6294 66.4049 57.3708 65.7965C57.1477 65.259 56.6559 64.8737 56.0475 65.0461C55.5404 65.183 55.0689 65.832 55.2971 66.3694C56.2908 68.7474 58.9883 69.3761 61.0468 67.8652C62.9583 66.4657 64.7836 63.5148 63.7544 61.1064C62.7251 58.698 59.9313 59.0073 58.2226 60.3104C56.2807 61.7858 55.2311 64.0827 54.3388 66.2781C53.0763 69.3862 51.905 72.5349 50.6932 75.6633C50.4853 76.2058 50.9264 76.8447 51.4436 76.9867C52.0521 77.154 52.5591 76.7788 52.767 76.2362V76.2413Z" fill="#138C80"/>
<path d="M23.6066 97.3849C28.0837 97.6434 32.6976 97.4001 36.9415 95.8333C40.3944 94.5556 43.5836 92.5275 46.0884 89.8199C47.6044 88.1822 48.8618 86.3214 49.81 84.3034C50.0584 83.7761 49.957 83.1423 49.4246 82.828C48.9582 82.5542 48.1976 82.686 47.9492 83.2133C44.8461 89.8504 38.417 94.003 31.2678 95.0272C28.7327 95.3872 26.1519 95.377 23.6066 95.23C22.2224 95.1488 22.2274 97.3037 23.6066 97.3849Z" fill="#138C80"/>
<path d="M33.2842 104.544C39.1455 104.301 44.2564 100.681 47.4304 95.8995C48.2011 94.7435 46.3352 93.6635 45.5696 94.8145C42.8317 98.9366 38.3495 102.182 33.2842 102.39C31.9051 102.445 31.895 104.6 33.2842 104.544Z" fill="#138C80"/>
<path d="M22.9492 83.7565C22.9492 83.7565 36.9687 87.5745 42.2063 75.9584C47.4439 64.3423 47.956 46.2564 64.3839 48.746C78.5656 50.8958 70.4023 73.7883 83.0376 88.0967C90.5366 96.5895 103.522 99.7838 103.522 99.7838" stroke="#138C80" stroke-width="1.72391" stroke-linecap="round" stroke-linejoin="round"/>
<path d="M99.0962 106.867C99.0962 106.867 75.0679 98.881 74.5051 87.9393C73.9423 76.9975 72.7052 69.8078 68.6996 70.5886C64.6941 71.3695 54.8323 78.5592 57.9151 96.2242C60.9978 113.889 36.2344 112.196 36.2344 112.196" stroke="#138C80" stroke-width="1.72391" stroke-linecap="round" stroke-linejoin="round"/>
<path d="M92.5219 112.789C92.5219 112.789 79.2376 112.642 74.5121 102.324C69.7866 92.0062 69.7866 75.3958 66.0903 81.1202C62.394 86.8446 69.5331 103.921 63.1901 110.158C56.8471 116.394 48.8867 118.245 48.8867 118.245" stroke="#138C80" stroke-width="1.72391" stroke-linecap="round" stroke-linejoin="round"/>
<path d="M82.9465 117.53C82.9465 117.53 76.1016 114.929 72.4814 108.977C68.8612 103.029 69.9411 93.9636 68.8612 94.354C67.7812 94.7444 69.0944 103.42 69.5558 108.419C70.0172 113.423 64.1914 120.182 64.1914 120.182" stroke="#138C80" stroke-width="1.72391" stroke-linecap="round" stroke-linejoin="round"/>
<path d="M22.9492 76.0193C22.9492 76.0193 34.1445 79.1375 39.8993 68.1958" stroke="#138C80" stroke-width="1.72391" stroke-linecap="round" stroke-linejoin="round"/>
<path d="M65.2413 121.236C58.0972 121.236 52.023 120.369 47.0135 118.63C42.004 116.896 37.8362 114.665 34.5152 111.937C31.189 109.21 28.5373 106.335 26.5548 103.308C24.5672 100.281 23.1069 97.406 22.1639 94.6781C21.2208 91.9503 20.5008 88.8523 20.0039 85.3792H43.2158C44.1082 88.7509 45.2997 91.5548 46.7853 93.7857C48.2709 96.0167 50.5526 97.9535 53.6303 99.5862C56.7029 101.224 60.8707 102.04 66.1286 102.04C72.573 102.04 77.334 100.676 80.4117 97.9485C83.4843 95.2206 85.0257 91.9756 85.0257 88.2033C85.0257 84.8316 83.8595 82.1544 81.5272 80.1669C79.1948 78.1844 75.6 76.6937 70.7426 75.705L56.0133 72.8758C50.0608 71.7856 44.529 70.0465 39.4232 67.6685C34.3123 65.2906 30.175 61.9898 27.0009 57.7763C23.8269 53.5629 22.2399 48.1326 22.2399 41.4854C22.2399 34.7419 23.9233 28.8654 27.3001 23.8559C30.6719 18.8464 35.4075 14.9778 41.5071 12.2499C47.6067 9.52212 54.7711 8.1582 63.0053 8.1582C70.7426 8.1582 77.1616 9.27367 82.2725 11.5046C87.3783 13.7356 91.4447 16.4634 94.4717 19.6881C97.4987 22.9128 99.7296 26.1578 101.17 29.4333C102.604 32.7087 103.771 36.5266 104.668 40.8922H82.0545C81.3598 38.1187 80.3661 35.832 79.0782 34.0473C77.7903 32.2625 75.8281 30.6755 73.2017 29.2862C70.5702 27.897 66.9753 27.2023 62.4121 27.2023C56.1654 27.2023 51.6478 28.5662 48.8743 31.2941C46.0958 34.0219 44.7065 36.9728 44.7065 40.1468C44.7065 43.4223 46.0958 45.9473 48.8743 47.7371C51.6478 49.5219 55.273 50.8604 59.7349 51.7528L75.3566 54.8761C81.3091 55.9662 86.7597 57.8017 91.7236 60.3825C96.6823 62.9633 100.627 66.406 103.553 70.7209C106.478 75.0357 107.944 80.3697 107.944 86.7177C107.944 93.2635 106.306 99.14 103.035 104.347C99.76 109.554 94.9483 113.672 88.6053 116.699C82.2573 119.725 74.4693 121.236 65.2464 121.236H65.2413Z" fill="#20B2A8" stroke="#20B2A8" stroke-width="0.527313" stroke-miterlimit="10"/>
<mask id="mask0_500_19609" style="mask-type:luminance" maskUnits="userSpaceOnUse" x="20" y="8" width="88" height="114">
<path d="M65.2413 121.236C58.0972 121.236 52.023 120.369 47.0135 118.63C42.004 116.896 37.8362 114.665 34.5152 111.937C31.189 109.209 28.5373 106.334 26.5548 103.307C24.5672 100.28 23.1069 97.4055 22.1639 94.6776C21.2208 91.9498 20.5008 88.8518 20.0039 85.3787H43.2158C44.1082 88.7504 45.2997 91.5543 46.7853 93.7852C48.2709 96.0162 50.5526 97.9531 53.6303 99.5857C56.7029 101.223 60.8707 102.04 66.1286 102.04C72.573 102.04 77.334 100.676 80.4117 97.948C83.4843 95.2202 85.0257 91.9752 85.0257 88.2028C85.0257 84.8311 83.8595 82.1539 81.5272 80.1664C79.1948 78.1839 75.6 76.6932 70.7426 75.7045L56.0133 72.8753C50.0608 71.7851 44.529 70.046 39.4232 67.668C34.3123 65.2901 30.175 61.9893 27.0009 57.7759C23.8269 53.5624 22.2399 48.1321 22.2399 41.4849C22.2399 34.7414 23.9233 28.8649 27.3001 23.8554C30.6719 18.8459 35.4075 14.9773 41.5071 12.2495C47.6067 9.52163 54.7711 8.15771 63.0053 8.15771C70.7426 8.15771 77.1616 9.27318 82.2725 11.5041C87.3783 13.7351 91.4447 16.4629 94.4717 19.6876C97.4987 22.9123 99.7296 26.1573 101.17 29.4328C102.604 32.7082 103.771 36.5261 104.668 40.8917H82.0545C81.3598 38.1182 80.3661 35.8315 79.0782 34.0468C77.7903 32.262 75.8281 30.675 73.2017 29.2857C70.5702 27.8965 66.9753 27.2018 62.4121 27.2018C56.1654 27.2018 51.6478 28.5657 48.8743 31.2936C46.0958 34.0214 44.7065 36.9723 44.7065 40.1464C44.7065 43.4218 46.0958 45.9468 48.8743 47.7366C51.6478 49.5214 55.273 50.8599 59.7349 51.7523L75.3566 54.8756C81.3091 55.9658 86.7597 57.8012 91.7236 60.382C96.6823 62.9628 100.627 66.4055 103.553 70.7204C106.478 75.0352 107.944 80.3692 107.944 86.7172C107.944 93.263 106.306 99.1395 103.035 104.347C99.76 109.554 94.9483 113.671 88.6053 116.698C82.2573 119.725 74.4693 121.236 65.2464 121.236H65.2413Z" fill="white"/>
</mask>
<g mask="url(#mask0_500_19609)">
<path d="M26.9258 31.2489C26.9258 31.2489 36.24 8.77726 67.9548 9.89273C89.5746 10.6533 97.7784 27.147 97.7784 27.147" stroke="#57C5CB" stroke-width="0.263657" stroke-miterlimit="10"/>
<path d="M22.5078 66.645C22.5078 66.645 28.293 73.4848 34.1848 62.4366C40.0765 51.3884 36.076 32.978 61.5391 31.244C86.9972 29.5099 86.262 59.2829 91.6264 72.9575C96.9908 86.6322 105.408 85.0553 105.408 85.0553" stroke="#57C5CB" stroke-width="0.263657" stroke-miterlimit="10"/>
<path d="M22.5078 71.6084C22.5078 71.6084 32.3949 75.7407 38.2866 64.6975C44.1784 53.6493 39.6404 37.4294 62.3504 37.3989C82.5759 37.3736 82.4694 62.7505 87.8338 76.4303C93.1982 90.1049 105.402 90.0187 105.402 90.0187" stroke="#57C5CB" stroke-width="0.263657" stroke-miterlimit="10"/>
<path d="M43.6523 60.753C45.3002 52.5086 46.4917 42.4593 62.3517 42.439C82.5772 42.4136 78.1305 63.4403 83.6267 77.0642C91.0953 95.581 106.981 95.1551 106.981 95.1551" stroke="#57C5CB" stroke-width="0.263657" stroke-miterlimit="10"/>
<path d="M106.352 63.7094C106.352 63.7094 105.232 52.2809 102.479 45.1571C99.7254 38.0333 92.7284 18.467 70.1655 15.9977C52.9821 14.1268 41.2292 19.8613 34.3437 28.8814C26.7483 38.8294 25.0346 51.4443 21.0898 52.1542" stroke="#57C5CB" stroke-width="0.263657" stroke-miterlimit="10"/>
<path d="M21.957 61.6253C21.957 61.6253 26.6116 63.7548 28.9794 60.7582C35.1652 52.9246 33.0965 38.246 44.7583 31.249C74.6883 13.3051 91.5218 41.5062 95.2028 64.0032C98.4833 84.0411 107.939 81.3792 107.939 81.3792" stroke="#57C5CB" stroke-width="0.263657" stroke-miterlimit="10"/>
<path d="M21.5625 56.0226C21.5625 56.0226 23.2205 58.6237 25.6644 55.7082C28.1083 52.7928 30.2429 37.2472 41.7626 27.933C53.2824 18.6239 70.3238 19.567 79.3185 24.1455C88.3132 28.724 97.7795 39.7063 100.857 57.5995C104.853 80.8367 107.94 74.8538 107.94 74.8538" stroke="#57C5CB" stroke-width="0.436047" stroke-miterlimit="10"/>
<path d="M28.1178 92.8276C37.7615 91.3623 45.656 83.8379 49.5602 75.1727C51.6187 70.5993 52.7747 65.6659 55.0107 61.1685C56.0654 59.0542 57.3887 57.0413 59.1887 55.4847C61.1103 53.8267 64.2742 52.5743 66.4494 54.5112C68.2189 56.0881 68.4319 58.9122 68.0212 61.0925C67.5091 63.7797 65.8511 66.0664 63.9193 67.9323C60.365 71.37 55.3099 73.8494 53.7229 78.8639C52.3691 83.1382 53.0891 87.813 53.3477 92.1938C53.4542 93.9684 53.5302 95.7684 53.1702 97.5176C52.9623 98.5266 52.6885 99.5204 52.3083 100.479C51.3601 102.897 49.7325 104.976 47.5827 106.436C44.2718 108.688 40.1547 109.453 36.2303 109.646C34.8816 109.712 33.5278 109.707 32.1791 109.656C31.8952 109.646 31.8952 110.082 32.1791 110.092C39.2775 110.361 47.9681 109.281 51.8418 102.466C52.9978 100.433 53.7178 98.0145 53.8446 95.6771C54.0879 91.1797 53.084 86.7077 53.5201 82.2053C53.7533 79.7969 54.4327 77.5051 55.9741 75.5986C57.7994 73.3373 60.1977 71.6742 62.4235 69.8388C66.1908 66.7306 69.6995 62.2333 68.371 57.0362C67.8437 54.9777 66.3683 53.2537 64.1424 53.0915C61.7036 52.9191 59.4676 54.4402 57.8704 56.1337C54.4885 59.7133 52.9826 64.6721 51.3905 69.2151C50.5032 71.7452 49.5906 74.2753 48.3534 76.6583C47.1163 79.0414 45.5647 81.3129 43.7648 83.341C40.4437 87.0778 36.21 90.0947 31.4186 91.6006C30.3031 91.9504 29.1673 92.209 28.0113 92.3865C27.7324 92.427 27.849 92.8529 28.1279 92.8073L28.1178 92.8276Z" fill="#57C5CB"/>
<path d="M52.1978 76.6436C53.08 74.4025 53.9572 72.1665 54.8394 69.9254C55.5848 68.024 56.2743 66.0669 57.3188 64.3075C58.1808 62.8523 59.6005 61.0524 61.4765 61.098C62.526 61.1233 63.2359 61.889 63.2714 62.9284C63.3069 63.9678 62.8404 64.9413 62.2776 65.7627C61.6286 66.7159 60.7058 67.6843 59.5295 67.9328C58.3532 68.1812 57.334 67.5626 56.8878 66.5131C56.7763 66.2545 56.4011 66.4776 56.5076 66.7362C57.334 68.6832 59.6005 68.7897 61.1368 67.6286C62.6731 66.4675 64.3767 63.8968 63.4742 61.9092C62.6528 60.0991 60.361 60.5555 59.0833 61.5391C57.3087 62.903 56.32 65.063 55.4884 67.081C54.2006 70.2094 53.004 73.3783 51.7617 76.527C51.6603 76.7906 52.0812 76.9022 52.1826 76.6436H52.1978Z" fill="#57C5CB"/>
<path d="M23.1876 97.3507C27.6647 97.6042 32.2483 97.3811 36.5023 95.855C39.9197 94.628 43.0734 92.6404 45.568 89.9937C47.079 88.3915 48.3212 86.5611 49.2643 84.5735C49.386 84.32 49.0057 84.0969 48.884 84.3504C45.5832 91.3069 38.7079 95.6319 31.2089 96.6865C28.552 97.0617 25.8597 97.0668 23.1876 96.9147C22.9037 96.8995 22.9088 97.3355 23.1876 97.3507Z" fill="#57C5CB"/>
<path d="M33.1017 104.58C38.75 104.352 43.7341 100.874 46.827 96.2854C46.9842 96.0522 46.6039 95.8342 46.4468 96.0623C43.4451 100.519 38.5827 103.916 33.1017 104.139C32.8228 104.149 32.8177 104.591 33.1017 104.575V104.58Z" fill="#57C5CB"/>
<path d="M22.5078 84.462C22.5078 84.462 36.867 88.3154 42.2314 76.5877C47.5957 64.8601 48.1231 46.607 64.9464 49.1168C79.4728 51.2869 71.1119 74.3974 84.0513 88.8427C91.7329 97.4166 105.032 100.641 105.032 100.641" stroke="#57C5CB" stroke-width="0.263657" stroke-miterlimit="10"/>
<path d="M100.507 107.795C100.507 107.795 75.9005 99.7335 75.3225 88.6903C74.7445 77.6421 73.4819 70.3865 69.3801 71.1724C65.2782 71.9583 55.1781 79.219 58.3318 97.0513C61.4856 114.884 36.1289 113.175 36.1289 113.175" stroke="#57C5CB" stroke-width="0.263657" stroke-miterlimit="10"/>
<path d="M93.7691 113.768C93.7691 113.768 80.1603 113.621 75.3233 103.207C70.4862 92.7922 70.4862 76.0196 66.6986 81.8049C62.9111 87.5901 70.2225 104.824 63.7274 111.116C57.2324 117.409 49.0742 119.28 49.0742 119.28" stroke="#57C5CB" stroke-width="0.263657" stroke-miterlimit="10"/>
<path d="M83.9642 118.555C83.9642 118.555 76.9519 115.928 73.2455 109.92C69.5391 103.912 70.6394 94.7647 69.5391 95.1552C68.4389 95.5456 69.7774 104.307 70.249 109.357C70.7205 114.407 64.7578 121.232 64.7578 121.232" stroke="#57C5CB" stroke-width="0.263657" stroke-miterlimit="10"/>
</g>
</g>
<defs>
<clipPath id="clip0_500_19609">
<rect width="88.619" height="113.606" fill="white" transform="translate(19.7031 7.89404)"/>
</clipPath>
</defs>
</svg>
