<svg width="32" height="32" viewBox="0 0 32 32" fill="none" xmlns="http://www.w3.org/2000/svg">
<path d="M13.3835 7.08888L14.2488 8.63945C15.0297 10.0388 14.7163 11.8744 13.4863 13.1044C13.4863 13.1044 13.4863 13.1044 13.4863 13.1044C13.4862 13.1045 11.9945 14.5964 14.6994 17.3013C17.4036 20.0055 18.8955 18.5152 18.8963 18.5144C18.8963 18.5143 18.8963 18.5144 18.8963 18.5143C20.1263 17.2844 21.9619 16.9709 23.3612 17.7518L24.9118 18.6172C27.0248 19.7964 27.2743 22.7596 25.417 24.6169C24.301 25.7329 22.9339 26.6013 21.4226 26.6586C18.8784 26.755 14.5577 26.1111 10.2236 21.777C5.88951 17.4429 5.24563 13.1223 5.34208 10.5781C5.39937 9.06678 6.26775 7.69963 7.38375 6.58363C9.24102 4.72636 12.2042 4.9759 13.3835 7.08888Z" fill="white"/>
</svg>
