<svg width="32" height="33" viewBox="0 0 32 33" fill="none" xmlns="http://www.w3.org/2000/svg">
<rect x="0.5" y="0.93689" width="31" height="31" rx="15.5" stroke="#EDF2F2"/>
<path fill-rule="evenodd" clip-rule="evenodd" d="M8 16.4369C8 13.2412 8 11.6434 8.7615 10.4925C9.10155 9.97857 9.54168 9.53844 10.0556 9.19839C11.2065 8.43689 12.8043 8.43689 16 8.43689C19.1957 8.43689 20.7935 8.43689 21.9444 9.19839C22.4583 9.53844 22.8984 9.97857 23.2385 10.4925C24 11.6434 24 13.2412 24 16.4369C24 19.6326 24 21.2304 23.2385 22.3813C22.8984 22.8952 22.4583 23.3353 21.9444 23.6754C20.7935 24.4369 19.1957 24.4369 16 24.4369C12.8043 24.4369 11.2065 24.4369 10.0556 23.6754C9.54168 23.3353 9.10155 22.8952 8.7615 22.3813C8 21.2304 8 19.6326 8 16.4369ZM20.141 16.4369C20.141 18.7243 18.2867 20.5786 15.9993 20.5786C13.7119 20.5786 11.8576 18.7243 11.8576 16.4369C11.8576 14.1495 13.7119 12.2952 15.9993 12.2952C18.2867 12.2952 20.141 14.1495 20.141 16.4369ZM15.9993 19.1774C17.5128 19.1774 18.7398 17.9504 18.7398 16.4369C18.7398 14.9234 17.5128 13.6965 15.9993 13.6965C14.4858 13.6965 13.2589 14.9234 13.2589 16.4369C13.2589 17.9504 14.4858 19.1774 15.9993 19.1774ZM20.3046 13.0603C20.8421 13.0603 21.2778 12.6246 21.2778 12.0871C21.2778 11.5497 20.8421 11.114 20.3046 11.114C19.7671 11.114 19.3314 11.5497 19.3314 12.0871C19.3314 12.6246 19.7671 13.0603 20.3046 13.0603Z" fill="#3A4040"/>
</svg>
