<svg width="32" height="33" viewBox="0 0 32 33" fill="none" xmlns="http://www.w3.org/2000/svg">
<rect x="0.5" y="0.93689" width="31" height="31" rx="15.5" stroke="#EDF2F2"/>
<path d="M18.6907 9.94929V9.94641H19.4409L19.7151 10.0012C19.8978 10.0367 20.0637 10.0833 20.2128 10.1409C20.3619 10.1985 20.5062 10.2658 20.6456 10.3426C20.7851 10.4195 20.9116 10.4977 21.0251 10.5775C21.1376 10.6562 21.2386 10.7398 21.3281 10.8281C21.4165 10.9175 21.5546 10.9405 21.7421 10.8973C21.9297 10.8541 22.1316 10.794 22.3481 10.7172C22.5645 10.6404 22.7785 10.5539 22.9901 10.4579C23.2017 10.3618 23.3306 10.3008 23.3768 10.2749C23.422 10.248 23.446 10.2336 23.4489 10.2317L23.4518 10.2274L23.4662 10.2202L23.4806 10.2129L23.495 10.2057L23.5095 10.1985L23.5124 10.1942L23.5167 10.1913L23.521 10.1885L23.5239 10.1841L23.5383 10.1798L23.5528 10.1769L23.5499 10.1985L23.5455 10.2202L23.5383 10.2418L23.5311 10.2634L23.5239 10.2778L23.5167 10.2922L23.5095 10.3138C23.5047 10.3282 23.4999 10.3474 23.495 10.3714C23.4902 10.3954 23.4445 10.4915 23.358 10.6596C23.2714 10.8277 23.1632 10.9982 23.0334 11.171C22.9035 11.3439 22.7871 11.4746 22.6842 11.5629C22.5804 11.6523 22.5116 11.7147 22.4779 11.7502C22.4442 11.7867 22.4034 11.8203 22.3553 11.8511L22.2831 11.8986L22.2687 11.9058L22.2543 11.913L22.2514 11.9174L22.2471 11.9202L22.2427 11.9231L22.2399 11.9274L22.2254 11.9346L22.211 11.9418L22.2081 11.9462L22.2038 11.9491L22.1995 11.9519L22.1966 11.9563L22.1937 11.9606L22.1894 11.9635L22.185 11.9663L22.1821 11.9707H22.2543L22.6583 11.8842C22.9276 11.8266 23.1849 11.757 23.4301 11.6753L23.8197 11.5456L23.8629 11.5312L23.8846 11.524L23.899 11.5168L23.9134 11.5096L23.9279 11.5024L23.9423 11.4952L23.9711 11.4909L24 11.488V11.5168L23.9928 11.5197L23.9856 11.524L23.9827 11.5284L23.9784 11.5312L23.974 11.5341L23.9711 11.5384L23.9683 11.5428L23.9639 11.5456L23.9596 11.5485L23.9567 11.5528L23.9538 11.5572L23.9495 11.56L23.9423 11.5745L23.9351 11.5889L23.9307 11.5917C23.9288 11.5946 23.8678 11.6763 23.7475 11.8367C23.6273 11.998 23.5624 12.0797 23.5528 12.0816C23.5431 12.0845 23.5297 12.0989 23.5124 12.1248C23.496 12.1517 23.394 12.2588 23.2065 12.4461C23.0189 12.6334 22.8352 12.8 22.6554 12.946C22.4746 13.093 22.3832 13.2736 22.3813 13.4878C22.3784 13.701 22.3673 13.9421 22.3481 14.211C22.3288 14.48 22.2928 14.7705 22.2399 15.0827C22.187 15.3948 22.1052 15.7478 21.9946 16.1416C21.884 16.5354 21.7493 16.9196 21.5906 17.2942C21.4319 17.6688 21.266 18.005 21.0929 18.3027C20.9197 18.6005 20.761 18.8526 20.6168 19.0591C20.4725 19.2656 20.3258 19.4601 20.1767 19.6426C20.0277 19.8251 19.8391 20.0307 19.6112 20.2593C19.3823 20.4869 19.2572 20.6118 19.2361 20.6339C19.214 20.655 19.1197 20.7338 18.9533 20.8702C18.7879 21.0075 18.6099 21.1449 18.4195 21.2822C18.23 21.4186 18.0559 21.5324 17.8972 21.6237C17.7385 21.7149 17.5471 21.8191 17.323 21.9363C17.0999 22.0545 16.8584 22.1639 16.5987 22.2648C16.339 22.3657 16.0649 22.4593 15.7764 22.5457C15.4878 22.6322 15.2089 22.6994 14.9396 22.7475C14.6703 22.7955 14.3649 22.8363 14.0234 22.8699L13.5113 22.9203V22.9275H12.5735V22.9203L12.4509 22.9131C12.3691 22.9083 12.3018 22.9035 12.2489 22.8987C12.196 22.8939 11.9964 22.8675 11.6501 22.8195C11.3039 22.7715 11.0322 22.7234 10.835 22.6754C10.6378 22.6274 10.3445 22.5361 9.95491 22.4017C9.56537 22.2672 9.2321 22.1313 8.95509 21.9939C8.67905 21.8575 8.50593 21.7711 8.43571 21.7346C8.36646 21.6991 8.28855 21.6549 8.20198 21.6021L8.07214 21.5228L8.06927 21.5185L8.06492 21.5156L8.0606 21.5127L8.05771 21.5084L8.04328 21.5012L8.02885 21.494L8.02598 21.4897L8.02164 21.4868L8.01731 21.4839L8.01443 21.4796L8.01156 21.4753L8.00721 21.4724H8V21.4436L8.01443 21.4465L8.02885 21.4508L8.09378 21.458C8.13706 21.4628 8.25489 21.47 8.44725 21.4796C8.63962 21.4892 8.844 21.4892 9.06041 21.4796C9.27683 21.47 9.49806 21.4484 9.72408 21.4148C9.95011 21.3811 10.217 21.3235 10.5248 21.2419C10.8326 21.1602 11.1154 21.0632 11.3731 20.9508C11.63 20.8375 11.8127 20.753 11.9214 20.6973C12.0291 20.6425 12.1936 20.5407 12.4148 20.3918L12.7466 20.1685L12.7495 20.1642L12.7538 20.1613L12.7582 20.1584L12.761 20.1541L12.7639 20.1498L12.7683 20.1469L12.7726 20.144L12.7755 20.1397L12.7899 20.1354L12.8043 20.1325L12.8072 20.1181L12.8115 20.1037L12.8159 20.1008L12.8188 20.0965L12.7033 20.0893C12.6264 20.0845 12.5518 20.0797 12.4797 20.0749C12.4076 20.0701 12.2946 20.0485 12.1407 20.01C11.9868 19.9716 11.8209 19.914 11.6429 19.8371C11.465 19.7603 11.2919 19.6691 11.1235 19.5634C10.9552 19.4578 10.8335 19.3699 10.7585 19.2997C10.6845 19.2306 10.5883 19.1326 10.47 19.0058C10.3526 18.8781 10.2507 18.747 10.1641 18.6125C10.0775 18.478 9.99483 18.3229 9.91597 18.1471L9.79621 17.8849L9.789 17.8633L9.78179 17.8417L9.77746 17.8273L9.77457 17.8129L9.79621 17.8158L9.81785 17.8201L9.97656 17.8417C10.0824 17.8561 10.2483 17.8609 10.4743 17.8561C10.7003 17.8513 10.8566 17.8417 10.9432 17.8273C11.0298 17.8129 11.0827 17.8033 11.1019 17.7985L11.1307 17.7913L11.1668 17.7841L11.2029 17.7769L11.2058 17.7726L11.2101 17.7697L11.2144 17.7668L11.2173 17.7625L11.1885 17.7553L11.1596 17.7481L11.1307 17.7409L11.1019 17.7337L11.073 17.7264C11.0538 17.7216 11.0201 17.712 10.972 17.6976C10.924 17.6832 10.7941 17.6304 10.5825 17.5392C10.3709 17.4479 10.2026 17.3591 10.0775 17.2726C9.9522 17.1859 9.83267 17.0911 9.71975 16.9888C9.60721 16.8851 9.48363 16.7515 9.34896 16.5883C9.21431 16.425 9.09409 16.2353 8.98828 16.0192C8.88248 15.803 8.80313 15.5965 8.75023 15.3996C8.69753 15.2039 8.66277 15.0038 8.64636 14.8017L8.62038 14.4992L8.63481 14.5021L8.64923 14.5064L8.66366 14.5136L8.67809 14.5208L8.69252 14.528L8.70694 14.5352L8.93057 14.636C9.07966 14.7033 9.26481 14.7609 9.48602 14.8089C9.70725 14.857 9.8395 14.8834 9.88278 14.8882L9.9477 14.8954H10.0775L10.0747 14.8911L10.0703 14.8882L10.066 14.8853L10.0631 14.881L10.0602 14.8766L10.0559 14.8738L10.0516 14.8709L10.0487 14.8666L10.0343 14.8594L10.0198 14.8522L10.017 14.8478L10.0126 14.845L10.0083 14.8421L10.0054 14.8377L9.99098 14.8305L9.97656 14.8233L9.97368 14.819C9.9708 14.8171 9.92944 14.7864 9.84959 14.7268C9.77072 14.6663 9.68801 14.588 9.60144 14.492C9.51488 14.3959 9.42831 14.2951 9.34175 14.1894C9.25503 14.0835 9.17778 13.9702 9.11091 13.8508C9.04359 13.7308 8.97241 13.578 8.89739 13.3927C8.82333 13.2083 8.76706 13.0224 8.72858 12.8351C8.69012 12.6478 8.66848 12.4629 8.66366 12.2804C8.65886 12.0979 8.66366 11.9418 8.67809 11.8122C8.69252 11.6825 8.72137 11.536 8.76465 11.3728C8.80794 11.2095 8.87046 11.0366 8.95221 10.8541L9.07484 10.5803L9.08206 10.5587L9.08927 10.5371L9.09361 10.5342L9.09648 10.5299L9.09937 10.5256L9.1037 10.5227L9.10804 10.5256L9.11091 10.5299L9.1138 10.5342L9.11812 10.5371L9.12247 10.54L9.12534 10.5443L9.12822 10.5486L9.13255 10.5515L9.13977 10.5659L9.14698 10.5803L9.15132 10.5832L9.15419 10.5875L9.34896 10.8037C9.47881 10.9477 9.63271 11.1086 9.81064 11.2863C9.98859 11.464 10.0872 11.5562 10.1064 11.5629C10.1256 11.5706 10.1497 11.5927 10.1785 11.6292C10.2074 11.6647 10.3036 11.7498 10.4671 11.8842C10.6306 12.0187 10.8446 12.1748 11.1091 12.3525C11.3736 12.5301 11.667 12.7054 11.9892 12.8783C12.3114 13.0512 12.6577 13.2073 13.028 13.3466C13.3983 13.4859 13.658 13.5771 13.807 13.6203C13.9561 13.6635 14.211 13.7188 14.5717 13.786C14.9324 13.8532 15.2041 13.8965 15.3868 13.9157C15.5696 13.9349 15.6946 13.9459 15.7619 13.9488L15.8629 13.9517L15.8601 13.9301L15.8557 13.9085L15.8269 13.7284C15.8076 13.6083 15.798 13.4402 15.798 13.2241C15.798 13.008 15.8149 12.8087 15.8485 12.6262C15.8822 12.4437 15.9327 12.2588 16 12.0715C16.0673 11.8842 16.1332 11.7339 16.1977 11.6206C16.2631 11.5082 16.3487 11.38 16.4545 11.2359C16.5603 11.0918 16.6973 10.9429 16.8656 10.7892C17.034 10.6356 17.2263 10.4987 17.4427 10.3786C17.6592 10.2586 17.8587 10.1673 18.0415 10.1049C18.2242 10.0425 18.3781 10.0016 18.5032 9.98243C18.6282 9.96322 18.6907 9.95217 18.6907 9.94929Z" fill="#3A4040"/>
</svg>
