<svg width="32" height="33" viewBox="0 0 32 33" fill="none" xmlns="http://www.w3.org/2000/svg">
<rect x="0.5" y="0.93689" width="31" height="31" rx="15.5" stroke="#EDF2F2"/>
<path d="M16.3891 22.6413L12.7783 22.5738C11.6092 22.5503 10.4372 22.5972 9.29098 22.3536C7.54737 21.9896 7.42385 20.2048 7.29459 18.7077C7.11649 16.6029 7.18544 14.46 7.52154 12.3728C7.71128 11.2017 8.45797 10.5028 9.61271 10.4268C13.5108 10.1508 17.4348 10.1835 21.3243 10.3123C21.735 10.3241 22.1486 10.3886 22.5537 10.462C24.5531 10.8202 24.6018 12.8428 24.7314 14.5454C24.8607 16.2656 24.8061 17.9946 24.5591 19.7031C24.3609 21.1177 23.9816 22.3039 22.3813 22.4184C20.3762 22.5682 18.4171 22.6888 16.4063 22.6504C16.4064 22.6413 16.3949 22.6413 16.3891 22.6413ZM14.2663 19.06C15.7773 18.1734 17.2595 17.3016 18.7619 16.4209C17.2481 15.5343 15.7687 14.6625 14.2663 13.7819V19.06Z" fill="#3A4040"/>
</svg>
