<svg width="40" height="40" viewBox="0 0 40 40" fill="none" xmlns="http://www.w3.org/2000/svg">
<mask id="mask0_227_7514" style="mask-type:alpha" maskUnits="userSpaceOnUse" x="-1" y="0" width="41" height="40">
<rect x="-0.00390625" width="40" height="40" fill="#D9D9D9"/>
</mask>
<g mask="url(#mask0_227_7514)">
<path d="M18.9491 19.705L16.198 22.4476C15.9998 22.6556 15.7586 22.7596 15.4744 22.7596C15.1903 22.7596 14.9454 22.6563 14.7397 22.4497C14.5353 22.2489 14.4339 22.0003 14.4357 21.704C14.4375 21.4077 14.5388 21.1592 14.7397 20.9583L19.0826 16.5983C19.3439 16.3383 19.6487 16.2084 19.997 16.2084C20.3454 16.2084 20.6495 16.3383 20.9095 16.5983L25.2696 20.9583C25.4704 21.1592 25.5749 21.4029 25.5831 21.6895C25.5913 21.9761 25.4868 22.2206 25.2696 22.4231C25.0687 22.6303 24.8218 22.7309 24.5288 22.7249C24.2359 22.7188 23.9856 22.6153 23.7781 22.4145L21.043 19.705V29.8931C21.043 30.0213 21.0964 30.1389 21.2033 30.2457C21.3101 30.3526 21.4277 30.406 21.5559 30.406H31.0495C32.2574 30.406 33.2849 29.982 34.1317 29.1339C34.9786 28.2859 35.4021 27.2603 35.4021 26.057C35.4021 24.8537 34.9786 23.8287 34.1317 22.9818C33.2849 22.135 32.2562 21.7115 31.0457 21.7115H28.4875V18.2884C28.4875 15.9072 27.6618 13.8657 26.0105 12.1639C24.3591 10.462 22.3411 9.61111 19.9565 9.61111C17.5719 9.61111 15.5493 10.462 13.8887 12.1639C12.2281 13.8657 11.3978 15.9072 11.3978 18.2884H10.5495C8.91769 18.2884 7.51651 18.8757 6.34593 20.0502C5.17534 21.2247 4.59005 22.6605 4.59005 24.3577C4.59005 26.0179 5.17932 27.4409 6.35784 28.6269C7.53637 29.813 8.95922 30.406 10.6264 30.406H14.5581C14.8547 30.406 15.1033 30.5069 15.304 30.7086C15.5047 30.9104 15.605 31.1603 15.605 31.4586C15.605 31.7568 15.5047 32.0049 15.304 32.2029C15.1033 32.4009 14.8547 32.4999 14.5581 32.4999H10.6264C8.38708 32.4999 6.47221 31.7084 4.88176 30.1254C3.29132 28.5423 2.49609 26.6287 2.49609 24.3846C2.49609 22.3212 3.17826 20.5123 4.54259 18.9578C5.9069 17.4033 7.59012 16.5128 9.59226 16.2864C10.0552 13.7308 11.2666 11.6304 13.2263 9.98511C15.1861 8.3398 17.4576 7.51715 20.0409 7.51715C23.0061 7.51715 25.5041 8.56824 27.5351 10.6704C29.566 12.7726 30.5815 15.3119 30.5815 18.2884V19.6176H31.0943C32.892 19.619 34.4084 20.2369 35.6434 21.4712C36.8785 22.7055 37.496 24.2329 37.496 26.0534C37.496 27.8297 36.871 29.3482 35.621 30.6089C34.371 31.8696 32.8578 32.4999 31.0815 32.4999H21.5559C20.8396 32.4999 20.226 32.2446 19.7152 31.7338C19.2045 31.223 18.9491 30.6094 18.9491 29.8931V19.705Z" fill="#3BBDBA"/>
</g>
</svg>
