<svg width="48" height="48" viewBox="0 0 48 48" fill="none" xmlns="http://www.w3.org/2000/svg">
<path d="M22.2919 14.045C23.0519 12.6817 23.4319 12 24 12C24.5681 12 24.9481 12.6817 25.7081 14.045L25.9047 14.3977C26.1207 14.7852 26.2287 14.9789 26.397 15.1067C26.5654 15.2345 26.7751 15.2819 27.1945 15.3768L27.5763 15.4632C29.0521 15.7971 29.79 15.9641 29.9655 16.5286C30.1411 17.0932 29.6381 17.6814 28.6319 18.858L28.3716 19.1623C28.0857 19.4967 27.9428 19.6638 27.8785 19.8706C27.8142 20.0774 27.8358 20.3005 27.879 20.7465L27.9184 21.1526C28.0705 22.7224 28.1465 23.5072 27.6869 23.8561C27.2273 24.205 26.5364 23.8869 25.1546 23.2507L24.7971 23.0861C24.4044 22.9053 24.2081 22.8149 24 22.8149C23.7919 22.8149 23.5956 22.9053 23.2029 23.0861L22.8454 23.2507C21.4636 23.8869 20.7727 24.205 20.3131 23.8561C19.8535 23.5072 19.9295 22.7224 20.0816 21.1526L20.121 20.7465C20.1642 20.3005 20.1858 20.0774 20.1215 19.8706C20.0572 19.6638 19.9143 19.4967 19.6284 19.1623L19.3681 18.858C18.3619 17.6814 17.8589 17.0932 18.0345 16.5286C18.21 15.9641 18.9479 15.7971 20.4237 15.4632L20.8055 15.3768C21.2249 15.2819 21.4346 15.2345 21.603 15.1067C21.7713 14.9789 21.8793 14.7852 22.0953 14.3977L22.2919 14.045Z" stroke="#3BBDBA" stroke-width="2"/>
<path d="M38 18C38 25.732 31.732 32 24 32C16.268 32 10 25.732 10 18C10 10.268 16.268 4 24 4C31.732 4 38 10.268 38 18Z" stroke="#3BBDBA" stroke-width="2"/>
<path d="M24 32.1357L16.4571 39.9456C15.3769 41.0641 14.8367 41.6234 14.3793 41.8169C13.337 42.2579 12.1808 41.8805 11.6326 40.9203C11.3919 40.499 11.317 39.7389 11.167 38.2189C11.0823 37.3607 11.04 36.9316 10.9115 36.5722C10.6238 35.7676 10.0193 35.1417 9.24221 34.8438C8.89509 34.7107 8.48065 34.6669 7.65178 34.5792C6.18374 34.424 5.44972 34.3463 5.04276 34.0972C4.11544 33.5295 3.75095 32.3324 4.17686 31.2532C4.36376 30.7796 4.90388 30.2203 5.98411 29.1019L10.9115 24" stroke="#3BBDBA" stroke-width="2"/>
<path d="M24 32.1357L31.5429 39.9456C32.6231 41.0641 33.1633 41.6234 33.6207 41.8169C34.663 42.2579 35.8192 41.8805 36.3674 40.9203C36.6081 40.499 36.683 39.7389 36.833 38.2189C36.9177 37.3607 36.96 36.9316 37.0885 36.5722C37.3762 35.7676 37.9807 35.1417 38.7578 34.8438C39.1049 34.7107 39.5193 34.6669 40.3482 34.5792C41.8163 34.424 42.5503 34.3463 42.9572 34.0972C43.8846 33.5295 44.249 32.3324 43.8231 31.2532C43.6362 30.7796 43.0961 30.2203 42.0159 29.1019L37.0885 24" stroke="#3BBDBA" stroke-width="2"/>
</svg>
