<svg width="48" height="48" viewBox="0 0 48 48" fill="none" xmlns="http://www.w3.org/2000/svg">
<path d="M44 10.7304L45 10.7304V10.7304H44ZM18.9091 26.6057L19.6147 25.8971L18.9091 26.6057ZM18.9091 17.0875L19.6147 17.7961L18.9091 17.0875ZM30.8571 28.9853L30.1515 28.2767L30.8571 28.9853ZM21.2987 28.9853L20.5931 29.6939L21.2987 28.9853ZM41.0306 18.8547L41.7362 19.5633L41.0306 18.8547ZM44 11.716L43 11.716V11.716H44ZM29.0825 6.95692L28.3769 6.24833L29.0825 6.95692ZM24.3939 24.9348C24.7852 24.5451 24.7866 23.9119 24.3969 23.5206C24.0072 23.1292 23.374 23.1279 22.9827 23.5176L24.3939 24.9348ZM15.4178 20.5641L16.1245 19.8565L16.1234 19.8555L15.4178 20.5641ZM23.1458 13.1678C23.6103 13.4665 24.229 13.332 24.5277 12.8674C24.8263 12.4028 24.6918 11.7841 24.2272 11.4855L23.1458 13.1678ZM22.5917 11.6229L22.0509 12.464L22.0509 12.464L22.5917 11.6229ZM18.1206 9.33144L18.2666 8.34216L18.1206 9.33144ZM9.59202 14.4676L10.2976 15.1762H10.2976L9.59202 14.4676ZM15.0108 9.72838L15.3936 10.6522L15.0108 9.72838ZM10.7021 16.9055L11.0701 15.9757L11.0701 15.9757L10.7021 16.9055ZM10.9165 16.9912L10.536 17.9159L10.9165 16.9912ZM13.7461 18.8994L14.4518 18.1908L13.7461 18.8994ZM13.5822 18.7373L12.8863 19.4554L13.5822 18.7373ZM10.0433 16.6447L9.67529 17.5746L9.67529 17.5746L10.0433 16.6447ZM27.4701 32.6749L26.7634 33.3824C26.7789 33.3978 26.7949 33.4128 26.8113 33.4272L27.4701 32.6749ZM36.4772 23.684C36.1768 23.2205 35.5576 23.0884 35.0942 23.3888C34.6307 23.6893 34.4986 24.3085 34.799 24.7719L36.4772 23.684ZM36.3449 25.3182L35.5058 25.8621L35.5058 25.8621L36.3449 25.3182ZM38.646 29.7704L39.6351 29.6232L38.646 29.7704ZM33.4881 38.2631L34.1937 38.9717L34.1937 38.9716L33.4881 38.2631ZM38.2474 32.8671L39.1701 33.2527L38.2474 32.8671ZM31.3834 38.0182L32.3122 37.6475L31.3834 38.0182ZM30.5583 36.1207L29.6818 36.602L30.5583 36.1207ZM28.3799 33.4716L29.0855 32.763L29.0628 32.7404L29.0387 32.7193L28.3799 33.4716ZM29.8031 34.9774L30.5898 34.3601L29.8031 34.9774ZM33.3419 38.4087L32.6363 37.7001L32.6363 37.7001L33.3419 38.4087ZM26.9808 32.1862L26.6355 31.2477L26.9808 32.1862ZM15.7245 20.8703L16.6521 21.2438L15.7245 20.8703ZM11.8031 26.4805C12.1938 26.0903 12.1942 25.4571 11.8039 25.0663C11.4137 24.6756 10.7805 24.6752 10.3897 25.0655L11.8031 26.4805ZM7.71293 29.1524L7.00625 28.4448L7.71293 29.1524ZM4.63704 26.0802L3.93036 25.3727H3.93036L4.63704 26.0802ZM5.6513 26.4805C6.04206 26.0903 6.04245 25.4571 5.65216 25.0663C5.26188 24.6756 4.62871 24.6752 4.23795 25.0655L5.6513 26.4805ZM22.8581 37.6198C23.2488 37.2295 23.2492 36.5963 22.8589 36.2055C22.4686 35.8148 21.8355 35.8144 21.4447 36.2047L22.8581 37.6198ZM18.7679 40.2916L19.4746 40.9991V40.9991L18.7679 40.2916ZM21.8438 43.3637L22.5505 44.0713V44.0713L21.8438 43.3637ZM22.8581 43.7641C23.2488 43.3738 23.2492 42.7406 22.8589 42.3498C22.4686 41.9591 21.8355 41.9587 21.4447 42.349L22.8581 43.7641ZM20.912 34.018C21.3025 33.6274 21.3025 32.9943 20.912 32.6037C20.5214 32.2132 19.8883 32.2132 19.4978 32.6037L20.912 34.018ZM15.2929 36.8086C14.9024 37.1991 14.9024 37.8323 15.2929 38.2228C15.6834 38.6133 16.3166 38.6133 16.7071 38.2228L15.2929 36.8086ZM15.3605 28.4733C15.7511 28.0828 15.7511 27.4496 15.3605 27.0591C14.97 26.6686 14.3369 26.6686 13.9463 27.0591L15.3605 28.4733ZM9.71252 31.2929C9.322 31.6834 9.322 32.3166 9.71252 32.7071C10.103 33.0976 10.7362 33.0976 11.1267 32.7071L9.71252 31.2929ZM14.5712 34.8056C14.9661 34.4195 14.9731 33.7863 14.587 33.3915C14.2008 32.9966 13.5677 32.9896 13.1729 33.3757L14.5712 34.8056ZM9.75372 36.7196C9.35887 37.1058 9.35182 37.7389 9.73798 38.1338C10.1241 38.5286 10.7573 38.5356 11.1521 38.1495L9.75372 36.7196ZM40.325 18.1461L30.1515 28.2767L31.5627 29.6939L41.7362 19.5633L40.325 18.1461ZM22.0043 28.2767L19.6147 25.8971L18.2034 27.3143L20.5931 29.6939L22.0043 28.2767ZM19.6147 17.7961L29.7881 7.66552L28.3769 6.24833L18.2034 16.3789L19.6147 17.7961ZM36.2513 5H37.2412V3H36.2513V5ZM43 10.7304L43 11.716L45 11.716L45 10.7304L43 10.7304ZM37.2412 5C38.8624 5 39.9781 5.00211 40.8166 5.11436C41.6267 5.22282 42.0266 5.41744 42.3046 5.69424L43.7158 4.27704C43.004 3.5682 42.1124 3.27 41.082 3.13205C40.0799 2.99789 38.8061 3 37.2412 3V5ZM45 10.7304C45 9.1724 45.0021 7.9029 44.8673 6.90405C44.7285 5.876 44.4282 4.98646 43.7158 4.27704L42.3046 5.69424C42.582 5.97046 42.7766 6.36693 42.8853 7.17165C42.9979 8.00558 43 9.11563 43 10.7304H45ZM19.6147 25.8971C18.4681 24.7554 17.6811 23.9687 17.1683 23.2994C16.673 22.653 16.5296 22.2357 16.5296 21.8466H14.5296C14.5296 22.8514 14.9495 23.692 15.5807 24.5158C16.1944 25.3167 17.097 26.2126 18.2034 27.3143L19.6147 25.8971ZM20.5931 29.6939C21.6995 30.7957 22.5991 31.6944 23.4032 32.3054C24.2306 32.934 25.0727 33.3505 26.0779 33.3505V31.3505C25.6833 31.3505 25.2622 31.206 24.6132 30.7129C23.9409 30.2021 23.1508 29.4183 22.0043 28.2767L20.5931 29.6939ZM41.7362 19.5633C43.1433 18.1621 44.0572 17.2771 44.5374 16.1227L42.6908 15.3545C42.3993 16.0554 41.8481 16.6293 40.325 18.1461L41.7362 19.5633ZM43 11.716C43 13.8612 42.9822 14.6541 42.6908 15.3545L44.5374 16.1227C45.0178 14.9678 45 13.6974 45 11.716H43ZM29.7881 7.66552C31.3108 6.14923 31.8877 5.59962 32.5931 5.30869L31.8305 3.45979C30.6727 3.93734 29.7844 4.8467 28.3769 6.24833L29.7881 7.66552ZM36.2513 3C34.2607 3 32.9878 2.98243 31.8305 3.45979L32.5931 5.30869C33.2988 5.01758 34.098 5 36.2513 5V3ZM20.8095 28.5041L24.3939 24.9348L22.9827 23.5176L19.3982 27.0869L20.8095 28.5041ZM24.2272 11.4855L23.1324 10.7817L22.0509 12.464L23.1458 13.1678L24.2272 11.4855ZM23.1324 10.7817C22.0472 10.0841 21.186 9.52961 20.4477 9.13229C19.6969 8.72819 19.0131 8.45235 18.2666 8.34216L17.9745 10.3207C18.4048 10.3842 18.8584 10.5482 19.4999 10.8934C20.1539 11.2454 20.9399 11.7498 22.0509 12.464L23.1324 10.7817ZM10.2976 15.1762C11.2761 14.2018 12.332 13.1507 13.2823 12.2848C13.7572 11.8522 14.1938 11.4767 14.5717 11.1858C14.9651 10.8829 15.2378 10.7168 15.3936 10.6522L14.628 8.80457C14.219 8.97402 13.7757 9.27465 13.3517 9.60101C12.9123 9.93928 12.4303 10.3555 11.9353 10.8065C10.9459 11.708 9.85709 12.7924 8.88641 13.759L10.2976 15.1762ZM18.2666 8.34216C17.0447 8.16181 15.7862 8.32456 14.628 8.80457L15.3936 10.6522C16.2274 10.3067 17.1209 10.1947 17.9745 10.3207L18.2666 8.34216ZM9.67529 17.5746L10.3341 17.8353L11.0701 15.9757L10.4113 15.7149L9.67529 17.5746ZM13.0405 19.608L14.7122 21.2727L16.1234 19.8555L14.4518 18.1908L13.0405 19.608ZM10.3341 17.8353C10.4441 17.8788 10.4907 17.8973 10.536 17.9159L11.2971 16.0664C11.2364 16.0414 11.1753 16.0173 11.0701 15.9757L10.3341 17.8353ZM14.4518 18.1908C14.3717 18.1111 14.3252 18.0648 14.2782 18.0192L12.8863 19.4554C12.9214 19.4895 12.9569 19.5247 13.0405 19.608L14.4518 18.1908ZM10.536 17.9159C11.4107 18.2759 12.2084 18.7985 12.8863 19.4554L14.2782 18.0192C13.4178 17.1855 12.4061 16.5228 11.2971 16.0664L10.536 17.9159ZM8.88641 13.759C7.69476 14.9456 8.11554 16.9573 9.67529 17.5746L10.4113 15.7149C10.1859 15.6257 10.131 15.3422 10.2976 15.1762L8.88641 13.759ZM34.799 24.7719L35.5058 25.8621L37.184 24.7742L36.4772 23.684L34.799 24.7719ZM32.7825 37.5545L32.6363 37.7001L34.0475 39.1173L34.1937 38.9717L32.7825 37.5545ZM35.5058 25.8621C36.2231 26.9686 36.7295 27.751 37.0828 28.402C37.4294 29.0405 37.5934 29.4911 37.6569 29.9177L39.6351 29.6232C39.5242 28.878 39.2466 28.1959 38.8406 27.448C38.4414 26.7125 37.8845 25.8547 37.184 24.7742L35.5058 25.8621ZM34.1937 38.9716C35.1644 38.0051 36.2534 36.9208 37.1588 35.9356C37.6117 35.4427 38.0297 34.9626 38.3694 34.525C38.6971 34.1029 38.9995 33.6609 39.1701 33.2527L37.3247 32.4815C37.2603 32.6357 37.0939 32.9067 36.7897 33.2985C36.4976 33.6748 36.1206 34.1095 35.6861 34.5824C34.8166 35.5287 33.761 36.5801 32.7825 37.5545L34.1937 38.9716ZM37.6569 29.9177C37.7831 30.7653 37.6711 31.6528 37.3247 32.4815L39.1701 33.2527C39.6527 32.0977 39.8166 30.8423 39.6351 29.6232L37.6569 29.9177ZM29.0387 32.7193L28.1289 31.9226L26.8113 33.4272L27.7211 34.2239L29.0387 32.7193ZM32.3122 37.6475C31.936 36.705 31.7189 36.1566 31.4349 35.6393L29.6818 36.602C29.8934 36.9873 30.0612 37.4031 30.4546 38.3889L32.3122 37.6475ZM27.6743 34.1802C28.4276 34.9303 28.7447 35.2485 29.0164 35.5947L30.5898 34.3601C30.2254 33.8956 29.8058 33.4802 29.0855 32.763L27.6743 34.1802ZM31.4349 35.6393C31.1885 35.1907 30.9059 34.7629 30.5898 34.3601L29.0164 35.5947C29.2653 35.912 29.4879 36.2489 29.6818 36.602L31.4349 35.6393ZM34.9307 16.3789C34.0012 17.3046 32.4923 17.3046 31.5627 16.3789L30.1515 17.7961C31.8614 19.4988 34.632 19.4988 36.342 17.7961L34.9307 16.3789ZM31.5627 16.3789C30.6355 15.4556 30.6355 13.9603 31.5627 13.037L30.1515 11.6198C28.4392 13.3249 28.4392 16.0911 30.1515 17.7961L31.5627 16.3789ZM31.5627 13.037C32.4923 12.1114 34.0012 12.1114 34.9307 13.037L36.342 11.6198C34.632 9.9171 31.8614 9.9171 30.1515 11.6198L31.5627 13.037ZM34.9307 13.037C35.858 13.9603 35.858 15.4556 34.9307 16.3789L36.342 17.7961C38.0542 16.0911 38.0542 13.3249 36.342 11.6198L34.9307 13.037ZM32.6363 37.7001C32.5893 37.7469 32.5241 37.7678 32.449 37.7528C32.3742 37.7379 32.3318 37.6968 32.3122 37.6475L30.4546 38.3889C31.0402 39.856 32.9469 40.2132 34.0475 39.1173L32.6363 37.7001ZM30.1515 28.2767C29.2646 29.1598 28.5865 29.8342 28.0012 30.3391C27.4143 30.8454 26.9922 31.1165 26.6355 31.2477L27.3261 33.1247C28.0191 32.8697 28.6576 32.4142 29.3076 31.8535C29.9592 31.2914 30.6945 30.5585 31.5627 29.6939L30.1515 28.2767ZM26.6355 31.2477C26.4427 31.3186 26.2634 31.3505 26.0779 31.3505V33.3505C26.511 33.3505 26.9236 33.2728 27.3261 33.1247L26.6355 31.2477ZM28.1768 31.9673L27.6875 31.4786L26.2741 32.8937L26.7634 33.3824L28.1768 31.9673ZM18.2034 16.3789C17.3561 17.2227 16.6352 17.9399 16.0772 18.5759C15.521 19.2098 15.0653 19.83 14.7968 20.4969L16.6521 21.2438C16.7947 20.8897 17.0752 20.4709 17.5806 19.8949C18.0842 19.3209 18.75 18.6571 19.6147 17.7961L18.2034 16.3789ZM14.7968 20.4969C14.6225 20.9298 14.5296 21.3752 14.5296 21.8466H16.5296C16.5296 21.6486 16.5666 21.4561 16.6521 21.2438L14.7968 20.4969ZM14.7111 21.2716L15.0178 21.5779L16.4311 20.1628L16.1245 19.8565L14.7111 21.2716ZM10.3897 25.0655L7.00625 28.4448L8.4196 29.8599L11.8031 26.4805L10.3897 25.0655ZM5.34371 26.7878L5.6513 26.4805L4.23795 25.0655L3.93036 25.3727L5.34371 26.7878ZM5.34371 28.4448C4.88543 27.9871 4.88543 27.2455 5.34371 26.7878L3.93036 25.3727C2.68988 26.6117 2.68988 28.6209 3.93036 29.8599L5.34371 28.4448ZM7.00625 28.4448C6.54729 28.9032 5.80267 28.9032 5.34371 28.4448L3.93036 29.8599C5.17017 31.0982 7.1798 31.0982 8.4196 29.8599L7.00625 28.4448ZM21.4447 36.2047L18.0612 39.584L19.4746 40.9991L22.8581 37.6198L21.4447 36.2047ZM22.5505 44.0713L22.8581 43.7641L21.4447 42.349L21.1371 42.6562L22.5505 44.0713ZM18.0612 44.0713C19.301 45.3096 21.3107 45.3096 22.5505 44.0713L21.1371 42.6562C20.6782 43.1146 19.9335 43.1146 19.4746 42.6562L18.0612 44.0713ZM18.0612 39.584C16.8207 40.823 16.8207 42.8323 18.0612 44.0713L19.4746 42.6562C19.0163 42.1985 19.0163 41.4568 19.4746 40.9991L18.0612 39.584ZM19.4978 32.6037L15.2929 36.8086L16.7071 38.2228L20.912 34.018L19.4978 32.6037ZM13.9463 27.0591L9.71252 31.2929L11.1267 32.7071L15.3605 28.4733L13.9463 27.0591ZM13.1729 33.3757L9.75372 36.7196L11.1521 38.1495L14.5712 34.8056L13.1729 33.3757Z" fill="#3BBDBA"/>
</svg>
