<svg width="48" height="48" viewBox="0 0 48 48" fill="none" xmlns="http://www.w3.org/2000/svg">
<path d="M34 16V12C34 8.22876 34 6.34315 32.8284 5.17157C31.6569 4 29.7712 4 26 4H22C18.2288 4 16.3431 4 15.1716 5.17157C14 6.34315 14 8.22876 14 12V16" stroke="#3BBDBA" stroke-width="2"/>
<path d="M21.1282 11.5662C22.9187 10.5899 25.0825 10.5899 26.873 11.5662L36.4614 16.7946C38.3894 17.8458 39.589 19.8664 39.589 22.0623V31.9376C39.589 34.1336 38.3894 36.1541 36.4614 37.2054L26.873 42.4337C25.0825 43.41 22.9187 43.41 21.1282 42.4337L11.5397 37.2054C9.61175 36.1541 8.41211 34.1336 8.41211 31.9376V22.0623C8.41211 19.8664 9.61175 17.8458 11.5397 16.7946L21.1282 11.5662Z" stroke="#3BBDBA" stroke-width="2"/>
<path d="M22.2919 23.0454C23.0519 21.682 23.4319 21.0004 24 21.0004C24.5681 21.0004 24.9481 21.682 25.7081 23.0454L25.9047 23.3981C26.1207 23.7855 26.2287 23.9792 26.397 24.107C26.5654 24.2349 26.7751 24.2823 27.1945 24.3772L27.5763 24.4636C29.0521 24.7975 29.79 24.9645 29.9655 25.529C30.1411 26.0936 29.6381 26.6818 28.6319 27.8583L28.3716 28.1627C28.0857 28.497 27.9428 28.6642 27.8785 28.871C27.8142 29.0778 27.8358 29.3008 27.879 29.7469L27.9184 30.153C28.0705 31.7227 28.1465 32.5076 27.6869 32.8565C27.2273 33.2054 26.5364 32.8873 25.1546 32.2511L24.7971 32.0865C24.4044 31.9057 24.2081 31.8153 24 31.8153C23.7919 31.8153 23.5956 31.9057 23.2029 32.0865L22.8454 32.2511C21.4636 32.8873 20.7727 33.2054 20.3131 32.8565C19.8535 32.5076 19.9295 31.7227 20.0816 30.153L20.121 29.7469C20.1642 29.3008 20.1858 29.0778 20.1215 28.871C20.0572 28.6642 19.9143 28.497 19.6284 28.1627L19.3681 27.8583C18.3619 26.6818 17.8589 26.0936 18.0345 25.529C18.21 24.9645 18.9479 24.7975 20.4237 24.4636L20.8055 24.3772C21.2249 24.2823 21.4346 24.2349 21.603 24.107C21.7713 23.9792 21.8793 23.7855 22.0953 23.3981L22.2919 23.0454Z" stroke="#3BBDBA" stroke-width="2"/>
</svg>
