<svg width="56" height="57" viewBox="0 0 56 57" fill="none" xmlns="http://www.w3.org/2000/svg">
<path d="M56 28.0092C56 42.1551 45.5173 53.8499 31.8994 55.7476C30.6261 55.9243 29.3233 56.0165 28.001 56.0165C26.4746 56.0165 24.9757 55.8948 23.516 55.6593C10.1825 53.5123 0 41.9491 0 28.0092C0 12.5406 12.5369 0 27.999 0C43.4612 0 56 12.5406 56 28.0092Z" fill="#1877F2"/>
<path d="M31.8991 22.4889V28.5904H39.4448L38.2499 36.8095H31.8991V55.7459C30.6258 55.9225 29.3231 56.0148 28.0007 56.0148C26.4743 56.0148 24.9754 55.8931 23.5157 55.6576V36.8095H16.5566V28.5904H23.5157V21.1249C23.5157 16.4933 27.2689 12.7371 31.9011 12.7371V12.741C31.9148 12.741 31.9266 12.7371 31.9403 12.7371H39.4467V19.8453H34.5419C33.0841 19.8453 31.9011 21.0287 31.9011 22.4869L31.8991 22.4889Z" fill="white"/>
</svg>
