<svg width="48" height="48" viewBox="0 0 48 48" fill="none" xmlns="http://www.w3.org/2000/svg">
<circle cx="24" cy="24" r="23.5" stroke="#E0E0E0"/>
<g clip-path="url(#clip0_227_8016)">
<path d="M35.6484 25.5352C35.8426 25.5352 36 25.3778 36 25.1836V13.5234C36 12.6834 35.3166 12 34.4766 12H13.5234C12.6834 12 12 12.6834 12 13.5234V34.4766C12 35.3166 12.6834 36 13.5234 36H34.4766C35.3166 36 36 35.3166 36 34.4766V26.8243C36 26.6301 35.8426 26.4727 35.6484 26.4727C35.4542 26.4727 35.2969 26.6301 35.2969 26.8243V34.4766C35.2969 34.9289 34.9289 35.2969 34.4766 35.2969H29.2075C29.3595 35.0599 29.4477 34.7783 29.4477 34.4766V20.5938L31.149 18.8925L32.7915 20.5351C33.1688 20.9124 33.8159 20.6448 33.8159 20.1108V14.7841C33.8159 14.4532 33.5468 14.1841 33.2159 14.1841H27.8892C27.3556 14.1841 27.0873 14.8309 27.4648 15.2085L29.1074 16.851L27.4062 18.5523H17.761C17.5668 18.5523 17.4094 18.7097 17.4094 18.9038C17.4094 19.098 17.5668 19.2554 17.761 19.2554H26.703L20.8539 25.1045H13.5234C13.2217 25.1045 12.9401 25.1927 12.7031 25.3447V20.0757C12.7031 19.6234 13.0711 19.2554 13.5234 19.2554H16.1204C16.3146 19.2554 16.4719 19.098 16.4719 18.9038C16.4719 18.7096 16.3146 18.5522 16.1204 18.5522H13.5234C13.2217 18.5522 12.9401 18.6405 12.7031 18.7924V13.5234C12.7031 13.0711 13.0711 12.7031 13.5234 12.7031H34.4766C34.9289 12.7031 35.2969 13.0711 35.2969 13.5234V25.1836C35.2969 25.3778 35.4542 25.5352 35.6484 25.5352ZM28.7446 34.4766C28.7446 34.9289 28.3766 35.2969 27.9243 35.2969H22.6553C22.8073 35.0599 22.8955 34.7783 22.8955 34.4766V27.1461L28.7446 21.297V34.4766H28.7446ZM13.5234 25.8076H20.1508L16.851 29.1074L15.2085 27.4648C14.8311 27.0875 14.184 27.3551 14.184 27.8891V33.2159C14.184 33.5468 14.4532 33.8159 14.7841 33.8159H20.1109C20.6444 33.8159 20.9128 33.1691 20.5352 32.7915L18.8926 31.149L19.3135 30.728C19.4508 30.5907 19.4508 30.3681 19.3135 30.2309C19.1762 30.0936 18.9536 30.0936 18.8163 30.2309L18.1468 30.9004C18.0095 31.0377 18.0095 31.2603 18.1468 31.3975L19.8621 33.1128H14.8872V28.1379L16.6024 29.8531C16.7398 29.9904 16.9623 29.9904 17.0996 29.8531L29.8532 17.0996C29.9905 16.9623 29.9905 16.7397 29.8532 16.6024L28.1379 14.8872H33.1128V19.8621L31.3976 18.1468C31.2603 18.0096 31.0377 18.0095 30.9004 18.1468L19.9859 29.0613C19.8486 29.1986 19.8486 29.4212 19.9859 29.5584C20.1232 29.6957 20.3458 29.6957 20.4831 29.5584L22.1924 27.8491V34.4766C22.1924 34.9289 21.8243 35.2969 21.372 35.2969H13.5234C13.0711 35.2969 12.7031 34.9289 12.7031 34.4766V26.6279C12.7031 26.1756 13.0711 25.8076 13.5234 25.8076Z" fill="#0A0A0A"/>
</g>
<defs>
<clipPath id="clip0_227_8016">
<rect width="24" height="24" fill="white" transform="translate(12 12)"/>
</clipPath>
</defs>
</svg>
