<svg width="48" height="48" viewBox="0 0 48 48" fill="none" xmlns="http://www.w3.org/2000/svg">
<circle cx="24" cy="24" r="23.5" stroke="#E0E0E0"/>
<path d="M23.7391 33.0735C23.7692 33.114 23.8083 33.1471 23.8533 33.1701C23.8982 33.1932 23.9479 33.2055 23.9984 33.2062H24.0027C24.0525 33.2062 24.1016 33.1949 24.1463 33.1731C24.1911 33.1513 24.2302 33.1196 24.2609 33.0804C24.5324 32.7341 30.9078 24.54 30.9078 19.3504C30.9078 17.519 30.1803 15.7627 28.8853 14.4678C27.5904 13.1728 25.8341 12.4453 24.0027 12.4453C22.1714 12.4453 20.4151 13.1728 19.1201 14.4678C17.8252 15.7627 17.0977 17.519 17.0977 19.3504C17.0977 21.3379 18.2191 24.2563 20.4312 28.0241C22.0655 30.8077 23.7226 33.0512 23.7391 33.0735ZM24.0027 13.1016C25.6595 13.1034 27.2478 13.7624 28.4193 14.9339C29.5908 16.1054 30.2497 17.6938 30.2515 19.3506C30.2515 23.7323 25.231 30.6979 24.0095 32.3274C22.8027 30.6349 17.7539 23.3233 17.7539 19.3506C17.7557 17.6938 18.4146 16.1054 19.5861 14.9339C20.7576 13.7624 22.346 13.1034 24.0027 13.1016Z" fill="#0A0A0A"/>
<path d="M27.97 19.3504C27.97 18.5653 27.7373 17.7979 27.3011 17.1451C26.865 16.4923 26.2451 15.9835 25.5198 15.6831C24.7945 15.3826 23.9964 15.304 23.2264 15.4571C22.4564 15.6102 21.7491 15.9883 21.1939 16.5434C20.6388 17.0985 20.2607 17.8058 20.1075 18.5758C19.9544 19.3458 20.033 20.1439 20.3334 20.8692C20.6338 21.5945 21.1426 22.2145 21.7953 22.6506C22.4481 23.0868 23.2156 23.3196 24.0006 23.3196C25.053 23.3185 26.0619 22.8999 26.8061 22.1558C27.5502 21.4117 27.9688 20.4028 27.97 19.3504ZM24.0006 22.6634C23.3453 22.6634 22.7048 22.469 22.1599 22.105C21.6151 21.7409 21.1904 21.2235 20.9397 20.6181C20.6889 20.0127 20.6233 19.3465 20.7512 18.7038C20.879 18.0611 21.1946 17.4708 21.658 17.0074C22.1213 16.5441 22.7117 16.2286 23.3544 16.1007C23.9971 15.9729 24.6632 16.0386 25.2686 16.2894C25.874 16.5402 26.3915 16.9648 26.7555 17.5097C27.1195 18.0546 27.3138 18.6951 27.3138 19.3504C27.3127 20.2288 26.9633 21.0709 26.3422 21.6919C25.7211 22.313 24.879 22.6624 24.0006 22.6634Z" fill="#0A0A0A"/>
<path d="M27.3467 30.9684C27.2613 30.96 27.1761 30.9853 27.1092 31.0389C27.0423 31.0924 26.999 31.1701 26.9886 31.2552C26.9781 31.3402 27.0014 31.426 27.0534 31.4942C27.1054 31.5624 27.182 31.6075 27.2668 31.6199C30.0918 31.9666 31.0059 32.6206 31.0059 32.8829C31.0059 33.3755 28.5335 34.3342 24.0009 34.3342C19.4683 34.3342 16.9959 33.3748 16.9959 32.8829C16.9959 32.6017 17.8923 32.0263 20.2983 31.6783C20.3828 31.6639 20.4582 31.6171 20.5087 31.5479C20.5591 31.4787 20.5805 31.3925 20.5682 31.3077C20.556 31.2229 20.5111 31.1463 20.4432 31.0942C20.3753 31.042 20.2896 31.0185 20.2046 31.0286C18.4421 31.2838 16.3398 31.8123 16.3398 32.8829C16.3398 34.4293 20.9214 34.9904 24.0011 34.9904C27.0808 34.9904 31.6623 34.4293 31.6623 32.8829C31.6622 31.6781 28.9584 31.1664 27.3467 30.9684Z" fill="#0A0A0A"/>
</svg>
