<svg width="48" height="48" viewBox="0 0 48 48" fill="none" xmlns="http://www.w3.org/2000/svg">
<circle cx="24" cy="24" r="23.5" stroke="#E0E0E0"/>
<path d="M24.1342 32.5208C23.8567 32.5208 23.5792 32.4533 23.3317 32.3183L22.7767 32.0183C22.5967 31.9208 22.5292 31.6883 22.6267 31.5083C22.7242 31.3283 22.9567 31.2608 23.1367 31.3583L23.6917 31.6583C23.9017 31.7708 24.1642 31.8008 24.3892 31.7333C24.5242 31.6958 24.7042 31.6058 24.8167 31.4033C24.9817 31.1033 24.9217 30.7433 24.7642 30.5633C24.6367 30.4133 24.6442 30.2033 24.7792 30.0608C24.8917 29.9408 25.0942 29.8958 25.2442 29.9708L26.4817 30.6233C26.8792 30.8408 27.3817 30.7133 27.5842 30.3458C27.7267 30.0758 27.6742 29.7083 27.5317 29.5058L26.3767 28.7033C26.2117 28.5908 26.1667 28.3658 26.2717 28.2008C26.3767 28.0283 26.5942 27.9758 26.7742 28.0658L28.9567 29.2508C29.1742 29.3708 29.3767 29.3483 29.5042 29.3108C29.7067 29.2508 29.8867 29.1083 29.9917 28.9058C30.0967 28.7183 30.1267 28.5083 30.0742 28.3208C30.0217 28.1333 29.9017 27.9833 29.7217 27.8858L28.3342 26.9858C28.1692 26.8808 28.1167 26.6558 28.2142 26.4833C28.3117 26.3108 28.5292 26.2433 28.7092 26.3333L31.5442 27.7433C31.9267 27.9533 32.3842 27.8033 32.5942 27.4058C32.7967 27.0308 32.6467 26.5358 32.2642 26.3258C32.0842 26.2283 32.0167 25.9958 32.1142 25.8158C32.2117 25.6358 32.4442 25.5683 32.6242 25.6658C33.3667 26.0708 33.6517 27.0308 33.2542 27.7658C32.8342 28.5308 31.9342 28.8083 31.1992 28.4108L30.8242 28.2233C30.8917 28.5758 30.8392 28.9433 30.6517 29.2733C30.4492 29.6408 30.1117 29.9183 29.7142 30.0383C29.3392 30.1508 28.9417 30.1058 28.5967 29.9183L28.4167 29.8208C28.4467 30.1133 28.4017 30.4208 28.2517 30.7058C27.8542 31.4333 26.8867 31.6958 26.1367 31.2908L25.6717 31.0433C25.6717 31.2908 25.6042 31.5458 25.4842 31.7708C25.3042 32.1008 24.9967 32.3483 24.6142 32.4608C24.4492 32.4983 24.2917 32.5208 24.1342 32.5208Z" fill="#0A0A0A"/>
<path d="M15.667 24.9603C15.6145 24.9603 15.5545 24.9453 15.502 24.9228L13.8595 24.1203C12.9145 23.6553 12.502 22.5078 12.952 21.5553L14.392 18.4803C14.827 17.5503 15.9145 17.1153 16.867 17.4978L19.6345 18.6003C19.8295 18.6753 19.9195 18.8928 19.8445 19.0878C19.7695 19.2828 19.552 19.3728 19.357 19.2978L16.582 18.1878C15.997 17.9553 15.3295 18.2178 15.0595 18.7953L13.6195 21.8703C13.3495 22.4553 13.597 23.1603 14.1745 23.4453L15.817 24.2478C16.0045 24.3378 16.0795 24.5628 15.9895 24.7503C15.937 24.8853 15.802 24.9603 15.667 24.9603Z" fill="#0A0A0A"/>
<path d="M32.4375 26.3623C32.3775 26.3623 32.3175 26.3473 32.2575 26.3173L29.505 24.8098L24.39 21.6673C24.21 21.5548 24.1575 21.3298 24.27 21.1498C24.3825 20.9698 24.6075 20.9173 24.7875 21.0298L29.8875 24.1648L32.625 25.6648C32.805 25.7623 32.8725 25.9948 32.775 26.1748C32.6925 26.2948 32.565 26.3623 32.4375 26.3623Z" fill="#0A0A0A"/>
<path d="M32.7581 24.8628C32.6156 24.8628 32.4806 24.7803 32.4206 24.6453C32.3306 24.4578 32.4131 24.2328 32.6006 24.1503L33.8156 23.5878C34.4006 23.3178 34.6631 22.6203 34.4081 22.0278L33.1481 19.1403C33.0206 18.8403 32.7806 18.6153 32.4806 18.5028C32.1806 18.3903 31.8506 18.3978 31.5581 18.5328L29.9306 19.2903C29.7881 19.3578 29.6156 19.3278 29.5031 19.2153C29.4131 19.1253 29.3156 19.0278 29.2031 18.9453C26.9981 18.4653 24.5306 18.0303 24.1556 18.1128C23.3681 18.4353 21.7256 19.5678 20.8406 20.1828L20.5406 20.3928C20.4506 20.8653 20.2556 21.3978 20.0381 22.0053C19.9256 22.3278 19.7981 22.6728 19.6781 23.0328C20.0756 23.3628 20.4581 23.4003 20.7206 23.3703C21.1031 23.3253 21.4631 23.0928 21.6506 22.7628C21.8006 22.5078 21.9956 22.0128 22.1306 21.5478C22.1756 21.4053 22.2956 21.3003 22.4456 21.2778C22.7006 21.2478 23.7281 21.0303 24.3356 20.8803C24.5381 20.8278 24.7406 20.9553 24.7856 21.1578C24.8306 21.3603 24.7106 21.5628 24.5081 21.6078C24.0356 21.7203 23.2331 21.8928 22.7906 21.9753C22.6706 22.3578 22.4906 22.8228 22.3106 23.1303C22.0031 23.6628 21.4406 24.0303 20.8181 24.1053C20.1581 24.1878 19.5056 23.9328 18.9806 23.3928C18.8831 23.2953 18.8531 23.1528 18.8906 23.0178C19.0331 22.5603 19.1906 22.1328 19.3331 21.7353C19.5656 21.0903 19.7606 20.5353 19.8281 20.1078C19.8431 20.0028 19.9031 19.9053 19.9931 19.8453L20.4206 19.5528C21.3281 18.9303 23.0156 17.7678 23.8931 17.4003C24.4406 17.1753 27.6056 17.8128 29.4431 18.2178C29.4956 18.2328 29.5481 18.2553 29.5931 18.2853C29.6831 18.3528 29.7656 18.4203 29.8406 18.4953L31.2356 17.8503C31.7156 17.6253 32.2481 17.6103 32.7431 17.7978C33.2381 17.9853 33.6206 18.3528 33.8381 18.8328L35.0981 21.7203C35.5181 22.6803 35.0831 23.8203 34.1381 24.2628L32.9231 24.8253C32.8631 24.8553 32.8106 24.8628 32.7581 24.8628Z" fill="#0A0A0A"/>
<path d="M21.8776 32.3861C21.4801 32.3861 21.0826 32.2361 20.7826 31.9286C20.4901 31.6361 20.3326 31.2461 20.3401 30.8411C20.3476 30.4361 20.5051 30.0461 20.7976 29.7536L21.0751 29.4836C21.6751 28.8911 22.6501 28.8986 23.2426 29.4911L22.9801 29.7611L23.2426 29.4986C23.5351 29.7911 23.6926 30.1736 23.6926 30.5861C23.6926 30.9986 23.5276 31.3811 23.2351 31.6736L22.9576 31.9436C22.6576 32.2361 22.2676 32.3861 21.8776 32.3861ZM22.1476 29.7911C21.9451 29.7911 21.7501 29.8661 21.5926 30.0161L21.3151 30.2861C21.1651 30.4361 21.0826 30.6311 21.0826 30.8411C21.0826 31.0511 21.1651 31.2536 21.3076 31.3961C21.6151 31.7036 22.1101 31.7036 22.4176 31.4036L22.6951 31.1336C22.8451 30.9836 22.9276 30.7886 22.9276 30.5786C22.9276 30.3686 22.8451 30.1736 22.7026 30.0236C22.5526 29.8661 22.3501 29.7911 22.1476 29.7911Z" fill="#0A0A0A"/>
<path d="M16.0651 27.352C15.6676 27.352 15.2701 27.202 14.9701 26.902C14.6776 26.6095 14.5201 26.227 14.5276 25.8145C14.5276 25.402 14.6926 25.0195 14.9851 24.727L15.2626 24.4495C15.8626 23.857 16.8376 23.8645 17.4301 24.4645L17.1751 24.727L17.4451 24.4645C17.7301 24.757 17.8876 25.1395 17.8876 25.552C17.8876 25.9645 17.7226 26.347 17.4301 26.632L17.1526 26.902C16.8526 27.202 16.4551 27.352 16.0651 27.352ZM16.3426 24.757C16.1476 24.757 15.9451 24.832 15.7951 24.982L15.5176 25.2595C15.3676 25.4095 15.2851 25.6045 15.2851 25.8145C15.2851 26.0245 15.3676 26.2195 15.5101 26.3695C15.8176 26.677 16.3126 26.677 16.6201 26.377L16.8976 26.107C17.0476 25.957 17.1301 25.762 17.1301 25.552C17.1301 25.342 17.0551 25.147 16.9051 24.997C16.7476 24.832 16.5451 24.757 16.3426 24.757Z" fill="#0A0A0A"/>
<path d="M17.5102 29.5435C17.1127 29.5435 16.7227 29.3935 16.4227 29.0935C16.1302 28.801 15.9727 28.4185 15.9727 28.006C15.9727 27.5935 16.1377 27.211 16.4227 26.926L17.2477 26.101C17.5402 25.8085 17.9002 25.651 18.3352 25.6585C18.7477 25.6585 19.1302 25.8235 19.4227 26.116C20.0152 26.716 20.0152 27.691 19.4152 28.2835L18.5902 29.101C18.2902 29.401 17.9002 29.5435 17.5102 29.5435ZM18.3352 26.4085C18.1252 26.4085 17.9302 26.491 17.7802 26.6335L16.9552 27.451C16.8052 27.601 16.7227 27.796 16.7227 28.006C16.7227 28.216 16.8052 28.411 16.9477 28.561C17.2552 28.8685 17.7502 28.8685 18.0577 28.5685L18.8827 27.751C19.1902 27.4435 19.1902 26.9485 18.8902 26.641C18.7477 26.491 18.5452 26.4085 18.3352 26.4085Z" fill="#0A0A0A"/>
<path d="M19.6938 30.9669C19.2963 30.9669 18.9063 30.8169 18.6063 30.5169C18.3138 30.2244 18.1562 29.8344 18.1562 29.4294C18.1562 29.0169 18.3212 28.6344 18.6137 28.3494L19.1688 27.8019C19.7688 27.2094 20.7438 27.2094 21.3438 27.8169C21.6288 28.1094 21.7863 28.4919 21.7863 28.9044C21.7863 29.3169 21.6212 29.6994 21.3287 29.9919L20.7812 30.5394C20.4738 30.8169 20.0838 30.9669 19.6938 30.9669ZM20.2412 28.1019C20.0387 28.1019 19.8438 28.1769 19.6862 28.3269L19.1313 28.8744C18.9813 29.0244 18.8987 29.2194 18.8987 29.4294C18.8987 29.6394 18.9812 29.8344 19.1237 29.9844C19.4312 30.2919 19.9262 30.2994 20.2337 29.9919L20.7812 29.4444C20.9313 29.2944 21.0138 29.0994 21.0138 28.8894C21.0138 28.6794 20.9313 28.4844 20.7888 28.3344C20.6463 28.1769 20.4437 28.1019 20.2412 28.1019Z" fill="#0A0A0A"/>
</svg>
