<svg width="48" height="48" viewBox="0 0 48 48" fill="none" xmlns="http://www.w3.org/2000/svg">
<circle cx="24" cy="24" r="23.5" stroke="#E0E0E0"/>
<g clip-path="url(#clip0_227_7981)">
<path d="M31.5181 25.8122C31.6982 25.8134 31.8725 25.7491 32.0085 25.6311C32.1445 25.5132 32.233 25.3498 32.2573 25.1714C32.3661 24.3952 32.3661 23.6077 32.2573 22.8314C32.2334 22.6527 32.1451 22.4889 32.009 22.3706C31.873 22.2523 31.6984 22.1876 31.5181 22.1888H30.6997C30.5444 21.6148 30.3155 21.0633 30.0186 20.5482L30.5975 19.9683C30.7258 19.8416 30.8035 19.6724 30.8161 19.4926C30.8287 19.3127 30.7753 19.1343 30.6659 18.991C30.1944 18.3648 29.6374 17.8078 29.0113 17.3363C28.868 17.2262 28.6894 17.1723 28.5092 17.1847C28.329 17.197 28.1594 17.2748 28.0325 17.4033L27.4536 17.9822C26.9385 17.6853 26.387 17.4565 25.813 17.3016V16.4827C25.8142 16.3028 25.75 16.1286 25.6322 15.9926C25.5145 15.8566 25.3513 15.768 25.1731 15.7435C24.3969 15.6352 23.6094 15.6352 22.8331 15.7435C22.6544 15.7674 22.4906 15.8557 22.3723 15.9918C22.254 16.1278 22.1893 16.3024 22.1905 16.4827V17.3016C21.6165 17.4566 21.065 17.6853 20.5498 17.9822L19.97 17.4033C19.8433 17.275 19.6741 17.1973 19.4942 17.1847C19.3144 17.1721 19.136 17.2255 18.9927 17.3349C18.3665 17.8064 17.8095 18.3634 17.338 18.9896C17.2279 19.1328 17.174 19.3114 17.1864 19.4916C17.1987 19.6719 17.2765 19.8414 17.405 19.9683L17.9839 20.5472C17.687 21.0624 17.4581 21.6139 17.3028 22.1878H16.4844C16.3045 22.1866 16.1303 22.2509 15.9943 22.3686C15.8583 22.4863 15.7697 22.6495 15.7452 22.8277C15.6364 23.6039 15.6364 24.3915 15.7452 25.1677C15.7691 25.3464 15.8574 25.5103 15.9935 25.6286C16.1295 25.7469 16.3041 25.8115 16.4844 25.8103H17.3028C17.4581 26.3843 17.687 26.9358 17.9839 27.451L17.405 28.0308C17.2767 28.1575 17.199 28.3267 17.1864 28.5066C17.1738 28.6865 17.2272 28.8648 17.3366 29.0082C17.8081 29.6344 18.3651 30.1913 18.9913 30.6628C19.1346 30.7728 19.3131 30.8267 19.4933 30.8143C19.6735 30.802 19.843 30.7243 19.97 30.5958L20.5484 30.0169C21.0636 30.3137 21.6151 30.5424 22.1891 30.6975V31.5164C22.1879 31.6964 22.2522 31.8706 22.37 32.0067C22.4878 32.1427 22.6511 32.2312 22.8294 32.2557C23.6056 32.3644 24.3932 32.3644 25.1694 32.2557C25.3481 32.2317 25.5119 32.1434 25.6302 32.0074C25.7485 31.8713 25.8132 31.6967 25.812 31.5164V30.6975C26.3861 30.5427 26.9376 30.3139 27.4527 30.0169L28.0325 30.5958C28.1592 30.7241 28.3284 30.8018 28.5083 30.8144C28.6882 30.827 28.8665 30.7736 29.0098 30.6643C29.6362 30.1929 30.1932 29.6359 30.6645 29.0096C30.7746 28.8663 30.8285 28.6877 30.8162 28.5075C30.8038 28.3273 30.7261 28.1578 30.5975 28.0308L30.0186 27.4519C30.3154 26.9367 30.5441 26.3853 30.6992 25.8113L31.5181 25.8122ZM30.0397 25.3552C29.8847 26.0489 29.6104 26.7104 29.2292 27.3103C29.1835 27.3823 29.1637 27.4676 29.173 27.5523C29.1823 27.637 29.2201 27.716 29.2803 27.7763L30.065 28.561C29.6367 29.1295 29.1309 29.6352 28.5622 30.0633L27.778 29.2791C27.7177 29.2188 27.6387 29.1809 27.5541 29.1715C27.4694 29.1622 27.384 29.1819 27.312 29.2275C26.7122 29.6089 26.0506 29.8831 25.3569 30.038C25.2737 30.0566 25.1994 30.1031 25.1461 30.1696C25.0929 30.2362 25.0639 30.3189 25.0639 30.4041V31.5136C24.3589 31.6118 23.6436 31.6118 22.9386 31.5136V30.4041C22.9386 30.3189 22.9096 30.2362 22.8564 30.1696C22.8031 30.1031 22.7288 30.0566 22.6456 30.038C21.9519 29.883 21.2904 29.6087 20.6905 29.2275C20.6186 29.1819 20.5332 29.162 20.4485 29.1713C20.3638 29.1806 20.2848 29.2185 20.2245 29.2786L19.4398 30.0633C18.8721 29.6349 18.3672 29.129 17.9398 28.5605L18.7241 27.7763C18.7843 27.716 18.8223 27.6371 18.8316 27.5524C18.841 27.4677 18.8212 27.3823 18.7756 27.3103C18.3943 26.7105 18.12 26.0489 17.9652 25.3552C17.9465 25.272 17.9001 25.1977 17.8335 25.1444C17.767 25.0912 17.6843 25.0622 17.5991 25.0622H16.4872C16.3888 24.3572 16.3888 23.6419 16.4872 22.9369H17.5963C17.6815 22.937 17.7642 22.908 17.8307 22.8547C17.8973 22.8014 17.9437 22.7271 17.9623 22.6439C18.1173 21.9502 18.3915 21.2887 18.7728 20.6888C18.8184 20.6168 18.8382 20.5315 18.8288 20.4468C18.8194 20.3621 18.7815 20.2831 18.7213 20.2228L17.937 19.4382C18.3655 18.8705 18.8713 18.3656 19.4398 17.9382L20.2241 18.7228C20.2844 18.783 20.3634 18.8209 20.4481 18.8302C20.5328 18.8394 20.6181 18.8196 20.69 18.7739C21.2899 18.3927 21.9515 18.1185 22.6452 17.9635C22.7283 17.9448 22.8027 17.8984 22.8559 17.8319C22.9092 17.7653 22.9382 17.6826 22.9381 17.5974V16.4855C23.6432 16.3873 24.3584 16.3873 25.0634 16.4855V17.5946C25.0634 17.6798 25.0924 17.7625 25.1457 17.829C25.1989 17.8956 25.2732 17.942 25.3564 17.9607C26.0501 18.1157 26.7116 18.3899 27.3116 18.7711C27.3835 18.8168 27.4688 18.8366 27.5535 18.8273C27.6382 18.8181 27.7172 18.7802 27.7775 18.72L28.5622 17.9353C29.1307 18.3636 29.6364 18.8695 30.0645 19.4382L29.2803 20.2224C29.2201 20.2826 29.1821 20.3616 29.1728 20.4463C29.1634 20.531 29.1831 20.6163 29.2288 20.6883C29.6101 21.2882 29.8844 21.9497 30.0392 22.6435C30.0579 22.7266 30.1043 22.801 30.1708 22.8542C30.2374 22.9075 30.3201 22.9365 30.4053 22.9364H31.5153C31.6138 23.6415 31.6138 24.3567 31.5153 25.0618H30.4058C30.3205 25.0617 30.2377 25.0908 30.1712 25.1441C30.1046 25.1975 30.0582 25.2719 30.0397 25.3552ZM24.0013 19.5694C23.1251 19.5694 22.2685 19.8292 21.54 20.316C20.8115 20.8028 20.2436 21.4947 19.9083 22.3042C19.573 23.1137 19.4853 24.0045 19.6562 24.8638C19.8272 25.7232 20.2491 26.5126 20.8687 27.1322C21.4882 27.7517 22.2776 28.1737 23.137 28.3446C23.9963 28.5155 24.8871 28.4278 25.6966 28.0925C26.5061 27.7572 27.198 27.1894 27.6848 26.4608C28.1716 25.7323 28.4314 24.8758 28.4314 23.9996C28.43 22.825 27.9629 21.699 27.1323 20.8685C26.3018 20.038 25.1758 19.5708 24.0013 19.5694ZM24.0013 27.6788C23.2733 27.6788 22.5618 27.4629 21.9566 27.0585C21.3514 26.6541 20.8797 26.0793 20.6011 25.4067C20.3226 24.7342 20.2498 23.9942 20.3919 23.2803C20.534 22.5664 20.8846 21.9107 21.3993 21.396C21.9141 20.8814 22.5699 20.531 23.2839 20.3891C23.9978 20.2472 24.7378 20.3202 25.4102 20.5989C26.0827 20.8776 26.6574 21.3494 27.0616 21.9547C27.4659 22.56 27.6816 23.2717 27.6814 23.9996C27.6803 24.9753 27.2922 25.9107 26.6023 26.6006C25.9124 27.2905 24.9769 27.6786 24.0013 27.6797V27.6788ZM15.9959 16.6364C15.6206 17.044 15.2771 17.4799 14.9684 17.94C14.941 17.981 14.9057 18.0161 14.8647 18.0434C14.8237 18.0707 14.7777 18.0897 14.7293 18.0992C14.681 18.1088 14.6312 18.1087 14.5829 18.099C14.5345 18.0893 14.4886 18.0701 14.4477 18.0427C14.4067 18.0152 14.3716 17.98 14.3443 17.939C14.317 17.8979 14.298 17.8519 14.2885 17.8036C14.2789 17.7552 14.279 17.7054 14.2887 17.6571C14.2984 17.6088 14.3175 17.5628 14.345 17.5219C14.6754 17.03 15.0431 16.5641 15.4447 16.1283C15.5128 16.0584 15.6056 16.0178 15.7032 16.0152C15.8008 16.0125 15.8956 16.0481 15.9674 16.1143C16.0392 16.1805 16.0824 16.2721 16.0877 16.3696C16.093 16.4671 16.0601 16.5628 15.9959 16.6364ZM17.278 14.9724C17.2213 14.8907 17.1993 14.7899 17.2169 14.6921C17.2344 14.5943 17.2901 14.5074 17.3717 14.4507C19.3786 13.0576 21.7733 12.332 24.2158 12.377C26.6584 12.4219 29.0248 13.235 30.9791 14.701L30.853 14.3513C30.82 14.2579 30.8253 14.1553 30.8677 14.0659C30.9101 13.9764 30.9862 13.9074 31.0793 13.8738C31.1725 13.8402 31.2751 13.8447 31.3648 13.8865C31.4546 13.9283 31.5242 14.0039 31.5584 14.0968L32.1636 15.7735C32.1841 15.8301 32.1906 15.8909 32.1826 15.9506C32.1747 16.0103 32.1524 16.0672 32.1178 16.1165C32.0832 16.1658 32.0372 16.206 31.9837 16.2338C31.9302 16.2616 31.8709 16.276 31.8106 16.276C31.7885 16.276 31.7663 16.274 31.7445 16.2699L29.99 15.9553C29.9415 15.9467 29.8952 15.9285 29.8538 15.902C29.8123 15.8754 29.7765 15.8409 29.7483 15.8005C29.7202 15.7601 29.7003 15.7145 29.6898 15.6664C29.6792 15.6183 29.6783 15.5686 29.687 15.5201C29.6956 15.4716 29.7138 15.4253 29.7403 15.3839C29.7669 15.3424 29.8014 15.3066 29.8418 15.2785C29.8822 15.2503 29.9278 15.2304 29.9759 15.2199C30.024 15.2093 30.0737 15.2084 30.1222 15.2171L30.5103 15.2869C28.6822 13.9221 26.4713 13.1664 24.1903 13.1269C21.9093 13.0874 19.6735 13.7659 17.7992 15.0666C17.7176 15.1231 17.6168 15.1449 17.5191 15.1273C17.4214 15.1096 17.3347 15.0539 17.278 14.9724ZM13.4464 26.6246C13.4701 26.7209 13.4546 26.8227 13.4034 26.9076C13.3522 26.9926 13.2694 27.0538 13.1731 27.0778C13.1434 27.0856 13.1129 27.0896 13.0822 27.0896C12.9985 27.0895 12.9172 27.0615 12.8513 27.0099C12.7854 26.9584 12.7386 26.8862 12.7184 26.805C12.5985 26.3239 12.5094 25.8355 12.4517 25.343C12.4416 25.245 12.4705 25.1469 12.5322 25.07C12.5938 24.9931 12.6833 24.9435 12.7811 24.9321C12.879 24.9206 12.9775 24.9482 13.0553 25.0087C13.133 25.0693 13.1838 25.1581 13.1966 25.2558C13.2505 25.7169 13.334 26.1741 13.4464 26.6246ZM12.3791 23.6649C12.3928 23.1981 12.4348 22.7326 12.5047 22.2708C12.5121 22.2221 12.529 22.1754 12.5544 22.1332C12.5799 22.091 12.6134 22.0543 12.6531 22.0251C12.6927 21.9959 12.7377 21.9748 12.7855 21.963C12.8334 21.9512 12.883 21.9489 12.9317 21.9563C12.9804 21.9637 13.0272 21.9806 13.0693 22.006C13.1115 22.0315 13.1482 22.065 13.1774 22.1047C13.2066 22.1443 13.2277 22.1893 13.2396 22.2371C13.2514 22.285 13.2536 22.3346 13.2463 22.3833C13.1809 22.8151 13.1416 23.2504 13.1286 23.6869C13.1257 23.7844 13.0849 23.8769 13.0149 23.9448C12.9449 24.0127 12.8511 24.0507 12.7536 24.0507H12.7423C12.643 24.0476 12.549 24.0053 12.4809 23.9329C12.4128 23.8606 12.3762 23.7642 12.3791 23.6649ZM14.0961 19.5094C13.9046 19.9327 13.7404 20.3678 13.6044 20.8121C13.5749 20.9067 13.5091 20.9858 13.4215 21.032C13.3339 21.0783 13.2315 21.088 13.1367 21.059C13.0419 21.03 12.9625 20.9647 12.9157 20.8773C12.869 20.79 12.8587 20.6876 12.8872 20.5927C13.0325 20.1176 13.208 19.6523 13.4127 19.1996C13.4329 19.1547 13.4619 19.1143 13.4978 19.0806C13.5337 19.0469 13.5759 19.0206 13.622 19.0032C13.668 18.9858 13.7171 18.9776 13.7663 18.9792C13.8155 18.9808 13.864 18.992 13.9088 19.0123C13.9537 19.0326 13.9941 19.0615 14.0278 19.0974C14.0615 19.1333 14.0878 19.1755 14.1052 19.2216C14.1226 19.2677 14.1308 19.3167 14.1292 19.3659C14.1276 19.4152 14.1164 19.4636 14.0961 19.5085V19.5094ZM34.5561 21.3746C34.532 21.278 34.5473 21.1759 34.5986 21.0906C34.6498 21.0054 34.7328 20.9439 34.8294 20.9199C34.9259 20.8958 35.0281 20.9111 35.1133 20.9624C35.1986 21.0136 35.26 21.0966 35.2841 21.1932C35.404 21.6743 35.493 22.1627 35.5508 22.6552C35.5623 22.7538 35.5342 22.853 35.4727 22.9309C35.4112 23.0089 35.3213 23.0592 35.2227 23.071C35.208 23.0728 35.1933 23.0738 35.1786 23.0738C35.0868 23.0736 34.9983 23.0398 34.9298 22.9787C34.8613 22.9176 34.8175 22.8335 34.8069 22.7424C34.7528 22.2815 34.669 21.8246 34.5561 21.3746ZM35.6234 24.3333C35.6097 24.8001 35.5677 25.2656 35.4978 25.7274C35.4844 25.816 35.4396 25.8969 35.3717 25.9553C35.3038 26.0138 35.2171 26.046 35.1275 26.0461C35.1085 26.0461 35.0896 26.0447 35.0708 26.0419C35.0221 26.0345 34.9753 26.0176 34.9332 25.9922C34.891 25.9667 34.8543 25.9332 34.8251 25.8935C34.7959 25.8539 34.7748 25.8089 34.7629 25.7611C34.7511 25.7132 34.7489 25.6636 34.7563 25.6149C34.8224 25.1835 34.8625 24.7485 34.8763 24.3122C34.8792 24.2128 34.9215 24.1185 34.9939 24.0503C35.0663 23.982 35.1628 23.9453 35.2623 23.9482C35.3617 23.9512 35.4559 23.9935 35.5242 24.0659C35.5925 24.1383 35.6292 24.2348 35.6263 24.3343L35.6234 24.3333ZM33.6575 30.4772C33.3272 30.9691 32.9597 31.435 32.5583 31.8708C32.5254 31.9086 32.4852 31.9394 32.4401 31.9614C32.3951 31.9834 32.3461 31.9961 32.2961 31.9988C32.246 32.0016 32.1959 31.9942 32.1488 31.9773C32.1016 31.9603 32.0583 31.9341 32.0215 31.9001C31.9846 31.8662 31.9549 31.8251 31.9342 31.7795C31.9135 31.7339 31.9021 31.6846 31.9007 31.6345C31.8994 31.5844 31.9081 31.5345 31.9264 31.4878C31.9446 31.4411 31.9721 31.3986 32.007 31.3627C32.3824 30.9551 32.7259 30.5193 33.0345 30.0591C33.062 30.0182 33.0972 29.9831 33.1383 29.9558C33.1793 29.9285 33.2253 29.9096 33.2736 29.9001C33.3219 29.8906 33.3717 29.8907 33.42 29.9004C33.4683 29.9101 33.5142 29.9292 33.5551 29.9567C33.596 29.9841 33.6311 30.0194 33.6584 30.0604C33.6857 30.1014 33.7046 30.1474 33.7141 30.1957C33.7236 30.2441 33.7235 30.2938 33.7138 30.3421C33.7041 30.3904 33.685 30.4363 33.6575 30.4772ZM35.1158 27.4055C34.9705 27.8806 34.795 28.3459 34.5903 28.7986C34.5494 28.8893 34.4741 28.9599 34.381 28.995C34.288 29.0301 34.1848 29.0269 34.0941 28.9859C34.0035 28.9449 33.9329 28.8696 33.8978 28.7766C33.8626 28.6835 33.8659 28.5804 33.9069 28.4897C34.0982 28.0664 34.2623 27.6313 34.3981 27.1871C34.4276 27.0925 34.4934 27.0134 34.581 26.9671C34.6687 26.9208 34.771 26.9111 34.8658 26.9401C34.9606 26.9691 35.04 27.0344 35.0868 27.1218C35.1335 27.2092 35.1438 27.3115 35.1153 27.4064L35.1158 27.4055ZM30.7245 33.0268C30.7812 33.1084 30.8032 33.2092 30.7856 33.307C30.7681 33.4048 30.7124 33.4917 30.6308 33.5485C28.6239 34.9413 26.2293 35.6668 23.7867 35.622C21.3442 35.5771 18.9779 34.7642 17.0234 33.2986L17.1495 33.6478C17.1748 33.7389 17.1647 33.8361 17.1214 33.92C17.078 34.004 17.0046 34.0684 16.9158 34.1006C16.827 34.1327 16.7293 34.1302 16.6423 34.0934C16.5552 34.0567 16.4853 33.9885 16.4464 33.9024L15.838 32.2257C15.8156 32.1637 15.81 32.097 15.8216 32.0322C15.8332 31.9674 15.8617 31.9068 15.9042 31.8564C15.9466 31.8061 16.0016 31.7679 16.0635 31.7456C16.1255 31.7232 16.1922 31.7176 16.257 31.7293L18.0116 32.0438C18.06 32.0525 18.1063 32.0706 18.1478 32.0972C18.1893 32.1237 18.2251 32.1582 18.2532 32.1986C18.2814 32.2391 18.3013 32.2846 18.3118 32.3327C18.3223 32.3808 18.3233 32.4305 18.3146 32.479C18.3059 32.5275 18.2878 32.5738 18.2612 32.6153C18.2347 32.6567 18.2002 32.6925 18.1598 32.7207C18.1193 32.7488 18.0738 32.7687 18.0257 32.7793C17.9776 32.7898 17.9279 32.7907 17.8794 32.7821L17.4913 32.7127C19.3195 34.0773 21.5304 34.8327 23.8114 34.8721C26.0923 34.9116 28.328 34.2331 30.2023 32.9325C30.2428 32.9044 30.2884 32.8845 30.3366 32.874C30.3847 32.8636 30.4345 32.8627 30.483 32.8714C30.5315 32.8802 30.5778 32.8984 30.6192 32.925C30.6607 32.9517 30.6965 32.9863 30.7245 33.0268Z" fill="#0A0A0A"/>
</g>
<defs>
<clipPath id="clip0_227_7981">
<rect width="24" height="24" fill="white" transform="translate(12 12)"/>
</clipPath>
</defs>
</svg>
