<svg width="48" height="48" viewBox="0 0 48 48" fill="none" xmlns="http://www.w3.org/2000/svg">
<circle cx="24" cy="24" r="23.5" stroke="#E0E0E0"/>
<g clip-path="url(#clip0_227_8036)">
<path d="M23.9635 23.8162C25.535 22.9168 26.6087 21.242 26.6087 19.3053C26.6087 16.4284 24.2682 14.0879 21.3913 14.0879C18.5144 14.0879 16.1739 16.4284 16.1739 19.3053C16.1739 21.242 17.2476 22.9168 18.8191 23.8162C14.8884 24.8483 12 28.1718 12 32.1109V33.3922C12 33.6802 12.2338 33.914 12.5218 33.914C12.8098 33.914 13.0435 33.6802 13.0435 33.3922V32.1109C13.0435 27.9276 16.7885 24.5227 21.3913 24.5227C25.9941 24.5227 29.7391 27.9276 29.7391 32.1109V33.3922C29.7391 33.6802 29.9729 33.914 30.2609 33.914C30.5489 33.914 30.7826 33.6802 30.7826 33.3922V32.1109C30.7826 28.1718 27.8942 24.8472 23.9635 23.8162ZM17.2174 19.3053C17.2174 17.0034 19.0894 15.1314 21.3913 15.1314C23.6932 15.1314 25.5652 17.0034 25.5652 19.3053C25.5652 21.6072 23.6932 23.4792 21.3913 23.4792C19.0894 23.4792 17.2174 21.6072 17.2174 19.3053Z" fill="#0A0A0A"/>
<path d="M30.9911 23.8307C32.1222 23.0825 32.8714 21.8032 32.8714 20.3497C32.8714 18.0478 30.9994 16.1758 28.6975 16.1758C28.4095 16.1758 28.1758 16.4095 28.1758 16.6975C28.1758 16.9855 28.4095 17.2193 28.6975 17.2193C30.4234 17.2193 31.828 18.6238 31.828 20.3497C31.828 22.0756 30.4234 23.4802 28.6975 23.4802C28.4095 23.4802 28.1758 23.7139 28.1758 24.0019C28.1758 24.2899 28.4095 24.5236 28.6975 24.5236C32.1504 24.5236 34.9584 27.1187 34.9584 30.3096V31.3061C34.9584 31.5941 35.1921 31.8279 35.4801 31.8279C35.7681 31.8279 36.0019 31.5941 36.0019 31.3061V30.3096C36.0019 27.294 33.8982 24.7323 30.9911 23.8307Z" fill="#0A0A0A"/>
</g>
<defs>
<clipPath id="clip0_227_8036">
<rect width="24" height="24" fill="white" transform="translate(12 12)"/>
</clipPath>
</defs>
</svg>
