<svg width="56" height="57" viewBox="0 0 56 57" fill="none" xmlns="http://www.w3.org/2000/svg">
<path d="M28.0638 3.05176e-05H27.9362C12.5075 3.05176e-05 0 12.5112 0 27.9445V28.0721C0 43.5054 12.5075 56.0165 27.9362 56.0165H28.0638C43.4925 56.0165 56 43.5054 56 28.0721V27.9445C56 12.5112 43.4925 3.05176e-05 28.0638 3.05176e-05Z" fill="url(#paint0_linear_391_4772)"/>
<path d="M36.6639 11.3955H19.3359C14.5488 11.3955 10.6543 15.2912 10.6543 20.0797V35.937C10.6543 40.7255 14.5488 44.6212 19.3359 44.6212H36.6639C41.4511 44.6212 45.3455 40.7255 45.3455 35.937V20.0797C45.3455 15.2912 41.4511 11.3955 36.6639 11.3955ZM13.7169 20.0797C13.7169 16.9809 16.238 14.459 19.3359 14.459H36.6639C39.7618 14.459 42.2829 16.9809 42.2829 20.0797V35.937C42.2829 39.0358 39.7618 41.5577 36.6639 41.5577H19.3359C16.238 41.5577 13.7169 39.0358 13.7169 35.937V20.0797Z" fill="white"/>
<path d="M27.9992 36.084C32.4509 36.084 36.0746 32.4612 36.0746 28.0063C36.0746 23.5513 32.4529 19.9285 27.9992 19.9285C23.5456 19.9285 19.9238 23.5513 19.9238 28.0063C19.9238 32.4612 23.5456 36.084 27.9992 36.084ZM27.9992 22.994C30.7636 22.994 33.012 25.243 33.012 28.0082C33.012 30.7734 30.7636 33.0225 27.9992 33.0225C25.2348 33.0225 22.9864 30.7734 22.9864 28.0082C22.9864 25.243 25.2348 22.994 27.9992 22.994Z" fill="white"/>
<path d="M36.8223 21.2334C38.021 21.2334 38.9981 20.258 38.9981 19.057C38.9981 17.8559 38.023 16.8805 36.8223 16.8805C35.6216 16.8805 34.6465 17.8559 34.6465 19.057C34.6465 20.258 35.6216 21.2334 36.8223 21.2334Z" fill="white"/>
<defs>
<linearGradient id="paint0_linear_391_4772" x1="8.18134" y1="47.8328" x2="47.8303" y2="8.19741" gradientUnits="userSpaceOnUse">
<stop stop-color="#FAAD4F"/>
<stop offset="0.35" stop-color="#DD2A7B"/>
<stop offset="0.62" stop-color="#9537B0"/>
<stop offset="1" stop-color="#515BD4"/>
</linearGradient>
</defs>
</svg>
