<svg width="121" height="120" viewBox="0 0 121 120" fill="none" xmlns="http://www.w3.org/2000/svg">
<path d="M95.9323 35.4318C95.9323 15.8946 80.0377 0 60.5004 0C40.9632 0 25.0684 15.8946 25.0684 35.4318C25.0684 54.9691 40.9629 70.8637 60.5002 70.8637C80.0375 70.8637 95.9323 54.9691 95.9323 35.4318ZM46.7549 43.9162H53.7858C53.7858 46.3521 55.7675 48.3339 58.2035 48.3339H62.7184C65.2331 48.3339 67.2791 46.2879 67.2791 43.7732C67.2791 41.2585 65.2334 39.2125 62.7184 39.2125H58.2824C51.891 39.2125 46.691 34.0126 46.691 27.6211C46.691 21.6683 51.2022 16.7514 56.985 16.1041V10.2535H64.0158V16.1172C69.7523 16.8107 74.2131 21.7058 74.2131 27.6262H67.1823C67.1823 25.1087 65.1342 23.0606 62.6169 23.0606H58.2827C55.768 23.0606 53.722 25.1064 53.722 27.6211C53.722 30.1358 55.768 32.1817 58.2827 32.1817H62.7187C69.1101 32.1817 74.3101 37.3817 74.3101 43.773C74.3101 49.7257 69.7989 54.6426 64.0161 55.2899V61.1408H56.9853V55.2988C51.2432 54.6888 46.7549 49.8171 46.7549 43.9162Z" fill="#3BBDBA"/>
<path d="M83.8675 70.8677C77.1599 75.3058 69.1267 77.8948 60.4992 77.8948C51.8717 77.8948 43.8382 75.306 37.1308 70.8677V86.2565H25.1719V91.3398L60.4992 120L95.8263 91.3398V86.2565H83.8673L83.8675 70.8677Z" fill="#3BBDBA"/>
</svg>
