<svg width="48" height="48" viewBox="0 0 48 48" fill="none" xmlns="http://www.w3.org/2000/svg">
<circle cx="24" cy="24" r="23.5" stroke="#E0E0E0"/>
<g clip-path="url(#clip0_227_7968)">
<path d="M35.7448 21.7527L24.3684 13.4232C24.149 13.2626 23.851 13.2626 23.6317 13.4232L12.2553 21.7527C11.9774 21.9562 11.917 22.3464 12.1205 22.6243C12.324 22.9021 12.7142 22.9624 12.992 22.759L24 14.6992L35.008 22.759C35.119 22.8403 35.248 22.8795 35.3759 22.8795C35.5679 22.8795 35.7574 22.7911 35.8795 22.6242C36.083 22.3464 36.0227 21.9562 35.7448 21.7527Z" fill="#0A0A0A"/>
<path d="M32.7286 22.9004C32.3843 22.9004 32.105 23.1796 32.105 23.524V33.4497H27.1165V28.0316C27.1165 26.3122 25.7177 24.9135 23.9984 24.9135C22.2791 24.9135 20.8803 26.3123 20.8803 28.0316V33.4497H15.8917V23.524C15.8917 23.1796 15.6125 22.9004 15.2681 22.9004C14.9238 22.9004 14.6445 23.1796 14.6445 23.524V34.0734C14.6445 34.4178 14.9238 34.697 15.2681 34.697H21.5038C21.8318 34.697 22.1001 34.4436 22.125 34.1219C22.1265 34.1074 22.1274 34.0914 22.1274 34.0734V28.0317C22.1274 27 22.9667 26.1607 23.9984 26.1607C25.0301 26.1607 25.8694 27 25.8694 28.0317V34.0734C25.8694 34.0913 25.8703 34.107 25.8718 34.1214C25.8964 34.4433 26.1648 34.697 26.4929 34.697H32.7287C33.0731 34.697 33.3522 34.4178 33.3522 34.0734V23.524C33.3522 23.1796 33.073 22.9004 32.7286 22.9004Z" fill="#0A0A0A"/>
</g>
<defs>
<clipPath id="clip0_227_7968">
<rect width="24" height="24" fill="white" transform="translate(12 12)"/>
</clipPath>
</defs>
</svg>
