<svg width="48" height="48" viewBox="0 0 48 48" fill="none" xmlns="http://www.w3.org/2000/svg">
<circle cx="24" cy="24" r="23.5" stroke="#E0E0E0"/>
<g clip-path="url(#clip0_227_7989)">
<path d="M23.9983 15.9137C24.2853 15.9137 24.52 15.6789 24.52 15.392V15.1311C24.52 14.8442 24.2853 14.6094 23.9983 14.6094C23.7113 14.6094 23.4766 14.8442 23.4766 15.1311V15.392C23.4766 15.6789 23.7113 15.9137 23.9983 15.9137Z" fill="#0A0A0A"/>
<path d="M23.9983 32.0879C23.7113 32.0879 23.4766 32.3227 23.4766 32.6096V32.8705C23.4766 33.1575 23.7113 33.3922 23.9983 33.3922C24.2853 33.3922 24.52 33.1575 24.52 32.8705V32.6096C24.52 32.3227 24.2853 32.0879 23.9983 32.0879Z" fill="#0A0A0A"/>
<path d="M15.392 23.4785H15.1311C14.8442 23.4785 14.6094 23.7133 14.6094 24.0003C14.6094 24.2872 14.8442 24.522 15.1311 24.522H15.392C15.6789 24.522 15.9137 24.2872 15.9137 24.0003C15.9137 23.7133 15.6789 23.4785 15.392 23.4785Z" fill="#0A0A0A"/>
<path d="M32.8685 23.4785H32.6077C32.3207 23.4785 32.0859 23.7133 32.0859 24.0003C32.0859 24.2872 32.3207 24.522 32.6077 24.522H32.8685C33.1555 24.522 33.3903 24.2872 33.3903 24.0003C33.3903 23.7133 33.1555 23.4785 32.8685 23.4785Z" fill="#0A0A0A"/>
<path d="M18.1057 17.3733C17.897 17.1646 17.584 17.1646 17.3753 17.3733C17.1666 17.582 17.1666 17.8951 17.3753 18.1038L17.5579 18.2864C17.6622 18.3907 17.7927 18.4429 17.9231 18.4429C18.0535 18.4429 18.184 18.3907 18.2883 18.2864C18.497 18.0777 18.497 17.7646 18.2883 17.5559L18.1057 17.3733Z" fill="#0A0A0A"/>
<path d="M17.5579 29.7132L17.3753 29.8958C17.1666 30.1045 17.1666 30.4175 17.3753 30.6262C17.4796 30.7306 17.6101 30.7827 17.7405 30.7827C17.8709 30.7827 18.0014 30.7306 18.1057 30.6262L18.2883 30.4436C18.497 30.2349 18.497 29.9219 18.2883 29.7132C18.0796 29.5045 17.7666 29.5045 17.5579 29.7132Z" fill="#0A0A0A"/>
<path d="M29.8938 17.3733L29.7112 17.5559C29.5025 17.7646 29.5025 18.0777 29.7112 18.2864C29.8156 18.3907 29.946 18.4429 30.0764 18.4429C30.2069 18.4429 30.3373 18.3907 30.4416 18.2864L30.6243 18.1038C30.8329 17.8951 30.8329 17.582 30.6243 17.3733C30.4156 17.1646 30.1025 17.1646 29.8938 17.3733Z" fill="#0A0A0A"/>
<path d="M24.52 23.791V19.0432C24.52 18.7563 24.2853 18.5215 23.9983 18.5215C23.7113 18.5215 23.4766 18.7563 23.4766 19.0432V23.9997C23.4766 24.1302 23.5287 24.2606 23.6331 24.365L29.3461 30.078C29.4505 30.1824 29.5809 30.2345 29.7113 30.2345C29.8418 30.2345 29.9722 30.1824 30.0766 30.078C30.2853 29.8693 30.2853 29.5563 30.0766 29.3476L24.52 23.791Z" fill="#0A0A0A"/>
<path d="M24 12C17.3739 12 12 17.3739 12 24C12 30.6261 17.3739 36 24 36C30.6261 36 36 30.6261 36 24C36 17.3739 30.6261 12 24 12ZM24 34.9565C17.9478 34.9565 13.0435 30.0522 13.0435 24C13.0435 17.9478 17.9478 13.0435 24 13.0435C30.0522 13.0435 34.9565 17.9478 34.9565 24C34.9565 30.0522 30.0522 34.9565 24 34.9565Z" fill="#0A0A0A"/>
</g>
<defs>
<clipPath id="clip0_227_7989">
<rect width="24" height="24" fill="white" transform="translate(12 12)"/>
</clipPath>
</defs>
</svg>
