<svg width="48" height="48" viewBox="0 0 48 48" fill="none" xmlns="http://www.w3.org/2000/svg">
<circle cx="24" cy="24" r="23.5" stroke="#E0E0E0"/>
<g clip-path="url(#clip0_227_8008)">
<mask id="path-2-outside-1_227_8008" maskUnits="userSpaceOnUse" x="11.2812" y="11.2812" width="25" height="25" fill="black">
<rect fill="white" x="11.2812" y="11.2812" width="25" height="25"/>
<path d="M23.8601 19.7412H13.4651C12.8124 19.7412 12.2812 20.2724 12.2812 20.9252V32.6068C12.2812 33.2595 12.8124 33.7906 13.4651 33.7906H23.8601C24.513 33.7906 25.0441 33.2595 25.0441 32.6068C25.0441 30.349 25.0441 23.1785 25.0441 20.9252C25.0441 20.2723 24.513 19.7412 23.8601 19.7412ZM12.818 20.9252C12.818 20.5683 13.1084 20.2779 13.4651 20.2779H23.8601C24.217 20.2779 24.5074 20.5683 24.5074 20.9252V24.1576H12.818V20.9252ZM24.5074 24.6943V28.8375H12.818V24.6943H24.5074ZM24.5074 32.6068C24.5074 32.9635 24.217 33.2539 23.8601 33.2539H13.4651C13.1084 33.2539 12.818 32.9635 12.818 32.6068V29.3742H24.5074V32.6068Z"/>
<path d="M19.5424 21.9494H17.783C17.6348 21.9494 17.5147 22.0696 17.5147 22.2178C17.5147 22.3659 17.6348 22.4861 17.783 22.4861H19.5424C19.6905 22.4861 19.8107 22.3659 19.8107 22.2178C19.8107 22.0696 19.6905 21.9494 19.5424 21.9494Z"/>
<path d="M17.783 27.0343H19.5424C19.6905 27.0343 19.8107 26.9141 19.8107 26.7659C19.8107 26.6177 19.6905 26.4975 19.5424 26.4975H17.783C17.6348 26.4975 17.5147 26.6177 17.5147 26.7659C17.5147 26.9141 17.6348 27.0343 17.783 27.0343Z"/>
<path d="M17.783 31.5824H19.5424C19.6905 31.5824 19.8107 31.4622 19.8107 31.314C19.8107 31.1659 19.6905 31.0457 19.5424 31.0457H17.783C17.6348 31.0457 17.5147 31.1659 17.5147 31.314C17.5147 31.4622 17.6348 31.5824 17.783 31.5824Z"/>
<path d="M15.7287 34.3333C15.5855 34.3029 15.4411 34.3946 15.4102 34.5397C15.3567 34.7898 15.1315 34.9714 14.8747 34.9714C14.6063 34.9714 14.3896 34.7797 14.3373 34.5386C14.3056 34.3938 14.1624 34.3012 14.0179 34.3335C13.8731 34.3651 13.7813 34.508 13.8128 34.6529C13.9175 35.1329 14.3458 35.5081 14.8747 35.5081C15.383 35.5081 15.829 35.148 15.9351 34.6518C15.966 34.5069 15.8738 34.3642 15.7287 34.3333Z"/>
<path d="M23.2517 34.3333C23.1069 34.3031 22.9643 34.3946 22.9332 34.5397C22.8797 34.7898 22.6545 34.9714 22.3977 34.9714C22.1231 34.9714 21.9114 34.774 21.8603 34.5386C21.8287 34.3938 21.6854 34.3012 21.5409 34.3335C21.3961 34.3651 21.3044 34.508 21.3358 34.6529C21.4441 35.1497 21.8877 35.5081 22.3977 35.5081C22.9063 35.5081 23.3522 35.148 23.4581 34.6518C23.489 34.5068 23.3966 34.3642 23.2517 34.3333Z"/>
<path d="M34.9712 21.8229L34.9724 19.4957H35.0866C35.4881 19.4957 35.7777 19.1122 35.6672 18.7259L33.951 12.7194C33.8776 12.4614 33.6388 12.2812 33.3704 12.2812C31.7146 12.2812 30.4421 12.2812 28.8 12.2812C28.5368 12.2812 28.3056 12.4497 28.2252 12.7004L26.2944 18.7071C26.169 19.0969 26.4596 19.4957 26.8694 19.4957H34.4356L34.4344 21.8232C34.006 21.9413 33.6901 22.3334 33.6901 22.7989C33.6901 23.3585 34.1445 23.8136 34.7031 23.8136C35.2627 23.8136 35.718 23.3585 35.718 22.7989C35.7181 22.333 35.401 21.9407 34.9712 21.8229ZM35.1511 18.8734C35.1637 18.9169 35.1312 18.959 35.0867 18.959C34.3257 18.959 33.7575 18.959 33.021 18.959L32.3242 12.818H33.3705C33.4679 12.818 33.3211 12.5442 35.1511 18.8734ZM26.8054 18.8713L28.7362 12.8647C28.7453 12.8367 28.771 12.818 28.8001 12.818H29.7068L28.923 18.959H26.8695C26.8237 18.959 26.7915 18.9148 26.8054 18.8713ZM29.464 18.959L30.2478 12.818H31.784L32.4808 18.959H29.464ZM34.7032 23.2769C34.4406 23.2769 34.2269 23.0625 34.2269 22.7988C34.2269 22.5362 34.4406 22.3226 34.7032 22.3226C34.9668 22.3226 35.1813 22.5362 35.1813 22.7988C35.1814 23.0625 34.9668 23.2769 34.7032 23.2769Z"/>
<path d="M34.5866 35.1814H34.0412C33.9083 34.1078 32.9922 33.2735 31.8833 33.2735H31.2393V20.301C31.2393 20.1528 31.1191 20.0326 30.9709 20.0326C30.8228 20.0326 30.7026 20.1528 30.7026 20.301V33.2735H30.1765C29.0676 33.2735 28.1515 34.1078 28.0186 35.1814H27.4733C27.3252 35.1814 27.205 35.3016 27.205 35.4497C27.205 35.5979 27.3252 35.7181 27.4733 35.7181H34.5866C34.7348 35.7181 34.855 35.5979 34.855 35.4497C34.855 35.3016 34.7348 35.1814 34.5866 35.1814ZM28.559 35.1814C28.6875 34.4046 29.3639 33.8102 30.1765 33.8102H31.8833C32.6959 33.8102 33.3724 34.4046 33.5008 35.1814H28.559Z"/>
</mask>
<path d="M23.8601 19.7412H13.4651C12.8124 19.7412 12.2812 20.2724 12.2812 20.9252V32.6068C12.2812 33.2595 12.8124 33.7906 13.4651 33.7906H23.8601C24.513 33.7906 25.0441 33.2595 25.0441 32.6068C25.0441 30.349 25.0441 23.1785 25.0441 20.9252C25.0441 20.2723 24.513 19.7412 23.8601 19.7412ZM12.818 20.9252C12.818 20.5683 13.1084 20.2779 13.4651 20.2779H23.8601C24.217 20.2779 24.5074 20.5683 24.5074 20.9252V24.1576H12.818V20.9252ZM24.5074 24.6943V28.8375H12.818V24.6943H24.5074ZM24.5074 32.6068C24.5074 32.9635 24.217 33.2539 23.8601 33.2539H13.4651C13.1084 33.2539 12.818 32.9635 12.818 32.6068V29.3742H24.5074V32.6068Z" fill="#0A0A0A"/>
<path d="M19.5424 21.9494H17.783C17.6348 21.9494 17.5147 22.0696 17.5147 22.2178C17.5147 22.3659 17.6348 22.4861 17.783 22.4861H19.5424C19.6905 22.4861 19.8107 22.3659 19.8107 22.2178C19.8107 22.0696 19.6905 21.9494 19.5424 21.9494Z" fill="#0A0A0A"/>
<path d="M17.783 27.0343H19.5424C19.6905 27.0343 19.8107 26.9141 19.8107 26.7659C19.8107 26.6177 19.6905 26.4975 19.5424 26.4975H17.783C17.6348 26.4975 17.5147 26.6177 17.5147 26.7659C17.5147 26.9141 17.6348 27.0343 17.783 27.0343Z" fill="#0A0A0A"/>
<path d="M17.783 31.5824H19.5424C19.6905 31.5824 19.8107 31.4622 19.8107 31.314C19.8107 31.1659 19.6905 31.0457 19.5424 31.0457H17.783C17.6348 31.0457 17.5147 31.1659 17.5147 31.314C17.5147 31.4622 17.6348 31.5824 17.783 31.5824Z" fill="#0A0A0A"/>
<path d="M15.7287 34.3333C15.5855 34.3029 15.4411 34.3946 15.4102 34.5397C15.3567 34.7898 15.1315 34.9714 14.8747 34.9714C14.6063 34.9714 14.3896 34.7797 14.3373 34.5386C14.3056 34.3938 14.1624 34.3012 14.0179 34.3335C13.8731 34.3651 13.7813 34.508 13.8128 34.6529C13.9175 35.1329 14.3458 35.5081 14.8747 35.5081C15.383 35.5081 15.829 35.148 15.9351 34.6518C15.966 34.5069 15.8738 34.3642 15.7287 34.3333Z" fill="#0A0A0A"/>
<path d="M23.2517 34.3333C23.1069 34.3031 22.9643 34.3946 22.9332 34.5397C22.8797 34.7898 22.6545 34.9714 22.3977 34.9714C22.1231 34.9714 21.9114 34.774 21.8603 34.5386C21.8287 34.3938 21.6854 34.3012 21.5409 34.3335C21.3961 34.3651 21.3044 34.508 21.3358 34.6529C21.4441 35.1497 21.8877 35.5081 22.3977 35.5081C22.9063 35.5081 23.3522 35.148 23.4581 34.6518C23.489 34.5068 23.3966 34.3642 23.2517 34.3333Z" fill="#0A0A0A"/>
<path d="M34.9712 21.8229L34.9724 19.4957H35.0866C35.4881 19.4957 35.7777 19.1122 35.6672 18.7259L33.951 12.7194C33.8776 12.4614 33.6388 12.2812 33.3704 12.2812C31.7146 12.2812 30.4421 12.2812 28.8 12.2812C28.5368 12.2812 28.3056 12.4497 28.2252 12.7004L26.2944 18.7071C26.169 19.0969 26.4596 19.4957 26.8694 19.4957H34.4356L34.4344 21.8232C34.006 21.9413 33.6901 22.3334 33.6901 22.7989C33.6901 23.3585 34.1445 23.8136 34.7031 23.8136C35.2627 23.8136 35.718 23.3585 35.718 22.7989C35.7181 22.333 35.401 21.9407 34.9712 21.8229ZM35.1511 18.8734C35.1637 18.9169 35.1312 18.959 35.0867 18.959C34.3257 18.959 33.7575 18.959 33.021 18.959L32.3242 12.818H33.3705C33.4679 12.818 33.3211 12.5442 35.1511 18.8734ZM26.8054 18.8713L28.7362 12.8647C28.7453 12.8367 28.771 12.818 28.8001 12.818H29.7068L28.923 18.959H26.8695C26.8237 18.959 26.7915 18.9148 26.8054 18.8713ZM29.464 18.959L30.2478 12.818H31.784L32.4808 18.959H29.464ZM34.7032 23.2769C34.4406 23.2769 34.2269 23.0625 34.2269 22.7988C34.2269 22.5362 34.4406 22.3226 34.7032 22.3226C34.9668 22.3226 35.1813 22.5362 35.1813 22.7988C35.1814 23.0625 34.9668 23.2769 34.7032 23.2769Z" fill="#0A0A0A"/>
<path d="M34.5866 35.1814H34.0412C33.9083 34.1078 32.9922 33.2735 31.8833 33.2735H31.2393V20.301C31.2393 20.1528 31.1191 20.0326 30.9709 20.0326C30.8228 20.0326 30.7026 20.1528 30.7026 20.301V33.2735H30.1765C29.0676 33.2735 28.1515 34.1078 28.0186 35.1814H27.4733C27.3252 35.1814 27.205 35.3016 27.205 35.4497C27.205 35.5979 27.3252 35.7181 27.4733 35.7181H34.5866C34.7348 35.7181 34.855 35.5979 34.855 35.4497C34.855 35.3016 34.7348 35.1814 34.5866 35.1814ZM28.559 35.1814C28.6875 34.4046 29.3639 33.8102 30.1765 33.8102H31.8833C32.6959 33.8102 33.3724 34.4046 33.5008 35.1814H28.559Z" fill="#0A0A0A"/>
<path d="M23.8601 19.7412H13.4651C12.8124 19.7412 12.2812 20.2724 12.2812 20.9252V32.6068C12.2812 33.2595 12.8124 33.7906 13.4651 33.7906H23.8601C24.513 33.7906 25.0441 33.2595 25.0441 32.6068C25.0441 30.349 25.0441 23.1785 25.0441 20.9252C25.0441 20.2723 24.513 19.7412 23.8601 19.7412ZM12.818 20.9252C12.818 20.5683 13.1084 20.2779 13.4651 20.2779H23.8601C24.217 20.2779 24.5074 20.5683 24.5074 20.9252V24.1576H12.818V20.9252ZM24.5074 24.6943V28.8375H12.818V24.6943H24.5074ZM24.5074 32.6068C24.5074 32.9635 24.217 33.2539 23.8601 33.2539H13.4651C13.1084 33.2539 12.818 32.9635 12.818 32.6068V29.3742H24.5074V32.6068Z" stroke="#0A0A0A" stroke-width="0.2" mask="url(#path-2-outside-1_227_8008)"/>
<path d="M19.5424 21.9494H17.783C17.6348 21.9494 17.5147 22.0696 17.5147 22.2178C17.5147 22.3659 17.6348 22.4861 17.783 22.4861H19.5424C19.6905 22.4861 19.8107 22.3659 19.8107 22.2178C19.8107 22.0696 19.6905 21.9494 19.5424 21.9494Z" stroke="#0A0A0A" stroke-width="0.2" mask="url(#path-2-outside-1_227_8008)"/>
<path d="M17.783 27.0343H19.5424C19.6905 27.0343 19.8107 26.9141 19.8107 26.7659C19.8107 26.6177 19.6905 26.4975 19.5424 26.4975H17.783C17.6348 26.4975 17.5147 26.6177 17.5147 26.7659C17.5147 26.9141 17.6348 27.0343 17.783 27.0343Z" stroke="#0A0A0A" stroke-width="0.2" mask="url(#path-2-outside-1_227_8008)"/>
<path d="M17.783 31.5824H19.5424C19.6905 31.5824 19.8107 31.4622 19.8107 31.314C19.8107 31.1659 19.6905 31.0457 19.5424 31.0457H17.783C17.6348 31.0457 17.5147 31.1659 17.5147 31.314C17.5147 31.4622 17.6348 31.5824 17.783 31.5824Z" stroke="#0A0A0A" stroke-width="0.2" mask="url(#path-2-outside-1_227_8008)"/>
<path d="M15.7287 34.3333C15.5855 34.3029 15.4411 34.3946 15.4102 34.5397C15.3567 34.7898 15.1315 34.9714 14.8747 34.9714C14.6063 34.9714 14.3896 34.7797 14.3373 34.5386C14.3056 34.3938 14.1624 34.3012 14.0179 34.3335C13.8731 34.3651 13.7813 34.508 13.8128 34.6529C13.9175 35.1329 14.3458 35.5081 14.8747 35.5081C15.383 35.5081 15.829 35.148 15.9351 34.6518C15.966 34.5069 15.8738 34.3642 15.7287 34.3333Z" stroke="#0A0A0A" stroke-width="0.2" mask="url(#path-2-outside-1_227_8008)"/>
<path d="M23.2517 34.3333C23.1069 34.3031 22.9643 34.3946 22.9332 34.5397C22.8797 34.7898 22.6545 34.9714 22.3977 34.9714C22.1231 34.9714 21.9114 34.774 21.8603 34.5386C21.8287 34.3938 21.6854 34.3012 21.5409 34.3335C21.3961 34.3651 21.3044 34.508 21.3358 34.6529C21.4441 35.1497 21.8877 35.5081 22.3977 35.5081C22.9063 35.5081 23.3522 35.148 23.4581 34.6518C23.489 34.5068 23.3966 34.3642 23.2517 34.3333Z" stroke="#0A0A0A" stroke-width="0.2" mask="url(#path-2-outside-1_227_8008)"/>
<path d="M34.9712 21.8229L34.9724 19.4957H35.0866C35.4881 19.4957 35.7777 19.1122 35.6672 18.7259L33.951 12.7194C33.8776 12.4614 33.6388 12.2812 33.3704 12.2812C31.7146 12.2812 30.4421 12.2812 28.8 12.2812C28.5368 12.2812 28.3056 12.4497 28.2252 12.7004L26.2944 18.7071C26.169 19.0969 26.4596 19.4957 26.8694 19.4957H34.4356L34.4344 21.8232C34.006 21.9413 33.6901 22.3334 33.6901 22.7989C33.6901 23.3585 34.1445 23.8136 34.7031 23.8136C35.2627 23.8136 35.718 23.3585 35.718 22.7989C35.7181 22.333 35.401 21.9407 34.9712 21.8229ZM35.1511 18.8734C35.1637 18.9169 35.1312 18.959 35.0867 18.959C34.3257 18.959 33.7575 18.959 33.021 18.959L32.3242 12.818H33.3705C33.4679 12.818 33.3211 12.5442 35.1511 18.8734ZM26.8054 18.8713L28.7362 12.8647C28.7453 12.8367 28.771 12.818 28.8001 12.818H29.7068L28.923 18.959H26.8695C26.8237 18.959 26.7915 18.9148 26.8054 18.8713ZM29.464 18.959L30.2478 12.818H31.784L32.4808 18.959H29.464ZM34.7032 23.2769C34.4406 23.2769 34.2269 23.0625 34.2269 22.7988C34.2269 22.5362 34.4406 22.3226 34.7032 22.3226C34.9668 22.3226 35.1813 22.5362 35.1813 22.7988C35.1814 23.0625 34.9668 23.2769 34.7032 23.2769Z" stroke="#0A0A0A" stroke-width="0.2" mask="url(#path-2-outside-1_227_8008)"/>
<path d="M34.5866 35.1814H34.0412C33.9083 34.1078 32.9922 33.2735 31.8833 33.2735H31.2393V20.301C31.2393 20.1528 31.1191 20.0326 30.9709 20.0326C30.8228 20.0326 30.7026 20.1528 30.7026 20.301V33.2735H30.1765C29.0676 33.2735 28.1515 34.1078 28.0186 35.1814H27.4733C27.3252 35.1814 27.205 35.3016 27.205 35.4497C27.205 35.5979 27.3252 35.7181 27.4733 35.7181H34.5866C34.7348 35.7181 34.855 35.5979 34.855 35.4497C34.855 35.3016 34.7348 35.1814 34.5866 35.1814ZM28.559 35.1814C28.6875 34.4046 29.3639 33.8102 30.1765 33.8102H31.8833C32.6959 33.8102 33.3724 34.4046 33.5008 35.1814H28.559Z" stroke="#0A0A0A" stroke-width="0.2" mask="url(#path-2-outside-1_227_8008)"/>
</g>
<defs>
<clipPath id="clip0_227_8008">
<rect width="24" height="24" fill="white" transform="translate(12 12)"/>
</clipPath>
</defs>
</svg>
