<svg width="48" height="48" viewBox="0 0 48 48" fill="none" xmlns="http://www.w3.org/2000/svg">
<circle cx="24" cy="24" r="23.5" stroke="#E0E0E0"/>
<g clip-path="url(#clip0_227_8048)">
<path d="M24.0007 15.7383C19.4448 15.7383 15.7383 19.4448 15.7383 24.0007C15.7383 28.5565 19.4448 32.263 24.0007 32.263C28.5565 32.263 32.263 28.5565 32.263 24.0007C32.263 19.4448 28.5565 15.7383 24.0007 15.7383ZM24.0007 31.5127C19.8584 31.5127 16.4883 28.1425 16.4883 24.0003C16.4883 19.858 19.8584 16.4883 24.0007 16.4883C28.1429 16.4883 31.513 19.8584 31.513 24.0007C31.513 28.1429 28.1429 31.5127 24.0007 31.5127Z" fill="#0A0A0A"/>
<path d="M24 12.75C17.7968 12.75 12.75 17.7968 12.75 24C12.75 30.2033 17.7968 35.25 24 35.25C30.2033 35.25 35.25 30.2033 35.25 24C35.25 17.7968 30.2033 12.75 24 12.75ZM24 34.5C18.2104 34.5 13.5 29.7896 13.5 24C13.5 18.2104 18.2104 13.5 24 13.5C29.7896 13.5 34.5 18.2104 34.5 24C34.5 29.7896 29.7896 34.5 24 34.5Z" fill="#0A0A0A"/>
<path d="M23.5323 20.9585H23.9936C23.997 20.9585 23.9996 20.9603 24.0026 20.9603C24.0056 20.9603 24.0086 20.9585 24.0116 20.9585H24.4695C25.2045 20.9585 25.8026 21.5566 25.8026 22.2916C25.8026 22.4986 25.9706 22.6666 26.1776 22.6666C26.3846 22.6666 26.5526 22.4986 26.5526 22.2916C26.5526 21.143 25.6181 20.2085 24.4695 20.2085H24.3776V19.0332C24.3776 18.8262 24.2096 18.6582 24.0026 18.6582C23.7956 18.6582 23.6276 18.8262 23.6276 19.0332V20.2085H23.5323C22.3837 20.2085 21.4492 21.143 21.4492 22.2916C21.4492 23.4402 22.3837 24.3747 23.5323 24.3747H24.4695C25.2045 24.3747 25.8026 24.9728 25.8026 25.7078C25.8026 26.4428 25.2045 27.041 24.4695 27.041H23.5323C22.7973 27.041 22.1992 26.4428 22.1992 25.7078C22.1992 25.5008 22.0312 25.3328 21.8242 25.3328C21.6172 25.3328 21.4492 25.5008 21.4492 25.7078C21.4492 26.8565 22.3837 27.791 23.5323 27.791H23.6276V28.9692C23.6276 29.1762 23.7956 29.3442 24.0026 29.3442C24.2096 29.3442 24.3776 29.1762 24.3776 28.9692V27.791H24.4695C25.6181 27.791 26.5526 26.8565 26.5526 25.7078C26.5526 24.5592 25.6181 23.6247 24.4695 23.6247H23.5323C22.7973 23.6247 22.1992 23.0266 22.1992 22.2916C22.1992 21.5566 22.7973 20.9585 23.5323 20.9585Z" fill="#0A0A0A"/>
</g>
<defs>
<clipPath id="clip0_227_8048">
<rect width="24" height="24" fill="white" transform="translate(12 12)"/>
</clipPath>
</defs>
</svg>
