<svg width="32" height="33" viewBox="0 0 32 33" fill="none" xmlns="http://www.w3.org/2000/svg">
<rect x="0.5" y="0.937012" width="31" height="31" rx="15.5" stroke="#EDF2F2"/>
<g clip-path="url(#clip0_227_7112)">
<path d="M18.4847 10.5894C19.4409 9.62946 20.8396 9.6093 21.6139 10.3866C22.3897 11.1654 22.3688 12.5729 21.412 13.5335L19.7961 15.1556C19.6012 15.3513 19.6018 15.6679 19.7974 15.8627C19.9931 16.0576 20.3097 16.057 20.5046 15.8614L22.1204 14.2392C23.3946 12.9601 23.5546 10.9179 22.3224 9.68088C21.0888 8.44245 19.0511 8.60386 17.7762 9.88366L14.5445 13.128C13.2703 14.4071 13.1103 16.4493 14.3425 17.6863C14.5374 17.8819 14.8539 17.8826 15.0496 17.6877C15.2452 17.4928 15.2458 17.1762 15.051 16.9806C14.2752 16.2018 14.2961 14.7943 15.2529 13.8337L18.4847 10.5894Z" fill="#3A4040"/>
<path d="M17.6558 14.3139C17.4609 14.1183 17.1443 14.1177 16.9486 14.3125C16.753 14.5074 16.7524 14.824 16.9473 15.0196C17.7231 15.7984 17.7022 17.2059 16.7453 18.1665L13.5135 21.4108C12.5573 22.3708 11.1586 22.3909 10.3843 21.6136C9.60852 20.8348 9.62941 19.4273 10.5863 18.4667L12.2022 16.8445C12.3971 16.6489 12.3964 16.3323 12.2008 16.1374C12.0052 15.9426 11.6886 15.9432 11.4937 16.1388L9.87781 17.761C8.60361 19.0401 8.44363 21.0824 9.67582 22.3193C10.9095 23.5578 12.9472 23.3964 14.222 22.1166L17.4538 18.8722C18.728 17.5931 18.8879 15.5509 17.6558 14.3139Z" fill="#3A4040"/>
</g>
<defs>
<clipPath id="clip0_227_7112">
<rect width="16" height="16" fill="white" transform="translate(8 8)"/>
</clipPath>
</defs>
</svg>
