<svg width="32" height="33" viewBox="0 0 32 33" fill="none" xmlns="http://www.w3.org/2000/svg">
<rect x="0.5" y="0.937012" width="31" height="31" rx="15.5" stroke="#EDF2F2"/>
<path d="M18.6907 9.94941V9.94653H19.4409L19.7151 10.0013C19.8978 10.0368 20.0637 10.0834 20.2128 10.141C20.3619 10.1987 20.5062 10.2659 20.6456 10.3427C20.7851 10.4196 20.9116 10.4979 21.0251 10.5776C21.1376 10.6563 21.2386 10.7399 21.3281 10.8283C21.4165 10.9176 21.5546 10.9406 21.7421 10.8974C21.9297 10.8542 22.1316 10.7942 22.3481 10.7173C22.5645 10.6405 22.7785 10.5541 22.9901 10.458C23.2017 10.3619 23.3306 10.301 23.3768 10.275C23.422 10.2481 23.446 10.2337 23.4489 10.2318L23.4518 10.2275L23.4662 10.2203L23.4806 10.2131L23.495 10.2059L23.5095 10.1987L23.5124 10.1943L23.5167 10.1915L23.521 10.1886L23.5239 10.1843L23.5383 10.1799L23.5528 10.1771L23.5499 10.1987L23.5455 10.2203L23.5383 10.2419L23.5311 10.2635L23.5239 10.2779L23.5167 10.2923L23.5095 10.3139C23.5047 10.3283 23.4999 10.3475 23.495 10.3716C23.4902 10.3956 23.4445 10.4916 23.358 10.6597C23.2714 10.8278 23.1632 10.9983 23.0334 11.1712C22.9035 11.3441 22.7871 11.4747 22.6842 11.5631C22.5804 11.6524 22.5116 11.7148 22.4779 11.7503C22.4442 11.7868 22.4034 11.8205 22.3553 11.8512L22.2831 11.8987L22.2687 11.9059L22.2543 11.9132L22.2514 11.9175L22.2471 11.9204L22.2427 11.9232L22.2399 11.9276L22.2254 11.9348L22.211 11.942L22.2081 11.9463L22.2038 11.9492L22.1995 11.9521L22.1966 11.9564L22.1937 11.9607L22.1894 11.9636L22.185 11.9665L22.1821 11.9708H22.2543L22.6583 11.8843C22.9276 11.8267 23.1849 11.7571 23.4301 11.6754L23.8197 11.5458L23.8629 11.5314L23.8846 11.5242L23.899 11.5169L23.9134 11.5097L23.9279 11.5025L23.9423 11.4953L23.9711 11.491L24 11.4881V11.5169L23.9928 11.5198L23.9856 11.5242L23.9827 11.5285L23.9784 11.5314L23.974 11.5342L23.9711 11.5386L23.9683 11.5429L23.9639 11.5458L23.9596 11.5486L23.9567 11.553L23.9538 11.5573L23.9495 11.5602L23.9423 11.5746L23.9351 11.589L23.9307 11.5919C23.9288 11.5947 23.8678 11.6764 23.7475 11.8368C23.6273 11.9982 23.5624 12.0798 23.5528 12.0817C23.5431 12.0846 23.5297 12.099 23.5124 12.1249C23.496 12.1518 23.394 12.2589 23.2065 12.4462C23.0189 12.6335 22.8352 12.8002 22.6554 12.9462C22.4746 13.0931 22.3832 13.2737 22.3813 13.4879C22.3784 13.7011 22.3673 13.9422 22.3481 14.2111C22.3288 14.4801 22.2928 14.7706 22.2399 15.0828C22.187 15.395 22.1052 15.7479 21.9946 16.1417C21.884 16.5355 21.7493 16.9198 21.5906 17.2943C21.4319 17.6689 21.266 18.0051 21.0929 18.3029C20.9197 18.6006 20.761 18.8528 20.6168 19.0593C20.4725 19.2658 20.3258 19.4603 20.1767 19.6428C20.0277 19.8253 19.8391 20.0308 19.6112 20.2594C19.3823 20.487 19.2572 20.6119 19.2361 20.634C19.214 20.6551 19.1197 20.7339 18.9533 20.8703C18.7879 21.0076 18.6099 21.145 18.4195 21.2823C18.23 21.4187 18.0559 21.5325 17.8972 21.6238C17.7385 21.715 17.5471 21.8192 17.323 21.9364C17.0999 22.0546 16.8584 22.1641 16.5987 22.2649C16.339 22.3658 16.0649 22.4594 15.7764 22.5459C15.4878 22.6323 15.2089 22.6996 14.9396 22.7476C14.6703 22.7956 14.3649 22.8364 14.0234 22.87L13.5113 22.9205V22.9277H12.5735V22.9205L12.4509 22.9133C12.3691 22.9085 12.3018 22.9037 12.2489 22.8989C12.196 22.8941 11.9964 22.8676 11.6501 22.8196C11.3039 22.7716 11.0322 22.7236 10.835 22.6755C10.6378 22.6275 10.3445 22.5363 9.95491 22.4018C9.56537 22.2673 9.2321 22.1314 8.95509 21.9941C8.67905 21.8577 8.50593 21.7712 8.43571 21.7347C8.36646 21.6992 8.28855 21.655 8.20198 21.6022L8.07214 21.5229L8.06927 21.5186L8.06492 21.5157L8.0606 21.5129L8.05771 21.5085L8.04328 21.5013L8.02885 21.4941L8.02598 21.4898L8.02164 21.4869L8.01731 21.484L8.01443 21.4797L8.01156 21.4754L8.00721 21.4725H8V21.4437L8.01443 21.4466L8.02885 21.4509L8.09378 21.4581C8.13706 21.4629 8.25489 21.4701 8.44725 21.4797C8.63962 21.4893 8.844 21.4893 9.06041 21.4797C9.27683 21.4701 9.49806 21.4485 9.72408 21.4149C9.95011 21.3813 10.217 21.3236 10.5248 21.242C10.8326 21.1603 11.1154 21.0633 11.3731 20.951C11.63 20.8376 11.8127 20.7531 11.9214 20.6974C12.0291 20.6426 12.1936 20.5408 12.4148 20.392L12.7466 20.1686L12.7495 20.1643L12.7538 20.1614L12.7582 20.1586L12.761 20.1542L12.7639 20.1499L12.7683 20.147L12.7726 20.1441L12.7755 20.1398L12.7899 20.1355L12.8043 20.1326L12.8072 20.1182L12.8115 20.1038L12.8159 20.1009L12.8188 20.0966L12.7033 20.0894C12.6264 20.0846 12.5518 20.0798 12.4797 20.075C12.4076 20.0702 12.2946 20.0486 12.1407 20.0102C11.9868 19.9717 11.8209 19.9141 11.6429 19.8373C11.465 19.7604 11.2919 19.6692 11.1235 19.5635C10.9552 19.4579 10.8335 19.37 10.7585 19.2999C10.6845 19.2307 10.5883 19.1327 10.47 19.006C10.3526 18.8782 10.2507 18.7471 10.1641 18.6126C10.0775 18.4782 9.99483 18.323 9.91597 18.1473L9.79621 17.8851L9.789 17.8634L9.78179 17.8418L9.77746 17.8274L9.77457 17.813L9.79621 17.8159L9.81785 17.8202L9.97656 17.8418C10.0824 17.8562 10.2483 17.861 10.4743 17.8562C10.7003 17.8514 10.8566 17.8418 10.9432 17.8274C11.0298 17.813 11.0827 17.8034 11.1019 17.7986L11.1307 17.7914L11.1668 17.7842L11.2029 17.777L11.2058 17.7727L11.2101 17.7698L11.2144 17.7669L11.2173 17.7626L11.1885 17.7554L11.1596 17.7482L11.1307 17.741L11.1019 17.7338L11.073 17.7266C11.0538 17.7218 11.0201 17.7122 10.972 17.6978C10.924 17.6833 10.7941 17.6305 10.5825 17.5393C10.3709 17.448 10.2026 17.3592 10.0775 17.2727C9.9522 17.186 9.83267 17.0912 9.71975 16.9889C9.60721 16.8852 9.48363 16.7517 9.34896 16.5884C9.21431 16.4251 9.09409 16.2354 8.98828 16.0193C8.88248 15.8032 8.80313 15.5967 8.75023 15.3998C8.69753 15.204 8.66277 15.0039 8.64636 14.8019L8.62038 14.4993L8.63481 14.5022L8.64923 14.5065L8.66366 14.5137L8.67809 14.5209L8.69252 14.5281L8.70694 14.5353L8.93057 14.6362C9.07966 14.7034 9.26481 14.761 9.48602 14.8091C9.70725 14.8571 9.8395 14.8835 9.88278 14.8883L9.9477 14.8955H10.0775L10.0747 14.8912L10.0703 14.8883L10.066 14.8854L10.0631 14.8811L10.0602 14.8768L10.0559 14.8739L10.0516 14.871L10.0487 14.8667L10.0343 14.8595L10.0198 14.8523L10.017 14.848L10.0126 14.8451L10.0083 14.8422L10.0054 14.8379L9.99098 14.8307L9.97656 14.8235L9.97368 14.8191C9.9708 14.8172 9.92944 14.7865 9.84959 14.7269C9.77072 14.6664 9.68801 14.5881 9.60144 14.4921C9.51488 14.396 9.42831 14.2952 9.34175 14.1895C9.25503 14.0836 9.17778 13.9703 9.11091 13.851C9.04359 13.7309 8.97241 13.5782 8.89739 13.3928C8.82333 13.2084 8.76706 13.0225 8.72858 12.8352C8.69012 12.6479 8.66848 12.463 8.66366 12.2805C8.65886 12.098 8.66366 11.942 8.67809 11.8123C8.69252 11.6826 8.72137 11.5362 8.76465 11.3729C8.80794 11.2096 8.87046 11.0367 8.95221 10.8542L9.07484 10.5805L9.08206 10.5589L9.08927 10.5372L9.09361 10.5344L9.09648 10.53L9.09937 10.5257L9.1037 10.5228L9.10804 10.5257L9.11091 10.53L9.1138 10.5344L9.11812 10.5372L9.12247 10.5401L9.12534 10.5444L9.12822 10.5488L9.13255 10.5516L9.13977 10.5661L9.14698 10.5805L9.15132 10.5833L9.15419 10.5877L9.34896 10.8038C9.47881 10.9479 9.63271 11.1087 9.81064 11.2864C9.98859 11.4641 10.0872 11.5563 10.1064 11.5631C10.1256 11.5707 10.1497 11.5928 10.1785 11.6293C10.2074 11.6649 10.3036 11.7499 10.4671 11.8843C10.6306 12.0188 10.8446 12.1749 11.1091 12.3526C11.3736 12.5303 11.667 12.7056 11.9892 12.8785C12.3114 13.0513 12.6577 13.2074 13.028 13.3467C13.3983 13.486 13.658 13.5772 13.807 13.6204C13.9561 13.6637 14.211 13.7189 14.5717 13.7861C14.9324 13.8534 15.2041 13.8966 15.3868 13.9158C15.5696 13.935 15.6946 13.946 15.7619 13.9489L15.8629 13.9518L15.8601 13.9302L15.8557 13.9086L15.8269 13.7285C15.8076 13.6084 15.798 13.4403 15.798 13.2242C15.798 13.0081 15.8149 12.8088 15.8485 12.6263C15.8822 12.4438 15.9327 12.2589 16 12.0716C16.0673 11.8843 16.1332 11.734 16.1977 11.6207C16.2631 11.5083 16.3487 11.3801 16.4545 11.236C16.5603 11.0919 16.6973 10.9431 16.8656 10.7894C17.034 10.6357 17.2263 10.4988 17.4427 10.3788C17.6592 10.2587 17.8587 10.1674 18.0415 10.105C18.2242 10.0426 18.3781 10.0018 18.5032 9.98255C18.6282 9.96335 18.6907 9.9523 18.6907 9.94941Z" fill="#3A4040"/>
</svg>
