<svg width="56" height="57" viewBox="0 0 56 57" fill="none" xmlns="http://www.w3.org/2000/svg">
<path d="M28.0638 0H27.9362C12.5075 0 0 12.5112 0 27.9445V28.072C0 43.5053 12.5075 56.0165 27.9362 56.0165H28.0638C43.4925 56.0165 56 43.5053 56 28.072V27.9445C56 12.5112 43.4925 0 28.0638 0Z" fill="black"/>
<path d="M42.1977 22.248V27.537C41.2736 27.4467 40.0729 27.2368 38.7447 26.7501C37.0103 26.1142 35.7193 25.2448 34.8737 24.5716V35.2615L34.8522 35.2282C34.8659 35.4401 34.8737 35.656 34.8737 35.8738C34.8737 41.1825 30.5555 45.504 25.2464 45.504C19.9374 45.504 15.6191 41.1825 15.6191 35.8738C15.6191 30.5652 19.9374 26.2418 25.2464 26.2418C25.7664 26.2418 26.2765 26.283 26.7748 26.3634V31.5759C26.2961 31.4052 25.7821 31.3129 25.2464 31.3129C22.7332 31.3129 20.6869 33.3579 20.6869 35.8738C20.6869 38.3898 22.7332 40.4348 25.2464 40.4348C27.7597 40.4348 29.806 38.3878 29.806 35.8738C29.806 35.7796 29.8041 35.6854 29.7982 35.5912V14.8179H35.0817C35.1013 15.2653 35.119 15.7167 35.1386 16.1642C35.1739 17.0453 35.4878 17.8912 36.0352 18.584C36.6768 19.3984 37.6244 20.3444 38.9546 21.0999C40.2004 21.8064 41.3698 22.1087 42.1977 22.2519V22.248Z" fill="#FF004F"/>
<path d="M40.3813 17.9537V23.2427C39.4572 23.1525 38.2565 22.9425 36.9283 22.4558C35.1939 21.8199 33.9029 20.9505 33.0573 20.2774V30.9673L33.0357 30.9339C33.0495 31.1458 33.0573 31.3617 33.0573 31.5796C33.0573 36.8882 28.7391 41.2097 23.43 41.2097C18.121 41.2097 13.8027 36.8882 13.8027 31.5796C13.8027 26.2709 18.121 21.9475 23.43 21.9475C23.95 21.9475 24.4601 21.9887 24.9584 22.0691V27.2816C24.4797 27.1109 23.9656 27.0186 23.43 27.0186C20.9168 27.0186 18.8704 29.0636 18.8704 31.5796C18.8704 34.0955 20.9168 36.1405 23.43 36.1405C25.9433 36.1405 27.9896 34.0936 27.9896 31.5796C27.9896 31.4854 27.9876 31.3912 27.9818 31.297V10.5197H33.2653C33.2849 10.9671 33.3026 11.4185 33.3222 11.8659C33.3575 12.7471 33.6714 13.593 34.2188 14.2857C34.8604 15.1002 35.808 16.0461 37.1382 16.8017C38.384 17.5063 39.5533 17.8105 40.3813 17.9537Z" fill="#00F7EF"/>
<path d="M41.5375 20.2656V25.5546C40.6135 25.4643 39.4128 25.2543 38.0845 24.7676C36.3501 24.1318 35.0592 23.2624 34.2136 22.5892V33.2791L34.192 33.2458C34.2057 33.4577 34.2136 33.6736 34.2136 33.8914C34.2136 39.2001 29.8953 43.5216 24.5863 43.5216C19.2772 43.5216 14.959 39.2001 14.959 33.8914C14.959 28.5828 19.2772 24.2593 24.5863 24.2593C25.1062 24.2593 25.6163 24.3005 26.1147 24.381V29.5935C25.6359 29.4228 25.1219 29.3305 24.5863 29.3305C22.073 29.3305 20.0267 31.3755 20.0267 33.8914C20.0267 36.4074 22.073 38.4524 24.5863 38.4524C27.0995 38.4524 29.1459 36.4054 29.1459 33.8914C29.1459 33.7972 29.1439 33.703 29.138 33.6088V12.8354H34.4215C34.4412 13.2829 34.4588 13.7343 34.4785 14.1817C34.5138 15.0629 34.8277 15.9088 35.3751 16.6015C36.0166 17.416 36.9642 18.3619 38.2944 19.1175C39.5403 19.8221 40.7096 20.1262 41.5375 20.2695V20.2656Z" fill="white"/>
</svg>
