<svg width="80" height="80" viewBox="0 0 80 80" fill="none" xmlns="http://www.w3.org/2000/svg">
<path d="M27.4175 15.9162C24.9774 16.8379 23.229 19.1784 23.229 21.9367C23.229 22.9989 23.5119 23.9874 23.9687 24.8726C22.0332 25.6167 20.6484 27.4828 20.6484 29.6785C20.6484 31.8748 22.0332 33.7403 23.9687 34.485C23.5119 35.3702 23.229 36.3587 23.229 37.4203C23.229 40.1792 24.9774 42.5197 27.4175 43.4408C27.224 43.9814 27.0999 44.556 27.0999 45.1621C27.0999 48.0085 29.4147 50.3233 32.2611 50.3233C32.9038 50.3233 33.513 50.1903 34.0806 49.9761C34.9167 51.7018 36.6701 52.9039 38.7126 52.9039C41.5591 52.9039 43.8738 50.5891 43.8738 47.7427V11.6143C43.8738 8.76848 41.5591 6.45312 38.7126 6.45312C36.6701 6.45312 34.9167 7.65585 34.0806 9.38087C33.513 9.16666 32.9038 9.03372 32.2611 9.03372C29.4147 9.03372 27.0999 11.3491 27.0999 14.1949C27.0999 14.8016 27.224 15.3756 27.4175 15.9162ZM32.2611 11.6143C33.6844 11.6143 34.8417 12.7717 34.8417 14.1949H37.4223C37.4223 12.955 36.9643 11.8298 36.2328 10.9396C36.5321 9.84583 37.5244 9.03372 38.7126 9.03372C40.1358 9.03372 41.2932 10.1911 41.2932 11.6143V47.7427C41.2932 49.1659 40.1358 50.3233 38.7126 50.3233C37.5244 50.3233 36.5321 49.5118 36.2328 48.4174C36.9643 47.5272 37.4223 46.4026 37.4223 45.1621H34.8417C34.8417 46.5853 33.6844 47.7427 32.2611 47.7427C30.8379 47.7427 29.6805 46.5853 29.6805 45.1621C29.6805 43.7388 30.8379 42.5815 32.2611 42.5815V40.0009C31.0042 40.0009 29.8664 40.4709 28.9711 41.2194C27.1749 40.8848 25.8096 39.3123 25.8096 37.4203C25.8096 35.2864 27.5466 33.5494 29.6805 33.5494C31.8151 33.5494 33.5514 35.2864 33.5514 37.4203H36.132C36.132 33.8631 33.2383 30.9688 29.6805 30.9688C28.2226 30.9688 26.8908 31.4734 25.8096 32.2931V32.2591C24.3864 32.2591 23.229 31.1017 23.229 29.6785C23.229 28.2553 24.3864 27.0979 25.8096 27.0979V27.0645C26.8908 27.8842 28.2226 28.3882 29.6805 28.3882C33.2383 28.3882 36.132 25.4945 36.132 21.9367H33.5514C33.5514 24.0712 31.8151 25.8076 29.6805 25.8076C27.5466 25.8076 25.8096 24.0712 25.8096 21.9367C25.8096 20.0454 27.1749 18.4728 28.9711 18.1383C29.8664 18.8867 31.0042 19.3561 32.2611 19.3561V16.7755C30.8379 16.7755 29.6805 15.6181 29.6805 14.1949C29.6805 12.7717 30.8379 11.6143 32.2611 11.6143Z" fill="#3BBDBA"/>
<path d="M58.0658 9.03372C57.4232 9.03372 56.8146 9.16666 56.2469 9.38087C55.4102 7.65585 53.6569 6.45312 51.6143 6.45312C48.7678 6.45312 46.4531 8.76848 46.4531 11.6143V47.7427C46.4531 50.5891 48.7678 52.9039 51.6143 52.9039C53.6569 52.9039 55.4102 51.7018 56.2469 49.9761C56.8146 50.1903 57.4232 50.3233 58.0658 50.3233C60.9123 50.3233 63.227 48.0085 63.227 45.1621C63.227 44.556 63.1035 43.9814 62.9095 43.4408C65.3496 42.5197 67.0979 40.1792 67.0979 37.4203C67.0979 36.3587 66.8156 35.3702 66.3589 34.485C68.2943 33.7403 69.6785 31.8748 69.6785 29.6785C69.6785 27.4828 68.2943 25.6167 66.3589 24.8726C66.8156 23.9874 67.0979 22.9989 67.0979 21.9367C67.0979 19.1784 65.3496 16.8379 62.9095 15.9162C63.1035 15.3756 63.227 14.8016 63.227 14.1949C63.227 11.3491 60.9123 9.03372 58.0658 9.03372ZM64.5173 21.9367C64.5173 24.0712 62.7809 25.8076 60.6464 25.8076C58.5125 25.8076 56.7755 24.0712 56.7755 21.9367H54.1949C54.1949 25.4945 57.0893 28.3882 60.6464 28.3882C62.1043 28.3882 63.4362 27.8842 64.5173 27.0645V27.0979C65.9405 27.0979 67.0979 28.2553 67.0979 29.6785C67.0979 31.1017 65.9405 32.2591 64.5173 32.2591V32.2931C63.4362 31.4734 62.1043 30.9688 60.6464 30.9688C57.0893 30.9688 54.1949 33.8631 54.1949 37.4203H56.7755C56.7755 35.2864 58.5125 33.5494 60.6464 33.5494C62.7809 33.5494 64.5173 35.2864 64.5173 37.4203C64.5173 39.3123 63.152 40.8848 61.3564 41.2194C60.4605 40.4709 59.3227 40.0009 58.0658 40.0009V42.5815C59.489 42.5815 60.6464 43.7388 60.6464 45.1621C60.6464 46.5853 59.489 47.7427 58.0658 47.7427C56.6426 47.7427 55.4852 46.5853 55.4852 45.1621H52.9046C52.9046 46.4026 53.3626 47.5272 54.0941 48.4174C53.7948 49.5118 52.8026 50.3233 51.6143 50.3233C50.1911 50.3233 49.0337 49.1659 49.0337 47.7427V11.6143C49.0337 10.1911 50.1911 9.03372 51.6143 9.03372C52.8026 9.03372 53.7948 9.84583 54.0941 10.9396C53.3626 11.8298 52.9046 12.955 52.9046 14.1949H55.4852C55.4852 12.7717 56.6426 11.6143 58.0658 11.6143C59.489 11.6143 60.6464 12.7717 60.6464 14.1949C60.6464 15.6181 59.489 16.7755 58.0658 16.7755V19.3561C59.3227 19.3561 60.4605 18.8867 61.3564 18.1383C63.152 18.4728 64.5173 20.0454 64.5173 21.9367Z" fill="#3BBDBA"/>
<path d="M65.4787 8.04781C59.4493 2.38071 51.5525 -0.460722 43.2651 0.0609412L43.4252 2.63587C50.9975 2.16524 58.205 4.75465 63.7121 9.92782C69.2217 15.1054 72.2565 22.1208 72.2565 29.6779C72.2565 38.785 67.7172 47.2299 60.1134 52.2689C57.4906 54.0078 55.506 56.4882 54.2831 59.3548H35.9839C34.744 56.4674 32.7519 53.9693 30.1246 52.2147C22.2883 46.9773 17.7855 38.2306 18.0785 28.8136L15.4992 28.7335C15.1778 39.0458 20.1103 48.6261 28.6913 54.3593C30.5865 55.6263 32.0998 57.3513 33.1544 59.3548H29.6767V61.9354H34.1839C34.434 62.7715 34.6344 63.6283 34.7358 64.516H32.2573V67.0966H34.8379V70.9675C34.8379 71.6813 35.4163 72.2578 36.1282 72.2578H37.4185C37.4185 76.5275 40.8906 79.9996 45.1603 79.9996C49.43 79.9996 52.9021 76.5275 52.9021 72.2578H54.1924C54.9049 72.2578 55.4827 71.6813 55.4827 70.9675V67.0966H58.0633V64.516H55.5734C55.6647 63.6296 55.8468 62.7702 56.0919 61.9354H60.6439V59.3548H57.11C58.1496 57.3734 59.6541 55.6698 61.5398 54.4211C69.8656 48.8995 74.8371 39.6507 74.8371 29.6779C74.8371 21.521 71.4255 13.6362 65.4787 8.04781ZM45.1603 77.419C42.3138 77.419 39.9991 75.1043 39.9991 72.2578H50.3215C50.3215 75.1043 48.0067 77.419 45.1603 77.419ZM52.9021 69.6772H37.4185V67.0966H52.9021V69.6772ZM52.994 64.516H37.3152C37.2288 63.6377 37.0896 62.7746 36.8779 61.9354H53.3954C53.19 62.7733 53.0709 63.6403 52.994 64.516Z" fill="#3BBDBA"/>
<path d="M14.1965 9.03404C17.043 9.03404 19.3577 11.3494 19.3577 14.1952C19.3577 14.9091 19.9361 15.4855 20.648 15.4855C21.3606 15.4855 21.9383 14.9091 21.9383 14.1952C21.9383 11.3494 24.2531 9.03404 27.0995 9.03404C27.8121 9.03404 28.3898 8.45757 28.3898 7.74374C28.3898 7.03055 27.8121 6.45344 27.0995 6.45344C24.2531 6.45344 21.9383 4.13872 21.9383 1.29225C21.9383 0.579059 21.3606 0.00195312 20.648 0.00195312C19.9361 0.00195312 19.3577 0.579059 19.3577 1.29225C19.3577 4.13872 17.043 6.45344 14.1965 6.45344C13.4846 6.45344 12.9062 7.03055 12.9062 7.74374C12.9062 8.45757 13.4846 9.03404 14.1965 9.03404ZM20.648 5.56699C21.2214 6.42887 21.9629 7.17105 22.8248 7.74374C21.9629 8.31707 21.2214 9.05861 20.648 9.92049C20.0753 9.05861 19.3332 8.31707 18.4713 7.74374C19.3332 7.17105 20.0753 6.42887 20.648 5.56699Z" fill="#3BBDBA"/>
<path d="M19.3573 21.9364C20.0699 21.9364 20.6476 21.3599 20.6476 20.6461C20.6476 19.9329 20.0699 19.3558 19.3573 19.3558C16.5109 19.3558 14.1962 17.0411 14.1962 14.1946C14.1962 13.4814 13.6184 12.9043 12.9059 12.9043C12.1939 12.9043 11.6156 13.4814 11.6156 14.1946C11.6156 17.0411 9.30083 19.3558 6.45436 19.3558C5.74243 19.3558 5.16406 19.9329 5.16406 20.6461C5.16406 21.3599 5.74243 21.9364 6.45436 21.9364C9.30083 21.9364 11.6156 24.2517 11.6156 27.0976C11.6156 27.8114 12.1939 28.3879 12.9059 28.3879C13.6184 28.3879 14.1962 27.8114 14.1962 27.0976C14.1962 24.2517 16.5109 21.9364 19.3573 21.9364ZM12.9059 22.8228C12.3332 21.961 11.591 21.2194 10.7291 20.6461C11.591 20.0734 12.3319 19.3312 12.9059 18.4693C13.4792 19.3312 14.2207 20.0721 15.0826 20.6461C14.2207 21.2194 13.4792 21.961 12.9059 22.8228Z" fill="#3BBDBA"/>
</svg>
