<svg width="80" height="80" viewBox="0 0 80 80" fill="none" xmlns="http://www.w3.org/2000/svg">
<g clip-path="url(#clip0_279_3138)">
<path d="M18.6802 41.7491H15.3187C13.1744 41.7491 11.4297 40.0155 11.4297 37.8848C11.4297 37.2374 10.9052 36.7129 10.2578 36.7129C9.61047 36.7129 9.08594 37.2374 9.08594 37.8848C9.08594 41.3079 11.882 44.0929 15.3189 44.0929H18.6802C19.3275 44.0929 19.852 43.5684 19.852 42.921C19.852 42.2737 19.3275 41.7491 18.6802 41.7491Z" fill="#3BBDBA"/>
<path d="M29.6877 50.4238H19.6764C16.3698 50.4238 13.6797 53.103 13.6797 56.3966C13.6797 57.044 14.2042 57.5685 14.8516 57.5685C15.4989 57.5685 16.0234 57.0438 16.0234 56.3966C16.0234 54.3955 17.662 52.7676 19.6764 52.7676H29.6877C30.335 52.7676 30.8595 52.243 30.8595 51.5957C30.8595 50.9484 30.335 50.4238 29.6877 50.4238Z" fill="#3BBDBA"/>
<path d="M39.2358 50.4238H34.375C33.7277 50.4238 33.2031 50.9484 33.2031 51.5957C33.2031 52.243 33.7277 52.7676 34.375 52.7676H39.2358C39.8831 52.7676 40.4077 52.243 40.4077 51.5957C40.4077 50.9484 39.883 50.4238 39.2358 50.4238Z" fill="#3BBDBA"/>
<path d="M30.9995 27.6523C30.3522 27.6523 29.8277 28.177 29.8277 28.8242C29.8277 32.1752 27.0855 34.9012 23.7148 34.9012C23.0675 34.9012 22.543 35.4258 22.543 36.0731C22.543 36.7205 23.0675 37.245 23.7148 37.245C28.3778 37.245 32.1714 33.4675 32.1714 28.8242C32.1714 28.177 31.6469 27.6523 30.9995 27.6523Z" fill="#3BBDBA"/>
<path d="M28.8403 9.9364C26.041 9.75671 23.6138 11.8791 23.4322 14.6691C23.3902 15.315 23.8797 15.8725 24.5255 15.9147C24.5514 15.9164 24.5772 15.9172 24.6028 15.9172C25.2153 15.9172 25.7306 15.4412 25.7711 14.8214C25.8686 13.3201 27.178 12.18 28.6897 12.2753C29.3361 12.3186 29.8928 11.8272 29.9344 11.1812C29.9761 10.5353 29.4863 9.97812 28.8403 9.9364Z" fill="#3BBDBA"/>
<path d="M24.8984 55.6406C24.2511 55.6406 23.7266 56.1652 23.7266 56.8125C23.7266 57.4598 24.2511 57.9844 24.8984 57.9844C26.8336 57.9844 28.408 59.5483 28.408 61.4705C28.408 63.3931 26.8336 64.957 24.8984 64.957C24.2511 64.957 23.7266 65.4816 23.7266 66.1289C23.7266 66.7762 24.2511 67.3008 24.8984 67.3008C28.1259 67.3008 30.7517 64.6855 30.7517 61.4705C30.7517 58.2559 28.1259 55.6406 24.8984 55.6406Z" fill="#3BBDBA"/>
<path d="M36.8906 28.0449C36.2433 28.0449 35.7188 28.5695 35.7188 29.2168C35.7188 29.8641 36.2433 30.3887 36.8906 30.3887C38.4452 30.3887 39.71 31.6445 39.71 33.1882C39.71 34.7321 38.4452 35.988 36.8906 35.988C36.2433 35.988 35.7188 36.5126 35.7188 37.1599C35.7188 37.8073 36.2433 38.3318 36.8906 38.3318C39.7377 38.3318 42.0538 36.0243 42.0538 33.1882C42.0538 30.3523 39.7377 28.0449 36.8906 28.0449Z" fill="#3BBDBA"/>
<path d="M16.2461 20.5957C15.5987 20.5957 15.0742 21.1202 15.0742 21.7676C15.0742 22.4149 15.5987 22.9395 16.2461 22.9395C18.917 22.9395 21.0898 25.0988 21.0898 27.7532C21.0898 30.4077 18.917 32.5673 16.2461 32.5673C15.5987 32.5673 15.0742 33.0918 15.0742 33.7391C15.0742 34.3865 15.5987 34.911 16.2461 34.911C20.2092 34.911 23.4336 31.7001 23.4336 27.7532C23.4336 23.8065 20.2092 20.5957 16.2461 20.5957Z" fill="#3BBDBA"/>
<path d="M71.3384 20.541C69.1358 20.541 67.3438 22.3268 67.3438 24.5218C67.3438 26.717 69.1358 28.5027 71.3384 28.5027C73.5411 28.5027 75.3331 26.717 75.3331 24.5218C75.3331 22.3268 73.5411 20.541 71.3384 20.541ZM71.3386 26.1591C70.4283 26.1591 69.6877 25.4248 69.6877 24.522C69.6875 23.6193 70.4281 22.8849 71.3386 22.8849C72.2489 22.8849 72.9895 23.6193 72.9895 24.522C72.9895 25.4246 72.2489 26.1591 71.3386 26.1591Z" fill="#3BBDBA"/>
<path d="M75.2525 50.5332C73.0497 50.5332 71.2578 52.319 71.2578 54.5141C71.2578 56.7093 73.0498 58.4949 75.2525 58.4949C77.4552 58.4949 79.247 56.7091 79.247 54.5141C79.247 52.3191 77.4552 50.5332 75.2525 50.5332ZM75.2525 56.1512C74.3422 56.1512 73.6016 55.4168 73.6016 54.5141C73.6016 53.6115 74.3422 52.877 75.2525 52.877C76.1628 52.877 76.9033 53.6113 76.9033 54.5141C76.9034 55.4168 76.1628 56.1512 75.2525 56.1512Z" fill="#3BBDBA"/>
<path d="M72.795 36.4885C72.119 36.4887 71.4821 36.6574 70.9234 36.9541L68.639 34.681C68.18 34.2244 67.4382 34.2265 66.9818 34.6851C66.5253 35.1438 66.5272 35.8857 66.9859 36.3423L69.2645 38.6096C68.9687 39.1652 68.8003 39.7979 68.8003 40.4693C68.8003 42.6644 70.5923 44.4502 72.795 44.4502C74.9978 44.4502 76.7896 42.6644 76.7896 40.4693C76.7896 38.2743 74.9976 36.4885 72.795 36.4885ZM72.7951 42.1066C71.8848 42.1066 71.1442 41.3723 71.1442 40.4694C71.1442 39.5669 71.8848 38.8324 72.7951 38.8324C73.7054 38.8324 74.4461 39.5668 74.4461 40.4694C74.4461 41.3721 73.7054 42.1066 72.7951 42.1066Z" fill="#3BBDBA"/>
<path d="M70.1548 62.7656C67.952 62.7656 66.1602 64.5514 66.1602 66.7466C66.1602 68.9417 67.9522 70.7275 70.1548 70.7275C72.3577 70.7275 74.1495 68.9417 74.1495 66.7466C74.1495 64.5514 72.3577 62.7656 70.1548 62.7656ZM70.1548 68.3836C69.2445 68.3836 68.5039 67.6492 68.5039 66.7464C68.5039 65.8438 69.2445 65.1092 70.1548 65.1092C71.0652 65.1092 71.8058 65.8436 71.8058 66.7464C71.8059 67.6492 71.0653 68.3836 70.1548 68.3836Z" fill="#3BBDBA"/>
<path d="M56.4442 22.0227C57.1891 22.0227 58.0778 21.6558 58.6058 21.1305L63.133 16.6255C63.588 16.8053 64.083 16.9053 64.6013 16.9053C66.8041 16.9053 68.5959 15.1195 68.5959 12.9244C68.5959 10.7294 66.8039 8.94375 64.6013 8.94375C62.3986 8.94375 60.6067 10.7295 60.6067 12.9244C60.6067 13.7486 60.8594 14.5153 61.2919 15.1513L56.953 19.4688C56.8613 19.5567 56.5709 19.6767 56.4442 19.6789H46.7714V11.9216H49.4922C49.9955 13.5464 51.5164 14.7306 53.31 14.7306C55.5128 14.7306 57.3047 12.9448 57.3047 10.7497C57.3047 8.55469 55.5127 6.76891 53.31 6.76891C51.5164 6.76891 49.9955 7.95297 49.4922 9.57781H46.7714V9.40031C46.7714 4.21688 42.5362 0 37.3303 0C33.6087 0 30.2703 2.16906 28.7469 5.48563C28.5127 5.46906 28.2791 5.46063 28.0473 5.46063C22.6367 5.46063 18.2203 9.78031 18.0948 15.1381C17.6277 15.0716 17.1552 15.038 16.6806 15.038C11.1912 15.038 6.72547 19.4845 6.72547 24.95C6.72547 26.1497 6.93594 27.3105 7.35219 28.4147C3.25469 30.8459 0.753906 35.1891 0.753906 40C0.753906 42.5831 1.48969 45.0941 2.88156 47.2611C4.02813 49.0461 5.57281 50.5319 7.38969 51.6072C6.95313 52.7386 6.72547 53.9502 6.72547 55.1667C6.72547 57.5795 7.60641 59.9047 9.20594 61.7139C9.63453 62.1987 10.3752 62.2444 10.8602 61.8156C11.3452 61.3869 11.3906 60.6464 10.9619 60.1614C9.74125 58.7809 9.06922 57.007 9.06922 55.1666C9.06922 53.9284 9.36187 52.7475 9.93812 51.6562C10.6259 50.3498 11.6945 49.2467 13.0462 48.5148C13.6155 48.2066 13.8269 47.4955 13.5186 46.9264C13.2105 46.357 12.4991 46.1453 11.9302 46.4541C10.5303 47.2123 9.36328 48.2756 8.49062 49.5344C5.13969 47.5186 3.09766 43.9544 3.09766 40C3.09766 35.7719 5.43953 31.9816 9.22047 30.0631C9.22047 30.0631 11.4083 28.8459 14.3127 28.8459C14.96 28.8459 15.4845 28.3214 15.4845 27.6741C15.4845 27.0267 14.96 26.5022 14.3127 26.5022C12.6102 26.5022 10.9805 26.817 9.47797 27.39C9.20859 26.6088 9.06953 25.7923 9.06953 24.9502C9.06953 20.7769 12.4839 17.3819 16.6809 17.3819C17.4698 17.3819 18.2503 17.5027 19.0006 17.7409C19.3852 17.863 19.8053 17.7787 20.113 17.5178C20.4208 17.2569 20.5727 16.8562 20.515 16.4569C20.4627 16.0931 20.4361 15.7284 20.4361 15.3728C20.4361 11.1997 23.8506 7.80453 28.0477 7.80453C28.4598 7.80453 28.8811 7.83984 29.3003 7.90875C32.9031 8.50469 35.6591 11.6239 35.6591 15.3728C35.6591 16.0202 36.1836 16.5447 36.8309 16.5447C37.4783 16.5447 38.0028 16.0202 38.0028 15.3728C38.0028 10.9819 35.1192 7.25109 31.1389 5.95328C32.3762 3.75297 34.7278 2.34375 37.3303 2.34375C41.2437 2.34375 44.4277 5.50937 44.4277 9.40031V9.53047H42.1738C41.5264 9.53047 41.0019 10.055 41.0019 10.7023C41.0019 11.3497 41.5264 11.8742 42.1738 11.8742H44.4277V19.6787H34.9495C32.805 19.6787 31.0603 17.9453 31.0603 15.8147C31.0603 15.1673 30.5358 14.6428 29.8884 14.6428C29.2411 14.6428 28.7166 15.1673 28.7166 15.8147C28.7166 19.2377 31.5127 22.0225 34.9495 22.0225H44.4277V41.75H25.4186C24.7712 41.75 24.2467 42.2745 24.2467 42.9219C24.2467 43.5692 24.7712 44.0938 25.4186 44.0938H44.4277V60.1838H40.8064C37.4998 60.1838 34.8098 62.863 34.8098 66.1564C34.8098 66.8037 35.3344 67.3283 35.9817 67.3283C36.6291 67.3283 37.1536 66.8037 37.1536 66.1564C37.1536 64.1555 38.7922 62.5275 40.8064 62.5275H44.4277V70.5997C44.4277 70.7838 44.4183 70.9656 44.4044 71.1461H42.1738C41.5264 71.1461 41.0019 71.6706 41.0019 72.318C41.0019 72.9653 41.5264 73.4898 42.1738 73.4898H43.8025C42.6898 75.9433 40.2083 77.6562 37.3303 77.6562C34.7453 77.6562 32.4023 76.2616 31.1588 74.0823C32.5742 73.62 33.8769 72.8428 34.9744 71.7841C35.4402 71.3347 35.4534 70.5928 35.0041 70.1272C34.5547 69.6611 33.8128 69.648 33.3472 70.0973C32.2281 71.177 30.8292 71.8741 29.3186 72.1259C28.8927 72.1972 28.465 72.2334 28.0473 72.2334C23.8503 72.2334 20.4358 68.8383 20.4358 64.665C20.4358 64.5583 20.4422 64.4475 20.4473 64.3378C21.3933 63.9528 22.2819 63.4259 23.0744 62.7644C23.5712 62.3497 23.6377 61.6106 23.2228 61.1137C22.808 60.6169 22.0811 60.5655 21.5722 60.9653C19.2206 62.8125 16.9462 62.7838 16.0364 62.7083C15.3895 62.6534 14.8252 63.1342 14.7714 63.7791C14.7178 64.4241 15.1973 64.9903 15.8423 65.0441C16.5916 65.1059 17.3548 65.0842 18.097 64.9784C18.2636 70.2997 22.6633 74.5772 28.0475 74.5772C28.2847 74.5772 28.5239 74.5683 28.7639 74.5508C30.2955 77.8455 33.6272 80 37.3303 80C42.5361 80 46.7714 75.7831 46.7714 70.5997V68.01H52.9836C53.1108 68.0122 53.4011 68.132 53.4925 68.2198L56.2864 71C55.9084 71.608 55.6895 72.3241 55.6895 73.0903C55.6895 75.2855 57.4816 77.0713 59.6842 77.0713C61.887 77.0713 63.6789 75.2855 63.6789 73.0903C63.6789 70.8952 61.8869 69.1094 59.6842 69.1094C59.105 69.1094 58.5548 69.2339 58.0573 69.4558L55.1456 66.5584C54.6177 66.0331 53.7289 65.6663 52.9841 65.6663H46.7714V59.4019H56.9589C57.4622 61.0267 58.9831 62.2109 60.7769 62.2109C62.9797 62.2109 64.7716 60.4252 64.7716 58.23C64.7716 56.0348 62.9795 54.2491 60.7769 54.2491C58.9833 54.2491 57.4622 55.4331 56.9589 57.0581H46.7714V49.2081H58.9623C59.4656 50.833 60.9866 52.0172 62.7803 52.0172C64.9831 52.0172 66.775 50.2314 66.775 48.0363C66.775 45.8411 64.983 44.0553 62.7803 44.0553C60.9866 44.0553 59.4656 45.2394 58.9623 46.8644H46.7714V38.3348H49.6742C50.1777 39.9595 51.6986 41.1438 53.4922 41.1438C55.695 41.1438 57.4869 39.358 57.4869 37.163C57.4869 34.9678 55.6948 33.182 53.4922 33.182C51.6986 33.182 50.1775 34.3661 49.6742 35.9911H46.7714V29.2284H59.5398C59.6669 29.2308 59.9573 29.3505 60.0488 29.4383L62.4559 31.8339C62.6845 32.0614 62.9834 32.1752 63.2825 32.1752C63.5833 32.1752 63.8842 32.06 64.1131 31.8298C64.5697 31.3711 64.5678 30.6291 64.1091 30.1725L61.7019 27.7769C61.1739 27.2516 60.2852 26.8847 59.5403 26.8847H46.7714V22.0227H56.4442ZM64.6013 11.2873C65.5116 11.2873 66.2522 12.0217 66.2522 12.9242C66.2522 13.8269 65.5116 14.5614 64.6013 14.5614C63.6909 14.5614 62.9505 13.827 62.9505 12.9242C62.9505 12.0217 63.6909 11.2873 64.6013 11.2873ZM53.31 9.11266C54.2203 9.11266 54.9609 9.84703 54.9609 10.7497C54.9609 11.6523 54.2203 12.3869 53.31 12.3869C52.3997 12.3869 51.6592 11.6525 51.6592 10.7497C51.6591 9.84703 52.3997 9.11266 53.31 9.11266ZM59.6842 71.453C60.5945 71.453 61.3352 72.1875 61.3352 73.0902C61.3352 73.9928 60.5945 74.7273 59.6842 74.7273C58.7739 74.7273 58.0333 73.993 58.0333 73.0902C58.0333 72.1875 58.7739 71.453 59.6842 71.453ZM60.7769 56.5928C61.6872 56.5928 62.4278 57.3272 62.4278 58.23C62.4278 59.1327 61.6872 59.8672 60.7769 59.8672C59.8666 59.8672 59.1259 59.1328 59.1259 58.23C59.1259 57.3273 59.8666 56.5928 60.7769 56.5928ZM62.7802 46.3991C63.6905 46.3991 64.4311 47.1334 64.4311 48.0363C64.4311 48.9389 63.6905 49.6734 62.7802 49.6734C61.8698 49.6734 61.1292 48.9391 61.1292 48.0363C61.1292 47.1334 61.8698 46.3991 62.7802 46.3991ZM53.4922 35.5258C54.4025 35.5258 55.1431 36.2602 55.1431 37.163C55.1431 38.0655 54.4025 38.8 53.4922 38.8C52.5819 38.8 51.8413 38.0656 51.8413 37.163C51.8413 36.2602 52.5819 35.5258 53.4922 35.5258Z" fill="#3BBDBA"/>
</g>
<defs>
<clipPath id="clip0_279_3138">
<rect width="80" height="80" fill="white"/>
</clipPath>
</defs>
</svg>
