<svg width="80" height="80" viewBox="0 0 80 80" fill="none" xmlns="http://www.w3.org/2000/svg">
<g clip-path="url(#clip0_279_3182)">
<path d="M42.9024 14.5289C42.2591 14.4566 41.6791 14.9192 41.6068 15.5622C41.5344 16.2053 41.9971 16.7855 42.6402 16.8578C54.4138 18.1837 63.2922 28.1322 63.2922 39.999C63.2922 52.8404 52.8449 63.2877 40.0035 63.2877C27.1621 63.2877 16.7148 52.8404 16.7148 39.999C16.7148 28.1477 25.5804 18.2006 37.3368 16.8613C37.9798 16.788 38.4418 16.2074 38.3685 15.5642C38.2952 14.9211 37.7152 14.4585 37.0715 14.5325C24.1302 16.007 14.3711 26.9551 14.3711 39.999C14.3711 54.1328 25.8697 65.6314 40.0035 65.6314C54.1373 65.6314 65.6359 54.1328 65.6359 39.999C65.6359 26.9382 55.8626 15.9885 42.9024 14.5289Z" fill="#3BBDBA"/>
<path d="M68.8088 50.4517C68.2418 48.6395 68.7782 46.6378 70.1752 45.3519C71.6673 43.9786 72.5233 42.0279 72.5233 39.9999C72.5233 37.972 71.6673 36.0212 70.1753 34.6479C68.7782 33.3622 68.2418 31.3603 68.8088 29.5481C69.4144 27.6127 69.1802 25.4954 68.1663 23.7391C67.1524 21.9829 65.4357 20.7214 63.4568 20.2782C61.604 19.8632 60.1385 18.3978 59.7236 16.545C59.2804 14.5661 58.0189 12.8496 56.2626 11.8355C54.5064 10.8215 52.3891 10.5872 50.4536 11.193C48.6415 11.76 46.6398 11.2236 45.3539 9.82662C43.9806 8.33444 42.0298 7.47852 40.0019 7.47852C37.9739 7.47852 36.0232 8.33444 34.6499 9.82646C33.3641 11.2236 31.3626 11.76 29.5501 11.193C27.6146 10.5874 25.4973 10.8215 23.7411 11.8355C21.9849 12.8494 20.7233 14.5661 20.2802 16.545C19.8652 18.3978 18.3997 19.8632 16.5469 20.2782C14.5681 20.7214 12.8515 21.9829 11.8375 23.7391C10.8234 25.4954 10.5893 27.6127 11.195 29.5481C11.762 31.3603 11.2256 33.362 9.82857 34.6479C8.3364 36.0212 7.48047 37.972 7.48047 39.9999C7.48047 42.0279 8.3364 43.9786 9.82841 45.3519C11.2256 46.6377 11.762 48.6395 11.195 50.4517C10.5893 52.3871 10.8236 54.5045 11.8375 56.2607C12.8514 58.0169 14.5681 59.2785 16.5469 59.7216C18.3997 60.1366 19.8652 61.6021 20.2802 63.4548C20.7233 65.4337 21.9849 67.1503 23.7411 68.1643C25.4975 69.1782 27.6146 69.4126 29.5501 68.8068C31.3627 68.24 33.3641 68.7762 34.6499 70.1732C36.0232 71.6654 37.9739 72.5213 40.0019 72.5213C42.0298 72.5213 43.9806 71.6654 45.3539 70.1734C46.6398 68.7762 48.6416 68.2398 50.4536 68.8068C52.3888 69.4123 54.5064 69.1782 56.2626 68.1643C58.0189 67.1504 59.2804 65.4337 59.7236 63.4548C60.1385 61.6021 61.604 60.1366 63.4568 59.7216C65.4357 59.2785 67.1522 58.0169 68.1663 56.2607C69.1803 54.5045 69.4144 52.3871 68.8088 50.4517ZM66.5721 51.1517C66.9886 52.4828 66.834 53.881 66.1366 55.0888C65.4393 56.2966 64.3057 57.1297 62.9446 57.4346C60.2109 58.0469 58.0489 60.2089 57.4365 62.9427C57.1317 64.3036 56.2987 65.4372 55.0908 66.1347C53.8828 66.832 52.4846 66.9865 51.1536 66.5701C48.4798 65.7333 45.5265 66.5248 43.6295 68.5862C42.685 69.6124 41.3967 70.1777 40.002 70.1777C38.6074 70.1777 37.3191 69.6126 36.3746 68.5862C34.9794 67.0704 33.0132 66.2414 31.0071 66.2414C30.2851 66.2414 29.5579 66.3489 28.8504 66.5701C27.5195 66.9864 26.1211 66.8318 24.9133 66.1347C23.7055 65.4373 22.8724 64.3037 22.5675 62.9427C21.9552 60.2089 19.7932 58.0469 17.0594 57.4346C15.6985 57.1297 14.5649 56.2968 13.8674 55.0888C13.1701 53.881 13.0154 52.4828 13.432 51.1517C14.2685 48.4781 13.4773 45.5247 11.4159 43.6275C10.3897 42.683 9.82435 41.3947 9.82435 40.0001C9.82435 38.6054 10.3895 37.3171 11.4159 36.3726C13.4771 34.4754 14.2685 31.522 13.432 28.8485C13.0154 27.5174 13.1701 26.1191 13.8674 24.9113C14.5648 23.7035 15.6984 22.8704 17.0594 22.5656C19.7932 21.9532 21.9552 19.7912 22.5675 17.0575C22.8724 15.6966 23.7053 14.563 24.9133 13.8655C26.1212 13.168 27.5197 13.0135 28.8504 13.43C31.5238 14.2666 34.4774 13.4752 36.3746 11.4139C37.3191 10.3877 38.6074 9.8224 40.002 9.8224C41.3967 9.8224 42.685 10.3876 43.6295 11.4139C45.5268 13.4752 48.4801 14.2666 51.1536 13.43C52.4844 13.0135 53.8828 13.168 55.0908 13.8655C56.2986 14.5628 57.1317 15.6964 57.4365 17.0575C58.0489 19.7912 60.2109 21.9532 62.9446 22.5656C64.3055 22.8704 65.4391 23.7034 66.1366 24.9113C66.834 26.1191 66.9886 27.5174 66.5721 28.8485C65.7355 31.522 66.5268 34.4754 68.5882 36.3726C69.6144 37.3171 70.1797 38.6054 70.1797 40.0001C70.1797 41.3947 69.6146 42.683 68.5882 43.6275C66.5268 45.5247 65.7354 48.4781 66.5721 51.1517Z" fill="#3BBDBA"/>
<path d="M68.7031 12.1456C69.0029 12.1456 69.3029 12.0312 69.5317 11.8023L79.3336 2.00043C79.7912 1.54277 79.7912 0.800742 79.3336 0.343242C78.8759 -0.114414 78.1339 -0.114414 77.6764 0.343242L67.8745 10.1451C67.4168 10.6028 67.4168 11.3448 67.8745 11.8023C68.1032 12.0311 68.4031 12.1456 68.7031 12.1456Z" fill="#3BBDBA"/>
<path d="M79.6371 16.4067C79.467 15.7823 78.8229 15.4142 78.1982 15.5846L73.2973 16.9217C72.6729 17.092 72.3048 17.7362 72.4753 18.3606C72.6174 18.8817 73.0898 19.2243 73.6051 19.2243C73.7071 19.2243 73.811 19.2109 73.9143 19.1826L78.8153 17.8456C79.4395 17.6754 79.8076 17.031 79.6371 16.4067Z" fill="#3BBDBA"/>
<path d="M61.2113 7.20364C61.3146 7.23193 61.4183 7.24536 61.5205 7.24536C62.0358 7.24536 62.5081 6.90271 62.6503 6.38161L63.9874 1.48068C64.1577 0.8563 63.7897 0.211925 63.1653 0.041769C62.541 -0.129012 61.8967 0.239425 61.7264 0.8638L60.3894 5.76474C60.2188 6.38911 60.5867 7.03333 61.2113 7.20364Z" fill="#3BBDBA"/>
<path d="M10.4732 11.8023C10.702 12.0311 11.002 12.1456 11.3018 12.1456C11.6017 12.1456 11.9017 12.0312 12.1304 11.8023C12.5881 11.3446 12.5881 10.6026 12.1304 10.1451L2.32855 0.343242C1.8709 -0.114414 1.12887 -0.114414 0.671367 0.343242C0.213711 0.800898 0.213711 1.54293 0.671367 2.00043L10.4732 11.8023Z" fill="#3BBDBA"/>
<path d="M6.70958 16.9216L1.80864 15.5846C1.18426 15.414 0.539888 15.7822 0.369732 16.4066C0.199419 17.031 0.567388 17.6754 1.19176 17.8455L6.0927 19.1826C6.19598 19.2108 6.29973 19.2243 6.40192 19.2243C6.91723 19.2243 7.38958 18.8816 7.53176 18.3605C7.70192 17.7361 7.33395 17.0919 6.70958 16.9216Z" fill="#3BBDBA"/>
<path d="M17.3551 6.38155C17.4973 6.90264 17.9696 7.2453 18.4849 7.2453C18.587 7.2453 18.6909 7.23186 18.7942 7.20358C19.4185 7.03327 19.7867 6.38905 19.6162 5.76467L18.2792 0.863736C18.1088 0.239517 17.4653 -0.128921 16.8403 0.0417043C16.2159 0.212017 15.8478 0.856236 16.0182 1.48061L17.3551 6.38155Z" fill="#3BBDBA"/>
<path d="M69.5317 68.1968C69.074 67.7391 68.332 67.7391 67.8745 68.1968C67.4168 68.6544 67.4168 69.3964 67.8745 69.8539L77.6764 79.6558C77.9051 79.8846 78.2051 79.9991 78.505 79.9991C78.8048 79.9991 79.1048 79.8847 79.3336 79.6558C79.7912 79.1982 79.7912 78.4561 79.3336 77.9986L69.5317 68.1968Z" fill="#3BBDBA"/>
<path d="M78.815 62.1541L73.9141 60.8171C73.2894 60.6466 72.6455 61.0147 72.4752 61.6391C72.3049 62.2635 72.6729 62.9078 73.2972 63.078L78.1982 64.415C78.3015 64.4433 78.4052 64.4567 78.5074 64.4567C79.0227 64.4567 79.495 64.1141 79.6372 63.593C79.8075 62.9686 79.4394 62.3244 78.815 62.1541Z" fill="#3BBDBA"/>
<path d="M62.6503 73.6176C62.4799 72.9934 61.8357 72.625 61.2114 72.7956C60.587 72.9659 60.2188 73.6101 60.3893 74.2345L61.7263 79.1355C61.8685 79.6565 62.3409 79.9992 62.8562 79.9992C62.9582 79.9992 63.062 79.9858 63.1654 79.9575C63.7898 79.7872 64.1579 79.143 63.9874 78.5186L62.6503 73.6176Z" fill="#3BBDBA"/>
<path d="M10.4732 68.1968L0.671367 77.9986C0.213711 78.4563 0.213711 79.1983 0.671367 79.6558C0.900117 79.8846 1.20012 79.9991 1.49996 79.9991C1.7998 79.9991 2.0998 79.8847 2.32855 79.6558L12.1304 69.8539C12.5881 69.3963 12.5881 68.6543 12.1304 68.1968C11.6728 67.7391 10.9307 67.7391 10.4732 68.1968Z" fill="#3BBDBA"/>
<path d="M6.09275 60.8173L1.19182 62.1543C0.567442 62.3246 0.199317 62.9688 0.369786 63.5932C0.511973 64.1143 0.984317 64.457 1.49963 64.457C1.60166 64.457 1.70557 64.4435 1.80885 64.4152L6.70979 63.0782C7.33416 62.9079 7.70229 62.2637 7.53182 61.6393C7.36166 61.0149 6.71744 60.6465 6.09275 60.8173Z" fill="#3BBDBA"/>
<path d="M18.7941 72.7956C18.1697 72.6251 17.5255 72.9932 17.3552 73.6176L16.0182 78.5185C15.8479 79.1429 16.2158 79.7873 16.8402 79.9574C16.9435 79.9857 17.0472 79.9992 17.1494 79.9992C17.6647 79.9992 18.1371 79.6565 18.2793 79.1354L19.6163 74.2345C19.7866 73.6103 19.4185 72.9659 18.7941 72.7956Z" fill="#3BBDBA"/>
<path d="M45.0477 43.7916C44.5901 44.2492 44.5901 44.9912 45.0477 45.4487C45.5054 45.9064 46.2474 45.9064 46.7049 45.4487L56.3206 35.833C57.0064 35.1473 57.384 34.2357 57.384 33.2659C57.384 32.296 57.0064 31.3845 56.3206 30.6989L53.2986 27.6767C51.883 26.2614 49.5799 26.2614 48.1644 27.6767L36.2499 39.5913L32.0815 35.4227C31.3957 34.737 30.4841 34.3593 29.5143 34.3593C28.5445 34.3593 27.6329 34.737 26.9471 35.4227L23.6845 38.6853C22.9987 39.3711 22.6211 40.2827 22.6211 41.2525C22.6211 42.2223 22.9987 43.1339 23.6845 43.8195L32.0437 52.1788C33.1369 53.2721 34.573 53.8188 36.0091 53.8188C37.4452 53.8188 38.8812 53.2721 39.9745 52.1788L42.8561 49.2973C43.3137 48.8396 43.3137 48.0976 42.8561 47.6401C42.3984 47.1825 41.6564 47.1825 41.1989 47.6401L38.3173 50.5216C37.0445 51.7943 34.9735 51.7943 33.7008 50.5216L25.3417 42.1623C25.0986 41.9194 24.9648 41.5963 24.9648 41.2527C24.9648 40.9089 25.0987 40.5858 25.3417 40.3428L28.6043 37.0802C28.8474 36.8372 29.1706 36.7033 29.5142 36.7033C29.8577 36.7033 30.1809 36.8371 30.424 37.0802L35.4211 42.0773C35.8788 42.535 36.6208 42.535 37.0783 42.0773L49.8216 29.3342C50.3232 28.8326 51.1396 28.8325 51.6413 29.3342L54.6633 32.3563C54.9064 32.5993 55.0401 32.9224 55.0401 33.266C55.0401 33.6096 54.9062 33.9329 54.6633 34.1759L45.0477 43.7916Z" fill="#3BBDBA"/>
</g>
<defs>
<clipPath id="clip0_279_3182">
<rect width="80" height="80" fill="white"/>
</clipPath>
</defs>
</svg>
