<svg width="56" height="57" viewBox="0 0 56 57" fill="none" xmlns="http://www.w3.org/2000/svg">
<path d="M56 28.0083C56 12.5397 43.464 0 28 0C12.536 0 0 12.5397 0 28.0083C0 43.4768 12.536 56.0165 28 56.0165C43.464 56.0165 56 43.4768 56 28.0083Z" fill="#FF0209"/>
<path d="M39.8861 40.4127C39.0519 40.5033 38.198 40.519 37.3795 40.517C30.9948 40.5111 24.6101 40.5052 18.2275 40.5013C16.2186 40.5013 14.0307 40.4363 12.4783 39.159C10.7292 37.7164 10.3652 35.2149 10.2235 32.9516C10.0268 29.8498 10.011 26.7382 10.1724 23.6345C10.2609 21.9301 10.4163 20.1844 11.1502 18.6414C11.6775 17.5334 12.557 16.5375 13.6825 16.014C14.9909 15.4058 16.3603 15.5141 17.769 15.5121C21.1414 15.5082 24.5138 15.5062 27.8861 15.5023C31.3923 15.4983 34.9004 15.4964 38.4065 15.4924C40.0632 15.4924 41.8419 15.5259 43.1936 16.4844C44.9388 17.7203 45.4129 20.0722 45.6313 22.1998C46.0347 26.1183 46.0406 30.0781 45.6471 33.9967C45.4838 35.6125 45.2122 37.3208 44.1478 38.5469C43.0932 39.7632 41.529 40.2317 39.8881 40.4108L39.8861 40.4127Z" fill="white"/>
<path d="M33.7103 28.0079L24.1953 22.5129V33.5029L33.7103 28.0079Z" fill="#FF0209"/>
</svg>
