<svg width="19" height="14" viewBox="0 0 19 14" fill="none" xmlns="http://www.w3.org/2000/svg">
<path d="M10.861 14L10.4799 13.3852C10.734 12.3792 11.0334 11.3081 11.3782 10.1717C11.7412 9.03526 12.1313 7.88955 12.5487 6.73453C12.9661 5.57951 13.4107 4.4338 13.8825 3.29741C14.3543 2.14238 14.8171 1.04325 15.2708 0H19C18.7278 1.13639 18.4556 2.31936 18.1834 3.5489C17.9293 4.77844 17.6843 6.00798 17.4484 7.23752C17.2125 8.44844 16.9947 9.6314 16.7951 10.7864C16.5955 11.9415 16.4231 13.0126 16.2779 14H10.861ZM0.381089 14L0 13.3852C0.254059 12.3792 0.553486 11.3081 0.898281 10.1717C1.26122 9.03526 1.65138 7.88955 2.06877 6.73453C2.48615 5.57951 2.93075 4.4338 3.40258 3.29741C3.8744 2.14238 4.33715 1.04325 4.79083 0H8.52006C8.24785 1.13639 7.97565 2.31936 7.70344 3.5489C7.44938 4.77844 7.20439 6.00798 6.96848 7.23752C6.73257 8.44844 6.5148 9.6314 6.31519 10.7864C6.11557 11.9415 5.94317 13.0126 5.79799 14H0.381089Z" fill="#F3F4F6"/>
</svg>
