<svg width="102" height="52" viewBox="0 0 102 52" fill="none" xmlns="http://www.w3.org/2000/svg">
<path d="M0 44.7025V7.27616C0 3.26467 3.19468 0 7.12016 0H75.0227C78.9482 0 82.1429 3.26467 82.1429 7.27616V9.47394H77.4239C74.9601 9.47394 72.9765 11.5224 72.9765 14.0189V15.2351C69.6147 14.595 67.0882 11.6077 67.0882 8.00164C67.0882 7.38285 67.1717 6.78539 67.297 6.20927H14.4282C14.5118 6.65736 14.5535 7.10546 14.5535 7.55355C14.5535 11.6291 11.3171 14.9151 7.34985 14.9151C6.91136 14.9151 6.49376 14.8724 6.07615 14.8084V37.1703C6.49376 37.1063 6.91136 37.0636 7.34985 37.0636C11.338 37.0636 14.5535 40.3496 14.5535 44.4251C14.5535 44.8945 14.5118 45.3426 14.4282 45.7694H58.6944L58.6735 48.4153V51.2745C58.6735 51.5092 58.7152 51.7653 58.7361 52H7.12016C3.19468 51.9787 0 48.714 0 44.7025ZM86.8409 47.6898H77.4031C77.0063 47.6898 76.6931 48.0098 76.6931 48.4153V51.2745C76.6931 51.6799 77.0063 52 77.4031 52H86.8409C87.2377 52 87.5509 51.6799 87.5509 51.2745V48.3939C87.5509 48.0098 87.2377 47.6898 86.8409 47.6898ZM86.8409 41.9499H77.4031C77.0063 41.9499 76.6931 42.27 76.6931 42.6754V45.5347C76.6931 45.9401 77.0063 46.2602 77.4031 46.2602H86.8409C87.2377 46.2602 87.5509 45.9401 87.5509 45.5347V42.6754C87.5509 42.27 87.2377 41.9499 86.8409 41.9499ZM86.8409 36.2314H77.4031C77.0063 36.2314 76.6931 36.5515 76.6931 36.9569V39.8162C76.6931 40.2216 77.0063 40.5416 77.4031 40.5416H86.8409C87.2377 40.5416 87.5509 40.2216 87.5509 39.8162V36.9569C87.5509 36.5515 87.2377 36.2314 86.8409 36.2314ZM86.8409 30.4916H77.4031C77.0063 30.4916 76.6931 30.8117 76.6931 31.2171V34.0763C76.6931 34.4817 77.0063 34.8018 77.4031 34.8018H86.8409C87.2377 34.8018 87.5509 34.4817 87.5509 34.0763V31.2171C87.5509 30.8117 87.2377 30.4916 86.8409 30.4916ZM86.8409 24.7731H77.4031C77.0063 24.7731 76.6931 25.0931 76.6931 25.4986V28.3365C76.6931 28.7419 77.0063 29.062 77.4031 29.062H86.8409C87.2377 29.062 87.5509 28.7419 87.5509 28.3365V25.4772C87.5509 25.0931 87.2377 24.7731 86.8409 24.7731ZM86.8409 19.0332H77.4031C77.0063 19.0332 76.6931 19.3533 76.6931 19.7587V22.618C76.6931 23.0234 77.0063 23.3435 77.3822 23.3435H86.8201C87.2168 23.3435 87.53 23.0234 87.53 22.618V19.7587C87.5509 19.3533 87.2377 19.0332 86.8409 19.0332ZM86.8409 13.3147H77.4031C77.0063 13.3147 76.6931 13.6348 76.6931 14.0402V16.8995C76.6931 17.3049 77.0063 17.6249 77.4031 17.6249H86.8409C87.2377 17.6249 87.5509 17.3049 87.5509 16.8995V14.0402C87.5509 13.6348 87.2377 13.3147 86.8409 13.3147ZM101.29 47.6898H91.8522C91.4555 47.6898 91.1423 48.0098 91.1423 48.4153V51.2745C91.1423 51.6799 91.4555 52 91.8522 52H101.29C101.687 52 102 51.6799 102 51.2745V48.3939C101.979 48.0098 101.666 47.6898 101.29 47.6898ZM101.29 41.9499H91.8522C91.4555 41.9499 91.1423 42.27 91.1423 42.6754V45.5347C91.1423 45.9401 91.4555 46.2602 91.8522 46.2602H101.29C101.687 46.2602 102 45.9401 102 45.5347V42.6754C101.979 42.27 101.666 41.9499 101.29 41.9499ZM101.29 36.2314H91.8522C91.4555 36.2314 91.1423 36.5515 91.1423 36.9569V39.8162C91.1423 40.2216 91.4555 40.5416 91.8522 40.5416H101.29C101.687 40.5416 102 40.2216 102 39.8162V36.9569C101.979 36.5515 101.666 36.2314 101.29 36.2314ZM72.4127 47.6898H62.9748C62.5781 47.6898 62.2649 48.0098 62.2649 48.4153V51.2745C62.2649 51.6799 62.5781 52 62.9748 52H72.4127C72.8094 52 73.1226 51.6799 73.1226 51.2745V48.3939C73.1226 48.0098 72.8094 47.6898 72.4127 47.6898ZM73.1226 42.6754C73.1226 42.27 72.8094 41.9499 72.4127 41.9499H62.9748C62.5781 41.9499 62.2649 42.27 62.2649 42.6754V45.5347C62.2649 45.9401 62.5781 46.2602 62.9748 46.2602H72.4127C72.8094 46.2602 73.1226 45.9401 73.1226 45.5347V42.6754ZM73.1226 36.9569C73.1226 36.5515 72.8094 36.2314 72.4127 36.2314H62.9748C62.5781 36.2314 62.2649 36.5515 62.2649 36.9569V39.8162C62.2649 40.2216 62.5781 40.5416 62.9748 40.5416H72.4127C72.8094 40.5416 73.1226 40.2216 73.1226 39.8162V36.9569ZM73.1226 31.2171C73.1226 30.8117 72.8094 30.4916 72.4127 30.4916H62.9748C62.5781 30.4916 62.2649 30.8117 62.2649 31.2171V34.0763C62.2649 34.4817 62.5781 34.8018 62.9748 34.8018H72.4127C72.8094 34.8018 73.1226 34.4817 73.1226 34.0763V31.2171ZM73.1226 25.4772C73.1226 25.0718 72.8094 24.7517 72.4127 24.7517H62.9748C62.5781 24.7517 62.2649 25.0718 62.2649 25.4772V28.3365C62.2649 28.7419 62.5781 29.062 62.9748 29.062H72.4127C72.8094 29.062 73.1226 28.7419 73.1226 28.3365V25.4772ZM41.0714 10.0501C49.6741 10.0501 56.669 17.1769 56.669 25.9893C56.669 34.7805 49.695 41.9286 41.0714 41.9286C32.4479 41.9286 25.4739 34.8018 25.4739 25.9893C25.4739 17.1982 32.4479 10.0501 41.0714 10.0501ZM42.4287 14.1469H40.6538C40.3824 14.1469 40.1736 14.3603 40.1736 14.6377V16.8141C38.8164 17.0062 37.7306 17.5183 36.8745 18.3504C35.9558 19.2679 35.4755 20.4202 35.4755 21.8285C35.4755 23.3861 35.914 24.5597 36.791 25.3492C37.668 26.16 39.0669 26.9495 40.967 27.7177C41.7605 28.0591 42.3034 28.4218 42.6166 28.7846C42.9298 29.1473 43.0759 29.6594 43.0759 30.2995C43.0759 30.8543 42.9298 31.3238 42.6166 31.6652C42.3243 32.0066 41.8649 32.1986 41.2802 32.1986C40.5912 32.1986 40.0065 31.9639 39.5681 31.5158C39.2131 31.1531 39.0043 30.5769 38.9417 29.8088C38.9208 29.5101 38.6493 29.2967 38.357 29.2967L35.4338 29.3607C35.1206 29.3607 34.8491 29.6381 34.87 29.9581C34.9535 31.5371 35.4547 32.7534 36.3734 33.6282C37.3756 34.5671 38.6285 35.1219 40.1318 35.2926V37.341C40.1318 37.6184 40.3615 37.8318 40.6121 37.8318H42.3869C42.6583 37.8318 42.8671 37.597 42.8671 37.341V35.2499C44.0782 35.0152 45.0387 34.5457 45.8113 33.7989C46.7091 32.9241 47.1476 31.7505 47.1476 30.3209C47.1476 28.8059 46.7091 27.6323 45.8113 26.8215C44.9343 26.0107 43.5353 25.1785 41.6561 24.3677C40.8418 24.0049 40.2989 23.6422 39.9857 23.2794C39.6933 22.9167 39.5472 22.4473 39.5472 21.8925C39.5472 21.3377 39.6933 20.8683 39.9648 20.5055C40.2362 20.1428 40.6747 19.9508 41.2385 19.9508C41.8022 19.9508 42.2616 20.1641 42.5957 20.6122C42.8671 20.975 43.0342 21.4657 43.0968 22.1272C43.1177 22.4259 43.3891 22.6393 43.6815 22.6393L46.6047 22.5966C46.9179 22.5966 47.1894 22.3192 47.1685 21.9992C47.0849 20.6976 46.6882 19.6094 45.9365 18.7132C45.164 17.7956 44.1408 17.2195 42.8671 16.9421V14.6803C42.9298 14.3603 42.7001 14.1469 42.4287 14.1469ZM14.0733 25.9893C14.0733 28.4218 16.0151 30.4062 18.3955 30.4062C20.7758 30.4062 22.7177 28.4218 22.7177 25.9893C22.7177 23.5568 20.7758 21.5724 18.3955 21.5724C16.0151 21.5724 14.0733 23.5568 14.0733 25.9893Z" fill="#FFC300"/>
</svg>
