<svg width="52" height="52" viewBox="0 0 52 52" fill="none" xmlns="http://www.w3.org/2000/svg">
<path fill-rule="evenodd" clip-rule="evenodd" d="M19.5 47.6667H47.6667V20.8391L33.4689 27.9379C32.0283 28.6583 30.3333 27.6107 30.3333 26V20.8391L16.1356 27.9379C14.695 28.6583 13 27.6107 13 26V4.33333H4.33333V47.6667H10.8333V45.5C10.8333 44.3033 11.8034 43.3333 13 43.3333H17.3333C18.53 43.3333 19.5 44.3033 19.5 45.5V47.6667ZM34.6667 22.4943L48.8644 15.3954C50.305 14.6751 52 15.7227 52 17.3333V49.8333C52 51.03 51.03 52 49.8333 52H2.16667C0.970049 52 0 51.03 0 49.8333V2.16667C0 0.970049 0.970049 0 2.16667 0H15.1667C16.3633 0 17.3333 0.970049 17.3333 2.16667V22.4943L31.5311 15.3954C32.9717 14.6751 34.6667 15.7227 34.6667 17.3333V22.4943ZM13 34.6667C14.1966 34.6667 15.1667 35.6367 15.1667 36.8333C15.1667 38.03 14.1966 39 13 39C11.8034 39 10.8333 38.03 10.8333 36.8333C10.8333 35.6367 11.8034 34.6667 13 34.6667ZM30.3333 34.6667C31.53 34.6667 32.5 35.6367 32.5 36.8333C32.5 38.03 31.53 39 30.3333 39C29.1367 39 28.1667 38.03 28.1667 36.8333C28.1667 35.6367 29.1367 34.6667 30.3333 34.6667ZM21.6667 34.6667C22.8633 34.6667 23.8333 35.6367 23.8333 36.8333C23.8333 38.03 22.8633 39 21.6667 39C20.47 39 19.5 38.03 19.5 36.8333C19.5 35.6367 20.47 34.6667 21.6667 34.6667ZM39 34.6667C40.1967 34.6667 41.1667 35.6367 41.1667 36.8333C41.1667 38.03 40.1967 39 39 39C37.8033 39 36.8333 38.03 36.8333 36.8333C36.8333 35.6367 37.8033 34.6667 39 34.6667Z" fill="#FFC300"/>
</svg>
