<svg width="70" height="70" viewBox="0 0 70 70" fill="none" xmlns="http://www.w3.org/2000/svg">
<path d="M23.3972 18.2191H14.4794C12.8356 18.2191 11.5068 16.9304 11.5068 15.3424C11.5068 13.7545 12.8356 12.4657 14.4794 12.4657H23.3972C25.0411 12.4657 26.3698 13.7545 26.3698 15.3424C26.3698 16.9304 25.0411 18.2191 23.3972 18.2191ZM38.2603 29.726H14.4794C12.8356 29.726 11.5068 28.4372 11.5068 26.8493C11.5068 25.2613 12.8356 23.9725 14.4794 23.9725H38.2603C39.9041 23.9725 41.2329 25.2613 41.2329 26.8493C41.2329 28.4372 39.9041 29.726 38.2603 29.726ZM38.2603 41.2328H14.4794C12.8356 41.2328 11.5068 39.9441 11.5068 38.3561C11.5068 36.7682 12.8356 35.4794 14.4794 35.4794H38.2603C39.9041 35.4794 41.2329 36.7682 41.2329 38.3561C41.2329 39.9441 39.9041 41.2328 38.2603 41.2328Z" fill="#FFC300"/>
<path d="M52.7397 5.83333V29.1667C52.7397 30.7708 51.4212 32.0833 49.8097 32.0833C48.1982 32.0833 46.8798 30.7708 46.8798 29.1667V7.29167C46.8798 6.475 46.2352 5.83333 45.4148 5.83333H7.32496C6.50457 5.83333 5.85997 6.475 5.85997 7.29167V62.7083C5.85997 63.525 6.50457 64.1667 7.32496 64.1667H45.4148C46.2352 64.1667 46.8798 63.525 46.8798 62.7083V61.25C46.8798 59.6458 48.1982 58.3333 49.8097 58.3333C51.4212 58.3333 52.7397 59.6458 52.7397 61.25V64.1667C52.7397 67.375 50.1027 70 46.8798 70H5.85997C2.63699 70 0 67.375 0 64.1667V5.83333C0 2.625 2.63699 0 5.85997 0H46.8798C50.1027 0 52.7397 2.625 52.7397 5.83333Z" fill="#FFC300"/>
<path d="M69.6249 35.045C70.5211 36.6253 69.755 38.7703 67.9046 39.8531L40.0049 56.1531C39.7621 56.2994 39.4961 56.4047 39.2388 56.475L31.5598 58.4064C30.4901 58.6756 29.4782 58.304 29.0156 57.4875C28.5472 56.674 28.7554 55.5853 29.5071 54.8157L35.0206 49.0858C35.2027 48.8751 35.4166 48.7259 35.6393 48.5971C35.6508 48.5679 35.674 48.5532 35.674 48.5532L63.5737 32.2532C65.424 31.1705 67.6444 31.5685 68.5465 33.1458L69.6278 35.0479L69.6249 35.045Z" fill="#FFC300"/>
</svg>
