<svg width="54" height="49" viewBox="0 0 54 49" fill="none" xmlns="http://www.w3.org/2000/svg">
<path d="M44.2714 10.0567C39.4166 3.57817 33.2462 0 26.7518 0C20.2572 0 14.0869 3.57814 9.23222 10.0567C5.58275 14.9269 1.17922 21.5075 0.571316 28.4281C0.257845 31.9965 0.950305 35.6499 3.19558 39.1262C5.41495 42.562 9.04048 45.6556 14.3125 48.3588C17.5569 50.0225 21.0913 47.7933 21.5491 44.5359C20.5099 43.8418 19.4885 42.972 18.556 41.9537C15.947 39.105 13.8698 34.9338 13.8698 29.6543C13.8698 20.8136 18.4299 14.8669 23.9152 13.2968C24.6428 13.0886 25.4623 13.6363 25.5492 14.3886C26.284 20.7625 31.6661 25.7216 38.2166 25.7858C39.9533 25.8028 39.6338 28.5222 39.6338 29.6543C39.6338 34.9338 37.5565 39.105 34.9474 41.9537C34.0121 42.9748 32.9875 43.8469 31.9451 44.5421C32.3578 47.81 35.8566 50.0571 39.1039 48.4893C44.6815 45.7961 48.4905 42.7043 50.794 39.2448C53.1326 35.7329 53.7911 32.0326 53.39 28.4297C52.6176 21.4915 47.8806 14.8733 44.2714 10.0567Z" fill="#FFC300"/>
</svg>
