<svg width="84" height="52" viewBox="0 0 84 52" fill="none" xmlns="http://www.w3.org/2000/svg">
<path d="M67.3987 18.3385C67.3987 16.6145 68.8207 15.2286 70.5511 15.2286C72.2815 15.2286 73.7034 16.6314 73.7034 18.3385C73.7034 20.0625 72.2815 21.4485 70.5511 21.4485C68.8207 21.4485 67.3987 20.0625 67.3987 18.3385ZM65.3771 18.3385C65.3771 24.5584 60.2545 29.6121 53.9498 29.6121C50.472 29.6121 47.371 28.074 45.2637 25.657C45.8119 24.5584 46.1203 23.3246 46.1203 21.9555C46.1203 21.6682 46.1032 21.364 46.0861 21.1273C46.0347 20.4682 45.6578 18.2033 43.1907 16.53C43.0365 16.4286 42.8823 16.3272 42.7281 16.2427C43.7218 11.02 48.3647 7.06498 53.9498 7.06498C60.2545 7.06498 65.3771 12.1017 65.3771 18.3385ZM51.4656 14.468C50.4891 14.5187 49.7181 14.8229 49.187 15.4145C48.6045 16.0399 48.2619 16.8343 48.1591 17.7639L46.8913 17.7639C46.72 17.7639 46.5829 17.8991 46.5829 18.0681L46.5829 19.1836C46.5829 19.3526 46.72 19.4879 46.8913 19.4879L48.1933 19.4879C48.3304 20.2484 48.6388 20.8569 49.1014 21.3302C49.6496 21.8879 50.3692 22.1753 51.2772 22.1753C52.2195 22.1753 52.9561 21.9048 53.453 21.3471C53.967 20.7893 54.4638 19.9273 54.9778 18.7442C55.2005 18.2371 55.4232 17.8822 55.6459 17.6963C55.8686 17.5103 56.1599 17.4089 56.5197 17.4089C56.8795 17.4089 57.1536 17.4934 57.3934 17.6625C57.6162 17.8315 57.7361 18.1019 57.7361 18.4737C57.7361 18.8287 57.599 19.116 57.3249 19.3357C57.1022 19.5048 56.7938 19.6062 56.3826 19.64C56.1942 19.6569 56.0571 19.8259 56.0742 19.9949L56.1085 21.8203C56.1085 22.0231 56.2798 22.1922 56.4854 22.1753C57.2906 22.1246 57.9759 21.871 58.5242 21.3978C59.0895 20.9076 59.4664 20.2653 59.6206 19.471L61.0084 19.471C61.1797 19.471 61.3167 19.3357 61.3167 19.1667L61.3167 18.0512C61.3167 17.8822 61.1797 17.747 61.0084 17.747L59.6549 17.747C59.535 16.9019 59.2095 16.2089 58.6955 15.6849C58.1301 15.1103 57.4106 14.806 56.5368 14.806C55.5774 14.806 54.8407 15.0765 54.3439 15.6342C53.847 16.1751 53.3502 17.054 52.8705 18.254C52.6478 18.7442 52.425 19.0991 52.2023 19.285C51.9796 19.471 51.6541 19.5724 51.26 19.5724C50.9003 19.5724 50.6261 19.471 50.4034 19.285C50.1807 19.0991 50.0779 18.8118 50.0779 18.4568C50.0779 18.0174 50.215 17.6625 50.5062 17.392C50.7289 17.1723 51.0887 17.0371 51.5684 16.9864C51.7569 16.9695 51.8939 16.8005 51.8939 16.6314L51.8597 14.806C51.8425 14.6201 51.6712 14.468 51.4656 14.468ZM37.2286 49.9281C37.9653 48.9985 48.8958 39.28 50.4377 36.6771L78.7918 36.6771C81.67 36.6771 84 34.3784 84 31.5389L84 5.13817C84 2.29866 81.67 -1.01848e-07 78.7918 -2.27659e-07L29.1593 -2.39716e-06C26.281 -2.52298e-06 23.951 2.29865 23.951 5.13817L23.951 13.606L23.951 16.6314L28.0285 16.1582C28.1656 16.0061 28.2513 15.9047 28.3883 15.7525L28.3883 14.0624L28.3883 10.682C29.0222 10.8341 29.6904 10.8848 30.3757 10.8003C32.5344 10.5299 34.3333 8.90728 34.813 6.82835C35.0186 5.96636 34.9843 5.15507 34.7958 4.39449L73.4636 4.39449C73.2923 5.25648 73.3437 6.20299 73.7206 7.16639C74.1146 8.19741 74.8684 9.0594 75.7936 9.66787C77.1299 10.5299 78.4148 10.6651 79.5798 10.4623L79.5798 26.2317C78.432 26.0289 77.1813 26.1641 75.845 26.9923C74.8856 27.5839 74.1318 28.4628 73.7377 29.4938C73.3608 30.4741 73.3094 31.4206 73.4807 32.2995L35.7724 32.2995L24.9447 32.2995C26.281 30.5079 30.4613 28.4966 30.4613 28.4966C30.4613 28.4966 41.5974 27.5162 41.5974 21.9555C41.5974 21.8034 41.5974 21.6682 41.5803 21.5161C41.5803 21.5161 41.2205 17.3075 29.0051 20.7893L15.4534 22.3443C15.4534 22.3443 8.08648 24.0852 2.99816 28.8853L1.47338 28.8853C0.668158 28.8853 -1.29069e-06 29.5276 -1.32615e-06 30.3389L-2.01029e-06 45.99C-2.04279e-06 46.7337 0.565359 47.3421 1.30205 47.4267C6.52743 47.9844 25.7842 50.1141 29.0908 51.3817C29.7247 51.6183 30.3585 51.838 31.0267 51.9226C32.7399 52.1254 35.5497 52.0747 37.2286 49.9281Z" fill="#FFC300"/>
</svg>
