<svg width="20" height="20" fill="none" xmlns="http://www.w3.org/2000/svg"><path fill-rule="evenodd" clip-rule="evenodd" d="M5 0a5 5 0 00-5 5v10a5 5 0 005 5h10a5 5 0 005-5V5a5 5 0 00-5-5H5zm11 5a1 1 0 100-2 1 1 0 000 2zm-1 5a5 5 0 11-10 0 5 5 0 0110 0zm-5 3a3 3 0 100-6 3 3 0 000 6z" fill="url(#paint0_linear_4305_8416)"/><defs><linearGradient id="paint0_linear_4305_8416" x1="10" y1="0" x2="10" y2="20" gradientUnits="userSpaceOnUse"><stop stop-color="#5442D6"/><stop offset=".49" stop-color="#E9204C"/><stop offset="1" stop-color="#FEBE53"/><stop offset="1" stop-color="#FEC053"/></linearGradient></defs></svg>