<svg width="86" height="40" fill="none" xmlns="http://www.w3.org/2000/svg"><path d="M73.62 36.174c-.391-.391-.905-.587-1.54-.587-.346 0-.66.057-.943.17a1.67 1.67 0 00-.565.384 1.998 1.998 0 00-.407.584c-.134.295-.2.66-.2 1.095 0 .674.191 1.205.576 1.595.383.39.9.585 1.55.585.645 0 1.159-.195 1.54-.585.384-.39.575-.928.575-1.616 0-.692-.196-1.234-.587-1.625zm-.424 2.256a1.13 1.13 0 01-1.12.834c-.358 0-.65-.124-.876-.374-.227-.25-.34-.616-.34-1.1 0-.485.112-.851.338-1.098.226-.246.519-.37.876-.37.366 0 .658.122.877.366.22.243.33.607.33 1.09a2.15 2.15 0 01-.085.652zm-10.672-2.787h-.93l-1.698 4.3h.933l.36-.961h1.742l.38.961h.957l-1.744-4.3zm-1.07 2.631l.585-1.64.597 1.64h-1.182zm-6.151.836a8.145 8.145 0 00-.29-.433 2.792 2.792 0 00-.215-.265 2.103 2.103 0 00-.467-.352c.384-.055.673-.188.864-.398.191-.21.286-.48.286-.806 0-.248-.063-.473-.19-.676a.993.993 0 00-.511-.42c-.213-.078-.552-.116-1.018-.116h-1.859v4.3h.895V38.16h.178c.2 0 .347.018.442.053a.742.742 0 01.27.179c.083.084.235.292.454.621l.633.93h1.047l-.519-.833zm-1.85-1.628h-.655V36.38h.691c.337 0 .553.005.646.015a.58.58 0 01.338.183c.076.09.114.205.114.341a.54.54 0 01-.093.326.494.494 0 01-.252.184c-.106.037-.37.054-.788.054zm-12.607-1.308c-.391-.391-.904-.587-1.54-.587-.346 0-.66.057-.942.17-.205.082-.394.21-.566.384a1.998 1.998 0 00-.407.584c-.133.295-.2.66-.2 1.095 0 .674.192 1.205.576 1.595.383.39.9.585 1.55.585.645 0 1.159-.195 1.542-.585.382-.39.573-.928.573-1.616 0-.692-.196-1.234-.586-1.625zm-.424 2.256a1.21 1.21 0 01-.257.464 1.13 1.13 0 01-.864.37 1.13 1.13 0 01-.876-.374c-.227-.25-.34-.616-.34-1.1 0-.485.112-.851.34-1.098.225-.246.518-.37.876-.37.364 0 .657.122.877.366.22.243.33.607.33 1.09 0 .25-.028.467-.086.652zm-5.747.68a7.93 7.93 0 00-.291-.433 2.695 2.695 0 00-.215-.265 2.062 2.062 0 00-.466-.352c.384-.055.672-.188.863-.398.192-.21.288-.48.288-.806 0-.248-.064-.473-.191-.676a.992.992 0 00-.51-.42c-.214-.078-.553-.116-1.018-.116h-1.86v4.3h.896V38.16h.177c.2 0 .347.018.443.053a.73.73 0 01.268.179c.085.084.236.292.455.621l.633.93h1.047l-.52-.833zm-1.85-1.628h-.654V36.38h.691c.337 0 .552.005.646.015a.583.583 0 01.338.183c.076.09.113.205.113.341a.568.568 0 01-.093.326.494.494 0 01-.252.184c-.107.037-.37.054-.788.054zm-12.578-1.308c-.391-.391-.904-.587-1.54-.587-.346 0-.66.057-.943.17a1.67 1.67 0 00-.565.384 2.015 2.015 0 00-.408.584c-.132.295-.199.66-.199 1.095 0 .674.192 1.205.576 1.595.384.39.9.585 1.55.585.645 0 1.158-.195 1.541-.585.383-.39.574-.928.574-1.616 0-.692-.196-1.234-.586-1.625zm-.424 2.256c-.058.185-.144.34-.258.464a1.13 1.13 0 01-.863.37c-.357 0-.649-.124-.875-.374-.228-.25-.341-.616-.341-1.1 0-.485.113-.851.34-1.098.225-.246.517-.37.876-.37.364 0 .657.122.877.366.22.243.33.607.33 1.09 0 .25-.028.467-.086.652zm-4.005-2.294c-.17-.22-.38-.363-.628-.428-.16-.043-.51-.065-1.05-.065h-1.415v4.3h.894v-1.612h.573c.041 0 .123-.002.248-.007.123-.005.214-.008.27-.008a1.398 1.398 0 00.35-.04c.184-.041.351-.113.5-.214.15-.101.271-.242.368-.422.096-.181.143-.404.143-.668 0-.338-.083-.617-.253-.836zm-.748 1.184a.587.587 0 01-.275.212c-.11.042-.341.063-.692.063h-.483v-1.217h.82l.242.021c.15.03.27.094.36.193.09.1.136.229.136.387a.563.563 0 01-.108.34zm7.025 2.624l-1.04-4.3h.9l.658 2.934.797-2.934h1.046l.763 2.984.67-2.984h.885l-1.058 4.3h-.934l-.867-3.225-.865 3.225h-.955zm5.142 0v-4.3h3.241v.735h-2.347v.962h2.184v.707h-2.184v1.188h2.43v.708h-3.324zm14.858 0v-4.3h2.974v.735h-2.108v1.019h1.82v.735h-1.82v1.81h-.866zm8.219-1.571l.856.262c-.13.462-.348.805-.653 1.029-.306.224-.69.336-1.156.336-.577 0-1.052-.194-1.425-.58-.374-.388-.56-.917-.56-1.588 0-.705.187-1.255.561-1.651.374-.396.867-.594 1.477-.594.523 0 .956.155 1.299.467.196.182.345.446.446.793l-.875.205a.893.893 0 00-.316-.536.946.946 0 00-.606-.194c-.32 0-.583.114-.786.342-.205.229-.306.596-.306 1.103 0 .54.1.925.298 1.154a.98.98 0 00.776.344c.233 0 .432-.07.597-.21.165-.139.29-.367.373-.682zm5.976 1.571v-4.3h3.24v.735h-2.346v.962h2.183v.707h-2.183v1.188h2.43v.708H56.29zm9.405 0v-3.565h-1.298v-.735h3.49v.735H66.59v3.565h-.894zm3.606-4.3h-.894v4.3h.894v-4.3zm5.569 4.3v-4.3h.851l1.774 2.853v-2.853h.836v4.3h-.878l-1.747-2.787v2.787h-.837zM24.494 0L13.908.001C11.032 0 8.523 1.921 7.825 4.658l-6.65 26.081C.786 32.277.393 33.813 0 35.351l8.886-.001 1.176-4.611h9.73c2.876 0 5.384-1.92 6.082-4.657L30.576 7.64C31.566 3.759 28.573 0 24.494 0zm-2.896 8.002l-4.094 16.059c-.373 1.461-1.885 2.352-3.376 1.985-1.491-.365-2.398-1.847-2.026-3.31 1.366-5.352 2.73-10.705 4.095-16.058.372-1.463 1.884-2.351 3.375-1.986 1.492.366 2.399 1.849 2.026 3.31zM51.923 0H41.337c-2.877 0-5.384 1.92-6.082 4.658L30.553 23.1c-.99 3.88 2.004 7.64 6.082 7.64h10.586c2.877 0 5.385-1.92 6.082-4.657l4.702-18.444C58.995 3.76 56.002 0 51.923 0zm-2.896 8.002l-4.094 16.059c-.373 1.461-1.884 2.352-3.376 1.985-1.492-.365-2.398-1.847-2.025-3.31l4.094-16.058C44 5.215 45.51 4.327 47.002 4.692c1.491.366 2.398 1.849 2.025 3.31zM57.982 23.1l4.702-18.443C63.382 1.92 65.89 0 68.767 0h10.586c4.078 0 7.071 3.759 6.082 7.64l-1.383 5.424h-8.887l1.29-5.061c.374-1.463-.533-2.945-2.024-3.31-1.492-.366-3.004.523-3.376 1.986L66.96 22.737c-.372 1.462.535 2.944 2.026 3.31 1.492.365 3.003-.524 3.375-1.987l1.629-6.385h8.886l-2.144 8.406c-.698 2.737-3.205 4.657-6.082 4.657H64.064c-4.079.001-7.071-3.757-6.082-7.638z" fill="#181818"/></svg>