<svg width="26" height="26" fill="none" xmlns="http://www.w3.org/2000/svg"><path fill-rule="evenodd" clip-rule="evenodd" d="M14.773 6.467a4.775 4.775 0 014.775 4.776.611.611 0 001.22 0 5.997 5.997 0 00-5.995-5.995.61.61 0 100 1.22zm-.921 3.905a.611.611 0 110-1.22 3.132 3.132 0 013.133 3.132.61.61 0 01-1.221 0 1.912 1.912 0 00-1.912-1.912zm3.97 15.09c-1.927-.341-3.83-1.226-5.49-2.24-1.921-1.175-3.716-2.639-5.307-4.23-1.592-1.593-3.057-3.386-4.231-5.309-1.014-1.66-1.9-3.563-2.24-5.49a2.71 2.71 0 01.072-1.295A2.74 2.74 0 011.308 5.8l2.543-2.542a.636.636 0 01.896 0l4.568 4.567a.637.637 0 010 .896L6.887 11.15a1.025 1.025 0 00-.11 1.325A29.119 29.119 0 009.9 16.117a28.916 28.916 0 003.641 3.122 1.023 1.023 0 001.325-.11l2.43-2.428a.624.624 0 01.446-.184c.168 0 .33.066.45.184l4.567 4.568a.637.637 0 010 .896l-2.543 2.542a2.626 2.626 0 01-2.393.754zM14.774 1.725a.61.61 0 010-1.22A10.735 10.735 0 0125.51 11.243a.61.61 0 01-1.221 0 9.515 9.515 0 00-9.515-9.516z" fill="#fff"/></svg>