<svg xmlns="http://www.w3.org/2000/svg" viewBox="0 0 256 256" width="200" height="200"><path d="M242.688-22.528H13.312c-19.762 0-35.84 16.078-35.84 35.84v229.376c0 19.762 16.078 35.84 35.84 35.84h229.376c19.762 0 35.84-16.078 35.84-35.84V13.312c0-19.762-16.078-35.84-35.84-35.84zm-28.629 131.34c-1.627.15-3.276.25-4.946.25-18.802 0-35.324-9.67-44.936-24.285v82.697c0 33.754-27.368 61.122-61.122 61.122-33.754 0-61.121-27.368-61.121-61.122 0-33.754 27.367-61.121 61.121-61.121 1.276 0 2.523.114 3.778.193v30.12c-1.255-.15-2.487-.38-3.778-.38-17.232 0-31.195 13.963-31.195 31.195s13.963 31.195 31.195 31.195 32.45-13.576 32.45-30.808c0-.68.301-140.45.301-140.45h28.787c2.71 25.74 23.49 46.055 49.466 47.919z" font-family="none" font-weight="none" font-size="none" text-anchor="none"/></svg>