<svg width="20" height="20" fill="none" xmlns="http://www.w3.org/2000/svg"><path fill-rule="evenodd" clip-rule="evenodd" d="M4 0a4 4 0 00-4 4v12a4 4 0 004 4h12a4 4 0 004-4V4a4 4 0 00-4-4H4zm9.333 12.333a4.667 4.667 0 11-4.666-4.666V10A2.333 2.333 0 1011 12.333V3h2.333a2.333 2.333 0 002.334 2.333h.777v2.334h-.777a4.65 4.65 0 01-2.334-.625v5.291z" fill="url(#paint0_linear_231_854)"/><defs><linearGradient id="paint0_linear_231_854" x1="10" y1="0" x2="10" y2="20" gradientUnits="userSpaceOnUse"><stop stop-color="#25F4EE"/><stop offset="1" stop-color="#FE2C55"/></linearGradient></defs></svg>