<svg width="44" height="44" fill="none" xmlns="http://www.w3.org/2000/svg"><path d="M22 44c12.15 0 22-9.85 22-22S34.15 0 22 0 0 9.85 0 22s9.85 22 22 22z" fill="#0068FF"/><path opacity=".12" fill-rule="evenodd" clip-rule="evenodd" d="M43.175 22.548L8.938 36.229l5.98 6.394c2.132.687 4.4 1.1 6.738 1.1 11.825 0 21.382-9.419 21.519-21.175z" fill="url(#paint0_linear_1338_453)"/><path fill-rule="evenodd" clip-rule="evenodd" d="M37.332 36.848c3.643-3.85 6.118-8.938 6.118-14.644C43.45 10.242 33.758.548 21.794.548c-4.744 0-8.869 1.787-12.443 4.331-4.125 7.7-3.92 19.044 1.168 25.85v.069c.963 1.375 0 3.85-1.375 5.225-.206.206-.137.344.207.412 1.993.207 4.537-.343 6.324-1.237 6.12 3.369 14.575 3.85 21.657 1.65z" fill="#fff"/><path d="M20.213 16.5H13.2v1.512h4.882l-4.813 5.913c-.137.206-.275.412-.275.894v.412h6.6a.616.616 0 00.619-.619v-.824h-5.088l4.47-5.638.274-.275v-.069c.275-.412.344-.687.344-1.1V16.5zm8.937 8.663h.962V16.5H28.6v8.181c.068.275.275.482.55.482zm-5.156-6.74c-1.856 0-3.437 1.512-3.437 3.437a3.404 3.404 0 003.437 3.438 3.404 3.404 0 003.438-3.438 3.404 3.404 0 00-3.438-3.437zm0 5.431c-1.1 0-1.994-.894-1.994-1.994a1.995 1.995 0 013.988 0c0 1.1-.825 1.994-1.994 1.994zm10.588-5.496a3.404 3.404 0 00-3.438 3.438 3.404 3.404 0 003.438 3.437 3.404 3.404 0 003.438-3.437c0-1.925-1.582-3.438-3.438-3.438zm0 5.5c-1.1 0-1.994-.893-1.994-1.993s.894-1.994 1.994-1.994 1.994.894 1.994 1.994c0 1.03-.894 1.993-1.994 1.993z" fill="#0068FF"/><path d="M26.607 25.163h.825v-6.6h-1.375v5.98c0 .345.275.62.55.62z" fill="#0068FF"/><defs><linearGradient id="paint0_linear_1338_453" x1="25.869" y1="29.06" x2="28.759" y2="33.716" gradientUnits="userSpaceOnUse"><stop/><stop offset=".938" stop-opacity=".062"/><stop offset="1" stop-opacity="0"/></linearGradient></defs></svg>